%FSLAX45Y45*%
G04 Gerber Fmt 4.5, Leading zero omitted, Abs format (unit mm)*
G04 Created by KiCad (PCBNEW (6.0.0-0)) date 2022-07-18 10:03:42*
%MOMM*%
%LPD*%
G01*
G04 APERTURE LIST*
%TA.AperFunction,Profile*%
%ADD10C,0.150000*%
%TD*%
%TA.AperFunction,Profile*%
%ADD11C,0.100000*%
%TD*%
%ADD12C,0.200000*%
G04 APERTURE END LIST*
D10*
X2387500Y-14325000D02*
X27695000Y-14325000D01*
X27695000Y-14325000D02*
G75*
G03*
X28172500Y-13847500I0J477500D01*
G01*
X1910000Y-13847500D02*
G75*
G03*
X2387500Y-14325000I477500J0D01*
G01*
X28172500Y-13847500D02*
X28172500Y-6446250D01*
X1910000Y-13847500D02*
X1910000Y-6446250D01*
X2387500Y-5968750D02*
G75*
G03*
X1910000Y-6446250I0J-477500D01*
G01*
D11*
X2387500Y-5968750D02*
X27695000Y-5968750D01*
D10*
X28172500Y-6446250D02*
G75*
G03*
X27695000Y-5968750I-477500J0D01*
G01*
D12*
X2160119Y-14642976D02*
X2160119Y-14442976D01*
X2207738Y-14442976D01*
X2236310Y-14452500D01*
X2255357Y-14471548D01*
X2264881Y-14490595D01*
X2274405Y-14528690D01*
X2274405Y-14557262D01*
X2264881Y-14595357D01*
X2255357Y-14614405D01*
X2236310Y-14633452D01*
X2207738Y-14642976D01*
X2160119Y-14642976D01*
X2360119Y-14642976D02*
X2360119Y-14509643D01*
X2360119Y-14547738D02*
X2369643Y-14528690D01*
X2379167Y-14519167D01*
X2398214Y-14509643D01*
X2417262Y-14509643D01*
X2483929Y-14642976D02*
X2483929Y-14509643D01*
X2483929Y-14442976D02*
X2474405Y-14452500D01*
X2483929Y-14462024D01*
X2493452Y-14452500D01*
X2483929Y-14442976D01*
X2483929Y-14462024D01*
X2607738Y-14642976D02*
X2588690Y-14633452D01*
X2579167Y-14614405D01*
X2579167Y-14442976D01*
X2712500Y-14642976D02*
X2693452Y-14633452D01*
X2683929Y-14614405D01*
X2683929Y-14442976D01*
X2941071Y-14642976D02*
X2941071Y-14442976D01*
X3007738Y-14585833D01*
X3074405Y-14442976D01*
X3074405Y-14642976D01*
X3255357Y-14642976D02*
X3255357Y-14538214D01*
X3245833Y-14519167D01*
X3226786Y-14509643D01*
X3188690Y-14509643D01*
X3169643Y-14519167D01*
X3255357Y-14633452D02*
X3236309Y-14642976D01*
X3188690Y-14642976D01*
X3169643Y-14633452D01*
X3160119Y-14614405D01*
X3160119Y-14595357D01*
X3169643Y-14576309D01*
X3188690Y-14566786D01*
X3236309Y-14566786D01*
X3255357Y-14557262D01*
X3350595Y-14509643D02*
X3350595Y-14709643D01*
X3350595Y-14519167D02*
X3369643Y-14509643D01*
X3407738Y-14509643D01*
X3426786Y-14519167D01*
X3436309Y-14528690D01*
X3445833Y-14547738D01*
X3445833Y-14604881D01*
X3436309Y-14623928D01*
X3426786Y-14633452D01*
X3407738Y-14642976D01*
X3369643Y-14642976D01*
X3350595Y-14633452D01*
X3531548Y-14623928D02*
X3541071Y-14633452D01*
X3531548Y-14642976D01*
X3522024Y-14633452D01*
X3531548Y-14623928D01*
X3531548Y-14642976D01*
X3531548Y-14519167D02*
X3541071Y-14528690D01*
X3531548Y-14538214D01*
X3522024Y-14528690D01*
X3531548Y-14519167D01*
X3531548Y-14538214D01*
M02*
