%TF.GenerationSoftware,KiCad,Pcbnew,(6.0.0-0)*%
%TF.CreationDate,2022-07-18T09:27:53+02:00*%
%TF.ProjectId,litl_base,6c69746c-5f62-4617-9365-2e6b69636164,rev?*%
%TF.SameCoordinates,Original*%
%TF.FileFunction,Legend,Bot*%
%TF.FilePolarity,Positive*%
%FSLAX46Y46*%
G04 Gerber Fmt 4.6, Leading zero omitted, Abs format (unit mm)*
G04 Created by KiCad (PCBNEW (6.0.0-0)) date 2022-07-18 09:27:53*
%MOMM*%
%LPD*%
G01*
G04 APERTURE LIST*
%ADD10C,7.937499*%
%ADD11C,3.439614*%
%ADD12C,2.200000*%
%ADD13C,4.300000*%
G04 APERTURE END LIST*
%LPC*%
D10*
X161330909Y-116245860D02*
X160685521Y-114207165D01*
X137983016Y-73282462D02*
X137983016Y-73282462D01*
X121605344Y-71079189D02*
X122124623Y-72384513D01*
X152798604Y-129005665D02*
X152478356Y-128784912D01*
X176265461Y-136359328D02*
X175751199Y-136857050D01*
X153133674Y-129194651D02*
X152798604Y-129005665D01*
X136257116Y-128100999D02*
X135811344Y-128069443D01*
X114067298Y-127131225D02*
X113465676Y-127661645D01*
X175947901Y-67675649D02*
X176125759Y-67720183D01*
X110779995Y-129177572D02*
X110037477Y-129379944D01*
X176904383Y-68263516D02*
X177040495Y-68432830D01*
X180838896Y-93602988D02*
X180838896Y-93602988D01*
X119492701Y-106455548D02*
X119028216Y-105266518D01*
X170605198Y-87542044D02*
X170381709Y-85910352D01*
X193477641Y-132365751D02*
X192348290Y-131111368D01*
X140119476Y-124376301D02*
X140030308Y-124834560D01*
X140781215Y-119728993D02*
X140576745Y-121586816D01*
X141645348Y-93971716D02*
X141008179Y-94076818D01*
X136713286Y-128116294D02*
X136713286Y-128116294D01*
X158432558Y-125974807D02*
X158139698Y-126820922D01*
X180797409Y-90865207D02*
X180838896Y-93602988D01*
X142269530Y-103208434D02*
X140199233Y-92700342D01*
X151087136Y-127295132D02*
X150848439Y-126938074D01*
X112836395Y-128136524D02*
X112179194Y-128550827D01*
X128742127Y-124233004D02*
X128191685Y-123536519D01*
X114641518Y-126550299D02*
X114067298Y-127131225D01*
X123848431Y-99551659D02*
X123395273Y-101848793D01*
X200265973Y-137776299D02*
X200078073Y-137768863D01*
X172483625Y-136813980D02*
X171924628Y-136389805D01*
X117029338Y-64891557D02*
X117452104Y-65109333D01*
X199358614Y-137641015D02*
X199186405Y-137586650D01*
X180082717Y-116877059D02*
X180082717Y-116877059D01*
X116595299Y-64736288D02*
X117029338Y-64891557D01*
X170584628Y-73819184D02*
X170670662Y-73441482D01*
X118590523Y-104066608D02*
X118182285Y-102854829D01*
X170392867Y-74892707D02*
X170392867Y-74892707D01*
X143718330Y-108794947D02*
X143377948Y-107709724D01*
X161683345Y-117260048D02*
X161330909Y-116245860D01*
X178429634Y-131804528D02*
X178098952Y-132817520D01*
X179178109Y-128676896D02*
X178965873Y-129732123D01*
X115188598Y-125923901D02*
X114641518Y-126550299D01*
X176295759Y-67786759D02*
X176458262Y-67874878D01*
X132231145Y-127076128D02*
X131877303Y-126889443D01*
X178052284Y-70754321D02*
X178240845Y-71443284D01*
X167118174Y-129471260D02*
X166180065Y-127590198D01*
X171321222Y-71502151D02*
X171503896Y-71119388D01*
X155043624Y-129572562D02*
X155043624Y-129572562D01*
X179911564Y-80159892D02*
X180245926Y-82813810D01*
X171157685Y-71889524D02*
X171321222Y-71502151D01*
X150848439Y-126938074D02*
X150622104Y-126567349D01*
X200078073Y-137768863D02*
X199893463Y-137751192D01*
X139868874Y-90827880D02*
X140296394Y-95216783D01*
X125000358Y-90323684D02*
X124833674Y-92627510D01*
X176458262Y-67874878D02*
X176613627Y-67984042D01*
X158671202Y-125045134D02*
X158432558Y-125974807D01*
X162203324Y-143386153D02*
X142875227Y-142226076D01*
X158213983Y-106105471D02*
X157840568Y-105120180D01*
X124246614Y-97246040D02*
X123848431Y-99551659D01*
X112179194Y-128550827D02*
X111493814Y-128899522D01*
X122592113Y-73689483D02*
X123006922Y-74960716D01*
X105885334Y-129080421D02*
X104965177Y-128722999D01*
X174017928Y-100231063D02*
X174017928Y-100231063D01*
X157447099Y-104065611D02*
X157569230Y-104588648D01*
X165318814Y-125747439D02*
X162915511Y-120266380D01*
X166180065Y-127590198D02*
X165318814Y-125747439D01*
X158862985Y-113393311D02*
X159057974Y-115821807D01*
X177416081Y-69053102D02*
X177531560Y-69295643D01*
X171200109Y-90802682D02*
X170878695Y-89174355D01*
X172923179Y-97184033D02*
X172430976Y-95617698D01*
X123853493Y-115695111D02*
X122693098Y-113416787D01*
X178240845Y-71443284D02*
X178422454Y-72186553D01*
X177642781Y-69555246D02*
X177750104Y-69831413D01*
X157377017Y-128221740D02*
X156900040Y-128756074D01*
X125067685Y-88029538D02*
X125000358Y-90323684D01*
X132593195Y-127247913D02*
X132231145Y-127076128D01*
X137670008Y-128035811D02*
X137452109Y-128073698D01*
X199017106Y-137524174D02*
X198850642Y-137454011D01*
X126662014Y-121136267D02*
X126186835Y-120236213D01*
X158139698Y-126820922D02*
X157789043Y-127573294D01*
X116202371Y-124554828D02*
X115708795Y-125257066D01*
X141021498Y-108419921D02*
X141051468Y-112148931D01*
X178121934Y-109701436D02*
X176653704Y-106536450D01*
X139203998Y-127079104D02*
X139095464Y-127217748D01*
X173657950Y-68552130D02*
X173934183Y-68348864D01*
X139827227Y-125688112D02*
X139704880Y-126078816D01*
X158562203Y-107099888D02*
X158213983Y-106105471D01*
X170087441Y-77922377D02*
X170207842Y-76391114D01*
X159057974Y-115821807D02*
X159164917Y-118282713D01*
X127153380Y-121987062D02*
X126662014Y-121136267D01*
X171931500Y-70376410D02*
X172178854Y-70020558D01*
X139733853Y-94239148D02*
X139097331Y-94291212D01*
X154629183Y-129581202D02*
X154231318Y-129545145D01*
X151338548Y-127635937D02*
X151087136Y-127295132D01*
X171924628Y-136389805D02*
X171366068Y-135871604D01*
X135528507Y-94250986D02*
X135050848Y-94209972D01*
X200651946Y-137758765D02*
X200457238Y-137773074D01*
X117806166Y-101630187D02*
X116502126Y-96942445D01*
X186976424Y-124607124D02*
X186976424Y-124607124D01*
X115177749Y-91641558D02*
X113974897Y-86046519D01*
X140294158Y-123408294D02*
X140294158Y-123408294D01*
X195751860Y-134825324D02*
X193477641Y-132365751D01*
X149833371Y-124999495D02*
X149504051Y-124200796D01*
X140030308Y-124834560D02*
X139934297Y-125272595D01*
X137964804Y-73813671D02*
X137983016Y-73282462D01*
X176653704Y-106536450D02*
X175285785Y-103370974D01*
X153849679Y-129466976D02*
X153483915Y-129349283D01*
X123674927Y-77268434D02*
X124121497Y-79040595D01*
X198525913Y-137292323D02*
X198211610Y-137104985D01*
X134127849Y-127783325D02*
X133730779Y-127672503D01*
X114748641Y-64823737D02*
X115226658Y-64687250D01*
X139725424Y-90043143D02*
X139311053Y-87389455D01*
X162061819Y-118269065D02*
X161683345Y-117260048D01*
X176766504Y-135692232D02*
X176265461Y-136359328D01*
X138977087Y-84747073D02*
X138744490Y-82123786D01*
X112968141Y-67890611D02*
X113215954Y-67104667D01*
X175150691Y-67727885D02*
X175363580Y-67679274D01*
X110037477Y-129379944D02*
X109266002Y-129501603D01*
X113463374Y-83238377D02*
X113035430Y-80476319D01*
X143377948Y-107709724D02*
X143060403Y-106610822D01*
X140296394Y-95216783D02*
X140649837Y-99610494D01*
X187997701Y-125937813D02*
X186976424Y-124607124D01*
X109266002Y-129501603D02*
X108465310Y-129537514D01*
X104965177Y-128722999D02*
X104014505Y-128254658D01*
X155043624Y-129572562D02*
X154629183Y-129581202D01*
X140900955Y-104010908D02*
X141021498Y-108419921D01*
X122693098Y-113416787D02*
X121565296Y-111122706D01*
X177295983Y-68828121D02*
X177416081Y-69053102D01*
X170883172Y-72669371D02*
X171012072Y-72279324D01*
X137981421Y-74898927D02*
X137964957Y-74352859D01*
X159155186Y-120694554D02*
X159000156Y-122975853D01*
X138461662Y-94320434D02*
X137827162Y-94324233D01*
X120414993Y-68601019D02*
X121035170Y-69806897D01*
X118263368Y-65715713D02*
X118651643Y-66095971D01*
X136713286Y-128116294D02*
X136257116Y-128100999D01*
X174017928Y-100231063D02*
X173452859Y-98723356D01*
X145448387Y-93168584D02*
X142918105Y-93726540D01*
X102020579Y-126965079D02*
X100976805Y-126133773D01*
X118619296Y-119879865D02*
X117915644Y-121492534D01*
X181360317Y-115925723D02*
X179690722Y-112839878D01*
X119223726Y-118266548D02*
X118619296Y-119879865D01*
X198850642Y-137454011D02*
X198686936Y-137376586D01*
X157569230Y-104588648D02*
X158035990Y-107117046D01*
X125024558Y-85749615D02*
X125067685Y-88029538D01*
X184054265Y-120398874D02*
X183130967Y-118932915D01*
X147941390Y-92658157D02*
X146700821Y-92897104D01*
X177170908Y-68621197D02*
X177295983Y-68828121D01*
X158035990Y-107117046D02*
X158608574Y-111078702D01*
X170210313Y-84283886D02*
X170093100Y-82667250D01*
X124121497Y-79040595D02*
X124121497Y-79040595D01*
X195751860Y-134825324D02*
X195751860Y-134825324D01*
X144851737Y-111992164D02*
X144079072Y-109868854D01*
X131531450Y-126687994D02*
X131193366Y-126471916D01*
X199186405Y-137586650D02*
X199017106Y-137524174D01*
X180245926Y-82813810D02*
X180503382Y-85477848D01*
X159164917Y-118282713D02*
X159155186Y-120694554D01*
X119028216Y-105266518D02*
X118590523Y-104066608D01*
X173934183Y-68348864D02*
X174198960Y-68172618D01*
X148261809Y-120505035D02*
X148261809Y-120505035D01*
X177853889Y-70123647D02*
X178052284Y-70754321D01*
X191230687Y-129841042D02*
X190129766Y-128555113D01*
X162915511Y-120266380D02*
X162915511Y-120266380D01*
X131193366Y-126471916D02*
X130539631Y-125996419D01*
X170257088Y-134590798D02*
X169170342Y-133046907D01*
X137983016Y-73282462D02*
X139868874Y-90827880D01*
X173596104Y-137342577D02*
X173041353Y-137134710D01*
X180570441Y-105241311D02*
X180082717Y-116877059D01*
X170670662Y-73441482D02*
X170769773Y-73057484D01*
X109677116Y-139587173D02*
X102351661Y-138910054D01*
X175567171Y-67654697D02*
X175761825Y-67653654D01*
X111493814Y-128899522D02*
X110779995Y-129177572D01*
X114279821Y-65254575D02*
X114748641Y-64823737D01*
X199533810Y-137686843D02*
X199358614Y-137641015D01*
X136957454Y-94310521D02*
X136489767Y-94298566D01*
X176613627Y-67984042D02*
X176762214Y-68113755D01*
X118182285Y-102854829D02*
X117806166Y-101630187D01*
X146700821Y-92897104D02*
X145448387Y-93168584D01*
X162470988Y-119271608D02*
X162061819Y-118269065D01*
X174928144Y-67801027D02*
X175150691Y-67727885D01*
X178098952Y-132817520D02*
X177722106Y-133812247D01*
X117452104Y-65109333D02*
X117863484Y-65385443D01*
X172450193Y-69678037D02*
X172746728Y-69351030D01*
X197046516Y-136167086D02*
X196775235Y-135902464D01*
X173069670Y-69041717D02*
X173369899Y-68782915D01*
X120491395Y-108804936D02*
X119492701Y-106455548D01*
X179932390Y-121130562D02*
X179814079Y-123294251D01*
X175363580Y-67679274D02*
X175567171Y-67654697D01*
X139304495Y-126931961D02*
X139203998Y-127079104D01*
X170207842Y-76391114D02*
X170392867Y-74892707D01*
X138978365Y-127347608D02*
X138852176Y-127468397D01*
X173452859Y-98723356D02*
X172923179Y-97184033D01*
X141051468Y-112148931D02*
X141042694Y-114044793D01*
X137220374Y-128099933D02*
X136974275Y-128114227D01*
X140294158Y-123408294D02*
X140119476Y-124376301D01*
X124833674Y-92627510D02*
X124578727Y-94936476D01*
X149214350Y-123419830D02*
X148961459Y-122677285D01*
X124562560Y-81250602D02*
X124859881Y-83488456D01*
X150622104Y-126567349D02*
X150205119Y-125795242D01*
X157789043Y-127573294D02*
X157377017Y-128221740D01*
X180838896Y-93602988D02*
X180823604Y-96510130D01*
X144079072Y-109868854D02*
X143718330Y-108794947D01*
X176762214Y-68113755D02*
X176904383Y-68263516D01*
X113035430Y-80476319D02*
X112708797Y-77800219D01*
X199893463Y-137751192D02*
X199712068Y-137723710D01*
X116502126Y-96942445D02*
X115177749Y-91641558D01*
X126186835Y-120236213D02*
X126186835Y-120236213D01*
X175761825Y-67653654D02*
X175947901Y-67675649D01*
X138012139Y-75450776D02*
X137981421Y-74898927D01*
X175225425Y-137194818D02*
X174689847Y-137382050D01*
X129315764Y-124875875D02*
X128742127Y-124233004D01*
X172746728Y-69351030D02*
X173069670Y-69041717D01*
X123006922Y-74960716D02*
X123674927Y-77268434D01*
X120086432Y-68033418D02*
X120414993Y-68601019D01*
X197325187Y-136423047D02*
X197046516Y-136167086D01*
X140445946Y-122502769D02*
X140294158Y-123408294D01*
X132963671Y-127404661D02*
X132593195Y-127247913D01*
X172430976Y-95617698D02*
X171978338Y-94028958D01*
X123395273Y-101848793D02*
X122368417Y-106399438D01*
X171012072Y-72279324D02*
X171157685Y-71889524D01*
X120143225Y-115199073D02*
X120143225Y-115199073D01*
X128191685Y-123536519D02*
X127662687Y-122787509D01*
X156354534Y-129166112D02*
X155736921Y-129441670D01*
X178965873Y-129732123D02*
X178717495Y-130775365D01*
X121565296Y-111122706D02*
X120491395Y-108804936D01*
X139311053Y-87389455D02*
X138977087Y-84747073D01*
X140649837Y-99610494D02*
X140900955Y-104010908D01*
X141021498Y-108419921D02*
X141021498Y-108419921D01*
X174695580Y-67899198D02*
X174928144Y-67801027D01*
X127662687Y-122787509D02*
X127153380Y-121987062D01*
X130539631Y-125996419D02*
X129914348Y-125464043D01*
X133730779Y-127672503D02*
X133342793Y-127546237D01*
X124121497Y-79040595D02*
X124562560Y-81250602D01*
X171366068Y-135871604D02*
X170809653Y-135268796D01*
X113974897Y-86046519D02*
X113463374Y-83238377D01*
X171978338Y-94028958D02*
X171567352Y-92422418D01*
X137827162Y-94324233D02*
X137827162Y-94324233D01*
X198686936Y-137376586D02*
X198525913Y-137292323D01*
X139563037Y-126442413D02*
X139397483Y-126776607D01*
X179507518Y-126538861D02*
X179357544Y-127611778D01*
X171567352Y-92422418D02*
X171200109Y-90802682D01*
X178422454Y-72186553D02*
X178422454Y-72186553D01*
X119392923Y-66989757D02*
X119745705Y-67494940D01*
X159000156Y-122975853D02*
X158859209Y-124042088D01*
X138108118Y-76567420D02*
X138012139Y-75450776D01*
X179814079Y-123294251D02*
X179631371Y-125460239D01*
X135811344Y-128069443D02*
X135375750Y-128021761D01*
X139095464Y-127217748D02*
X138978365Y-127347608D01*
X177040495Y-68432830D02*
X177170908Y-68621197D01*
X171706918Y-70743414D02*
X171931500Y-70376410D01*
X138413787Y-127773463D02*
X138245961Y-127855095D01*
X131877303Y-126889443D02*
X131531450Y-126687994D01*
X170878695Y-89174355D02*
X170605198Y-87542044D01*
X137964957Y-74352859D02*
X137964804Y-73813671D01*
X138744490Y-82123786D02*
X138651160Y-81045403D01*
X142918105Y-93726540D02*
X141645348Y-93971716D01*
X176125759Y-67720183D02*
X176295759Y-67786759D01*
X112514097Y-70686402D02*
X112770038Y-68752871D01*
X143060403Y-106610822D02*
X142768168Y-105495881D01*
X153483915Y-129349283D02*
X153133674Y-129194651D01*
X180082717Y-116877059D02*
X179932390Y-121130562D01*
X137452109Y-128073698D02*
X137220374Y-128099933D01*
X142503718Y-104362539D02*
X142269530Y-103208434D01*
X123522200Y-140779777D02*
X109677116Y-139587173D01*
X192348290Y-131111368D02*
X191230687Y-129841042D01*
X138744490Y-82123786D02*
X138744490Y-82123786D01*
X152478356Y-128784912D02*
X152172577Y-128534976D01*
X117806166Y-101630187D02*
X117806166Y-101630187D01*
X148261809Y-120505035D02*
X144851737Y-111992164D01*
X177252621Y-134846345D02*
X176766504Y-135692232D01*
X149504051Y-124200796D02*
X149214350Y-123419830D01*
X170392867Y-74892707D02*
X170510458Y-74188409D01*
X180767809Y-99419408D02*
X180570441Y-105241311D01*
X157437300Y-104145316D02*
X157447099Y-104065611D01*
X113215954Y-67104667D02*
X113515694Y-66400024D01*
X117863484Y-65385443D02*
X118263368Y-65715713D01*
X162915511Y-120266380D02*
X162470988Y-119271608D01*
X138852176Y-127468397D02*
X138716368Y-127579826D01*
X152172577Y-128534976D02*
X151880917Y-128258445D01*
X174452639Y-68022896D02*
X174695580Y-67899198D01*
X156900040Y-128756074D02*
X156354534Y-129166112D01*
X170093100Y-82667250D02*
X170032159Y-81065050D01*
X170769773Y-73057484D02*
X170883172Y-72669371D01*
X103033059Y-127670363D02*
X102020579Y-126965079D01*
X141042694Y-114044793D02*
X141002513Y-115947247D01*
X138524415Y-79941782D02*
X138236452Y-77693998D01*
X115693848Y-64629962D02*
X116150099Y-64647699D01*
X142768168Y-105495881D02*
X142503718Y-104362539D01*
X119028199Y-66522043D02*
X119392923Y-66989757D01*
X170809653Y-135268796D02*
X170257088Y-134590798D01*
X190129766Y-128555113D02*
X189050460Y-127253924D01*
X112770038Y-68752871D02*
X112968141Y-67890611D01*
X173041353Y-137134710D02*
X172483625Y-136813980D01*
X175285785Y-103370974D02*
X174017928Y-100231063D01*
X136010799Y-94279619D02*
X135528507Y-94250986D01*
X172178854Y-70020558D02*
X172450193Y-69678037D01*
X150205119Y-125795242D02*
X149833371Y-124999495D01*
X142875227Y-142226076D02*
X123522200Y-140779777D01*
X124859881Y-83488456D02*
X125024558Y-85749615D01*
X185002920Y-121835400D02*
X184054265Y-120398874D01*
X124578727Y-94936476D02*
X124246614Y-97246040D01*
X151880917Y-128258445D02*
X151603024Y-127957903D01*
X182232995Y-117440779D02*
X181360317Y-115925723D01*
X141008179Y-94076818D02*
X140370908Y-94166823D01*
X197611854Y-136666949D02*
X197325187Y-136423047D01*
X200282591Y-145470039D02*
X162203324Y-143386153D01*
X186976424Y-124607124D02*
X185976962Y-123239235D01*
X138245961Y-127855095D02*
X138066407Y-127926222D01*
X138066407Y-127926222D02*
X137874598Y-127986556D01*
X160088395Y-112163379D02*
X159502270Y-110124902D01*
X137827162Y-94324233D02*
X136957454Y-94310521D01*
X113515694Y-66400024D02*
X113869577Y-65781665D01*
X155736921Y-129441670D02*
X155043624Y-129572562D01*
X160685521Y-114207165D02*
X160088395Y-112163379D01*
X198211610Y-137104985D02*
X197907126Y-136895395D01*
X119731010Y-116692859D02*
X119223726Y-118266548D01*
X196252413Y-135360829D02*
X195751860Y-134825324D01*
X141002513Y-115947247D02*
X140919245Y-117845558D01*
X134360447Y-94119343D02*
X134141249Y-94080024D01*
X179357544Y-127611778D02*
X179178109Y-128676896D01*
X177531560Y-69295643D02*
X177642781Y-69555246D01*
X139704880Y-126078816D02*
X139563037Y-126442413D01*
X104014505Y-128254658D02*
X103033059Y-127670363D01*
X112708797Y-77800219D02*
X112501209Y-75249950D01*
X138236452Y-77693998D02*
X138108118Y-76567420D01*
X173069670Y-69041717D02*
X173069670Y-69041717D01*
X113869577Y-65781665D02*
X114279821Y-65254575D01*
X133342793Y-127546237D02*
X132963671Y-127404661D01*
X107635141Y-129482644D02*
X106775235Y-129331958D01*
X171503896Y-71119388D02*
X171706918Y-70743414D01*
X142269530Y-103208434D02*
X142269530Y-103208434D01*
X179002286Y-74853494D02*
X179497837Y-77508863D01*
X136489767Y-94298566D02*
X136010799Y-94279619D01*
X129914348Y-125464043D02*
X129315764Y-124875875D01*
X112430398Y-72865386D02*
X112514097Y-70686402D01*
X137874598Y-127986556D02*
X137670008Y-128035811D01*
X122124623Y-72384513D02*
X122592113Y-73689483D01*
X175751199Y-136857050D02*
X175225425Y-137194818D01*
X157437300Y-104145316D02*
X157437300Y-104145316D01*
X159502270Y-110124902D02*
X158889886Y-108102133D01*
X139397483Y-126776607D02*
X139304495Y-126931961D01*
X178422454Y-72186553D02*
X179002286Y-74853494D01*
X189050460Y-127253924D02*
X187997701Y-125937813D01*
X197907126Y-136895395D02*
X197611854Y-136666949D01*
X180686390Y-88159237D02*
X180797409Y-90865207D01*
X140370908Y-94166823D02*
X139733853Y-94239148D01*
X118651643Y-66095971D02*
X119028199Y-66522043D01*
X170032159Y-81065050D02*
X170029576Y-79481890D01*
X119745705Y-67494940D02*
X120086432Y-68033418D01*
X179497837Y-77508863D02*
X179911564Y-80159892D01*
X115708795Y-125257066D02*
X115188598Y-125923901D01*
X138570414Y-127681611D02*
X138413787Y-127773463D01*
X139934297Y-125272595D02*
X139827227Y-125688112D01*
X126186835Y-120236213D02*
X123853493Y-115695111D01*
X177722106Y-133812247D02*
X177722106Y-133812247D01*
X158608574Y-111078702D02*
X158862985Y-113393311D01*
X174198960Y-68172618D02*
X174452639Y-68022896D01*
X178717495Y-130775365D02*
X178429634Y-131804528D01*
X170381709Y-85910352D02*
X170210313Y-84283886D01*
X148961459Y-122677285D02*
X148261809Y-120505035D01*
X115226658Y-64687250D02*
X115693848Y-64629962D01*
X200457238Y-137773074D02*
X200265973Y-137776299D01*
X116150099Y-64647699D02*
X116595299Y-64736288D01*
X185976962Y-123239235D02*
X185002920Y-121835400D01*
X154231318Y-129545145D02*
X153849679Y-129466976D01*
X169170342Y-133046907D02*
X168119485Y-131315278D01*
X135050848Y-94209972D02*
X134585776Y-94153883D01*
X179631371Y-125460239D02*
X179507518Y-126538861D01*
X179690722Y-112839878D02*
X178121934Y-109701436D01*
X199712068Y-137723710D02*
X199533810Y-137686843D01*
X123522200Y-140779777D02*
X123522200Y-140779777D01*
D11*
X155766631Y-95098998D02*
X155627192Y-95089554D01*
X155627192Y-95089554D02*
X155489901Y-95071184D01*
X155489901Y-95071184D02*
X155354918Y-95044113D01*
X155354918Y-95044113D02*
X155222408Y-95008569D01*
X155222408Y-95008569D02*
X155092533Y-94964779D01*
X155092533Y-94964779D02*
X154965456Y-94912968D01*
X154965456Y-94912968D02*
X154841339Y-94853363D01*
X154841339Y-94853363D02*
X154720345Y-94786191D01*
X154720345Y-94786191D02*
X154602637Y-94711679D01*
X154602637Y-94711679D02*
X154488377Y-94630052D01*
X154488377Y-94630052D02*
X154377729Y-94541539D01*
X154377729Y-94541539D02*
X154270855Y-94446364D01*
X154270855Y-94446364D02*
X154167917Y-94344755D01*
X154167917Y-94344755D02*
X154069079Y-94236938D01*
X154069079Y-94236938D02*
X153974503Y-94123140D01*
X153974503Y-94123140D02*
X153884352Y-94003587D01*
X153884352Y-94003587D02*
X153798789Y-93878506D01*
X153798789Y-93878506D02*
X153717976Y-93748124D01*
X153717976Y-93748124D02*
X153642076Y-93612667D01*
X153642076Y-93612667D02*
X153571253Y-93472361D01*
X153571253Y-93472361D02*
X153505667Y-93327434D01*
X153505667Y-93327434D02*
X153445483Y-93178111D01*
X153445483Y-93178111D02*
X153390863Y-93024619D01*
X153390863Y-93024619D02*
X153341970Y-92867186D01*
X153341970Y-92867186D02*
X153298966Y-92706037D01*
X153298966Y-92706037D02*
X153262014Y-92541399D01*
X153262014Y-92541399D02*
X153231277Y-92373498D01*
X153231277Y-92373498D02*
X153206918Y-92202561D01*
X153206918Y-92202561D02*
X153189099Y-92028816D01*
X153189099Y-92028816D02*
X153177984Y-91852487D01*
X153177984Y-91852487D02*
X153173734Y-91673802D01*
X153173734Y-91673802D02*
X153176512Y-91492988D01*
X153176512Y-91492988D02*
X153186352Y-91312420D01*
X153186352Y-91312420D02*
X153203055Y-91134467D01*
X153203055Y-91134467D02*
X153256337Y-90787263D01*
X153256337Y-90787263D02*
X153334933Y-90453094D01*
X153334933Y-90453094D02*
X153437419Y-90133676D01*
X153437419Y-90133676D02*
X153562370Y-89830728D01*
X153562370Y-89830728D02*
X153708359Y-89545967D01*
X153708359Y-89545967D02*
X153873963Y-89281110D01*
X153873963Y-89281110D02*
X154057755Y-89037873D01*
X154057755Y-89037873D02*
X154156027Y-88924900D01*
X154156027Y-88924900D02*
X154258311Y-88817976D01*
X154258311Y-88817976D02*
X154364430Y-88717316D01*
X154364430Y-88717316D02*
X154474205Y-88623134D01*
X154474205Y-88623134D02*
X154587459Y-88535646D01*
X154587459Y-88535646D02*
X154704013Y-88455066D01*
X154704013Y-88455066D02*
X154823689Y-88381609D01*
X154823689Y-88381609D02*
X154946309Y-88315489D01*
X154946309Y-88315489D02*
X155071695Y-88256920D01*
X155071695Y-88256920D02*
X155199668Y-88206119D01*
X155199668Y-88206119D02*
X155330050Y-88163299D01*
X155330050Y-88163299D02*
X155462664Y-88128674D01*
X155462664Y-88128674D02*
X155597331Y-88102461D01*
X155597331Y-88102461D02*
X155733873Y-88084872D01*
X155733873Y-88084872D02*
X155872112Y-88076124D01*
X155872112Y-88076124D02*
X156011870Y-88076431D01*
X156011870Y-88076431D02*
X156151307Y-88085875D01*
X156151307Y-88085875D02*
X156288598Y-88104245D01*
X156288598Y-88104245D02*
X156423579Y-88131316D01*
X156423579Y-88131316D02*
X156556089Y-88166860D01*
X156556089Y-88166860D02*
X156685963Y-88210651D01*
X156685963Y-88210651D02*
X156813041Y-88262462D01*
X156813041Y-88262462D02*
X156937158Y-88322067D01*
X156937158Y-88322067D02*
X157058152Y-88389239D01*
X157058152Y-88389239D02*
X157175860Y-88463752D01*
X157175860Y-88463752D02*
X157290120Y-88545378D01*
X157290120Y-88545378D02*
X157400768Y-88633892D01*
X157400768Y-88633892D02*
X157507643Y-88729068D01*
X157507643Y-88729068D02*
X157610581Y-88830677D01*
X157610581Y-88830677D02*
X157709419Y-88938494D01*
X157709419Y-88938494D02*
X157803995Y-89052293D01*
X157803995Y-89052293D02*
X157894147Y-89171846D01*
X157894147Y-89171846D02*
X157979710Y-89296927D01*
X157979710Y-89296927D02*
X158060523Y-89427309D01*
X158060523Y-89427309D02*
X158136423Y-89562767D01*
X158136423Y-89562767D02*
X158207247Y-89703073D01*
X158207247Y-89703073D02*
X158272833Y-89848001D01*
X158272833Y-89848001D02*
X158333016Y-89997324D01*
X158333016Y-89997324D02*
X158387636Y-90150816D01*
X158387636Y-90150816D02*
X158436529Y-90308249D01*
X158436529Y-90308249D02*
X158479532Y-90469399D01*
X158479532Y-90469399D02*
X158516483Y-90634037D01*
X158516483Y-90634037D02*
X158547219Y-90801938D01*
X158547219Y-90801938D02*
X158571576Y-90972875D01*
X158571576Y-90972875D02*
X158589393Y-91146621D01*
X158589393Y-91146621D02*
X158600507Y-91322949D01*
X158600507Y-91322949D02*
X158604755Y-91501634D01*
X158604755Y-91501634D02*
X158601973Y-91682449D01*
X158601973Y-91682449D02*
X158592135Y-91863017D01*
X158592135Y-91863017D02*
X158575434Y-92040970D01*
X158575434Y-92040970D02*
X158522153Y-92388173D01*
X158522153Y-92388173D02*
X158443558Y-92722342D01*
X158443558Y-92722342D02*
X158341073Y-93041759D01*
X158341073Y-93041759D02*
X158216123Y-93344706D01*
X158216123Y-93344706D02*
X158070134Y-93629467D01*
X158070134Y-93629467D02*
X157904530Y-93894324D01*
X157904530Y-93894324D02*
X157720738Y-94137559D01*
X157720738Y-94137559D02*
X157622466Y-94250532D01*
X157622466Y-94250532D02*
X157520182Y-94357456D01*
X157520182Y-94357456D02*
X157414063Y-94458116D01*
X157414063Y-94458116D02*
X157304288Y-94552297D01*
X157304288Y-94552297D02*
X157191034Y-94639785D01*
X157191034Y-94639785D02*
X157074480Y-94720364D01*
X157074480Y-94720364D02*
X156954805Y-94793822D01*
X156954805Y-94793822D02*
X156832185Y-94859941D01*
X156832185Y-94859941D02*
X156706800Y-94918509D01*
X156706800Y-94918509D02*
X156578827Y-94969311D01*
X156578827Y-94969311D02*
X156448445Y-95012131D01*
X156448445Y-95012131D02*
X156315832Y-95046755D01*
X156315832Y-95046755D02*
X156181166Y-95072968D01*
X156181166Y-95072968D02*
X156044625Y-95090556D01*
X156044625Y-95090556D02*
X155906387Y-95099305D01*
X155906387Y-95099305D02*
X155766631Y-95098998D01*
X155766631Y-95098998D02*
X155766631Y-95098998D01*
G36*
X156011870Y-88076431D02*
G01*
X156151307Y-88085875D01*
X156288598Y-88104245D01*
X156423579Y-88131316D01*
X156556089Y-88166860D01*
X156685963Y-88210651D01*
X156813041Y-88262462D01*
X156937158Y-88322067D01*
X157058152Y-88389239D01*
X157175860Y-88463752D01*
X157290120Y-88545378D01*
X157400768Y-88633892D01*
X157507643Y-88729068D01*
X157610581Y-88830677D01*
X157709419Y-88938494D01*
X157803995Y-89052293D01*
X157894147Y-89171846D01*
X157979710Y-89296927D01*
X158060523Y-89427309D01*
X158136423Y-89562767D01*
X158207247Y-89703073D01*
X158272833Y-89848001D01*
X158333016Y-89997324D01*
X158387636Y-90150816D01*
X158436529Y-90308249D01*
X158479532Y-90469399D01*
X158516483Y-90634037D01*
X158547219Y-90801938D01*
X158571576Y-90972875D01*
X158589393Y-91146621D01*
X158600507Y-91322949D01*
X158604755Y-91501634D01*
X158601973Y-91682449D01*
X158592135Y-91863017D01*
X158575434Y-92040970D01*
X158522153Y-92388173D01*
X158443558Y-92722342D01*
X158341073Y-93041759D01*
X158216123Y-93344706D01*
X158070134Y-93629467D01*
X157904530Y-93894324D01*
X157720738Y-94137559D01*
X157622466Y-94250532D01*
X157520182Y-94357456D01*
X157414063Y-94458116D01*
X157304288Y-94552297D01*
X157191034Y-94639785D01*
X157074480Y-94720364D01*
X156954805Y-94793822D01*
X156832185Y-94859941D01*
X156706800Y-94918509D01*
X156578827Y-94969311D01*
X156448445Y-95012131D01*
X156315832Y-95046755D01*
X156181166Y-95072968D01*
X156044625Y-95090556D01*
X155906387Y-95099305D01*
X155766631Y-95098998D01*
X155627192Y-95089554D01*
X155489901Y-95071184D01*
X155354918Y-95044113D01*
X155222408Y-95008569D01*
X155092533Y-94964779D01*
X154965456Y-94912968D01*
X154841339Y-94853363D01*
X154720345Y-94786191D01*
X154602637Y-94711679D01*
X154488377Y-94630052D01*
X154377729Y-94541539D01*
X154270855Y-94446364D01*
X154167917Y-94344755D01*
X154069079Y-94236938D01*
X153974503Y-94123140D01*
X153884352Y-94003587D01*
X153798789Y-93878506D01*
X153717976Y-93748124D01*
X153642076Y-93612667D01*
X153571253Y-93472361D01*
X153505667Y-93327434D01*
X153445483Y-93178111D01*
X153390863Y-93024619D01*
X153341970Y-92867186D01*
X153298966Y-92706037D01*
X153262014Y-92541399D01*
X153231277Y-92373498D01*
X153206918Y-92202561D01*
X153189099Y-92028816D01*
X153177984Y-91852487D01*
X153173734Y-91673802D01*
X153176512Y-91492988D01*
X153186352Y-91312420D01*
X153203055Y-91134467D01*
X153256337Y-90787263D01*
X153334933Y-90453094D01*
X153437419Y-90133676D01*
X153562370Y-89830728D01*
X153708359Y-89545967D01*
X153873963Y-89281110D01*
X154057755Y-89037873D01*
X154156027Y-88924900D01*
X154258311Y-88817976D01*
X154364430Y-88717316D01*
X154474205Y-88623134D01*
X154587459Y-88535646D01*
X154704013Y-88455066D01*
X154823689Y-88381609D01*
X154946309Y-88315489D01*
X155071695Y-88256920D01*
X155199668Y-88206119D01*
X155330050Y-88163299D01*
X155462664Y-88128674D01*
X155597331Y-88102461D01*
X155733873Y-88084872D01*
X155872112Y-88076124D01*
X156011870Y-88076431D01*
G37*
X156011870Y-88076431D02*
X156151307Y-88085875D01*
X156288598Y-88104245D01*
X156423579Y-88131316D01*
X156556089Y-88166860D01*
X156685963Y-88210651D01*
X156813041Y-88262462D01*
X156937158Y-88322067D01*
X157058152Y-88389239D01*
X157175860Y-88463752D01*
X157290120Y-88545378D01*
X157400768Y-88633892D01*
X157507643Y-88729068D01*
X157610581Y-88830677D01*
X157709419Y-88938494D01*
X157803995Y-89052293D01*
X157894147Y-89171846D01*
X157979710Y-89296927D01*
X158060523Y-89427309D01*
X158136423Y-89562767D01*
X158207247Y-89703073D01*
X158272833Y-89848001D01*
X158333016Y-89997324D01*
X158387636Y-90150816D01*
X158436529Y-90308249D01*
X158479532Y-90469399D01*
X158516483Y-90634037D01*
X158547219Y-90801938D01*
X158571576Y-90972875D01*
X158589393Y-91146621D01*
X158600507Y-91322949D01*
X158604755Y-91501634D01*
X158601973Y-91682449D01*
X158592135Y-91863017D01*
X158575434Y-92040970D01*
X158522153Y-92388173D01*
X158443558Y-92722342D01*
X158341073Y-93041759D01*
X158216123Y-93344706D01*
X158070134Y-93629467D01*
X157904530Y-93894324D01*
X157720738Y-94137559D01*
X157622466Y-94250532D01*
X157520182Y-94357456D01*
X157414063Y-94458116D01*
X157304288Y-94552297D01*
X157191034Y-94639785D01*
X157074480Y-94720364D01*
X156954805Y-94793822D01*
X156832185Y-94859941D01*
X156706800Y-94918509D01*
X156578827Y-94969311D01*
X156448445Y-95012131D01*
X156315832Y-95046755D01*
X156181166Y-95072968D01*
X156044625Y-95090556D01*
X155906387Y-95099305D01*
X155766631Y-95098998D01*
X155627192Y-95089554D01*
X155489901Y-95071184D01*
X155354918Y-95044113D01*
X155222408Y-95008569D01*
X155092533Y-94964779D01*
X154965456Y-94912968D01*
X154841339Y-94853363D01*
X154720345Y-94786191D01*
X154602637Y-94711679D01*
X154488377Y-94630052D01*
X154377729Y-94541539D01*
X154270855Y-94446364D01*
X154167917Y-94344755D01*
X154069079Y-94236938D01*
X153974503Y-94123140D01*
X153884352Y-94003587D01*
X153798789Y-93878506D01*
X153717976Y-93748124D01*
X153642076Y-93612667D01*
X153571253Y-93472361D01*
X153505667Y-93327434D01*
X153445483Y-93178111D01*
X153390863Y-93024619D01*
X153341970Y-92867186D01*
X153298966Y-92706037D01*
X153262014Y-92541399D01*
X153231277Y-92373498D01*
X153206918Y-92202561D01*
X153189099Y-92028816D01*
X153177984Y-91852487D01*
X153173734Y-91673802D01*
X153176512Y-91492988D01*
X153186352Y-91312420D01*
X153203055Y-91134467D01*
X153256337Y-90787263D01*
X153334933Y-90453094D01*
X153437419Y-90133676D01*
X153562370Y-89830728D01*
X153708359Y-89545967D01*
X153873963Y-89281110D01*
X154057755Y-89037873D01*
X154156027Y-88924900D01*
X154258311Y-88817976D01*
X154364430Y-88717316D01*
X154474205Y-88623134D01*
X154587459Y-88535646D01*
X154704013Y-88455066D01*
X154823689Y-88381609D01*
X154946309Y-88315489D01*
X155071695Y-88256920D01*
X155199668Y-88206119D01*
X155330050Y-88163299D01*
X155462664Y-88128674D01*
X155597331Y-88102461D01*
X155733873Y-88084872D01*
X155872112Y-88076124D01*
X156011870Y-88076431D01*
D10*
X139097331Y-94291212D02*
X138461662Y-94320434D01*
X158889886Y-108102133D02*
X158562203Y-107099888D01*
X173369899Y-68782915D02*
X173657950Y-68552130D01*
X122368417Y-106399438D02*
X120143225Y-115199073D01*
X170510458Y-74188409D02*
X170584628Y-73819184D01*
X174146171Y-137428163D02*
X173596104Y-137342577D01*
X177750104Y-69831413D02*
X177853889Y-70123647D01*
X170029576Y-79481890D02*
X170087441Y-77922377D01*
X168119485Y-131315278D02*
X167118174Y-129471260D01*
X136974275Y-128114227D02*
X136713286Y-128116294D01*
X113465676Y-127661645D02*
X112836395Y-128136524D01*
X117915644Y-121492534D02*
X117110695Y-123064280D01*
X151603024Y-127957903D02*
X151338548Y-127635937D01*
X157840568Y-105120180D02*
X157437300Y-104145316D01*
X180823604Y-96510130D02*
X180767809Y-99419408D01*
X158859209Y-124042088D02*
X158671202Y-125045134D01*
X196775235Y-135902464D02*
X196252413Y-135360829D01*
X120143225Y-115199073D02*
X119731010Y-116692859D01*
X134585776Y-94153883D02*
X134360447Y-94119343D01*
X106775235Y-129331958D02*
X105885334Y-129080421D01*
X180503382Y-85477848D02*
X180686390Y-88159237D01*
X134534221Y-127878566D02*
X134127849Y-127783325D01*
X102351661Y-138910054D02*
X95398055Y-138203269D01*
X121035170Y-69806897D02*
X121605344Y-71079189D01*
X134950115Y-127958090D02*
X134534221Y-127878566D01*
X112501209Y-75249950D02*
X112430398Y-72865386D01*
X114748641Y-64823737D02*
X114748641Y-64823737D01*
X117110695Y-123064280D02*
X116202371Y-124554828D01*
X140576745Y-121586816D02*
X140445946Y-122502769D01*
X138716368Y-127579826D02*
X138570414Y-127681611D01*
X177722106Y-133812247D02*
X177252621Y-134846345D01*
X174689847Y-137382050D02*
X174146171Y-137428163D01*
X183130967Y-118932915D02*
X182232995Y-117440779D01*
X135375750Y-128021761D02*
X134950115Y-127958090D01*
X140199233Y-92700342D02*
X139725424Y-90043143D01*
X108465310Y-129537514D02*
X107635141Y-129482644D01*
X138651160Y-81045403D02*
X138524415Y-79941782D01*
X140919245Y-117845558D02*
X140781215Y-119728993D01*
D12*
%TO.C,REF\u002A\u002A*%
X276950000Y-64462500D03*
%TD*%
%TO.C,REF\u002A\u002A*%
X23875000Y-138475000D03*
%TD*%
%TO.C,REF\u002A\u002A*%
X107854100Y-138475000D03*
%TD*%
D13*
%TO.C,REF\u002A\u002A*%
X214875000Y-64462500D03*
%TD*%
%TO.C,REF\u002A\u002A*%
X85950000Y-64462500D03*
%TD*%
D12*
%TO.C,REF\u002A\u002A*%
X276950000Y-138475000D03*
%TD*%
%TO.C,REF\u002A\u002A*%
X189720800Y-138475000D03*
%TD*%
%TO.C,REF\u002A\u002A*%
X23875000Y-64462500D03*
%TD*%
M02*
