%TF.GenerationSoftware,KiCad,Pcbnew,(6.0.0-0)*%
%TF.CreationDate,2022-07-18T09:27:53+02:00*%
%TF.ProjectId,litl_base,6c69746c-5f62-4617-9365-2e6b69636164,rev?*%
%TF.SameCoordinates,Original*%
%TF.FileFunction,Copper,L2,Bot*%
%TF.FilePolarity,Positive*%
%FSLAX46Y46*%
G04 Gerber Fmt 4.6, Leading zero omitted, Abs format (unit mm)*
G04 Created by KiCad (PCBNEW (6.0.0-0)) date 2022-07-18 09:27:53*
%MOMM*%
%LPD*%
G01*
G04 APERTURE LIST*
G04 APERTURE END LIST*
%TA.AperFunction,NonConductor*%
G36*
X276920057Y-60197000D02*
G01*
X276934858Y-60199305D01*
X276934861Y-60199305D01*
X276943730Y-60200686D01*
X276963626Y-60198084D01*
X276985784Y-60197154D01*
X277337891Y-60213433D01*
X277349480Y-60214507D01*
X277728295Y-60267350D01*
X277739735Y-60269489D01*
X278112059Y-60357058D01*
X278123235Y-60360238D01*
X278304569Y-60421016D01*
X278485894Y-60481790D01*
X278496746Y-60485994D01*
X278846641Y-60640487D01*
X278857059Y-60645675D01*
X279191191Y-60831785D01*
X279201086Y-60837911D01*
X279516636Y-61054068D01*
X279525924Y-61061082D01*
X279820184Y-61305433D01*
X279828784Y-61313274D01*
X280099226Y-61583716D01*
X280107067Y-61592316D01*
X280351418Y-61886576D01*
X280358432Y-61895864D01*
X280574589Y-62211414D01*
X280580715Y-62221309D01*
X280766825Y-62555441D01*
X280772013Y-62565859D01*
X280926506Y-62915754D01*
X280930710Y-62926606D01*
X280991484Y-63107931D01*
X281040199Y-63253273D01*
X281052259Y-63289256D01*
X281055442Y-63300441D01*
X281114493Y-63551512D01*
X281143011Y-63672765D01*
X281145150Y-63684205D01*
X281197993Y-64063020D01*
X281199067Y-64074609D01*
X281215003Y-64419316D01*
X281213638Y-64444515D01*
X281211814Y-64456230D01*
X281212978Y-64465132D01*
X281212978Y-64465135D01*
X281215936Y-64487751D01*
X281217000Y-64504089D01*
X281217000Y-138425672D01*
X281215500Y-138445056D01*
X281211814Y-138468730D01*
X281213279Y-138479930D01*
X281214416Y-138488626D01*
X281215346Y-138510784D01*
X281199067Y-138862891D01*
X281197993Y-138874480D01*
X281145150Y-139253295D01*
X281143011Y-139264735D01*
X281060419Y-139615898D01*
X281055444Y-139637050D01*
X281052262Y-139648235D01*
X281007123Y-139782910D01*
X280930710Y-140010894D01*
X280926506Y-140021746D01*
X280772013Y-140371641D01*
X280766825Y-140382059D01*
X280580715Y-140716191D01*
X280574589Y-140726086D01*
X280358432Y-141041636D01*
X280351418Y-141050924D01*
X280107067Y-141345184D01*
X280099226Y-141353784D01*
X279828784Y-141624226D01*
X279820184Y-141632067D01*
X279525924Y-141876418D01*
X279516636Y-141883432D01*
X279201086Y-142099589D01*
X279191191Y-142105715D01*
X278857059Y-142291825D01*
X278846641Y-142297013D01*
X278496746Y-142451506D01*
X278485894Y-142455710D01*
X278304569Y-142516485D01*
X278123235Y-142577262D01*
X278112059Y-142580442D01*
X277826543Y-142647594D01*
X277739735Y-142668011D01*
X277728295Y-142670150D01*
X277349480Y-142722993D01*
X277337892Y-142724067D01*
X277314632Y-142725142D01*
X276993184Y-142740003D01*
X276967985Y-142738638D01*
X276965142Y-142738195D01*
X276965140Y-142738195D01*
X276956270Y-142736814D01*
X276947368Y-142737978D01*
X276947365Y-142737978D01*
X276924749Y-142740936D01*
X276908411Y-142742000D01*
X23924328Y-142742000D01*
X23904943Y-142740500D01*
X23890142Y-142738195D01*
X23890139Y-142738195D01*
X23881270Y-142736814D01*
X23862105Y-142739320D01*
X23861374Y-142739416D01*
X23839216Y-142740346D01*
X23487109Y-142724067D01*
X23475520Y-142722993D01*
X23096705Y-142670150D01*
X23085265Y-142668011D01*
X22998457Y-142647594D01*
X22712941Y-142580442D01*
X22701765Y-142577262D01*
X22520431Y-142516485D01*
X22339106Y-142455710D01*
X22328254Y-142451506D01*
X21978359Y-142297013D01*
X21967941Y-142291825D01*
X21633809Y-142105715D01*
X21623914Y-142099589D01*
X21308364Y-141883432D01*
X21299076Y-141876418D01*
X21004816Y-141632067D01*
X20996216Y-141624226D01*
X20725774Y-141353784D01*
X20717933Y-141345184D01*
X20473582Y-141050924D01*
X20466568Y-141041636D01*
X20250411Y-140726086D01*
X20244285Y-140716191D01*
X20058175Y-140382059D01*
X20052987Y-140371641D01*
X19898494Y-140021746D01*
X19894290Y-140010894D01*
X19817877Y-139782910D01*
X19772738Y-139648235D01*
X19769556Y-139637050D01*
X19764582Y-139615898D01*
X19681989Y-139264735D01*
X19679850Y-139253295D01*
X19627007Y-138874480D01*
X19625933Y-138862891D01*
X19610170Y-138521926D01*
X19611781Y-138495209D01*
X19612264Y-138492338D01*
X19612264Y-138492333D01*
X19613071Y-138487539D01*
X19613224Y-138475000D01*
X22261526Y-138475000D01*
X22281391Y-138727403D01*
X22282545Y-138732210D01*
X22282546Y-138732216D01*
X22315315Y-138868709D01*
X22340495Y-138973591D01*
X22437384Y-139207502D01*
X22569672Y-139423376D01*
X22734102Y-139615898D01*
X22926624Y-139780328D01*
X23142498Y-139912616D01*
X23147068Y-139914509D01*
X23147072Y-139914511D01*
X23371836Y-140007611D01*
X23376409Y-140009505D01*
X23427397Y-140021746D01*
X23617784Y-140067454D01*
X23617790Y-140067455D01*
X23622597Y-140068609D01*
X23722416Y-140076465D01*
X23809345Y-140083307D01*
X23809352Y-140083307D01*
X23811801Y-140083500D01*
X23938199Y-140083500D01*
X23940648Y-140083307D01*
X23940655Y-140083307D01*
X24027584Y-140076465D01*
X24127403Y-140068609D01*
X24132210Y-140067455D01*
X24132216Y-140067454D01*
X24322603Y-140021746D01*
X24373591Y-140009505D01*
X24378164Y-140007611D01*
X24602928Y-139914511D01*
X24602932Y-139914509D01*
X24607502Y-139912616D01*
X24823376Y-139780328D01*
X25015898Y-139615898D01*
X25180328Y-139423376D01*
X25312616Y-139207502D01*
X25409505Y-138973591D01*
X25434685Y-138868709D01*
X25467454Y-138732216D01*
X25467455Y-138732210D01*
X25468609Y-138727403D01*
X25488474Y-138475000D01*
X106240626Y-138475000D01*
X106260491Y-138727403D01*
X106261645Y-138732210D01*
X106261646Y-138732216D01*
X106294415Y-138868709D01*
X106319595Y-138973591D01*
X106416484Y-139207502D01*
X106548772Y-139423376D01*
X106713202Y-139615898D01*
X106905724Y-139780328D01*
X107121598Y-139912616D01*
X107126168Y-139914509D01*
X107126172Y-139914511D01*
X107350936Y-140007611D01*
X107355509Y-140009505D01*
X107406497Y-140021746D01*
X107596884Y-140067454D01*
X107596890Y-140067455D01*
X107601697Y-140068609D01*
X107701516Y-140076465D01*
X107788445Y-140083307D01*
X107788452Y-140083307D01*
X107790901Y-140083500D01*
X107917299Y-140083500D01*
X107919748Y-140083307D01*
X107919755Y-140083307D01*
X108006684Y-140076465D01*
X108106503Y-140068609D01*
X108111310Y-140067455D01*
X108111316Y-140067454D01*
X108301703Y-140021746D01*
X108352691Y-140009505D01*
X108357264Y-140007611D01*
X108582028Y-139914511D01*
X108582032Y-139914509D01*
X108586602Y-139912616D01*
X108802476Y-139780328D01*
X108994998Y-139615898D01*
X109159428Y-139423376D01*
X109291716Y-139207502D01*
X109388605Y-138973591D01*
X109413785Y-138868709D01*
X109446554Y-138732216D01*
X109446555Y-138732210D01*
X109447709Y-138727403D01*
X109467574Y-138475000D01*
X188107326Y-138475000D01*
X188127191Y-138727403D01*
X188128345Y-138732210D01*
X188128346Y-138732216D01*
X188161115Y-138868709D01*
X188186295Y-138973591D01*
X188283184Y-139207502D01*
X188415472Y-139423376D01*
X188579902Y-139615898D01*
X188772424Y-139780328D01*
X188988298Y-139912616D01*
X188992868Y-139914509D01*
X188992872Y-139914511D01*
X189217636Y-140007611D01*
X189222209Y-140009505D01*
X189273197Y-140021746D01*
X189463584Y-140067454D01*
X189463590Y-140067455D01*
X189468397Y-140068609D01*
X189568216Y-140076465D01*
X189655145Y-140083307D01*
X189655152Y-140083307D01*
X189657601Y-140083500D01*
X189783999Y-140083500D01*
X189786448Y-140083307D01*
X189786455Y-140083307D01*
X189873384Y-140076465D01*
X189973203Y-140068609D01*
X189978010Y-140067455D01*
X189978016Y-140067454D01*
X190168403Y-140021746D01*
X190219391Y-140009505D01*
X190223964Y-140007611D01*
X190448728Y-139914511D01*
X190448732Y-139914509D01*
X190453302Y-139912616D01*
X190669176Y-139780328D01*
X190861698Y-139615898D01*
X191026128Y-139423376D01*
X191158416Y-139207502D01*
X191255305Y-138973591D01*
X191280485Y-138868709D01*
X191313254Y-138732216D01*
X191313255Y-138732210D01*
X191314409Y-138727403D01*
X191334274Y-138475000D01*
X275336526Y-138475000D01*
X275356391Y-138727403D01*
X275357545Y-138732210D01*
X275357546Y-138732216D01*
X275390315Y-138868709D01*
X275415495Y-138973591D01*
X275512384Y-139207502D01*
X275644672Y-139423376D01*
X275809102Y-139615898D01*
X276001624Y-139780328D01*
X276217498Y-139912616D01*
X276222068Y-139914509D01*
X276222072Y-139914511D01*
X276446836Y-140007611D01*
X276451409Y-140009505D01*
X276502397Y-140021746D01*
X276692784Y-140067454D01*
X276692790Y-140067455D01*
X276697597Y-140068609D01*
X276797416Y-140076465D01*
X276884345Y-140083307D01*
X276884352Y-140083307D01*
X276886801Y-140083500D01*
X277013199Y-140083500D01*
X277015648Y-140083307D01*
X277015655Y-140083307D01*
X277102584Y-140076465D01*
X277202403Y-140068609D01*
X277207210Y-140067455D01*
X277207216Y-140067454D01*
X277397603Y-140021746D01*
X277448591Y-140009505D01*
X277453164Y-140007611D01*
X277677928Y-139914511D01*
X277677932Y-139914509D01*
X277682502Y-139912616D01*
X277898376Y-139780328D01*
X278090898Y-139615898D01*
X278255328Y-139423376D01*
X278387616Y-139207502D01*
X278484505Y-138973591D01*
X278509685Y-138868709D01*
X278542454Y-138732216D01*
X278542455Y-138732210D01*
X278543609Y-138727403D01*
X278563474Y-138475000D01*
X278543609Y-138222597D01*
X278484505Y-137976409D01*
X278387616Y-137742498D01*
X278255328Y-137526624D01*
X278090898Y-137334102D01*
X277898376Y-137169672D01*
X277682502Y-137037384D01*
X277677932Y-137035491D01*
X277677928Y-137035489D01*
X277453164Y-136942389D01*
X277453162Y-136942388D01*
X277448591Y-136940495D01*
X277363968Y-136920179D01*
X277207216Y-136882546D01*
X277207210Y-136882545D01*
X277202403Y-136881391D01*
X277102584Y-136873535D01*
X277015655Y-136866693D01*
X277015648Y-136866693D01*
X277013199Y-136866500D01*
X276886801Y-136866500D01*
X276884352Y-136866693D01*
X276884345Y-136866693D01*
X276797416Y-136873535D01*
X276697597Y-136881391D01*
X276692790Y-136882545D01*
X276692784Y-136882546D01*
X276536032Y-136920179D01*
X276451409Y-136940495D01*
X276446838Y-136942388D01*
X276446836Y-136942389D01*
X276222072Y-137035489D01*
X276222068Y-137035491D01*
X276217498Y-137037384D01*
X276001624Y-137169672D01*
X275809102Y-137334102D01*
X275644672Y-137526624D01*
X275512384Y-137742498D01*
X275415495Y-137976409D01*
X275356391Y-138222597D01*
X275336526Y-138475000D01*
X191334274Y-138475000D01*
X191314409Y-138222597D01*
X191255305Y-137976409D01*
X191158416Y-137742498D01*
X191026128Y-137526624D01*
X190861698Y-137334102D01*
X190669176Y-137169672D01*
X190453302Y-137037384D01*
X190448732Y-137035491D01*
X190448728Y-137035489D01*
X190223964Y-136942389D01*
X190223962Y-136942388D01*
X190219391Y-136940495D01*
X190134768Y-136920179D01*
X189978016Y-136882546D01*
X189978010Y-136882545D01*
X189973203Y-136881391D01*
X189873384Y-136873535D01*
X189786455Y-136866693D01*
X189786448Y-136866693D01*
X189783999Y-136866500D01*
X189657601Y-136866500D01*
X189655152Y-136866693D01*
X189655145Y-136866693D01*
X189568216Y-136873535D01*
X189468397Y-136881391D01*
X189463590Y-136882545D01*
X189463584Y-136882546D01*
X189306832Y-136920179D01*
X189222209Y-136940495D01*
X189217638Y-136942388D01*
X189217636Y-136942389D01*
X188992872Y-137035489D01*
X188992868Y-137035491D01*
X188988298Y-137037384D01*
X188772424Y-137169672D01*
X188579902Y-137334102D01*
X188415472Y-137526624D01*
X188283184Y-137742498D01*
X188186295Y-137976409D01*
X188127191Y-138222597D01*
X188107326Y-138475000D01*
X109467574Y-138475000D01*
X109447709Y-138222597D01*
X109388605Y-137976409D01*
X109291716Y-137742498D01*
X109159428Y-137526624D01*
X108994998Y-137334102D01*
X108802476Y-137169672D01*
X108586602Y-137037384D01*
X108582032Y-137035491D01*
X108582028Y-137035489D01*
X108357264Y-136942389D01*
X108357262Y-136942388D01*
X108352691Y-136940495D01*
X108268068Y-136920179D01*
X108111316Y-136882546D01*
X108111310Y-136882545D01*
X108106503Y-136881391D01*
X108006684Y-136873535D01*
X107919755Y-136866693D01*
X107919748Y-136866693D01*
X107917299Y-136866500D01*
X107790901Y-136866500D01*
X107788452Y-136866693D01*
X107788445Y-136866693D01*
X107701516Y-136873535D01*
X107601697Y-136881391D01*
X107596890Y-136882545D01*
X107596884Y-136882546D01*
X107440132Y-136920179D01*
X107355509Y-136940495D01*
X107350938Y-136942388D01*
X107350936Y-136942389D01*
X107126172Y-137035489D01*
X107126168Y-137035491D01*
X107121598Y-137037384D01*
X106905724Y-137169672D01*
X106713202Y-137334102D01*
X106548772Y-137526624D01*
X106416484Y-137742498D01*
X106319595Y-137976409D01*
X106260491Y-138222597D01*
X106240626Y-138475000D01*
X25488474Y-138475000D01*
X25468609Y-138222597D01*
X25409505Y-137976409D01*
X25312616Y-137742498D01*
X25180328Y-137526624D01*
X25015898Y-137334102D01*
X24823376Y-137169672D01*
X24607502Y-137037384D01*
X24602932Y-137035491D01*
X24602928Y-137035489D01*
X24378164Y-136942389D01*
X24378162Y-136942388D01*
X24373591Y-136940495D01*
X24288968Y-136920179D01*
X24132216Y-136882546D01*
X24132210Y-136882545D01*
X24127403Y-136881391D01*
X24027584Y-136873535D01*
X23940655Y-136866693D01*
X23940648Y-136866693D01*
X23938199Y-136866500D01*
X23811801Y-136866500D01*
X23809352Y-136866693D01*
X23809345Y-136866693D01*
X23722416Y-136873535D01*
X23622597Y-136881391D01*
X23617790Y-136882545D01*
X23617784Y-136882546D01*
X23461032Y-136920179D01*
X23376409Y-136940495D01*
X23371838Y-136942388D01*
X23371836Y-136942389D01*
X23147072Y-137035489D01*
X23147068Y-137035491D01*
X23142498Y-137037384D01*
X22926624Y-137169672D01*
X22734102Y-137334102D01*
X22569672Y-137526624D01*
X22437384Y-137742498D01*
X22340495Y-137976409D01*
X22281391Y-138222597D01*
X22261526Y-138475000D01*
X19613224Y-138475000D01*
X19609273Y-138447412D01*
X19608000Y-138429549D01*
X19608000Y-64515707D01*
X19609746Y-64494803D01*
X19612264Y-64479835D01*
X19613071Y-64475039D01*
X19613224Y-64462500D01*
X22261526Y-64462500D01*
X22281391Y-64714903D01*
X22282545Y-64719710D01*
X22282546Y-64719716D01*
X22308869Y-64829360D01*
X22340495Y-64961091D01*
X22342388Y-64965662D01*
X22342389Y-64965664D01*
X22382156Y-65061669D01*
X22437384Y-65195002D01*
X22569672Y-65410876D01*
X22734102Y-65603398D01*
X22926624Y-65767828D01*
X23142498Y-65900116D01*
X23147068Y-65902009D01*
X23147072Y-65902011D01*
X23371836Y-65995111D01*
X23376409Y-65997005D01*
X23461032Y-66017321D01*
X23617784Y-66054954D01*
X23617790Y-66054955D01*
X23622597Y-66056109D01*
X23722416Y-66063965D01*
X23809345Y-66070807D01*
X23809352Y-66070807D01*
X23811801Y-66071000D01*
X23938199Y-66071000D01*
X23940648Y-66070807D01*
X23940655Y-66070807D01*
X24027584Y-66063965D01*
X24127403Y-66056109D01*
X24132210Y-66054955D01*
X24132216Y-66054954D01*
X24288968Y-66017321D01*
X24373591Y-65997005D01*
X24378164Y-65995111D01*
X24602928Y-65902011D01*
X24602932Y-65902009D01*
X24607502Y-65900116D01*
X24823376Y-65767828D01*
X25015898Y-65603398D01*
X25180328Y-65410876D01*
X25312616Y-65195002D01*
X25367845Y-65061669D01*
X25407611Y-64965664D01*
X25407612Y-64965662D01*
X25409505Y-64961091D01*
X25441131Y-64829360D01*
X25467454Y-64719716D01*
X25467455Y-64719710D01*
X25468609Y-64714903D01*
X25484815Y-64508985D01*
X83286854Y-64508985D01*
X83287156Y-64512820D01*
X83305108Y-64740917D01*
X83312370Y-64833195D01*
X83377206Y-65151878D01*
X83480398Y-65460284D01*
X83620405Y-65753816D01*
X83622467Y-65757053D01*
X83622470Y-65757058D01*
X83685099Y-65855365D01*
X83795141Y-66028097D01*
X83797584Y-66031060D01*
X83797585Y-66031062D01*
X83947308Y-66212690D01*
X84002001Y-66279038D01*
X84237902Y-66502899D01*
X84499326Y-66696343D01*
X84640851Y-66776414D01*
X84779019Y-66854586D01*
X84779023Y-66854588D01*
X84782376Y-66856485D01*
X85082832Y-66980938D01*
X85186288Y-67009629D01*
X85392500Y-67066817D01*
X85392508Y-67066819D01*
X85396216Y-67067847D01*
X85717856Y-67115916D01*
X85721154Y-67116060D01*
X85832918Y-67120940D01*
X85832922Y-67120940D01*
X85834294Y-67121000D01*
X86032598Y-67121000D01*
X86274605Y-67106198D01*
X86278388Y-67105497D01*
X86278395Y-67105496D01*
X86478459Y-67068416D01*
X86594372Y-67046933D01*
X86803682Y-66980938D01*
X86900860Y-66950298D01*
X86900863Y-66950297D01*
X86904532Y-66949140D01*
X86908029Y-66947546D01*
X86908035Y-66947544D01*
X87196954Y-66815876D01*
X87196958Y-66815874D01*
X87200462Y-66814277D01*
X87477751Y-66644354D01*
X87480755Y-66641964D01*
X87480760Y-66641961D01*
X87605007Y-66543130D01*
X87732264Y-66441905D01*
X87734958Y-66439164D01*
X87734962Y-66439160D01*
X87957513Y-66212690D01*
X87957517Y-66212685D01*
X87960208Y-66209947D01*
X88158185Y-65951939D01*
X88323242Y-65671727D01*
X88452920Y-65373488D01*
X88545285Y-65061669D01*
X88598961Y-64740917D01*
X88609087Y-64508985D01*
X212211854Y-64508985D01*
X212212156Y-64512820D01*
X212230108Y-64740917D01*
X212237370Y-64833195D01*
X212302206Y-65151878D01*
X212405398Y-65460284D01*
X212545405Y-65753816D01*
X212547467Y-65757053D01*
X212547470Y-65757058D01*
X212610099Y-65855365D01*
X212720141Y-66028097D01*
X212722584Y-66031060D01*
X212722585Y-66031062D01*
X212872308Y-66212690D01*
X212927001Y-66279038D01*
X213162902Y-66502899D01*
X213424326Y-66696343D01*
X213565851Y-66776414D01*
X213704019Y-66854586D01*
X213704023Y-66854588D01*
X213707376Y-66856485D01*
X214007832Y-66980938D01*
X214111288Y-67009629D01*
X214317500Y-67066817D01*
X214317508Y-67066819D01*
X214321216Y-67067847D01*
X214642856Y-67115916D01*
X214646154Y-67116060D01*
X214757918Y-67120940D01*
X214757922Y-67120940D01*
X214759294Y-67121000D01*
X214957598Y-67121000D01*
X215199605Y-67106198D01*
X215203388Y-67105497D01*
X215203395Y-67105496D01*
X215403459Y-67068416D01*
X215519372Y-67046933D01*
X215728682Y-66980938D01*
X215825860Y-66950298D01*
X215825863Y-66950297D01*
X215829532Y-66949140D01*
X215833029Y-66947546D01*
X215833035Y-66947544D01*
X216121954Y-66815876D01*
X216121958Y-66815874D01*
X216125462Y-66814277D01*
X216402751Y-66644354D01*
X216405755Y-66641964D01*
X216405760Y-66641961D01*
X216530007Y-66543130D01*
X216657264Y-66441905D01*
X216659958Y-66439164D01*
X216659962Y-66439160D01*
X216882513Y-66212690D01*
X216882517Y-66212685D01*
X216885208Y-66209947D01*
X217083185Y-65951939D01*
X217248242Y-65671727D01*
X217377920Y-65373488D01*
X217470285Y-65061669D01*
X217523961Y-64740917D01*
X217536116Y-64462500D01*
X275336526Y-64462500D01*
X275356391Y-64714903D01*
X275357545Y-64719710D01*
X275357546Y-64719716D01*
X275383869Y-64829360D01*
X275415495Y-64961091D01*
X275417388Y-64965662D01*
X275417389Y-64965664D01*
X275457156Y-65061669D01*
X275512384Y-65195002D01*
X275644672Y-65410876D01*
X275809102Y-65603398D01*
X276001624Y-65767828D01*
X276217498Y-65900116D01*
X276222068Y-65902009D01*
X276222072Y-65902011D01*
X276446836Y-65995111D01*
X276451409Y-65997005D01*
X276536032Y-66017321D01*
X276692784Y-66054954D01*
X276692790Y-66054955D01*
X276697597Y-66056109D01*
X276797416Y-66063965D01*
X276884345Y-66070807D01*
X276884352Y-66070807D01*
X276886801Y-66071000D01*
X277013199Y-66071000D01*
X277015648Y-66070807D01*
X277015655Y-66070807D01*
X277102584Y-66063965D01*
X277202403Y-66056109D01*
X277207210Y-66054955D01*
X277207216Y-66054954D01*
X277363968Y-66017321D01*
X277448591Y-65997005D01*
X277453164Y-65995111D01*
X277677928Y-65902011D01*
X277677932Y-65902009D01*
X277682502Y-65900116D01*
X277898376Y-65767828D01*
X278090898Y-65603398D01*
X278255328Y-65410876D01*
X278387616Y-65195002D01*
X278442845Y-65061669D01*
X278482611Y-64965664D01*
X278482612Y-64965662D01*
X278484505Y-64961091D01*
X278516131Y-64829360D01*
X278542454Y-64719716D01*
X278542455Y-64719710D01*
X278543609Y-64714903D01*
X278563474Y-64462500D01*
X278543609Y-64210097D01*
X278536452Y-64180283D01*
X278485660Y-63968721D01*
X278484505Y-63963909D01*
X278444417Y-63867127D01*
X278389511Y-63734572D01*
X278389509Y-63734568D01*
X278387616Y-63729998D01*
X278255328Y-63514124D01*
X278090898Y-63321602D01*
X277898376Y-63157172D01*
X277682502Y-63024884D01*
X277677932Y-63022991D01*
X277677928Y-63022989D01*
X277453164Y-62929889D01*
X277453162Y-62929888D01*
X277448591Y-62927995D01*
X277332595Y-62900147D01*
X277207216Y-62870046D01*
X277207210Y-62870045D01*
X277202403Y-62868891D01*
X277102584Y-62861035D01*
X277015655Y-62854193D01*
X277015648Y-62854193D01*
X277013199Y-62854000D01*
X276886801Y-62854000D01*
X276884352Y-62854193D01*
X276884345Y-62854193D01*
X276797416Y-62861035D01*
X276697597Y-62868891D01*
X276692790Y-62870045D01*
X276692784Y-62870046D01*
X276567405Y-62900147D01*
X276451409Y-62927995D01*
X276446838Y-62929888D01*
X276446836Y-62929889D01*
X276222072Y-63022989D01*
X276222068Y-63022991D01*
X276217498Y-63024884D01*
X276001624Y-63157172D01*
X275809102Y-63321602D01*
X275644672Y-63514124D01*
X275512384Y-63729998D01*
X275510491Y-63734568D01*
X275510489Y-63734572D01*
X275455583Y-63867127D01*
X275415495Y-63963909D01*
X275414340Y-63968721D01*
X275363549Y-64180283D01*
X275356391Y-64210097D01*
X275336526Y-64462500D01*
X217536116Y-64462500D01*
X217538146Y-64416015D01*
X217521561Y-64205284D01*
X217512932Y-64095640D01*
X217512932Y-64095637D01*
X217512630Y-64091805D01*
X217447794Y-63773122D01*
X217344602Y-63464716D01*
X217204595Y-63171184D01*
X217195669Y-63157172D01*
X217111392Y-63024884D01*
X217029859Y-62896903D01*
X216994652Y-62854193D01*
X216825442Y-62648925D01*
X216825438Y-62648920D01*
X216822999Y-62645962D01*
X216587098Y-62422101D01*
X216325674Y-62228657D01*
X216120781Y-62112734D01*
X216045981Y-62070414D01*
X216045977Y-62070412D01*
X216042624Y-62068515D01*
X215742168Y-61944062D01*
X215638712Y-61915371D01*
X215432500Y-61858183D01*
X215432492Y-61858181D01*
X215428784Y-61857153D01*
X215107144Y-61809084D01*
X215103846Y-61808940D01*
X214992082Y-61804060D01*
X214992078Y-61804060D01*
X214990706Y-61804000D01*
X214792402Y-61804000D01*
X214550395Y-61818802D01*
X214546612Y-61819503D01*
X214546605Y-61819504D01*
X214390512Y-61848434D01*
X214230628Y-61878067D01*
X214046058Y-61936262D01*
X213924140Y-61974702D01*
X213924137Y-61974703D01*
X213920468Y-61975860D01*
X213916971Y-61977454D01*
X213916965Y-61977456D01*
X213628046Y-62109124D01*
X213628042Y-62109126D01*
X213624538Y-62110723D01*
X213347249Y-62280646D01*
X213344245Y-62283036D01*
X213344240Y-62283039D01*
X213274480Y-62338529D01*
X213092736Y-62483095D01*
X213090042Y-62485836D01*
X213090038Y-62485840D01*
X212867487Y-62712310D01*
X212867483Y-62712315D01*
X212864792Y-62715053D01*
X212666815Y-62973061D01*
X212501758Y-63253273D01*
X212372080Y-63551512D01*
X212279715Y-63863331D01*
X212226039Y-64184083D01*
X212211854Y-64508985D01*
X88609087Y-64508985D01*
X88613146Y-64416015D01*
X88596561Y-64205284D01*
X88587932Y-64095640D01*
X88587932Y-64095637D01*
X88587630Y-64091805D01*
X88522794Y-63773122D01*
X88419602Y-63464716D01*
X88279595Y-63171184D01*
X88270669Y-63157172D01*
X88186392Y-63024884D01*
X88104859Y-62896903D01*
X88069652Y-62854193D01*
X87900442Y-62648925D01*
X87900438Y-62648920D01*
X87897999Y-62645962D01*
X87662098Y-62422101D01*
X87400674Y-62228657D01*
X87195781Y-62112734D01*
X87120981Y-62070414D01*
X87120977Y-62070412D01*
X87117624Y-62068515D01*
X86817168Y-61944062D01*
X86713712Y-61915371D01*
X86507500Y-61858183D01*
X86507492Y-61858181D01*
X86503784Y-61857153D01*
X86182144Y-61809084D01*
X86178846Y-61808940D01*
X86067082Y-61804060D01*
X86067078Y-61804060D01*
X86065706Y-61804000D01*
X85867402Y-61804000D01*
X85625395Y-61818802D01*
X85621612Y-61819503D01*
X85621605Y-61819504D01*
X85465512Y-61848434D01*
X85305628Y-61878067D01*
X85121058Y-61936262D01*
X84999140Y-61974702D01*
X84999137Y-61974703D01*
X84995468Y-61975860D01*
X84991971Y-61977454D01*
X84991965Y-61977456D01*
X84703046Y-62109124D01*
X84703042Y-62109126D01*
X84699538Y-62110723D01*
X84422249Y-62280646D01*
X84419245Y-62283036D01*
X84419240Y-62283039D01*
X84349480Y-62338529D01*
X84167736Y-62483095D01*
X84165042Y-62485836D01*
X84165038Y-62485840D01*
X83942487Y-62712310D01*
X83942483Y-62712315D01*
X83939792Y-62715053D01*
X83741815Y-62973061D01*
X83576758Y-63253273D01*
X83447080Y-63551512D01*
X83354715Y-63863331D01*
X83301039Y-64184083D01*
X83286854Y-64508985D01*
X25484815Y-64508985D01*
X25488474Y-64462500D01*
X25468609Y-64210097D01*
X25461452Y-64180283D01*
X25410660Y-63968721D01*
X25409505Y-63963909D01*
X25369417Y-63867127D01*
X25314511Y-63734572D01*
X25314509Y-63734568D01*
X25312616Y-63729998D01*
X25180328Y-63514124D01*
X25015898Y-63321602D01*
X24823376Y-63157172D01*
X24607502Y-63024884D01*
X24602932Y-63022991D01*
X24602928Y-63022989D01*
X24378164Y-62929889D01*
X24378162Y-62929888D01*
X24373591Y-62927995D01*
X24257595Y-62900147D01*
X24132216Y-62870046D01*
X24132210Y-62870045D01*
X24127403Y-62868891D01*
X24027584Y-62861035D01*
X23940655Y-62854193D01*
X23940648Y-62854193D01*
X23938199Y-62854000D01*
X23811801Y-62854000D01*
X23809352Y-62854193D01*
X23809345Y-62854193D01*
X23722416Y-62861035D01*
X23622597Y-62868891D01*
X23617790Y-62870045D01*
X23617784Y-62870046D01*
X23492405Y-62900147D01*
X23376409Y-62927995D01*
X23371838Y-62929888D01*
X23371836Y-62929889D01*
X23147072Y-63022989D01*
X23147068Y-63022991D01*
X23142498Y-63024884D01*
X22926624Y-63157172D01*
X22734102Y-63321602D01*
X22569672Y-63514124D01*
X22437384Y-63729998D01*
X22435491Y-63734568D01*
X22435489Y-63734572D01*
X22380583Y-63867127D01*
X22340495Y-63963909D01*
X22339340Y-63968721D01*
X22288549Y-64180283D01*
X22281391Y-64210097D01*
X22261526Y-64462500D01*
X19613224Y-64462500D01*
X19610963Y-64446710D01*
X19609825Y-64423036D01*
X19625933Y-64074609D01*
X19627007Y-64063020D01*
X19679850Y-63684205D01*
X19681989Y-63672765D01*
X19710507Y-63551512D01*
X19769558Y-63300441D01*
X19772741Y-63289256D01*
X19784802Y-63253273D01*
X19833515Y-63107931D01*
X19894290Y-62926606D01*
X19898494Y-62915754D01*
X20052987Y-62565859D01*
X20058175Y-62555441D01*
X20244285Y-62221309D01*
X20250411Y-62211414D01*
X20466568Y-61895864D01*
X20473582Y-61886576D01*
X20717933Y-61592316D01*
X20725774Y-61583716D01*
X20996216Y-61313274D01*
X21004816Y-61305433D01*
X21299076Y-61061082D01*
X21308364Y-61054068D01*
X21623914Y-60837911D01*
X21633809Y-60831785D01*
X21967941Y-60645675D01*
X21978359Y-60640487D01*
X22328254Y-60485994D01*
X22339106Y-60481790D01*
X22520431Y-60421016D01*
X22701765Y-60360238D01*
X22712941Y-60357058D01*
X23085265Y-60269489D01*
X23096705Y-60267350D01*
X23475520Y-60214507D01*
X23487108Y-60213433D01*
X23510368Y-60212358D01*
X23831816Y-60197497D01*
X23857015Y-60198862D01*
X23859858Y-60199305D01*
X23859860Y-60199305D01*
X23868730Y-60200686D01*
X23877632Y-60199522D01*
X23877635Y-60199522D01*
X23900251Y-60196564D01*
X23916589Y-60195500D01*
X276900672Y-60195500D01*
X276920057Y-60197000D01*
G37*
%TD.AperFunction*%
M02*
