  0
SECTION
  2
HEADER
  9
$ANGBASE
  50
0.0
  9
$ANGDIR
  70
1
  9
$MEASUREMENT
  70
1
  0
ENDSEC
  0
SECTION
  2
TABLES
  0
TABLE
  2
LTYPE
  70
4
  0
LTYPE
  5
40F
  2
CONTINUOUS
  70
0
  3
Solid line
  72
65
  73
0
  40
0.0
  0
LTYPE
  5
410
  2
DASHDOT
 70
0
  3
Dash Dot ____ _ ____ _
 72
65
 73
4
 40
2.0
 49
1.25
 49
-0.25
 49
0.25
 49
-0.25
  0
LTYPE
  5
411
  2
DASHED
 70
0
  3
Dashed __ __ __ __ __
 72
65
 73
2
 40
0.75
 49
0.5
 49
-0.25
  0
LTYPE
  5
43B
  2
DOTTED
 70
0
  3
Dotted .  .  .  .
 72
65
 73
2
 40
0.2
 49
0.0
 49
-0.2
  0
ENDTAB
  0
TABLE
  2
STYLE
  70
4
  0
STYLE
  2
KICAD
  70
0
  40
0
  41
1
  42
1
  50
0
  71
0
  3
isocp.shx
  0
STYLE
  2
KICADB
  70
0
  40
0
  41
1
  42
1
  50
0
  71
0
  3
isocp.shx
  0
STYLE
  2
KICADI
  70
0
  40
0
  41
1
  42
1
  50
15
  71
0
  3
isocp.shx
  0
STYLE
  2
KICADBI
  70
0
  40
0
  41
1
  42
1
  50
15
  71
0
  3
isocp.shx
  0
ENDTAB
  0
TABLE
  2
LAYER
  70
1
  0
LAYER
  2
BLACK
  70
0
  62
7
  6
CONTINUOUS
  0
ENDTAB
  0
ENDSEC
  0
SECTION
  2
ENTITIES
0
LINE
8
BLACK
6
CONTINUOUS
10
23.875
20
-143.25
11
276.95
21
-143.25
0
ARC
8
BLACK
10
276.95
20
-138.475
40
4.775
50
-90
51
-0
0
ARC
8
BLACK
10
23.875
20
-138.475
40
4.775
50
-180
51
-90
0
LINE
8
BLACK
6
CONTINUOUS
10
281.725
20
-138.475
11
281.725
21
-64.4625
0
LINE
8
BLACK
6
CONTINUOUS
10
19.1
20
-138.475
11
19.1
21
-64.4625
0
ARC
8
BLACK
10
23.875
20
-64.4625
40
4.775
50
90
51
180
0
LINE
8
BLACK
6
CONTINUOUS
10
23.875
20
-59.6875
11
276.95
21
-59.6875
0
ARC
8
BLACK
10
276.95
20
-64.4625
40
4.775
50
-0
51
90
0
LINE
8
BLACK
6
CONTINUOUS
10
22.775
20
-63.3625
11
24.975
21
-65.5625
0
LINE
8
BLACK
6
CONTINUOUS
10
24.975
20
-63.3625
11
22.775
21
-65.5625
0
LINE
8
BLACK
6
CONTINUOUS
10
22.775
20
-137.375
11
24.975
21
-139.575
0
LINE
8
BLACK
6
CONTINUOUS
10
24.975
20
-137.375
11
22.775
21
-139.575
0
LINE
8
BLACK
6
CONTINUOUS
10
106.754
20
-137.375
11
108.954
21
-139.575
0
LINE
8
BLACK
6
CONTINUOUS
10
108.954
20
-137.375
11
106.754
21
-139.575
0
LINE
8
BLACK
6
CONTINUOUS
10
188.621
20
-137.375
11
190.821
21
-139.575
0
LINE
8
BLACK
6
CONTINUOUS
10
190.821
20
-137.375
11
188.621
21
-139.575
0
LINE
8
BLACK
6
CONTINUOUS
10
275.85
20
-63.3625
11
278.05
21
-65.5625
0
LINE
8
BLACK
6
CONTINUOUS
10
278.05
20
-63.3625
11
275.85
21
-65.5625
0
LINE
8
BLACK
6
CONTINUOUS
10
275.85
20
-137.375
11
278.05
21
-139.575
0
LINE
8
BLACK
6
CONTINUOUS
10
278.05
20
-137.375
11
275.85
21
-139.575
0
CIRCLE
8
BLACK
10
85.95
20
-64.4625
40
2.15
0
CIRCLE
8
BLACK
10
214.875
20
-64.4625
40
2.15
0
LINE
8
BLACK
6
CONTINUOUS
10
21.6012
20
-146.43
11
21.6012
21
-144.43
0
LINE
8
BLACK
6
CONTINUOUS
10
21.6012
20
-144.43
11
22.0774
21
-144.43
0
LINE
8
BLACK
6
CONTINUOUS
10
22.0774
20
-144.43
11
22.3631
21
-144.525
0
LINE
8
BLACK
6
CONTINUOUS
10
22.3631
20
-144.525
11
22.5536
21
-144.715
0
LINE
8
BLACK
6
CONTINUOUS
10
22.5536
20
-144.715
11
22.6488
21
-144.906
0
LINE
8
BLACK
6
CONTINUOUS
10
22.6488
20
-144.906
11
22.744
21
-145.287
0
LINE
8
BLACK
6
CONTINUOUS
10
22.744
20
-145.287
11
22.744
21
-145.573
0
LINE
8
BLACK
6
CONTINUOUS
10
22.744
20
-145.573
11
22.6488
21
-145.954
0
LINE
8
BLACK
6
CONTINUOUS
10
22.6488
20
-145.954
11
22.5536
21
-146.144
0
LINE
8
BLACK
6
CONTINUOUS
10
22.5536
20
-146.144
11
22.3631
21
-146.335
0
LINE
8
BLACK
6
CONTINUOUS
10
22.3631
20
-146.335
11
22.0774
21
-146.43
0
LINE
8
BLACK
6
CONTINUOUS
10
22.0774
20
-146.43
11
21.6012
21
-146.43
0
LINE
8
BLACK
6
CONTINUOUS
10
23.6012
20
-146.43
11
23.6012
21
-145.096
0
LINE
8
BLACK
6
CONTINUOUS
10
23.6012
20
-145.477
11
23.6964
21
-145.287
0
LINE
8
BLACK
6
CONTINUOUS
10
23.6964
20
-145.287
11
23.7917
21
-145.192
0
LINE
8
BLACK
6
CONTINUOUS
10
23.7917
20
-145.192
11
23.9821
21
-145.096
0
LINE
8
BLACK
6
CONTINUOUS
10
23.9821
20
-145.096
11
24.1726
21
-145.096
0
LINE
8
BLACK
6
CONTINUOUS
10
24.8393
20
-146.43
11
24.8393
21
-145.096
0
LINE
8
BLACK
6
CONTINUOUS
10
24.8393
20
-144.43
11
24.744
21
-144.525
0
LINE
8
BLACK
6
CONTINUOUS
10
24.744
20
-144.525
11
24.8393
21
-144.62
0
LINE
8
BLACK
6
CONTINUOUS
10
24.8393
20
-144.62
11
24.9345
21
-144.525
0
LINE
8
BLACK
6
CONTINUOUS
10
24.9345
20
-144.525
11
24.8393
21
-144.43
0
LINE
8
BLACK
6
CONTINUOUS
10
24.8393
20
-144.43
11
24.8393
21
-144.62
0
LINE
8
BLACK
6
CONTINUOUS
10
26.0774
20
-146.43
11
25.8869
21
-146.335
0
LINE
8
BLACK
6
CONTINUOUS
10
25.8869
20
-146.335
11
25.7917
21
-146.144
0
LINE
8
BLACK
6
CONTINUOUS
10
25.7917
20
-146.144
11
25.7917
21
-144.43
0
LINE
8
BLACK
6
CONTINUOUS
10
27.125
20
-146.43
11
26.9345
21
-146.335
0
LINE
8
BLACK
6
CONTINUOUS
10
26.9345
20
-146.335
11
26.8393
21
-146.144
0
LINE
8
BLACK
6
CONTINUOUS
10
26.8393
20
-146.144
11
26.8393
21
-144.43
0
LINE
8
BLACK
6
CONTINUOUS
10
29.4107
20
-146.43
11
29.4107
21
-144.43
0
LINE
8
BLACK
6
CONTINUOUS
10
29.4107
20
-144.43
11
30.0774
21
-145.858
0
LINE
8
BLACK
6
CONTINUOUS
10
30.0774
20
-145.858
11
30.744
21
-144.43
0
LINE
8
BLACK
6
CONTINUOUS
10
30.744
20
-144.43
11
30.744
21
-146.43
0
LINE
8
BLACK
6
CONTINUOUS
10
32.5536
20
-146.43
11
32.5536
21
-145.382
0
LINE
8
BLACK
6
CONTINUOUS
10
32.5536
20
-145.382
11
32.4583
21
-145.192
0
LINE
8
BLACK
6
CONTINUOUS
10
32.4583
20
-145.192
11
32.2679
21
-145.096
0
LINE
8
BLACK
6
CONTINUOUS
10
32.2679
20
-145.096
11
31.8869
21
-145.096
0
LINE
8
BLACK
6
CONTINUOUS
10
31.8869
20
-145.096
11
31.6964
21
-145.192
0
LINE
8
BLACK
6
CONTINUOUS
10
32.5536
20
-146.335
11
32.3631
21
-146.43
0
LINE
8
BLACK
6
CONTINUOUS
10
32.3631
20
-146.43
11
31.8869
21
-146.43
0
LINE
8
BLACK
6
CONTINUOUS
10
31.8869
20
-146.43
11
31.6964
21
-146.335
0
LINE
8
BLACK
6
CONTINUOUS
10
31.6964
20
-146.335
11
31.6012
21
-146.144
0
LINE
8
BLACK
6
CONTINUOUS
10
31.6012
20
-146.144
11
31.6012
21
-145.954
0
LINE
8
BLACK
6
CONTINUOUS
10
31.6012
20
-145.954
11
31.6964
21
-145.763
0
LINE
8
BLACK
6
CONTINUOUS
10
31.6964
20
-145.763
11
31.8869
21
-145.668
0
LINE
8
BLACK
6
CONTINUOUS
10
31.8869
20
-145.668
11
32.3631
21
-145.668
0
LINE
8
BLACK
6
CONTINUOUS
10
32.3631
20
-145.668
11
32.5536
21
-145.573
0
LINE
8
BLACK
6
CONTINUOUS
10
33.506
20
-145.096
11
33.506
21
-147.096
0
LINE
8
BLACK
6
CONTINUOUS
10
33.506
20
-145.192
11
33.6964
21
-145.096
0
LINE
8
BLACK
6
CONTINUOUS
10
33.6964
20
-145.096
11
34.0774
21
-145.096
0
LINE
8
BLACK
6
CONTINUOUS
10
34.0774
20
-145.096
11
34.2679
21
-145.192
0
LINE
8
BLACK
6
CONTINUOUS
10
34.2679
20
-145.192
11
34.3631
21
-145.287
0
LINE
8
BLACK
6
CONTINUOUS
10
34.3631
20
-145.287
11
34.4583
21
-145.477
0
LINE
8
BLACK
6
CONTINUOUS
10
34.4583
20
-145.477
11
34.4583
21
-146.049
0
LINE
8
BLACK
6
CONTINUOUS
10
34.4583
20
-146.049
11
34.3631
21
-146.239
0
LINE
8
BLACK
6
CONTINUOUS
10
34.3631
20
-146.239
11
34.2679
21
-146.335
0
LINE
8
BLACK
6
CONTINUOUS
10
34.2679
20
-146.335
11
34.0774
21
-146.43
0
LINE
8
BLACK
6
CONTINUOUS
10
34.0774
20
-146.43
11
33.6964
21
-146.43
0
LINE
8
BLACK
6
CONTINUOUS
10
33.6964
20
-146.43
11
33.506
21
-146.335
0
LINE
8
BLACK
6
CONTINUOUS
10
35.3155
20
-146.239
11
35.4107
21
-146.335
0
LINE
8
BLACK
6
CONTINUOUS
10
35.4107
20
-146.335
11
35.3155
21
-146.43
0
LINE
8
BLACK
6
CONTINUOUS
10
35.3155
20
-146.43
11
35.2202
21
-146.335
0
LINE
8
BLACK
6
CONTINUOUS
10
35.2202
20
-146.335
11
35.3155
21
-146.239
0
LINE
8
BLACK
6
CONTINUOUS
10
35.3155
20
-146.239
11
35.3155
21
-146.43
0
LINE
8
BLACK
6
CONTINUOUS
10
35.3155
20
-145.192
11
35.4107
21
-145.287
0
LINE
8
BLACK
6
CONTINUOUS
10
35.4107
20
-145.287
11
35.3155
21
-145.382
0
LINE
8
BLACK
6
CONTINUOUS
10
35.3155
20
-145.382
11
35.2202
21
-145.287
0
LINE
8
BLACK
6
CONTINUOUS
10
35.2202
20
-145.287
11
35.3155
21
-145.192
0
LINE
8
BLACK
6
CONTINUOUS
10
35.3155
20
-145.192
11
35.3155
21
-145.382
0
LINE
8
BLACK
6
CONTINUOUS
10
17.025
20
-148.725
11
19.025
21
-150.725
0
LINE
8
BLACK
6
CONTINUOUS
10
19.025
20
-148.725
11
17.025
21
-150.725
0
LINE
8
BLACK
6
CONTINUOUS
10
21.506
20
-148.82
11
21.6012
21
-148.725
0
LINE
8
BLACK
6
CONTINUOUS
10
21.6012
20
-148.725
11
21.7917
21
-148.63
0
LINE
8
BLACK
6
CONTINUOUS
10
21.7917
20
-148.63
11
22.2679
21
-148.63
0
LINE
8
BLACK
6
CONTINUOUS
10
22.2679
20
-148.63
11
22.4583
21
-148.725
0
LINE
8
BLACK
6
CONTINUOUS
10
22.4583
20
-148.725
11
22.5536
21
-148.82
0
LINE
8
BLACK
6
CONTINUOUS
10
22.5536
20
-148.82
11
22.6488
21
-149.011
0
LINE
8
BLACK
6
CONTINUOUS
10
22.6488
20
-149.011
11
22.6488
21
-149.201
0
LINE
8
BLACK
6
CONTINUOUS
10
22.6488
20
-149.201
11
22.5536
21
-149.487
0
LINE
8
BLACK
6
CONTINUOUS
10
22.5536
20
-149.487
11
21.4107
21
-150.63
0
LINE
8
BLACK
6
CONTINUOUS
10
21.4107
20
-150.63
11
22.6488
21
-150.63
0
LINE
8
BLACK
6
CONTINUOUS
10
23.506
20
-150.439
11
23.6012
21
-150.535
0
LINE
8
BLACK
6
CONTINUOUS
10
23.6012
20
-150.535
11
23.506
21
-150.63
0
LINE
8
BLACK
6
CONTINUOUS
10
23.506
20
-150.63
11
23.4107
21
-150.535
0
LINE
8
BLACK
6
CONTINUOUS
10
23.4107
20
-150.535
11
23.506
21
-150.439
0
LINE
8
BLACK
6
CONTINUOUS
10
23.506
20
-150.439
11
23.506
21
-150.63
0
LINE
8
BLACK
6
CONTINUOUS
10
24.3631
20
-148.82
11
24.4583
21
-148.725
0
LINE
8
BLACK
6
CONTINUOUS
10
24.4583
20
-148.725
11
24.6488
21
-148.63
0
LINE
8
BLACK
6
CONTINUOUS
10
24.6488
20
-148.63
11
25.125
21
-148.63
0
LINE
8
BLACK
6
CONTINUOUS
10
25.125
20
-148.63
11
25.3155
21
-148.725
0
LINE
8
BLACK
6
CONTINUOUS
10
25.3155
20
-148.725
11
25.4107
21
-148.82
0
LINE
8
BLACK
6
CONTINUOUS
10
25.4107
20
-148.82
11
25.506
21
-149.011
0
LINE
8
BLACK
6
CONTINUOUS
10
25.506
20
-149.011
11
25.506
21
-149.201
0
LINE
8
BLACK
6
CONTINUOUS
10
25.506
20
-149.201
11
25.4107
21
-149.487
0
LINE
8
BLACK
6
CONTINUOUS
10
25.4107
20
-149.487
11
24.2679
21
-150.63
0
LINE
8
BLACK
6
CONTINUOUS
10
24.2679
20
-150.63
11
25.506
21
-150.63
0
LINE
8
BLACK
6
CONTINUOUS
10
26.744
20
-148.63
11
26.9345
21
-148.63
0
LINE
8
BLACK
6
CONTINUOUS
10
26.9345
20
-148.63
11
27.125
21
-148.725
0
LINE
8
BLACK
6
CONTINUOUS
10
27.125
20
-148.725
11
27.2202
21
-148.82
0
LINE
8
BLACK
6
CONTINUOUS
10
27.2202
20
-148.82
11
27.3155
21
-149.011
0
LINE
8
BLACK
6
CONTINUOUS
10
27.3155
20
-149.011
11
27.4107
21
-149.392
0
LINE
8
BLACK
6
CONTINUOUS
10
27.4107
20
-149.392
11
27.4107
21
-149.868
0
LINE
8
BLACK
6
CONTINUOUS
10
27.4107
20
-149.868
11
27.3155
21
-150.249
0
LINE
8
BLACK
6
CONTINUOUS
10
27.3155
20
-150.249
11
27.2202
21
-150.439
0
LINE
8
BLACK
6
CONTINUOUS
10
27.2202
20
-150.439
11
27.125
21
-150.535
0
LINE
8
BLACK
6
CONTINUOUS
10
27.125
20
-150.535
11
26.9345
21
-150.63
0
LINE
8
BLACK
6
CONTINUOUS
10
26.9345
20
-150.63
11
26.744
21
-150.63
0
LINE
8
BLACK
6
CONTINUOUS
10
26.744
20
-150.63
11
26.5536
21
-150.535
0
LINE
8
BLACK
6
CONTINUOUS
10
26.5536
20
-150.535
11
26.4583
21
-150.439
0
LINE
8
BLACK
6
CONTINUOUS
10
26.4583
20
-150.439
11
26.3631
21
-150.249
0
LINE
8
BLACK
6
CONTINUOUS
10
26.3631
20
-150.249
11
26.2679
21
-149.868
0
LINE
8
BLACK
6
CONTINUOUS
10
26.2679
20
-149.868
11
26.2679
21
-149.392
0
LINE
8
BLACK
6
CONTINUOUS
10
26.2679
20
-149.392
11
26.3631
21
-149.011
0
LINE
8
BLACK
6
CONTINUOUS
10
26.3631
20
-149.011
11
26.4583
21
-148.82
0
LINE
8
BLACK
6
CONTINUOUS
10
26.4583
20
-148.82
11
26.5536
21
-148.725
0
LINE
8
BLACK
6
CONTINUOUS
10
26.5536
20
-148.725
11
26.744
21
-148.63
0
LINE
8
BLACK
6
CONTINUOUS
10
28.6488
20
-148.63
11
28.8393
21
-148.63
0
LINE
8
BLACK
6
CONTINUOUS
10
28.8393
20
-148.63
11
29.0298
21
-148.725
0
LINE
8
BLACK
6
CONTINUOUS
10
29.0298
20
-148.725
11
29.125
21
-148.82
0
LINE
8
BLACK
6
CONTINUOUS
10
29.125
20
-148.82
11
29.2202
21
-149.011
0
LINE
8
BLACK
6
CONTINUOUS
10
29.2202
20
-149.011
11
29.3155
21
-149.392
0
LINE
8
BLACK
6
CONTINUOUS
10
29.3155
20
-149.392
11
29.3155
21
-149.868
0
LINE
8
BLACK
6
CONTINUOUS
10
29.3155
20
-149.868
11
29.2202
21
-150.249
0
LINE
8
BLACK
6
CONTINUOUS
10
29.2202
20
-150.249
11
29.125
21
-150.439
0
LINE
8
BLACK
6
CONTINUOUS
10
29.125
20
-150.439
11
29.0298
21
-150.535
0
LINE
8
BLACK
6
CONTINUOUS
10
29.0298
20
-150.535
11
28.8393
21
-150.63
0
LINE
8
BLACK
6
CONTINUOUS
10
28.8393
20
-150.63
11
28.6488
21
-150.63
0
LINE
8
BLACK
6
CONTINUOUS
10
28.6488
20
-150.63
11
28.4583
21
-150.535
0
LINE
8
BLACK
6
CONTINUOUS
10
28.4583
20
-150.535
11
28.3631
21
-150.439
0
LINE
8
BLACK
6
CONTINUOUS
10
28.3631
20
-150.439
11
28.2679
21
-150.249
0
LINE
8
BLACK
6
CONTINUOUS
10
28.2679
20
-150.249
11
28.1726
21
-149.868
0
LINE
8
BLACK
6
CONTINUOUS
10
28.1726
20
-149.868
11
28.1726
21
-149.392
0
LINE
8
BLACK
6
CONTINUOUS
10
28.1726
20
-149.392
11
28.2679
21
-149.011
0
LINE
8
BLACK
6
CONTINUOUS
10
28.2679
20
-149.011
11
28.3631
21
-148.82
0
LINE
8
BLACK
6
CONTINUOUS
10
28.3631
20
-148.82
11
28.4583
21
-148.725
0
LINE
8
BLACK
6
CONTINUOUS
10
28.4583
20
-148.725
11
28.6488
21
-148.63
0
LINE
8
BLACK
6
CONTINUOUS
10
30.1726
20
-150.63
11
30.1726
21
-149.296
0
LINE
8
BLACK
6
CONTINUOUS
10
30.1726
20
-149.487
11
30.2679
21
-149.392
0
LINE
8
BLACK
6
CONTINUOUS
10
30.2679
20
-149.392
11
30.4583
21
-149.296
0
LINE
8
BLACK
6
CONTINUOUS
10
30.4583
20
-149.296
11
30.744
21
-149.296
0
LINE
8
BLACK
6
CONTINUOUS
10
30.744
20
-149.296
11
30.9345
21
-149.392
0
LINE
8
BLACK
6
CONTINUOUS
10
30.9345
20
-149.392
11
31.0298
21
-149.582
0
LINE
8
BLACK
6
CONTINUOUS
10
31.0298
20
-149.582
11
31.0298
21
-150.63
0
LINE
8
BLACK
6
CONTINUOUS
10
31.0298
20
-149.582
11
31.125
21
-149.392
0
LINE
8
BLACK
6
CONTINUOUS
10
31.125
20
-149.392
11
31.3155
21
-149.296
0
LINE
8
BLACK
6
CONTINUOUS
10
31.3155
20
-149.296
11
31.6012
21
-149.296
0
LINE
8
BLACK
6
CONTINUOUS
10
31.6012
20
-149.296
11
31.7917
21
-149.392
0
LINE
8
BLACK
6
CONTINUOUS
10
31.7917
20
-149.392
11
31.8869
21
-149.582
0
LINE
8
BLACK
6
CONTINUOUS
10
31.8869
20
-149.582
11
31.8869
21
-150.63
0
LINE
8
BLACK
6
CONTINUOUS
10
32.8393
20
-150.63
11
32.8393
21
-149.296
0
LINE
8
BLACK
6
CONTINUOUS
10
32.8393
20
-149.487
11
32.9345
21
-149.392
0
LINE
8
BLACK
6
CONTINUOUS
10
32.9345
20
-149.392
11
33.125
21
-149.296
0
LINE
8
BLACK
6
CONTINUOUS
10
33.125
20
-149.296
11
33.4107
21
-149.296
0
LINE
8
BLACK
6
CONTINUOUS
10
33.4107
20
-149.296
11
33.6012
21
-149.392
0
LINE
8
BLACK
6
CONTINUOUS
10
33.6012
20
-149.392
11
33.6964
21
-149.582
0
LINE
8
BLACK
6
CONTINUOUS
10
33.6964
20
-149.582
11
33.6964
21
-150.63
0
LINE
8
BLACK
6
CONTINUOUS
10
33.6964
20
-149.582
11
33.7917
21
-149.392
0
LINE
8
BLACK
6
CONTINUOUS
10
33.7917
20
-149.392
11
33.9821
21
-149.296
0
LINE
8
BLACK
6
CONTINUOUS
10
33.9821
20
-149.296
11
34.2679
21
-149.296
0
LINE
8
BLACK
6
CONTINUOUS
10
34.2679
20
-149.296
11
34.4583
21
-149.392
0
LINE
8
BLACK
6
CONTINUOUS
10
34.4583
20
-149.392
11
34.5536
21
-149.582
0
LINE
8
BLACK
6
CONTINUOUS
10
34.5536
20
-149.582
11
34.5536
21
-150.63
0
LINE
8
BLACK
6
CONTINUOUS
10
38.4583
20
-148.535
11
36.744
21
-151.106
0
LINE
8
BLACK
6
CONTINUOUS
10
41.0298
20
-148.63
11
41.2202
21
-148.63
0
LINE
8
BLACK
6
CONTINUOUS
10
41.2202
20
-148.63
11
41.4107
21
-148.725
0
LINE
8
BLACK
6
CONTINUOUS
10
41.4107
20
-148.725
11
41.506
21
-148.82
0
LINE
8
BLACK
6
CONTINUOUS
10
41.506
20
-148.82
11
41.6012
21
-149.011
0
LINE
8
BLACK
6
CONTINUOUS
10
41.6012
20
-149.011
11
41.6964
21
-149.392
0
LINE
8
BLACK
6
CONTINUOUS
10
41.6964
20
-149.392
11
41.6964
21
-149.868
0
LINE
8
BLACK
6
CONTINUOUS
10
41.6964
20
-149.868
11
41.6012
21
-150.249
0
LINE
8
BLACK
6
CONTINUOUS
10
41.6012
20
-150.249
11
41.506
21
-150.439
0
LINE
8
BLACK
6
CONTINUOUS
10
41.506
20
-150.439
11
41.4107
21
-150.535
0
LINE
8
BLACK
6
CONTINUOUS
10
41.4107
20
-150.535
11
41.2202
21
-150.63
0
LINE
8
BLACK
6
CONTINUOUS
10
41.2202
20
-150.63
11
41.0298
21
-150.63
0
LINE
8
BLACK
6
CONTINUOUS
10
41.0298
20
-150.63
11
40.8393
21
-150.535
0
LINE
8
BLACK
6
CONTINUOUS
10
40.8393
20
-150.535
11
40.744
21
-150.439
0
LINE
8
BLACK
6
CONTINUOUS
10
40.744
20
-150.439
11
40.6488
21
-150.249
0
LINE
8
BLACK
6
CONTINUOUS
10
40.6488
20
-150.249
11
40.5536
21
-149.868
0
LINE
8
BLACK
6
CONTINUOUS
10
40.5536
20
-149.868
11
40.5536
21
-149.392
0
LINE
8
BLACK
6
CONTINUOUS
10
40.5536
20
-149.392
11
40.6488
21
-149.011
0
LINE
8
BLACK
6
CONTINUOUS
10
40.6488
20
-149.011
11
40.744
21
-148.82
0
LINE
8
BLACK
6
CONTINUOUS
10
40.744
20
-148.82
11
40.8393
21
-148.725
0
LINE
8
BLACK
6
CONTINUOUS
10
40.8393
20
-148.725
11
41.0298
21
-148.63
0
LINE
8
BLACK
6
CONTINUOUS
10
42.5536
20
-150.439
11
42.6488
21
-150.535
0
LINE
8
BLACK
6
CONTINUOUS
10
42.6488
20
-150.535
11
42.5536
21
-150.63
0
LINE
8
BLACK
6
CONTINUOUS
10
42.5536
20
-150.63
11
42.4583
21
-150.535
0
LINE
8
BLACK
6
CONTINUOUS
10
42.4583
20
-150.535
11
42.5536
21
-150.439
0
LINE
8
BLACK
6
CONTINUOUS
10
42.5536
20
-150.439
11
42.5536
21
-150.63
0
LINE
8
BLACK
6
CONTINUOUS
10
43.8869
20
-148.63
11
44.0774
21
-148.63
0
LINE
8
BLACK
6
CONTINUOUS
10
44.0774
20
-148.63
11
44.2679
21
-148.725
0
LINE
8
BLACK
6
CONTINUOUS
10
44.2679
20
-148.725
11
44.3631
21
-148.82
0
LINE
8
BLACK
6
CONTINUOUS
10
44.3631
20
-148.82
11
44.4583
21
-149.011
0
LINE
8
BLACK
6
CONTINUOUS
10
44.4583
20
-149.011
11
44.5536
21
-149.392
0
LINE
8
BLACK
6
CONTINUOUS
10
44.5536
20
-149.392
11
44.5536
21
-149.868
0
LINE
8
BLACK
6
CONTINUOUS
10
44.5536
20
-149.868
11
44.4583
21
-150.249
0
LINE
8
BLACK
6
CONTINUOUS
10
44.4583
20
-150.249
11
44.3631
21
-150.439
0
LINE
8
BLACK
6
CONTINUOUS
10
44.3631
20
-150.439
11
44.2679
21
-150.535
0
LINE
8
BLACK
6
CONTINUOUS
10
44.2679
20
-150.535
11
44.0774
21
-150.63
0
LINE
8
BLACK
6
CONTINUOUS
10
44.0774
20
-150.63
11
43.8869
21
-150.63
0
LINE
8
BLACK
6
CONTINUOUS
10
43.8869
20
-150.63
11
43.6964
21
-150.535
0
LINE
8
BLACK
6
CONTINUOUS
10
43.6964
20
-150.535
11
43.6012
21
-150.439
0
LINE
8
BLACK
6
CONTINUOUS
10
43.6012
20
-150.439
11
43.506
21
-150.249
0
LINE
8
BLACK
6
CONTINUOUS
10
43.506
20
-150.249
11
43.4107
21
-149.868
0
LINE
8
BLACK
6
CONTINUOUS
10
43.4107
20
-149.868
11
43.4107
21
-149.392
0
LINE
8
BLACK
6
CONTINUOUS
10
43.4107
20
-149.392
11
43.506
21
-149.011
0
LINE
8
BLACK
6
CONTINUOUS
10
43.506
20
-149.011
11
43.6012
21
-148.82
0
LINE
8
BLACK
6
CONTINUOUS
10
43.6012
20
-148.82
11
43.6964
21
-148.725
0
LINE
8
BLACK
6
CONTINUOUS
10
43.6964
20
-148.725
11
43.8869
21
-148.63
0
LINE
8
BLACK
6
CONTINUOUS
10
45.6964
20
-149.487
11
45.506
21
-149.392
0
LINE
8
BLACK
6
CONTINUOUS
10
45.506
20
-149.392
11
45.4107
21
-149.296
0
LINE
8
BLACK
6
CONTINUOUS
10
45.4107
20
-149.296
11
45.3155
21
-149.106
0
LINE
8
BLACK
6
CONTINUOUS
10
45.3155
20
-149.106
11
45.3155
21
-149.011
0
LINE
8
BLACK
6
CONTINUOUS
10
45.3155
20
-149.011
11
45.4107
21
-148.82
0
LINE
8
BLACK
6
CONTINUOUS
10
45.4107
20
-148.82
11
45.506
21
-148.725
0
LINE
8
BLACK
6
CONTINUOUS
10
45.506
20
-148.725
11
45.6964
21
-148.63
0
LINE
8
BLACK
6
CONTINUOUS
10
45.6964
20
-148.63
11
46.0774
21
-148.63
0
LINE
8
BLACK
6
CONTINUOUS
10
46.0774
20
-148.63
11
46.2679
21
-148.725
0
LINE
8
BLACK
6
CONTINUOUS
10
46.2679
20
-148.725
11
46.3631
21
-148.82
0
LINE
8
BLACK
6
CONTINUOUS
10
46.3631
20
-148.82
11
46.4583
21
-149.011
0
LINE
8
BLACK
6
CONTINUOUS
10
46.4583
20
-149.011
11
46.4583
21
-149.106
0
LINE
8
BLACK
6
CONTINUOUS
10
46.4583
20
-149.106
11
46.3631
21
-149.296
0
LINE
8
BLACK
6
CONTINUOUS
10
46.3631
20
-149.296
11
46.2679
21
-149.392
0
LINE
8
BLACK
6
CONTINUOUS
10
46.2679
20
-149.392
11
46.0774
21
-149.487
0
LINE
8
BLACK
6
CONTINUOUS
10
46.0774
20
-149.487
11
45.6964
21
-149.487
0
LINE
8
BLACK
6
CONTINUOUS
10
45.6964
20
-149.487
11
45.506
21
-149.582
0
LINE
8
BLACK
6
CONTINUOUS
10
45.506
20
-149.582
11
45.4107
21
-149.677
0
LINE
8
BLACK
6
CONTINUOUS
10
45.4107
20
-149.677
11
45.3155
21
-149.868
0
LINE
8
BLACK
6
CONTINUOUS
10
45.3155
20
-149.868
11
45.3155
21
-150.249
0
LINE
8
BLACK
6
CONTINUOUS
10
45.3155
20
-150.249
11
45.4107
21
-150.439
0
LINE
8
BLACK
6
CONTINUOUS
10
45.4107
20
-150.439
11
45.506
21
-150.535
0
LINE
8
BLACK
6
CONTINUOUS
10
45.506
20
-150.535
11
45.6964
21
-150.63
0
LINE
8
BLACK
6
CONTINUOUS
10
45.6964
20
-150.63
11
46.0774
21
-150.63
0
LINE
8
BLACK
6
CONTINUOUS
10
46.0774
20
-150.63
11
46.2679
21
-150.535
0
LINE
8
BLACK
6
CONTINUOUS
10
46.2679
20
-150.535
11
46.3631
21
-150.439
0
LINE
8
BLACK
6
CONTINUOUS
10
46.3631
20
-150.439
11
46.4583
21
-150.249
0
LINE
8
BLACK
6
CONTINUOUS
10
46.4583
20
-150.249
11
46.4583
21
-149.868
0
LINE
8
BLACK
6
CONTINUOUS
10
46.4583
20
-149.868
11
46.3631
21
-149.677
0
LINE
8
BLACK
6
CONTINUOUS
10
46.3631
20
-149.677
11
46.2679
21
-149.582
0
LINE
8
BLACK
6
CONTINUOUS
10
46.2679
20
-149.582
11
46.0774
21
-149.487
0
LINE
8
BLACK
6
CONTINUOUS
10
48.1726
20
-148.63
11
47.7917
21
-148.63
0
LINE
8
BLACK
6
CONTINUOUS
10
47.7917
20
-148.63
11
47.6012
21
-148.725
0
LINE
8
BLACK
6
CONTINUOUS
10
47.6012
20
-148.725
11
47.506
21
-148.82
0
LINE
8
BLACK
6
CONTINUOUS
10
47.506
20
-148.82
11
47.3155
21
-149.106
0
LINE
8
BLACK
6
CONTINUOUS
10
47.3155
20
-149.106
11
47.2202
21
-149.487
0
LINE
8
BLACK
6
CONTINUOUS
10
47.2202
20
-149.487
11
47.2202
21
-150.249
0
LINE
8
BLACK
6
CONTINUOUS
10
47.2202
20
-150.249
11
47.3155
21
-150.439
0
LINE
8
BLACK
6
CONTINUOUS
10
47.3155
20
-150.439
11
47.4107
21
-150.535
0
LINE
8
BLACK
6
CONTINUOUS
10
47.4107
20
-150.535
11
47.6012
21
-150.63
0
LINE
8
BLACK
6
CONTINUOUS
10
47.6012
20
-150.63
11
47.9821
21
-150.63
0
LINE
8
BLACK
6
CONTINUOUS
10
47.9821
20
-150.63
11
48.1726
21
-150.535
0
LINE
8
BLACK
6
CONTINUOUS
10
48.1726
20
-150.535
11
48.2679
21
-150.439
0
LINE
8
BLACK
6
CONTINUOUS
10
48.2679
20
-150.439
11
48.3631
21
-150.249
0
LINE
8
BLACK
6
CONTINUOUS
10
48.3631
20
-150.249
11
48.3631
21
-149.773
0
LINE
8
BLACK
6
CONTINUOUS
10
48.3631
20
-149.773
11
48.2679
21
-149.582
0
LINE
8
BLACK
6
CONTINUOUS
10
48.2679
20
-149.582
11
48.1726
21
-149.487
0
LINE
8
BLACK
6
CONTINUOUS
10
48.1726
20
-149.487
11
47.9821
21
-149.392
0
LINE
8
BLACK
6
CONTINUOUS
10
47.9821
20
-149.392
11
47.6012
21
-149.392
0
LINE
8
BLACK
6
CONTINUOUS
10
47.6012
20
-149.392
11
47.4107
21
-149.487
0
LINE
8
BLACK
6
CONTINUOUS
10
47.4107
20
-149.487
11
47.3155
21
-149.582
0
LINE
8
BLACK
6
CONTINUOUS
10
47.3155
20
-149.582
11
47.2202
21
-149.773
0
LINE
8
BLACK
6
CONTINUOUS
10
50.0774
20
-148.63
11
49.6964
21
-148.63
0
LINE
8
BLACK
6
CONTINUOUS
10
49.6964
20
-148.63
11
49.506
21
-148.725
0
LINE
8
BLACK
6
CONTINUOUS
10
49.506
20
-148.725
11
49.4107
21
-148.82
0
LINE
8
BLACK
6
CONTINUOUS
10
49.4107
20
-148.82
11
49.2202
21
-149.106
0
LINE
8
BLACK
6
CONTINUOUS
10
49.2202
20
-149.106
11
49.125
21
-149.487
0
LINE
8
BLACK
6
CONTINUOUS
10
49.125
20
-149.487
11
49.125
21
-150.249
0
LINE
8
BLACK
6
CONTINUOUS
10
49.125
20
-150.249
11
49.2202
21
-150.439
0
LINE
8
BLACK
6
CONTINUOUS
10
49.2202
20
-150.439
11
49.3155
21
-150.535
0
LINE
8
BLACK
6
CONTINUOUS
10
49.3155
20
-150.535
11
49.506
21
-150.63
0
LINE
8
BLACK
6
CONTINUOUS
10
49.506
20
-150.63
11
49.8869
21
-150.63
0
LINE
8
BLACK
6
CONTINUOUS
10
49.8869
20
-150.63
11
50.0774
21
-150.535
0
LINE
8
BLACK
6
CONTINUOUS
10
50.0774
20
-150.535
11
50.1726
21
-150.439
0
LINE
8
BLACK
6
CONTINUOUS
10
50.1726
20
-150.439
11
50.2679
21
-150.249
0
LINE
8
BLACK
6
CONTINUOUS
10
50.2679
20
-150.249
11
50.2679
21
-149.773
0
LINE
8
BLACK
6
CONTINUOUS
10
50.2679
20
-149.773
11
50.1726
21
-149.582
0
LINE
8
BLACK
6
CONTINUOUS
10
50.1726
20
-149.582
11
50.0774
21
-149.487
0
LINE
8
BLACK
6
CONTINUOUS
10
50.0774
20
-149.487
11
49.8869
21
-149.392
0
LINE
8
BLACK
6
CONTINUOUS
10
49.8869
20
-149.392
11
49.506
21
-149.392
0
LINE
8
BLACK
6
CONTINUOUS
10
49.506
20
-149.392
11
49.3155
21
-149.487
0
LINE
8
BLACK
6
CONTINUOUS
10
49.3155
20
-149.487
11
49.2202
21
-149.582
0
LINE
8
BLACK
6
CONTINUOUS
10
49.2202
20
-149.582
11
49.125
21
-149.773
0
LINE
8
BLACK
6
CONTINUOUS
10
51.0298
20
-148.63
11
51.0298
21
-149.011
0
LINE
8
BLACK
6
CONTINUOUS
10
51.7917
20
-148.63
11
51.7917
21
-149.011
0
LINE
8
BLACK
6
CONTINUOUS
10
54.744
20
-151.392
11
54.6488
21
-151.296
0
LINE
8
BLACK
6
CONTINUOUS
10
54.6488
20
-151.296
11
54.4583
21
-151.011
0
LINE
8
BLACK
6
CONTINUOUS
10
54.4583
20
-151.011
11
54.3631
21
-150.82
0
LINE
8
BLACK
6
CONTINUOUS
10
54.3631
20
-150.82
11
54.2679
21
-150.535
0
LINE
8
BLACK
6
CONTINUOUS
10
54.2679
20
-150.535
11
54.1726
21
-150.058
0
LINE
8
BLACK
6
CONTINUOUS
10
54.1726
20
-150.058
11
54.1726
21
-149.677
0
LINE
8
BLACK
6
CONTINUOUS
10
54.1726
20
-149.677
11
54.2679
21
-149.201
0
LINE
8
BLACK
6
CONTINUOUS
10
54.2679
20
-149.201
11
54.3631
21
-148.915
0
LINE
8
BLACK
6
CONTINUOUS
10
54.3631
20
-148.915
11
54.4583
21
-148.725
0
LINE
8
BLACK
6
CONTINUOUS
10
54.4583
20
-148.725
11
54.6488
21
-148.439
0
LINE
8
BLACK
6
CONTINUOUS
10
54.6488
20
-148.439
11
54.744
21
-148.344
0
LINE
8
BLACK
6
CONTINUOUS
10
56.3631
20
-148.63
11
55.9821
21
-148.63
0
LINE
8
BLACK
6
CONTINUOUS
10
55.9821
20
-148.63
11
55.7917
21
-148.725
0
LINE
8
BLACK
6
CONTINUOUS
10
55.7917
20
-148.725
11
55.6964
21
-148.82
0
LINE
8
BLACK
6
CONTINUOUS
10
55.6964
20
-148.82
11
55.506
21
-149.106
0
LINE
8
BLACK
6
CONTINUOUS
10
55.506
20
-149.106
11
55.4107
21
-149.487
0
LINE
8
BLACK
6
CONTINUOUS
10
55.4107
20
-149.487
11
55.4107
21
-150.249
0
LINE
8
BLACK
6
CONTINUOUS
10
55.4107
20
-150.249
11
55.506
21
-150.439
0
LINE
8
BLACK
6
CONTINUOUS
10
55.506
20
-150.439
11
55.6012
21
-150.535
0
LINE
8
BLACK
6
CONTINUOUS
10
55.6012
20
-150.535
11
55.7917
21
-150.63
0
LINE
8
BLACK
6
CONTINUOUS
10
55.7917
20
-150.63
11
56.1726
21
-150.63
0
LINE
8
BLACK
6
CONTINUOUS
10
56.1726
20
-150.63
11
56.3631
21
-150.535
0
LINE
8
BLACK
6
CONTINUOUS
10
56.3631
20
-150.535
11
56.4583
21
-150.439
0
LINE
8
BLACK
6
CONTINUOUS
10
56.4583
20
-150.439
11
56.5536
21
-150.249
0
LINE
8
BLACK
6
CONTINUOUS
10
56.5536
20
-150.249
11
56.5536
21
-149.773
0
LINE
8
BLACK
6
CONTINUOUS
10
56.5536
20
-149.773
11
56.4583
21
-149.582
0
LINE
8
BLACK
6
CONTINUOUS
10
56.4583
20
-149.582
11
56.3631
21
-149.487
0
LINE
8
BLACK
6
CONTINUOUS
10
56.3631
20
-149.487
11
56.1726
21
-149.392
0
LINE
8
BLACK
6
CONTINUOUS
10
56.1726
20
-149.392
11
55.7917
21
-149.392
0
LINE
8
BLACK
6
CONTINUOUS
10
55.7917
20
-149.392
11
55.6012
21
-149.487
0
LINE
8
BLACK
6
CONTINUOUS
10
55.6012
20
-149.487
11
55.506
21
-149.582
0
LINE
8
BLACK
6
CONTINUOUS
10
55.506
20
-149.582
11
55.4107
21
-149.773
0
LINE
8
BLACK
6
CONTINUOUS
10
58.9345
20
-150.63
11
58.9345
21
-148.63
0
LINE
8
BLACK
6
CONTINUOUS
10
59.7917
20
-150.63
11
59.7917
21
-149.582
0
LINE
8
BLACK
6
CONTINUOUS
10
59.7917
20
-149.582
11
59.6964
21
-149.392
0
LINE
8
BLACK
6
CONTINUOUS
10
59.6964
20
-149.392
11
59.506
21
-149.296
0
LINE
8
BLACK
6
CONTINUOUS
10
59.506
20
-149.296
11
59.2202
21
-149.296
0
LINE
8
BLACK
6
CONTINUOUS
10
59.2202
20
-149.296
11
59.0298
21
-149.392
0
LINE
8
BLACK
6
CONTINUOUS
10
59.0298
20
-149.392
11
58.9345
21
-149.487
0
LINE
8
BLACK
6
CONTINUOUS
10
61.0298
20
-150.63
11
60.8393
21
-150.535
0
LINE
8
BLACK
6
CONTINUOUS
10
60.8393
20
-150.535
11
60.744
21
-150.439
0
LINE
8
BLACK
6
CONTINUOUS
10
60.744
20
-150.439
11
60.6488
21
-150.249
0
LINE
8
BLACK
6
CONTINUOUS
10
60.6488
20
-150.249
11
60.6488
21
-149.677
0
LINE
8
BLACK
6
CONTINUOUS
10
60.6488
20
-149.677
11
60.744
21
-149.487
0
LINE
8
BLACK
6
CONTINUOUS
10
60.744
20
-149.487
11
60.8393
21
-149.392
0
LINE
8
BLACK
6
CONTINUOUS
10
60.8393
20
-149.392
11
61.0298
21
-149.296
0
LINE
8
BLACK
6
CONTINUOUS
10
61.0298
20
-149.296
11
61.3155
21
-149.296
0
LINE
8
BLACK
6
CONTINUOUS
10
61.3155
20
-149.296
11
61.506
21
-149.392
0
LINE
8
BLACK
6
CONTINUOUS
10
61.506
20
-149.392
11
61.6012
21
-149.487
0
LINE
8
BLACK
6
CONTINUOUS
10
61.6012
20
-149.487
11
61.6964
21
-149.677
0
LINE
8
BLACK
6
CONTINUOUS
10
61.6964
20
-149.677
11
61.6964
21
-150.249
0
LINE
8
BLACK
6
CONTINUOUS
10
61.6964
20
-150.249
11
61.6012
21
-150.439
0
LINE
8
BLACK
6
CONTINUOUS
10
61.6012
20
-150.439
11
61.506
21
-150.535
0
LINE
8
BLACK
6
CONTINUOUS
10
61.506
20
-150.535
11
61.3155
21
-150.63
0
LINE
8
BLACK
6
CONTINUOUS
10
61.3155
20
-150.63
11
61.0298
21
-150.63
0
LINE
8
BLACK
6
CONTINUOUS
10
62.8393
20
-150.63
11
62.6488
21
-150.535
0
LINE
8
BLACK
6
CONTINUOUS
10
62.6488
20
-150.535
11
62.5536
21
-150.344
0
LINE
8
BLACK
6
CONTINUOUS
10
62.5536
20
-150.344
11
62.5536
21
-148.63
0
LINE
8
BLACK
6
CONTINUOUS
10
64.3631
20
-150.535
11
64.1726
21
-150.63
0
LINE
8
BLACK
6
CONTINUOUS
10
64.1726
20
-150.63
11
63.7917
21
-150.63
0
LINE
8
BLACK
6
CONTINUOUS
10
63.7917
20
-150.63
11
63.6012
21
-150.535
0
LINE
8
BLACK
6
CONTINUOUS
10
63.6012
20
-150.535
11
63.506
21
-150.344
0
LINE
8
BLACK
6
CONTINUOUS
10
63.506
20
-150.344
11
63.506
21
-149.582
0
LINE
8
BLACK
6
CONTINUOUS
10
63.506
20
-149.582
11
63.6012
21
-149.392
0
LINE
8
BLACK
6
CONTINUOUS
10
63.6012
20
-149.392
11
63.7917
21
-149.296
0
LINE
8
BLACK
6
CONTINUOUS
10
63.7917
20
-149.296
11
64.1726
21
-149.296
0
LINE
8
BLACK
6
CONTINUOUS
10
64.1726
20
-149.296
11
64.3631
21
-149.392
0
LINE
8
BLACK
6
CONTINUOUS
10
64.3631
20
-149.392
11
64.4583
21
-149.582
0
LINE
8
BLACK
6
CONTINUOUS
10
64.4583
20
-149.582
11
64.4583
21
-149.773
0
LINE
8
BLACK
6
CONTINUOUS
10
64.4583
20
-149.773
11
63.506
21
-149.963
0
LINE
8
BLACK
6
CONTINUOUS
10
65.2202
20
-150.535
11
65.4107
21
-150.63
0
LINE
8
BLACK
6
CONTINUOUS
10
65.4107
20
-150.63
11
65.7917
21
-150.63
0
LINE
8
BLACK
6
CONTINUOUS
10
65.7917
20
-150.63
11
65.9821
21
-150.535
0
LINE
8
BLACK
6
CONTINUOUS
10
65.9821
20
-150.535
11
66.0774
21
-150.344
0
LINE
8
BLACK
6
CONTINUOUS
10
66.0774
20
-150.344
11
66.0774
21
-150.249
0
LINE
8
BLACK
6
CONTINUOUS
10
66.0774
20
-150.249
11
65.9821
21
-150.058
0
LINE
8
BLACK
6
CONTINUOUS
10
65.9821
20
-150.058
11
65.7917
21
-149.963
0
LINE
8
BLACK
6
CONTINUOUS
10
65.7917
20
-149.963
11
65.506
21
-149.963
0
LINE
8
BLACK
6
CONTINUOUS
10
65.506
20
-149.963
11
65.3155
21
-149.868
0
LINE
8
BLACK
6
CONTINUOUS
10
65.3155
20
-149.868
11
65.2202
21
-149.677
0
LINE
8
BLACK
6
CONTINUOUS
10
65.2202
20
-149.677
11
65.2202
21
-149.582
0
LINE
8
BLACK
6
CONTINUOUS
10
65.2202
20
-149.582
11
65.3155
21
-149.392
0
LINE
8
BLACK
6
CONTINUOUS
10
65.3155
20
-149.392
11
65.506
21
-149.296
0
LINE
8
BLACK
6
CONTINUOUS
10
65.506
20
-149.296
11
65.7917
21
-149.296
0
LINE
8
BLACK
6
CONTINUOUS
10
65.7917
20
-149.296
11
65.9821
21
-149.392
0
LINE
8
BLACK
6
CONTINUOUS
10
66.744
20
-151.392
11
66.8393
21
-151.296
0
LINE
8
BLACK
6
CONTINUOUS
10
66.8393
20
-151.296
11
67.0298
21
-151.011
0
LINE
8
BLACK
6
CONTINUOUS
10
67.0298
20
-151.011
11
67.125
21
-150.82
0
LINE
8
BLACK
6
CONTINUOUS
10
67.125
20
-150.82
11
67.2202
21
-150.535
0
LINE
8
BLACK
6
CONTINUOUS
10
67.2202
20
-150.535
11
67.3155
21
-150.058
0
LINE
8
BLACK
6
CONTINUOUS
10
67.3155
20
-150.058
11
67.3155
21
-149.677
0
LINE
8
BLACK
6
CONTINUOUS
10
67.3155
20
-149.677
11
67.2202
21
-149.201
0
LINE
8
BLACK
6
CONTINUOUS
10
67.2202
20
-149.201
11
67.125
21
-148.915
0
LINE
8
BLACK
6
CONTINUOUS
10
67.125
20
-148.915
11
67.0298
21
-148.725
0
LINE
8
BLACK
6
CONTINUOUS
10
67.0298
20
-148.725
11
66.8393
21
-148.439
0
LINE
8
BLACK
6
CONTINUOUS
10
66.8393
20
-148.439
11
66.744
21
-148.344
0
LINE
8
BLACK
6
CONTINUOUS
10
70.3631
20
-151.392
11
70.2679
21
-151.296
0
LINE
8
BLACK
6
CONTINUOUS
10
70.2679
20
-151.296
11
70.0774
21
-151.011
0
LINE
8
BLACK
6
CONTINUOUS
10
70.0774
20
-151.011
11
69.9821
21
-150.82
0
LINE
8
BLACK
6
CONTINUOUS
10
69.9821
20
-150.82
11
69.8869
21
-150.535
0
LINE
8
BLACK
6
CONTINUOUS
10
69.8869
20
-150.535
11
69.7917
21
-150.058
0
LINE
8
BLACK
6
CONTINUOUS
10
69.7917
20
-150.058
11
69.7917
21
-149.677
0
LINE
8
BLACK
6
CONTINUOUS
10
69.7917
20
-149.677
11
69.8869
21
-149.201
0
LINE
8
BLACK
6
CONTINUOUS
10
69.8869
20
-149.201
11
69.9821
21
-148.915
0
LINE
8
BLACK
6
CONTINUOUS
10
69.9821
20
-148.915
11
70.0774
21
-148.725
0
LINE
8
BLACK
6
CONTINUOUS
10
70.0774
20
-148.725
11
70.2679
21
-148.439
0
LINE
8
BLACK
6
CONTINUOUS
10
70.2679
20
-148.439
11
70.3631
21
-148.344
0
LINE
8
BLACK
6
CONTINUOUS
10
71.125
20
-149.296
11
71.125
21
-150.63
0
LINE
8
BLACK
6
CONTINUOUS
10
71.125
20
-149.487
11
71.2202
21
-149.392
0
LINE
8
BLACK
6
CONTINUOUS
10
71.2202
20
-149.392
11
71.4107
21
-149.296
0
LINE
8
BLACK
6
CONTINUOUS
10
71.4107
20
-149.296
11
71.6964
21
-149.296
0
LINE
8
BLACK
6
CONTINUOUS
10
71.6964
20
-149.296
11
71.8869
21
-149.392
0
LINE
8
BLACK
6
CONTINUOUS
10
71.8869
20
-149.392
11
71.9821
21
-149.582
0
LINE
8
BLACK
6
CONTINUOUS
10
71.9821
20
-149.582
11
71.9821
21
-150.63
0
LINE
8
BLACK
6
CONTINUOUS
10
73.2202
20
-150.63
11
73.0298
21
-150.535
0
LINE
8
BLACK
6
CONTINUOUS
10
73.0298
20
-150.535
11
72.9345
21
-150.439
0
LINE
8
BLACK
6
CONTINUOUS
10
72.9345
20
-150.439
11
72.8393
21
-150.249
0
LINE
8
BLACK
6
CONTINUOUS
10
72.8393
20
-150.249
11
72.8393
21
-149.677
0
LINE
8
BLACK
6
CONTINUOUS
10
72.8393
20
-149.677
11
72.9345
21
-149.487
0
LINE
8
BLACK
6
CONTINUOUS
10
72.9345
20
-149.487
11
73.0298
21
-149.392
0
LINE
8
BLACK
6
CONTINUOUS
10
73.0298
20
-149.392
11
73.2202
21
-149.296
0
LINE
8
BLACK
6
CONTINUOUS
10
73.2202
20
-149.296
11
73.506
21
-149.296
0
LINE
8
BLACK
6
CONTINUOUS
10
73.506
20
-149.296
11
73.6964
21
-149.392
0
LINE
8
BLACK
6
CONTINUOUS
10
73.6964
20
-149.392
11
73.7917
21
-149.487
0
LINE
8
BLACK
6
CONTINUOUS
10
73.7917
20
-149.487
11
73.8869
21
-149.677
0
LINE
8
BLACK
6
CONTINUOUS
10
73.8869
20
-149.677
11
73.8869
21
-150.249
0
LINE
8
BLACK
6
CONTINUOUS
10
73.8869
20
-150.249
11
73.7917
21
-150.439
0
LINE
8
BLACK
6
CONTINUOUS
10
73.7917
20
-150.439
11
73.6964
21
-150.535
0
LINE
8
BLACK
6
CONTINUOUS
10
73.6964
20
-150.535
11
73.506
21
-150.63
0
LINE
8
BLACK
6
CONTINUOUS
10
73.506
20
-150.63
11
73.2202
21
-150.63
0
LINE
8
BLACK
6
CONTINUOUS
10
74.4583
20
-149.296
11
75.2202
21
-149.296
0
LINE
8
BLACK
6
CONTINUOUS
10
74.744
20
-148.63
11
74.744
21
-150.344
0
LINE
8
BLACK
6
CONTINUOUS
10
74.744
20
-150.344
11
74.8393
21
-150.535
0
LINE
8
BLACK
6
CONTINUOUS
10
74.8393
20
-150.535
11
75.0298
21
-150.63
0
LINE
8
BLACK
6
CONTINUOUS
10
75.0298
20
-150.63
11
75.2202
21
-150.63
0
LINE
8
BLACK
6
CONTINUOUS
10
77.4107
20
-149.296
11
77.4107
21
-151.296
0
LINE
8
BLACK
6
CONTINUOUS
10
77.4107
20
-149.392
11
77.6012
21
-149.296
0
LINE
8
BLACK
6
CONTINUOUS
10
77.6012
20
-149.296
11
77.9821
21
-149.296
0
LINE
8
BLACK
6
CONTINUOUS
10
77.9821
20
-149.296
11
78.1726
21
-149.392
0
LINE
8
BLACK
6
CONTINUOUS
10
78.1726
20
-149.392
11
78.2679
21
-149.487
0
LINE
8
BLACK
6
CONTINUOUS
10
78.2679
20
-149.487
11
78.3631
21
-149.677
0
LINE
8
BLACK
6
CONTINUOUS
10
78.3631
20
-149.677
11
78.3631
21
-150.249
0
LINE
8
BLACK
6
CONTINUOUS
10
78.3631
20
-150.249
11
78.2679
21
-150.439
0
LINE
8
BLACK
6
CONTINUOUS
10
78.2679
20
-150.439
11
78.1726
21
-150.535
0
LINE
8
BLACK
6
CONTINUOUS
10
78.1726
20
-150.535
11
77.9821
21
-150.63
0
LINE
8
BLACK
6
CONTINUOUS
10
77.9821
20
-150.63
11
77.6012
21
-150.63
0
LINE
8
BLACK
6
CONTINUOUS
10
77.6012
20
-150.63
11
77.4107
21
-150.535
0
LINE
8
BLACK
6
CONTINUOUS
10
79.506
20
-150.63
11
79.3155
21
-150.535
0
LINE
8
BLACK
6
CONTINUOUS
10
79.3155
20
-150.535
11
79.2202
21
-150.344
0
LINE
8
BLACK
6
CONTINUOUS
10
79.2202
20
-150.344
11
79.2202
21
-148.63
0
LINE
8
BLACK
6
CONTINUOUS
10
81.125
20
-150.63
11
81.125
21
-149.582
0
LINE
8
BLACK
6
CONTINUOUS
10
81.125
20
-149.582
11
81.0298
21
-149.392
0
LINE
8
BLACK
6
CONTINUOUS
10
81.0298
20
-149.392
11
80.8393
21
-149.296
0
LINE
8
BLACK
6
CONTINUOUS
10
80.8393
20
-149.296
11
80.4583
21
-149.296
0
LINE
8
BLACK
6
CONTINUOUS
10
80.4583
20
-149.296
11
80.2679
21
-149.392
0
LINE
8
BLACK
6
CONTINUOUS
10
81.125
20
-150.535
11
80.9345
21
-150.63
0
LINE
8
BLACK
6
CONTINUOUS
10
80.9345
20
-150.63
11
80.4583
21
-150.63
0
LINE
8
BLACK
6
CONTINUOUS
10
80.4583
20
-150.63
11
80.2679
21
-150.535
0
LINE
8
BLACK
6
CONTINUOUS
10
80.2679
20
-150.535
11
80.1726
21
-150.344
0
LINE
8
BLACK
6
CONTINUOUS
10
80.1726
20
-150.344
11
80.1726
21
-150.154
0
LINE
8
BLACK
6
CONTINUOUS
10
80.1726
20
-150.154
11
80.2679
21
-149.963
0
LINE
8
BLACK
6
CONTINUOUS
10
80.2679
20
-149.963
11
80.4583
21
-149.868
0
LINE
8
BLACK
6
CONTINUOUS
10
80.4583
20
-149.868
11
80.9345
21
-149.868
0
LINE
8
BLACK
6
CONTINUOUS
10
80.9345
20
-149.868
11
81.125
21
-149.773
0
LINE
8
BLACK
6
CONTINUOUS
10
81.7917
20
-149.296
11
82.5536
21
-149.296
0
LINE
8
BLACK
6
CONTINUOUS
10
82.0774
20
-148.63
11
82.0774
21
-150.344
0
LINE
8
BLACK
6
CONTINUOUS
10
82.0774
20
-150.344
11
82.1726
21
-150.535
0
LINE
8
BLACK
6
CONTINUOUS
10
82.1726
20
-150.535
11
82.3631
21
-150.63
0
LINE
8
BLACK
6
CONTINUOUS
10
82.3631
20
-150.63
11
82.5536
21
-150.63
0
LINE
8
BLACK
6
CONTINUOUS
10
83.9821
20
-150.535
11
83.7917
21
-150.63
0
LINE
8
BLACK
6
CONTINUOUS
10
83.7917
20
-150.63
11
83.4107
21
-150.63
0
LINE
8
BLACK
6
CONTINUOUS
10
83.4107
20
-150.63
11
83.2202
21
-150.535
0
LINE
8
BLACK
6
CONTINUOUS
10
83.2202
20
-150.535
11
83.125
21
-150.344
0
LINE
8
BLACK
6
CONTINUOUS
10
83.125
20
-150.344
11
83.125
21
-149.582
0
LINE
8
BLACK
6
CONTINUOUS
10
83.125
20
-149.582
11
83.2202
21
-149.392
0
LINE
8
BLACK
6
CONTINUOUS
10
83.2202
20
-149.392
11
83.4107
21
-149.296
0
LINE
8
BLACK
6
CONTINUOUS
10
83.4107
20
-149.296
11
83.7917
21
-149.296
0
LINE
8
BLACK
6
CONTINUOUS
10
83.7917
20
-149.296
11
83.9821
21
-149.392
0
LINE
8
BLACK
6
CONTINUOUS
10
83.9821
20
-149.392
11
84.0774
21
-149.582
0
LINE
8
BLACK
6
CONTINUOUS
10
84.0774
20
-149.582
11
84.0774
21
-149.773
0
LINE
8
BLACK
6
CONTINUOUS
10
84.0774
20
-149.773
11
83.125
21
-149.963
0
LINE
8
BLACK
6
CONTINUOUS
10
85.7917
20
-150.63
11
85.7917
21
-148.63
0
LINE
8
BLACK
6
CONTINUOUS
10
85.7917
20
-150.535
11
85.6012
21
-150.63
0
LINE
8
BLACK
6
CONTINUOUS
10
85.6012
20
-150.63
11
85.2202
21
-150.63
0
LINE
8
BLACK
6
CONTINUOUS
10
85.2202
20
-150.63
11
85.0298
21
-150.535
0
LINE
8
BLACK
6
CONTINUOUS
10
85.0298
20
-150.535
11
84.9345
21
-150.439
0
LINE
8
BLACK
6
CONTINUOUS
10
84.9345
20
-150.439
11
84.8393
21
-150.249
0
LINE
8
BLACK
6
CONTINUOUS
10
84.8393
20
-150.249
11
84.8393
21
-149.677
0
LINE
8
BLACK
6
CONTINUOUS
10
84.8393
20
-149.677
11
84.9345
21
-149.487
0
LINE
8
BLACK
6
CONTINUOUS
10
84.9345
20
-149.487
11
85.0298
21
-149.392
0
LINE
8
BLACK
6
CONTINUOUS
10
85.0298
20
-149.392
11
85.2202
21
-149.296
0
LINE
8
BLACK
6
CONTINUOUS
10
85.2202
20
-149.296
11
85.6012
21
-149.296
0
LINE
8
BLACK
6
CONTINUOUS
10
85.6012
20
-149.296
11
85.7917
21
-149.392
0
LINE
8
BLACK
6
CONTINUOUS
10
86.5536
20
-151.392
11
86.6488
21
-151.296
0
LINE
8
BLACK
6
CONTINUOUS
10
86.6488
20
-151.296
11
86.8393
21
-151.011
0
LINE
8
BLACK
6
CONTINUOUS
10
86.8393
20
-151.011
11
86.9345
21
-150.82
0
LINE
8
BLACK
6
CONTINUOUS
10
86.9345
20
-150.82
11
87.0298
21
-150.535
0
LINE
8
BLACK
6
CONTINUOUS
10
87.0298
20
-150.535
11
87.125
21
-150.058
0
LINE
8
BLACK
6
CONTINUOUS
10
87.125
20
-150.058
11
87.125
21
-149.677
0
LINE
8
BLACK
6
CONTINUOUS
10
87.125
20
-149.677
11
87.0298
21
-149.201
0
LINE
8
BLACK
6
CONTINUOUS
10
87.0298
20
-149.201
11
86.9345
21
-148.915
0
LINE
8
BLACK
6
CONTINUOUS
10
86.9345
20
-148.915
11
86.8393
21
-148.725
0
LINE
8
BLACK
6
CONTINUOUS
10
86.8393
20
-148.725
11
86.6488
21
-148.439
0
LINE
8
BLACK
6
CONTINUOUS
10
86.6488
20
-148.439
11
86.5536
21
-148.344
0
CIRCLE
8
BLACK
10
18.025
20
-152.925
40
1
0
LINE
8
BLACK
6
CONTINUOUS
10
22.4583
20
-152.496
11
22.4583
21
-153.83
0
LINE
8
BLACK
6
CONTINUOUS
10
21.9821
20
-151.735
11
21.506
21
-153.163
0
LINE
8
BLACK
6
CONTINUOUS
10
21.506
20
-153.163
11
22.744
21
-153.163
0
LINE
8
BLACK
6
CONTINUOUS
10
23.506
20
-153.639
11
23.6012
21
-153.735
0
LINE
8
BLACK
6
CONTINUOUS
10
23.6012
20
-153.735
11
23.506
21
-153.83
0
LINE
8
BLACK
6
CONTINUOUS
10
23.506
20
-153.83
11
23.4107
21
-153.735
0
LINE
8
BLACK
6
CONTINUOUS
10
23.4107
20
-153.735
11
23.506
21
-153.639
0
LINE
8
BLACK
6
CONTINUOUS
10
23.506
20
-153.639
11
23.506
21
-153.83
0
LINE
8
BLACK
6
CONTINUOUS
10
24.2679
20
-151.83
11
25.506
21
-151.83
0
LINE
8
BLACK
6
CONTINUOUS
10
25.506
20
-151.83
11
24.8393
21
-152.592
0
LINE
8
BLACK
6
CONTINUOUS
10
24.8393
20
-152.592
11
25.125
21
-152.592
0
LINE
8
BLACK
6
CONTINUOUS
10
25.125
20
-152.592
11
25.3155
21
-152.687
0
LINE
8
BLACK
6
CONTINUOUS
10
25.3155
20
-152.687
11
25.4107
21
-152.782
0
LINE
8
BLACK
6
CONTINUOUS
10
25.4107
20
-152.782
11
25.506
21
-152.973
0
LINE
8
BLACK
6
CONTINUOUS
10
25.506
20
-152.973
11
25.506
21
-153.449
0
LINE
8
BLACK
6
CONTINUOUS
10
25.506
20
-153.449
11
25.4107
21
-153.639
0
LINE
8
BLACK
6
CONTINUOUS
10
25.4107
20
-153.639
11
25.3155
21
-153.735
0
LINE
8
BLACK
6
CONTINUOUS
10
25.3155
20
-153.735
11
25.125
21
-153.83
0
LINE
8
BLACK
6
CONTINUOUS
10
25.125
20
-153.83
11
24.5536
21
-153.83
0
LINE
8
BLACK
6
CONTINUOUS
10
24.5536
20
-153.83
11
24.3631
21
-153.735
0
LINE
8
BLACK
6
CONTINUOUS
10
24.3631
20
-153.735
11
24.2679
21
-153.639
0
LINE
8
BLACK
6
CONTINUOUS
10
26.744
20
-151.83
11
26.9345
21
-151.83
0
LINE
8
BLACK
6
CONTINUOUS
10
26.9345
20
-151.83
11
27.125
21
-151.925
0
LINE
8
BLACK
6
CONTINUOUS
10
27.125
20
-151.925
11
27.2202
21
-152.02
0
LINE
8
BLACK
6
CONTINUOUS
10
27.2202
20
-152.02
11
27.3155
21
-152.211
0
LINE
8
BLACK
6
CONTINUOUS
10
27.3155
20
-152.211
11
27.4107
21
-152.592
0
LINE
8
BLACK
6
CONTINUOUS
10
27.4107
20
-152.592
11
27.4107
21
-153.068
0
LINE
8
BLACK
6
CONTINUOUS
10
27.4107
20
-153.068
11
27.3155
21
-153.449
0
LINE
8
BLACK
6
CONTINUOUS
10
27.3155
20
-153.449
11
27.2202
21
-153.639
0
LINE
8
BLACK
6
CONTINUOUS
10
27.2202
20
-153.639
11
27.125
21
-153.735
0
LINE
8
BLACK
6
CONTINUOUS
10
27.125
20
-153.735
11
26.9345
21
-153.83
0
LINE
8
BLACK
6
CONTINUOUS
10
26.9345
20
-153.83
11
26.744
21
-153.83
0
LINE
8
BLACK
6
CONTINUOUS
10
26.744
20
-153.83
11
26.5536
21
-153.735
0
LINE
8
BLACK
6
CONTINUOUS
10
26.5536
20
-153.735
11
26.4583
21
-153.639
0
LINE
8
BLACK
6
CONTINUOUS
10
26.4583
20
-153.639
11
26.3631
21
-153.449
0
LINE
8
BLACK
6
CONTINUOUS
10
26.3631
20
-153.449
11
26.2679
21
-153.068
0
LINE
8
BLACK
6
CONTINUOUS
10
26.2679
20
-153.068
11
26.2679
21
-152.592
0
LINE
8
BLACK
6
CONTINUOUS
10
26.2679
20
-152.592
11
26.3631
21
-152.211
0
LINE
8
BLACK
6
CONTINUOUS
10
26.3631
20
-152.211
11
26.4583
21
-152.02
0
LINE
8
BLACK
6
CONTINUOUS
10
26.4583
20
-152.02
11
26.5536
21
-151.925
0
LINE
8
BLACK
6
CONTINUOUS
10
26.5536
20
-151.925
11
26.744
21
-151.83
0
LINE
8
BLACK
6
CONTINUOUS
10
28.6488
20
-151.83
11
28.8393
21
-151.83
0
LINE
8
BLACK
6
CONTINUOUS
10
28.8393
20
-151.83
11
29.0298
21
-151.925
0
LINE
8
BLACK
6
CONTINUOUS
10
29.0298
20
-151.925
11
29.125
21
-152.02
0
LINE
8
BLACK
6
CONTINUOUS
10
29.125
20
-152.02
11
29.2202
21
-152.211
0
LINE
8
BLACK
6
CONTINUOUS
10
29.2202
20
-152.211
11
29.3155
21
-152.592
0
LINE
8
BLACK
6
CONTINUOUS
10
29.3155
20
-152.592
11
29.3155
21
-153.068
0
LINE
8
BLACK
6
CONTINUOUS
10
29.3155
20
-153.068
11
29.2202
21
-153.449
0
LINE
8
BLACK
6
CONTINUOUS
10
29.2202
20
-153.449
11
29.125
21
-153.639
0
LINE
8
BLACK
6
CONTINUOUS
10
29.125
20
-153.639
11
29.0298
21
-153.735
0
LINE
8
BLACK
6
CONTINUOUS
10
29.0298
20
-153.735
11
28.8393
21
-153.83
0
LINE
8
BLACK
6
CONTINUOUS
10
28.8393
20
-153.83
11
28.6488
21
-153.83
0
LINE
8
BLACK
6
CONTINUOUS
10
28.6488
20
-153.83
11
28.4583
21
-153.735
0
LINE
8
BLACK
6
CONTINUOUS
10
28.4583
20
-153.735
11
28.3631
21
-153.639
0
LINE
8
BLACK
6
CONTINUOUS
10
28.3631
20
-153.639
11
28.2679
21
-153.449
0
LINE
8
BLACK
6
CONTINUOUS
10
28.2679
20
-153.449
11
28.1726
21
-153.068
0
LINE
8
BLACK
6
CONTINUOUS
10
28.1726
20
-153.068
11
28.1726
21
-152.592
0
LINE
8
BLACK
6
CONTINUOUS
10
28.1726
20
-152.592
11
28.2679
21
-152.211
0
LINE
8
BLACK
6
CONTINUOUS
10
28.2679
20
-152.211
11
28.3631
21
-152.02
0
LINE
8
BLACK
6
CONTINUOUS
10
28.3631
20
-152.02
11
28.4583
21
-151.925
0
LINE
8
BLACK
6
CONTINUOUS
10
28.4583
20
-151.925
11
28.6488
21
-151.83
0
LINE
8
BLACK
6
CONTINUOUS
10
30.1726
20
-153.83
11
30.1726
21
-152.496
0
LINE
8
BLACK
6
CONTINUOUS
10
30.1726
20
-152.687
11
30.2679
21
-152.592
0
LINE
8
BLACK
6
CONTINUOUS
10
30.2679
20
-152.592
11
30.4583
21
-152.496
0
LINE
8
BLACK
6
CONTINUOUS
10
30.4583
20
-152.496
11
30.744
21
-152.496
0
LINE
8
BLACK
6
CONTINUOUS
10
30.744
20
-152.496
11
30.9345
21
-152.592
0
LINE
8
BLACK
6
CONTINUOUS
10
30.9345
20
-152.592
11
31.0298
21
-152.782
0
LINE
8
BLACK
6
CONTINUOUS
10
31.0298
20
-152.782
11
31.0298
21
-153.83
0
LINE
8
BLACK
6
CONTINUOUS
10
31.0298
20
-152.782
11
31.125
21
-152.592
0
LINE
8
BLACK
6
CONTINUOUS
10
31.125
20
-152.592
11
31.3155
21
-152.496
0
LINE
8
BLACK
6
CONTINUOUS
10
31.3155
20
-152.496
11
31.6012
21
-152.496
0
LINE
8
BLACK
6
CONTINUOUS
10
31.6012
20
-152.496
11
31.7917
21
-152.592
0
LINE
8
BLACK
6
CONTINUOUS
10
31.7917
20
-152.592
11
31.8869
21
-152.782
0
LINE
8
BLACK
6
CONTINUOUS
10
31.8869
20
-152.782
11
31.8869
21
-153.83
0
LINE
8
BLACK
6
CONTINUOUS
10
32.8393
20
-153.83
11
32.8393
21
-152.496
0
LINE
8
BLACK
6
CONTINUOUS
10
32.8393
20
-152.687
11
32.9345
21
-152.592
0
LINE
8
BLACK
6
CONTINUOUS
10
32.9345
20
-152.592
11
33.125
21
-152.496
0
LINE
8
BLACK
6
CONTINUOUS
10
33.125
20
-152.496
11
33.4107
21
-152.496
0
LINE
8
BLACK
6
CONTINUOUS
10
33.4107
20
-152.496
11
33.6012
21
-152.592
0
LINE
8
BLACK
6
CONTINUOUS
10
33.6012
20
-152.592
11
33.6964
21
-152.782
0
LINE
8
BLACK
6
CONTINUOUS
10
33.6964
20
-152.782
11
33.6964
21
-153.83
0
LINE
8
BLACK
6
CONTINUOUS
10
33.6964
20
-152.782
11
33.7917
21
-152.592
0
LINE
8
BLACK
6
CONTINUOUS
10
33.7917
20
-152.592
11
33.9821
21
-152.496
0
LINE
8
BLACK
6
CONTINUOUS
10
33.9821
20
-152.496
11
34.2679
21
-152.496
0
LINE
8
BLACK
6
CONTINUOUS
10
34.2679
20
-152.496
11
34.4583
21
-152.592
0
LINE
8
BLACK
6
CONTINUOUS
10
34.4583
20
-152.592
11
34.5536
21
-152.782
0
LINE
8
BLACK
6
CONTINUOUS
10
34.5536
20
-152.782
11
34.5536
21
-153.83
0
LINE
8
BLACK
6
CONTINUOUS
10
38.4583
20
-151.735
11
36.744
21
-154.306
0
LINE
8
BLACK
6
CONTINUOUS
10
41.0298
20
-151.83
11
41.2202
21
-151.83
0
LINE
8
BLACK
6
CONTINUOUS
10
41.2202
20
-151.83
11
41.4107
21
-151.925
0
LINE
8
BLACK
6
CONTINUOUS
10
41.4107
20
-151.925
11
41.506
21
-152.02
0
LINE
8
BLACK
6
CONTINUOUS
10
41.506
20
-152.02
11
41.6012
21
-152.211
0
LINE
8
BLACK
6
CONTINUOUS
10
41.6012
20
-152.211
11
41.6964
21
-152.592
0
LINE
8
BLACK
6
CONTINUOUS
10
41.6964
20
-152.592
11
41.6964
21
-153.068
0
LINE
8
BLACK
6
CONTINUOUS
10
41.6964
20
-153.068
11
41.6012
21
-153.449
0
LINE
8
BLACK
6
CONTINUOUS
10
41.6012
20
-153.449
11
41.506
21
-153.639
0
LINE
8
BLACK
6
CONTINUOUS
10
41.506
20
-153.639
11
41.4107
21
-153.735
0
LINE
8
BLACK
6
CONTINUOUS
10
41.4107
20
-153.735
11
41.2202
21
-153.83
0
LINE
8
BLACK
6
CONTINUOUS
10
41.2202
20
-153.83
11
41.0298
21
-153.83
0
LINE
8
BLACK
6
CONTINUOUS
10
41.0298
20
-153.83
11
40.8393
21
-153.735
0
LINE
8
BLACK
6
CONTINUOUS
10
40.8393
20
-153.735
11
40.744
21
-153.639
0
LINE
8
BLACK
6
CONTINUOUS
10
40.744
20
-153.639
11
40.6488
21
-153.449
0
LINE
8
BLACK
6
CONTINUOUS
10
40.6488
20
-153.449
11
40.5536
21
-153.068
0
LINE
8
BLACK
6
CONTINUOUS
10
40.5536
20
-153.068
11
40.5536
21
-152.592
0
LINE
8
BLACK
6
CONTINUOUS
10
40.5536
20
-152.592
11
40.6488
21
-152.211
0
LINE
8
BLACK
6
CONTINUOUS
10
40.6488
20
-152.211
11
40.744
21
-152.02
0
LINE
8
BLACK
6
CONTINUOUS
10
40.744
20
-152.02
11
40.8393
21
-151.925
0
LINE
8
BLACK
6
CONTINUOUS
10
40.8393
20
-151.925
11
41.0298
21
-151.83
0
LINE
8
BLACK
6
CONTINUOUS
10
42.5536
20
-153.639
11
42.6488
21
-153.735
0
LINE
8
BLACK
6
CONTINUOUS
10
42.6488
20
-153.735
11
42.5536
21
-153.83
0
LINE
8
BLACK
6
CONTINUOUS
10
42.5536
20
-153.83
11
42.4583
21
-153.735
0
LINE
8
BLACK
6
CONTINUOUS
10
42.4583
20
-153.735
11
42.5536
21
-153.639
0
LINE
8
BLACK
6
CONTINUOUS
10
42.5536
20
-153.639
11
42.5536
21
-153.83
0
LINE
8
BLACK
6
CONTINUOUS
10
44.5536
20
-153.83
11
43.4107
21
-153.83
0
LINE
8
BLACK
6
CONTINUOUS
10
43.9821
20
-153.83
11
43.9821
21
-151.83
0
LINE
8
BLACK
6
CONTINUOUS
10
43.9821
20
-151.83
11
43.7917
21
-152.115
0
LINE
8
BLACK
6
CONTINUOUS
10
43.7917
20
-152.115
11
43.6012
21
-152.306
0
LINE
8
BLACK
6
CONTINUOUS
10
43.6012
20
-152.306
11
43.4107
21
-152.401
0
LINE
8
BLACK
6
CONTINUOUS
10
46.2679
20
-151.83
11
45.8869
21
-151.83
0
LINE
8
BLACK
6
CONTINUOUS
10
45.8869
20
-151.83
11
45.6964
21
-151.925
0
LINE
8
BLACK
6
CONTINUOUS
10
45.6964
20
-151.925
11
45.6012
21
-152.02
0
LINE
8
BLACK
6
CONTINUOUS
10
45.6012
20
-152.02
11
45.4107
21
-152.306
0
LINE
8
BLACK
6
CONTINUOUS
10
45.4107
20
-152.306
11
45.3155
21
-152.687
0
LINE
8
BLACK
6
CONTINUOUS
10
45.3155
20
-152.687
11
45.3155
21
-153.449
0
LINE
8
BLACK
6
CONTINUOUS
10
45.3155
20
-153.449
11
45.4107
21
-153.639
0
LINE
8
BLACK
6
CONTINUOUS
10
45.4107
20
-153.639
11
45.506
21
-153.735
0
LINE
8
BLACK
6
CONTINUOUS
10
45.506
20
-153.735
11
45.6964
21
-153.83
0
LINE
8
BLACK
6
CONTINUOUS
10
45.6964
20
-153.83
11
46.0774
21
-153.83
0
LINE
8
BLACK
6
CONTINUOUS
10
46.0774
20
-153.83
11
46.2679
21
-153.735
0
LINE
8
BLACK
6
CONTINUOUS
10
46.2679
20
-153.735
11
46.3631
21
-153.639
0
LINE
8
BLACK
6
CONTINUOUS
10
46.3631
20
-153.639
11
46.4583
21
-153.449
0
LINE
8
BLACK
6
CONTINUOUS
10
46.4583
20
-153.449
11
46.4583
21
-152.973
0
LINE
8
BLACK
6
CONTINUOUS
10
46.4583
20
-152.973
11
46.3631
21
-152.782
0
LINE
8
BLACK
6
CONTINUOUS
10
46.3631
20
-152.782
11
46.2679
21
-152.687
0
LINE
8
BLACK
6
CONTINUOUS
10
46.2679
20
-152.687
11
46.0774
21
-152.592
0
LINE
8
BLACK
6
CONTINUOUS
10
46.0774
20
-152.592
11
45.6964
21
-152.592
0
LINE
8
BLACK
6
CONTINUOUS
10
45.6964
20
-152.592
11
45.506
21
-152.687
0
LINE
8
BLACK
6
CONTINUOUS
10
45.506
20
-152.687
11
45.4107
21
-152.782
0
LINE
8
BLACK
6
CONTINUOUS
10
45.4107
20
-152.782
11
45.3155
21
-152.973
0
LINE
8
BLACK
6
CONTINUOUS
10
47.4107
20
-153.83
11
47.7917
21
-153.83
0
LINE
8
BLACK
6
CONTINUOUS
10
47.7917
20
-153.83
11
47.9821
21
-153.735
0
LINE
8
BLACK
6
CONTINUOUS
10
47.9821
20
-153.735
11
48.0774
21
-153.639
0
LINE
8
BLACK
6
CONTINUOUS
10
48.0774
20
-153.639
11
48.2679
21
-153.354
0
LINE
8
BLACK
6
CONTINUOUS
10
48.2679
20
-153.354
11
48.3631
21
-152.973
0
LINE
8
BLACK
6
CONTINUOUS
10
48.3631
20
-152.973
11
48.3631
21
-152.211
0
LINE
8
BLACK
6
CONTINUOUS
10
48.3631
20
-152.211
11
48.2679
21
-152.02
0
LINE
8
BLACK
6
CONTINUOUS
10
48.2679
20
-152.02
11
48.1726
21
-151.925
0
LINE
8
BLACK
6
CONTINUOUS
10
48.1726
20
-151.925
11
47.9821
21
-151.83
0
LINE
8
BLACK
6
CONTINUOUS
10
47.9821
20
-151.83
11
47.6012
21
-151.83
0
LINE
8
BLACK
6
CONTINUOUS
10
47.6012
20
-151.83
11
47.4107
21
-151.925
0
LINE
8
BLACK
6
CONTINUOUS
10
47.4107
20
-151.925
11
47.3155
21
-152.02
0
LINE
8
BLACK
6
CONTINUOUS
10
47.3155
20
-152.02
11
47.2202
21
-152.211
0
LINE
8
BLACK
6
CONTINUOUS
10
47.2202
20
-152.211
11
47.2202
21
-152.687
0
LINE
8
BLACK
6
CONTINUOUS
10
47.2202
20
-152.687
11
47.3155
21
-152.877
0
LINE
8
BLACK
6
CONTINUOUS
10
47.3155
20
-152.877
11
47.4107
21
-152.973
0
LINE
8
BLACK
6
CONTINUOUS
10
47.4107
20
-152.973
11
47.6012
21
-153.068
0
LINE
8
BLACK
6
CONTINUOUS
10
47.6012
20
-153.068
11
47.9821
21
-153.068
0
LINE
8
BLACK
6
CONTINUOUS
10
47.9821
20
-153.068
11
48.1726
21
-152.973
0
LINE
8
BLACK
6
CONTINUOUS
10
48.1726
20
-152.973
11
48.2679
21
-152.877
0
LINE
8
BLACK
6
CONTINUOUS
10
48.2679
20
-152.877
11
48.3631
21
-152.687
0
LINE
8
BLACK
6
CONTINUOUS
10
49.0298
20
-151.83
11
50.2679
21
-151.83
0
LINE
8
BLACK
6
CONTINUOUS
10
50.2679
20
-151.83
11
49.6012
21
-152.592
0
LINE
8
BLACK
6
CONTINUOUS
10
49.6012
20
-152.592
11
49.8869
21
-152.592
0
LINE
8
BLACK
6
CONTINUOUS
10
49.8869
20
-152.592
11
50.0774
21
-152.687
0
LINE
8
BLACK
6
CONTINUOUS
10
50.0774
20
-152.687
11
50.1726
21
-152.782
0
LINE
8
BLACK
6
CONTINUOUS
10
50.1726
20
-152.782
11
50.2679
21
-152.973
0
LINE
8
BLACK
6
CONTINUOUS
10
50.2679
20
-152.973
11
50.2679
21
-153.449
0
LINE
8
BLACK
6
CONTINUOUS
10
50.2679
20
-153.449
11
50.1726
21
-153.639
0
LINE
8
BLACK
6
CONTINUOUS
10
50.1726
20
-153.639
11
50.0774
21
-153.735
0
LINE
8
BLACK
6
CONTINUOUS
10
50.0774
20
-153.735
11
49.8869
21
-153.83
0
LINE
8
BLACK
6
CONTINUOUS
10
49.8869
20
-153.83
11
49.3155
21
-153.83
0
LINE
8
BLACK
6
CONTINUOUS
10
49.3155
20
-153.83
11
49.125
21
-153.735
0
LINE
8
BLACK
6
CONTINUOUS
10
49.125
20
-153.735
11
49.0298
21
-153.639
0
LINE
8
BLACK
6
CONTINUOUS
10
51.0298
20
-151.83
11
51.0298
21
-152.211
0
LINE
8
BLACK
6
CONTINUOUS
10
51.7917
20
-151.83
11
51.7917
21
-152.211
0
LINE
8
BLACK
6
CONTINUOUS
10
54.744
20
-154.592
11
54.6488
21
-154.496
0
LINE
8
BLACK
6
CONTINUOUS
10
54.6488
20
-154.496
11
54.4583
21
-154.211
0
LINE
8
BLACK
6
CONTINUOUS
10
54.4583
20
-154.211
11
54.3631
21
-154.02
0
LINE
8
BLACK
6
CONTINUOUS
10
54.3631
20
-154.02
11
54.2679
21
-153.735
0
LINE
8
BLACK
6
CONTINUOUS
10
54.2679
20
-153.735
11
54.1726
21
-153.258
0
LINE
8
BLACK
6
CONTINUOUS
10
54.1726
20
-153.258
11
54.1726
21
-152.877
0
LINE
8
BLACK
6
CONTINUOUS
10
54.1726
20
-152.877
11
54.2679
21
-152.401
0
LINE
8
BLACK
6
CONTINUOUS
10
54.2679
20
-152.401
11
54.3631
21
-152.115
0
LINE
8
BLACK
6
CONTINUOUS
10
54.3631
20
-152.115
11
54.4583
21
-151.925
0
LINE
8
BLACK
6
CONTINUOUS
10
54.4583
20
-151.925
11
54.6488
21
-151.639
0
LINE
8
BLACK
6
CONTINUOUS
10
54.6488
20
-151.639
11
54.744
21
-151.544
0
LINE
8
BLACK
6
CONTINUOUS
10
55.4107
20
-152.02
11
55.506
21
-151.925
0
LINE
8
BLACK
6
CONTINUOUS
10
55.506
20
-151.925
11
55.6964
21
-151.83
0
LINE
8
BLACK
6
CONTINUOUS
10
55.6964
20
-151.83
11
56.1726
21
-151.83
0
LINE
8
BLACK
6
CONTINUOUS
10
56.1726
20
-151.83
11
56.3631
21
-151.925
0
LINE
8
BLACK
6
CONTINUOUS
10
56.3631
20
-151.925
11
56.4583
21
-152.02
0
LINE
8
BLACK
6
CONTINUOUS
10
56.4583
20
-152.02
11
56.5536
21
-152.211
0
LINE
8
BLACK
6
CONTINUOUS
10
56.5536
20
-152.211
11
56.5536
21
-152.401
0
LINE
8
BLACK
6
CONTINUOUS
10
56.5536
20
-152.401
11
56.4583
21
-152.687
0
LINE
8
BLACK
6
CONTINUOUS
10
56.4583
20
-152.687
11
55.3155
21
-153.83
0
LINE
8
BLACK
6
CONTINUOUS
10
55.3155
20
-153.83
11
56.5536
21
-153.83
0
LINE
8
BLACK
6
CONTINUOUS
10
58.9345
20
-153.83
11
58.9345
21
-151.83
0
LINE
8
BLACK
6
CONTINUOUS
10
59.7917
20
-153.83
11
59.7917
21
-152.782
0
LINE
8
BLACK
6
CONTINUOUS
10
59.7917
20
-152.782
11
59.6964
21
-152.592
0
LINE
8
BLACK
6
CONTINUOUS
10
59.6964
20
-152.592
11
59.506
21
-152.496
0
LINE
8
BLACK
6
CONTINUOUS
10
59.506
20
-152.496
11
59.2202
21
-152.496
0
LINE
8
BLACK
6
CONTINUOUS
10
59.2202
20
-152.496
11
59.0298
21
-152.592
0
LINE
8
BLACK
6
CONTINUOUS
10
59.0298
20
-152.592
11
58.9345
21
-152.687
0
LINE
8
BLACK
6
CONTINUOUS
10
61.0298
20
-153.83
11
60.8393
21
-153.735
0
LINE
8
BLACK
6
CONTINUOUS
10
60.8393
20
-153.735
11
60.744
21
-153.639
0
LINE
8
BLACK
6
CONTINUOUS
10
60.744
20
-153.639
11
60.6488
21
-153.449
0
LINE
8
BLACK
6
CONTINUOUS
10
60.6488
20
-153.449
11
60.6488
21
-152.877
0
LINE
8
BLACK
6
CONTINUOUS
10
60.6488
20
-152.877
11
60.744
21
-152.687
0
LINE
8
BLACK
6
CONTINUOUS
10
60.744
20
-152.687
11
60.8393
21
-152.592
0
LINE
8
BLACK
6
CONTINUOUS
10
60.8393
20
-152.592
11
61.0298
21
-152.496
0
LINE
8
BLACK
6
CONTINUOUS
10
61.0298
20
-152.496
11
61.3155
21
-152.496
0
LINE
8
BLACK
6
CONTINUOUS
10
61.3155
20
-152.496
11
61.506
21
-152.592
0
LINE
8
BLACK
6
CONTINUOUS
10
61.506
20
-152.592
11
61.6012
21
-152.687
0
LINE
8
BLACK
6
CONTINUOUS
10
61.6012
20
-152.687
11
61.6964
21
-152.877
0
LINE
8
BLACK
6
CONTINUOUS
10
61.6964
20
-152.877
11
61.6964
21
-153.449
0
LINE
8
BLACK
6
CONTINUOUS
10
61.6964
20
-153.449
11
61.6012
21
-153.639
0
LINE
8
BLACK
6
CONTINUOUS
10
61.6012
20
-153.639
11
61.506
21
-153.735
0
LINE
8
BLACK
6
CONTINUOUS
10
61.506
20
-153.735
11
61.3155
21
-153.83
0
LINE
8
BLACK
6
CONTINUOUS
10
61.3155
20
-153.83
11
61.0298
21
-153.83
0
LINE
8
BLACK
6
CONTINUOUS
10
62.8393
20
-153.83
11
62.6488
21
-153.735
0
LINE
8
BLACK
6
CONTINUOUS
10
62.6488
20
-153.735
11
62.5536
21
-153.544
0
LINE
8
BLACK
6
CONTINUOUS
10
62.5536
20
-153.544
11
62.5536
21
-151.83
0
LINE
8
BLACK
6
CONTINUOUS
10
64.3631
20
-153.735
11
64.1726
21
-153.83
0
LINE
8
BLACK
6
CONTINUOUS
10
64.1726
20
-153.83
11
63.7917
21
-153.83
0
LINE
8
BLACK
6
CONTINUOUS
10
63.7917
20
-153.83
11
63.6012
21
-153.735
0
LINE
8
BLACK
6
CONTINUOUS
10
63.6012
20
-153.735
11
63.506
21
-153.544
0
LINE
8
BLACK
6
CONTINUOUS
10
63.506
20
-153.544
11
63.506
21
-152.782
0
LINE
8
BLACK
6
CONTINUOUS
10
63.506
20
-152.782
11
63.6012
21
-152.592
0
LINE
8
BLACK
6
CONTINUOUS
10
63.6012
20
-152.592
11
63.7917
21
-152.496
0
LINE
8
BLACK
6
CONTINUOUS
10
63.7917
20
-152.496
11
64.1726
21
-152.496
0
LINE
8
BLACK
6
CONTINUOUS
10
64.1726
20
-152.496
11
64.3631
21
-152.592
0
LINE
8
BLACK
6
CONTINUOUS
10
64.3631
20
-152.592
11
64.4583
21
-152.782
0
LINE
8
BLACK
6
CONTINUOUS
10
64.4583
20
-152.782
11
64.4583
21
-152.973
0
LINE
8
BLACK
6
CONTINUOUS
10
64.4583
20
-152.973
11
63.506
21
-153.163
0
LINE
8
BLACK
6
CONTINUOUS
10
65.2202
20
-153.735
11
65.4107
21
-153.83
0
LINE
8
BLACK
6
CONTINUOUS
10
65.4107
20
-153.83
11
65.7917
21
-153.83
0
LINE
8
BLACK
6
CONTINUOUS
10
65.7917
20
-153.83
11
65.9821
21
-153.735
0
LINE
8
BLACK
6
CONTINUOUS
10
65.9821
20
-153.735
11
66.0774
21
-153.544
0
LINE
8
BLACK
6
CONTINUOUS
10
66.0774
20
-153.544
11
66.0774
21
-153.449
0
LINE
8
BLACK
6
CONTINUOUS
10
66.0774
20
-153.449
11
65.9821
21
-153.258
0
LINE
8
BLACK
6
CONTINUOUS
10
65.9821
20
-153.258
11
65.7917
21
-153.163
0
LINE
8
BLACK
6
CONTINUOUS
10
65.7917
20
-153.163
11
65.506
21
-153.163
0
LINE
8
BLACK
6
CONTINUOUS
10
65.506
20
-153.163
11
65.3155
21
-153.068
0
LINE
8
BLACK
6
CONTINUOUS
10
65.3155
20
-153.068
11
65.2202
21
-152.877
0
LINE
8
BLACK
6
CONTINUOUS
10
65.2202
20
-152.877
11
65.2202
21
-152.782
0
LINE
8
BLACK
6
CONTINUOUS
10
65.2202
20
-152.782
11
65.3155
21
-152.592
0
LINE
8
BLACK
6
CONTINUOUS
10
65.3155
20
-152.592
11
65.506
21
-152.496
0
LINE
8
BLACK
6
CONTINUOUS
10
65.506
20
-152.496
11
65.7917
21
-152.496
0
LINE
8
BLACK
6
CONTINUOUS
10
65.7917
20
-152.496
11
65.9821
21
-152.592
0
LINE
8
BLACK
6
CONTINUOUS
10
66.744
20
-154.592
11
66.8393
21
-154.496
0
LINE
8
BLACK
6
CONTINUOUS
10
66.8393
20
-154.496
11
67.0298
21
-154.211
0
LINE
8
BLACK
6
CONTINUOUS
10
67.0298
20
-154.211
11
67.125
21
-154.02
0
LINE
8
BLACK
6
CONTINUOUS
10
67.125
20
-154.02
11
67.2202
21
-153.735
0
LINE
8
BLACK
6
CONTINUOUS
10
67.2202
20
-153.735
11
67.3155
21
-153.258
0
LINE
8
BLACK
6
CONTINUOUS
10
67.3155
20
-153.258
11
67.3155
21
-152.877
0
LINE
8
BLACK
6
CONTINUOUS
10
67.3155
20
-152.877
11
67.2202
21
-152.401
0
LINE
8
BLACK
6
CONTINUOUS
10
67.2202
20
-152.401
11
67.125
21
-152.115
0
LINE
8
BLACK
6
CONTINUOUS
10
67.125
20
-152.115
11
67.0298
21
-151.925
0
LINE
8
BLACK
6
CONTINUOUS
10
67.0298
20
-151.925
11
66.8393
21
-151.639
0
LINE
8
BLACK
6
CONTINUOUS
10
66.8393
20
-151.639
11
66.744
21
-151.544
0
LINE
8
BLACK
6
CONTINUOUS
10
70.3631
20
-154.592
11
70.2679
21
-154.496
0
LINE
8
BLACK
6
CONTINUOUS
10
70.2679
20
-154.496
11
70.0774
21
-154.211
0
LINE
8
BLACK
6
CONTINUOUS
10
70.0774
20
-154.211
11
69.9821
21
-154.02
0
LINE
8
BLACK
6
CONTINUOUS
10
69.9821
20
-154.02
11
69.8869
21
-153.735
0
LINE
8
BLACK
6
CONTINUOUS
10
69.8869
20
-153.735
11
69.7917
21
-153.258
0
LINE
8
BLACK
6
CONTINUOUS
10
69.7917
20
-153.258
11
69.7917
21
-152.877
0
LINE
8
BLACK
6
CONTINUOUS
10
69.7917
20
-152.877
11
69.8869
21
-152.401
0
LINE
8
BLACK
6
CONTINUOUS
10
69.8869
20
-152.401
11
69.9821
21
-152.115
0
LINE
8
BLACK
6
CONTINUOUS
10
69.9821
20
-152.115
11
70.0774
21
-151.925
0
LINE
8
BLACK
6
CONTINUOUS
10
70.0774
20
-151.925
11
70.2679
21
-151.639
0
LINE
8
BLACK
6
CONTINUOUS
10
70.2679
20
-151.639
11
70.3631
21
-151.544
0
LINE
8
BLACK
6
CONTINUOUS
10
71.125
20
-152.496
11
71.125
21
-153.83
0
LINE
8
BLACK
6
CONTINUOUS
10
71.125
20
-152.687
11
71.2202
21
-152.592
0
LINE
8
BLACK
6
CONTINUOUS
10
71.2202
20
-152.592
11
71.4107
21
-152.496
0
LINE
8
BLACK
6
CONTINUOUS
10
71.4107
20
-152.496
11
71.6964
21
-152.496
0
LINE
8
BLACK
6
CONTINUOUS
10
71.6964
20
-152.496
11
71.8869
21
-152.592
0
LINE
8
BLACK
6
CONTINUOUS
10
71.8869
20
-152.592
11
71.9821
21
-152.782
0
LINE
8
BLACK
6
CONTINUOUS
10
71.9821
20
-152.782
11
71.9821
21
-153.83
0
LINE
8
BLACK
6
CONTINUOUS
10
73.2202
20
-153.83
11
73.0298
21
-153.735
0
LINE
8
BLACK
6
CONTINUOUS
10
73.0298
20
-153.735
11
72.9345
21
-153.639
0
LINE
8
BLACK
6
CONTINUOUS
10
72.9345
20
-153.639
11
72.8393
21
-153.449
0
LINE
8
BLACK
6
CONTINUOUS
10
72.8393
20
-153.449
11
72.8393
21
-152.877
0
LINE
8
BLACK
6
CONTINUOUS
10
72.8393
20
-152.877
11
72.9345
21
-152.687
0
LINE
8
BLACK
6
CONTINUOUS
10
72.9345
20
-152.687
11
73.0298
21
-152.592
0
LINE
8
BLACK
6
CONTINUOUS
10
73.0298
20
-152.592
11
73.2202
21
-152.496
0
LINE
8
BLACK
6
CONTINUOUS
10
73.2202
20
-152.496
11
73.506
21
-152.496
0
LINE
8
BLACK
6
CONTINUOUS
10
73.506
20
-152.496
11
73.6964
21
-152.592
0
LINE
8
BLACK
6
CONTINUOUS
10
73.6964
20
-152.592
11
73.7917
21
-152.687
0
LINE
8
BLACK
6
CONTINUOUS
10
73.7917
20
-152.687
11
73.8869
21
-152.877
0
LINE
8
BLACK
6
CONTINUOUS
10
73.8869
20
-152.877
11
73.8869
21
-153.449
0
LINE
8
BLACK
6
CONTINUOUS
10
73.8869
20
-153.449
11
73.7917
21
-153.639
0
LINE
8
BLACK
6
CONTINUOUS
10
73.7917
20
-153.639
11
73.6964
21
-153.735
0
LINE
8
BLACK
6
CONTINUOUS
10
73.6964
20
-153.735
11
73.506
21
-153.83
0
LINE
8
BLACK
6
CONTINUOUS
10
73.506
20
-153.83
11
73.2202
21
-153.83
0
LINE
8
BLACK
6
CONTINUOUS
10
74.4583
20
-152.496
11
75.2202
21
-152.496
0
LINE
8
BLACK
6
CONTINUOUS
10
74.744
20
-151.83
11
74.744
21
-153.544
0
LINE
8
BLACK
6
CONTINUOUS
10
74.744
20
-153.544
11
74.8393
21
-153.735
0
LINE
8
BLACK
6
CONTINUOUS
10
74.8393
20
-153.735
11
75.0298
21
-153.83
0
LINE
8
BLACK
6
CONTINUOUS
10
75.0298
20
-153.83
11
75.2202
21
-153.83
0
LINE
8
BLACK
6
CONTINUOUS
10
77.4107
20
-152.496
11
77.4107
21
-154.496
0
LINE
8
BLACK
6
CONTINUOUS
10
77.4107
20
-152.592
11
77.6012
21
-152.496
0
LINE
8
BLACK
6
CONTINUOUS
10
77.6012
20
-152.496
11
77.9821
21
-152.496
0
LINE
8
BLACK
6
CONTINUOUS
10
77.9821
20
-152.496
11
78.1726
21
-152.592
0
LINE
8
BLACK
6
CONTINUOUS
10
78.1726
20
-152.592
11
78.2679
21
-152.687
0
LINE
8
BLACK
6
CONTINUOUS
10
78.2679
20
-152.687
11
78.3631
21
-152.877
0
LINE
8
BLACK
6
CONTINUOUS
10
78.3631
20
-152.877
11
78.3631
21
-153.449
0
LINE
8
BLACK
6
CONTINUOUS
10
78.3631
20
-153.449
11
78.2679
21
-153.639
0
LINE
8
BLACK
6
CONTINUOUS
10
78.2679
20
-153.639
11
78.1726
21
-153.735
0
LINE
8
BLACK
6
CONTINUOUS
10
78.1726
20
-153.735
11
77.9821
21
-153.83
0
LINE
8
BLACK
6
CONTINUOUS
10
77.9821
20
-153.83
11
77.6012
21
-153.83
0
LINE
8
BLACK
6
CONTINUOUS
10
77.6012
20
-153.83
11
77.4107
21
-153.735
0
LINE
8
BLACK
6
CONTINUOUS
10
79.506
20
-153.83
11
79.3155
21
-153.735
0
LINE
8
BLACK
6
CONTINUOUS
10
79.3155
20
-153.735
11
79.2202
21
-153.544
0
LINE
8
BLACK
6
CONTINUOUS
10
79.2202
20
-153.544
11
79.2202
21
-151.83
0
LINE
8
BLACK
6
CONTINUOUS
10
81.125
20
-153.83
11
81.125
21
-152.782
0
LINE
8
BLACK
6
CONTINUOUS
10
81.125
20
-152.782
11
81.0298
21
-152.592
0
LINE
8
BLACK
6
CONTINUOUS
10
81.0298
20
-152.592
11
80.8393
21
-152.496
0
LINE
8
BLACK
6
CONTINUOUS
10
80.8393
20
-152.496
11
80.4583
21
-152.496
0
LINE
8
BLACK
6
CONTINUOUS
10
80.4583
20
-152.496
11
80.2679
21
-152.592
0
LINE
8
BLACK
6
CONTINUOUS
10
81.125
20
-153.735
11
80.9345
21
-153.83
0
LINE
8
BLACK
6
CONTINUOUS
10
80.9345
20
-153.83
11
80.4583
21
-153.83
0
LINE
8
BLACK
6
CONTINUOUS
10
80.4583
20
-153.83
11
80.2679
21
-153.735
0
LINE
8
BLACK
6
CONTINUOUS
10
80.2679
20
-153.735
11
80.1726
21
-153.544
0
LINE
8
BLACK
6
CONTINUOUS
10
80.1726
20
-153.544
11
80.1726
21
-153.354
0
LINE
8
BLACK
6
CONTINUOUS
10
80.1726
20
-153.354
11
80.2679
21
-153.163
0
LINE
8
BLACK
6
CONTINUOUS
10
80.2679
20
-153.163
11
80.4583
21
-153.068
0
LINE
8
BLACK
6
CONTINUOUS
10
80.4583
20
-153.068
11
80.9345
21
-153.068
0
LINE
8
BLACK
6
CONTINUOUS
10
80.9345
20
-153.068
11
81.125
21
-152.973
0
LINE
8
BLACK
6
CONTINUOUS
10
81.7917
20
-152.496
11
82.5536
21
-152.496
0
LINE
8
BLACK
6
CONTINUOUS
10
82.0774
20
-151.83
11
82.0774
21
-153.544
0
LINE
8
BLACK
6
CONTINUOUS
10
82.0774
20
-153.544
11
82.1726
21
-153.735
0
LINE
8
BLACK
6
CONTINUOUS
10
82.1726
20
-153.735
11
82.3631
21
-153.83
0
LINE
8
BLACK
6
CONTINUOUS
10
82.3631
20
-153.83
11
82.5536
21
-153.83
0
LINE
8
BLACK
6
CONTINUOUS
10
83.9821
20
-153.735
11
83.7917
21
-153.83
0
LINE
8
BLACK
6
CONTINUOUS
10
83.7917
20
-153.83
11
83.4107
21
-153.83
0
LINE
8
BLACK
6
CONTINUOUS
10
83.4107
20
-153.83
11
83.2202
21
-153.735
0
LINE
8
BLACK
6
CONTINUOUS
10
83.2202
20
-153.735
11
83.125
21
-153.544
0
LINE
8
BLACK
6
CONTINUOUS
10
83.125
20
-153.544
11
83.125
21
-152.782
0
LINE
8
BLACK
6
CONTINUOUS
10
83.125
20
-152.782
11
83.2202
21
-152.592
0
LINE
8
BLACK
6
CONTINUOUS
10
83.2202
20
-152.592
11
83.4107
21
-152.496
0
LINE
8
BLACK
6
CONTINUOUS
10
83.4107
20
-152.496
11
83.7917
21
-152.496
0
LINE
8
BLACK
6
CONTINUOUS
10
83.7917
20
-152.496
11
83.9821
21
-152.592
0
LINE
8
BLACK
6
CONTINUOUS
10
83.9821
20
-152.592
11
84.0774
21
-152.782
0
LINE
8
BLACK
6
CONTINUOUS
10
84.0774
20
-152.782
11
84.0774
21
-152.973
0
LINE
8
BLACK
6
CONTINUOUS
10
84.0774
20
-152.973
11
83.125
21
-153.163
0
LINE
8
BLACK
6
CONTINUOUS
10
85.7917
20
-153.83
11
85.7917
21
-151.83
0
LINE
8
BLACK
6
CONTINUOUS
10
85.7917
20
-153.735
11
85.6012
21
-153.83
0
LINE
8
BLACK
6
CONTINUOUS
10
85.6012
20
-153.83
11
85.2202
21
-153.83
0
LINE
8
BLACK
6
CONTINUOUS
10
85.2202
20
-153.83
11
85.0298
21
-153.735
0
LINE
8
BLACK
6
CONTINUOUS
10
85.0298
20
-153.735
11
84.9345
21
-153.639
0
LINE
8
BLACK
6
CONTINUOUS
10
84.9345
20
-153.639
11
84.8393
21
-153.449
0
LINE
8
BLACK
6
CONTINUOUS
10
84.8393
20
-153.449
11
84.8393
21
-152.877
0
LINE
8
BLACK
6
CONTINUOUS
10
84.8393
20
-152.877
11
84.9345
21
-152.687
0
LINE
8
BLACK
6
CONTINUOUS
10
84.9345
20
-152.687
11
85.0298
21
-152.592
0
LINE
8
BLACK
6
CONTINUOUS
10
85.0298
20
-152.592
11
85.2202
21
-152.496
0
LINE
8
BLACK
6
CONTINUOUS
10
85.2202
20
-152.496
11
85.6012
21
-152.496
0
LINE
8
BLACK
6
CONTINUOUS
10
85.6012
20
-152.496
11
85.7917
21
-152.592
0
LINE
8
BLACK
6
CONTINUOUS
10
86.5536
20
-154.592
11
86.6488
21
-154.496
0
LINE
8
BLACK
6
CONTINUOUS
10
86.6488
20
-154.496
11
86.8393
21
-154.211
0
LINE
8
BLACK
6
CONTINUOUS
10
86.8393
20
-154.211
11
86.9345
21
-154.02
0
LINE
8
BLACK
6
CONTINUOUS
10
86.9345
20
-154.02
11
87.0298
21
-153.735
0
LINE
8
BLACK
6
CONTINUOUS
10
87.0298
20
-153.735
11
87.125
21
-153.258
0
LINE
8
BLACK
6
CONTINUOUS
10
87.125
20
-153.258
11
87.125
21
-152.877
0
LINE
8
BLACK
6
CONTINUOUS
10
87.125
20
-152.877
11
87.0298
21
-152.401
0
LINE
8
BLACK
6
CONTINUOUS
10
87.0298
20
-152.401
11
86.9345
21
-152.115
0
LINE
8
BLACK
6
CONTINUOUS
10
86.9345
20
-152.115
11
86.8393
21
-151.925
0
LINE
8
BLACK
6
CONTINUOUS
10
86.8393
20
-151.925
11
86.6488
21
-151.639
0
LINE
8
BLACK
6
CONTINUOUS
10
86.6488
20
-151.639
11
86.5536
21
-151.544
  0
ENDSEC
  0
EOF
