  0
SECTION
  2
HEADER
  9
$ANGBASE
  50
0.0
  9
$ANGDIR
  70
1
  9
$MEASUREMENT
  70
1
  0
ENDSEC
  0
SECTION
  2
TABLES
  0
TABLE
  2
LTYPE
  70
4
  0
LTYPE
  5
40F
  2
CONTINUOUS
  70
0
  3
Solid line
  72
65
  73
0
  40
0.0
  0
LTYPE
  5
410
  2
DASHDOT
 70
0
  3
Dash Dot ____ _ ____ _
 72
65
 73
4
 40
2.0
 49
1.25
 49
-0.25
 49
0.25
 49
-0.25
  0
LTYPE
  5
411
  2
DASHED
 70
0
  3
Dashed __ __ __ __ __
 72
65
 73
2
 40
0.75
 49
0.5
 49
-0.25
  0
LTYPE
  5
43B
  2
DOTTED
 70
0
  3
Dotted .  .  .  .
 72
65
 73
2
 40
0.2
 49
0.0
 49
-0.2
  0
ENDTAB
  0
TABLE
  2
STYLE
  70
4
  0
STYLE
  2
KICAD
  70
0
  40
0
  41
1
  42
1
  50
0
  71
0
  3
isocp.shx
  0
STYLE
  2
KICADB
  70
0
  40
0
  41
1
  42
1
  50
0
  71
0
  3
isocp.shx
  0
STYLE
  2
KICADI
  70
0
  40
0
  41
1
  42
1
  50
15
  71
0
  3
isocp.shx
  0
STYLE
  2
KICADBI
  70
0
  40
0
  41
1
  42
1
  50
15
  71
0
  3
isocp.shx
  0
ENDTAB
  0
TABLE
  2
LAYER
  70
1
  0
LAYER
  2
BLACK
  70
0
  62
7
  6
CONTINUOUS
  0
ENDTAB
  0
ENDSEC
  0
SECTION
  2
ENTITIES
0
LINE
8
BLACK
6
CONTINUOUS
10
23.875
20
-143.25
11
276.95
21
-143.25
0
ARC
8
BLACK
10
276.95
20
-138.475
40
4.775
50
-90
51
-0
0
ARC
8
BLACK
10
23.875
20
-138.475
40
4.775
50
-180
51
-90
0
LINE
8
BLACK
6
CONTINUOUS
10
281.725
20
-138.475
11
281.725
21
-64.4625
0
LINE
8
BLACK
6
CONTINUOUS
10
19.1
20
-138.475
11
19.1
21
-64.4625
0
ARC
8
BLACK
10
23.875
20
-64.4625
40
4.775
50
90
51
180
0
LINE
8
BLACK
6
CONTINUOUS
10
23.875
20
-59.6875
11
276.95
21
-59.6875
0
ARC
8
BLACK
10
276.95
20
-64.4625
40
4.775
50
-0
51
90
0
LINE
8
BLACK
6
CONTINUOUS
10
21.6012
20
-146.43
11
21.6012
21
-144.43
0
LINE
8
BLACK
6
CONTINUOUS
10
21.6012
20
-144.43
11
22.0774
21
-144.43
0
LINE
8
BLACK
6
CONTINUOUS
10
22.0774
20
-144.43
11
22.3631
21
-144.525
0
LINE
8
BLACK
6
CONTINUOUS
10
22.3631
20
-144.525
11
22.5536
21
-144.715
0
LINE
8
BLACK
6
CONTINUOUS
10
22.5536
20
-144.715
11
22.6488
21
-144.906
0
LINE
8
BLACK
6
CONTINUOUS
10
22.6488
20
-144.906
11
22.744
21
-145.287
0
LINE
8
BLACK
6
CONTINUOUS
10
22.744
20
-145.287
11
22.744
21
-145.573
0
LINE
8
BLACK
6
CONTINUOUS
10
22.744
20
-145.573
11
22.6488
21
-145.954
0
LINE
8
BLACK
6
CONTINUOUS
10
22.6488
20
-145.954
11
22.5536
21
-146.144
0
LINE
8
BLACK
6
CONTINUOUS
10
22.5536
20
-146.144
11
22.3631
21
-146.335
0
LINE
8
BLACK
6
CONTINUOUS
10
22.3631
20
-146.335
11
22.0774
21
-146.43
0
LINE
8
BLACK
6
CONTINUOUS
10
22.0774
20
-146.43
11
21.6012
21
-146.43
0
LINE
8
BLACK
6
CONTINUOUS
10
23.6012
20
-146.43
11
23.6012
21
-145.096
0
LINE
8
BLACK
6
CONTINUOUS
10
23.6012
20
-145.477
11
23.6964
21
-145.287
0
LINE
8
BLACK
6
CONTINUOUS
10
23.6964
20
-145.287
11
23.7917
21
-145.192
0
LINE
8
BLACK
6
CONTINUOUS
10
23.7917
20
-145.192
11
23.9821
21
-145.096
0
LINE
8
BLACK
6
CONTINUOUS
10
23.9821
20
-145.096
11
24.1726
21
-145.096
0
LINE
8
BLACK
6
CONTINUOUS
10
24.8393
20
-146.43
11
24.8393
21
-145.096
0
LINE
8
BLACK
6
CONTINUOUS
10
24.8393
20
-144.43
11
24.744
21
-144.525
0
LINE
8
BLACK
6
CONTINUOUS
10
24.744
20
-144.525
11
24.8393
21
-144.62
0
LINE
8
BLACK
6
CONTINUOUS
10
24.8393
20
-144.62
11
24.9345
21
-144.525
0
LINE
8
BLACK
6
CONTINUOUS
10
24.9345
20
-144.525
11
24.8393
21
-144.43
0
LINE
8
BLACK
6
CONTINUOUS
10
24.8393
20
-144.43
11
24.8393
21
-144.62
0
LINE
8
BLACK
6
CONTINUOUS
10
26.0774
20
-146.43
11
25.8869
21
-146.335
0
LINE
8
BLACK
6
CONTINUOUS
10
25.8869
20
-146.335
11
25.7917
21
-146.144
0
LINE
8
BLACK
6
CONTINUOUS
10
25.7917
20
-146.144
11
25.7917
21
-144.43
0
LINE
8
BLACK
6
CONTINUOUS
10
27.125
20
-146.43
11
26.9345
21
-146.335
0
LINE
8
BLACK
6
CONTINUOUS
10
26.9345
20
-146.335
11
26.8393
21
-146.144
0
LINE
8
BLACK
6
CONTINUOUS
10
26.8393
20
-146.144
11
26.8393
21
-144.43
0
LINE
8
BLACK
6
CONTINUOUS
10
29.4107
20
-146.43
11
29.4107
21
-144.43
0
LINE
8
BLACK
6
CONTINUOUS
10
29.4107
20
-144.43
11
30.0774
21
-145.858
0
LINE
8
BLACK
6
CONTINUOUS
10
30.0774
20
-145.858
11
30.744
21
-144.43
0
LINE
8
BLACK
6
CONTINUOUS
10
30.744
20
-144.43
11
30.744
21
-146.43
0
LINE
8
BLACK
6
CONTINUOUS
10
32.5536
20
-146.43
11
32.5536
21
-145.382
0
LINE
8
BLACK
6
CONTINUOUS
10
32.5536
20
-145.382
11
32.4583
21
-145.192
0
LINE
8
BLACK
6
CONTINUOUS
10
32.4583
20
-145.192
11
32.2679
21
-145.096
0
LINE
8
BLACK
6
CONTINUOUS
10
32.2679
20
-145.096
11
31.8869
21
-145.096
0
LINE
8
BLACK
6
CONTINUOUS
10
31.8869
20
-145.096
11
31.6964
21
-145.192
0
LINE
8
BLACK
6
CONTINUOUS
10
32.5536
20
-146.335
11
32.3631
21
-146.43
0
LINE
8
BLACK
6
CONTINUOUS
10
32.3631
20
-146.43
11
31.8869
21
-146.43
0
LINE
8
BLACK
6
CONTINUOUS
10
31.8869
20
-146.43
11
31.6964
21
-146.335
0
LINE
8
BLACK
6
CONTINUOUS
10
31.6964
20
-146.335
11
31.6012
21
-146.144
0
LINE
8
BLACK
6
CONTINUOUS
10
31.6012
20
-146.144
11
31.6012
21
-145.954
0
LINE
8
BLACK
6
CONTINUOUS
10
31.6012
20
-145.954
11
31.6964
21
-145.763
0
LINE
8
BLACK
6
CONTINUOUS
10
31.6964
20
-145.763
11
31.8869
21
-145.668
0
LINE
8
BLACK
6
CONTINUOUS
10
31.8869
20
-145.668
11
32.3631
21
-145.668
0
LINE
8
BLACK
6
CONTINUOUS
10
32.3631
20
-145.668
11
32.5536
21
-145.573
0
LINE
8
BLACK
6
CONTINUOUS
10
33.506
20
-145.096
11
33.506
21
-147.096
0
LINE
8
BLACK
6
CONTINUOUS
10
33.506
20
-145.192
11
33.6964
21
-145.096
0
LINE
8
BLACK
6
CONTINUOUS
10
33.6964
20
-145.096
11
34.0774
21
-145.096
0
LINE
8
BLACK
6
CONTINUOUS
10
34.0774
20
-145.096
11
34.2679
21
-145.192
0
LINE
8
BLACK
6
CONTINUOUS
10
34.2679
20
-145.192
11
34.3631
21
-145.287
0
LINE
8
BLACK
6
CONTINUOUS
10
34.3631
20
-145.287
11
34.4583
21
-145.477
0
LINE
8
BLACK
6
CONTINUOUS
10
34.4583
20
-145.477
11
34.4583
21
-146.049
0
LINE
8
BLACK
6
CONTINUOUS
10
34.4583
20
-146.049
11
34.3631
21
-146.239
0
LINE
8
BLACK
6
CONTINUOUS
10
34.3631
20
-146.239
11
34.2679
21
-146.335
0
LINE
8
BLACK
6
CONTINUOUS
10
34.2679
20
-146.335
11
34.0774
21
-146.43
0
LINE
8
BLACK
6
CONTINUOUS
10
34.0774
20
-146.43
11
33.6964
21
-146.43
0
LINE
8
BLACK
6
CONTINUOUS
10
33.6964
20
-146.43
11
33.506
21
-146.335
0
LINE
8
BLACK
6
CONTINUOUS
10
35.3155
20
-146.239
11
35.4107
21
-146.335
0
LINE
8
BLACK
6
CONTINUOUS
10
35.4107
20
-146.335
11
35.3155
21
-146.43
0
LINE
8
BLACK
6
CONTINUOUS
10
35.3155
20
-146.43
11
35.2202
21
-146.335
0
LINE
8
BLACK
6
CONTINUOUS
10
35.2202
20
-146.335
11
35.3155
21
-146.239
0
LINE
8
BLACK
6
CONTINUOUS
10
35.3155
20
-146.239
11
35.3155
21
-146.43
0
LINE
8
BLACK
6
CONTINUOUS
10
35.3155
20
-145.192
11
35.4107
21
-145.287
0
LINE
8
BLACK
6
CONTINUOUS
10
35.4107
20
-145.287
11
35.3155
21
-145.382
0
LINE
8
BLACK
6
CONTINUOUS
10
35.3155
20
-145.382
11
35.2202
21
-145.287
0
LINE
8
BLACK
6
CONTINUOUS
10
35.2202
20
-145.287
11
35.3155
21
-145.192
0
LINE
8
BLACK
6
CONTINUOUS
10
35.3155
20
-145.192
11
35.3155
21
-145.382
  0
ENDSEC
  0
EOF
