%TF.GenerationSoftware,KiCad,Pcbnew,(6.0.0-0)*%
%TF.CreationDate,2023-01-26T13:02:57+01:00*%
%TF.ProjectId,litl_plate,6c69746c-5f70-46c6-9174-652e6b696361,rev?*%
%TF.SameCoordinates,Original*%
%TF.FileFunction,Legend,Bot*%
%TF.FilePolarity,Positive*%
%FSLAX46Y46*%
G04 Gerber Fmt 4.6, Leading zero omitted, Abs format (unit mm)*
G04 Created by KiCad (PCBNEW (6.0.0-0)) date 2023-01-26 13:02:57*
%MOMM*%
%LPD*%
G01*
G04 APERTURE LIST*
%ADD10C,0.150000*%
%ADD11C,2.200000*%
G04 APERTURE END LIST*
D10*
X262469047Y-123602380D02*
X262469047Y-124316666D01*
X262516666Y-124459523D01*
X262611904Y-124554761D01*
X262754761Y-124602380D01*
X262850000Y-124602380D01*
X261516666Y-124602380D02*
X261992857Y-124602380D01*
X261992857Y-123602380D01*
X260611904Y-124507142D02*
X260659523Y-124554761D01*
X260802380Y-124602380D01*
X260897619Y-124602380D01*
X261040476Y-124554761D01*
X261135714Y-124459523D01*
X261183333Y-124364285D01*
X261230952Y-124173809D01*
X261230952Y-124030952D01*
X261183333Y-123840476D01*
X261135714Y-123745238D01*
X261040476Y-123650000D01*
X260897619Y-123602380D01*
X260802380Y-123602380D01*
X260659523Y-123650000D01*
X260611904Y-123697619D01*
X259897619Y-123602380D02*
X259897619Y-124316666D01*
X259945238Y-124459523D01*
X260040476Y-124554761D01*
X260183333Y-124602380D01*
X260278571Y-124602380D01*
X258945238Y-124602380D02*
X259421428Y-124602380D01*
X259421428Y-123602380D01*
X258040476Y-124507142D02*
X258088095Y-124554761D01*
X258230952Y-124602380D01*
X258326190Y-124602380D01*
X258469047Y-124554761D01*
X258564285Y-124459523D01*
X258611904Y-124364285D01*
X258659523Y-124173809D01*
X258659523Y-124030952D01*
X258611904Y-123840476D01*
X258564285Y-123745238D01*
X258469047Y-123650000D01*
X258326190Y-123602380D01*
X258230952Y-123602380D01*
X258088095Y-123650000D01*
X258040476Y-123697619D01*
X257326190Y-123602380D02*
X257326190Y-124316666D01*
X257373809Y-124459523D01*
X257469047Y-124554761D01*
X257611904Y-124602380D01*
X257707142Y-124602380D01*
X256373809Y-124602380D02*
X256850000Y-124602380D01*
X256850000Y-123602380D01*
X255469047Y-124507142D02*
X255516666Y-124554761D01*
X255659523Y-124602380D01*
X255754761Y-124602380D01*
X255897619Y-124554761D01*
X255992857Y-124459523D01*
X256040476Y-124364285D01*
X256088095Y-124173809D01*
X256088095Y-124030952D01*
X256040476Y-123840476D01*
X255992857Y-123745238D01*
X255897619Y-123650000D01*
X255754761Y-123602380D01*
X255659523Y-123602380D01*
X255516666Y-123650000D01*
X255469047Y-123697619D01*
X254754761Y-123602380D02*
X254754761Y-124316666D01*
X254802380Y-124459523D01*
X254897619Y-124554761D01*
X255040476Y-124602380D01*
X255135714Y-124602380D01*
X253802380Y-124602380D02*
X254278571Y-124602380D01*
X254278571Y-123602380D01*
X252897619Y-124507142D02*
X252945238Y-124554761D01*
X253088095Y-124602380D01*
X253183333Y-124602380D01*
X253326190Y-124554761D01*
X253421428Y-124459523D01*
X253469047Y-124364285D01*
X253516666Y-124173809D01*
X253516666Y-124030952D01*
X253469047Y-123840476D01*
X253421428Y-123745238D01*
X253326190Y-123650000D01*
X253183333Y-123602380D01*
X253088095Y-123602380D01*
X252945238Y-123650000D01*
X252897619Y-123697619D01*
X161401785Y-104649761D02*
X161258928Y-104697380D01*
X161020833Y-104697380D01*
X160925595Y-104649761D01*
X160877976Y-104602142D01*
X160830357Y-104506904D01*
X160830357Y-104411666D01*
X160877976Y-104316428D01*
X160925595Y-104268809D01*
X161020833Y-104221190D01*
X161211309Y-104173571D01*
X161306547Y-104125952D01*
X161354166Y-104078333D01*
X161401785Y-103983095D01*
X161401785Y-103887857D01*
X161354166Y-103792619D01*
X161306547Y-103745000D01*
X161211309Y-103697380D01*
X160973214Y-103697380D01*
X160830357Y-103745000D01*
X160544642Y-103697380D02*
X159973214Y-103697380D01*
X160258928Y-104697380D02*
X160258928Y-103697380D01*
X159639880Y-104697380D02*
X159639880Y-103697380D01*
X159639880Y-104173571D02*
X159068452Y-104173571D01*
X159068452Y-104697380D02*
X159068452Y-103697380D01*
X158116071Y-104697380D02*
X158592261Y-104697380D01*
X158592261Y-103697380D01*
X157782738Y-104697380D02*
X157782738Y-103697380D01*
X157449404Y-104411666D01*
X157116071Y-103697380D01*
X157116071Y-104697380D01*
X155877976Y-104697380D02*
X155877976Y-103697380D01*
X155306547Y-104697380D02*
X155735119Y-104125952D01*
X155306547Y-103697380D02*
X155877976Y-104268809D01*
X154544642Y-104173571D02*
X154401785Y-104221190D01*
X154354166Y-104268809D01*
X154306547Y-104364047D01*
X154306547Y-104506904D01*
X154354166Y-104602142D01*
X154401785Y-104649761D01*
X154497023Y-104697380D01*
X154877976Y-104697380D01*
X154877976Y-103697380D01*
X154544642Y-103697380D01*
X154449404Y-103745000D01*
X154401785Y-103792619D01*
X154354166Y-103887857D01*
X154354166Y-103983095D01*
X154401785Y-104078333D01*
X154449404Y-104125952D01*
X154544642Y-104173571D01*
X154877976Y-104173571D01*
X152973214Y-104697380D02*
X153068452Y-104649761D01*
X153116071Y-104554523D01*
X153116071Y-103697380D01*
X152592261Y-104697380D02*
X152592261Y-104030714D01*
X152592261Y-103697380D02*
X152639880Y-103745000D01*
X152592261Y-103792619D01*
X152544642Y-103745000D01*
X152592261Y-103697380D01*
X152592261Y-103792619D01*
X152258928Y-104030714D02*
X151877976Y-104030714D01*
X152116071Y-103697380D02*
X152116071Y-104554523D01*
X152068452Y-104649761D01*
X151973214Y-104697380D01*
X151877976Y-104697380D01*
X151401785Y-104697380D02*
X151497023Y-104649761D01*
X151544642Y-104554523D01*
X151544642Y-103697380D01*
X150354166Y-104030714D02*
X150116071Y-104697380D01*
X149877976Y-104030714D01*
X149544642Y-103792619D02*
X149497023Y-103745000D01*
X149401785Y-103697380D01*
X149163690Y-103697380D01*
X149068452Y-103745000D01*
X149020833Y-103792619D01*
X148973214Y-103887857D01*
X148973214Y-103983095D01*
X149020833Y-104125952D01*
X149592261Y-104697380D01*
X148973214Y-104697380D01*
X161235119Y-106307380D02*
X161235119Y-105307380D01*
X161235119Y-106259761D02*
X161330357Y-106307380D01*
X161520833Y-106307380D01*
X161616071Y-106259761D01*
X161663690Y-106212142D01*
X161711309Y-106116904D01*
X161711309Y-105831190D01*
X161663690Y-105735952D01*
X161616071Y-105688333D01*
X161520833Y-105640714D01*
X161330357Y-105640714D01*
X161235119Y-105688333D01*
X160377976Y-106259761D02*
X160473214Y-106307380D01*
X160663690Y-106307380D01*
X160758928Y-106259761D01*
X160806547Y-106164523D01*
X160806547Y-105783571D01*
X160758928Y-105688333D01*
X160663690Y-105640714D01*
X160473214Y-105640714D01*
X160377976Y-105688333D01*
X160330357Y-105783571D01*
X160330357Y-105878809D01*
X160806547Y-105974047D01*
X159949404Y-106259761D02*
X159854166Y-106307380D01*
X159663690Y-106307380D01*
X159568452Y-106259761D01*
X159520833Y-106164523D01*
X159520833Y-106116904D01*
X159568452Y-106021666D01*
X159663690Y-105974047D01*
X159806547Y-105974047D01*
X159901785Y-105926428D01*
X159949404Y-105831190D01*
X159949404Y-105783571D01*
X159901785Y-105688333D01*
X159806547Y-105640714D01*
X159663690Y-105640714D01*
X159568452Y-105688333D01*
X159092261Y-106307380D02*
X159092261Y-105640714D01*
X159092261Y-105307380D02*
X159139880Y-105355000D01*
X159092261Y-105402619D01*
X159044642Y-105355000D01*
X159092261Y-105307380D01*
X159092261Y-105402619D01*
X158187500Y-105640714D02*
X158187500Y-106450238D01*
X158235119Y-106545476D01*
X158282738Y-106593095D01*
X158377976Y-106640714D01*
X158520833Y-106640714D01*
X158616071Y-106593095D01*
X158187500Y-106259761D02*
X158282738Y-106307380D01*
X158473214Y-106307380D01*
X158568452Y-106259761D01*
X158616071Y-106212142D01*
X158663690Y-106116904D01*
X158663690Y-105831190D01*
X158616071Y-105735952D01*
X158568452Y-105688333D01*
X158473214Y-105640714D01*
X158282738Y-105640714D01*
X158187500Y-105688333D01*
X157711309Y-105640714D02*
X157711309Y-106307380D01*
X157711309Y-105735952D02*
X157663690Y-105688333D01*
X157568452Y-105640714D01*
X157425595Y-105640714D01*
X157330357Y-105688333D01*
X157282738Y-105783571D01*
X157282738Y-106307380D01*
X156044642Y-106307380D02*
X156044642Y-105307380D01*
X156044642Y-105688333D02*
X155949404Y-105640714D01*
X155758928Y-105640714D01*
X155663690Y-105688333D01*
X155616071Y-105735952D01*
X155568452Y-105831190D01*
X155568452Y-106116904D01*
X155616071Y-106212142D01*
X155663690Y-106259761D01*
X155758928Y-106307380D01*
X155949404Y-106307380D01*
X156044642Y-106259761D01*
X155235119Y-105640714D02*
X154997023Y-106307380D01*
X154758928Y-105640714D02*
X154997023Y-106307380D01*
X155092261Y-106545476D01*
X155139880Y-106593095D01*
X155235119Y-106640714D01*
X153616071Y-106307380D02*
X153616071Y-105640714D01*
X153616071Y-105735952D02*
X153568452Y-105688333D01*
X153473214Y-105640714D01*
X153330357Y-105640714D01*
X153235119Y-105688333D01*
X153187500Y-105783571D01*
X153187500Y-106307380D01*
X153187500Y-105783571D02*
X153139880Y-105688333D01*
X153044642Y-105640714D01*
X152901785Y-105640714D01*
X152806547Y-105688333D01*
X152758928Y-105783571D01*
X152758928Y-106307380D01*
X152139880Y-106307380D02*
X152235119Y-106259761D01*
X152282738Y-106212142D01*
X152330357Y-106116904D01*
X152330357Y-105831190D01*
X152282738Y-105735952D01*
X152235119Y-105688333D01*
X152139880Y-105640714D01*
X151997023Y-105640714D01*
X151901785Y-105688333D01*
X151854166Y-105735952D01*
X151806547Y-105831190D01*
X151806547Y-106116904D01*
X151854166Y-106212142D01*
X151901785Y-106259761D01*
X151997023Y-106307380D01*
X152139880Y-106307380D01*
X151377976Y-106307380D02*
X151377976Y-105307380D01*
X150949404Y-106307380D02*
X150949404Y-105783571D01*
X150997023Y-105688333D01*
X151092261Y-105640714D01*
X151235119Y-105640714D01*
X151330357Y-105688333D01*
X151377976Y-105735952D01*
X150330357Y-106307380D02*
X150425595Y-106259761D01*
X150473214Y-106212142D01*
X150520833Y-106116904D01*
X150520833Y-105831190D01*
X150473214Y-105735952D01*
X150425595Y-105688333D01*
X150330357Y-105640714D01*
X150187500Y-105640714D01*
X150092261Y-105688333D01*
X150044642Y-105735952D01*
X149997023Y-105831190D01*
X149997023Y-106116904D01*
X150044642Y-106212142D01*
X150092261Y-106259761D01*
X150187500Y-106307380D01*
X150330357Y-106307380D01*
X149663690Y-105640714D02*
X149425595Y-106307380D01*
X149187500Y-105640714D02*
X149425595Y-106307380D01*
X149520833Y-106545476D01*
X149568452Y-106593095D01*
X149663690Y-106640714D01*
X148949404Y-105640714D02*
X148568452Y-105640714D01*
X148806547Y-105307380D02*
X148806547Y-106164523D01*
X148758928Y-106259761D01*
X148663690Y-106307380D01*
X148568452Y-106307380D01*
%LPC*%
D11*
X24000007Y-71625000D03*
X277075007Y-145637500D03*
X107979107Y-145637500D03*
X24000007Y-145637500D03*
X189845807Y-145637500D03*
X277075007Y-71625000D03*
M02*
