%FSLAX45Y45*%
G04 Gerber Fmt 4.5, Leading zero omitted, Abs format (unit mm)*
G04 Created by KiCad (PCBNEW (6.0.0-0)) date 2023-01-26 13:03:04*
%MOMM*%
%LPD*%
G01*
G04 APERTURE LIST*
%TA.AperFunction,Profile*%
%ADD10C,0.050000*%
%TD*%
%TA.AperFunction,Profile*%
%ADD11C,0.100000*%
%TD*%
%ADD12C,0.200000*%
%ADD13C,0.220000*%
G04 APERTURE END LIST*
D10*
X26901750Y-8853000D02*
X23453000Y-8853000D01*
X16657000Y-14063000D02*
X20115000Y-14063000D01*
X5655000Y-12157500D02*
X5655050Y-12207000D01*
X6655000Y-10757000D02*
X3206250Y-10757000D01*
X12325000Y-12613000D02*
X12324950Y-12662500D01*
X10639000Y-12613000D02*
G75*
G03*
X10588545Y-12563000I-50455J-458D01*
G01*
X13024000Y-14013000D02*
X13024000Y-12612000D01*
X13024000Y-12612000D02*
G75*
G03*
X12974000Y-12562000I-50000J0D01*
G01*
X12375000Y-12563000D02*
G75*
G03*
X12325000Y-12613000I0J-50000D01*
G01*
X12974000Y-14063000D02*
G75*
G03*
X13024000Y-14013000I0J50000D01*
G01*
X10588545Y-12563000D02*
X9516000Y-12562000D01*
X12324950Y-12662500D02*
X10638900Y-12662500D01*
X9516000Y-14063000D02*
X12974000Y-14063000D01*
X9516000Y-12562000D02*
G75*
G03*
X9466000Y-12612000I0J-50000D01*
G01*
X12974000Y-12562000D02*
X12375000Y-12563000D01*
X10638900Y-12662500D02*
X10639000Y-12613000D01*
X9466000Y-12612000D02*
X9466000Y-14013000D01*
X9466000Y-14013000D02*
G75*
G03*
X9516000Y-14063000I50000J0D01*
G01*
X18992000Y-12613000D02*
X18992100Y-12662500D01*
X20115000Y-14063000D02*
G75*
G03*
X20165000Y-14013000I0J50000D01*
G01*
X16657000Y-12562000D02*
G75*
G03*
X16607000Y-12612000I0J-50000D01*
G01*
X20165000Y-12612000D02*
G75*
G03*
X20115000Y-12562000I-50000J0D01*
G01*
X17306000Y-12613000D02*
G75*
G03*
X17256000Y-12563000I-50000J0D01*
G01*
X20115000Y-12562000D02*
X19042455Y-12563000D01*
X16607000Y-14013000D02*
G75*
G03*
X16657000Y-14063000I50000J0D01*
G01*
X18992100Y-12662500D02*
X17306050Y-12662500D01*
X17306050Y-12662500D02*
X17306000Y-12613000D01*
X20165000Y-14013000D02*
X20165000Y-12612000D01*
X19042455Y-12563000D02*
G75*
G03*
X18992000Y-12613000I0J-50458D01*
G01*
X17256000Y-12563000D02*
X16657000Y-12562000D01*
X16607000Y-12612000D02*
X16607000Y-14013000D01*
X26951750Y-8903000D02*
G75*
G03*
X26901750Y-8853000I-50000J0D01*
G01*
X24450100Y-10303000D02*
X24450000Y-10253500D01*
X23749000Y-10253500D02*
X23749000Y-10302750D01*
X23749000Y-10302750D02*
G75*
G03*
X23799000Y-10352750I50000J0D01*
G01*
X23453000Y-10253000D02*
X23749000Y-10253500D01*
X26837025Y-10303000D02*
X26836975Y-10253500D01*
X26836975Y-10253500D02*
X26901750Y-10253000D01*
X23403000Y-10203000D02*
G75*
G03*
X23453000Y-10253000I50000J0D01*
G01*
X26137000Y-10303000D02*
G75*
G03*
X26187000Y-10353000I50000J0D01*
G01*
X23799000Y-10352750D02*
X24399645Y-10353000D01*
X26787025Y-10353000D02*
G75*
G03*
X26837025Y-10303000I0J50000D01*
G01*
X24450000Y-10253500D02*
X26136950Y-10253500D01*
X24399645Y-10353000D02*
G75*
G03*
X24450100Y-10303000I0J50458D01*
G01*
X26136950Y-10253500D02*
X26137000Y-10303000D01*
X23403000Y-8903000D02*
X23403000Y-10203000D01*
X26951750Y-10203000D02*
X26951750Y-8903000D01*
X23453000Y-8853000D02*
G75*
G03*
X23403000Y-8903000I0J-50000D01*
G01*
X26901750Y-10253000D02*
G75*
G03*
X26951750Y-10203000I0J50000D01*
G01*
X26187000Y-10353000D02*
X26787025Y-10353000D01*
X6355050Y-12207000D02*
X6355000Y-12157500D01*
X6305050Y-12257000D02*
G75*
G03*
X6355050Y-12207000I0J50000D01*
G01*
X3967450Y-12207000D02*
X3967000Y-12157500D01*
X3917450Y-12257000D02*
G75*
G03*
X3967450Y-12207000I0J50000D01*
G01*
X3156250Y-10807000D02*
X3156250Y-12107000D01*
X3156250Y-12107000D02*
G75*
G03*
X3206250Y-12157000I50000J0D01*
G01*
X3206250Y-10757000D02*
G75*
G03*
X3156250Y-10807000I0J-50000D01*
G01*
X3267450Y-12157500D02*
X3267450Y-12207000D01*
X6705000Y-10807000D02*
G75*
G03*
X6655000Y-10757000I-50000J0D01*
G01*
X6355000Y-12157500D02*
X6655000Y-12157000D01*
X3317450Y-12257000D02*
X3917450Y-12257000D01*
X3267450Y-12207000D02*
G75*
G03*
X3317450Y-12257000I50000J0D01*
G01*
X5705050Y-12257000D02*
X6305050Y-12257000D01*
X6705000Y-12107000D02*
X6705000Y-10807000D01*
X3967000Y-12157500D02*
X5655000Y-12157500D01*
X6655000Y-12157000D02*
G75*
G03*
X6705000Y-12107000I0J50000D01*
G01*
X3206250Y-12157000D02*
X3267450Y-12157500D01*
X5655050Y-12207000D02*
G75*
G03*
X5705050Y-12257000I50000J0D01*
G01*
X4989000Y-8853000D02*
X3211500Y-8853000D01*
X5039000Y-8903000D02*
G75*
G03*
X4989000Y-8853000I-50000J0D01*
G01*
X3211500Y-8853000D02*
G75*
G03*
X3161500Y-8903000I0J-50000D01*
G01*
X5039000Y-10203000D02*
X5039000Y-8903000D01*
X3161500Y-8903000D02*
X3161500Y-10203000D01*
X4989000Y-10253000D02*
G75*
G03*
X5039000Y-10203000I0J50000D01*
G01*
X3211500Y-10253000D02*
X4989000Y-10253000D01*
X3161500Y-10203000D02*
G75*
G03*
X3211500Y-10253000I50000J0D01*
G01*
X15516000Y-12713000D02*
G75*
G03*
X15466000Y-12663000I-50000J0D01*
G01*
X13927250Y-14063000D02*
X15466000Y-14063000D01*
X15466000Y-14063000D02*
G75*
G03*
X15516000Y-14013000I0J50000D01*
G01*
X15516000Y-14013000D02*
X15516000Y-12713000D01*
X13877250Y-14013000D02*
G75*
G03*
X13927250Y-14063000I50000J0D01*
G01*
X15466000Y-12663000D02*
X13927250Y-12663000D01*
X13927250Y-12663000D02*
G75*
G03*
X13877250Y-12713000I0J-50000D01*
G01*
X13877250Y-12713000D02*
X13877250Y-14013000D01*
X8798750Y-14063000D02*
G75*
G03*
X8848750Y-14013000I0J50000D01*
G01*
X7260000Y-14063000D02*
X8798750Y-14063000D01*
X8848750Y-14013000D02*
X8848750Y-12713000D01*
X8798750Y-12663000D02*
X7260000Y-12663000D01*
X8848750Y-12713000D02*
G75*
G03*
X8798750Y-12663000I-50000J0D01*
G01*
X7210000Y-14013000D02*
G75*
G03*
X7260000Y-14063000I50000J0D01*
G01*
X7260000Y-12663000D02*
G75*
G03*
X7210000Y-12713000I0J-50000D01*
G01*
X7210000Y-12713000D02*
X7210000Y-14013000D01*
X3162000Y-14013000D02*
G75*
G03*
X3212000Y-14063000I50000J0D01*
G01*
X4562000Y-12713000D02*
G75*
G03*
X4512000Y-12663000I-50000J0D01*
G01*
X4512000Y-14063000D02*
G75*
G03*
X4562000Y-14013000I0J50000D01*
G01*
X4562000Y-14013000D02*
X4562000Y-12713000D01*
X3212000Y-12663000D02*
G75*
G03*
X3162000Y-12713000I0J-50000D01*
G01*
X3162000Y-12713000D02*
X3162000Y-14013000D01*
X3212000Y-14063000D02*
X4512000Y-14063000D01*
X4512000Y-12663000D02*
X3212000Y-12663000D01*
X5305000Y-12713000D02*
X5305000Y-14013000D01*
X6655000Y-14063000D02*
G75*
G03*
X6705000Y-14013000I0J50000D01*
G01*
X5305000Y-14013000D02*
G75*
G03*
X5355000Y-14063000I50000J0D01*
G01*
X5355000Y-12663000D02*
G75*
G03*
X5305000Y-12713000I0J-50000D01*
G01*
X6655000Y-12663000D02*
X5355000Y-12663000D01*
X6705000Y-12713000D02*
G75*
G03*
X6655000Y-12663000I-50000J0D01*
G01*
X5355000Y-14063000D02*
X6655000Y-14063000D01*
X6705000Y-14013000D02*
X6705000Y-12713000D01*
X21309000Y-14063000D02*
X22609000Y-14063000D01*
X22609000Y-14063000D02*
G75*
G03*
X22659000Y-14013000I0J50000D01*
G01*
X22609000Y-12663000D02*
X21309000Y-12663000D01*
X21259000Y-14013000D02*
G75*
G03*
X21309000Y-14063000I50000J0D01*
G01*
X22659000Y-12713000D02*
G75*
G03*
X22609000Y-12663000I-50000J0D01*
G01*
X21309000Y-12663000D02*
G75*
G03*
X21259000Y-12713000I0J-50000D01*
G01*
X21259000Y-12713000D02*
X21259000Y-14013000D01*
X22659000Y-14013000D02*
X22659000Y-12713000D01*
X23453000Y-14063000D02*
X24753000Y-14063000D01*
X24753000Y-12663000D02*
X23453000Y-12663000D01*
X23403000Y-12713000D02*
X23403000Y-14013000D01*
X24803000Y-14013000D02*
X24803000Y-12713000D01*
X24803000Y-12713000D02*
G75*
G03*
X24753000Y-12663000I-50000J0D01*
G01*
X24753000Y-14063000D02*
G75*
G03*
X24803000Y-14013000I0J50000D01*
G01*
X23403000Y-14013000D02*
G75*
G03*
X23453000Y-14063000I50000J0D01*
G01*
X23453000Y-12663000D02*
G75*
G03*
X23403000Y-12713000I0J-50000D01*
G01*
X26945000Y-12713000D02*
G75*
G03*
X26895000Y-12663000I-50000J0D01*
G01*
X25595000Y-12663000D02*
G75*
G03*
X25545000Y-12713000I0J-50000D01*
G01*
X26895000Y-12663000D02*
X25595000Y-12663000D01*
X26945000Y-14013000D02*
X26945000Y-12713000D01*
X26895000Y-14063000D02*
G75*
G03*
X26945000Y-14013000I0J50000D01*
G01*
X25595000Y-14063000D02*
X26895000Y-14063000D01*
X25545000Y-14013000D02*
G75*
G03*
X25595000Y-14063000I50000J0D01*
G01*
X25545000Y-12713000D02*
X25545000Y-14013000D01*
X26469000Y-10807000D02*
G75*
G03*
X26419000Y-10757000I-50000J0D01*
G01*
X25119000Y-10757000D02*
G75*
G03*
X25069000Y-10807000I0J-50000D01*
G01*
X26419000Y-10757000D02*
X25119000Y-10757000D01*
X26469000Y-12107000D02*
X26469000Y-10807000D01*
X26419000Y-12157000D02*
G75*
G03*
X26469000Y-12107000I0J50000D01*
G01*
X25119000Y-12157000D02*
X26419000Y-12157000D01*
X25069000Y-12107000D02*
G75*
G03*
X25119000Y-12157000I50000J0D01*
G01*
X25069000Y-10807000D02*
X25069000Y-12107000D01*
X23850000Y-10807000D02*
G75*
G03*
X23800000Y-10757000I-50000J0D01*
G01*
X22500000Y-10757000D02*
G75*
G03*
X22450000Y-10807000I0J-50000D01*
G01*
X23800000Y-10757000D02*
X22500000Y-10757000D01*
X23850000Y-12107000D02*
X23850000Y-10807000D01*
X23800000Y-12157000D02*
G75*
G03*
X23850000Y-12107000I0J50000D01*
G01*
X22500000Y-12157000D02*
X23800000Y-12157000D01*
X22450000Y-12107000D02*
G75*
G03*
X22500000Y-12157000I50000J0D01*
G01*
X22450000Y-10807000D02*
X22450000Y-12107000D01*
X21945000Y-10807000D02*
G75*
G03*
X21895000Y-10757000I-50000J0D01*
G01*
X20595000Y-10757000D02*
G75*
G03*
X20545000Y-10807000I0J-50000D01*
G01*
X21895000Y-10757000D02*
X20595000Y-10757000D01*
X21945000Y-12107000D02*
X21945000Y-10807000D01*
X21895000Y-12157000D02*
G75*
G03*
X21945000Y-12107000I0J50000D01*
G01*
X20595000Y-12157000D02*
X21895000Y-12157000D01*
X20545000Y-12107000D02*
G75*
G03*
X20595000Y-12157000I50000J0D01*
G01*
X20545000Y-10807000D02*
X20545000Y-12107000D01*
X20040000Y-10807000D02*
G75*
G03*
X19990000Y-10757000I-50000J0D01*
G01*
X18690000Y-10757000D02*
G75*
G03*
X18640000Y-10807000I0J-50000D01*
G01*
X19990000Y-10757000D02*
X18690000Y-10757000D01*
X20040000Y-12107000D02*
X20040000Y-10807000D01*
X19990000Y-12157000D02*
G75*
G03*
X20040000Y-12107000I0J50000D01*
G01*
X18690000Y-12157000D02*
X19990000Y-12157000D01*
X18640000Y-12107000D02*
G75*
G03*
X18690000Y-12157000I50000J0D01*
G01*
X18640000Y-10807000D02*
X18640000Y-12107000D01*
X18135000Y-10807000D02*
G75*
G03*
X18085000Y-10757000I-50000J0D01*
G01*
X16785000Y-10757000D02*
G75*
G03*
X16735000Y-10807000I0J-50000D01*
G01*
X18085000Y-10757000D02*
X16785000Y-10757000D01*
X18135000Y-12107000D02*
X18135000Y-10807000D01*
X18085000Y-12157000D02*
G75*
G03*
X18135000Y-12107000I0J50000D01*
G01*
X16785000Y-12157000D02*
X18085000Y-12157000D01*
X16735000Y-12107000D02*
G75*
G03*
X16785000Y-12157000I50000J0D01*
G01*
X16735000Y-10807000D02*
X16735000Y-12107000D01*
X16230000Y-10807000D02*
G75*
G03*
X16180000Y-10757000I-50000J0D01*
G01*
X14880000Y-10757000D02*
G75*
G03*
X14830000Y-10807000I0J-50000D01*
G01*
X16180000Y-10757000D02*
X14880000Y-10757000D01*
X16230000Y-12107000D02*
X16230000Y-10807000D01*
X16180000Y-12157000D02*
G75*
G03*
X16230000Y-12107000I0J50000D01*
G01*
X14880000Y-12157000D02*
X16180000Y-12157000D01*
X14830000Y-12107000D02*
G75*
G03*
X14880000Y-12157000I50000J0D01*
G01*
X14830000Y-10807000D02*
X14830000Y-12107000D01*
X14325000Y-10807000D02*
G75*
G03*
X14275000Y-10757000I-50000J0D01*
G01*
X12975000Y-10757000D02*
G75*
G03*
X12925000Y-10807000I0J-50000D01*
G01*
X14275000Y-10757000D02*
X12975000Y-10757000D01*
X14325000Y-12107000D02*
X14325000Y-10807000D01*
X14275000Y-12157000D02*
G75*
G03*
X14325000Y-12107000I0J50000D01*
G01*
X12975000Y-12157000D02*
X14275000Y-12157000D01*
X12925000Y-12107000D02*
G75*
G03*
X12975000Y-12157000I50000J0D01*
G01*
X12925000Y-10807000D02*
X12925000Y-12107000D01*
X12420000Y-10807000D02*
G75*
G03*
X12370000Y-10757000I-50000J0D01*
G01*
X11070000Y-10757000D02*
G75*
G03*
X11020000Y-10807000I0J-50000D01*
G01*
X12370000Y-10757000D02*
X11070000Y-10757000D01*
X12420000Y-12107000D02*
X12420000Y-10807000D01*
X12370000Y-12157000D02*
G75*
G03*
X12420000Y-12107000I0J50000D01*
G01*
X11070000Y-12157000D02*
X12370000Y-12157000D01*
X11020000Y-12107000D02*
G75*
G03*
X11070000Y-12157000I50000J0D01*
G01*
X11020000Y-10807000D02*
X11020000Y-12107000D01*
X10515000Y-10807000D02*
G75*
G03*
X10465000Y-10757000I-50000J0D01*
G01*
X9165000Y-10757000D02*
G75*
G03*
X9115000Y-10807000I0J-50000D01*
G01*
X10465000Y-10757000D02*
X9165000Y-10757000D01*
X10515000Y-12107000D02*
X10515000Y-10807000D01*
X10465000Y-12157000D02*
G75*
G03*
X10515000Y-12107000I0J50000D01*
G01*
X9165000Y-12157000D02*
X10465000Y-12157000D01*
X9115000Y-12107000D02*
G75*
G03*
X9165000Y-12157000I50000J0D01*
G01*
X9115000Y-10807000D02*
X9115000Y-12107000D01*
X8610000Y-10807000D02*
G75*
G03*
X8560000Y-10757000I-50000J0D01*
G01*
X7260000Y-10757000D02*
G75*
G03*
X7210000Y-10807000I0J-50000D01*
G01*
X8560000Y-10757000D02*
X7260000Y-10757000D01*
X8610000Y-12107000D02*
X8610000Y-10807000D01*
X8560000Y-12157000D02*
G75*
G03*
X8610000Y-12107000I0J50000D01*
G01*
X7260000Y-12157000D02*
X8560000Y-12157000D01*
X7210000Y-12107000D02*
G75*
G03*
X7260000Y-12157000I50000J0D01*
G01*
X7210000Y-10807000D02*
X7210000Y-12107000D01*
X22898000Y-8903000D02*
G75*
G03*
X22848000Y-8853000I-50000J0D01*
G01*
X21548000Y-8853000D02*
G75*
G03*
X21498000Y-8903000I0J-50000D01*
G01*
X22848000Y-8853000D02*
X21548000Y-8853000D01*
X22898000Y-10203000D02*
X22898000Y-8903000D01*
X22848000Y-10253000D02*
G75*
G03*
X22898000Y-10203000I0J50000D01*
G01*
X21548000Y-10253000D02*
X22848000Y-10253000D01*
X21498000Y-10203000D02*
G75*
G03*
X21548000Y-10253000I50000J0D01*
G01*
X21498000Y-8903000D02*
X21498000Y-10203000D01*
X20993000Y-8903000D02*
G75*
G03*
X20943000Y-8853000I-50000J0D01*
G01*
X19643000Y-8853000D02*
G75*
G03*
X19593000Y-8903000I0J-50000D01*
G01*
X20943000Y-8853000D02*
X19643000Y-8853000D01*
X20993000Y-10203000D02*
X20993000Y-8903000D01*
X20943000Y-10253000D02*
G75*
G03*
X20993000Y-10203000I0J50000D01*
G01*
X19643000Y-10253000D02*
X20943000Y-10253000D01*
X19593000Y-10203000D02*
G75*
G03*
X19643000Y-10253000I50000J0D01*
G01*
X19593000Y-8903000D02*
X19593000Y-10203000D01*
X19088000Y-8903000D02*
G75*
G03*
X19038000Y-8853000I-50000J0D01*
G01*
X17738000Y-8853000D02*
G75*
G03*
X17688000Y-8903000I0J-50000D01*
G01*
X19038000Y-8853000D02*
X17738000Y-8853000D01*
X19088000Y-10203000D02*
X19088000Y-8903000D01*
X19038000Y-10253000D02*
G75*
G03*
X19088000Y-10203000I0J50000D01*
G01*
X17738000Y-10253000D02*
X19038000Y-10253000D01*
X17688000Y-10203000D02*
G75*
G03*
X17738000Y-10253000I50000J0D01*
G01*
X17688000Y-8903000D02*
X17688000Y-10203000D01*
X17183000Y-8903000D02*
G75*
G03*
X17133000Y-8853000I-50000J0D01*
G01*
X15833000Y-8853000D02*
G75*
G03*
X15783000Y-8903000I0J-50000D01*
G01*
X17133000Y-8853000D02*
X15833000Y-8853000D01*
X17183000Y-10203000D02*
X17183000Y-8903000D01*
X17133000Y-10253000D02*
G75*
G03*
X17183000Y-10203000I0J50000D01*
G01*
X15833000Y-10253000D02*
X17133000Y-10253000D01*
X15783000Y-10203000D02*
G75*
G03*
X15833000Y-10253000I50000J0D01*
G01*
X15783000Y-8903000D02*
X15783000Y-10203000D01*
X15277000Y-8903000D02*
G75*
G03*
X15227000Y-8853000I-50000J0D01*
G01*
X13927000Y-8853000D02*
G75*
G03*
X13877000Y-8903000I0J-50000D01*
G01*
X15227000Y-8853000D02*
X13927000Y-8853000D01*
X15277000Y-10203000D02*
X15277000Y-8903000D01*
X15227000Y-10253000D02*
G75*
G03*
X15277000Y-10203000I0J50000D01*
G01*
X13927000Y-10253000D02*
X15227000Y-10253000D01*
X13877000Y-10203000D02*
G75*
G03*
X13927000Y-10253000I50000J0D01*
G01*
X13877000Y-8903000D02*
X13877000Y-10203000D01*
X13373000Y-8903000D02*
G75*
G03*
X13323000Y-8853000I-50000J0D01*
G01*
X12023000Y-8853000D02*
G75*
G03*
X11973000Y-8903000I0J-50000D01*
G01*
X13323000Y-8853000D02*
X12023000Y-8853000D01*
X13373000Y-10203000D02*
X13373000Y-8903000D01*
X13323000Y-10253000D02*
G75*
G03*
X13373000Y-10203000I0J50000D01*
G01*
X12023000Y-10253000D02*
X13323000Y-10253000D01*
X11973000Y-10203000D02*
G75*
G03*
X12023000Y-10253000I50000J0D01*
G01*
X11973000Y-8903000D02*
X11973000Y-10203000D01*
X11468000Y-8903000D02*
G75*
G03*
X11418000Y-8853000I-50000J0D01*
G01*
X10118000Y-8853000D02*
G75*
G03*
X10068000Y-8903000I0J-50000D01*
G01*
X11418000Y-8853000D02*
X10118000Y-8853000D01*
X11468000Y-10203000D02*
X11468000Y-8903000D01*
X11418000Y-10253000D02*
G75*
G03*
X11468000Y-10203000I0J50000D01*
G01*
X10118000Y-10253000D02*
X11418000Y-10253000D01*
X10068000Y-10203000D02*
G75*
G03*
X10118000Y-10253000I50000J0D01*
G01*
X10068000Y-8903000D02*
X10068000Y-10203000D01*
X9563000Y-8903000D02*
G75*
G03*
X9513000Y-8853000I-50000J0D01*
G01*
X8213000Y-8853000D02*
G75*
G03*
X8163000Y-8903000I0J-50000D01*
G01*
X9513000Y-8853000D02*
X8213000Y-8853000D01*
X9563000Y-10203000D02*
X9563000Y-8903000D01*
X9513000Y-10253000D02*
G75*
G03*
X9563000Y-10203000I0J50000D01*
G01*
X8213000Y-10253000D02*
X9513000Y-10253000D01*
X8163000Y-10203000D02*
G75*
G03*
X8213000Y-10253000I50000J0D01*
G01*
X8163000Y-8903000D02*
X8163000Y-10203000D01*
X7657000Y-8903000D02*
G75*
G03*
X7607000Y-8853000I-50000J0D01*
G01*
X6307000Y-8853000D02*
G75*
G03*
X6257000Y-8903000I0J-50000D01*
G01*
X7607000Y-8853000D02*
X6307000Y-8853000D01*
X7657000Y-10203000D02*
X7657000Y-8903000D01*
X7607000Y-10253000D02*
G75*
G03*
X7657000Y-10203000I0J50000D01*
G01*
X6307000Y-10253000D02*
X7607000Y-10253000D01*
X6257000Y-10203000D02*
G75*
G03*
X6307000Y-10253000I50000J0D01*
G01*
X6257000Y-8903000D02*
X6257000Y-10203000D01*
X4800000Y-6997000D02*
G75*
G03*
X4750000Y-6947000I-50000J0D01*
G01*
X3450000Y-6947000D02*
G75*
G03*
X3400000Y-6997000I0J-50000D01*
G01*
X4750000Y-6947000D02*
X3450000Y-6947000D01*
X4800000Y-8297000D02*
X4800000Y-6997000D01*
X4750000Y-8347000D02*
G75*
G03*
X4800000Y-8297000I0J50000D01*
G01*
X3450000Y-8347000D02*
X4750000Y-8347000D01*
X3400000Y-8297000D02*
G75*
G03*
X3450000Y-8347000I50000J0D01*
G01*
X3400000Y-6997000D02*
X3400000Y-8297000D01*
X7181000Y-6997000D02*
G75*
G03*
X7131000Y-6947000I-50000J0D01*
G01*
X5831000Y-6947000D02*
G75*
G03*
X5781000Y-6997000I0J-50000D01*
G01*
X7131000Y-6947000D02*
X5831000Y-6947000D01*
X7181000Y-8297000D02*
X7181000Y-6997000D01*
X7131000Y-8347000D02*
G75*
G03*
X7181000Y-8297000I0J50000D01*
G01*
X5831000Y-8347000D02*
X7131000Y-8347000D01*
X5781000Y-8297000D02*
G75*
G03*
X5831000Y-8347000I50000J0D01*
G01*
X5781000Y-6997000D02*
X5781000Y-8297000D01*
X9086000Y-6997000D02*
G75*
G03*
X9036000Y-6947000I-50000J0D01*
G01*
X7736000Y-6947000D02*
G75*
G03*
X7686000Y-6997000I0J-50000D01*
G01*
X9036000Y-6947000D02*
X7736000Y-6947000D01*
X9086000Y-8297000D02*
X9086000Y-6997000D01*
X9036000Y-8347000D02*
G75*
G03*
X9086000Y-8297000I0J50000D01*
G01*
X7736000Y-8347000D02*
X9036000Y-8347000D01*
X7686000Y-8297000D02*
G75*
G03*
X7736000Y-8347000I50000J0D01*
G01*
X7686000Y-6997000D02*
X7686000Y-8297000D01*
X10991000Y-6997000D02*
G75*
G03*
X10941000Y-6947000I-50000J0D01*
G01*
X9641000Y-6947000D02*
G75*
G03*
X9591000Y-6997000I0J-50000D01*
G01*
X10941000Y-6947000D02*
X9641000Y-6947000D01*
X10991000Y-8297000D02*
X10991000Y-6997000D01*
X10941000Y-8347000D02*
G75*
G03*
X10991000Y-8297000I0J50000D01*
G01*
X9641000Y-8347000D02*
X10941000Y-8347000D01*
X9591000Y-8297000D02*
G75*
G03*
X9641000Y-8347000I50000J0D01*
G01*
X9591000Y-6997000D02*
X9591000Y-8297000D01*
X26708000Y-6997000D02*
G75*
G03*
X26658000Y-6947000I-50000J0D01*
G01*
X25358000Y-6947000D02*
G75*
G03*
X25308000Y-6997000I0J-50000D01*
G01*
X26658000Y-6947000D02*
X25358000Y-6947000D01*
X26708000Y-8297000D02*
X26708000Y-6997000D01*
X26658000Y-8347000D02*
G75*
G03*
X26708000Y-8297000I0J50000D01*
G01*
X25358000Y-8347000D02*
X26658000Y-8347000D01*
X25308000Y-8297000D02*
G75*
G03*
X25358000Y-8347000I50000J0D01*
G01*
X25308000Y-6997000D02*
X25308000Y-8297000D01*
X24327000Y-6997000D02*
G75*
G03*
X24277000Y-6947000I-50000J0D01*
G01*
X22977000Y-6947000D02*
G75*
G03*
X22927000Y-6997000I0J-50000D01*
G01*
X24277000Y-6947000D02*
X22977000Y-6947000D01*
X24327000Y-8297000D02*
X24327000Y-6997000D01*
X24277000Y-8347000D02*
G75*
G03*
X24327000Y-8297000I0J50000D01*
G01*
X22977000Y-8347000D02*
X24277000Y-8347000D01*
X22927000Y-8297000D02*
G75*
G03*
X22977000Y-8347000I50000J0D01*
G01*
X22927000Y-6997000D02*
X22927000Y-8297000D01*
X22422000Y-6997000D02*
G75*
G03*
X22372000Y-6947000I-50000J0D01*
G01*
X21072000Y-6947000D02*
G75*
G03*
X21022000Y-6997000I0J-50000D01*
G01*
X22372000Y-6947000D02*
X21072000Y-6947000D01*
X22422000Y-8297000D02*
X22422000Y-6997000D01*
X22372000Y-8347000D02*
G75*
G03*
X22422000Y-8297000I0J50000D01*
G01*
X21072000Y-8347000D02*
X22372000Y-8347000D01*
X21022000Y-8297000D02*
G75*
G03*
X21072000Y-8347000I50000J0D01*
G01*
X21022000Y-6997000D02*
X21022000Y-8297000D01*
X20517000Y-6997000D02*
G75*
G03*
X20467000Y-6947000I-50000J0D01*
G01*
X19167000Y-6947000D02*
G75*
G03*
X19117000Y-6997000I0J-50000D01*
G01*
X20467000Y-6947000D02*
X19167000Y-6947000D01*
X20517000Y-8297000D02*
X20517000Y-6997000D01*
X20467000Y-8347000D02*
G75*
G03*
X20517000Y-8297000I0J50000D01*
G01*
X19167000Y-8347000D02*
X20467000Y-8347000D01*
X19117000Y-8297000D02*
G75*
G03*
X19167000Y-8347000I50000J0D01*
G01*
X19117000Y-6997000D02*
X19117000Y-8297000D01*
X18611000Y-6997000D02*
G75*
G03*
X18561000Y-6947000I-50000J0D01*
G01*
X17261000Y-6947000D02*
G75*
G03*
X17211000Y-6997000I0J-50000D01*
G01*
X18561000Y-6947000D02*
X17261000Y-6947000D01*
X18611000Y-8297000D02*
X18611000Y-6997000D01*
X18561000Y-8347000D02*
G75*
G03*
X18611000Y-8297000I0J50000D01*
G01*
X17261000Y-8347000D02*
X18561000Y-8347000D01*
X17211000Y-8297000D02*
G75*
G03*
X17261000Y-8347000I50000J0D01*
G01*
X17211000Y-6997000D02*
X17211000Y-8297000D01*
X16706000Y-6997000D02*
G75*
G03*
X16656000Y-6947000I-50000J0D01*
G01*
X15356000Y-6947000D02*
G75*
G03*
X15306000Y-6997000I0J-50000D01*
G01*
X16656000Y-6947000D02*
X15356000Y-6947000D01*
X16706000Y-8297000D02*
X16706000Y-6997000D01*
X16656000Y-8347000D02*
G75*
G03*
X16706000Y-8297000I0J50000D01*
G01*
X15356000Y-8347000D02*
X16656000Y-8347000D01*
X15306000Y-8297000D02*
G75*
G03*
X15356000Y-8347000I50000J0D01*
G01*
X15306000Y-6997000D02*
X15306000Y-8297000D01*
X14801000Y-6997000D02*
G75*
G03*
X14751000Y-6947000I-50000J0D01*
G01*
X13451000Y-6947000D02*
G75*
G03*
X13401000Y-6997000I0J-50000D01*
G01*
X14751000Y-6947000D02*
X13451000Y-6947000D01*
X14801000Y-8297000D02*
X14801000Y-6997000D01*
X14751000Y-8347000D02*
G75*
G03*
X14801000Y-8297000I0J50000D01*
G01*
X13451000Y-8347000D02*
X14751000Y-8347000D01*
X13401000Y-8297000D02*
G75*
G03*
X13451000Y-8347000I50000J0D01*
G01*
X13401000Y-6997000D02*
X13401000Y-8297000D01*
X12896000Y-6997000D02*
G75*
G03*
X12846000Y-6947000I-50000J0D01*
G01*
X11546000Y-6947000D02*
G75*
G03*
X11496000Y-6997000I0J-50000D01*
G01*
X12846000Y-6947000D02*
X11546000Y-6947000D01*
X12896000Y-8297000D02*
X12896000Y-6997000D01*
X12846000Y-8347000D02*
G75*
G03*
X12896000Y-8297000I0J50000D01*
G01*
X11546000Y-8347000D02*
X12846000Y-8347000D01*
X11496000Y-8297000D02*
G75*
G03*
X11546000Y-8347000I50000J0D01*
G01*
X11496000Y-6997000D02*
X11496000Y-8297000D01*
D11*
X27707501Y-6685000D02*
X2400001Y-6685000D01*
X2400001Y-15041250D02*
X27707501Y-15041250D01*
X1922501Y-14563750D02*
G75*
G03*
X2400001Y-15041250I477500J0D01*
G01*
X27707501Y-15041250D02*
G75*
G03*
X28185001Y-14563750I0J477500D01*
G01*
X1922501Y-14563750D02*
X1922501Y-7162500D01*
X28185001Y-14563750D02*
X28185001Y-7162500D01*
X2400001Y-6685000D02*
G75*
G03*
X1922501Y-7162500I0J-477500D01*
G01*
X28185000Y-7162500D02*
G75*
G03*
X27707501Y-6685000I-477500J0D01*
G01*
D12*
D13*
X2290001Y-7052500D02*
X2510001Y-7272500D01*
X2510001Y-7052500D02*
X2290001Y-7272500D01*
X2290001Y-14453750D02*
X2510001Y-14673750D01*
X2510001Y-14453750D02*
X2290001Y-14673750D01*
X10687911Y-14453750D02*
X10907911Y-14673750D01*
X10907911Y-14453750D02*
X10687911Y-14673750D01*
X18874581Y-14453750D02*
X19094581Y-14673750D01*
X19094581Y-14453750D02*
X18874581Y-14673750D01*
X27597501Y-7052500D02*
X27817501Y-7272500D01*
X27817501Y-7052500D02*
X27597501Y-7272500D01*
X27597501Y-14453750D02*
X27817501Y-14673750D01*
X27817501Y-14453750D02*
X27597501Y-14673750D01*
D12*
X2175120Y-15356726D02*
X2175120Y-15156726D01*
X2222739Y-15156726D01*
X2251310Y-15166250D01*
X2270358Y-15185298D01*
X2279882Y-15204345D01*
X2289405Y-15242440D01*
X2289405Y-15271012D01*
X2279882Y-15309107D01*
X2270358Y-15328155D01*
X2251310Y-15347202D01*
X2222739Y-15356726D01*
X2175120Y-15356726D01*
X2375120Y-15356726D02*
X2375120Y-15223393D01*
X2375120Y-15261488D02*
X2384644Y-15242440D01*
X2394167Y-15232917D01*
X2413215Y-15223393D01*
X2432263Y-15223393D01*
X2498929Y-15356726D02*
X2498929Y-15223393D01*
X2498929Y-15156726D02*
X2489405Y-15166250D01*
X2498929Y-15175774D01*
X2508453Y-15166250D01*
X2498929Y-15156726D01*
X2498929Y-15175774D01*
X2622739Y-15356726D02*
X2603691Y-15347202D01*
X2594167Y-15328155D01*
X2594167Y-15156726D01*
X2727501Y-15356726D02*
X2708453Y-15347202D01*
X2698929Y-15328155D01*
X2698929Y-15156726D01*
X2956072Y-15356726D02*
X2956072Y-15156726D01*
X3022739Y-15299583D01*
X3089405Y-15156726D01*
X3089405Y-15356726D01*
X3270358Y-15356726D02*
X3270358Y-15251964D01*
X3260834Y-15232917D01*
X3241786Y-15223393D01*
X3203691Y-15223393D01*
X3184643Y-15232917D01*
X3270358Y-15347202D02*
X3251310Y-15356726D01*
X3203691Y-15356726D01*
X3184643Y-15347202D01*
X3175120Y-15328155D01*
X3175120Y-15309107D01*
X3184643Y-15290059D01*
X3203691Y-15280536D01*
X3251310Y-15280536D01*
X3270358Y-15271012D01*
X3365596Y-15223393D02*
X3365596Y-15423393D01*
X3365596Y-15232917D02*
X3384643Y-15223393D01*
X3422739Y-15223393D01*
X3441786Y-15232917D01*
X3451310Y-15242440D01*
X3460834Y-15261488D01*
X3460834Y-15318631D01*
X3451310Y-15337678D01*
X3441786Y-15347202D01*
X3422739Y-15356726D01*
X3384643Y-15356726D01*
X3365596Y-15347202D01*
X3546548Y-15337678D02*
X3556072Y-15347202D01*
X3546548Y-15356726D01*
X3537024Y-15347202D01*
X3546548Y-15337678D01*
X3546548Y-15356726D01*
X3546548Y-15232917D02*
X3556072Y-15242440D01*
X3546548Y-15251964D01*
X3537024Y-15242440D01*
X3546548Y-15232917D01*
X3546548Y-15251964D01*
X1717501Y-15586250D02*
X1917501Y-15786250D01*
X1917501Y-15586250D02*
X1717501Y-15786250D01*
X2165596Y-15595774D02*
X2175120Y-15586250D01*
X2194167Y-15576726D01*
X2241786Y-15576726D01*
X2260834Y-15586250D01*
X2270358Y-15595774D01*
X2279882Y-15614821D01*
X2279882Y-15633869D01*
X2270358Y-15662440D01*
X2156072Y-15776726D01*
X2279882Y-15776726D01*
X2365596Y-15757678D02*
X2375120Y-15767202D01*
X2365596Y-15776726D01*
X2356072Y-15767202D01*
X2365596Y-15757678D01*
X2365596Y-15776726D01*
X2451310Y-15595774D02*
X2460834Y-15586250D01*
X2479882Y-15576726D01*
X2527501Y-15576726D01*
X2546548Y-15586250D01*
X2556072Y-15595774D01*
X2565596Y-15614821D01*
X2565596Y-15633869D01*
X2556072Y-15662440D01*
X2441786Y-15776726D01*
X2565596Y-15776726D01*
X2689405Y-15576726D02*
X2708453Y-15576726D01*
X2727501Y-15586250D01*
X2737025Y-15595774D01*
X2746548Y-15614821D01*
X2756072Y-15652917D01*
X2756072Y-15700536D01*
X2746548Y-15738631D01*
X2737025Y-15757678D01*
X2727501Y-15767202D01*
X2708453Y-15776726D01*
X2689405Y-15776726D01*
X2670358Y-15767202D01*
X2660834Y-15757678D01*
X2651310Y-15738631D01*
X2641786Y-15700536D01*
X2641786Y-15652917D01*
X2651310Y-15614821D01*
X2660834Y-15595774D01*
X2670358Y-15586250D01*
X2689405Y-15576726D01*
X2879882Y-15576726D02*
X2898929Y-15576726D01*
X2917977Y-15586250D01*
X2927501Y-15595774D01*
X2937024Y-15614821D01*
X2946548Y-15652917D01*
X2946548Y-15700536D01*
X2937024Y-15738631D01*
X2927501Y-15757678D01*
X2917977Y-15767202D01*
X2898929Y-15776726D01*
X2879882Y-15776726D01*
X2860834Y-15767202D01*
X2851310Y-15757678D01*
X2841786Y-15738631D01*
X2832263Y-15700536D01*
X2832263Y-15652917D01*
X2841786Y-15614821D01*
X2851310Y-15595774D01*
X2860834Y-15586250D01*
X2879882Y-15576726D01*
X3032263Y-15776726D02*
X3032263Y-15643393D01*
X3032263Y-15662440D02*
X3041786Y-15652917D01*
X3060834Y-15643393D01*
X3089405Y-15643393D01*
X3108453Y-15652917D01*
X3117977Y-15671964D01*
X3117977Y-15776726D01*
X3117977Y-15671964D02*
X3127501Y-15652917D01*
X3146548Y-15643393D01*
X3175120Y-15643393D01*
X3194167Y-15652917D01*
X3203691Y-15671964D01*
X3203691Y-15776726D01*
X3298929Y-15776726D02*
X3298929Y-15643393D01*
X3298929Y-15662440D02*
X3308453Y-15652917D01*
X3327501Y-15643393D01*
X3356072Y-15643393D01*
X3375120Y-15652917D01*
X3384643Y-15671964D01*
X3384643Y-15776726D01*
X3384643Y-15671964D02*
X3394167Y-15652917D01*
X3413215Y-15643393D01*
X3441786Y-15643393D01*
X3460834Y-15652917D01*
X3470358Y-15671964D01*
X3470358Y-15776726D01*
X3860834Y-15567202D02*
X3689405Y-15824345D01*
X4117977Y-15576726D02*
X4137024Y-15576726D01*
X4156072Y-15586250D01*
X4165596Y-15595774D01*
X4175120Y-15614821D01*
X4184643Y-15652917D01*
X4184643Y-15700536D01*
X4175120Y-15738631D01*
X4165596Y-15757678D01*
X4156072Y-15767202D01*
X4137024Y-15776726D01*
X4117977Y-15776726D01*
X4098929Y-15767202D01*
X4089405Y-15757678D01*
X4079882Y-15738631D01*
X4070358Y-15700536D01*
X4070358Y-15652917D01*
X4079882Y-15614821D01*
X4089405Y-15595774D01*
X4098929Y-15586250D01*
X4117977Y-15576726D01*
X4270358Y-15757678D02*
X4279882Y-15767202D01*
X4270358Y-15776726D01*
X4260834Y-15767202D01*
X4270358Y-15757678D01*
X4270358Y-15776726D01*
X4403691Y-15576726D02*
X4422739Y-15576726D01*
X4441786Y-15586250D01*
X4451310Y-15595774D01*
X4460834Y-15614821D01*
X4470358Y-15652917D01*
X4470358Y-15700536D01*
X4460834Y-15738631D01*
X4451310Y-15757678D01*
X4441786Y-15767202D01*
X4422739Y-15776726D01*
X4403691Y-15776726D01*
X4384644Y-15767202D01*
X4375120Y-15757678D01*
X4365596Y-15738631D01*
X4356072Y-15700536D01*
X4356072Y-15652917D01*
X4365596Y-15614821D01*
X4375120Y-15595774D01*
X4384644Y-15586250D01*
X4403691Y-15576726D01*
X4584644Y-15662440D02*
X4565596Y-15652917D01*
X4556072Y-15643393D01*
X4546548Y-15624345D01*
X4546548Y-15614821D01*
X4556072Y-15595774D01*
X4565596Y-15586250D01*
X4584644Y-15576726D01*
X4622739Y-15576726D01*
X4641786Y-15586250D01*
X4651310Y-15595774D01*
X4660834Y-15614821D01*
X4660834Y-15624345D01*
X4651310Y-15643393D01*
X4641786Y-15652917D01*
X4622739Y-15662440D01*
X4584644Y-15662440D01*
X4565596Y-15671964D01*
X4556072Y-15681488D01*
X4546548Y-15700536D01*
X4546548Y-15738631D01*
X4556072Y-15757678D01*
X4565596Y-15767202D01*
X4584644Y-15776726D01*
X4622739Y-15776726D01*
X4641786Y-15767202D01*
X4651310Y-15757678D01*
X4660834Y-15738631D01*
X4660834Y-15700536D01*
X4651310Y-15681488D01*
X4641786Y-15671964D01*
X4622739Y-15662440D01*
X4832263Y-15576726D02*
X4794167Y-15576726D01*
X4775120Y-15586250D01*
X4765596Y-15595774D01*
X4746548Y-15624345D01*
X4737025Y-15662440D01*
X4737025Y-15738631D01*
X4746548Y-15757678D01*
X4756072Y-15767202D01*
X4775120Y-15776726D01*
X4813215Y-15776726D01*
X4832263Y-15767202D01*
X4841786Y-15757678D01*
X4851310Y-15738631D01*
X4851310Y-15691012D01*
X4841786Y-15671964D01*
X4832263Y-15662440D01*
X4813215Y-15652917D01*
X4775120Y-15652917D01*
X4756072Y-15662440D01*
X4746548Y-15671964D01*
X4737025Y-15691012D01*
X5022739Y-15576726D02*
X4984644Y-15576726D01*
X4965596Y-15586250D01*
X4956072Y-15595774D01*
X4937025Y-15624345D01*
X4927501Y-15662440D01*
X4927501Y-15738631D01*
X4937025Y-15757678D01*
X4946548Y-15767202D01*
X4965596Y-15776726D01*
X5003691Y-15776726D01*
X5022739Y-15767202D01*
X5032263Y-15757678D01*
X5041786Y-15738631D01*
X5041786Y-15691012D01*
X5032263Y-15671964D01*
X5022739Y-15662440D01*
X5003691Y-15652917D01*
X4965596Y-15652917D01*
X4946548Y-15662440D01*
X4937025Y-15671964D01*
X4927501Y-15691012D01*
X5117977Y-15576726D02*
X5117977Y-15614821D01*
X5194167Y-15576726D02*
X5194167Y-15614821D01*
X5489405Y-15852917D02*
X5479882Y-15843393D01*
X5460834Y-15814821D01*
X5451310Y-15795774D01*
X5441786Y-15767202D01*
X5432263Y-15719583D01*
X5432263Y-15681488D01*
X5441786Y-15633869D01*
X5451310Y-15605298D01*
X5460834Y-15586250D01*
X5479882Y-15557678D01*
X5489405Y-15548155D01*
X5651310Y-15576726D02*
X5613215Y-15576726D01*
X5594167Y-15586250D01*
X5584644Y-15595774D01*
X5565596Y-15624345D01*
X5556072Y-15662440D01*
X5556072Y-15738631D01*
X5565596Y-15757678D01*
X5575120Y-15767202D01*
X5594167Y-15776726D01*
X5632263Y-15776726D01*
X5651310Y-15767202D01*
X5660834Y-15757678D01*
X5670358Y-15738631D01*
X5670358Y-15691012D01*
X5660834Y-15671964D01*
X5651310Y-15662440D01*
X5632263Y-15652917D01*
X5594167Y-15652917D01*
X5575120Y-15662440D01*
X5565596Y-15671964D01*
X5556072Y-15691012D01*
X5908453Y-15776726D02*
X5908453Y-15576726D01*
X5994167Y-15776726D02*
X5994167Y-15671964D01*
X5984643Y-15652917D01*
X5965596Y-15643393D01*
X5937024Y-15643393D01*
X5917977Y-15652917D01*
X5908453Y-15662440D01*
X6117977Y-15776726D02*
X6098929Y-15767202D01*
X6089405Y-15757678D01*
X6079882Y-15738631D01*
X6079882Y-15681488D01*
X6089405Y-15662440D01*
X6098929Y-15652917D01*
X6117977Y-15643393D01*
X6146548Y-15643393D01*
X6165596Y-15652917D01*
X6175120Y-15662440D01*
X6184643Y-15681488D01*
X6184643Y-15738631D01*
X6175120Y-15757678D01*
X6165596Y-15767202D01*
X6146548Y-15776726D01*
X6117977Y-15776726D01*
X6298929Y-15776726D02*
X6279882Y-15767202D01*
X6270358Y-15748155D01*
X6270358Y-15576726D01*
X6451310Y-15767202D02*
X6432263Y-15776726D01*
X6394167Y-15776726D01*
X6375120Y-15767202D01*
X6365596Y-15748155D01*
X6365596Y-15671964D01*
X6375120Y-15652917D01*
X6394167Y-15643393D01*
X6432263Y-15643393D01*
X6451310Y-15652917D01*
X6460834Y-15671964D01*
X6460834Y-15691012D01*
X6365596Y-15710059D01*
X6537024Y-15767202D02*
X6556072Y-15776726D01*
X6594167Y-15776726D01*
X6613215Y-15767202D01*
X6622739Y-15748155D01*
X6622739Y-15738631D01*
X6613215Y-15719583D01*
X6594167Y-15710059D01*
X6565596Y-15710059D01*
X6546548Y-15700536D01*
X6537024Y-15681488D01*
X6537024Y-15671964D01*
X6546548Y-15652917D01*
X6565596Y-15643393D01*
X6594167Y-15643393D01*
X6613215Y-15652917D01*
X6689405Y-15852917D02*
X6698929Y-15843393D01*
X6717977Y-15814821D01*
X6727501Y-15795774D01*
X6737024Y-15767202D01*
X6746548Y-15719583D01*
X6746548Y-15681488D01*
X6737024Y-15633869D01*
X6727501Y-15605298D01*
X6717977Y-15586250D01*
X6698929Y-15557678D01*
X6689405Y-15548155D01*
X7051310Y-15852917D02*
X7041786Y-15843393D01*
X7022739Y-15814821D01*
X7013215Y-15795774D01*
X7003691Y-15767202D01*
X6994167Y-15719583D01*
X6994167Y-15681488D01*
X7003691Y-15633869D01*
X7013215Y-15605298D01*
X7022739Y-15586250D01*
X7041786Y-15557678D01*
X7051310Y-15548155D01*
X7127501Y-15643393D02*
X7127501Y-15776726D01*
X7127501Y-15662440D02*
X7137024Y-15652917D01*
X7156072Y-15643393D01*
X7184643Y-15643393D01*
X7203691Y-15652917D01*
X7213215Y-15671964D01*
X7213215Y-15776726D01*
X7337024Y-15776726D02*
X7317977Y-15767202D01*
X7308453Y-15757678D01*
X7298929Y-15738631D01*
X7298929Y-15681488D01*
X7308453Y-15662440D01*
X7317977Y-15652917D01*
X7337024Y-15643393D01*
X7365596Y-15643393D01*
X7384643Y-15652917D01*
X7394167Y-15662440D01*
X7403691Y-15681488D01*
X7403691Y-15738631D01*
X7394167Y-15757678D01*
X7384643Y-15767202D01*
X7365596Y-15776726D01*
X7337024Y-15776726D01*
X7460834Y-15643393D02*
X7537024Y-15643393D01*
X7489405Y-15576726D02*
X7489405Y-15748155D01*
X7498929Y-15767202D01*
X7517977Y-15776726D01*
X7537024Y-15776726D01*
X7756072Y-15643393D02*
X7756072Y-15843393D01*
X7756072Y-15652917D02*
X7775120Y-15643393D01*
X7813215Y-15643393D01*
X7832263Y-15652917D01*
X7841786Y-15662440D01*
X7851310Y-15681488D01*
X7851310Y-15738631D01*
X7841786Y-15757678D01*
X7832263Y-15767202D01*
X7813215Y-15776726D01*
X7775120Y-15776726D01*
X7756072Y-15767202D01*
X7965596Y-15776726D02*
X7946548Y-15767202D01*
X7937024Y-15748155D01*
X7937024Y-15576726D01*
X8127501Y-15776726D02*
X8127501Y-15671964D01*
X8117977Y-15652917D01*
X8098929Y-15643393D01*
X8060834Y-15643393D01*
X8041786Y-15652917D01*
X8127501Y-15767202D02*
X8108453Y-15776726D01*
X8060834Y-15776726D01*
X8041786Y-15767202D01*
X8032263Y-15748155D01*
X8032263Y-15729107D01*
X8041786Y-15710059D01*
X8060834Y-15700536D01*
X8108453Y-15700536D01*
X8127501Y-15691012D01*
X8194167Y-15643393D02*
X8270358Y-15643393D01*
X8222739Y-15576726D02*
X8222739Y-15748155D01*
X8232263Y-15767202D01*
X8251310Y-15776726D01*
X8270358Y-15776726D01*
X8413215Y-15767202D02*
X8394167Y-15776726D01*
X8356072Y-15776726D01*
X8337024Y-15767202D01*
X8327501Y-15748155D01*
X8327501Y-15671964D01*
X8337024Y-15652917D01*
X8356072Y-15643393D01*
X8394167Y-15643393D01*
X8413215Y-15652917D01*
X8422739Y-15671964D01*
X8422739Y-15691012D01*
X8327501Y-15710059D01*
X8594167Y-15776726D02*
X8594167Y-15576726D01*
X8594167Y-15767202D02*
X8575120Y-15776726D01*
X8537025Y-15776726D01*
X8517977Y-15767202D01*
X8508453Y-15757678D01*
X8498929Y-15738631D01*
X8498929Y-15681488D01*
X8508453Y-15662440D01*
X8517977Y-15652917D01*
X8537025Y-15643393D01*
X8575120Y-15643393D01*
X8594167Y-15652917D01*
X8670358Y-15852917D02*
X8679882Y-15843393D01*
X8698929Y-15814821D01*
X8708453Y-15795774D01*
X8717977Y-15767202D01*
X8727501Y-15719583D01*
X8727501Y-15681488D01*
X8717977Y-15633869D01*
X8708453Y-15605298D01*
X8698929Y-15586250D01*
X8679882Y-15557678D01*
X8670358Y-15548155D01*
M02*
