%TF.GenerationSoftware,KiCad,Pcbnew,(6.0.0-0)*%
%TF.CreationDate,2023-01-26T13:02:57+01:00*%
%TF.ProjectId,litl_plate,6c69746c-5f70-46c6-9174-652e6b696361,rev?*%
%TF.SameCoordinates,Original*%
%TF.FileFunction,Profile,NP*%
%FSLAX46Y46*%
G04 Gerber Fmt 4.6, Leading zero omitted, Abs format (unit mm)*
G04 Created by KiCad (PCBNEW (6.0.0-0)) date 2023-01-26 13:02:57*
%MOMM*%
%LPD*%
G01*
G04 APERTURE LIST*
%TA.AperFunction,Profile*%
%ADD10C,0.050000*%
%TD*%
%TA.AperFunction,Profile*%
%ADD11C,0.100000*%
%TD*%
G04 APERTURE END LIST*
D10*
X269017500Y-88530000D02*
X234530000Y-88530000D01*
X166569999Y-140630000D02*
X201150000Y-140630000D01*
X56550000Y-121575000D02*
X56550500Y-122070000D01*
X66550000Y-107570000D02*
X32062500Y-107570000D01*
X123249999Y-126130000D02*
X123249499Y-126625000D01*
X106389999Y-126130000D02*
G75*
G03*
X105885447Y-125630000I-504554J-4575D01*
G01*
X130240001Y-140130000D02*
X130240001Y-126120000D01*
X130240001Y-126120000D02*
G75*
G03*
X129740001Y-125620000I-500001J-1D01*
G01*
X123749999Y-125630000D02*
G75*
G03*
X123249999Y-126130000I1J-500001D01*
G01*
X129740001Y-140630000D02*
G75*
G03*
X130240001Y-140130000I-1J500001D01*
G01*
X105885447Y-125630000D02*
X95160000Y-125620000D01*
X123249499Y-126625000D02*
X106389000Y-126625000D01*
X95160000Y-140630000D02*
X129740001Y-140630000D01*
X95160000Y-125620000D02*
G75*
G03*
X94660000Y-126120000I1J-500001D01*
G01*
X129740001Y-125620000D02*
X123749999Y-125630000D01*
X106389000Y-126625000D02*
X106390000Y-126130000D01*
X94660000Y-126120000D02*
X94660000Y-140130000D01*
X94660000Y-140130000D02*
G75*
G03*
X95160000Y-140630000I500001J1D01*
G01*
X189920000Y-126130000D02*
X189921000Y-126625000D01*
X201150000Y-140630000D02*
G75*
G03*
X201650000Y-140130000I-1J500001D01*
G01*
X166569999Y-125620000D02*
G75*
G03*
X166069999Y-126120000I1J-500001D01*
G01*
X201650000Y-126120000D02*
G75*
G03*
X201150000Y-125620000I-500001J-1D01*
G01*
X173060001Y-126130000D02*
G75*
G03*
X172560001Y-125630000I-500001J-1D01*
G01*
X201150000Y-125620000D02*
X190424553Y-125630000D01*
X166069999Y-140130000D02*
G75*
G03*
X166569999Y-140630000I500001J1D01*
G01*
X189921000Y-126625000D02*
X173060501Y-126625000D01*
X173060501Y-126625000D02*
X173060001Y-126130000D01*
X201650000Y-140130000D02*
X201650000Y-126120000D01*
X190424553Y-125629999D02*
G75*
G03*
X189920000Y-126130000I2J-504576D01*
G01*
X172560001Y-125630000D02*
X166569999Y-125620000D01*
X166069999Y-126120000D02*
X166069999Y-140130000D01*
X269517500Y-89030000D02*
G75*
G03*
X269017500Y-88530000I-500001J-1D01*
G01*
X244501000Y-103030000D02*
X244500000Y-102535000D01*
X237490000Y-102535000D02*
X237490000Y-103027500D01*
X237490000Y-103027500D02*
G75*
G03*
X237990000Y-103527500I500001J1D01*
G01*
X234530000Y-102530000D02*
X237490000Y-102535000D01*
X268370250Y-103030000D02*
X268369750Y-102535000D01*
X268369750Y-102535000D02*
X269017500Y-102530000D01*
X234030000Y-102030000D02*
G75*
G03*
X234530000Y-102530000I500001J1D01*
G01*
X261369999Y-103030000D02*
G75*
G03*
X261869999Y-103530000I500001J1D01*
G01*
X237990000Y-103527500D02*
X243996447Y-103530000D01*
X267870250Y-103530000D02*
G75*
G03*
X268370250Y-103030000I-1J500001D01*
G01*
X244500000Y-102535000D02*
X261369499Y-102535000D01*
X243996447Y-103530001D02*
G75*
G03*
X244501000Y-103030000I-3J504577D01*
G01*
X261369499Y-102535000D02*
X261369999Y-103030000D01*
X234030000Y-89030000D02*
X234030000Y-102030000D01*
X269517500Y-102030000D02*
X269517500Y-89030000D01*
X234530000Y-88530000D02*
G75*
G03*
X234030000Y-89030000I1J-500001D01*
G01*
X269017500Y-102530000D02*
G75*
G03*
X269517500Y-102030000I-1J500001D01*
G01*
X261869999Y-103530000D02*
X267870250Y-103530000D01*
X63550500Y-122070000D02*
X63550000Y-121575000D01*
X63050500Y-122570000D02*
G75*
G03*
X63550500Y-122070000I-1J500001D01*
G01*
X39674500Y-122070000D02*
X39670000Y-121575000D01*
X39174500Y-122570000D02*
G75*
G03*
X39674500Y-122070000I-1J500001D01*
G01*
X31562500Y-108070000D02*
X31562500Y-121070000D01*
X31562500Y-121070000D02*
G75*
G03*
X32062500Y-121570000I500001J1D01*
G01*
X32062500Y-107570000D02*
G75*
G03*
X31562500Y-108070000I1J-500001D01*
G01*
X32674500Y-121575000D02*
X32674500Y-122070000D01*
X67050000Y-108070000D02*
G75*
G03*
X66550000Y-107570000I-500001J-1D01*
G01*
X63550000Y-121575000D02*
X66550000Y-121570000D01*
X33174500Y-122570000D02*
X39174500Y-122570000D01*
X32674500Y-122070000D02*
G75*
G03*
X33174500Y-122570000I500001J1D01*
G01*
X57050500Y-122570000D02*
X63050500Y-122570000D01*
X67050000Y-121070000D02*
X67050000Y-108070000D01*
X39670000Y-121575000D02*
X56550000Y-121575000D01*
X66550000Y-121570000D02*
G75*
G03*
X67050000Y-121070000I-1J500001D01*
G01*
X32062500Y-121570000D02*
X32674500Y-121575000D01*
X56550500Y-122070000D02*
G75*
G03*
X57050500Y-122570000I500000J0D01*
G01*
X49890000Y-88530000D02*
X32115000Y-88530000D01*
X50390000Y-89030000D02*
G75*
G03*
X49890000Y-88530000I-500001J-1D01*
G01*
X32115000Y-88530000D02*
G75*
G03*
X31615000Y-89030000I1J-500001D01*
G01*
X50390000Y-102030000D02*
X50390000Y-89030000D01*
X31615000Y-89030000D02*
X31615000Y-102030000D01*
X49890000Y-102530000D02*
G75*
G03*
X50390000Y-102030000I-1J500001D01*
G01*
X32115000Y-102530000D02*
X49890000Y-102530000D01*
X31615000Y-102030000D02*
G75*
G03*
X32115000Y-102530000I500001J1D01*
G01*
X155160000Y-127130000D02*
G75*
G03*
X154660000Y-126630000I-500001J-1D01*
G01*
X139272500Y-140630000D02*
X154660000Y-140630000D01*
X154660000Y-140630000D02*
G75*
G03*
X155160000Y-140130000I-1J500001D01*
G01*
X155160000Y-140130000D02*
X155160000Y-127130000D01*
X138772500Y-140130000D02*
G75*
G03*
X139272500Y-140630000I500001J1D01*
G01*
X154660000Y-126630000D02*
X139272500Y-126630000D01*
X139272500Y-126630000D02*
G75*
G03*
X138772500Y-127130000I1J-500001D01*
G01*
X138772500Y-127130000D02*
X138772500Y-140130000D01*
X87987500Y-140630000D02*
G75*
G03*
X88487500Y-140130000I-1J500001D01*
G01*
X72600000Y-140630000D02*
X87987500Y-140630000D01*
X88487500Y-140130000D02*
X88487500Y-127130000D01*
X87987500Y-126630000D02*
X72600000Y-126630000D01*
X88487500Y-127130000D02*
G75*
G03*
X87987500Y-126630000I-500001J-1D01*
G01*
X72100000Y-140130000D02*
G75*
G03*
X72600000Y-140630000I500001J1D01*
G01*
X72600000Y-126630000D02*
G75*
G03*
X72100000Y-127130000I0J-500000D01*
G01*
X72100000Y-127130000D02*
X72100000Y-140130000D01*
X31620000Y-140130000D02*
G75*
G03*
X32120000Y-140630000I500001J1D01*
G01*
X45620000Y-127130000D02*
G75*
G03*
X45120000Y-126630000I-500001J-1D01*
G01*
X45120000Y-140630000D02*
G75*
G03*
X45620000Y-140130000I-1J500001D01*
G01*
X45620000Y-140130000D02*
X45620000Y-127130000D01*
X32120000Y-126630000D02*
G75*
G03*
X31620000Y-127130000I1J-500001D01*
G01*
X31620000Y-127130000D02*
X31620000Y-140130000D01*
X32120000Y-140630000D02*
X45120000Y-140630000D01*
X45120000Y-126630000D02*
X32120000Y-126630000D01*
X53050001Y-127129999D02*
X53050001Y-140129999D01*
X66550001Y-140629999D02*
G75*
G03*
X67050001Y-140129999I-1J500001D01*
G01*
X53050001Y-140129999D02*
G75*
G03*
X53550001Y-140629999I500001J1D01*
G01*
X53550001Y-126629999D02*
G75*
G03*
X53050001Y-127129999I1J-500001D01*
G01*
X66550001Y-126629999D02*
X53550001Y-126629999D01*
X67050001Y-127129999D02*
G75*
G03*
X66550001Y-126629999I-500001J-1D01*
G01*
X53550001Y-140629999D02*
X66550001Y-140629999D01*
X67050001Y-140129999D02*
X67050001Y-127129999D01*
X213090001Y-140629999D02*
X226090001Y-140629999D01*
X226090001Y-140629999D02*
G75*
G03*
X226590001Y-140129999I-1J500001D01*
G01*
X226090001Y-126629999D02*
X213090001Y-126629999D01*
X212590001Y-140129999D02*
G75*
G03*
X213090001Y-140629999I500001J1D01*
G01*
X226590001Y-127129999D02*
G75*
G03*
X226090001Y-126629999I-500001J-1D01*
G01*
X213090001Y-126629999D02*
G75*
G03*
X212590001Y-127129999I1J-500001D01*
G01*
X212590001Y-127129999D02*
X212590001Y-140129999D01*
X226590001Y-140129999D02*
X226590001Y-127129999D01*
X234530001Y-140629999D02*
X247530001Y-140629999D01*
X247530001Y-126629999D02*
X234530001Y-126629999D01*
X234030001Y-127129999D02*
X234030001Y-140129999D01*
X248030001Y-140129999D02*
X248030001Y-127129999D01*
X248030001Y-127129999D02*
G75*
G03*
X247530001Y-126629999I-500001J-1D01*
G01*
X247530001Y-140629999D02*
G75*
G03*
X248030001Y-140129999I-1J500001D01*
G01*
X234030001Y-140129999D02*
G75*
G03*
X234530001Y-140629999I500001J1D01*
G01*
X234530001Y-126629999D02*
G75*
G03*
X234030001Y-127129999I1J-500001D01*
G01*
X269450000Y-127130000D02*
G75*
G03*
X268950000Y-126630000I-500001J-1D01*
G01*
X255950000Y-126630000D02*
G75*
G03*
X255450000Y-127130000I1J-500001D01*
G01*
X268950000Y-126630000D02*
X255950000Y-126630000D01*
X269450000Y-140130000D02*
X269450000Y-127130000D01*
X268950000Y-140630000D02*
G75*
G03*
X269450000Y-140130000I-1J500001D01*
G01*
X255950000Y-140630000D02*
X268950000Y-140630000D01*
X255450000Y-140130000D02*
G75*
G03*
X255950000Y-140630000I500001J1D01*
G01*
X255450000Y-127130000D02*
X255450000Y-140130000D01*
X264690000Y-108070000D02*
G75*
G03*
X264190000Y-107570000I-500001J-1D01*
G01*
X251190000Y-107570000D02*
G75*
G03*
X250690000Y-108070000I1J-500001D01*
G01*
X264190000Y-107570000D02*
X251190000Y-107570000D01*
X264690000Y-121070000D02*
X264690000Y-108070000D01*
X264190000Y-121570000D02*
G75*
G03*
X264690000Y-121070000I-1J500001D01*
G01*
X251190000Y-121570000D02*
X264190000Y-121570000D01*
X250690000Y-121070000D02*
G75*
G03*
X251190000Y-121570000I500001J1D01*
G01*
X250690000Y-108070000D02*
X250690000Y-121070000D01*
X238500000Y-108070000D02*
G75*
G03*
X238000000Y-107570000I-500001J-1D01*
G01*
X225000000Y-107570000D02*
G75*
G03*
X224500000Y-108070000I1J-500001D01*
G01*
X238000000Y-107570000D02*
X225000000Y-107570000D01*
X238500000Y-121070000D02*
X238500000Y-108070000D01*
X238000000Y-121570000D02*
G75*
G03*
X238500000Y-121070000I-1J500001D01*
G01*
X225000000Y-121570000D02*
X238000000Y-121570000D01*
X224500000Y-121070000D02*
G75*
G03*
X225000000Y-121570000I500001J1D01*
G01*
X224500000Y-108070000D02*
X224500000Y-121070000D01*
X219450000Y-108070000D02*
G75*
G03*
X218950000Y-107570000I-500001J-1D01*
G01*
X205950000Y-107570000D02*
G75*
G03*
X205450000Y-108070000I1J-500001D01*
G01*
X218950000Y-107570000D02*
X205950000Y-107570000D01*
X219450000Y-121070000D02*
X219450000Y-108070000D01*
X218950000Y-121570000D02*
G75*
G03*
X219450000Y-121070000I-1J500001D01*
G01*
X205950000Y-121570000D02*
X218950000Y-121570000D01*
X205450000Y-121070000D02*
G75*
G03*
X205950000Y-121570000I500001J1D01*
G01*
X205450000Y-108070000D02*
X205450000Y-121070000D01*
X200400000Y-108070000D02*
G75*
G03*
X199900000Y-107570000I-500001J-1D01*
G01*
X186900000Y-107570000D02*
G75*
G03*
X186400000Y-108070000I1J-500001D01*
G01*
X199900000Y-107570000D02*
X186900000Y-107570000D01*
X200400000Y-121070000D02*
X200400000Y-108070000D01*
X199900000Y-121570000D02*
G75*
G03*
X200400000Y-121070000I-1J500001D01*
G01*
X186900000Y-121570000D02*
X199900000Y-121570000D01*
X186400000Y-121070000D02*
G75*
G03*
X186900000Y-121570000I500001J1D01*
G01*
X186400000Y-108070000D02*
X186400000Y-121070000D01*
X181350000Y-108070000D02*
G75*
G03*
X180850000Y-107570000I-500001J-1D01*
G01*
X167850000Y-107570000D02*
G75*
G03*
X167350000Y-108070000I1J-500001D01*
G01*
X180850000Y-107570000D02*
X167850000Y-107570000D01*
X181350000Y-121070000D02*
X181350000Y-108070000D01*
X180850000Y-121570000D02*
G75*
G03*
X181350000Y-121070000I-1J500001D01*
G01*
X167850000Y-121570000D02*
X180850000Y-121570000D01*
X167350000Y-121070000D02*
G75*
G03*
X167850000Y-121570000I500001J1D01*
G01*
X167350000Y-108070000D02*
X167350000Y-121070000D01*
X162300000Y-108070000D02*
G75*
G03*
X161800000Y-107570000I-500001J-1D01*
G01*
X148800000Y-107570000D02*
G75*
G03*
X148300000Y-108070000I1J-500001D01*
G01*
X161800000Y-107570000D02*
X148800000Y-107570000D01*
X162300000Y-121070000D02*
X162300000Y-108070000D01*
X161800000Y-121570000D02*
G75*
G03*
X162300000Y-121070000I-1J500001D01*
G01*
X148800000Y-121570000D02*
X161800000Y-121570000D01*
X148300000Y-121070000D02*
G75*
G03*
X148800000Y-121570000I500001J1D01*
G01*
X148300000Y-108070000D02*
X148300000Y-121070000D01*
X143250000Y-108070000D02*
G75*
G03*
X142750000Y-107570000I-500001J-1D01*
G01*
X129750000Y-107570000D02*
G75*
G03*
X129250000Y-108070000I1J-500001D01*
G01*
X142750000Y-107570000D02*
X129750000Y-107570000D01*
X143250000Y-121070000D02*
X143250000Y-108070000D01*
X142750000Y-121570000D02*
G75*
G03*
X143250000Y-121070000I-1J500001D01*
G01*
X129750000Y-121570000D02*
X142750000Y-121570000D01*
X129250000Y-121070000D02*
G75*
G03*
X129750000Y-121570000I500001J1D01*
G01*
X129250000Y-108070000D02*
X129250000Y-121070000D01*
X124200000Y-108070000D02*
G75*
G03*
X123700000Y-107570000I-500001J-1D01*
G01*
X110700000Y-107570000D02*
G75*
G03*
X110200000Y-108070000I1J-500001D01*
G01*
X123700000Y-107570000D02*
X110700000Y-107570000D01*
X124200000Y-121070000D02*
X124200000Y-108070000D01*
X123700000Y-121570000D02*
G75*
G03*
X124200000Y-121070000I-1J500001D01*
G01*
X110700000Y-121570000D02*
X123700000Y-121570000D01*
X110200000Y-121070000D02*
G75*
G03*
X110700000Y-121570000I500001J1D01*
G01*
X110200000Y-108070000D02*
X110200000Y-121070000D01*
X105150000Y-108070000D02*
G75*
G03*
X104650000Y-107570000I-500001J-1D01*
G01*
X91650000Y-107570000D02*
G75*
G03*
X91150000Y-108070000I1J-500001D01*
G01*
X104650000Y-107570000D02*
X91650000Y-107570000D01*
X105150000Y-121070000D02*
X105150000Y-108070000D01*
X104650000Y-121570000D02*
G75*
G03*
X105150000Y-121070000I-1J500001D01*
G01*
X91650000Y-121570000D02*
X104650000Y-121570000D01*
X91150000Y-121070000D02*
G75*
G03*
X91650000Y-121570000I500001J1D01*
G01*
X91150000Y-108070000D02*
X91150000Y-121070000D01*
X86100000Y-108070000D02*
G75*
G03*
X85600000Y-107570000I-500001J-1D01*
G01*
X72600000Y-107570000D02*
G75*
G03*
X72100000Y-108070000I1J-500001D01*
G01*
X85600000Y-107570000D02*
X72600000Y-107570000D01*
X86100000Y-121070000D02*
X86100000Y-108070000D01*
X85600000Y-121570000D02*
G75*
G03*
X86100000Y-121070000I-1J500001D01*
G01*
X72600000Y-121570000D02*
X85600000Y-121570000D01*
X72100000Y-121070000D02*
G75*
G03*
X72600000Y-121570000I500001J1D01*
G01*
X72100000Y-108070000D02*
X72100000Y-121070000D01*
X228980000Y-89030000D02*
G75*
G03*
X228480000Y-88530000I-500001J-1D01*
G01*
X215480000Y-88530000D02*
G75*
G03*
X214980000Y-89030000I1J-500001D01*
G01*
X228480000Y-88530000D02*
X215480000Y-88530000D01*
X228980000Y-102030000D02*
X228980000Y-89030000D01*
X228480000Y-102530000D02*
G75*
G03*
X228980000Y-102030000I-1J500001D01*
G01*
X215480000Y-102530000D02*
X228480000Y-102530000D01*
X214980000Y-102030000D02*
G75*
G03*
X215480000Y-102530000I500001J1D01*
G01*
X214980000Y-89030000D02*
X214980000Y-102030000D01*
X209930000Y-89030000D02*
G75*
G03*
X209430000Y-88530000I-500001J-1D01*
G01*
X196430000Y-88530000D02*
G75*
G03*
X195930000Y-89030000I1J-500001D01*
G01*
X209430000Y-88530000D02*
X196430000Y-88530000D01*
X209930000Y-102030000D02*
X209930000Y-89030000D01*
X209430000Y-102530000D02*
G75*
G03*
X209930000Y-102030000I-1J500001D01*
G01*
X196430000Y-102530000D02*
X209430000Y-102530000D01*
X195930000Y-102030000D02*
G75*
G03*
X196430000Y-102530000I500001J1D01*
G01*
X195930000Y-89030000D02*
X195930000Y-102030000D01*
X190880000Y-89030000D02*
G75*
G03*
X190380000Y-88530000I-500001J-1D01*
G01*
X177380000Y-88530000D02*
G75*
G03*
X176880000Y-89030000I1J-500001D01*
G01*
X190380000Y-88530000D02*
X177380000Y-88530000D01*
X190880000Y-102030000D02*
X190880000Y-89030000D01*
X190380000Y-102530000D02*
G75*
G03*
X190880000Y-102030000I-1J500001D01*
G01*
X177380000Y-102530000D02*
X190380000Y-102530000D01*
X176880000Y-102030000D02*
G75*
G03*
X177380000Y-102530000I500001J1D01*
G01*
X176880000Y-89030000D02*
X176880000Y-102030000D01*
X171830000Y-89030000D02*
G75*
G03*
X171330000Y-88530000I-500001J-1D01*
G01*
X158330000Y-88530000D02*
G75*
G03*
X157830000Y-89030000I1J-500001D01*
G01*
X171330000Y-88530000D02*
X158330000Y-88530000D01*
X171830000Y-102030000D02*
X171830000Y-89030000D01*
X171330000Y-102530000D02*
G75*
G03*
X171830000Y-102030000I-1J500001D01*
G01*
X158330000Y-102530000D02*
X171330000Y-102530000D01*
X157830000Y-102030000D02*
G75*
G03*
X158330000Y-102530000I500001J1D01*
G01*
X157830000Y-89030000D02*
X157830000Y-102030000D01*
X152770000Y-89030000D02*
G75*
G03*
X152270000Y-88530000I-500001J-1D01*
G01*
X139270000Y-88530000D02*
G75*
G03*
X138770000Y-89030000I1J-500001D01*
G01*
X152270000Y-88530000D02*
X139270000Y-88530000D01*
X152770000Y-102030000D02*
X152770000Y-89030000D01*
X152270000Y-102530000D02*
G75*
G03*
X152770000Y-102030000I-1J500001D01*
G01*
X139270000Y-102530000D02*
X152270000Y-102530000D01*
X138770000Y-102030000D02*
G75*
G03*
X139270000Y-102530000I500001J1D01*
G01*
X138770000Y-89030000D02*
X138770000Y-102030000D01*
X133730000Y-89030000D02*
G75*
G03*
X133230000Y-88530000I-500001J-1D01*
G01*
X120230000Y-88530000D02*
G75*
G03*
X119730000Y-89030000I1J-500001D01*
G01*
X133230000Y-88530000D02*
X120230000Y-88530000D01*
X133730000Y-102030000D02*
X133730000Y-89030000D01*
X133230000Y-102530000D02*
G75*
G03*
X133730000Y-102030000I-1J500001D01*
G01*
X120230000Y-102530000D02*
X133230000Y-102530000D01*
X119730000Y-102030000D02*
G75*
G03*
X120230000Y-102530000I500001J1D01*
G01*
X119730000Y-89030000D02*
X119730000Y-102030000D01*
X114680000Y-89030000D02*
G75*
G03*
X114180000Y-88530000I-500001J-1D01*
G01*
X101180000Y-88530000D02*
G75*
G03*
X100680000Y-89030000I1J-500001D01*
G01*
X114180000Y-88530000D02*
X101180000Y-88530000D01*
X114680000Y-102030000D02*
X114680000Y-89030000D01*
X114180000Y-102530000D02*
G75*
G03*
X114680000Y-102030000I-1J500001D01*
G01*
X101180000Y-102530000D02*
X114180000Y-102530000D01*
X100680000Y-102030000D02*
G75*
G03*
X101180000Y-102530000I500001J1D01*
G01*
X100680000Y-89030000D02*
X100680000Y-102030000D01*
X95630000Y-89030000D02*
G75*
G03*
X95130000Y-88530000I-500001J-1D01*
G01*
X82130000Y-88530000D02*
G75*
G03*
X81630000Y-89030000I1J-500001D01*
G01*
X95130000Y-88530000D02*
X82130000Y-88530000D01*
X95630000Y-102030000D02*
X95630000Y-89030000D01*
X95130000Y-102530000D02*
G75*
G03*
X95630000Y-102030000I-1J500001D01*
G01*
X82130000Y-102530000D02*
X95130000Y-102530000D01*
X81630000Y-102030000D02*
G75*
G03*
X82130000Y-102530000I500001J1D01*
G01*
X81630000Y-89030000D02*
X81630000Y-102030000D01*
X76570000Y-89030000D02*
G75*
G03*
X76070000Y-88530000I-500001J-1D01*
G01*
X63070000Y-88530000D02*
G75*
G03*
X62570000Y-89030000I1J-500001D01*
G01*
X76070000Y-88530000D02*
X63070000Y-88530000D01*
X76570000Y-102030000D02*
X76570000Y-89030000D01*
X76070000Y-102530000D02*
G75*
G03*
X76570000Y-102030000I-1J500001D01*
G01*
X63070000Y-102530000D02*
X76070000Y-102530000D01*
X62570000Y-102030000D02*
G75*
G03*
X63070000Y-102530000I500001J1D01*
G01*
X62570000Y-89030000D02*
X62570000Y-102030000D01*
X48000000Y-69970000D02*
G75*
G03*
X47500000Y-69470000I-500001J-1D01*
G01*
X34500000Y-69470000D02*
G75*
G03*
X34000000Y-69970000I1J-500001D01*
G01*
X47500000Y-69470000D02*
X34500000Y-69470000D01*
X48000000Y-82970000D02*
X48000000Y-69970000D01*
X47500000Y-83470000D02*
G75*
G03*
X48000000Y-82970000I-1J500001D01*
G01*
X34500000Y-83470000D02*
X47500000Y-83470000D01*
X34000000Y-82970000D02*
G75*
G03*
X34500000Y-83470000I500001J1D01*
G01*
X34000000Y-69970000D02*
X34000000Y-82970000D01*
X71810000Y-69970000D02*
G75*
G03*
X71310000Y-69470000I-500001J-1D01*
G01*
X58310000Y-69470000D02*
G75*
G03*
X57810000Y-69970000I1J-500001D01*
G01*
X71310000Y-69470000D02*
X58310000Y-69470000D01*
X71810000Y-82970000D02*
X71810000Y-69970000D01*
X71310000Y-83470000D02*
G75*
G03*
X71810000Y-82970000I-1J500001D01*
G01*
X58310000Y-83470000D02*
X71310000Y-83470000D01*
X57810000Y-82970000D02*
G75*
G03*
X58310000Y-83470000I500001J1D01*
G01*
X57810000Y-69970000D02*
X57810000Y-82970000D01*
X90860000Y-69970000D02*
G75*
G03*
X90360000Y-69470000I-500001J-1D01*
G01*
X77360000Y-69470000D02*
G75*
G03*
X76860000Y-69970000I1J-500001D01*
G01*
X90360000Y-69470000D02*
X77360000Y-69470000D01*
X90860000Y-82970000D02*
X90860000Y-69970000D01*
X90360000Y-83470000D02*
G75*
G03*
X90860000Y-82970000I-1J500001D01*
G01*
X77360000Y-83470000D02*
X90360000Y-83470000D01*
X76860000Y-82970000D02*
G75*
G03*
X77360000Y-83470000I500001J1D01*
G01*
X76860000Y-69970000D02*
X76860000Y-82970000D01*
X109910000Y-69970000D02*
G75*
G03*
X109410000Y-69470000I-500001J-1D01*
G01*
X96410000Y-69470000D02*
G75*
G03*
X95910000Y-69970000I1J-500001D01*
G01*
X109410000Y-69470000D02*
X96410000Y-69470000D01*
X109910000Y-82970000D02*
X109910000Y-69970000D01*
X109410000Y-83470000D02*
G75*
G03*
X109910000Y-82970000I-1J500001D01*
G01*
X96410000Y-83470000D02*
X109410000Y-83470000D01*
X95910000Y-82970000D02*
G75*
G03*
X96410000Y-83470000I500001J1D01*
G01*
X95910000Y-69970000D02*
X95910000Y-82970000D01*
X267080000Y-69970000D02*
G75*
G03*
X266580000Y-69470000I-500001J-1D01*
G01*
X253580000Y-69470000D02*
G75*
G03*
X253080000Y-69970000I1J-500001D01*
G01*
X266580000Y-69470000D02*
X253580000Y-69470000D01*
X267080000Y-82970000D02*
X267080000Y-69970000D01*
X266580000Y-83470000D02*
G75*
G03*
X267080000Y-82970000I-1J500001D01*
G01*
X253580000Y-83470000D02*
X266580000Y-83470000D01*
X253080000Y-82970000D02*
G75*
G03*
X253580000Y-83470000I500001J1D01*
G01*
X253080000Y-69970000D02*
X253080000Y-82970000D01*
X243270000Y-69970000D02*
G75*
G03*
X242770000Y-69470000I-500001J-1D01*
G01*
X229770000Y-69470000D02*
G75*
G03*
X229270000Y-69970000I1J-500001D01*
G01*
X242770000Y-69470000D02*
X229770000Y-69470000D01*
X243270000Y-82970000D02*
X243270000Y-69970000D01*
X242770000Y-83470000D02*
G75*
G03*
X243270000Y-82970000I-1J500001D01*
G01*
X229770000Y-83470000D02*
X242770000Y-83470000D01*
X229270000Y-82970000D02*
G75*
G03*
X229770000Y-83470000I500001J1D01*
G01*
X229270000Y-69970000D02*
X229270000Y-82970000D01*
X224220000Y-69970000D02*
G75*
G03*
X223720000Y-69470000I-500001J-1D01*
G01*
X210720000Y-69470000D02*
G75*
G03*
X210220000Y-69970000I1J-500001D01*
G01*
X223720000Y-69470000D02*
X210720000Y-69470000D01*
X224220000Y-82970000D02*
X224220000Y-69970000D01*
X223720000Y-83470000D02*
G75*
G03*
X224220000Y-82970000I-1J500001D01*
G01*
X210720000Y-83470000D02*
X223720000Y-83470000D01*
X210220000Y-82970000D02*
G75*
G03*
X210720000Y-83470000I500001J1D01*
G01*
X210220000Y-69970000D02*
X210220000Y-82970000D01*
X205170000Y-69970000D02*
G75*
G03*
X204670000Y-69470000I-500001J-1D01*
G01*
X191670000Y-69470000D02*
G75*
G03*
X191170000Y-69970000I1J-500001D01*
G01*
X204670000Y-69470000D02*
X191670000Y-69470000D01*
X205170000Y-82970000D02*
X205170000Y-69970000D01*
X204670000Y-83470000D02*
G75*
G03*
X205170000Y-82970000I-1J500001D01*
G01*
X191670000Y-83470000D02*
X204670000Y-83470000D01*
X191170000Y-82970000D02*
G75*
G03*
X191670000Y-83470000I500001J1D01*
G01*
X191170000Y-69970000D02*
X191170000Y-82970000D01*
X186110000Y-69970000D02*
G75*
G03*
X185610000Y-69470000I-500001J-1D01*
G01*
X172610000Y-69470000D02*
G75*
G03*
X172110000Y-69970000I1J-500001D01*
G01*
X185610000Y-69470000D02*
X172610000Y-69470000D01*
X186110000Y-82970000D02*
X186110000Y-69970000D01*
X185610000Y-83470000D02*
G75*
G03*
X186110000Y-82970000I-1J500001D01*
G01*
X172610000Y-83470000D02*
X185610000Y-83470000D01*
X172110000Y-82970000D02*
G75*
G03*
X172610000Y-83470000I500001J1D01*
G01*
X172110000Y-69970000D02*
X172110000Y-82970000D01*
X167060000Y-69970000D02*
G75*
G03*
X166560000Y-69470000I-500001J-1D01*
G01*
X153560000Y-69470000D02*
G75*
G03*
X153060000Y-69970000I1J-500001D01*
G01*
X166560000Y-69470000D02*
X153560000Y-69470000D01*
X167060000Y-82970000D02*
X167060000Y-69970000D01*
X166560000Y-83470000D02*
G75*
G03*
X167060000Y-82970000I-1J500001D01*
G01*
X153560000Y-83470000D02*
X166560000Y-83470000D01*
X153060000Y-82970000D02*
G75*
G03*
X153560000Y-83470000I500001J1D01*
G01*
X153060000Y-69970000D02*
X153060000Y-82970000D01*
X148010000Y-69970000D02*
G75*
G03*
X147510000Y-69470000I-500001J-1D01*
G01*
X134510000Y-69470000D02*
G75*
G03*
X134010000Y-69970000I1J-500001D01*
G01*
X147510000Y-69470000D02*
X134510000Y-69470000D01*
X148010000Y-82970000D02*
X148010000Y-69970000D01*
X147510000Y-83470000D02*
G75*
G03*
X148010000Y-82970000I-1J500001D01*
G01*
X134510000Y-83470000D02*
X147510000Y-83470000D01*
X134010000Y-82970000D02*
G75*
G03*
X134510000Y-83470000I500001J1D01*
G01*
X134010000Y-69970000D02*
X134010000Y-82970000D01*
X128960000Y-69970000D02*
G75*
G03*
X128460000Y-69470000I-500001J-1D01*
G01*
X115460000Y-69470000D02*
G75*
G03*
X114960000Y-69970000I1J-500001D01*
G01*
X128460000Y-69470000D02*
X115460000Y-69470000D01*
X128960000Y-82970000D02*
X128960000Y-69970000D01*
X128460000Y-83470000D02*
G75*
G03*
X128960000Y-82970000I-1J500001D01*
G01*
X115460000Y-83470000D02*
X128460000Y-83470000D01*
X114960000Y-82970000D02*
G75*
G03*
X115460000Y-83470000I500001J1D01*
G01*
X114960000Y-69970000D02*
X114960000Y-82970000D01*
D11*
X277075007Y-66850000D02*
X24000007Y-66850000D01*
X24000007Y-150412500D02*
X277075007Y-150412500D01*
X19225010Y-145637500D02*
G75*
G03*
X24000007Y-150412500I4774997J-3D01*
G01*
X277075007Y-150412497D02*
G75*
G03*
X281850007Y-145637500I3J4774997D01*
G01*
X19225007Y-145637500D02*
X19225007Y-71625000D01*
X281850007Y-145637500D02*
X281850007Y-71625000D01*
X24000007Y-66850003D02*
G75*
G03*
X19225007Y-71625000I-3J-4774997D01*
G01*
X281850004Y-71625000D02*
G75*
G03*
X277075007Y-66850000I-4774997J3D01*
G01*
M02*
