%FSLAX45Y45*%
G04 Gerber Fmt 4.5, Leading zero omitted, Abs format (unit mm)*
G04 Created by KiCad (PCBNEW (6.0.0-0)) date 2022-04-10 14:45:40*
%MOMM*%
%LPD*%
G01*
G04 APERTURE LIST*
%TA.AperFunction,Profile*%
%ADD10C,0.150000*%
%TD*%
%TA.AperFunction,Profile*%
%ADD11C,0.100000*%
%TD*%
%ADD12C,0.200000*%
%ADD13C,0.220000*%
%ADD14C,0.430000*%
G04 APERTURE END LIST*
D10*
X2387500Y-12415000D02*
X27695000Y-12415000D01*
D11*
X27456250Y-2148750D02*
G75*
G03*
X26978750Y-1671250I-477500J0D01*
G01*
D10*
X1910000Y-11937500D02*
G75*
G03*
X2387500Y-12415000I477500J0D01*
G01*
X1910000Y-11937500D02*
X1910000Y-4536250D01*
D11*
X27456250Y-2148750D02*
X27456250Y-3820000D01*
D10*
X28172500Y-4536250D02*
G75*
G03*
X27695000Y-4058750I-477500J0D01*
G01*
X2387500Y-4058750D02*
G75*
G03*
X1910000Y-4536250I0J-477500D01*
G01*
X2387500Y-4058750D02*
G75*
G03*
X2626250Y-3820000I0J238750D01*
G01*
X28172500Y-11937500D02*
X28172500Y-4536250D01*
D11*
X2626250Y-2387500D02*
X2626250Y-2148750D01*
X3103750Y-1671250D02*
G75*
G03*
X2626250Y-2148750I0J-477500D01*
G01*
D10*
X27456250Y-3820000D02*
G75*
G03*
X27695000Y-4058750I238750J0D01*
G01*
D11*
X26978750Y-1671250D02*
X3103750Y-1671250D01*
X2626250Y-2387500D02*
X2626250Y-3820000D01*
D10*
X27695000Y-12415000D02*
G75*
G03*
X28172500Y-11937500I0J477500D01*
G01*
D12*
D13*
X2277500Y-4426250D02*
X2497500Y-4646250D01*
X2497500Y-4426250D02*
X2277500Y-4646250D01*
X2277500Y-11827500D02*
X2497500Y-12047500D01*
X2497500Y-11827500D02*
X2277500Y-12047500D01*
X10675410Y-11827500D02*
X10895410Y-12047500D01*
X10895410Y-11827500D02*
X10675410Y-12047500D01*
X18862080Y-11827500D02*
X19082080Y-12047500D01*
X19082080Y-11827500D02*
X18862080Y-12047500D01*
X27585000Y-4426250D02*
X27805000Y-4646250D01*
X27805000Y-4426250D02*
X27585000Y-4646250D01*
X27585000Y-11827500D02*
X27805000Y-12047500D01*
X27805000Y-11827500D02*
X27585000Y-12047500D01*
D14*
X8810000Y-4536250D02*
G75*
G03*
X8810000Y-4536250I-215000J0D01*
G01*
X21702500Y-4536250D02*
G75*
G03*
X21702500Y-4536250I-215000J0D01*
G01*
D12*
X2160119Y-12732976D02*
X2160119Y-12532976D01*
X2207738Y-12532976D01*
X2236310Y-12542500D01*
X2255357Y-12561548D01*
X2264881Y-12580595D01*
X2274405Y-12618690D01*
X2274405Y-12647262D01*
X2264881Y-12685357D01*
X2255357Y-12704405D01*
X2236310Y-12723452D01*
X2207738Y-12732976D01*
X2160119Y-12732976D01*
X2360119Y-12732976D02*
X2360119Y-12599643D01*
X2360119Y-12637738D02*
X2369643Y-12618690D01*
X2379167Y-12609167D01*
X2398214Y-12599643D01*
X2417262Y-12599643D01*
X2483929Y-12732976D02*
X2483929Y-12599643D01*
X2483929Y-12532976D02*
X2474405Y-12542500D01*
X2483929Y-12552024D01*
X2493452Y-12542500D01*
X2483929Y-12532976D01*
X2483929Y-12552024D01*
X2607738Y-12732976D02*
X2588690Y-12723452D01*
X2579167Y-12704405D01*
X2579167Y-12532976D01*
X2712500Y-12732976D02*
X2693452Y-12723452D01*
X2683929Y-12704405D01*
X2683929Y-12532976D01*
X2941071Y-12732976D02*
X2941071Y-12532976D01*
X3007738Y-12675833D01*
X3074405Y-12532976D01*
X3074405Y-12732976D01*
X3255357Y-12732976D02*
X3255357Y-12628214D01*
X3245833Y-12609167D01*
X3226786Y-12599643D01*
X3188690Y-12599643D01*
X3169643Y-12609167D01*
X3255357Y-12723452D02*
X3236309Y-12732976D01*
X3188690Y-12732976D01*
X3169643Y-12723452D01*
X3160119Y-12704405D01*
X3160119Y-12685357D01*
X3169643Y-12666309D01*
X3188690Y-12656786D01*
X3236309Y-12656786D01*
X3255357Y-12647262D01*
X3350595Y-12599643D02*
X3350595Y-12799643D01*
X3350595Y-12609167D02*
X3369643Y-12599643D01*
X3407738Y-12599643D01*
X3426786Y-12609167D01*
X3436309Y-12618690D01*
X3445833Y-12637738D01*
X3445833Y-12694881D01*
X3436309Y-12713928D01*
X3426786Y-12723452D01*
X3407738Y-12732976D01*
X3369643Y-12732976D01*
X3350595Y-12723452D01*
X3531548Y-12713928D02*
X3541071Y-12723452D01*
X3531548Y-12732976D01*
X3522024Y-12723452D01*
X3531548Y-12713928D01*
X3531548Y-12732976D01*
X3531548Y-12609167D02*
X3541071Y-12618690D01*
X3531548Y-12628214D01*
X3522024Y-12618690D01*
X3531548Y-12609167D01*
X3531548Y-12628214D01*
X1702500Y-12962500D02*
X1902500Y-13162500D01*
X1902500Y-12962500D02*
X1702500Y-13162500D01*
X2150595Y-12972024D02*
X2160119Y-12962500D01*
X2179167Y-12952976D01*
X2226786Y-12952976D01*
X2245833Y-12962500D01*
X2255357Y-12972024D01*
X2264881Y-12991071D01*
X2264881Y-13010119D01*
X2255357Y-13038690D01*
X2141071Y-13152976D01*
X2264881Y-13152976D01*
X2350595Y-13133928D02*
X2360119Y-13143452D01*
X2350595Y-13152976D01*
X2341071Y-13143452D01*
X2350595Y-13133928D01*
X2350595Y-13152976D01*
X2436310Y-12972024D02*
X2445833Y-12962500D01*
X2464881Y-12952976D01*
X2512500Y-12952976D01*
X2531548Y-12962500D01*
X2541071Y-12972024D01*
X2550595Y-12991071D01*
X2550595Y-13010119D01*
X2541071Y-13038690D01*
X2426786Y-13152976D01*
X2550595Y-13152976D01*
X2674405Y-12952976D02*
X2693452Y-12952976D01*
X2712500Y-12962500D01*
X2722024Y-12972024D01*
X2731548Y-12991071D01*
X2741071Y-13029167D01*
X2741071Y-13076786D01*
X2731548Y-13114881D01*
X2722024Y-13133928D01*
X2712500Y-13143452D01*
X2693452Y-13152976D01*
X2674405Y-13152976D01*
X2655357Y-13143452D01*
X2645833Y-13133928D01*
X2636310Y-13114881D01*
X2626786Y-13076786D01*
X2626786Y-13029167D01*
X2636310Y-12991071D01*
X2645833Y-12972024D01*
X2655357Y-12962500D01*
X2674405Y-12952976D01*
X2864881Y-12952976D02*
X2883928Y-12952976D01*
X2902976Y-12962500D01*
X2912500Y-12972024D01*
X2922024Y-12991071D01*
X2931548Y-13029167D01*
X2931548Y-13076786D01*
X2922024Y-13114881D01*
X2912500Y-13133928D01*
X2902976Y-13143452D01*
X2883928Y-13152976D01*
X2864881Y-13152976D01*
X2845833Y-13143452D01*
X2836309Y-13133928D01*
X2826786Y-13114881D01*
X2817262Y-13076786D01*
X2817262Y-13029167D01*
X2826786Y-12991071D01*
X2836309Y-12972024D01*
X2845833Y-12962500D01*
X2864881Y-12952976D01*
X3017262Y-13152976D02*
X3017262Y-13019643D01*
X3017262Y-13038690D02*
X3026786Y-13029167D01*
X3045833Y-13019643D01*
X3074405Y-13019643D01*
X3093452Y-13029167D01*
X3102976Y-13048214D01*
X3102976Y-13152976D01*
X3102976Y-13048214D02*
X3112500Y-13029167D01*
X3131548Y-13019643D01*
X3160119Y-13019643D01*
X3179167Y-13029167D01*
X3188690Y-13048214D01*
X3188690Y-13152976D01*
X3283928Y-13152976D02*
X3283928Y-13019643D01*
X3283928Y-13038690D02*
X3293452Y-13029167D01*
X3312500Y-13019643D01*
X3341071Y-13019643D01*
X3360119Y-13029167D01*
X3369643Y-13048214D01*
X3369643Y-13152976D01*
X3369643Y-13048214D02*
X3379167Y-13029167D01*
X3398214Y-13019643D01*
X3426786Y-13019643D01*
X3445833Y-13029167D01*
X3455357Y-13048214D01*
X3455357Y-13152976D01*
X3845833Y-12943452D02*
X3674405Y-13200595D01*
X4102976Y-12952976D02*
X4122024Y-12952976D01*
X4141071Y-12962500D01*
X4150595Y-12972024D01*
X4160119Y-12991071D01*
X4169643Y-13029167D01*
X4169643Y-13076786D01*
X4160119Y-13114881D01*
X4150595Y-13133928D01*
X4141071Y-13143452D01*
X4122024Y-13152976D01*
X4102976Y-13152976D01*
X4083928Y-13143452D01*
X4074405Y-13133928D01*
X4064881Y-13114881D01*
X4055357Y-13076786D01*
X4055357Y-13029167D01*
X4064881Y-12991071D01*
X4074405Y-12972024D01*
X4083928Y-12962500D01*
X4102976Y-12952976D01*
X4255357Y-13133928D02*
X4264881Y-13143452D01*
X4255357Y-13152976D01*
X4245833Y-13143452D01*
X4255357Y-13133928D01*
X4255357Y-13152976D01*
X4388690Y-12952976D02*
X4407738Y-12952976D01*
X4426786Y-12962500D01*
X4436310Y-12972024D01*
X4445833Y-12991071D01*
X4455357Y-13029167D01*
X4455357Y-13076786D01*
X4445833Y-13114881D01*
X4436310Y-13133928D01*
X4426786Y-13143452D01*
X4407738Y-13152976D01*
X4388690Y-13152976D01*
X4369643Y-13143452D01*
X4360119Y-13133928D01*
X4350595Y-13114881D01*
X4341071Y-13076786D01*
X4341071Y-13029167D01*
X4350595Y-12991071D01*
X4360119Y-12972024D01*
X4369643Y-12962500D01*
X4388690Y-12952976D01*
X4569643Y-13038690D02*
X4550595Y-13029167D01*
X4541071Y-13019643D01*
X4531548Y-13000595D01*
X4531548Y-12991071D01*
X4541071Y-12972024D01*
X4550595Y-12962500D01*
X4569643Y-12952976D01*
X4607738Y-12952976D01*
X4626786Y-12962500D01*
X4636310Y-12972024D01*
X4645833Y-12991071D01*
X4645833Y-13000595D01*
X4636310Y-13019643D01*
X4626786Y-13029167D01*
X4607738Y-13038690D01*
X4569643Y-13038690D01*
X4550595Y-13048214D01*
X4541071Y-13057738D01*
X4531548Y-13076786D01*
X4531548Y-13114881D01*
X4541071Y-13133928D01*
X4550595Y-13143452D01*
X4569643Y-13152976D01*
X4607738Y-13152976D01*
X4626786Y-13143452D01*
X4636310Y-13133928D01*
X4645833Y-13114881D01*
X4645833Y-13076786D01*
X4636310Y-13057738D01*
X4626786Y-13048214D01*
X4607738Y-13038690D01*
X4817262Y-12952976D02*
X4779167Y-12952976D01*
X4760119Y-12962500D01*
X4750595Y-12972024D01*
X4731548Y-13000595D01*
X4722024Y-13038690D01*
X4722024Y-13114881D01*
X4731548Y-13133928D01*
X4741071Y-13143452D01*
X4760119Y-13152976D01*
X4798214Y-13152976D01*
X4817262Y-13143452D01*
X4826786Y-13133928D01*
X4836310Y-13114881D01*
X4836310Y-13067262D01*
X4826786Y-13048214D01*
X4817262Y-13038690D01*
X4798214Y-13029167D01*
X4760119Y-13029167D01*
X4741071Y-13038690D01*
X4731548Y-13048214D01*
X4722024Y-13067262D01*
X5007738Y-12952976D02*
X4969643Y-12952976D01*
X4950595Y-12962500D01*
X4941071Y-12972024D01*
X4922024Y-13000595D01*
X4912500Y-13038690D01*
X4912500Y-13114881D01*
X4922024Y-13133928D01*
X4931548Y-13143452D01*
X4950595Y-13152976D01*
X4988690Y-13152976D01*
X5007738Y-13143452D01*
X5017262Y-13133928D01*
X5026786Y-13114881D01*
X5026786Y-13067262D01*
X5017262Y-13048214D01*
X5007738Y-13038690D01*
X4988690Y-13029167D01*
X4950595Y-13029167D01*
X4931548Y-13038690D01*
X4922024Y-13048214D01*
X4912500Y-13067262D01*
X5102976Y-12952976D02*
X5102976Y-12991071D01*
X5179167Y-12952976D02*
X5179167Y-12991071D01*
X5474405Y-13229167D02*
X5464881Y-13219643D01*
X5445833Y-13191071D01*
X5436310Y-13172024D01*
X5426786Y-13143452D01*
X5417262Y-13095833D01*
X5417262Y-13057738D01*
X5426786Y-13010119D01*
X5436310Y-12981548D01*
X5445833Y-12962500D01*
X5464881Y-12933928D01*
X5474405Y-12924405D01*
X5636309Y-12952976D02*
X5598214Y-12952976D01*
X5579167Y-12962500D01*
X5569643Y-12972024D01*
X5550595Y-13000595D01*
X5541071Y-13038690D01*
X5541071Y-13114881D01*
X5550595Y-13133928D01*
X5560119Y-13143452D01*
X5579167Y-13152976D01*
X5617262Y-13152976D01*
X5636309Y-13143452D01*
X5645833Y-13133928D01*
X5655357Y-13114881D01*
X5655357Y-13067262D01*
X5645833Y-13048214D01*
X5636309Y-13038690D01*
X5617262Y-13029167D01*
X5579167Y-13029167D01*
X5560119Y-13038690D01*
X5550595Y-13048214D01*
X5541071Y-13067262D01*
X5893452Y-13152976D02*
X5893452Y-12952976D01*
X5979167Y-13152976D02*
X5979167Y-13048214D01*
X5969643Y-13029167D01*
X5950595Y-13019643D01*
X5922024Y-13019643D01*
X5902976Y-13029167D01*
X5893452Y-13038690D01*
X6102976Y-13152976D02*
X6083928Y-13143452D01*
X6074405Y-13133928D01*
X6064881Y-13114881D01*
X6064881Y-13057738D01*
X6074405Y-13038690D01*
X6083928Y-13029167D01*
X6102976Y-13019643D01*
X6131548Y-13019643D01*
X6150595Y-13029167D01*
X6160119Y-13038690D01*
X6169643Y-13057738D01*
X6169643Y-13114881D01*
X6160119Y-13133928D01*
X6150595Y-13143452D01*
X6131548Y-13152976D01*
X6102976Y-13152976D01*
X6283928Y-13152976D02*
X6264881Y-13143452D01*
X6255357Y-13124405D01*
X6255357Y-12952976D01*
X6436309Y-13143452D02*
X6417262Y-13152976D01*
X6379167Y-13152976D01*
X6360119Y-13143452D01*
X6350595Y-13124405D01*
X6350595Y-13048214D01*
X6360119Y-13029167D01*
X6379167Y-13019643D01*
X6417262Y-13019643D01*
X6436309Y-13029167D01*
X6445833Y-13048214D01*
X6445833Y-13067262D01*
X6350595Y-13086309D01*
X6522024Y-13143452D02*
X6541071Y-13152976D01*
X6579167Y-13152976D01*
X6598214Y-13143452D01*
X6607738Y-13124405D01*
X6607738Y-13114881D01*
X6598214Y-13095833D01*
X6579167Y-13086309D01*
X6550595Y-13086309D01*
X6531548Y-13076786D01*
X6522024Y-13057738D01*
X6522024Y-13048214D01*
X6531548Y-13029167D01*
X6550595Y-13019643D01*
X6579167Y-13019643D01*
X6598214Y-13029167D01*
X6674405Y-13229167D02*
X6683928Y-13219643D01*
X6702976Y-13191071D01*
X6712500Y-13172024D01*
X6722024Y-13143452D01*
X6731548Y-13095833D01*
X6731548Y-13057738D01*
X6722024Y-13010119D01*
X6712500Y-12981548D01*
X6702976Y-12962500D01*
X6683928Y-12933928D01*
X6674405Y-12924405D01*
X7036309Y-13229167D02*
X7026786Y-13219643D01*
X7007738Y-13191071D01*
X6998214Y-13172024D01*
X6988690Y-13143452D01*
X6979167Y-13095833D01*
X6979167Y-13057738D01*
X6988690Y-13010119D01*
X6998214Y-12981548D01*
X7007738Y-12962500D01*
X7026786Y-12933928D01*
X7036309Y-12924405D01*
X7112500Y-13019643D02*
X7112500Y-13152976D01*
X7112500Y-13038690D02*
X7122024Y-13029167D01*
X7141071Y-13019643D01*
X7169643Y-13019643D01*
X7188690Y-13029167D01*
X7198214Y-13048214D01*
X7198214Y-13152976D01*
X7322024Y-13152976D02*
X7302976Y-13143452D01*
X7293452Y-13133928D01*
X7283928Y-13114881D01*
X7283928Y-13057738D01*
X7293452Y-13038690D01*
X7302976Y-13029167D01*
X7322024Y-13019643D01*
X7350595Y-13019643D01*
X7369643Y-13029167D01*
X7379167Y-13038690D01*
X7388690Y-13057738D01*
X7388690Y-13114881D01*
X7379167Y-13133928D01*
X7369643Y-13143452D01*
X7350595Y-13152976D01*
X7322024Y-13152976D01*
X7445833Y-13019643D02*
X7522024Y-13019643D01*
X7474405Y-12952976D02*
X7474405Y-13124405D01*
X7483928Y-13143452D01*
X7502976Y-13152976D01*
X7522024Y-13152976D01*
X7741071Y-13019643D02*
X7741071Y-13219643D01*
X7741071Y-13029167D02*
X7760119Y-13019643D01*
X7798214Y-13019643D01*
X7817262Y-13029167D01*
X7826786Y-13038690D01*
X7836309Y-13057738D01*
X7836309Y-13114881D01*
X7826786Y-13133928D01*
X7817262Y-13143452D01*
X7798214Y-13152976D01*
X7760119Y-13152976D01*
X7741071Y-13143452D01*
X7950595Y-13152976D02*
X7931548Y-13143452D01*
X7922024Y-13124405D01*
X7922024Y-12952976D01*
X8112500Y-13152976D02*
X8112500Y-13048214D01*
X8102976Y-13029167D01*
X8083928Y-13019643D01*
X8045833Y-13019643D01*
X8026786Y-13029167D01*
X8112500Y-13143452D02*
X8093452Y-13152976D01*
X8045833Y-13152976D01*
X8026786Y-13143452D01*
X8017262Y-13124405D01*
X8017262Y-13105357D01*
X8026786Y-13086309D01*
X8045833Y-13076786D01*
X8093452Y-13076786D01*
X8112500Y-13067262D01*
X8179167Y-13019643D02*
X8255357Y-13019643D01*
X8207738Y-12952976D02*
X8207738Y-13124405D01*
X8217262Y-13143452D01*
X8236309Y-13152976D01*
X8255357Y-13152976D01*
X8398214Y-13143452D02*
X8379167Y-13152976D01*
X8341071Y-13152976D01*
X8322024Y-13143452D01*
X8312500Y-13124405D01*
X8312500Y-13048214D01*
X8322024Y-13029167D01*
X8341071Y-13019643D01*
X8379167Y-13019643D01*
X8398214Y-13029167D01*
X8407738Y-13048214D01*
X8407738Y-13067262D01*
X8312500Y-13086309D01*
X8579167Y-13152976D02*
X8579167Y-12952976D01*
X8579167Y-13143452D02*
X8560119Y-13152976D01*
X8522024Y-13152976D01*
X8502976Y-13143452D01*
X8493452Y-13133928D01*
X8483929Y-13114881D01*
X8483929Y-13057738D01*
X8493452Y-13038690D01*
X8502976Y-13029167D01*
X8522024Y-13019643D01*
X8560119Y-13019643D01*
X8579167Y-13029167D01*
X8655357Y-13229167D02*
X8664881Y-13219643D01*
X8683929Y-13191071D01*
X8693452Y-13172024D01*
X8702976Y-13143452D01*
X8712500Y-13095833D01*
X8712500Y-13057738D01*
X8702976Y-13010119D01*
X8693452Y-12981548D01*
X8683929Y-12962500D01*
X8664881Y-12933928D01*
X8655357Y-12924405D01*
X1902500Y-13382500D02*
G75*
G03*
X1902500Y-13382500I-100000J0D01*
G01*
X2245833Y-13339643D02*
X2245833Y-13472976D01*
X2198214Y-13263452D02*
X2150595Y-13406309D01*
X2274405Y-13406309D01*
X2350595Y-13453928D02*
X2360119Y-13463452D01*
X2350595Y-13472976D01*
X2341071Y-13463452D01*
X2350595Y-13453928D01*
X2350595Y-13472976D01*
X2426786Y-13272976D02*
X2550595Y-13272976D01*
X2483929Y-13349167D01*
X2512500Y-13349167D01*
X2531548Y-13358690D01*
X2541071Y-13368214D01*
X2550595Y-13387262D01*
X2550595Y-13434881D01*
X2541071Y-13453928D01*
X2531548Y-13463452D01*
X2512500Y-13472976D01*
X2455357Y-13472976D01*
X2436310Y-13463452D01*
X2426786Y-13453928D01*
X2674405Y-13272976D02*
X2693452Y-13272976D01*
X2712500Y-13282500D01*
X2722024Y-13292024D01*
X2731548Y-13311071D01*
X2741071Y-13349167D01*
X2741071Y-13396786D01*
X2731548Y-13434881D01*
X2722024Y-13453928D01*
X2712500Y-13463452D01*
X2693452Y-13472976D01*
X2674405Y-13472976D01*
X2655357Y-13463452D01*
X2645833Y-13453928D01*
X2636310Y-13434881D01*
X2626786Y-13396786D01*
X2626786Y-13349167D01*
X2636310Y-13311071D01*
X2645833Y-13292024D01*
X2655357Y-13282500D01*
X2674405Y-13272976D01*
X2864881Y-13272976D02*
X2883928Y-13272976D01*
X2902976Y-13282500D01*
X2912500Y-13292024D01*
X2922024Y-13311071D01*
X2931548Y-13349167D01*
X2931548Y-13396786D01*
X2922024Y-13434881D01*
X2912500Y-13453928D01*
X2902976Y-13463452D01*
X2883928Y-13472976D01*
X2864881Y-13472976D01*
X2845833Y-13463452D01*
X2836309Y-13453928D01*
X2826786Y-13434881D01*
X2817262Y-13396786D01*
X2817262Y-13349167D01*
X2826786Y-13311071D01*
X2836309Y-13292024D01*
X2845833Y-13282500D01*
X2864881Y-13272976D01*
X3017262Y-13472976D02*
X3017262Y-13339643D01*
X3017262Y-13358690D02*
X3026786Y-13349167D01*
X3045833Y-13339643D01*
X3074405Y-13339643D01*
X3093452Y-13349167D01*
X3102976Y-13368214D01*
X3102976Y-13472976D01*
X3102976Y-13368214D02*
X3112500Y-13349167D01*
X3131548Y-13339643D01*
X3160119Y-13339643D01*
X3179167Y-13349167D01*
X3188690Y-13368214D01*
X3188690Y-13472976D01*
X3283928Y-13472976D02*
X3283928Y-13339643D01*
X3283928Y-13358690D02*
X3293452Y-13349167D01*
X3312500Y-13339643D01*
X3341071Y-13339643D01*
X3360119Y-13349167D01*
X3369643Y-13368214D01*
X3369643Y-13472976D01*
X3369643Y-13368214D02*
X3379167Y-13349167D01*
X3398214Y-13339643D01*
X3426786Y-13339643D01*
X3445833Y-13349167D01*
X3455357Y-13368214D01*
X3455357Y-13472976D01*
X3845833Y-13263452D02*
X3674405Y-13520595D01*
X4102976Y-13272976D02*
X4122024Y-13272976D01*
X4141071Y-13282500D01*
X4150595Y-13292024D01*
X4160119Y-13311071D01*
X4169643Y-13349167D01*
X4169643Y-13396786D01*
X4160119Y-13434881D01*
X4150595Y-13453928D01*
X4141071Y-13463452D01*
X4122024Y-13472976D01*
X4102976Y-13472976D01*
X4083928Y-13463452D01*
X4074405Y-13453928D01*
X4064881Y-13434881D01*
X4055357Y-13396786D01*
X4055357Y-13349167D01*
X4064881Y-13311071D01*
X4074405Y-13292024D01*
X4083928Y-13282500D01*
X4102976Y-13272976D01*
X4255357Y-13453928D02*
X4264881Y-13463452D01*
X4255357Y-13472976D01*
X4245833Y-13463452D01*
X4255357Y-13453928D01*
X4255357Y-13472976D01*
X4455357Y-13472976D02*
X4341071Y-13472976D01*
X4398214Y-13472976D02*
X4398214Y-13272976D01*
X4379167Y-13301548D01*
X4360119Y-13320595D01*
X4341071Y-13330119D01*
X4626786Y-13272976D02*
X4588690Y-13272976D01*
X4569643Y-13282500D01*
X4560119Y-13292024D01*
X4541071Y-13320595D01*
X4531548Y-13358690D01*
X4531548Y-13434881D01*
X4541071Y-13453928D01*
X4550595Y-13463452D01*
X4569643Y-13472976D01*
X4607738Y-13472976D01*
X4626786Y-13463452D01*
X4636310Y-13453928D01*
X4645833Y-13434881D01*
X4645833Y-13387262D01*
X4636310Y-13368214D01*
X4626786Y-13358690D01*
X4607738Y-13349167D01*
X4569643Y-13349167D01*
X4550595Y-13358690D01*
X4541071Y-13368214D01*
X4531548Y-13387262D01*
X4741071Y-13472976D02*
X4779167Y-13472976D01*
X4798214Y-13463452D01*
X4807738Y-13453928D01*
X4826786Y-13425357D01*
X4836310Y-13387262D01*
X4836310Y-13311071D01*
X4826786Y-13292024D01*
X4817262Y-13282500D01*
X4798214Y-13272976D01*
X4760119Y-13272976D01*
X4741071Y-13282500D01*
X4731548Y-13292024D01*
X4722024Y-13311071D01*
X4722024Y-13358690D01*
X4731548Y-13377738D01*
X4741071Y-13387262D01*
X4760119Y-13396786D01*
X4798214Y-13396786D01*
X4817262Y-13387262D01*
X4826786Y-13377738D01*
X4836310Y-13358690D01*
X4902976Y-13272976D02*
X5026786Y-13272976D01*
X4960119Y-13349167D01*
X4988690Y-13349167D01*
X5007738Y-13358690D01*
X5017262Y-13368214D01*
X5026786Y-13387262D01*
X5026786Y-13434881D01*
X5017262Y-13453928D01*
X5007738Y-13463452D01*
X4988690Y-13472976D01*
X4931548Y-13472976D01*
X4912500Y-13463452D01*
X4902976Y-13453928D01*
X5102976Y-13272976D02*
X5102976Y-13311071D01*
X5179167Y-13272976D02*
X5179167Y-13311071D01*
X5474405Y-13549167D02*
X5464881Y-13539643D01*
X5445833Y-13511071D01*
X5436310Y-13492024D01*
X5426786Y-13463452D01*
X5417262Y-13415833D01*
X5417262Y-13377738D01*
X5426786Y-13330119D01*
X5436310Y-13301548D01*
X5445833Y-13282500D01*
X5464881Y-13253928D01*
X5474405Y-13244405D01*
X5541071Y-13292024D02*
X5550595Y-13282500D01*
X5569643Y-13272976D01*
X5617262Y-13272976D01*
X5636309Y-13282500D01*
X5645833Y-13292024D01*
X5655357Y-13311071D01*
X5655357Y-13330119D01*
X5645833Y-13358690D01*
X5531548Y-13472976D01*
X5655357Y-13472976D01*
X5893452Y-13472976D02*
X5893452Y-13272976D01*
X5979167Y-13472976D02*
X5979167Y-13368214D01*
X5969643Y-13349167D01*
X5950595Y-13339643D01*
X5922024Y-13339643D01*
X5902976Y-13349167D01*
X5893452Y-13358690D01*
X6102976Y-13472976D02*
X6083928Y-13463452D01*
X6074405Y-13453928D01*
X6064881Y-13434881D01*
X6064881Y-13377738D01*
X6074405Y-13358690D01*
X6083928Y-13349167D01*
X6102976Y-13339643D01*
X6131548Y-13339643D01*
X6150595Y-13349167D01*
X6160119Y-13358690D01*
X6169643Y-13377738D01*
X6169643Y-13434881D01*
X6160119Y-13453928D01*
X6150595Y-13463452D01*
X6131548Y-13472976D01*
X6102976Y-13472976D01*
X6283928Y-13472976D02*
X6264881Y-13463452D01*
X6255357Y-13444405D01*
X6255357Y-13272976D01*
X6436309Y-13463452D02*
X6417262Y-13472976D01*
X6379167Y-13472976D01*
X6360119Y-13463452D01*
X6350595Y-13444405D01*
X6350595Y-13368214D01*
X6360119Y-13349167D01*
X6379167Y-13339643D01*
X6417262Y-13339643D01*
X6436309Y-13349167D01*
X6445833Y-13368214D01*
X6445833Y-13387262D01*
X6350595Y-13406309D01*
X6522024Y-13463452D02*
X6541071Y-13472976D01*
X6579167Y-13472976D01*
X6598214Y-13463452D01*
X6607738Y-13444405D01*
X6607738Y-13434881D01*
X6598214Y-13415833D01*
X6579167Y-13406309D01*
X6550595Y-13406309D01*
X6531548Y-13396786D01*
X6522024Y-13377738D01*
X6522024Y-13368214D01*
X6531548Y-13349167D01*
X6550595Y-13339643D01*
X6579167Y-13339643D01*
X6598214Y-13349167D01*
X6674405Y-13549167D02*
X6683928Y-13539643D01*
X6702976Y-13511071D01*
X6712500Y-13492024D01*
X6722024Y-13463452D01*
X6731548Y-13415833D01*
X6731548Y-13377738D01*
X6722024Y-13330119D01*
X6712500Y-13301548D01*
X6702976Y-13282500D01*
X6683928Y-13253928D01*
X6674405Y-13244405D01*
X7036309Y-13549167D02*
X7026786Y-13539643D01*
X7007738Y-13511071D01*
X6998214Y-13492024D01*
X6988690Y-13463452D01*
X6979167Y-13415833D01*
X6979167Y-13377738D01*
X6988690Y-13330119D01*
X6998214Y-13301548D01*
X7007738Y-13282500D01*
X7026786Y-13253928D01*
X7036309Y-13244405D01*
X7112500Y-13339643D02*
X7112500Y-13472976D01*
X7112500Y-13358690D02*
X7122024Y-13349167D01*
X7141071Y-13339643D01*
X7169643Y-13339643D01*
X7188690Y-13349167D01*
X7198214Y-13368214D01*
X7198214Y-13472976D01*
X7322024Y-13472976D02*
X7302976Y-13463452D01*
X7293452Y-13453928D01*
X7283928Y-13434881D01*
X7283928Y-13377738D01*
X7293452Y-13358690D01*
X7302976Y-13349167D01*
X7322024Y-13339643D01*
X7350595Y-13339643D01*
X7369643Y-13349167D01*
X7379167Y-13358690D01*
X7388690Y-13377738D01*
X7388690Y-13434881D01*
X7379167Y-13453928D01*
X7369643Y-13463452D01*
X7350595Y-13472976D01*
X7322024Y-13472976D01*
X7445833Y-13339643D02*
X7522024Y-13339643D01*
X7474405Y-13272976D02*
X7474405Y-13444405D01*
X7483928Y-13463452D01*
X7502976Y-13472976D01*
X7522024Y-13472976D01*
X7741071Y-13339643D02*
X7741071Y-13539643D01*
X7741071Y-13349167D02*
X7760119Y-13339643D01*
X7798214Y-13339643D01*
X7817262Y-13349167D01*
X7826786Y-13358690D01*
X7836309Y-13377738D01*
X7836309Y-13434881D01*
X7826786Y-13453928D01*
X7817262Y-13463452D01*
X7798214Y-13472976D01*
X7760119Y-13472976D01*
X7741071Y-13463452D01*
X7950595Y-13472976D02*
X7931548Y-13463452D01*
X7922024Y-13444405D01*
X7922024Y-13272976D01*
X8112500Y-13472976D02*
X8112500Y-13368214D01*
X8102976Y-13349167D01*
X8083928Y-13339643D01*
X8045833Y-13339643D01*
X8026786Y-13349167D01*
X8112500Y-13463452D02*
X8093452Y-13472976D01*
X8045833Y-13472976D01*
X8026786Y-13463452D01*
X8017262Y-13444405D01*
X8017262Y-13425357D01*
X8026786Y-13406309D01*
X8045833Y-13396786D01*
X8093452Y-13396786D01*
X8112500Y-13387262D01*
X8179167Y-13339643D02*
X8255357Y-13339643D01*
X8207738Y-13272976D02*
X8207738Y-13444405D01*
X8217262Y-13463452D01*
X8236309Y-13472976D01*
X8255357Y-13472976D01*
X8398214Y-13463452D02*
X8379167Y-13472976D01*
X8341071Y-13472976D01*
X8322024Y-13463452D01*
X8312500Y-13444405D01*
X8312500Y-13368214D01*
X8322024Y-13349167D01*
X8341071Y-13339643D01*
X8379167Y-13339643D01*
X8398214Y-13349167D01*
X8407738Y-13368214D01*
X8407738Y-13387262D01*
X8312500Y-13406309D01*
X8579167Y-13472976D02*
X8579167Y-13272976D01*
X8579167Y-13463452D02*
X8560119Y-13472976D01*
X8522024Y-13472976D01*
X8502976Y-13463452D01*
X8493452Y-13453928D01*
X8483929Y-13434881D01*
X8483929Y-13377738D01*
X8493452Y-13358690D01*
X8502976Y-13349167D01*
X8522024Y-13339643D01*
X8560119Y-13339643D01*
X8579167Y-13349167D01*
X8655357Y-13549167D02*
X8664881Y-13539643D01*
X8683929Y-13511071D01*
X8693452Y-13492024D01*
X8702976Y-13463452D01*
X8712500Y-13415833D01*
X8712500Y-13377738D01*
X8702976Y-13330119D01*
X8693452Y-13301548D01*
X8683929Y-13282500D01*
X8664881Y-13253928D01*
X8655357Y-13244405D01*
M02*
