%FSLAX45Y45*%
G04 Gerber Fmt 4.5, Leading zero omitted, Abs format (unit mm)*
G04 Created by KiCad (PCBNEW (6.0.0-0)) date 2022-04-10 14:45:40*
%MOMM*%
%LPD*%
G01*
G04 APERTURE LIST*
%TA.AperFunction,Profile*%
%ADD10C,0.150000*%
%TD*%
%TA.AperFunction,Profile*%
%ADD11C,0.100000*%
%TD*%
%ADD12C,0.200000*%
G04 APERTURE END LIST*
D10*
X2387500Y-12415000D02*
X27695000Y-12415000D01*
D11*
X27456250Y-2148750D02*
G75*
G03*
X26978750Y-1671250I-477500J0D01*
G01*
D10*
X1910000Y-11937500D02*
G75*
G03*
X2387500Y-12415000I477500J0D01*
G01*
X1910000Y-11937500D02*
X1910000Y-4536250D01*
D11*
X27456250Y-2148750D02*
X27456250Y-3820000D01*
D10*
X28172500Y-4536250D02*
G75*
G03*
X27695000Y-4058750I-477500J0D01*
G01*
X2387500Y-4058750D02*
G75*
G03*
X1910000Y-4536250I0J-477500D01*
G01*
X2387500Y-4058750D02*
G75*
G03*
X2626250Y-3820000I0J238750D01*
G01*
X28172500Y-11937500D02*
X28172500Y-4536250D01*
D11*
X2626250Y-2387500D02*
X2626250Y-2148750D01*
X3103750Y-1671250D02*
G75*
G03*
X2626250Y-2148750I0J-477500D01*
G01*
D10*
X27456250Y-3820000D02*
G75*
G03*
X27695000Y-4058750I238750J0D01*
G01*
D11*
X26978750Y-1671250D02*
X3103750Y-1671250D01*
X2626250Y-2387500D02*
X2626250Y-3820000D01*
D10*
X27695000Y-12415000D02*
G75*
G03*
X28172500Y-11937500I0J477500D01*
G01*
D12*
X2160119Y-12732976D02*
X2160119Y-12532976D01*
X2207738Y-12532976D01*
X2236310Y-12542500D01*
X2255357Y-12561548D01*
X2264881Y-12580595D01*
X2274405Y-12618690D01*
X2274405Y-12647262D01*
X2264881Y-12685357D01*
X2255357Y-12704405D01*
X2236310Y-12723452D01*
X2207738Y-12732976D01*
X2160119Y-12732976D01*
X2360119Y-12732976D02*
X2360119Y-12599643D01*
X2360119Y-12637738D02*
X2369643Y-12618690D01*
X2379167Y-12609167D01*
X2398214Y-12599643D01*
X2417262Y-12599643D01*
X2483929Y-12732976D02*
X2483929Y-12599643D01*
X2483929Y-12532976D02*
X2474405Y-12542500D01*
X2483929Y-12552024D01*
X2493452Y-12542500D01*
X2483929Y-12532976D01*
X2483929Y-12552024D01*
X2607738Y-12732976D02*
X2588690Y-12723452D01*
X2579167Y-12704405D01*
X2579167Y-12532976D01*
X2712500Y-12732976D02*
X2693452Y-12723452D01*
X2683929Y-12704405D01*
X2683929Y-12532976D01*
X2941071Y-12732976D02*
X2941071Y-12532976D01*
X3007738Y-12675833D01*
X3074405Y-12532976D01*
X3074405Y-12732976D01*
X3255357Y-12732976D02*
X3255357Y-12628214D01*
X3245833Y-12609167D01*
X3226786Y-12599643D01*
X3188690Y-12599643D01*
X3169643Y-12609167D01*
X3255357Y-12723452D02*
X3236309Y-12732976D01*
X3188690Y-12732976D01*
X3169643Y-12723452D01*
X3160119Y-12704405D01*
X3160119Y-12685357D01*
X3169643Y-12666309D01*
X3188690Y-12656786D01*
X3236309Y-12656786D01*
X3255357Y-12647262D01*
X3350595Y-12599643D02*
X3350595Y-12799643D01*
X3350595Y-12609167D02*
X3369643Y-12599643D01*
X3407738Y-12599643D01*
X3426786Y-12609167D01*
X3436309Y-12618690D01*
X3445833Y-12637738D01*
X3445833Y-12694881D01*
X3436309Y-12713928D01*
X3426786Y-12723452D01*
X3407738Y-12732976D01*
X3369643Y-12732976D01*
X3350595Y-12723452D01*
X3531548Y-12713928D02*
X3541071Y-12723452D01*
X3531548Y-12732976D01*
X3522024Y-12723452D01*
X3531548Y-12713928D01*
X3531548Y-12732976D01*
X3531548Y-12609167D02*
X3541071Y-12618690D01*
X3531548Y-12628214D01*
X3522024Y-12618690D01*
X3531548Y-12609167D01*
X3531548Y-12628214D01*
M02*
