M48
; DRILL file {KiCad (6.0.0-0)} date 2023 April 30, Sunday 11:45:07
; FORMAT={-:-/ absolute / metric / decimal}
; #@! TF.CreationDate,2023-04-30T11:45:07+02:00
; #@! TF.GenerationSoftware,Kicad,Pcbnew,(6.0.0-0)
; #@! TF.FileFunction,Plated,1,2,PTH
FMAT,2
METRIC
; #@! TA.AperFunction,Plated,PTH,ViaDrill
T1C0.400
; #@! TA.AperFunction,Plated,PTH,ComponentDrill
T2C0.991
; #@! TA.AperFunction,Plated,PTH,ComponentDrill
T3C1.000
; #@! TA.AperFunction,Plated,PTH,ComponentDrill
T4C1.092
; #@! TA.AperFunction,Plated,PTH,ComponentDrill
T5C1.500
%
G90
G05
T1
X47.173Y-30.221
X47.75Y-31.037
X69.237Y-36.297
X174.287Y-45.362
X186.225Y-45.362
X186.225Y-52.525
X220.4Y-30.6
X224.034Y-45.966
X225.503Y-46.309
T2
X63.04Y-28.65
X65.427Y-33.425
X67.815Y-38.2
X70.203Y-42.975
X70.66Y-28.65
X73.047Y-33.425
X74.977Y-28.65
X75.435Y-38.2
X77.365Y-33.425
X77.822Y-42.975
X79.752Y-38.2
X82.14Y-42.975
X82.597Y-28.65
X84.985Y-33.425
X86.915Y-28.65
X87.373Y-38.2
X89.302Y-33.425
X89.76Y-42.975
X91.69Y-38.2
X94.078Y-42.975
X94.535Y-28.65
X96.922Y-33.425
X98.852Y-28.65
X99.31Y-38.2
X101.24Y-33.425
X101.697Y-42.975
X103.627Y-38.2
X106.472Y-28.65
X108.86Y-33.425
X110.79Y-28.65
X111.247Y-38.2
X113.177Y-33.425
X115.565Y-38.2
X117.953Y-42.975
X118.41Y-28.65
X120.797Y-33.425
X122.727Y-28.65
X123.185Y-38.2
X125.115Y-33.425
X125.572Y-42.975
X127.502Y-38.2
X129.89Y-42.975
X130.347Y-28.65
X132.735Y-33.425
X134.665Y-28.65
X135.123Y-38.2
X137.052Y-33.425
X137.51Y-42.975
X139.44Y-38.2
X141.827Y-42.975
X142.285Y-28.65
X144.672Y-33.425
X146.602Y-28.65
X147.06Y-38.2
X148.99Y-33.425
X149.447Y-42.975
X151.377Y-38.2
X153.765Y-42.975
X154.222Y-28.65
X156.61Y-33.425
X158.54Y-28.65
X158.998Y-38.2
X160.927Y-33.425
X161.385Y-42.975
X163.315Y-38.2
X165.702Y-42.975
X166.16Y-28.65
X168.547Y-33.425
X170.477Y-28.65
X170.935Y-38.2
X172.865Y-33.425
X173.322Y-42.975
X175.252Y-38.2
X177.64Y-42.975
X178.097Y-28.65
X180.485Y-33.425
X182.415Y-28.65
X182.873Y-38.2
X184.802Y-33.425
X185.26Y-42.975
X187.19Y-38.2
X189.577Y-42.975
X190.035Y-28.65
X192.422Y-33.425
X194.352Y-28.65
X194.81Y-38.2
X196.74Y-33.425
X197.197Y-42.975
X199.127Y-38.2
X201.515Y-42.975
X201.972Y-28.65
X204.36Y-33.425
X206.748Y-38.2
X209.135Y-42.975
T3
X212.487Y-32.968
X212.487Y-35.508
X212.487Y-38.047
X212.487Y-40.587
X231.655Y-28.312
X231.655Y-42.812
X234.155Y-28.312
X236.655Y-28.312
X236.655Y-42.812
X260.125Y-27.927
X260.125Y-42.427
X262.625Y-27.927
X265.125Y-27.927
X265.125Y-42.427
T4
X29.005Y-27.964
X29.005Y-43.661
X31.545Y-28.421
X31.545Y-43.204
X34.085Y-27.964
X34.085Y-43.661
X36.625Y-28.421
X36.625Y-43.204
X39.165Y-27.964
X39.165Y-43.661
X41.705Y-28.421
X41.705Y-43.204
X44.245Y-27.964
X44.245Y-43.661
X46.785Y-28.421
X46.785Y-43.204
X49.325Y-27.964
X49.325Y-43.661
X51.865Y-28.421
X51.865Y-43.204
X54.405Y-27.964
X54.405Y-43.661
X56.945Y-28.421
X56.945Y-43.204
T5
X31.85Y-73.86
X32.002Y-92.96
X32.002Y-112.06
X34.39Y-54.76
X36.777Y-73.86
X38.2Y-71.32
X38.352Y-90.42
X38.352Y-109.52
X40.74Y-52.22
X41.552Y-92.94
X43.127Y-71.32
X47.902Y-90.4
X53.49Y-92.96
X53.49Y-112.06
X58.265Y-54.76
X59.84Y-90.42
X59.84Y-109.52
X63.04Y-73.86
X64.615Y-52.22
X69.39Y-71.32
X72.59Y-92.96
X72.59Y-112.06
X74.977Y-112.06
X77.365Y-54.76
X78.94Y-90.42
X78.94Y-109.52
X81.328Y-109.52
X82.14Y-73.86
X83.715Y-52.22
X88.49Y-71.32
X91.69Y-92.96
X96.465Y-54.76
X98.04Y-90.42
X101.24Y-73.86
X102.815Y-52.22
X107.59Y-71.32
X108.5Y-112.078
X110.79Y-92.96
X114.85Y-109.538
X115.565Y-54.76
X117.14Y-90.42
X120.34Y-73.86
X121.915Y-52.22
X126.69Y-71.32
X129.89Y-92.96
X134.665Y-54.76
X136.24Y-90.42
X139.44Y-73.86
X139.45Y-112.11
X141.015Y-52.22
X141.827Y-112.07
X145.79Y-71.32
X145.8Y-109.57
X148.177Y-109.53
X148.99Y-92.96
X153.765Y-54.76
X155.34Y-90.42
X158.54Y-73.86
X160.115Y-52.22
X164.89Y-71.32
X168.09Y-92.96
X172.865Y-54.76
X174.44Y-90.42
X175.17Y-112.05
X177.64Y-73.86
X179.215Y-52.22
X181.52Y-109.51
X183.99Y-71.32
X187.19Y-92.96
X191.965Y-54.76
X193.54Y-90.42
X196.74Y-73.86
X198.315Y-52.22
X203.09Y-71.32
X206.29Y-92.96
X211.065Y-54.76
X212.64Y-90.42
X213.452Y-112.06
X215.84Y-73.86
X217.415Y-52.22
X219.802Y-109.52
X222.19Y-71.32
X225.39Y-92.96
X230.165Y-54.76
X231.615Y-40.892
X231.74Y-90.42
X234.94Y-73.86
X234.94Y-112.06
X236.515Y-52.22
X237.965Y-38.352
X241.29Y-71.32
X241.29Y-109.52
X246.877Y-73.86
X251.652Y-92.96
X253.227Y-71.32
X254.04Y-54.76
X256.428Y-73.86
X256.428Y-112.06
X258.002Y-90.42
X260.085Y-40.507
X260.39Y-52.22
X262.777Y-71.32
X262.777Y-109.52
X266.435Y-37.967
T0
M30
