M48
; DRILL file {KiCad (6.0.0-0)} date 2022 April 10, Sunday 20:29:37
; FORMAT={-:-/ absolute / metric / decimal}
; #@! TF.CreationDate,2022-04-10T20:29:37+02:00
; #@! TF.GenerationSoftware,Kicad,Pcbnew,(6.0.0-0)
; #@! TF.FileFunction,NonPlated,1,2,NPTH
FMAT,2
METRIC
; #@! TA.AperFunction,NonPlated,NPTH,ComponentDrill
T1C1.500
; #@! TA.AperFunction,NonPlated,NPTH,ComponentDrill
T2C1.700
; #@! TA.AperFunction,NonPlated,NPTH,ComponentDrill
T3C2.200
; #@! TA.AperFunction,NonPlated,NPTH,ComponentDrill
T4C3.050
; #@! TA.AperFunction,NonPlated,NPTH,ComponentDrill
T5C4.000
%
G90
G05
T2
X30.58Y-76.4
X30.732Y-95.5
X30.732Y-114.6
X35.508Y-76.4
X40.282Y-95.48
X40.74Y-76.4
X40.892Y-95.5
X40.892Y-114.6
X45.667Y-76.4
X50.442Y-95.48
X52.22Y-95.5
X52.22Y-114.6
X56.995Y-57.3
X61.77Y-76.4
X62.38Y-95.5
X62.38Y-114.6
X67.155Y-57.3
X71.32Y-95.5
X71.32Y-114.6
X71.93Y-76.4
X73.707Y-114.6
X76.095Y-57.3
X80.87Y-76.4
X81.48Y-95.5
X81.48Y-114.6
X83.867Y-114.6
X86.255Y-57.3
X90.42Y-95.5
X91.03Y-76.4
X95.195Y-57.3
X99.97Y-76.4
X100.58Y-95.5
X105.355Y-57.3
X107.23Y-114.618
X109.52Y-95.5
X110.13Y-76.4
X114.295Y-57.3
X117.39Y-114.618
X119.07Y-76.4
X119.68Y-95.5
X124.455Y-57.3
X128.62Y-95.5
X129.23Y-76.4
X133.395Y-57.3
X138.17Y-76.4
X138.18Y-114.65
X138.78Y-95.5
X140.558Y-114.61
X143.555Y-57.3
X147.72Y-95.5
X148.33Y-76.4
X148.34Y-114.65
X150.718Y-114.61
X152.495Y-57.3
X157.27Y-76.4
X157.88Y-95.5
X162.655Y-57.3
X166.82Y-95.5
X167.43Y-76.4
X171.595Y-57.3
X173.9Y-114.59
X176.37Y-76.4
X176.98Y-95.5
X181.755Y-57.3
X184.06Y-114.59
X185.92Y-95.5
X186.53Y-76.4
X190.695Y-57.3
X195.47Y-76.4
X196.08Y-95.5
X200.855Y-57.3
X205.02Y-95.5
X205.63Y-76.4
X209.795Y-57.3
X212.183Y-114.6
X214.57Y-76.4
X215.18Y-95.5
X219.955Y-57.3
X222.343Y-114.6
X224.12Y-95.5
X224.73Y-76.4
X228.895Y-57.3
X233.67Y-76.4
X233.67Y-114.6
X234.28Y-95.5
X239.055Y-57.3
X243.83Y-76.4
X243.83Y-114.6
X245.607Y-76.4
X250.382Y-95.5
X252.77Y-57.3
X255.157Y-76.4
X255.157Y-114.6
X255.767Y-76.4
X260.542Y-95.5
X262.93Y-57.3
X265.317Y-76.4
X265.317Y-114.6
T3
X52.512Y-66.8
X52.525Y-66.85
X62.075Y-35.812
X66.837Y-105.0
X66.837Y-105.0
X66.85Y-105.05
X148.012Y-66.8
X148.025Y-66.85
X229.188Y-105.0
X229.2Y-105.05
X243.512Y-66.8
X243.525Y-66.85
X250.688Y-35.812
T4
X33.462Y-88.48
X57.262Y-88.48
X95.637Y-121.61
X100.41Y-121.618
X124.21Y-121.618
X167.08Y-121.59
X190.88Y-121.59
X195.637Y-121.61
X238.787Y-69.4
X262.587Y-69.4
T5
X33.462Y-103.72
X35.66Y-76.4
X35.812Y-95.5
X35.812Y-114.6
X38.2Y-57.3
X40.587Y-76.4
X45.362Y-95.48
X57.262Y-103.72
X57.3Y-95.5
X57.3Y-114.6
X62.075Y-57.3
X66.85Y-76.4
X76.4Y-95.5
X76.4Y-114.6
X78.787Y-114.6
X81.175Y-57.3
X85.95Y-76.4
X95.5Y-95.5
X95.637Y-106.37
X100.275Y-57.3
X100.41Y-106.378
X105.05Y-76.4
X112.31Y-114.618
X114.6Y-95.5
X119.375Y-57.3
X124.15Y-76.4
X124.21Y-106.378
X133.7Y-95.5
X138.475Y-57.3
X143.25Y-76.4
X143.26Y-114.65
X145.637Y-114.61
X152.8Y-95.5
X157.575Y-57.3
X162.35Y-76.4
X167.08Y-106.35
X171.9Y-95.5
X176.675Y-57.3
X178.98Y-114.59
X181.45Y-76.4
X190.88Y-106.35
X191.0Y-95.5
X195.637Y-106.37
X195.775Y-57.3
X200.55Y-76.4
X210.1Y-95.5
X214.875Y-57.3
X217.262Y-114.6
X219.65Y-76.4
X229.2Y-95.5
X233.975Y-57.3
X238.75Y-76.4
X238.75Y-114.6
X238.787Y-84.64
X250.688Y-76.4
X255.462Y-95.5
X257.85Y-57.3
X260.238Y-76.4
X260.238Y-114.6
X262.587Y-84.64
T1
X228.555Y-35.163G85X228.555Y-36.462
G05
X239.755Y-35.163G85X239.755Y-36.462
G05
X257.025Y-34.777G85X257.025Y-36.077
G05
X268.225Y-34.777G85X268.225Y-36.077
G05
T0
M30
