  0
SECTION
  2
HEADER
  9
$ANGBASE
  50
0.0
  9
$ANGDIR
  70
1
  9
$MEASUREMENT
  70
1
  0
ENDSEC
  0
SECTION
  2
TABLES
  0
TABLE
  2
LTYPE
  70
4
  0
LTYPE
  5
40F
  2
CONTINUOUS
  70
0
  3
Solid line
  72
65
  73
0
  40
0.0
  0
LTYPE
  5
410
  2
DASHDOT
 70
0
  3
Dash Dot ____ _ ____ _
 72
65
 73
4
 40
2.0
 49
1.25
 49
-0.25
 49
0.25
 49
-0.25
  0
LTYPE
  5
411
  2
DASHED
 70
0
  3
Dashed __ __ __ __ __
 72
65
 73
2
 40
0.75
 49
0.5
 49
-0.25
  0
LTYPE
  5
43B
  2
DOTTED
 70
0
  3
Dotted .  .  .  .
 72
65
 73
2
 40
0.2
 49
0.0
 49
-0.2
  0
ENDTAB
  0
TABLE
  2
STYLE
  70
4
  0
STYLE
  2
KICAD
  70
0
  40
0
  41
1
  42
1
  50
0
  71
0
  3
isocp.shx
  0
STYLE
  2
KICADB
  70
0
  40
0
  41
1
  42
1
  50
0
  71
0
  3
isocp.shx
  0
STYLE
  2
KICADI
  70
0
  40
0
  41
1
  42
1
  50
15
  71
0
  3
isocp.shx
  0
STYLE
  2
KICADBI
  70
0
  40
0
  41
1
  42
1
  50
15
  71
0
  3
isocp.shx
  0
ENDTAB
  0
TABLE
  2
LAYER
  70
1
  0
LAYER
  2
BLACK
  70
0
  62
7
  6
CONTINUOUS
  0
ENDTAB
  0
ENDSEC
  0
SECTION
  2
ENTITIES
0
ARC
8
BLACK
10
28.65
20
-29.15
40
4.775
50
90
51
180
0
ARC
8
BLACK
10
267.4
20
-29.15
40
4.775
50
-0
51
90
0
LINE
8
BLACK
6
CONTINUOUS
10
267.4
20
-24.375
11
28.65
21
-24.375
0
LINE
8
BLACK
6
CONTINUOUS
10
23.875
20
-31.0375
11
23.875
21
-124.15
0
LINE
8
BLACK
6
CONTINUOUS
10
272.175
20
-29.15
11
272.175
21
-124.15
0
LINE
8
BLACK
6
CONTINUOUS
10
272.175
20
-124.15
11
23.875
21
-124.15
0
LINE
8
BLACK
6
CONTINUOUS
10
23.875
20
-31.0375
11
23.875
21
-29.15
0
LINE
8
BLACK
6
CONTINUOUS
10
46.9729
20
-30.0214
11
47.3729
21
-30.4214
0
LINE
8
BLACK
6
CONTINUOUS
10
47.3729
20
-30.0214
11
46.9729
21
-30.4214
0
LINE
8
BLACK
6
CONTINUOUS
10
47.55
20
-30.8375
11
47.95
21
-31.2375
0
LINE
8
BLACK
6
CONTINUOUS
10
47.95
20
-30.8375
11
47.55
21
-31.2375
0
LINE
8
BLACK
6
CONTINUOUS
10
69.0375
20
-36.0975
11
69.4375
21
-36.4975
0
LINE
8
BLACK
6
CONTINUOUS
10
69.4375
20
-36.0975
11
69.0375
21
-36.4975
0
LINE
8
BLACK
6
CONTINUOUS
10
174.088
20
-45.1625
11
174.487
21
-45.5625
0
LINE
8
BLACK
6
CONTINUOUS
10
174.487
20
-45.1625
11
174.088
21
-45.5625
0
LINE
8
BLACK
6
CONTINUOUS
10
186.025
20
-45.1625
11
186.425
21
-45.5625
0
LINE
8
BLACK
6
CONTINUOUS
10
186.425
20
-45.1625
11
186.025
21
-45.5625
0
LINE
8
BLACK
6
CONTINUOUS
10
186.025
20
-52.325
11
186.425
21
-52.725
0
LINE
8
BLACK
6
CONTINUOUS
10
186.425
20
-52.325
11
186.025
21
-52.725
0
LINE
8
BLACK
6
CONTINUOUS
10
231.387
20
-30.8375
11
231.787
21
-31.2375
0
LINE
8
BLACK
6
CONTINUOUS
10
231.787
20
-30.8375
11
231.387
21
-31.2375
0
LINE
8
BLACK
6
CONTINUOUS
10
231.387
20
-47.55
11
231.787
21
-47.95
0
LINE
8
BLACK
6
CONTINUOUS
10
231.787
20
-47.55
11
231.387
21
-47.95
0
CIRCLE
8
BLACK
10
63.04
20
-28.65
40
0.4953
0
CIRCLE
8
BLACK
10
65.4275
20
-33.425
40
0.4953
0
CIRCLE
8
BLACK
10
67.815
20
-38.2
40
0.4953
0
CIRCLE
8
BLACK
10
70.2025
20
-42.975
40
0.4953
0
CIRCLE
8
BLACK
10
70.66
20
-28.65
40
0.4953
0
CIRCLE
8
BLACK
10
73.0475
20
-33.425
40
0.4953
0
CIRCLE
8
BLACK
10
74.9775
20
-28.65
40
0.4953
0
CIRCLE
8
BLACK
10
75.435
20
-38.2
40
0.4953
0
CIRCLE
8
BLACK
10
77.365
20
-33.425
40
0.4953
0
CIRCLE
8
BLACK
10
77.8225
20
-42.975
40
0.4953
0
CIRCLE
8
BLACK
10
79.7525
20
-38.2
40
0.4953
0
CIRCLE
8
BLACK
10
82.14
20
-42.975
40
0.4953
0
CIRCLE
8
BLACK
10
82.5975
20
-28.65
40
0.4953
0
CIRCLE
8
BLACK
10
84.985
20
-33.425
40
0.4953
0
CIRCLE
8
BLACK
10
86.915
20
-28.65
40
0.4953
0
CIRCLE
8
BLACK
10
87.3725
20
-38.2
40
0.4953
0
CIRCLE
8
BLACK
10
89.3025
20
-33.425
40
0.4953
0
CIRCLE
8
BLACK
10
89.76
20
-42.975
40
0.4953
0
CIRCLE
8
BLACK
10
91.69
20
-38.2
40
0.4953
0
CIRCLE
8
BLACK
10
94.0775
20
-42.975
40
0.4953
0
CIRCLE
8
BLACK
10
94.535
20
-28.65
40
0.4953
0
CIRCLE
8
BLACK
10
96.9225
20
-33.425
40
0.4953
0
CIRCLE
8
BLACK
10
98.8525
20
-28.65
40
0.4953
0
CIRCLE
8
BLACK
10
99.31
20
-38.2
40
0.4953
0
CIRCLE
8
BLACK
10
101.24
20
-33.425
40
0.4953
0
CIRCLE
8
BLACK
10
101.697
20
-42.975
40
0.4953
0
CIRCLE
8
BLACK
10
103.627
20
-38.2
40
0.4953
0
CIRCLE
8
BLACK
10
106.472
20
-28.65
40
0.4953
0
CIRCLE
8
BLACK
10
108.86
20
-33.425
40
0.4953
0
CIRCLE
8
BLACK
10
110.79
20
-28.65
40
0.4953
0
CIRCLE
8
BLACK
10
111.247
20
-38.2
40
0.4953
0
CIRCLE
8
BLACK
10
113.177
20
-33.425
40
0.4953
0
CIRCLE
8
BLACK
10
115.565
20
-38.2
40
0.4953
0
CIRCLE
8
BLACK
10
117.953
20
-42.975
40
0.4953
0
CIRCLE
8
BLACK
10
118.41
20
-28.65
40
0.4953
0
CIRCLE
8
BLACK
10
120.797
20
-33.425
40
0.4953
0
CIRCLE
8
BLACK
10
122.727
20
-28.65
40
0.4953
0
CIRCLE
8
BLACK
10
123.185
20
-38.2
40
0.4953
0
CIRCLE
8
BLACK
10
125.115
20
-33.425
40
0.4953
0
CIRCLE
8
BLACK
10
125.572
20
-42.975
40
0.4953
0
CIRCLE
8
BLACK
10
127.502
20
-38.2
40
0.4953
0
CIRCLE
8
BLACK
10
129.89
20
-42.975
40
0.4953
0
CIRCLE
8
BLACK
10
130.347
20
-28.65
40
0.4953
0
CIRCLE
8
BLACK
10
132.735
20
-33.425
40
0.4953
0
CIRCLE
8
BLACK
10
134.665
20
-28.65
40
0.4953
0
CIRCLE
8
BLACK
10
135.123
20
-38.2
40
0.4953
0
CIRCLE
8
BLACK
10
137.052
20
-33.425
40
0.4953
0
CIRCLE
8
BLACK
10
137.51
20
-42.975
40
0.4953
0
CIRCLE
8
BLACK
10
139.44
20
-38.2
40
0.4953
0
CIRCLE
8
BLACK
10
141.827
20
-42.975
40
0.4953
0
CIRCLE
8
BLACK
10
142.285
20
-28.65
40
0.4953
0
CIRCLE
8
BLACK
10
144.672
20
-33.425
40
0.4953
0
CIRCLE
8
BLACK
10
146.602
20
-28.65
40
0.4953
0
CIRCLE
8
BLACK
10
147.06
20
-38.2
40
0.4953
0
CIRCLE
8
BLACK
10
148.99
20
-33.425
40
0.4953
0
CIRCLE
8
BLACK
10
149.447
20
-42.975
40
0.4953
0
CIRCLE
8
BLACK
10
151.377
20
-38.2
40
0.4953
0
CIRCLE
8
BLACK
10
153.765
20
-42.975
40
0.4953
0
CIRCLE
8
BLACK
10
154.222
20
-28.65
40
0.4953
0
CIRCLE
8
BLACK
10
156.61
20
-33.425
40
0.4953
0
CIRCLE
8
BLACK
10
158.54
20
-28.65
40
0.4953
0
CIRCLE
8
BLACK
10
158.998
20
-38.2
40
0.4953
0
CIRCLE
8
BLACK
10
160.927
20
-33.425
40
0.4953
0
CIRCLE
8
BLACK
10
161.385
20
-42.975
40
0.4953
0
CIRCLE
8
BLACK
10
163.315
20
-38.2
40
0.4953
0
CIRCLE
8
BLACK
10
165.702
20
-42.975
40
0.4953
0
CIRCLE
8
BLACK
10
166.16
20
-28.65
40
0.4953
0
CIRCLE
8
BLACK
10
168.547
20
-33.425
40
0.4953
0
CIRCLE
8
BLACK
10
170.477
20
-28.65
40
0.4953
0
CIRCLE
8
BLACK
10
170.935
20
-38.2
40
0.4953
0
CIRCLE
8
BLACK
10
172.865
20
-33.425
40
0.4953
0
CIRCLE
8
BLACK
10
173.322
20
-42.975
40
0.4953
0
CIRCLE
8
BLACK
10
175.252
20
-38.2
40
0.4953
0
CIRCLE
8
BLACK
10
177.64
20
-42.975
40
0.4953
0
CIRCLE
8
BLACK
10
178.097
20
-28.65
40
0.4953
0
CIRCLE
8
BLACK
10
180.485
20
-33.425
40
0.4953
0
CIRCLE
8
BLACK
10
182.415
20
-28.65
40
0.4953
0
CIRCLE
8
BLACK
10
182.873
20
-38.2
40
0.4953
0
CIRCLE
8
BLACK
10
184.802
20
-33.425
40
0.4953
0
CIRCLE
8
BLACK
10
185.26
20
-42.975
40
0.4953
0
CIRCLE
8
BLACK
10
187.19
20
-38.2
40
0.4953
0
CIRCLE
8
BLACK
10
189.577
20
-42.975
40
0.4953
0
CIRCLE
8
BLACK
10
190.035
20
-28.65
40
0.4953
0
CIRCLE
8
BLACK
10
192.422
20
-33.425
40
0.4953
0
CIRCLE
8
BLACK
10
194.352
20
-28.65
40
0.4953
0
CIRCLE
8
BLACK
10
194.81
20
-38.2
40
0.4953
0
CIRCLE
8
BLACK
10
196.74
20
-33.425
40
0.4953
0
CIRCLE
8
BLACK
10
197.197
20
-42.975
40
0.4953
0
CIRCLE
8
BLACK
10
199.127
20
-38.2
40
0.4953
0
CIRCLE
8
BLACK
10
201.515
20
-42.975
40
0.4953
0
CIRCLE
8
BLACK
10
201.972
20
-28.65
40
0.4953
0
CIRCLE
8
BLACK
10
204.36
20
-33.425
40
0.4953
0
CIRCLE
8
BLACK
10
206.748
20
-38.2
40
0.4953
0
CIRCLE
8
BLACK
10
209.135
20
-42.975
40
0.4953
0
LINE
8
BLACK
6
CONTINUOUS
10
212.487
20
-32.4675
11
212.487
21
-33.4675
0
LINE
8
BLACK
6
CONTINUOUS
10
211.987
20
-32.9675
11
212.987
21
-32.9675
0
LINE
8
BLACK
6
CONTINUOUS
10
212.487
20
-35.0075
11
212.487
21
-36.0075
0
LINE
8
BLACK
6
CONTINUOUS
10
211.987
20
-35.5075
11
212.987
21
-35.5075
0
LINE
8
BLACK
6
CONTINUOUS
10
212.487
20
-37.5475
11
212.487
21
-38.5475
0
LINE
8
BLACK
6
CONTINUOUS
10
211.987
20
-38.0475
11
212.987
21
-38.0475
0
LINE
8
BLACK
6
CONTINUOUS
10
212.487
20
-40.0875
11
212.487
21
-41.0875
0
LINE
8
BLACK
6
CONTINUOUS
10
211.987
20
-40.5875
11
212.987
21
-40.5875
0
LINE
8
BLACK
6
CONTINUOUS
10
231.655
20
-27.8125
11
231.655
21
-28.8125
0
LINE
8
BLACK
6
CONTINUOUS
10
231.155
20
-28.3125
11
232.155
21
-28.3125
0
LINE
8
BLACK
6
CONTINUOUS
10
231.655
20
-42.3125
11
231.655
21
-43.3125
0
LINE
8
BLACK
6
CONTINUOUS
10
231.155
20
-42.8125
11
232.155
21
-42.8125
0
LINE
8
BLACK
6
CONTINUOUS
10
234.155
20
-27.8125
11
234.155
21
-28.8125
0
LINE
8
BLACK
6
CONTINUOUS
10
233.655
20
-28.3125
11
234.655
21
-28.3125
0
LINE
8
BLACK
6
CONTINUOUS
10
236.655
20
-27.8125
11
236.655
21
-28.8125
0
LINE
8
BLACK
6
CONTINUOUS
10
236.155
20
-28.3125
11
237.155
21
-28.3125
0
LINE
8
BLACK
6
CONTINUOUS
10
236.655
20
-42.3125
11
236.655
21
-43.3125
0
LINE
8
BLACK
6
CONTINUOUS
10
236.155
20
-42.8125
11
237.155
21
-42.8125
0
LINE
8
BLACK
6
CONTINUOUS
10
260.125
20
-27.427
11
260.125
21
-28.427
0
LINE
8
BLACK
6
CONTINUOUS
10
259.625
20
-27.927
11
260.625
21
-27.927
0
LINE
8
BLACK
6
CONTINUOUS
10
260.125
20
-41.927
11
260.125
21
-42.927
0
LINE
8
BLACK
6
CONTINUOUS
10
259.625
20
-42.427
11
260.625
21
-42.427
0
LINE
8
BLACK
6
CONTINUOUS
10
262.625
20
-27.427
11
262.625
21
-28.427
0
LINE
8
BLACK
6
CONTINUOUS
10
262.125
20
-27.927
11
263.125
21
-27.927
0
LINE
8
BLACK
6
CONTINUOUS
10
265.125
20
-27.427
11
265.125
21
-28.427
0
LINE
8
BLACK
6
CONTINUOUS
10
264.625
20
-27.927
11
265.625
21
-27.927
0
LINE
8
BLACK
6
CONTINUOUS
10
265.125
20
-41.927
11
265.125
21
-42.927
0
LINE
8
BLACK
6
CONTINUOUS
10
264.625
20
-42.427
11
265.625
21
-42.427
0
LINE
8
BLACK
6
CONTINUOUS
10
29.3912
20
-28.3501
11
29.3912
21
-27.5777
0
LINE
8
BLACK
6
CONTINUOUS
10
29.3912
20
-27.5777
11
28.6188
21
-27.5777
0
LINE
8
BLACK
6
CONTINUOUS
10
28.6188
20
-27.5777
11
28.6188
21
-28.3501
0
LINE
8
BLACK
6
CONTINUOUS
10
28.6188
20
-28.3501
11
29.3912
21
-28.3501
0
LINE
8
BLACK
6
CONTINUOUS
10
29.3912
20
-44.0473
11
29.3912
21
-43.2749
0
LINE
8
BLACK
6
CONTINUOUS
10
29.3912
20
-43.2749
11
28.6188
21
-43.2749
0
LINE
8
BLACK
6
CONTINUOUS
10
28.6188
20
-43.2749
11
28.6188
21
-44.0473
0
LINE
8
BLACK
6
CONTINUOUS
10
28.6188
20
-44.0473
11
29.3912
21
-44.0473
0
LINE
8
BLACK
6
CONTINUOUS
10
31.9312
20
-28.8073
11
31.9312
21
-28.0349
0
LINE
8
BLACK
6
CONTINUOUS
10
31.9312
20
-28.0349
11
31.1588
21
-28.0349
0
LINE
8
BLACK
6
CONTINUOUS
10
31.1588
20
-28.0349
11
31.1588
21
-28.8073
0
LINE
8
BLACK
6
CONTINUOUS
10
31.1588
20
-28.8073
11
31.9312
21
-28.8073
0
LINE
8
BLACK
6
CONTINUOUS
10
31.9312
20
-43.5901
11
31.9312
21
-42.8177
0
LINE
8
BLACK
6
CONTINUOUS
10
31.9312
20
-42.8177
11
31.1588
21
-42.8177
0
LINE
8
BLACK
6
CONTINUOUS
10
31.1588
20
-42.8177
11
31.1588
21
-43.5901
0
LINE
8
BLACK
6
CONTINUOUS
10
31.1588
20
-43.5901
11
31.9312
21
-43.5901
0
LINE
8
BLACK
6
CONTINUOUS
10
34.4712
20
-28.3501
11
34.4712
21
-27.5777
0
LINE
8
BLACK
6
CONTINUOUS
10
34.4712
20
-27.5777
11
33.6988
21
-27.5777
0
LINE
8
BLACK
6
CONTINUOUS
10
33.6988
20
-27.5777
11
33.6988
21
-28.3501
0
LINE
8
BLACK
6
CONTINUOUS
10
33.6988
20
-28.3501
11
34.4712
21
-28.3501
0
LINE
8
BLACK
6
CONTINUOUS
10
34.4712
20
-44.0473
11
34.4712
21
-43.2749
0
LINE
8
BLACK
6
CONTINUOUS
10
34.4712
20
-43.2749
11
33.6988
21
-43.2749
0
LINE
8
BLACK
6
CONTINUOUS
10
33.6988
20
-43.2749
11
33.6988
21
-44.0473
0
LINE
8
BLACK
6
CONTINUOUS
10
33.6988
20
-44.0473
11
34.4712
21
-44.0473
0
LINE
8
BLACK
6
CONTINUOUS
10
37.0112
20
-28.8073
11
37.0112
21
-28.0349
0
LINE
8
BLACK
6
CONTINUOUS
10
37.0112
20
-28.0349
11
36.2388
21
-28.0349
0
LINE
8
BLACK
6
CONTINUOUS
10
36.2388
20
-28.0349
11
36.2388
21
-28.8073
0
LINE
8
BLACK
6
CONTINUOUS
10
36.2388
20
-28.8073
11
37.0112
21
-28.8073
0
LINE
8
BLACK
6
CONTINUOUS
10
37.0112
20
-43.5901
11
37.0112
21
-42.8177
0
LINE
8
BLACK
6
CONTINUOUS
10
37.0112
20
-42.8177
11
36.2388
21
-42.8177
0
LINE
8
BLACK
6
CONTINUOUS
10
36.2388
20
-42.8177
11
36.2388
21
-43.5901
0
LINE
8
BLACK
6
CONTINUOUS
10
36.2388
20
-43.5901
11
37.0112
21
-43.5901
0
LINE
8
BLACK
6
CONTINUOUS
10
39.5512
20
-28.3501
11
39.5512
21
-27.5777
0
LINE
8
BLACK
6
CONTINUOUS
10
39.5512
20
-27.5777
11
38.7788
21
-27.5777
0
LINE
8
BLACK
6
CONTINUOUS
10
38.7788
20
-27.5777
11
38.7788
21
-28.3501
0
LINE
8
BLACK
6
CONTINUOUS
10
38.7788
20
-28.3501
11
39.5512
21
-28.3501
0
LINE
8
BLACK
6
CONTINUOUS
10
39.5512
20
-44.0473
11
39.5512
21
-43.2749
0
LINE
8
BLACK
6
CONTINUOUS
10
39.5512
20
-43.2749
11
38.7788
21
-43.2749
0
LINE
8
BLACK
6
CONTINUOUS
10
38.7788
20
-43.2749
11
38.7788
21
-44.0473
0
LINE
8
BLACK
6
CONTINUOUS
10
38.7788
20
-44.0473
11
39.5512
21
-44.0473
0
LINE
8
BLACK
6
CONTINUOUS
10
42.0912
20
-28.8073
11
42.0912
21
-28.0349
0
LINE
8
BLACK
6
CONTINUOUS
10
42.0912
20
-28.0349
11
41.3188
21
-28.0349
0
LINE
8
BLACK
6
CONTINUOUS
10
41.3188
20
-28.0349
11
41.3188
21
-28.8073
0
LINE
8
BLACK
6
CONTINUOUS
10
41.3188
20
-28.8073
11
42.0912
21
-28.8073
0
LINE
8
BLACK
6
CONTINUOUS
10
42.0912
20
-43.5901
11
42.0912
21
-42.8177
0
LINE
8
BLACK
6
CONTINUOUS
10
42.0912
20
-42.8177
11
41.3188
21
-42.8177
0
LINE
8
BLACK
6
CONTINUOUS
10
41.3188
20
-42.8177
11
41.3188
21
-43.5901
0
LINE
8
BLACK
6
CONTINUOUS
10
41.3188
20
-43.5901
11
42.0912
21
-43.5901
0
LINE
8
BLACK
6
CONTINUOUS
10
44.6312
20
-28.3501
11
44.6312
21
-27.5777
0
LINE
8
BLACK
6
CONTINUOUS
10
44.6312
20
-27.5777
11
43.8588
21
-27.5777
0
LINE
8
BLACK
6
CONTINUOUS
10
43.8588
20
-27.5777
11
43.8588
21
-28.3501
0
LINE
8
BLACK
6
CONTINUOUS
10
43.8588
20
-28.3501
11
44.6312
21
-28.3501
0
LINE
8
BLACK
6
CONTINUOUS
10
44.6312
20
-44.0473
11
44.6312
21
-43.2749
0
LINE
8
BLACK
6
CONTINUOUS
10
44.6312
20
-43.2749
11
43.8588
21
-43.2749
0
LINE
8
BLACK
6
CONTINUOUS
10
43.8588
20
-43.2749
11
43.8588
21
-44.0473
0
LINE
8
BLACK
6
CONTINUOUS
10
43.8588
20
-44.0473
11
44.6312
21
-44.0473
0
LINE
8
BLACK
6
CONTINUOUS
10
47.1712
20
-28.8073
11
47.1712
21
-28.0349
0
LINE
8
BLACK
6
CONTINUOUS
10
47.1712
20
-28.0349
11
46.3988
21
-28.0349
0
LINE
8
BLACK
6
CONTINUOUS
10
46.3988
20
-28.0349
11
46.3988
21
-28.8073
0
LINE
8
BLACK
6
CONTINUOUS
10
46.3988
20
-28.8073
11
47.1712
21
-28.8073
0
LINE
8
BLACK
6
CONTINUOUS
10
47.1712
20
-43.5901
11
47.1712
21
-42.8177
0
LINE
8
BLACK
6
CONTINUOUS
10
47.1712
20
-42.8177
11
46.3988
21
-42.8177
0
LINE
8
BLACK
6
CONTINUOUS
10
46.3988
20
-42.8177
11
46.3988
21
-43.5901
0
LINE
8
BLACK
6
CONTINUOUS
10
46.3988
20
-43.5901
11
47.1712
21
-43.5901
0
LINE
8
BLACK
6
CONTINUOUS
10
49.7112
20
-28.3501
11
49.7112
21
-27.5777
0
LINE
8
BLACK
6
CONTINUOUS
10
49.7112
20
-27.5777
11
48.9388
21
-27.5777
0
LINE
8
BLACK
6
CONTINUOUS
10
48.9388
20
-27.5777
11
48.9388
21
-28.3501
0
LINE
8
BLACK
6
CONTINUOUS
10
48.9388
20
-28.3501
11
49.7112
21
-28.3501
0
LINE
8
BLACK
6
CONTINUOUS
10
49.7112
20
-44.0473
11
49.7112
21
-43.2749
0
LINE
8
BLACK
6
CONTINUOUS
10
49.7112
20
-43.2749
11
48.9388
21
-43.2749
0
LINE
8
BLACK
6
CONTINUOUS
10
48.9388
20
-43.2749
11
48.9388
21
-44.0473
0
LINE
8
BLACK
6
CONTINUOUS
10
48.9388
20
-44.0473
11
49.7112
21
-44.0473
0
LINE
8
BLACK
6
CONTINUOUS
10
52.2512
20
-28.8073
11
52.2512
21
-28.0349
0
LINE
8
BLACK
6
CONTINUOUS
10
52.2512
20
-28.0349
11
51.4788
21
-28.0349
0
LINE
8
BLACK
6
CONTINUOUS
10
51.4788
20
-28.0349
11
51.4788
21
-28.8073
0
LINE
8
BLACK
6
CONTINUOUS
10
51.4788
20
-28.8073
11
52.2512
21
-28.8073
0
LINE
8
BLACK
6
CONTINUOUS
10
52.2512
20
-43.5901
11
52.2512
21
-42.8177
0
LINE
8
BLACK
6
CONTINUOUS
10
52.2512
20
-42.8177
11
51.4788
21
-42.8177
0
LINE
8
BLACK
6
CONTINUOUS
10
51.4788
20
-42.8177
11
51.4788
21
-43.5901
0
LINE
8
BLACK
6
CONTINUOUS
10
51.4788
20
-43.5901
11
52.2512
21
-43.5901
0
LINE
8
BLACK
6
CONTINUOUS
10
54.7912
20
-28.3501
11
54.7912
21
-27.5777
0
LINE
8
BLACK
6
CONTINUOUS
10
54.7912
20
-27.5777
11
54.0188
21
-27.5777
0
LINE
8
BLACK
6
CONTINUOUS
10
54.0188
20
-27.5777
11
54.0188
21
-28.3501
0
LINE
8
BLACK
6
CONTINUOUS
10
54.0188
20
-28.3501
11
54.7912
21
-28.3501
0
LINE
8
BLACK
6
CONTINUOUS
10
54.7912
20
-44.0473
11
54.7912
21
-43.2749
0
LINE
8
BLACK
6
CONTINUOUS
10
54.7912
20
-43.2749
11
54.0188
21
-43.2749
0
LINE
8
BLACK
6
CONTINUOUS
10
54.0188
20
-43.2749
11
54.0188
21
-44.0473
0
LINE
8
BLACK
6
CONTINUOUS
10
54.0188
20
-44.0473
11
54.7912
21
-44.0473
0
LINE
8
BLACK
6
CONTINUOUS
10
57.3312
20
-28.8073
11
57.3312
21
-28.0349
0
LINE
8
BLACK
6
CONTINUOUS
10
57.3312
20
-28.0349
11
56.5588
21
-28.0349
0
LINE
8
BLACK
6
CONTINUOUS
10
56.5588
20
-28.0349
11
56.5588
21
-28.8073
0
LINE
8
BLACK
6
CONTINUOUS
10
56.5588
20
-28.8073
11
57.3312
21
-28.8073
0
LINE
8
BLACK
6
CONTINUOUS
10
57.3312
20
-43.5901
11
57.3312
21
-42.8177
0
LINE
8
BLACK
6
CONTINUOUS
10
57.3312
20
-42.8177
11
56.5588
21
-42.8177
0
LINE
8
BLACK
6
CONTINUOUS
10
56.5588
20
-42.8177
11
56.5588
21
-43.5901
0
LINE
8
BLACK
6
CONTINUOUS
10
56.5588
20
-43.5901
11
57.3312
21
-43.5901
0
LINE
8
BLACK
6
CONTINUOUS
10
31.85
20
-74.61
11
32.6
21
-73.86
0
LINE
8
BLACK
6
CONTINUOUS
10
32.6
20
-73.86
11
31.85
21
-73.11
0
LINE
8
BLACK
6
CONTINUOUS
10
31.85
20
-73.11
11
31.1
21
-73.86
0
LINE
8
BLACK
6
CONTINUOUS
10
31.1
20
-73.86
11
31.85
21
-74.61
0
LINE
8
BLACK
6
CONTINUOUS
10
32.0025
20
-93.71
11
32.7525
21
-92.96
0
LINE
8
BLACK
6
CONTINUOUS
10
32.7525
20
-92.96
11
32.0025
21
-92.21
0
LINE
8
BLACK
6
CONTINUOUS
10
32.0025
20
-92.21
11
31.2525
21
-92.96
0
LINE
8
BLACK
6
CONTINUOUS
10
31.2525
20
-92.96
11
32.0025
21
-93.71
0
LINE
8
BLACK
6
CONTINUOUS
10
32.0025
20
-112.81
11
32.7525
21
-112.06
0
LINE
8
BLACK
6
CONTINUOUS
10
32.7525
20
-112.06
11
32.0025
21
-111.31
0
LINE
8
BLACK
6
CONTINUOUS
10
32.0025
20
-111.31
11
31.2525
21
-112.06
0
LINE
8
BLACK
6
CONTINUOUS
10
31.2525
20
-112.06
11
32.0025
21
-112.81
0
LINE
8
BLACK
6
CONTINUOUS
10
34.39
20
-55.51
11
35.14
21
-54.76
0
LINE
8
BLACK
6
CONTINUOUS
10
35.14
20
-54.76
11
34.39
21
-54.01
0
LINE
8
BLACK
6
CONTINUOUS
10
34.39
20
-54.01
11
33.64
21
-54.76
0
LINE
8
BLACK
6
CONTINUOUS
10
33.64
20
-54.76
11
34.39
21
-55.51
0
LINE
8
BLACK
6
CONTINUOUS
10
36.7775
20
-74.61
11
37.5275
21
-73.86
0
LINE
8
BLACK
6
CONTINUOUS
10
37.5275
20
-73.86
11
36.7775
21
-73.11
0
LINE
8
BLACK
6
CONTINUOUS
10
36.7775
20
-73.11
11
36.0275
21
-73.86
0
LINE
8
BLACK
6
CONTINUOUS
10
36.0275
20
-73.86
11
36.7775
21
-74.61
0
LINE
8
BLACK
6
CONTINUOUS
10
38.2
20
-72.07
11
38.95
21
-71.32
0
LINE
8
BLACK
6
CONTINUOUS
10
38.95
20
-71.32
11
38.2
21
-70.57
0
LINE
8
BLACK
6
CONTINUOUS
10
38.2
20
-70.57
11
37.45
21
-71.32
0
LINE
8
BLACK
6
CONTINUOUS
10
37.45
20
-71.32
11
38.2
21
-72.07
0
LINE
8
BLACK
6
CONTINUOUS
10
38.3525
20
-91.17
11
39.1025
21
-90.42
0
LINE
8
BLACK
6
CONTINUOUS
10
39.1025
20
-90.42
11
38.3525
21
-89.67
0
LINE
8
BLACK
6
CONTINUOUS
10
38.3525
20
-89.67
11
37.6025
21
-90.42
0
LINE
8
BLACK
6
CONTINUOUS
10
37.6025
20
-90.42
11
38.3525
21
-91.17
0
LINE
8
BLACK
6
CONTINUOUS
10
38.3525
20
-110.27
11
39.1025
21
-109.52
0
LINE
8
BLACK
6
CONTINUOUS
10
39.1025
20
-109.52
11
38.3525
21
-108.77
0
LINE
8
BLACK
6
CONTINUOUS
10
38.3525
20
-108.77
11
37.6025
21
-109.52
0
LINE
8
BLACK
6
CONTINUOUS
10
37.6025
20
-109.52
11
38.3525
21
-110.27
0
LINE
8
BLACK
6
CONTINUOUS
10
40.74
20
-52.97
11
41.49
21
-52.22
0
LINE
8
BLACK
6
CONTINUOUS
10
41.49
20
-52.22
11
40.74
21
-51.47
0
LINE
8
BLACK
6
CONTINUOUS
10
40.74
20
-51.47
11
39.99
21
-52.22
0
LINE
8
BLACK
6
CONTINUOUS
10
39.99
20
-52.22
11
40.74
21
-52.97
0
LINE
8
BLACK
6
CONTINUOUS
10
41.5525
20
-93.69
11
42.3025
21
-92.94
0
LINE
8
BLACK
6
CONTINUOUS
10
42.3025
20
-92.94
11
41.5525
21
-92.19
0
LINE
8
BLACK
6
CONTINUOUS
10
41.5525
20
-92.19
11
40.8025
21
-92.94
0
LINE
8
BLACK
6
CONTINUOUS
10
40.8025
20
-92.94
11
41.5525
21
-93.69
0
LINE
8
BLACK
6
CONTINUOUS
10
43.1275
20
-72.07
11
43.8775
21
-71.32
0
LINE
8
BLACK
6
CONTINUOUS
10
43.8775
20
-71.32
11
43.1275
21
-70.57
0
LINE
8
BLACK
6
CONTINUOUS
10
43.1275
20
-70.57
11
42.3775
21
-71.32
0
LINE
8
BLACK
6
CONTINUOUS
10
42.3775
20
-71.32
11
43.1275
21
-72.07
0
LINE
8
BLACK
6
CONTINUOUS
10
47.9025
20
-91.15
11
48.6525
21
-90.4
0
LINE
8
BLACK
6
CONTINUOUS
10
48.6525
20
-90.4
11
47.9025
21
-89.65
0
LINE
8
BLACK
6
CONTINUOUS
10
47.9025
20
-89.65
11
47.1525
21
-90.4
0
LINE
8
BLACK
6
CONTINUOUS
10
47.1525
20
-90.4
11
47.9025
21
-91.15
0
LINE
8
BLACK
6
CONTINUOUS
10
53.49
20
-93.71
11
54.24
21
-92.96
0
LINE
8
BLACK
6
CONTINUOUS
10
54.24
20
-92.96
11
53.49
21
-92.21
0
LINE
8
BLACK
6
CONTINUOUS
10
53.49
20
-92.21
11
52.74
21
-92.96
0
LINE
8
BLACK
6
CONTINUOUS
10
52.74
20
-92.96
11
53.49
21
-93.71
0
LINE
8
BLACK
6
CONTINUOUS
10
53.49
20
-112.81
11
54.24
21
-112.06
0
LINE
8
BLACK
6
CONTINUOUS
10
54.24
20
-112.06
11
53.49
21
-111.31
0
LINE
8
BLACK
6
CONTINUOUS
10
53.49
20
-111.31
11
52.74
21
-112.06
0
LINE
8
BLACK
6
CONTINUOUS
10
52.74
20
-112.06
11
53.49
21
-112.81
0
LINE
8
BLACK
6
CONTINUOUS
10
58.265
20
-55.51
11
59.015
21
-54.76
0
LINE
8
BLACK
6
CONTINUOUS
10
59.015
20
-54.76
11
58.265
21
-54.01
0
LINE
8
BLACK
6
CONTINUOUS
10
58.265
20
-54.01
11
57.515
21
-54.76
0
LINE
8
BLACK
6
CONTINUOUS
10
57.515
20
-54.76
11
58.265
21
-55.51
0
LINE
8
BLACK
6
CONTINUOUS
10
59.84
20
-91.17
11
60.59
21
-90.42
0
LINE
8
BLACK
6
CONTINUOUS
10
60.59
20
-90.42
11
59.84
21
-89.67
0
LINE
8
BLACK
6
CONTINUOUS
10
59.84
20
-89.67
11
59.09
21
-90.42
0
LINE
8
BLACK
6
CONTINUOUS
10
59.09
20
-90.42
11
59.84
21
-91.17
0
LINE
8
BLACK
6
CONTINUOUS
10
59.84
20
-110.27
11
60.59
21
-109.52
0
LINE
8
BLACK
6
CONTINUOUS
10
60.59
20
-109.52
11
59.84
21
-108.77
0
LINE
8
BLACK
6
CONTINUOUS
10
59.84
20
-108.77
11
59.09
21
-109.52
0
LINE
8
BLACK
6
CONTINUOUS
10
59.09
20
-109.52
11
59.84
21
-110.27
0
LINE
8
BLACK
6
CONTINUOUS
10
63.04
20
-74.61
11
63.79
21
-73.86
0
LINE
8
BLACK
6
CONTINUOUS
10
63.79
20
-73.86
11
63.04
21
-73.11
0
LINE
8
BLACK
6
CONTINUOUS
10
63.04
20
-73.11
11
62.29
21
-73.86
0
LINE
8
BLACK
6
CONTINUOUS
10
62.29
20
-73.86
11
63.04
21
-74.61
0
LINE
8
BLACK
6
CONTINUOUS
10
64.615
20
-52.97
11
65.365
21
-52.22
0
LINE
8
BLACK
6
CONTINUOUS
10
65.365
20
-52.22
11
64.615
21
-51.47
0
LINE
8
BLACK
6
CONTINUOUS
10
64.615
20
-51.47
11
63.865
21
-52.22
0
LINE
8
BLACK
6
CONTINUOUS
10
63.865
20
-52.22
11
64.615
21
-52.97
0
LINE
8
BLACK
6
CONTINUOUS
10
69.39
20
-72.07
11
70.14
21
-71.32
0
LINE
8
BLACK
6
CONTINUOUS
10
70.14
20
-71.32
11
69.39
21
-70.57
0
LINE
8
BLACK
6
CONTINUOUS
10
69.39
20
-70.57
11
68.64
21
-71.32
0
LINE
8
BLACK
6
CONTINUOUS
10
68.64
20
-71.32
11
69.39
21
-72.07
0
LINE
8
BLACK
6
CONTINUOUS
10
72.59
20
-93.71
11
73.34
21
-92.96
0
LINE
8
BLACK
6
CONTINUOUS
10
73.34
20
-92.96
11
72.59
21
-92.21
0
LINE
8
BLACK
6
CONTINUOUS
10
72.59
20
-92.21
11
71.84
21
-92.96
0
LINE
8
BLACK
6
CONTINUOUS
10
71.84
20
-92.96
11
72.59
21
-93.71
0
LINE
8
BLACK
6
CONTINUOUS
10
72.59
20
-112.81
11
73.34
21
-112.06
0
LINE
8
BLACK
6
CONTINUOUS
10
73.34
20
-112.06
11
72.59
21
-111.31
0
LINE
8
BLACK
6
CONTINUOUS
10
72.59
20
-111.31
11
71.84
21
-112.06
0
LINE
8
BLACK
6
CONTINUOUS
10
71.84
20
-112.06
11
72.59
21
-112.81
0
LINE
8
BLACK
6
CONTINUOUS
10
74.9775
20
-112.81
11
75.7275
21
-112.06
0
LINE
8
BLACK
6
CONTINUOUS
10
75.7275
20
-112.06
11
74.9775
21
-111.31
0
LINE
8
BLACK
6
CONTINUOUS
10
74.9775
20
-111.31
11
74.2275
21
-112.06
0
LINE
8
BLACK
6
CONTINUOUS
10
74.2275
20
-112.06
11
74.9775
21
-112.81
0
LINE
8
BLACK
6
CONTINUOUS
10
77.365
20
-55.51
11
78.115
21
-54.76
0
LINE
8
BLACK
6
CONTINUOUS
10
78.115
20
-54.76
11
77.365
21
-54.01
0
LINE
8
BLACK
6
CONTINUOUS
10
77.365
20
-54.01
11
76.615
21
-54.76
0
LINE
8
BLACK
6
CONTINUOUS
10
76.615
20
-54.76
11
77.365
21
-55.51
0
LINE
8
BLACK
6
CONTINUOUS
10
78.94
20
-91.17
11
79.69
21
-90.42
0
LINE
8
BLACK
6
CONTINUOUS
10
79.69
20
-90.42
11
78.94
21
-89.67
0
LINE
8
BLACK
6
CONTINUOUS
10
78.94
20
-89.67
11
78.19
21
-90.42
0
LINE
8
BLACK
6
CONTINUOUS
10
78.19
20
-90.42
11
78.94
21
-91.17
0
LINE
8
BLACK
6
CONTINUOUS
10
78.94
20
-110.27
11
79.69
21
-109.52
0
LINE
8
BLACK
6
CONTINUOUS
10
79.69
20
-109.52
11
78.94
21
-108.77
0
LINE
8
BLACK
6
CONTINUOUS
10
78.94
20
-108.77
11
78.19
21
-109.52
0
LINE
8
BLACK
6
CONTINUOUS
10
78.19
20
-109.52
11
78.94
21
-110.27
0
LINE
8
BLACK
6
CONTINUOUS
10
81.3275
20
-110.27
11
82.0775
21
-109.52
0
LINE
8
BLACK
6
CONTINUOUS
10
82.0775
20
-109.52
11
81.3275
21
-108.77
0
LINE
8
BLACK
6
CONTINUOUS
10
81.3275
20
-108.77
11
80.5775
21
-109.52
0
LINE
8
BLACK
6
CONTINUOUS
10
80.5775
20
-109.52
11
81.3275
21
-110.27
0
LINE
8
BLACK
6
CONTINUOUS
10
82.14
20
-74.61
11
82.89
21
-73.86
0
LINE
8
BLACK
6
CONTINUOUS
10
82.89
20
-73.86
11
82.14
21
-73.11
0
LINE
8
BLACK
6
CONTINUOUS
10
82.14
20
-73.11
11
81.39
21
-73.86
0
LINE
8
BLACK
6
CONTINUOUS
10
81.39
20
-73.86
11
82.14
21
-74.61
0
LINE
8
BLACK
6
CONTINUOUS
10
83.715
20
-52.97
11
84.465
21
-52.22
0
LINE
8
BLACK
6
CONTINUOUS
10
84.465
20
-52.22
11
83.715
21
-51.47
0
LINE
8
BLACK
6
CONTINUOUS
10
83.715
20
-51.47
11
82.965
21
-52.22
0
LINE
8
BLACK
6
CONTINUOUS
10
82.965
20
-52.22
11
83.715
21
-52.97
0
LINE
8
BLACK
6
CONTINUOUS
10
88.49
20
-72.07
11
89.24
21
-71.32
0
LINE
8
BLACK
6
CONTINUOUS
10
89.24
20
-71.32
11
88.49
21
-70.57
0
LINE
8
BLACK
6
CONTINUOUS
10
88.49
20
-70.57
11
87.74
21
-71.32
0
LINE
8
BLACK
6
CONTINUOUS
10
87.74
20
-71.32
11
88.49
21
-72.07
0
LINE
8
BLACK
6
CONTINUOUS
10
91.69
20
-93.71
11
92.44
21
-92.96
0
LINE
8
BLACK
6
CONTINUOUS
10
92.44
20
-92.96
11
91.69
21
-92.21
0
LINE
8
BLACK
6
CONTINUOUS
10
91.69
20
-92.21
11
90.94
21
-92.96
0
LINE
8
BLACK
6
CONTINUOUS
10
90.94
20
-92.96
11
91.69
21
-93.71
0
LINE
8
BLACK
6
CONTINUOUS
10
96.465
20
-55.51
11
97.215
21
-54.76
0
LINE
8
BLACK
6
CONTINUOUS
10
97.215
20
-54.76
11
96.465
21
-54.01
0
LINE
8
BLACK
6
CONTINUOUS
10
96.465
20
-54.01
11
95.715
21
-54.76
0
LINE
8
BLACK
6
CONTINUOUS
10
95.715
20
-54.76
11
96.465
21
-55.51
0
LINE
8
BLACK
6
CONTINUOUS
10
98.04
20
-91.17
11
98.79
21
-90.42
0
LINE
8
BLACK
6
CONTINUOUS
10
98.79
20
-90.42
11
98.04
21
-89.67
0
LINE
8
BLACK
6
CONTINUOUS
10
98.04
20
-89.67
11
97.29
21
-90.42
0
LINE
8
BLACK
6
CONTINUOUS
10
97.29
20
-90.42
11
98.04
21
-91.17
0
LINE
8
BLACK
6
CONTINUOUS
10
101.24
20
-74.61
11
101.99
21
-73.86
0
LINE
8
BLACK
6
CONTINUOUS
10
101.99
20
-73.86
11
101.24
21
-73.11
0
LINE
8
BLACK
6
CONTINUOUS
10
101.24
20
-73.11
11
100.49
21
-73.86
0
LINE
8
BLACK
6
CONTINUOUS
10
100.49
20
-73.86
11
101.24
21
-74.61
0
LINE
8
BLACK
6
CONTINUOUS
10
102.815
20
-52.97
11
103.565
21
-52.22
0
LINE
8
BLACK
6
CONTINUOUS
10
103.565
20
-52.22
11
102.815
21
-51.47
0
LINE
8
BLACK
6
CONTINUOUS
10
102.815
20
-51.47
11
102.065
21
-52.22
0
LINE
8
BLACK
6
CONTINUOUS
10
102.065
20
-52.22
11
102.815
21
-52.97
0
LINE
8
BLACK
6
CONTINUOUS
10
107.59
20
-72.07
11
108.34
21
-71.32
0
LINE
8
BLACK
6
CONTINUOUS
10
108.34
20
-71.32
11
107.59
21
-70.57
0
LINE
8
BLACK
6
CONTINUOUS
10
107.59
20
-70.57
11
106.84
21
-71.32
0
LINE
8
BLACK
6
CONTINUOUS
10
106.84
20
-71.32
11
107.59
21
-72.07
0
LINE
8
BLACK
6
CONTINUOUS
10
108.5
20
-112.828
11
109.25
21
-112.078
0
LINE
8
BLACK
6
CONTINUOUS
10
109.25
20
-112.078
11
108.5
21
-111.328
0
LINE
8
BLACK
6
CONTINUOUS
10
108.5
20
-111.328
11
107.75
21
-112.078
0
LINE
8
BLACK
6
CONTINUOUS
10
107.75
20
-112.078
11
108.5
21
-112.828
0
LINE
8
BLACK
6
CONTINUOUS
10
110.79
20
-93.71
11
111.54
21
-92.96
0
LINE
8
BLACK
6
CONTINUOUS
10
111.54
20
-92.96
11
110.79
21
-92.21
0
LINE
8
BLACK
6
CONTINUOUS
10
110.79
20
-92.21
11
110.04
21
-92.96
0
LINE
8
BLACK
6
CONTINUOUS
10
110.04
20
-92.96
11
110.79
21
-93.71
0
LINE
8
BLACK
6
CONTINUOUS
10
114.85
20
-110.288
11
115.6
21
-109.538
0
LINE
8
BLACK
6
CONTINUOUS
10
115.6
20
-109.538
11
114.85
21
-108.788
0
LINE
8
BLACK
6
CONTINUOUS
10
114.85
20
-108.788
11
114.1
21
-109.538
0
LINE
8
BLACK
6
CONTINUOUS
10
114.1
20
-109.538
11
114.85
21
-110.288
0
LINE
8
BLACK
6
CONTINUOUS
10
115.565
20
-55.51
11
116.315
21
-54.76
0
LINE
8
BLACK
6
CONTINUOUS
10
116.315
20
-54.76
11
115.565
21
-54.01
0
LINE
8
BLACK
6
CONTINUOUS
10
115.565
20
-54.01
11
114.815
21
-54.76
0
LINE
8
BLACK
6
CONTINUOUS
10
114.815
20
-54.76
11
115.565
21
-55.51
0
LINE
8
BLACK
6
CONTINUOUS
10
117.14
20
-91.17
11
117.89
21
-90.42
0
LINE
8
BLACK
6
CONTINUOUS
10
117.89
20
-90.42
11
117.14
21
-89.67
0
LINE
8
BLACK
6
CONTINUOUS
10
117.14
20
-89.67
11
116.39
21
-90.42
0
LINE
8
BLACK
6
CONTINUOUS
10
116.39
20
-90.42
11
117.14
21
-91.17
0
LINE
8
BLACK
6
CONTINUOUS
10
120.34
20
-74.61
11
121.09
21
-73.86
0
LINE
8
BLACK
6
CONTINUOUS
10
121.09
20
-73.86
11
120.34
21
-73.11
0
LINE
8
BLACK
6
CONTINUOUS
10
120.34
20
-73.11
11
119.59
21
-73.86
0
LINE
8
BLACK
6
CONTINUOUS
10
119.59
20
-73.86
11
120.34
21
-74.61
0
LINE
8
BLACK
6
CONTINUOUS
10
121.915
20
-52.97
11
122.665
21
-52.22
0
LINE
8
BLACK
6
CONTINUOUS
10
122.665
20
-52.22
11
121.915
21
-51.47
0
LINE
8
BLACK
6
CONTINUOUS
10
121.915
20
-51.47
11
121.165
21
-52.22
0
LINE
8
BLACK
6
CONTINUOUS
10
121.165
20
-52.22
11
121.915
21
-52.97
0
LINE
8
BLACK
6
CONTINUOUS
10
126.69
20
-72.07
11
127.44
21
-71.32
0
LINE
8
BLACK
6
CONTINUOUS
10
127.44
20
-71.32
11
126.69
21
-70.57
0
LINE
8
BLACK
6
CONTINUOUS
10
126.69
20
-70.57
11
125.94
21
-71.32
0
LINE
8
BLACK
6
CONTINUOUS
10
125.94
20
-71.32
11
126.69
21
-72.07
0
LINE
8
BLACK
6
CONTINUOUS
10
129.89
20
-93.71
11
130.64
21
-92.96
0
LINE
8
BLACK
6
CONTINUOUS
10
130.64
20
-92.96
11
129.89
21
-92.21
0
LINE
8
BLACK
6
CONTINUOUS
10
129.89
20
-92.21
11
129.14
21
-92.96
0
LINE
8
BLACK
6
CONTINUOUS
10
129.14
20
-92.96
11
129.89
21
-93.71
0
LINE
8
BLACK
6
CONTINUOUS
10
134.665
20
-55.51
11
135.415
21
-54.76
0
LINE
8
BLACK
6
CONTINUOUS
10
135.415
20
-54.76
11
134.665
21
-54.01
0
LINE
8
BLACK
6
CONTINUOUS
10
134.665
20
-54.01
11
133.915
21
-54.76
0
LINE
8
BLACK
6
CONTINUOUS
10
133.915
20
-54.76
11
134.665
21
-55.51
0
LINE
8
BLACK
6
CONTINUOUS
10
136.24
20
-91.17
11
136.99
21
-90.42
0
LINE
8
BLACK
6
CONTINUOUS
10
136.99
20
-90.42
11
136.24
21
-89.67
0
LINE
8
BLACK
6
CONTINUOUS
10
136.24
20
-89.67
11
135.49
21
-90.42
0
LINE
8
BLACK
6
CONTINUOUS
10
135.49
20
-90.42
11
136.24
21
-91.17
0
LINE
8
BLACK
6
CONTINUOUS
10
139.44
20
-74.61
11
140.19
21
-73.86
0
LINE
8
BLACK
6
CONTINUOUS
10
140.19
20
-73.86
11
139.44
21
-73.11
0
LINE
8
BLACK
6
CONTINUOUS
10
139.44
20
-73.11
11
138.69
21
-73.86
0
LINE
8
BLACK
6
CONTINUOUS
10
138.69
20
-73.86
11
139.44
21
-74.61
0
LINE
8
BLACK
6
CONTINUOUS
10
139.45
20
-112.86
11
140.2
21
-112.11
0
LINE
8
BLACK
6
CONTINUOUS
10
140.2
20
-112.11
11
139.45
21
-111.36
0
LINE
8
BLACK
6
CONTINUOUS
10
139.45
20
-111.36
11
138.7
21
-112.11
0
LINE
8
BLACK
6
CONTINUOUS
10
138.7
20
-112.11
11
139.45
21
-112.86
0
LINE
8
BLACK
6
CONTINUOUS
10
141.015
20
-52.97
11
141.765
21
-52.22
0
LINE
8
BLACK
6
CONTINUOUS
10
141.765
20
-52.22
11
141.015
21
-51.47
0
LINE
8
BLACK
6
CONTINUOUS
10
141.015
20
-51.47
11
140.265
21
-52.22
0
LINE
8
BLACK
6
CONTINUOUS
10
140.265
20
-52.22
11
141.015
21
-52.97
0
LINE
8
BLACK
6
CONTINUOUS
10
141.827
20
-112.82
11
142.577
21
-112.07
0
LINE
8
BLACK
6
CONTINUOUS
10
142.577
20
-112.07
11
141.827
21
-111.32
0
LINE
8
BLACK
6
CONTINUOUS
10
141.827
20
-111.32
11
141.077
21
-112.07
0
LINE
8
BLACK
6
CONTINUOUS
10
141.077
20
-112.07
11
141.827
21
-112.82
0
LINE
8
BLACK
6
CONTINUOUS
10
145.79
20
-72.07
11
146.54
21
-71.32
0
LINE
8
BLACK
6
CONTINUOUS
10
146.54
20
-71.32
11
145.79
21
-70.57
0
LINE
8
BLACK
6
CONTINUOUS
10
145.79
20
-70.57
11
145.04
21
-71.32
0
LINE
8
BLACK
6
CONTINUOUS
10
145.04
20
-71.32
11
145.79
21
-72.07
0
LINE
8
BLACK
6
CONTINUOUS
10
145.8
20
-110.32
11
146.55
21
-109.57
0
LINE
8
BLACK
6
CONTINUOUS
10
146.55
20
-109.57
11
145.8
21
-108.82
0
LINE
8
BLACK
6
CONTINUOUS
10
145.8
20
-108.82
11
145.05
21
-109.57
0
LINE
8
BLACK
6
CONTINUOUS
10
145.05
20
-109.57
11
145.8
21
-110.32
0
LINE
8
BLACK
6
CONTINUOUS
10
148.177
20
-110.28
11
148.927
21
-109.53
0
LINE
8
BLACK
6
CONTINUOUS
10
148.927
20
-109.53
11
148.177
21
-108.78
0
LINE
8
BLACK
6
CONTINUOUS
10
148.177
20
-108.78
11
147.427
21
-109.53
0
LINE
8
BLACK
6
CONTINUOUS
10
147.427
20
-109.53
11
148.177
21
-110.28
0
LINE
8
BLACK
6
CONTINUOUS
10
148.99
20
-93.71
11
149.74
21
-92.96
0
LINE
8
BLACK
6
CONTINUOUS
10
149.74
20
-92.96
11
148.99
21
-92.21
0
LINE
8
BLACK
6
CONTINUOUS
10
148.99
20
-92.21
11
148.24
21
-92.96
0
LINE
8
BLACK
6
CONTINUOUS
10
148.24
20
-92.96
11
148.99
21
-93.71
0
LINE
8
BLACK
6
CONTINUOUS
10
153.765
20
-55.51
11
154.515
21
-54.76
0
LINE
8
BLACK
6
CONTINUOUS
10
154.515
20
-54.76
11
153.765
21
-54.01
0
LINE
8
BLACK
6
CONTINUOUS
10
153.765
20
-54.01
11
153.015
21
-54.76
0
LINE
8
BLACK
6
CONTINUOUS
10
153.015
20
-54.76
11
153.765
21
-55.51
0
LINE
8
BLACK
6
CONTINUOUS
10
155.34
20
-91.17
11
156.09
21
-90.42
0
LINE
8
BLACK
6
CONTINUOUS
10
156.09
20
-90.42
11
155.34
21
-89.67
0
LINE
8
BLACK
6
CONTINUOUS
10
155.34
20
-89.67
11
154.59
21
-90.42
0
LINE
8
BLACK
6
CONTINUOUS
10
154.59
20
-90.42
11
155.34
21
-91.17
0
LINE
8
BLACK
6
CONTINUOUS
10
158.54
20
-74.61
11
159.29
21
-73.86
0
LINE
8
BLACK
6
CONTINUOUS
10
159.29
20
-73.86
11
158.54
21
-73.11
0
LINE
8
BLACK
6
CONTINUOUS
10
158.54
20
-73.11
11
157.79
21
-73.86
0
LINE
8
BLACK
6
CONTINUOUS
10
157.79
20
-73.86
11
158.54
21
-74.61
0
LINE
8
BLACK
6
CONTINUOUS
10
160.115
20
-52.97
11
160.865
21
-52.22
0
LINE
8
BLACK
6
CONTINUOUS
10
160.865
20
-52.22
11
160.115
21
-51.47
0
LINE
8
BLACK
6
CONTINUOUS
10
160.115
20
-51.47
11
159.365
21
-52.22
0
LINE
8
BLACK
6
CONTINUOUS
10
159.365
20
-52.22
11
160.115
21
-52.97
0
LINE
8
BLACK
6
CONTINUOUS
10
164.89
20
-72.07
11
165.64
21
-71.32
0
LINE
8
BLACK
6
CONTINUOUS
10
165.64
20
-71.32
11
164.89
21
-70.57
0
LINE
8
BLACK
6
CONTINUOUS
10
164.89
20
-70.57
11
164.14
21
-71.32
0
LINE
8
BLACK
6
CONTINUOUS
10
164.14
20
-71.32
11
164.89
21
-72.07
0
LINE
8
BLACK
6
CONTINUOUS
10
168.09
20
-93.71
11
168.84
21
-92.96
0
LINE
8
BLACK
6
CONTINUOUS
10
168.84
20
-92.96
11
168.09
21
-92.21
0
LINE
8
BLACK
6
CONTINUOUS
10
168.09
20
-92.21
11
167.34
21
-92.96
0
LINE
8
BLACK
6
CONTINUOUS
10
167.34
20
-92.96
11
168.09
21
-93.71
0
LINE
8
BLACK
6
CONTINUOUS
10
172.865
20
-55.51
11
173.615
21
-54.76
0
LINE
8
BLACK
6
CONTINUOUS
10
173.615
20
-54.76
11
172.865
21
-54.01
0
LINE
8
BLACK
6
CONTINUOUS
10
172.865
20
-54.01
11
172.115
21
-54.76
0
LINE
8
BLACK
6
CONTINUOUS
10
172.115
20
-54.76
11
172.865
21
-55.51
0
LINE
8
BLACK
6
CONTINUOUS
10
174.44
20
-91.17
11
175.19
21
-90.42
0
LINE
8
BLACK
6
CONTINUOUS
10
175.19
20
-90.42
11
174.44
21
-89.67
0
LINE
8
BLACK
6
CONTINUOUS
10
174.44
20
-89.67
11
173.69
21
-90.42
0
LINE
8
BLACK
6
CONTINUOUS
10
173.69
20
-90.42
11
174.44
21
-91.17
0
LINE
8
BLACK
6
CONTINUOUS
10
175.17
20
-112.8
11
175.92
21
-112.05
0
LINE
8
BLACK
6
CONTINUOUS
10
175.92
20
-112.05
11
175.17
21
-111.3
0
LINE
8
BLACK
6
CONTINUOUS
10
175.17
20
-111.3
11
174.42
21
-112.05
0
LINE
8
BLACK
6
CONTINUOUS
10
174.42
20
-112.05
11
175.17
21
-112.8
0
LINE
8
BLACK
6
CONTINUOUS
10
177.64
20
-74.61
11
178.39
21
-73.86
0
LINE
8
BLACK
6
CONTINUOUS
10
178.39
20
-73.86
11
177.64
21
-73.11
0
LINE
8
BLACK
6
CONTINUOUS
10
177.64
20
-73.11
11
176.89
21
-73.86
0
LINE
8
BLACK
6
CONTINUOUS
10
176.89
20
-73.86
11
177.64
21
-74.61
0
LINE
8
BLACK
6
CONTINUOUS
10
179.215
20
-52.97
11
179.965
21
-52.22
0
LINE
8
BLACK
6
CONTINUOUS
10
179.965
20
-52.22
11
179.215
21
-51.47
0
LINE
8
BLACK
6
CONTINUOUS
10
179.215
20
-51.47
11
178.465
21
-52.22
0
LINE
8
BLACK
6
CONTINUOUS
10
178.465
20
-52.22
11
179.215
21
-52.97
0
LINE
8
BLACK
6
CONTINUOUS
10
181.52
20
-110.26
11
182.27
21
-109.51
0
LINE
8
BLACK
6
CONTINUOUS
10
182.27
20
-109.51
11
181.52
21
-108.76
0
LINE
8
BLACK
6
CONTINUOUS
10
181.52
20
-108.76
11
180.77
21
-109.51
0
LINE
8
BLACK
6
CONTINUOUS
10
180.77
20
-109.51
11
181.52
21
-110.26
0
LINE
8
BLACK
6
CONTINUOUS
10
183.99
20
-72.07
11
184.74
21
-71.32
0
LINE
8
BLACK
6
CONTINUOUS
10
184.74
20
-71.32
11
183.99
21
-70.57
0
LINE
8
BLACK
6
CONTINUOUS
10
183.99
20
-70.57
11
183.24
21
-71.32
0
LINE
8
BLACK
6
CONTINUOUS
10
183.24
20
-71.32
11
183.99
21
-72.07
0
LINE
8
BLACK
6
CONTINUOUS
10
187.19
20
-93.71
11
187.94
21
-92.96
0
LINE
8
BLACK
6
CONTINUOUS
10
187.94
20
-92.96
11
187.19
21
-92.21
0
LINE
8
BLACK
6
CONTINUOUS
10
187.19
20
-92.21
11
186.44
21
-92.96
0
LINE
8
BLACK
6
CONTINUOUS
10
186.44
20
-92.96
11
187.19
21
-93.71
0
LINE
8
BLACK
6
CONTINUOUS
10
191.965
20
-55.51
11
192.715
21
-54.76
0
LINE
8
BLACK
6
CONTINUOUS
10
192.715
20
-54.76
11
191.965
21
-54.01
0
LINE
8
BLACK
6
CONTINUOUS
10
191.965
20
-54.01
11
191.215
21
-54.76
0
LINE
8
BLACK
6
CONTINUOUS
10
191.215
20
-54.76
11
191.965
21
-55.51
0
LINE
8
BLACK
6
CONTINUOUS
10
193.54
20
-91.17
11
194.29
21
-90.42
0
LINE
8
BLACK
6
CONTINUOUS
10
194.29
20
-90.42
11
193.54
21
-89.67
0
LINE
8
BLACK
6
CONTINUOUS
10
193.54
20
-89.67
11
192.79
21
-90.42
0
LINE
8
BLACK
6
CONTINUOUS
10
192.79
20
-90.42
11
193.54
21
-91.17
0
LINE
8
BLACK
6
CONTINUOUS
10
196.74
20
-74.61
11
197.49
21
-73.86
0
LINE
8
BLACK
6
CONTINUOUS
10
197.49
20
-73.86
11
196.74
21
-73.11
0
LINE
8
BLACK
6
CONTINUOUS
10
196.74
20
-73.11
11
195.99
21
-73.86
0
LINE
8
BLACK
6
CONTINUOUS
10
195.99
20
-73.86
11
196.74
21
-74.61
0
LINE
8
BLACK
6
CONTINUOUS
10
198.315
20
-52.97
11
199.065
21
-52.22
0
LINE
8
BLACK
6
CONTINUOUS
10
199.065
20
-52.22
11
198.315
21
-51.47
0
LINE
8
BLACK
6
CONTINUOUS
10
198.315
20
-51.47
11
197.565
21
-52.22
0
LINE
8
BLACK
6
CONTINUOUS
10
197.565
20
-52.22
11
198.315
21
-52.97
0
LINE
8
BLACK
6
CONTINUOUS
10
203.09
20
-72.07
11
203.84
21
-71.32
0
LINE
8
BLACK
6
CONTINUOUS
10
203.84
20
-71.32
11
203.09
21
-70.57
0
LINE
8
BLACK
6
CONTINUOUS
10
203.09
20
-70.57
11
202.34
21
-71.32
0
LINE
8
BLACK
6
CONTINUOUS
10
202.34
20
-71.32
11
203.09
21
-72.07
0
LINE
8
BLACK
6
CONTINUOUS
10
206.29
20
-93.71
11
207.04
21
-92.96
0
LINE
8
BLACK
6
CONTINUOUS
10
207.04
20
-92.96
11
206.29
21
-92.21
0
LINE
8
BLACK
6
CONTINUOUS
10
206.29
20
-92.21
11
205.54
21
-92.96
0
LINE
8
BLACK
6
CONTINUOUS
10
205.54
20
-92.96
11
206.29
21
-93.71
0
LINE
8
BLACK
6
CONTINUOUS
10
211.065
20
-55.51
11
211.815
21
-54.76
0
LINE
8
BLACK
6
CONTINUOUS
10
211.815
20
-54.76
11
211.065
21
-54.01
0
LINE
8
BLACK
6
CONTINUOUS
10
211.065
20
-54.01
11
210.315
21
-54.76
0
LINE
8
BLACK
6
CONTINUOUS
10
210.315
20
-54.76
11
211.065
21
-55.51
0
LINE
8
BLACK
6
CONTINUOUS
10
212.64
20
-91.17
11
213.39
21
-90.42
0
LINE
8
BLACK
6
CONTINUOUS
10
213.39
20
-90.42
11
212.64
21
-89.67
0
LINE
8
BLACK
6
CONTINUOUS
10
212.64
20
-89.67
11
211.89
21
-90.42
0
LINE
8
BLACK
6
CONTINUOUS
10
211.89
20
-90.42
11
212.64
21
-91.17
0
LINE
8
BLACK
6
CONTINUOUS
10
213.452
20
-112.81
11
214.202
21
-112.06
0
LINE
8
BLACK
6
CONTINUOUS
10
214.202
20
-112.06
11
213.452
21
-111.31
0
LINE
8
BLACK
6
CONTINUOUS
10
213.452
20
-111.31
11
212.702
21
-112.06
0
LINE
8
BLACK
6
CONTINUOUS
10
212.702
20
-112.06
11
213.452
21
-112.81
0
LINE
8
BLACK
6
CONTINUOUS
10
215.84
20
-74.61
11
216.59
21
-73.86
0
LINE
8
BLACK
6
CONTINUOUS
10
216.59
20
-73.86
11
215.84
21
-73.11
0
LINE
8
BLACK
6
CONTINUOUS
10
215.84
20
-73.11
11
215.09
21
-73.86
0
LINE
8
BLACK
6
CONTINUOUS
10
215.09
20
-73.86
11
215.84
21
-74.61
0
LINE
8
BLACK
6
CONTINUOUS
10
217.415
20
-52.97
11
218.165
21
-52.22
0
LINE
8
BLACK
6
CONTINUOUS
10
218.165
20
-52.22
11
217.415
21
-51.47
0
LINE
8
BLACK
6
CONTINUOUS
10
217.415
20
-51.47
11
216.665
21
-52.22
0
LINE
8
BLACK
6
CONTINUOUS
10
216.665
20
-52.22
11
217.415
21
-52.97
0
LINE
8
BLACK
6
CONTINUOUS
10
219.802
20
-110.27
11
220.552
21
-109.52
0
LINE
8
BLACK
6
CONTINUOUS
10
220.552
20
-109.52
11
219.802
21
-108.77
0
LINE
8
BLACK
6
CONTINUOUS
10
219.802
20
-108.77
11
219.052
21
-109.52
0
LINE
8
BLACK
6
CONTINUOUS
10
219.052
20
-109.52
11
219.802
21
-110.27
0
LINE
8
BLACK
6
CONTINUOUS
10
222.19
20
-72.07
11
222.94
21
-71.32
0
LINE
8
BLACK
6
CONTINUOUS
10
222.94
20
-71.32
11
222.19
21
-70.57
0
LINE
8
BLACK
6
CONTINUOUS
10
222.19
20
-70.57
11
221.44
21
-71.32
0
LINE
8
BLACK
6
CONTINUOUS
10
221.44
20
-71.32
11
222.19
21
-72.07
0
LINE
8
BLACK
6
CONTINUOUS
10
225.39
20
-93.71
11
226.14
21
-92.96
0
LINE
8
BLACK
6
CONTINUOUS
10
226.14
20
-92.96
11
225.39
21
-92.21
0
LINE
8
BLACK
6
CONTINUOUS
10
225.39
20
-92.21
11
224.64
21
-92.96
0
LINE
8
BLACK
6
CONTINUOUS
10
224.64
20
-92.96
11
225.39
21
-93.71
0
LINE
8
BLACK
6
CONTINUOUS
10
230.165
20
-55.51
11
230.915
21
-54.76
0
LINE
8
BLACK
6
CONTINUOUS
10
230.915
20
-54.76
11
230.165
21
-54.01
0
LINE
8
BLACK
6
CONTINUOUS
10
230.165
20
-54.01
11
229.415
21
-54.76
0
LINE
8
BLACK
6
CONTINUOUS
10
229.415
20
-54.76
11
230.165
21
-55.51
0
LINE
8
BLACK
6
CONTINUOUS
10
231.74
20
-91.17
11
232.49
21
-90.42
0
LINE
8
BLACK
6
CONTINUOUS
10
232.49
20
-90.42
11
231.74
21
-89.67
0
LINE
8
BLACK
6
CONTINUOUS
10
231.74
20
-89.67
11
230.99
21
-90.42
0
LINE
8
BLACK
6
CONTINUOUS
10
230.99
20
-90.42
11
231.74
21
-91.17
0
LINE
8
BLACK
6
CONTINUOUS
10
234.94
20
-74.61
11
235.69
21
-73.86
0
LINE
8
BLACK
6
CONTINUOUS
10
235.69
20
-73.86
11
234.94
21
-73.11
0
LINE
8
BLACK
6
CONTINUOUS
10
234.94
20
-73.11
11
234.19
21
-73.86
0
LINE
8
BLACK
6
CONTINUOUS
10
234.19
20
-73.86
11
234.94
21
-74.61
0
LINE
8
BLACK
6
CONTINUOUS
10
234.94
20
-112.81
11
235.69
21
-112.06
0
LINE
8
BLACK
6
CONTINUOUS
10
235.69
20
-112.06
11
234.94
21
-111.31
0
LINE
8
BLACK
6
CONTINUOUS
10
234.94
20
-111.31
11
234.19
21
-112.06
0
LINE
8
BLACK
6
CONTINUOUS
10
234.19
20
-112.06
11
234.94
21
-112.81
0
LINE
8
BLACK
6
CONTINUOUS
10
236.515
20
-52.97
11
237.265
21
-52.22
0
LINE
8
BLACK
6
CONTINUOUS
10
237.265
20
-52.22
11
236.515
21
-51.47
0
LINE
8
BLACK
6
CONTINUOUS
10
236.515
20
-51.47
11
235.765
21
-52.22
0
LINE
8
BLACK
6
CONTINUOUS
10
235.765
20
-52.22
11
236.515
21
-52.97
0
LINE
8
BLACK
6
CONTINUOUS
10
241.29
20
-72.07
11
242.04
21
-71.32
0
LINE
8
BLACK
6
CONTINUOUS
10
242.04
20
-71.32
11
241.29
21
-70.57
0
LINE
8
BLACK
6
CONTINUOUS
10
241.29
20
-70.57
11
240.54
21
-71.32
0
LINE
8
BLACK
6
CONTINUOUS
10
240.54
20
-71.32
11
241.29
21
-72.07
0
LINE
8
BLACK
6
CONTINUOUS
10
241.29
20
-110.27
11
242.04
21
-109.52
0
LINE
8
BLACK
6
CONTINUOUS
10
242.04
20
-109.52
11
241.29
21
-108.77
0
LINE
8
BLACK
6
CONTINUOUS
10
241.29
20
-108.77
11
240.54
21
-109.52
0
LINE
8
BLACK
6
CONTINUOUS
10
240.54
20
-109.52
11
241.29
21
-110.27
0
LINE
8
BLACK
6
CONTINUOUS
10
246.877
20
-74.61
11
247.627
21
-73.86
0
LINE
8
BLACK
6
CONTINUOUS
10
247.627
20
-73.86
11
246.877
21
-73.11
0
LINE
8
BLACK
6
CONTINUOUS
10
246.877
20
-73.11
11
246.127
21
-73.86
0
LINE
8
BLACK
6
CONTINUOUS
10
246.127
20
-73.86
11
246.877
21
-74.61
0
LINE
8
BLACK
6
CONTINUOUS
10
251.652
20
-93.71
11
252.402
21
-92.96
0
LINE
8
BLACK
6
CONTINUOUS
10
252.402
20
-92.96
11
251.652
21
-92.21
0
LINE
8
BLACK
6
CONTINUOUS
10
251.652
20
-92.21
11
250.902
21
-92.96
0
LINE
8
BLACK
6
CONTINUOUS
10
250.902
20
-92.96
11
251.652
21
-93.71
0
LINE
8
BLACK
6
CONTINUOUS
10
253.227
20
-72.07
11
253.977
21
-71.32
0
LINE
8
BLACK
6
CONTINUOUS
10
253.977
20
-71.32
11
253.227
21
-70.57
0
LINE
8
BLACK
6
CONTINUOUS
10
253.227
20
-70.57
11
252.477
21
-71.32
0
LINE
8
BLACK
6
CONTINUOUS
10
252.477
20
-71.32
11
253.227
21
-72.07
0
LINE
8
BLACK
6
CONTINUOUS
10
254.04
20
-55.51
11
254.79
21
-54.76
0
LINE
8
BLACK
6
CONTINUOUS
10
254.79
20
-54.76
11
254.04
21
-54.01
0
LINE
8
BLACK
6
CONTINUOUS
10
254.04
20
-54.01
11
253.29
21
-54.76
0
LINE
8
BLACK
6
CONTINUOUS
10
253.29
20
-54.76
11
254.04
21
-55.51
0
LINE
8
BLACK
6
CONTINUOUS
10
256.428
20
-74.61
11
257.178
21
-73.86
0
LINE
8
BLACK
6
CONTINUOUS
10
257.178
20
-73.86
11
256.428
21
-73.11
0
LINE
8
BLACK
6
CONTINUOUS
10
256.428
20
-73.11
11
255.677
21
-73.86
0
LINE
8
BLACK
6
CONTINUOUS
10
255.677
20
-73.86
11
256.428
21
-74.61
0
LINE
8
BLACK
6
CONTINUOUS
10
256.428
20
-112.81
11
257.178
21
-112.06
0
LINE
8
BLACK
6
CONTINUOUS
10
257.178
20
-112.06
11
256.428
21
-111.31
0
LINE
8
BLACK
6
CONTINUOUS
10
256.428
20
-111.31
11
255.677
21
-112.06
0
LINE
8
BLACK
6
CONTINUOUS
10
255.677
20
-112.06
11
256.428
21
-112.81
0
LINE
8
BLACK
6
CONTINUOUS
10
258.002
20
-91.17
11
258.752
21
-90.42
0
LINE
8
BLACK
6
CONTINUOUS
10
258.752
20
-90.42
11
258.002
21
-89.67
0
LINE
8
BLACK
6
CONTINUOUS
10
258.002
20
-89.67
11
257.252
21
-90.42
0
LINE
8
BLACK
6
CONTINUOUS
10
257.252
20
-90.42
11
258.002
21
-91.17
0
LINE
8
BLACK
6
CONTINUOUS
10
260.39
20
-52.97
11
261.14
21
-52.22
0
LINE
8
BLACK
6
CONTINUOUS
10
261.14
20
-52.22
11
260.39
21
-51.47
0
LINE
8
BLACK
6
CONTINUOUS
10
260.39
20
-51.47
11
259.64
21
-52.22
0
LINE
8
BLACK
6
CONTINUOUS
10
259.64
20
-52.22
11
260.39
21
-52.97
0
LINE
8
BLACK
6
CONTINUOUS
10
262.777
20
-72.07
11
263.527
21
-71.32
0
LINE
8
BLACK
6
CONTINUOUS
10
263.527
20
-71.32
11
262.777
21
-70.57
0
LINE
8
BLACK
6
CONTINUOUS
10
262.777
20
-70.57
11
262.027
21
-71.32
0
LINE
8
BLACK
6
CONTINUOUS
10
262.027
20
-71.32
11
262.777
21
-72.07
0
LINE
8
BLACK
6
CONTINUOUS
10
262.777
20
-110.27
11
263.527
21
-109.52
0
LINE
8
BLACK
6
CONTINUOUS
10
263.527
20
-109.52
11
262.777
21
-108.77
0
LINE
8
BLACK
6
CONTINUOUS
10
262.777
20
-108.77
11
262.027
21
-109.52
0
LINE
8
BLACK
6
CONTINUOUS
10
262.027
20
-109.52
11
262.777
21
-110.27
0
LINE
8
BLACK
6
CONTINUOUS
10
26.4012
20
-127.305
11
26.4012
21
-125.305
0
LINE
8
BLACK
6
CONTINUOUS
10
26.4012
20
-125.305
11
26.8774
21
-125.305
0
LINE
8
BLACK
6
CONTINUOUS
10
26.8774
20
-125.305
11
27.1631
21
-125.4
0
LINE
8
BLACK
6
CONTINUOUS
10
27.1631
20
-125.4
11
27.3536
21
-125.59
0
LINE
8
BLACK
6
CONTINUOUS
10
27.3536
20
-125.59
11
27.4488
21
-125.781
0
LINE
8
BLACK
6
CONTINUOUS
10
27.4488
20
-125.781
11
27.544
21
-126.162
0
LINE
8
BLACK
6
CONTINUOUS
10
27.544
20
-126.162
11
27.544
21
-126.448
0
LINE
8
BLACK
6
CONTINUOUS
10
27.544
20
-126.448
11
27.4488
21
-126.829
0
LINE
8
BLACK
6
CONTINUOUS
10
27.4488
20
-126.829
11
27.3536
21
-127.019
0
LINE
8
BLACK
6
CONTINUOUS
10
27.3536
20
-127.019
11
27.1631
21
-127.21
0
LINE
8
BLACK
6
CONTINUOUS
10
27.1631
20
-127.21
11
26.8774
21
-127.305
0
LINE
8
BLACK
6
CONTINUOUS
10
26.8774
20
-127.305
11
26.4012
21
-127.305
0
LINE
8
BLACK
6
CONTINUOUS
10
28.4012
20
-127.305
11
28.4012
21
-125.971
0
LINE
8
BLACK
6
CONTINUOUS
10
28.4012
20
-126.352
11
28.4964
21
-126.162
0
LINE
8
BLACK
6
CONTINUOUS
10
28.4964
20
-126.162
11
28.5917
21
-126.067
0
LINE
8
BLACK
6
CONTINUOUS
10
28.5917
20
-126.067
11
28.7821
21
-125.971
0
LINE
8
BLACK
6
CONTINUOUS
10
28.7821
20
-125.971
11
28.9726
21
-125.971
0
LINE
8
BLACK
6
CONTINUOUS
10
29.6393
20
-127.305
11
29.6393
21
-125.971
0
LINE
8
BLACK
6
CONTINUOUS
10
29.6393
20
-125.305
11
29.544
21
-125.4
0
LINE
8
BLACK
6
CONTINUOUS
10
29.544
20
-125.4
11
29.6393
21
-125.495
0
LINE
8
BLACK
6
CONTINUOUS
10
29.6393
20
-125.495
11
29.7345
21
-125.4
0
LINE
8
BLACK
6
CONTINUOUS
10
29.7345
20
-125.4
11
29.6393
21
-125.305
0
LINE
8
BLACK
6
CONTINUOUS
10
29.6393
20
-125.305
11
29.6393
21
-125.495
0
LINE
8
BLACK
6
CONTINUOUS
10
30.8774
20
-127.305
11
30.6869
21
-127.21
0
LINE
8
BLACK
6
CONTINUOUS
10
30.6869
20
-127.21
11
30.5917
21
-127.019
0
LINE
8
BLACK
6
CONTINUOUS
10
30.5917
20
-127.019
11
30.5917
21
-125.305
0
LINE
8
BLACK
6
CONTINUOUS
10
31.925
20
-127.305
11
31.7345
21
-127.21
0
LINE
8
BLACK
6
CONTINUOUS
10
31.7345
20
-127.21
11
31.6393
21
-127.019
0
LINE
8
BLACK
6
CONTINUOUS
10
31.6393
20
-127.019
11
31.6393
21
-125.305
0
LINE
8
BLACK
6
CONTINUOUS
10
34.2107
20
-127.305
11
34.2107
21
-125.305
0
LINE
8
BLACK
6
CONTINUOUS
10
34.2107
20
-125.305
11
34.8774
21
-126.733
0
LINE
8
BLACK
6
CONTINUOUS
10
34.8774
20
-126.733
11
35.544
21
-125.305
0
LINE
8
BLACK
6
CONTINUOUS
10
35.544
20
-125.305
11
35.544
21
-127.305
0
LINE
8
BLACK
6
CONTINUOUS
10
37.3536
20
-127.305
11
37.3536
21
-126.257
0
LINE
8
BLACK
6
CONTINUOUS
10
37.3536
20
-126.257
11
37.2583
21
-126.067
0
LINE
8
BLACK
6
CONTINUOUS
10
37.2583
20
-126.067
11
37.0679
21
-125.971
0
LINE
8
BLACK
6
CONTINUOUS
10
37.0679
20
-125.971
11
36.6869
21
-125.971
0
LINE
8
BLACK
6
CONTINUOUS
10
36.6869
20
-125.971
11
36.4964
21
-126.067
0
LINE
8
BLACK
6
CONTINUOUS
10
37.3536
20
-127.21
11
37.1631
21
-127.305
0
LINE
8
BLACK
6
CONTINUOUS
10
37.1631
20
-127.305
11
36.6869
21
-127.305
0
LINE
8
BLACK
6
CONTINUOUS
10
36.6869
20
-127.305
11
36.4964
21
-127.21
0
LINE
8
BLACK
6
CONTINUOUS
10
36.4964
20
-127.21
11
36.4012
21
-127.019
0
LINE
8
BLACK
6
CONTINUOUS
10
36.4012
20
-127.019
11
36.4012
21
-126.829
0
LINE
8
BLACK
6
CONTINUOUS
10
36.4012
20
-126.829
11
36.4964
21
-126.638
0
LINE
8
BLACK
6
CONTINUOUS
10
36.4964
20
-126.638
11
36.6869
21
-126.543
0
LINE
8
BLACK
6
CONTINUOUS
10
36.6869
20
-126.543
11
37.1631
21
-126.543
0
LINE
8
BLACK
6
CONTINUOUS
10
37.1631
20
-126.543
11
37.3536
21
-126.448
0
LINE
8
BLACK
6
CONTINUOUS
10
38.306
20
-125.971
11
38.306
21
-127.971
0
LINE
8
BLACK
6
CONTINUOUS
10
38.306
20
-126.067
11
38.4964
21
-125.971
0
LINE
8
BLACK
6
CONTINUOUS
10
38.4964
20
-125.971
11
38.8774
21
-125.971
0
LINE
8
BLACK
6
CONTINUOUS
10
38.8774
20
-125.971
11
39.0679
21
-126.067
0
LINE
8
BLACK
6
CONTINUOUS
10
39.0679
20
-126.067
11
39.1631
21
-126.162
0
LINE
8
BLACK
6
CONTINUOUS
10
39.1631
20
-126.162
11
39.2583
21
-126.352
0
LINE
8
BLACK
6
CONTINUOUS
10
39.2583
20
-126.352
11
39.2583
21
-126.924
0
LINE
8
BLACK
6
CONTINUOUS
10
39.2583
20
-126.924
11
39.1631
21
-127.114
0
LINE
8
BLACK
6
CONTINUOUS
10
39.1631
20
-127.114
11
39.0679
21
-127.21
0
LINE
8
BLACK
6
CONTINUOUS
10
39.0679
20
-127.21
11
38.8774
21
-127.305
0
LINE
8
BLACK
6
CONTINUOUS
10
38.8774
20
-127.305
11
38.4964
21
-127.305
0
LINE
8
BLACK
6
CONTINUOUS
10
38.4964
20
-127.305
11
38.306
21
-127.21
0
LINE
8
BLACK
6
CONTINUOUS
10
40.1155
20
-127.114
11
40.2107
21
-127.21
0
LINE
8
BLACK
6
CONTINUOUS
10
40.2107
20
-127.21
11
40.1155
21
-127.305
0
LINE
8
BLACK
6
CONTINUOUS
10
40.1155
20
-127.305
11
40.0202
21
-127.21
0
LINE
8
BLACK
6
CONTINUOUS
10
40.0202
20
-127.21
11
40.1155
21
-127.114
0
LINE
8
BLACK
6
CONTINUOUS
10
40.1155
20
-127.114
11
40.1155
21
-127.305
0
LINE
8
BLACK
6
CONTINUOUS
10
40.1155
20
-126.067
11
40.2107
21
-126.162
0
LINE
8
BLACK
6
CONTINUOUS
10
40.2107
20
-126.162
11
40.1155
21
-126.257
0
LINE
8
BLACK
6
CONTINUOUS
10
40.1155
20
-126.257
11
40.0202
21
-126.162
0
LINE
8
BLACK
6
CONTINUOUS
10
40.0202
20
-126.162
11
40.1155
21
-126.067
0
LINE
8
BLACK
6
CONTINUOUS
10
40.1155
20
-126.067
11
40.1155
21
-126.257
0
LINE
8
BLACK
6
CONTINUOUS
10
23.425
20
-130.4
11
23.825
21
-130.8
0
LINE
8
BLACK
6
CONTINUOUS
10
23.825
20
-130.4
11
23.425
21
-130.8
0
LINE
8
BLACK
6
CONTINUOUS
10
26.7821
20
-129.505
11
26.9726
21
-129.505
0
LINE
8
BLACK
6
CONTINUOUS
10
26.9726
20
-129.505
11
27.1631
21
-129.6
0
LINE
8
BLACK
6
CONTINUOUS
10
27.1631
20
-129.6
11
27.2583
21
-129.695
0
LINE
8
BLACK
6
CONTINUOUS
10
27.2583
20
-129.695
11
27.3536
21
-129.886
0
LINE
8
BLACK
6
CONTINUOUS
10
27.3536
20
-129.886
11
27.4488
21
-130.267
0
LINE
8
BLACK
6
CONTINUOUS
10
27.4488
20
-130.267
11
27.4488
21
-130.743
0
LINE
8
BLACK
6
CONTINUOUS
10
27.4488
20
-130.743
11
27.3536
21
-131.124
0
LINE
8
BLACK
6
CONTINUOUS
10
27.3536
20
-131.124
11
27.2583
21
-131.314
0
LINE
8
BLACK
6
CONTINUOUS
10
27.2583
20
-131.314
11
27.1631
21
-131.41
0
LINE
8
BLACK
6
CONTINUOUS
10
27.1631
20
-131.41
11
26.9726
21
-131.505
0
LINE
8
BLACK
6
CONTINUOUS
10
26.9726
20
-131.505
11
26.7821
21
-131.505
0
LINE
8
BLACK
6
CONTINUOUS
10
26.7821
20
-131.505
11
26.5917
21
-131.41
0
LINE
8
BLACK
6
CONTINUOUS
10
26.5917
20
-131.41
11
26.4964
21
-131.314
0
LINE
8
BLACK
6
CONTINUOUS
10
26.4964
20
-131.314
11
26.4012
21
-131.124
0
LINE
8
BLACK
6
CONTINUOUS
10
26.4012
20
-131.124
11
26.306
21
-130.743
0
LINE
8
BLACK
6
CONTINUOUS
10
26.306
20
-130.743
11
26.306
21
-130.267
0
LINE
8
BLACK
6
CONTINUOUS
10
26.306
20
-130.267
11
26.4012
21
-129.886
0
LINE
8
BLACK
6
CONTINUOUS
10
26.4012
20
-129.886
11
26.4964
21
-129.695
0
LINE
8
BLACK
6
CONTINUOUS
10
26.4964
20
-129.695
11
26.5917
21
-129.6
0
LINE
8
BLACK
6
CONTINUOUS
10
26.5917
20
-129.6
11
26.7821
21
-129.505
0
LINE
8
BLACK
6
CONTINUOUS
10
28.306
20
-131.314
11
28.4012
21
-131.41
0
LINE
8
BLACK
6
CONTINUOUS
10
28.4012
20
-131.41
11
28.306
21
-131.505
0
LINE
8
BLACK
6
CONTINUOUS
10
28.306
20
-131.505
11
28.2107
21
-131.41
0
LINE
8
BLACK
6
CONTINUOUS
10
28.2107
20
-131.41
11
28.306
21
-131.314
0
LINE
8
BLACK
6
CONTINUOUS
10
28.306
20
-131.314
11
28.306
21
-131.505
0
LINE
8
BLACK
6
CONTINUOUS
10
30.1155
20
-130.171
11
30.1155
21
-131.505
0
LINE
8
BLACK
6
CONTINUOUS
10
29.6393
20
-129.41
11
29.1631
21
-130.838
0
LINE
8
BLACK
6
CONTINUOUS
10
29.1631
20
-130.838
11
30.4012
21
-130.838
0
LINE
8
BLACK
6
CONTINUOUS
10
31.544
20
-129.505
11
31.7345
21
-129.505
0
LINE
8
BLACK
6
CONTINUOUS
10
31.7345
20
-129.505
11
31.925
21
-129.6
0
LINE
8
BLACK
6
CONTINUOUS
10
31.925
20
-129.6
11
32.0202
21
-129.695
0
LINE
8
BLACK
6
CONTINUOUS
10
32.0202
20
-129.695
11
32.1155
21
-129.886
0
LINE
8
BLACK
6
CONTINUOUS
10
32.1155
20
-129.886
11
32.2107
21
-130.267
0
LINE
8
BLACK
6
CONTINUOUS
10
32.2107
20
-130.267
11
32.2107
21
-130.743
0
LINE
8
BLACK
6
CONTINUOUS
10
32.2107
20
-130.743
11
32.1155
21
-131.124
0
LINE
8
BLACK
6
CONTINUOUS
10
32.1155
20
-131.124
11
32.0202
21
-131.314
0
LINE
8
BLACK
6
CONTINUOUS
10
32.0202
20
-131.314
11
31.925
21
-131.41
0
LINE
8
BLACK
6
CONTINUOUS
10
31.925
20
-131.41
11
31.7345
21
-131.505
0
LINE
8
BLACK
6
CONTINUOUS
10
31.7345
20
-131.505
11
31.544
21
-131.505
0
LINE
8
BLACK
6
CONTINUOUS
10
31.544
20
-131.505
11
31.3536
21
-131.41
0
LINE
8
BLACK
6
CONTINUOUS
10
31.3536
20
-131.41
11
31.2583
21
-131.314
0
LINE
8
BLACK
6
CONTINUOUS
10
31.2583
20
-131.314
11
31.1631
21
-131.124
0
LINE
8
BLACK
6
CONTINUOUS
10
31.1631
20
-131.124
11
31.0679
21
-130.743
0
LINE
8
BLACK
6
CONTINUOUS
10
31.0679
20
-130.743
11
31.0679
21
-130.267
0
LINE
8
BLACK
6
CONTINUOUS
10
31.0679
20
-130.267
11
31.1631
21
-129.886
0
LINE
8
BLACK
6
CONTINUOUS
10
31.1631
20
-129.886
11
31.2583
21
-129.695
0
LINE
8
BLACK
6
CONTINUOUS
10
31.2583
20
-129.695
11
31.3536
21
-129.6
0
LINE
8
BLACK
6
CONTINUOUS
10
31.3536
20
-129.6
11
31.544
21
-129.505
0
LINE
8
BLACK
6
CONTINUOUS
10
33.4488
20
-129.505
11
33.6393
21
-129.505
0
LINE
8
BLACK
6
CONTINUOUS
10
33.6393
20
-129.505
11
33.8298
21
-129.6
0
LINE
8
BLACK
6
CONTINUOUS
10
33.8298
20
-129.6
11
33.925
21
-129.695
0
LINE
8
BLACK
6
CONTINUOUS
10
33.925
20
-129.695
11
34.0202
21
-129.886
0
LINE
8
BLACK
6
CONTINUOUS
10
34.0202
20
-129.886
11
34.1155
21
-130.267
0
LINE
8
BLACK
6
CONTINUOUS
10
34.1155
20
-130.267
11
34.1155
21
-130.743
0
LINE
8
BLACK
6
CONTINUOUS
10
34.1155
20
-130.743
11
34.0202
21
-131.124
0
LINE
8
BLACK
6
CONTINUOUS
10
34.0202
20
-131.124
11
33.925
21
-131.314
0
LINE
8
BLACK
6
CONTINUOUS
10
33.925
20
-131.314
11
33.8298
21
-131.41
0
LINE
8
BLACK
6
CONTINUOUS
10
33.8298
20
-131.41
11
33.6393
21
-131.505
0
LINE
8
BLACK
6
CONTINUOUS
10
33.6393
20
-131.505
11
33.4488
21
-131.505
0
LINE
8
BLACK
6
CONTINUOUS
10
33.4488
20
-131.505
11
33.2583
21
-131.41
0
LINE
8
BLACK
6
CONTINUOUS
10
33.2583
20
-131.41
11
33.1631
21
-131.314
0
LINE
8
BLACK
6
CONTINUOUS
10
33.1631
20
-131.314
11
33.0679
21
-131.124
0
LINE
8
BLACK
6
CONTINUOUS
10
33.0679
20
-131.124
11
32.9726
21
-130.743
0
LINE
8
BLACK
6
CONTINUOUS
10
32.9726
20
-130.743
11
32.9726
21
-130.267
0
LINE
8
BLACK
6
CONTINUOUS
10
32.9726
20
-130.267
11
33.0679
21
-129.886
0
LINE
8
BLACK
6
CONTINUOUS
10
33.0679
20
-129.886
11
33.1631
21
-129.695
0
LINE
8
BLACK
6
CONTINUOUS
10
33.1631
20
-129.695
11
33.2583
21
-129.6
0
LINE
8
BLACK
6
CONTINUOUS
10
33.2583
20
-129.6
11
33.4488
21
-129.505
0
LINE
8
BLACK
6
CONTINUOUS
10
34.9726
20
-131.505
11
34.9726
21
-130.171
0
LINE
8
BLACK
6
CONTINUOUS
10
34.9726
20
-130.362
11
35.0679
21
-130.267
0
LINE
8
BLACK
6
CONTINUOUS
10
35.0679
20
-130.267
11
35.2583
21
-130.171
0
LINE
8
BLACK
6
CONTINUOUS
10
35.2583
20
-130.171
11
35.544
21
-130.171
0
LINE
8
BLACK
6
CONTINUOUS
10
35.544
20
-130.171
11
35.7345
21
-130.267
0
LINE
8
BLACK
6
CONTINUOUS
10
35.7345
20
-130.267
11
35.8298
21
-130.457
0
LINE
8
BLACK
6
CONTINUOUS
10
35.8298
20
-130.457
11
35.8298
21
-131.505
0
LINE
8
BLACK
6
CONTINUOUS
10
35.8298
20
-130.457
11
35.925
21
-130.267
0
LINE
8
BLACK
6
CONTINUOUS
10
35.925
20
-130.267
11
36.1155
21
-130.171
0
LINE
8
BLACK
6
CONTINUOUS
10
36.1155
20
-130.171
11
36.4012
21
-130.171
0
LINE
8
BLACK
6
CONTINUOUS
10
36.4012
20
-130.171
11
36.5917
21
-130.267
0
LINE
8
BLACK
6
CONTINUOUS
10
36.5917
20
-130.267
11
36.6869
21
-130.457
0
LINE
8
BLACK
6
CONTINUOUS
10
36.6869
20
-130.457
11
36.6869
21
-131.505
0
LINE
8
BLACK
6
CONTINUOUS
10
37.6393
20
-131.505
11
37.6393
21
-130.171
0
LINE
8
BLACK
6
CONTINUOUS
10
37.6393
20
-130.362
11
37.7345
21
-130.267
0
LINE
8
BLACK
6
CONTINUOUS
10
37.7345
20
-130.267
11
37.925
21
-130.171
0
LINE
8
BLACK
6
CONTINUOUS
10
37.925
20
-130.171
11
38.2107
21
-130.171
0
LINE
8
BLACK
6
CONTINUOUS
10
38.2107
20
-130.171
11
38.4012
21
-130.267
0
LINE
8
BLACK
6
CONTINUOUS
10
38.4012
20
-130.267
11
38.4964
21
-130.457
0
LINE
8
BLACK
6
CONTINUOUS
10
38.4964
20
-130.457
11
38.4964
21
-131.505
0
LINE
8
BLACK
6
CONTINUOUS
10
38.4964
20
-130.457
11
38.5917
21
-130.267
0
LINE
8
BLACK
6
CONTINUOUS
10
38.5917
20
-130.267
11
38.7821
21
-130.171
0
LINE
8
BLACK
6
CONTINUOUS
10
38.7821
20
-130.171
11
39.0679
21
-130.171
0
LINE
8
BLACK
6
CONTINUOUS
10
39.0679
20
-130.171
11
39.2583
21
-130.267
0
LINE
8
BLACK
6
CONTINUOUS
10
39.2583
20
-130.267
11
39.3536
21
-130.457
0
LINE
8
BLACK
6
CONTINUOUS
10
39.3536
20
-130.457
11
39.3536
21
-131.505
0
LINE
8
BLACK
6
CONTINUOUS
10
43.2583
20
-129.41
11
41.544
21
-131.981
0
LINE
8
BLACK
6
CONTINUOUS
10
45.8298
20
-129.505
11
46.0202
21
-129.505
0
LINE
8
BLACK
6
CONTINUOUS
10
46.0202
20
-129.505
11
46.2107
21
-129.6
0
LINE
8
BLACK
6
CONTINUOUS
10
46.2107
20
-129.6
11
46.306
21
-129.695
0
LINE
8
BLACK
6
CONTINUOUS
10
46.306
20
-129.695
11
46.4012
21
-129.886
0
LINE
8
BLACK
6
CONTINUOUS
10
46.4012
20
-129.886
11
46.4964
21
-130.267
0
LINE
8
BLACK
6
CONTINUOUS
10
46.4964
20
-130.267
11
46.4964
21
-130.743
0
LINE
8
BLACK
6
CONTINUOUS
10
46.4964
20
-130.743
11
46.4012
21
-131.124
0
LINE
8
BLACK
6
CONTINUOUS
10
46.4012
20
-131.124
11
46.306
21
-131.314
0
LINE
8
BLACK
6
CONTINUOUS
10
46.306
20
-131.314
11
46.2107
21
-131.41
0
LINE
8
BLACK
6
CONTINUOUS
10
46.2107
20
-131.41
11
46.0202
21
-131.505
0
LINE
8
BLACK
6
CONTINUOUS
10
46.0202
20
-131.505
11
45.8298
21
-131.505
0
LINE
8
BLACK
6
CONTINUOUS
10
45.8298
20
-131.505
11
45.6393
21
-131.41
0
LINE
8
BLACK
6
CONTINUOUS
10
45.6393
20
-131.41
11
45.544
21
-131.314
0
LINE
8
BLACK
6
CONTINUOUS
10
45.544
20
-131.314
11
45.4488
21
-131.124
0
LINE
8
BLACK
6
CONTINUOUS
10
45.4488
20
-131.124
11
45.3536
21
-130.743
0
LINE
8
BLACK
6
CONTINUOUS
10
45.3536
20
-130.743
11
45.3536
21
-130.267
0
LINE
8
BLACK
6
CONTINUOUS
10
45.3536
20
-130.267
11
45.4488
21
-129.886
0
LINE
8
BLACK
6
CONTINUOUS
10
45.4488
20
-129.886
11
45.544
21
-129.695
0
LINE
8
BLACK
6
CONTINUOUS
10
45.544
20
-129.695
11
45.6393
21
-129.6
0
LINE
8
BLACK
6
CONTINUOUS
10
45.6393
20
-129.6
11
45.8298
21
-129.505
0
LINE
8
BLACK
6
CONTINUOUS
10
47.3536
20
-131.314
11
47.4488
21
-131.41
0
LINE
8
BLACK
6
CONTINUOUS
10
47.4488
20
-131.41
11
47.3536
21
-131.505
0
LINE
8
BLACK
6
CONTINUOUS
10
47.3536
20
-131.505
11
47.2583
21
-131.41
0
LINE
8
BLACK
6
CONTINUOUS
10
47.2583
20
-131.41
11
47.3536
21
-131.314
0
LINE
8
BLACK
6
CONTINUOUS
10
47.3536
20
-131.314
11
47.3536
21
-131.505
0
LINE
8
BLACK
6
CONTINUOUS
10
48.6869
20
-129.505
11
48.8774
21
-129.505
0
LINE
8
BLACK
6
CONTINUOUS
10
48.8774
20
-129.505
11
49.0679
21
-129.6
0
LINE
8
BLACK
6
CONTINUOUS
10
49.0679
20
-129.6
11
49.1631
21
-129.695
0
LINE
8
BLACK
6
CONTINUOUS
10
49.1631
20
-129.695
11
49.2583
21
-129.886
0
LINE
8
BLACK
6
CONTINUOUS
10
49.2583
20
-129.886
11
49.3536
21
-130.267
0
LINE
8
BLACK
6
CONTINUOUS
10
49.3536
20
-130.267
11
49.3536
21
-130.743
0
LINE
8
BLACK
6
CONTINUOUS
10
49.3536
20
-130.743
11
49.2583
21
-131.124
0
LINE
8
BLACK
6
CONTINUOUS
10
49.2583
20
-131.124
11
49.1631
21
-131.314
0
LINE
8
BLACK
6
CONTINUOUS
10
49.1631
20
-131.314
11
49.0679
21
-131.41
0
LINE
8
BLACK
6
CONTINUOUS
10
49.0679
20
-131.41
11
48.8774
21
-131.505
0
LINE
8
BLACK
6
CONTINUOUS
10
48.8774
20
-131.505
11
48.6869
21
-131.505
0
LINE
8
BLACK
6
CONTINUOUS
10
48.6869
20
-131.505
11
48.4964
21
-131.41
0
LINE
8
BLACK
6
CONTINUOUS
10
48.4964
20
-131.41
11
48.4012
21
-131.314
0
LINE
8
BLACK
6
CONTINUOUS
10
48.4012
20
-131.314
11
48.306
21
-131.124
0
LINE
8
BLACK
6
CONTINUOUS
10
48.306
20
-131.124
11
48.2107
21
-130.743
0
LINE
8
BLACK
6
CONTINUOUS
10
48.2107
20
-130.743
11
48.2107
21
-130.267
0
LINE
8
BLACK
6
CONTINUOUS
10
48.2107
20
-130.267
11
48.306
21
-129.886
0
LINE
8
BLACK
6
CONTINUOUS
10
48.306
20
-129.886
11
48.4012
21
-129.695
0
LINE
8
BLACK
6
CONTINUOUS
10
48.4012
20
-129.695
11
48.4964
21
-129.6
0
LINE
8
BLACK
6
CONTINUOUS
10
48.4964
20
-129.6
11
48.6869
21
-129.505
0
LINE
8
BLACK
6
CONTINUOUS
10
51.2583
20
-131.505
11
50.1155
21
-131.505
0
LINE
8
BLACK
6
CONTINUOUS
10
50.6869
20
-131.505
11
50.6869
21
-129.505
0
LINE
8
BLACK
6
CONTINUOUS
10
50.6869
20
-129.505
11
50.4964
21
-129.79
0
LINE
8
BLACK
6
CONTINUOUS
10
50.4964
20
-129.79
11
50.306
21
-129.981
0
LINE
8
BLACK
6
CONTINUOUS
10
50.306
20
-129.981
11
50.1155
21
-130.076
0
LINE
8
BLACK
6
CONTINUOUS
10
53.0679
20
-129.505
11
52.1155
21
-129.505
0
LINE
8
BLACK
6
CONTINUOUS
10
52.1155
20
-129.505
11
52.0202
21
-130.457
0
LINE
8
BLACK
6
CONTINUOUS
10
52.0202
20
-130.457
11
52.1155
21
-130.362
0
LINE
8
BLACK
6
CONTINUOUS
10
52.1155
20
-130.362
11
52.306
21
-130.267
0
LINE
8
BLACK
6
CONTINUOUS
10
52.306
20
-130.267
11
52.7821
21
-130.267
0
LINE
8
BLACK
6
CONTINUOUS
10
52.7821
20
-130.267
11
52.9726
21
-130.362
0
LINE
8
BLACK
6
CONTINUOUS
10
52.9726
20
-130.362
11
53.0679
21
-130.457
0
LINE
8
BLACK
6
CONTINUOUS
10
53.0679
20
-130.457
11
53.1631
21
-130.648
0
LINE
8
BLACK
6
CONTINUOUS
10
53.1631
20
-130.648
11
53.1631
21
-131.124
0
LINE
8
BLACK
6
CONTINUOUS
10
53.1631
20
-131.124
11
53.0679
21
-131.314
0
LINE
8
BLACK
6
CONTINUOUS
10
53.0679
20
-131.314
11
52.9726
21
-131.41
0
LINE
8
BLACK
6
CONTINUOUS
10
52.9726
20
-131.41
11
52.7821
21
-131.505
0
LINE
8
BLACK
6
CONTINUOUS
10
52.7821
20
-131.505
11
52.306
21
-131.505
0
LINE
8
BLACK
6
CONTINUOUS
10
52.306
20
-131.505
11
52.1155
21
-131.41
0
LINE
8
BLACK
6
CONTINUOUS
10
52.1155
20
-131.41
11
52.0202
21
-131.314
0
LINE
8
BLACK
6
CONTINUOUS
10
53.8298
20
-129.505
11
55.1631
21
-129.505
0
LINE
8
BLACK
6
CONTINUOUS
10
55.1631
20
-129.505
11
54.306
21
-131.505
0
LINE
8
BLACK
6
CONTINUOUS
10
55.8298
20
-129.505
11
55.8298
21
-129.886
0
LINE
8
BLACK
6
CONTINUOUS
10
56.5917
20
-129.505
11
56.5917
21
-129.886
0
LINE
8
BLACK
6
CONTINUOUS
10
59.544
20
-132.267
11
59.4488
21
-132.171
0
LINE
8
BLACK
6
CONTINUOUS
10
59.4488
20
-132.171
11
59.2583
21
-131.886
0
LINE
8
BLACK
6
CONTINUOUS
10
59.2583
20
-131.886
11
59.1631
21
-131.695
0
LINE
8
BLACK
6
CONTINUOUS
10
59.1631
20
-131.695
11
59.0679
21
-131.41
0
LINE
8
BLACK
6
CONTINUOUS
10
59.0679
20
-131.41
11
58.9726
21
-130.933
0
LINE
8
BLACK
6
CONTINUOUS
10
58.9726
20
-130.933
11
58.9726
21
-130.552
0
LINE
8
BLACK
6
CONTINUOUS
10
58.9726
20
-130.552
11
59.0679
21
-130.076
0
LINE
8
BLACK
6
CONTINUOUS
10
59.0679
20
-130.076
11
59.1631
21
-129.79
0
LINE
8
BLACK
6
CONTINUOUS
10
59.1631
20
-129.79
11
59.2583
21
-129.6
0
LINE
8
BLACK
6
CONTINUOUS
10
59.2583
20
-129.6
11
59.4488
21
-129.314
0
LINE
8
BLACK
6
CONTINUOUS
10
59.4488
20
-129.314
11
59.544
21
-129.219
0
LINE
8
BLACK
6
CONTINUOUS
10
60.5917
20
-130.362
11
60.4012
21
-130.267
0
LINE
8
BLACK
6
CONTINUOUS
10
60.4012
20
-130.267
11
60.306
21
-130.171
0
LINE
8
BLACK
6
CONTINUOUS
10
60.306
20
-130.171
11
60.2107
21
-129.981
0
LINE
8
BLACK
6
CONTINUOUS
10
60.2107
20
-129.981
11
60.2107
21
-129.886
0
LINE
8
BLACK
6
CONTINUOUS
10
60.2107
20
-129.886
11
60.306
21
-129.695
0
LINE
8
BLACK
6
CONTINUOUS
10
60.306
20
-129.695
11
60.4012
21
-129.6
0
LINE
8
BLACK
6
CONTINUOUS
10
60.4012
20
-129.6
11
60.5917
21
-129.505
0
LINE
8
BLACK
6
CONTINUOUS
10
60.5917
20
-129.505
11
60.9726
21
-129.505
0
LINE
8
BLACK
6
CONTINUOUS
10
60.9726
20
-129.505
11
61.1631
21
-129.6
0
LINE
8
BLACK
6
CONTINUOUS
10
61.1631
20
-129.6
11
61.2583
21
-129.695
0
LINE
8
BLACK
6
CONTINUOUS
10
61.2583
20
-129.695
11
61.3536
21
-129.886
0
LINE
8
BLACK
6
CONTINUOUS
10
61.3536
20
-129.886
11
61.3536
21
-129.981
0
LINE
8
BLACK
6
CONTINUOUS
10
61.3536
20
-129.981
11
61.2583
21
-130.171
0
LINE
8
BLACK
6
CONTINUOUS
10
61.2583
20
-130.171
11
61.1631
21
-130.267
0
LINE
8
BLACK
6
CONTINUOUS
10
61.1631
20
-130.267
11
60.9726
21
-130.362
0
LINE
8
BLACK
6
CONTINUOUS
10
60.9726
20
-130.362
11
60.5917
21
-130.362
0
LINE
8
BLACK
6
CONTINUOUS
10
60.5917
20
-130.362
11
60.4012
21
-130.457
0
LINE
8
BLACK
6
CONTINUOUS
10
60.4012
20
-130.457
11
60.306
21
-130.552
0
LINE
8
BLACK
6
CONTINUOUS
10
60.306
20
-130.552
11
60.2107
21
-130.743
0
LINE
8
BLACK
6
CONTINUOUS
10
60.2107
20
-130.743
11
60.2107
21
-131.124
0
LINE
8
BLACK
6
CONTINUOUS
10
60.2107
20
-131.124
11
60.306
21
-131.314
0
LINE
8
BLACK
6
CONTINUOUS
10
60.306
20
-131.314
11
60.4012
21
-131.41
0
LINE
8
BLACK
6
CONTINUOUS
10
60.4012
20
-131.41
11
60.5917
21
-131.505
0
LINE
8
BLACK
6
CONTINUOUS
10
60.5917
20
-131.505
11
60.9726
21
-131.505
0
LINE
8
BLACK
6
CONTINUOUS
10
60.9726
20
-131.505
11
61.1631
21
-131.41
0
LINE
8
BLACK
6
CONTINUOUS
10
61.1631
20
-131.41
11
61.2583
21
-131.314
0
LINE
8
BLACK
6
CONTINUOUS
10
61.2583
20
-131.314
11
61.3536
21
-131.124
0
LINE
8
BLACK
6
CONTINUOUS
10
61.3536
20
-131.124
11
61.3536
21
-130.743
0
LINE
8
BLACK
6
CONTINUOUS
10
61.3536
20
-130.743
11
61.2583
21
-130.552
0
LINE
8
BLACK
6
CONTINUOUS
10
61.2583
20
-130.552
11
61.1631
21
-130.457
0
LINE
8
BLACK
6
CONTINUOUS
10
61.1631
20
-130.457
11
60.9726
21
-130.362
0
LINE
8
BLACK
6
CONTINUOUS
10
63.7345
20
-131.505
11
63.7345
21
-129.505
0
LINE
8
BLACK
6
CONTINUOUS
10
64.5917
20
-131.505
11
64.5917
21
-130.457
0
LINE
8
BLACK
6
CONTINUOUS
10
64.5917
20
-130.457
11
64.4964
21
-130.267
0
LINE
8
BLACK
6
CONTINUOUS
10
64.4964
20
-130.267
11
64.306
21
-130.171
0
LINE
8
BLACK
6
CONTINUOUS
10
64.306
20
-130.171
11
64.0202
21
-130.171
0
LINE
8
BLACK
6
CONTINUOUS
10
64.0202
20
-130.171
11
63.8298
21
-130.267
0
LINE
8
BLACK
6
CONTINUOUS
10
63.8298
20
-130.267
11
63.7345
21
-130.362
0
LINE
8
BLACK
6
CONTINUOUS
10
65.8298
20
-131.505
11
65.6393
21
-131.41
0
LINE
8
BLACK
6
CONTINUOUS
10
65.6393
20
-131.41
11
65.544
21
-131.314
0
LINE
8
BLACK
6
CONTINUOUS
10
65.544
20
-131.314
11
65.4488
21
-131.124
0
LINE
8
BLACK
6
CONTINUOUS
10
65.4488
20
-131.124
11
65.4488
21
-130.552
0
LINE
8
BLACK
6
CONTINUOUS
10
65.4488
20
-130.552
11
65.544
21
-130.362
0
LINE
8
BLACK
6
CONTINUOUS
10
65.544
20
-130.362
11
65.6393
21
-130.267
0
LINE
8
BLACK
6
CONTINUOUS
10
65.6393
20
-130.267
11
65.8298
21
-130.171
0
LINE
8
BLACK
6
CONTINUOUS
10
65.8298
20
-130.171
11
66.1155
21
-130.171
0
LINE
8
BLACK
6
CONTINUOUS
10
66.1155
20
-130.171
11
66.306
21
-130.267
0
LINE
8
BLACK
6
CONTINUOUS
10
66.306
20
-130.267
11
66.4012
21
-130.362
0
LINE
8
BLACK
6
CONTINUOUS
10
66.4012
20
-130.362
11
66.4964
21
-130.552
0
LINE
8
BLACK
6
CONTINUOUS
10
66.4964
20
-130.552
11
66.4964
21
-131.124
0
LINE
8
BLACK
6
CONTINUOUS
10
66.4964
20
-131.124
11
66.4012
21
-131.314
0
LINE
8
BLACK
6
CONTINUOUS
10
66.4012
20
-131.314
11
66.306
21
-131.41
0
LINE
8
BLACK
6
CONTINUOUS
10
66.306
20
-131.41
11
66.1155
21
-131.505
0
LINE
8
BLACK
6
CONTINUOUS
10
66.1155
20
-131.505
11
65.8298
21
-131.505
0
LINE
8
BLACK
6
CONTINUOUS
10
67.6393
20
-131.505
11
67.4488
21
-131.41
0
LINE
8
BLACK
6
CONTINUOUS
10
67.4488
20
-131.41
11
67.3536
21
-131.219
0
LINE
8
BLACK
6
CONTINUOUS
10
67.3536
20
-131.219
11
67.3536
21
-129.505
0
LINE
8
BLACK
6
CONTINUOUS
10
69.1631
20
-131.41
11
68.9726
21
-131.505
0
LINE
8
BLACK
6
CONTINUOUS
10
68.9726
20
-131.505
11
68.5917
21
-131.505
0
LINE
8
BLACK
6
CONTINUOUS
10
68.5917
20
-131.505
11
68.4012
21
-131.41
0
LINE
8
BLACK
6
CONTINUOUS
10
68.4012
20
-131.41
11
68.306
21
-131.219
0
LINE
8
BLACK
6
CONTINUOUS
10
68.306
20
-131.219
11
68.306
21
-130.457
0
LINE
8
BLACK
6
CONTINUOUS
10
68.306
20
-130.457
11
68.4012
21
-130.267
0
LINE
8
BLACK
6
CONTINUOUS
10
68.4012
20
-130.267
11
68.5917
21
-130.171
0
LINE
8
BLACK
6
CONTINUOUS
10
68.5917
20
-130.171
11
68.9726
21
-130.171
0
LINE
8
BLACK
6
CONTINUOUS
10
68.9726
20
-130.171
11
69.1631
21
-130.267
0
LINE
8
BLACK
6
CONTINUOUS
10
69.1631
20
-130.267
11
69.2583
21
-130.457
0
LINE
8
BLACK
6
CONTINUOUS
10
69.2583
20
-130.457
11
69.2583
21
-130.648
0
LINE
8
BLACK
6
CONTINUOUS
10
69.2583
20
-130.648
11
68.306
21
-130.838
0
LINE
8
BLACK
6
CONTINUOUS
10
70.0202
20
-131.41
11
70.2107
21
-131.505
0
LINE
8
BLACK
6
CONTINUOUS
10
70.2107
20
-131.505
11
70.5917
21
-131.505
0
LINE
8
BLACK
6
CONTINUOUS
10
70.5917
20
-131.505
11
70.7821
21
-131.41
0
LINE
8
BLACK
6
CONTINUOUS
10
70.7821
20
-131.41
11
70.8774
21
-131.219
0
LINE
8
BLACK
6
CONTINUOUS
10
70.8774
20
-131.219
11
70.8774
21
-131.124
0
LINE
8
BLACK
6
CONTINUOUS
10
70.8774
20
-131.124
11
70.7821
21
-130.933
0
LINE
8
BLACK
6
CONTINUOUS
10
70.7821
20
-130.933
11
70.5917
21
-130.838
0
LINE
8
BLACK
6
CONTINUOUS
10
70.5917
20
-130.838
11
70.306
21
-130.838
0
LINE
8
BLACK
6
CONTINUOUS
10
70.306
20
-130.838
11
70.1155
21
-130.743
0
LINE
8
BLACK
6
CONTINUOUS
10
70.1155
20
-130.743
11
70.0202
21
-130.552
0
LINE
8
BLACK
6
CONTINUOUS
10
70.0202
20
-130.552
11
70.0202
21
-130.457
0
LINE
8
BLACK
6
CONTINUOUS
10
70.0202
20
-130.457
11
70.1155
21
-130.267
0
LINE
8
BLACK
6
CONTINUOUS
10
70.1155
20
-130.267
11
70.306
21
-130.171
0
LINE
8
BLACK
6
CONTINUOUS
10
70.306
20
-130.171
11
70.5917
21
-130.171
0
LINE
8
BLACK
6
CONTINUOUS
10
70.5917
20
-130.171
11
70.7821
21
-130.267
0
LINE
8
BLACK
6
CONTINUOUS
10
71.544
20
-132.267
11
71.6393
21
-132.171
0
LINE
8
BLACK
6
CONTINUOUS
10
71.6393
20
-132.171
11
71.8298
21
-131.886
0
LINE
8
BLACK
6
CONTINUOUS
10
71.8298
20
-131.886
11
71.925
21
-131.695
0
LINE
8
BLACK
6
CONTINUOUS
10
71.925
20
-131.695
11
72.0202
21
-131.41
0
LINE
8
BLACK
6
CONTINUOUS
10
72.0202
20
-131.41
11
72.1155
21
-130.933
0
LINE
8
BLACK
6
CONTINUOUS
10
72.1155
20
-130.933
11
72.1155
21
-130.552
0
LINE
8
BLACK
6
CONTINUOUS
10
72.1155
20
-130.552
11
72.0202
21
-130.076
0
LINE
8
BLACK
6
CONTINUOUS
10
72.0202
20
-130.076
11
71.925
21
-129.79
0
LINE
8
BLACK
6
CONTINUOUS
10
71.925
20
-129.79
11
71.8298
21
-129.6
0
LINE
8
BLACK
6
CONTINUOUS
10
71.8298
20
-129.6
11
71.6393
21
-129.314
0
LINE
8
BLACK
6
CONTINUOUS
10
71.6393
20
-129.314
11
71.544
21
-129.219
0
CIRCLE
8
BLACK
10
23.3297
20
-133.24
40
0.4953
0
LINE
8
BLACK
6
CONTINUOUS
10
26.7821
20
-132.145
11
26.9726
21
-132.145
0
LINE
8
BLACK
6
CONTINUOUS
10
26.9726
20
-132.145
11
27.1631
21
-132.24
0
LINE
8
BLACK
6
CONTINUOUS
10
27.1631
20
-132.24
11
27.2583
21
-132.335
0
LINE
8
BLACK
6
CONTINUOUS
10
27.2583
20
-132.335
11
27.3536
21
-132.526
0
LINE
8
BLACK
6
CONTINUOUS
10
27.3536
20
-132.526
11
27.4488
21
-132.907
0
LINE
8
BLACK
6
CONTINUOUS
10
27.4488
20
-132.907
11
27.4488
21
-133.383
0
LINE
8
BLACK
6
CONTINUOUS
10
27.4488
20
-133.383
11
27.3536
21
-133.764
0
LINE
8
BLACK
6
CONTINUOUS
10
27.3536
20
-133.764
11
27.2583
21
-133.954
0
LINE
8
BLACK
6
CONTINUOUS
10
27.2583
20
-133.954
11
27.1631
21
-134.05
0
LINE
8
BLACK
6
CONTINUOUS
10
27.1631
20
-134.05
11
26.9726
21
-134.145
0
LINE
8
BLACK
6
CONTINUOUS
10
26.9726
20
-134.145
11
26.7821
21
-134.145
0
LINE
8
BLACK
6
CONTINUOUS
10
26.7821
20
-134.145
11
26.5917
21
-134.05
0
LINE
8
BLACK
6
CONTINUOUS
10
26.5917
20
-134.05
11
26.4964
21
-133.954
0
LINE
8
BLACK
6
CONTINUOUS
10
26.4964
20
-133.954
11
26.4012
21
-133.764
0
LINE
8
BLACK
6
CONTINUOUS
10
26.4012
20
-133.764
11
26.306
21
-133.383
0
LINE
8
BLACK
6
CONTINUOUS
10
26.306
20
-133.383
11
26.306
21
-132.907
0
LINE
8
BLACK
6
CONTINUOUS
10
26.306
20
-132.907
11
26.4012
21
-132.526
0
LINE
8
BLACK
6
CONTINUOUS
10
26.4012
20
-132.526
11
26.4964
21
-132.335
0
LINE
8
BLACK
6
CONTINUOUS
10
26.4964
20
-132.335
11
26.5917
21
-132.24
0
LINE
8
BLACK
6
CONTINUOUS
10
26.5917
20
-132.24
11
26.7821
21
-132.145
0
LINE
8
BLACK
6
CONTINUOUS
10
28.306
20
-133.954
11
28.4012
21
-134.05
0
LINE
8
BLACK
6
CONTINUOUS
10
28.4012
20
-134.05
11
28.306
21
-134.145
0
LINE
8
BLACK
6
CONTINUOUS
10
28.306
20
-134.145
11
28.2107
21
-134.05
0
LINE
8
BLACK
6
CONTINUOUS
10
28.2107
20
-134.05
11
28.306
21
-133.954
0
LINE
8
BLACK
6
CONTINUOUS
10
28.306
20
-133.954
11
28.306
21
-134.145
0
LINE
8
BLACK
6
CONTINUOUS
10
29.3536
20
-134.145
11
29.7345
21
-134.145
0
LINE
8
BLACK
6
CONTINUOUS
10
29.7345
20
-134.145
11
29.925
21
-134.05
0
LINE
8
BLACK
6
CONTINUOUS
10
29.925
20
-134.05
11
30.0202
21
-133.954
0
LINE
8
BLACK
6
CONTINUOUS
10
30.0202
20
-133.954
11
30.2107
21
-133.669
0
LINE
8
BLACK
6
CONTINUOUS
10
30.2107
20
-133.669
11
30.306
21
-133.288
0
LINE
8
BLACK
6
CONTINUOUS
10
30.306
20
-133.288
11
30.306
21
-132.526
0
LINE
8
BLACK
6
CONTINUOUS
10
30.306
20
-132.526
11
30.2107
21
-132.335
0
LINE
8
BLACK
6
CONTINUOUS
10
30.2107
20
-132.335
11
30.1155
21
-132.24
0
LINE
8
BLACK
6
CONTINUOUS
10
30.1155
20
-132.24
11
29.925
21
-132.145
0
LINE
8
BLACK
6
CONTINUOUS
10
29.925
20
-132.145
11
29.544
21
-132.145
0
LINE
8
BLACK
6
CONTINUOUS
10
29.544
20
-132.145
11
29.3536
21
-132.24
0
LINE
8
BLACK
6
CONTINUOUS
10
29.3536
20
-132.24
11
29.2583
21
-132.335
0
LINE
8
BLACK
6
CONTINUOUS
10
29.2583
20
-132.335
11
29.1631
21
-132.526
0
LINE
8
BLACK
6
CONTINUOUS
10
29.1631
20
-132.526
11
29.1631
21
-133.002
0
LINE
8
BLACK
6
CONTINUOUS
10
29.1631
20
-133.002
11
29.2583
21
-133.192
0
LINE
8
BLACK
6
CONTINUOUS
10
29.2583
20
-133.192
11
29.3536
21
-133.288
0
LINE
8
BLACK
6
CONTINUOUS
10
29.3536
20
-133.288
11
29.544
21
-133.383
0
LINE
8
BLACK
6
CONTINUOUS
10
29.544
20
-133.383
11
29.925
21
-133.383
0
LINE
8
BLACK
6
CONTINUOUS
10
29.925
20
-133.383
11
30.1155
21
-133.288
0
LINE
8
BLACK
6
CONTINUOUS
10
30.1155
20
-133.288
11
30.2107
21
-133.192
0
LINE
8
BLACK
6
CONTINUOUS
10
30.2107
20
-133.192
11
30.306
21
-133.002
0
LINE
8
BLACK
6
CONTINUOUS
10
31.2583
20
-134.145
11
31.6393
21
-134.145
0
LINE
8
BLACK
6
CONTINUOUS
10
31.6393
20
-134.145
11
31.8298
21
-134.05
0
LINE
8
BLACK
6
CONTINUOUS
10
31.8298
20
-134.05
11
31.925
21
-133.954
0
LINE
8
BLACK
6
CONTINUOUS
10
31.925
20
-133.954
11
32.1155
21
-133.669
0
LINE
8
BLACK
6
CONTINUOUS
10
32.1155
20
-133.669
11
32.2107
21
-133.288
0
LINE
8
BLACK
6
CONTINUOUS
10
32.2107
20
-133.288
11
32.2107
21
-132.526
0
LINE
8
BLACK
6
CONTINUOUS
10
32.2107
20
-132.526
11
32.1155
21
-132.335
0
LINE
8
BLACK
6
CONTINUOUS
10
32.1155
20
-132.335
11
32.0202
21
-132.24
0
LINE
8
BLACK
6
CONTINUOUS
10
32.0202
20
-132.24
11
31.8298
21
-132.145
0
LINE
8
BLACK
6
CONTINUOUS
10
31.8298
20
-132.145
11
31.4488
21
-132.145
0
LINE
8
BLACK
6
CONTINUOUS
10
31.4488
20
-132.145
11
31.2583
21
-132.24
0
LINE
8
BLACK
6
CONTINUOUS
10
31.2583
20
-132.24
11
31.1631
21
-132.335
0
LINE
8
BLACK
6
CONTINUOUS
10
31.1631
20
-132.335
11
31.0679
21
-132.526
0
LINE
8
BLACK
6
CONTINUOUS
10
31.0679
20
-132.526
11
31.0679
21
-133.002
0
LINE
8
BLACK
6
CONTINUOUS
10
31.0679
20
-133.002
11
31.1631
21
-133.192
0
LINE
8
BLACK
6
CONTINUOUS
10
31.1631
20
-133.192
11
31.2583
21
-133.288
0
LINE
8
BLACK
6
CONTINUOUS
10
31.2583
20
-133.288
11
31.4488
21
-133.383
0
LINE
8
BLACK
6
CONTINUOUS
10
31.4488
20
-133.383
11
31.8298
21
-133.383
0
LINE
8
BLACK
6
CONTINUOUS
10
31.8298
20
-133.383
11
32.0202
21
-133.288
0
LINE
8
BLACK
6
CONTINUOUS
10
32.0202
20
-133.288
11
32.1155
21
-133.192
0
LINE
8
BLACK
6
CONTINUOUS
10
32.1155
20
-133.192
11
32.2107
21
-133.002
0
LINE
8
BLACK
6
CONTINUOUS
10
34.1155
20
-134.145
11
32.9726
21
-134.145
0
LINE
8
BLACK
6
CONTINUOUS
10
33.544
20
-134.145
11
33.544
21
-132.145
0
LINE
8
BLACK
6
CONTINUOUS
10
33.544
20
-132.145
11
33.3536
21
-132.43
0
LINE
8
BLACK
6
CONTINUOUS
10
33.3536
20
-132.43
11
33.1631
21
-132.621
0
LINE
8
BLACK
6
CONTINUOUS
10
33.1631
20
-132.621
11
32.9726
21
-132.716
0
LINE
8
BLACK
6
CONTINUOUS
10
34.9726
20
-134.145
11
34.9726
21
-132.811
0
LINE
8
BLACK
6
CONTINUOUS
10
34.9726
20
-133.002
11
35.0679
21
-132.907
0
LINE
8
BLACK
6
CONTINUOUS
10
35.0679
20
-132.907
11
35.2583
21
-132.811
0
LINE
8
BLACK
6
CONTINUOUS
10
35.2583
20
-132.811
11
35.544
21
-132.811
0
LINE
8
BLACK
6
CONTINUOUS
10
35.544
20
-132.811
11
35.7345
21
-132.907
0
LINE
8
BLACK
6
CONTINUOUS
10
35.7345
20
-132.907
11
35.8298
21
-133.097
0
LINE
8
BLACK
6
CONTINUOUS
10
35.8298
20
-133.097
11
35.8298
21
-134.145
0
LINE
8
BLACK
6
CONTINUOUS
10
35.8298
20
-133.097
11
35.925
21
-132.907
0
LINE
8
BLACK
6
CONTINUOUS
10
35.925
20
-132.907
11
36.1155
21
-132.811
0
LINE
8
BLACK
6
CONTINUOUS
10
36.1155
20
-132.811
11
36.4012
21
-132.811
0
LINE
8
BLACK
6
CONTINUOUS
10
36.4012
20
-132.811
11
36.5917
21
-132.907
0
LINE
8
BLACK
6
CONTINUOUS
10
36.5917
20
-132.907
11
36.6869
21
-133.097
0
LINE
8
BLACK
6
CONTINUOUS
10
36.6869
20
-133.097
11
36.6869
21
-134.145
0
LINE
8
BLACK
6
CONTINUOUS
10
37.6393
20
-134.145
11
37.6393
21
-132.811
0
LINE
8
BLACK
6
CONTINUOUS
10
37.6393
20
-133.002
11
37.7345
21
-132.907
0
LINE
8
BLACK
6
CONTINUOUS
10
37.7345
20
-132.907
11
37.925
21
-132.811
0
LINE
8
BLACK
6
CONTINUOUS
10
37.925
20
-132.811
11
38.2107
21
-132.811
0
LINE
8
BLACK
6
CONTINUOUS
10
38.2107
20
-132.811
11
38.4012
21
-132.907
0
LINE
8
BLACK
6
CONTINUOUS
10
38.4012
20
-132.907
11
38.4964
21
-133.097
0
LINE
8
BLACK
6
CONTINUOUS
10
38.4964
20
-133.097
11
38.4964
21
-134.145
0
LINE
8
BLACK
6
CONTINUOUS
10
38.4964
20
-133.097
11
38.5917
21
-132.907
0
LINE
8
BLACK
6
CONTINUOUS
10
38.5917
20
-132.907
11
38.7821
21
-132.811
0
LINE
8
BLACK
6
CONTINUOUS
10
38.7821
20
-132.811
11
39.0679
21
-132.811
0
LINE
8
BLACK
6
CONTINUOUS
10
39.0679
20
-132.811
11
39.2583
21
-132.907
0
LINE
8
BLACK
6
CONTINUOUS
10
39.2583
20
-132.907
11
39.3536
21
-133.097
0
LINE
8
BLACK
6
CONTINUOUS
10
39.3536
20
-133.097
11
39.3536
21
-134.145
0
LINE
8
BLACK
6
CONTINUOUS
10
43.2583
20
-132.05
11
41.544
21
-134.621
0
LINE
8
BLACK
6
CONTINUOUS
10
45.8298
20
-132.145
11
46.0202
21
-132.145
0
LINE
8
BLACK
6
CONTINUOUS
10
46.0202
20
-132.145
11
46.2107
21
-132.24
0
LINE
8
BLACK
6
CONTINUOUS
10
46.2107
20
-132.24
11
46.306
21
-132.335
0
LINE
8
BLACK
6
CONTINUOUS
10
46.306
20
-132.335
11
46.4012
21
-132.526
0
LINE
8
BLACK
6
CONTINUOUS
10
46.4012
20
-132.526
11
46.4964
21
-132.907
0
LINE
8
BLACK
6
CONTINUOUS
10
46.4964
20
-132.907
11
46.4964
21
-133.383
0
LINE
8
BLACK
6
CONTINUOUS
10
46.4964
20
-133.383
11
46.4012
21
-133.764
0
LINE
8
BLACK
6
CONTINUOUS
10
46.4012
20
-133.764
11
46.306
21
-133.954
0
LINE
8
BLACK
6
CONTINUOUS
10
46.306
20
-133.954
11
46.2107
21
-134.05
0
LINE
8
BLACK
6
CONTINUOUS
10
46.2107
20
-134.05
11
46.0202
21
-134.145
0
LINE
8
BLACK
6
CONTINUOUS
10
46.0202
20
-134.145
11
45.8298
21
-134.145
0
LINE
8
BLACK
6
CONTINUOUS
10
45.8298
20
-134.145
11
45.6393
21
-134.05
0
LINE
8
BLACK
6
CONTINUOUS
10
45.6393
20
-134.05
11
45.544
21
-133.954
0
LINE
8
BLACK
6
CONTINUOUS
10
45.544
20
-133.954
11
45.4488
21
-133.764
0
LINE
8
BLACK
6
CONTINUOUS
10
45.4488
20
-133.764
11
45.3536
21
-133.383
0
LINE
8
BLACK
6
CONTINUOUS
10
45.3536
20
-133.383
11
45.3536
21
-132.907
0
LINE
8
BLACK
6
CONTINUOUS
10
45.3536
20
-132.907
11
45.4488
21
-132.526
0
LINE
8
BLACK
6
CONTINUOUS
10
45.4488
20
-132.526
11
45.544
21
-132.335
0
LINE
8
BLACK
6
CONTINUOUS
10
45.544
20
-132.335
11
45.6393
21
-132.24
0
LINE
8
BLACK
6
CONTINUOUS
10
45.6393
20
-132.24
11
45.8298
21
-132.145
0
LINE
8
BLACK
6
CONTINUOUS
10
47.3536
20
-133.954
11
47.4488
21
-134.05
0
LINE
8
BLACK
6
CONTINUOUS
10
47.4488
20
-134.05
11
47.3536
21
-134.145
0
LINE
8
BLACK
6
CONTINUOUS
10
47.3536
20
-134.145
11
47.2583
21
-134.05
0
LINE
8
BLACK
6
CONTINUOUS
10
47.2583
20
-134.05
11
47.3536
21
-133.954
0
LINE
8
BLACK
6
CONTINUOUS
10
47.3536
20
-133.954
11
47.3536
21
-134.145
0
LINE
8
BLACK
6
CONTINUOUS
10
48.6869
20
-132.145
11
48.8774
21
-132.145
0
LINE
8
BLACK
6
CONTINUOUS
10
48.8774
20
-132.145
11
49.0679
21
-132.24
0
LINE
8
BLACK
6
CONTINUOUS
10
49.0679
20
-132.24
11
49.1631
21
-132.335
0
LINE
8
BLACK
6
CONTINUOUS
10
49.1631
20
-132.335
11
49.2583
21
-132.526
0
LINE
8
BLACK
6
CONTINUOUS
10
49.2583
20
-132.526
11
49.3536
21
-132.907
0
LINE
8
BLACK
6
CONTINUOUS
10
49.3536
20
-132.907
11
49.3536
21
-133.383
0
LINE
8
BLACK
6
CONTINUOUS
10
49.3536
20
-133.383
11
49.2583
21
-133.764
0
LINE
8
BLACK
6
CONTINUOUS
10
49.2583
20
-133.764
11
49.1631
21
-133.954
0
LINE
8
BLACK
6
CONTINUOUS
10
49.1631
20
-133.954
11
49.0679
21
-134.05
0
LINE
8
BLACK
6
CONTINUOUS
10
49.0679
20
-134.05
11
48.8774
21
-134.145
0
LINE
8
BLACK
6
CONTINUOUS
10
48.8774
20
-134.145
11
48.6869
21
-134.145
0
LINE
8
BLACK
6
CONTINUOUS
10
48.6869
20
-134.145
11
48.4964
21
-134.05
0
LINE
8
BLACK
6
CONTINUOUS
10
48.4964
20
-134.05
11
48.4012
21
-133.954
0
LINE
8
BLACK
6
CONTINUOUS
10
48.4012
20
-133.954
11
48.306
21
-133.764
0
LINE
8
BLACK
6
CONTINUOUS
10
48.306
20
-133.764
11
48.2107
21
-133.383
0
LINE
8
BLACK
6
CONTINUOUS
10
48.2107
20
-133.383
11
48.2107
21
-132.907
0
LINE
8
BLACK
6
CONTINUOUS
10
48.2107
20
-132.907
11
48.306
21
-132.526
0
LINE
8
BLACK
6
CONTINUOUS
10
48.306
20
-132.526
11
48.4012
21
-132.335
0
LINE
8
BLACK
6
CONTINUOUS
10
48.4012
20
-132.335
11
48.4964
21
-132.24
0
LINE
8
BLACK
6
CONTINUOUS
10
48.4964
20
-132.24
11
48.6869
21
-132.145
0
LINE
8
BLACK
6
CONTINUOUS
10
50.0202
20
-132.145
11
51.2583
21
-132.145
0
LINE
8
BLACK
6
CONTINUOUS
10
51.2583
20
-132.145
11
50.5917
21
-132.907
0
LINE
8
BLACK
6
CONTINUOUS
10
50.5917
20
-132.907
11
50.8774
21
-132.907
0
LINE
8
BLACK
6
CONTINUOUS
10
50.8774
20
-132.907
11
51.0679
21
-133.002
0
LINE
8
BLACK
6
CONTINUOUS
10
51.0679
20
-133.002
11
51.1631
21
-133.097
0
LINE
8
BLACK
6
CONTINUOUS
10
51.1631
20
-133.097
11
51.2583
21
-133.288
0
LINE
8
BLACK
6
CONTINUOUS
10
51.2583
20
-133.288
11
51.2583
21
-133.764
0
LINE
8
BLACK
6
CONTINUOUS
10
51.2583
20
-133.764
11
51.1631
21
-133.954
0
LINE
8
BLACK
6
CONTINUOUS
10
51.1631
20
-133.954
11
51.0679
21
-134.05
0
LINE
8
BLACK
6
CONTINUOUS
10
51.0679
20
-134.05
11
50.8774
21
-134.145
0
LINE
8
BLACK
6
CONTINUOUS
10
50.8774
20
-134.145
11
50.306
21
-134.145
0
LINE
8
BLACK
6
CONTINUOUS
10
50.306
20
-134.145
11
50.1155
21
-134.05
0
LINE
8
BLACK
6
CONTINUOUS
10
50.1155
20
-134.05
11
50.0202
21
-133.954
0
LINE
8
BLACK
6
CONTINUOUS
10
52.2107
20
-134.145
11
52.5917
21
-134.145
0
LINE
8
BLACK
6
CONTINUOUS
10
52.5917
20
-134.145
11
52.7821
21
-134.05
0
LINE
8
BLACK
6
CONTINUOUS
10
52.7821
20
-134.05
11
52.8774
21
-133.954
0
LINE
8
BLACK
6
CONTINUOUS
10
52.8774
20
-133.954
11
53.0679
21
-133.669
0
LINE
8
BLACK
6
CONTINUOUS
10
53.0679
20
-133.669
11
53.1631
21
-133.288
0
LINE
8
BLACK
6
CONTINUOUS
10
53.1631
20
-133.288
11
53.1631
21
-132.526
0
LINE
8
BLACK
6
CONTINUOUS
10
53.1631
20
-132.526
11
53.0679
21
-132.335
0
LINE
8
BLACK
6
CONTINUOUS
10
53.0679
20
-132.335
11
52.9726
21
-132.24
0
LINE
8
BLACK
6
CONTINUOUS
10
52.9726
20
-132.24
11
52.7821
21
-132.145
0
LINE
8
BLACK
6
CONTINUOUS
10
52.7821
20
-132.145
11
52.4012
21
-132.145
0
LINE
8
BLACK
6
CONTINUOUS
10
52.4012
20
-132.145
11
52.2107
21
-132.24
0
LINE
8
BLACK
6
CONTINUOUS
10
52.2107
20
-132.24
11
52.1155
21
-132.335
0
LINE
8
BLACK
6
CONTINUOUS
10
52.1155
20
-132.335
11
52.0202
21
-132.526
0
LINE
8
BLACK
6
CONTINUOUS
10
52.0202
20
-132.526
11
52.0202
21
-133.002
0
LINE
8
BLACK
6
CONTINUOUS
10
52.0202
20
-133.002
11
52.1155
21
-133.192
0
LINE
8
BLACK
6
CONTINUOUS
10
52.1155
20
-133.192
11
52.2107
21
-133.288
0
LINE
8
BLACK
6
CONTINUOUS
10
52.2107
20
-133.288
11
52.4012
21
-133.383
0
LINE
8
BLACK
6
CONTINUOUS
10
52.4012
20
-133.383
11
52.7821
21
-133.383
0
LINE
8
BLACK
6
CONTINUOUS
10
52.7821
20
-133.383
11
52.9726
21
-133.288
0
LINE
8
BLACK
6
CONTINUOUS
10
52.9726
20
-133.288
11
53.0679
21
-133.192
0
LINE
8
BLACK
6
CONTINUOUS
10
53.0679
20
-133.192
11
53.1631
21
-133.002
0
LINE
8
BLACK
6
CONTINUOUS
10
54.4012
20
-132.145
11
54.5917
21
-132.145
0
LINE
8
BLACK
6
CONTINUOUS
10
54.5917
20
-132.145
11
54.7821
21
-132.24
0
LINE
8
BLACK
6
CONTINUOUS
10
54.7821
20
-132.24
11
54.8774
21
-132.335
0
LINE
8
BLACK
6
CONTINUOUS
10
54.8774
20
-132.335
11
54.9726
21
-132.526
0
LINE
8
BLACK
6
CONTINUOUS
10
54.9726
20
-132.526
11
55.0679
21
-132.907
0
LINE
8
BLACK
6
CONTINUOUS
10
55.0679
20
-132.907
11
55.0679
21
-133.383
0
LINE
8
BLACK
6
CONTINUOUS
10
55.0679
20
-133.383
11
54.9726
21
-133.764
0
LINE
8
BLACK
6
CONTINUOUS
10
54.9726
20
-133.764
11
54.8774
21
-133.954
0
LINE
8
BLACK
6
CONTINUOUS
10
54.8774
20
-133.954
11
54.7821
21
-134.05
0
LINE
8
BLACK
6
CONTINUOUS
10
54.7821
20
-134.05
11
54.5917
21
-134.145
0
LINE
8
BLACK
6
CONTINUOUS
10
54.5917
20
-134.145
11
54.4012
21
-134.145
0
LINE
8
BLACK
6
CONTINUOUS
10
54.4012
20
-134.145
11
54.2107
21
-134.05
0
LINE
8
BLACK
6
CONTINUOUS
10
54.2107
20
-134.05
11
54.1155
21
-133.954
0
LINE
8
BLACK
6
CONTINUOUS
10
54.1155
20
-133.954
11
54.0202
21
-133.764
0
LINE
8
BLACK
6
CONTINUOUS
10
54.0202
20
-133.764
11
53.925
21
-133.383
0
LINE
8
BLACK
6
CONTINUOUS
10
53.925
20
-133.383
11
53.925
21
-132.907
0
LINE
8
BLACK
6
CONTINUOUS
10
53.925
20
-132.907
11
54.0202
21
-132.526
0
LINE
8
BLACK
6
CONTINUOUS
10
54.0202
20
-132.526
11
54.1155
21
-132.335
0
LINE
8
BLACK
6
CONTINUOUS
10
54.1155
20
-132.335
11
54.2107
21
-132.24
0
LINE
8
BLACK
6
CONTINUOUS
10
54.2107
20
-132.24
11
54.4012
21
-132.145
0
LINE
8
BLACK
6
CONTINUOUS
10
55.8298
20
-132.145
11
55.8298
21
-132.526
0
LINE
8
BLACK
6
CONTINUOUS
10
56.5917
20
-132.145
11
56.5917
21
-132.526
0
LINE
8
BLACK
6
CONTINUOUS
10
59.544
20
-134.907
11
59.4488
21
-134.811
0
LINE
8
BLACK
6
CONTINUOUS
10
59.4488
20
-134.811
11
59.2583
21
-134.526
0
LINE
8
BLACK
6
CONTINUOUS
10
59.2583
20
-134.526
11
59.1631
21
-134.335
0
LINE
8
BLACK
6
CONTINUOUS
10
59.1631
20
-134.335
11
59.0679
21
-134.05
0
LINE
8
BLACK
6
CONTINUOUS
10
59.0679
20
-134.05
11
58.9726
21
-133.573
0
LINE
8
BLACK
6
CONTINUOUS
10
58.9726
20
-133.573
11
58.9726
21
-133.192
0
LINE
8
BLACK
6
CONTINUOUS
10
58.9726
20
-133.192
11
59.0679
21
-132.716
0
LINE
8
BLACK
6
CONTINUOUS
10
59.0679
20
-132.716
11
59.1631
21
-132.43
0
LINE
8
BLACK
6
CONTINUOUS
10
59.1631
20
-132.43
11
59.2583
21
-132.24
0
LINE
8
BLACK
6
CONTINUOUS
10
59.2583
20
-132.24
11
59.4488
21
-131.954
0
LINE
8
BLACK
6
CONTINUOUS
10
59.4488
20
-131.954
11
59.544
21
-131.859
0
LINE
8
BLACK
6
CONTINUOUS
10
60.4012
20
-134.145
11
60.7821
21
-134.145
0
LINE
8
BLACK
6
CONTINUOUS
10
60.7821
20
-134.145
11
60.9726
21
-134.05
0
LINE
8
BLACK
6
CONTINUOUS
10
60.9726
20
-134.05
11
61.0679
21
-133.954
0
LINE
8
BLACK
6
CONTINUOUS
10
61.0679
20
-133.954
11
61.2583
21
-133.669
0
LINE
8
BLACK
6
CONTINUOUS
10
61.2583
20
-133.669
11
61.3536
21
-133.288
0
LINE
8
BLACK
6
CONTINUOUS
10
61.3536
20
-133.288
11
61.3536
21
-132.526
0
LINE
8
BLACK
6
CONTINUOUS
10
61.3536
20
-132.526
11
61.2583
21
-132.335
0
LINE
8
BLACK
6
CONTINUOUS
10
61.2583
20
-132.335
11
61.1631
21
-132.24
0
LINE
8
BLACK
6
CONTINUOUS
10
61.1631
20
-132.24
11
60.9726
21
-132.145
0
LINE
8
BLACK
6
CONTINUOUS
10
60.9726
20
-132.145
11
60.5917
21
-132.145
0
LINE
8
BLACK
6
CONTINUOUS
10
60.5917
20
-132.145
11
60.4012
21
-132.24
0
LINE
8
BLACK
6
CONTINUOUS
10
60.4012
20
-132.24
11
60.306
21
-132.335
0
LINE
8
BLACK
6
CONTINUOUS
10
60.306
20
-132.335
11
60.2107
21
-132.526
0
LINE
8
BLACK
6
CONTINUOUS
10
60.2107
20
-132.526
11
60.2107
21
-133.002
0
LINE
8
BLACK
6
CONTINUOUS
10
60.2107
20
-133.002
11
60.306
21
-133.192
0
LINE
8
BLACK
6
CONTINUOUS
10
60.306
20
-133.192
11
60.4012
21
-133.288
0
LINE
8
BLACK
6
CONTINUOUS
10
60.4012
20
-133.288
11
60.5917
21
-133.383
0
LINE
8
BLACK
6
CONTINUOUS
10
60.5917
20
-133.383
11
60.9726
21
-133.383
0
LINE
8
BLACK
6
CONTINUOUS
10
60.9726
20
-133.383
11
61.1631
21
-133.288
0
LINE
8
BLACK
6
CONTINUOUS
10
61.1631
20
-133.288
11
61.2583
21
-133.192
0
LINE
8
BLACK
6
CONTINUOUS
10
61.2583
20
-133.192
11
61.3536
21
-133.002
0
LINE
8
BLACK
6
CONTINUOUS
10
63.0679
20
-132.811
11
63.0679
21
-134.145
0
LINE
8
BLACK
6
CONTINUOUS
10
62.5917
20
-132.05
11
62.1155
21
-133.478
0
LINE
8
BLACK
6
CONTINUOUS
10
62.1155
20
-133.478
11
63.3536
21
-133.478
0
LINE
8
BLACK
6
CONTINUOUS
10
65.6393
20
-134.145
11
65.6393
21
-132.145
0
LINE
8
BLACK
6
CONTINUOUS
10
66.4964
20
-134.145
11
66.4964
21
-133.097
0
LINE
8
BLACK
6
CONTINUOUS
10
66.4964
20
-133.097
11
66.4012
21
-132.907
0
LINE
8
BLACK
6
CONTINUOUS
10
66.4012
20
-132.907
11
66.2107
21
-132.811
0
LINE
8
BLACK
6
CONTINUOUS
10
66.2107
20
-132.811
11
65.925
21
-132.811
0
LINE
8
BLACK
6
CONTINUOUS
10
65.925
20
-132.811
11
65.7345
21
-132.907
0
LINE
8
BLACK
6
CONTINUOUS
10
65.7345
20
-132.907
11
65.6393
21
-133.002
0
LINE
8
BLACK
6
CONTINUOUS
10
67.7345
20
-134.145
11
67.544
21
-134.05
0
LINE
8
BLACK
6
CONTINUOUS
10
67.544
20
-134.05
11
67.4488
21
-133.954
0
LINE
8
BLACK
6
CONTINUOUS
10
67.4488
20
-133.954
11
67.3536
21
-133.764
0
LINE
8
BLACK
6
CONTINUOUS
10
67.3536
20
-133.764
11
67.3536
21
-133.192
0
LINE
8
BLACK
6
CONTINUOUS
10
67.3536
20
-133.192
11
67.4488
21
-133.002
0
LINE
8
BLACK
6
CONTINUOUS
10
67.4488
20
-133.002
11
67.544
21
-132.907
0
LINE
8
BLACK
6
CONTINUOUS
10
67.544
20
-132.907
11
67.7345
21
-132.811
0
LINE
8
BLACK
6
CONTINUOUS
10
67.7345
20
-132.811
11
68.0202
21
-132.811
0
LINE
8
BLACK
6
CONTINUOUS
10
68.0202
20
-132.811
11
68.2107
21
-132.907
0
LINE
8
BLACK
6
CONTINUOUS
10
68.2107
20
-132.907
11
68.306
21
-133.002
0
LINE
8
BLACK
6
CONTINUOUS
10
68.306
20
-133.002
11
68.4012
21
-133.192
0
LINE
8
BLACK
6
CONTINUOUS
10
68.4012
20
-133.192
11
68.4012
21
-133.764
0
LINE
8
BLACK
6
CONTINUOUS
10
68.4012
20
-133.764
11
68.306
21
-133.954
0
LINE
8
BLACK
6
CONTINUOUS
10
68.306
20
-133.954
11
68.2107
21
-134.05
0
LINE
8
BLACK
6
CONTINUOUS
10
68.2107
20
-134.05
11
68.0202
21
-134.145
0
LINE
8
BLACK
6
CONTINUOUS
10
68.0202
20
-134.145
11
67.7345
21
-134.145
0
LINE
8
BLACK
6
CONTINUOUS
10
69.544
20
-134.145
11
69.3536
21
-134.05
0
LINE
8
BLACK
6
CONTINUOUS
10
69.3536
20
-134.05
11
69.2583
21
-133.859
0
LINE
8
BLACK
6
CONTINUOUS
10
69.2583
20
-133.859
11
69.2583
21
-132.145
0
LINE
8
BLACK
6
CONTINUOUS
10
71.0679
20
-134.05
11
70.8774
21
-134.145
0
LINE
8
BLACK
6
CONTINUOUS
10
70.8774
20
-134.145
11
70.4964
21
-134.145
0
LINE
8
BLACK
6
CONTINUOUS
10
70.4964
20
-134.145
11
70.306
21
-134.05
0
LINE
8
BLACK
6
CONTINUOUS
10
70.306
20
-134.05
11
70.2107
21
-133.859
0
LINE
8
BLACK
6
CONTINUOUS
10
70.2107
20
-133.859
11
70.2107
21
-133.097
0
LINE
8
BLACK
6
CONTINUOUS
10
70.2107
20
-133.097
11
70.306
21
-132.907
0
LINE
8
BLACK
6
CONTINUOUS
10
70.306
20
-132.907
11
70.4964
21
-132.811
0
LINE
8
BLACK
6
CONTINUOUS
10
70.4964
20
-132.811
11
70.8774
21
-132.811
0
LINE
8
BLACK
6
CONTINUOUS
10
70.8774
20
-132.811
11
71.0679
21
-132.907
0
LINE
8
BLACK
6
CONTINUOUS
10
71.0679
20
-132.907
11
71.1631
21
-133.097
0
LINE
8
BLACK
6
CONTINUOUS
10
71.1631
20
-133.097
11
71.1631
21
-133.288
0
LINE
8
BLACK
6
CONTINUOUS
10
71.1631
20
-133.288
11
70.2107
21
-133.478
0
LINE
8
BLACK
6
CONTINUOUS
10
71.925
20
-134.05
11
72.1155
21
-134.145
0
LINE
8
BLACK
6
CONTINUOUS
10
72.1155
20
-134.145
11
72.4964
21
-134.145
0
LINE
8
BLACK
6
CONTINUOUS
10
72.4964
20
-134.145
11
72.6869
21
-134.05
0
LINE
8
BLACK
6
CONTINUOUS
10
72.6869
20
-134.05
11
72.7821
21
-133.859
0
LINE
8
BLACK
6
CONTINUOUS
10
72.7821
20
-133.859
11
72.7821
21
-133.764
0
LINE
8
BLACK
6
CONTINUOUS
10
72.7821
20
-133.764
11
72.6869
21
-133.573
0
LINE
8
BLACK
6
CONTINUOUS
10
72.6869
20
-133.573
11
72.4964
21
-133.478
0
LINE
8
BLACK
6
CONTINUOUS
10
72.4964
20
-133.478
11
72.2107
21
-133.478
0
LINE
8
BLACK
6
CONTINUOUS
10
72.2107
20
-133.478
11
72.0202
21
-133.383
0
LINE
8
BLACK
6
CONTINUOUS
10
72.0202
20
-133.383
11
71.925
21
-133.192
0
LINE
8
BLACK
6
CONTINUOUS
10
71.925
20
-133.192
11
71.925
21
-133.097
0
LINE
8
BLACK
6
CONTINUOUS
10
71.925
20
-133.097
11
72.0202
21
-132.907
0
LINE
8
BLACK
6
CONTINUOUS
10
72.0202
20
-132.907
11
72.2107
21
-132.811
0
LINE
8
BLACK
6
CONTINUOUS
10
72.2107
20
-132.811
11
72.4964
21
-132.811
0
LINE
8
BLACK
6
CONTINUOUS
10
72.4964
20
-132.811
11
72.6869
21
-132.907
0
LINE
8
BLACK
6
CONTINUOUS
10
73.4488
20
-134.907
11
73.544
21
-134.811
0
LINE
8
BLACK
6
CONTINUOUS
10
73.544
20
-134.811
11
73.7345
21
-134.526
0
LINE
8
BLACK
6
CONTINUOUS
10
73.7345
20
-134.526
11
73.8298
21
-134.335
0
LINE
8
BLACK
6
CONTINUOUS
10
73.8298
20
-134.335
11
73.925
21
-134.05
0
LINE
8
BLACK
6
CONTINUOUS
10
73.925
20
-134.05
11
74.0202
21
-133.573
0
LINE
8
BLACK
6
CONTINUOUS
10
74.0202
20
-133.573
11
74.0202
21
-133.192
0
LINE
8
BLACK
6
CONTINUOUS
10
74.0202
20
-133.192
11
73.925
21
-132.716
0
LINE
8
BLACK
6
CONTINUOUS
10
73.925
20
-132.716
11
73.8298
21
-132.43
0
LINE
8
BLACK
6
CONTINUOUS
10
73.8298
20
-132.43
11
73.7345
21
-132.24
0
LINE
8
BLACK
6
CONTINUOUS
10
73.7345
20
-132.24
11
73.544
21
-131.954
0
LINE
8
BLACK
6
CONTINUOUS
10
73.544
20
-131.954
11
73.4488
21
-131.859
0
LINE
8
BLACK
6
CONTINUOUS
10
23.325
20
-135.38
11
23.325
21
-136.38
0
LINE
8
BLACK
6
CONTINUOUS
10
22.825
20
-135.88
11
23.825
21
-135.88
0
LINE
8
BLACK
6
CONTINUOUS
10
27.4488
20
-136.785
11
26.306
21
-136.785
0
LINE
8
BLACK
6
CONTINUOUS
10
26.8774
20
-136.785
11
26.8774
21
-134.785
0
LINE
8
BLACK
6
CONTINUOUS
10
26.8774
20
-134.785
11
26.6869
21
-135.07
0
LINE
8
BLACK
6
CONTINUOUS
10
26.6869
20
-135.07
11
26.4964
21
-135.261
0
LINE
8
BLACK
6
CONTINUOUS
10
26.4964
20
-135.261
11
26.306
21
-135.356
0
LINE
8
BLACK
6
CONTINUOUS
10
28.306
20
-136.594
11
28.4012
21
-136.69
0
LINE
8
BLACK
6
CONTINUOUS
10
28.4012
20
-136.69
11
28.306
21
-136.785
0
LINE
8
BLACK
6
CONTINUOUS
10
28.306
20
-136.785
11
28.2107
21
-136.69
0
LINE
8
BLACK
6
CONTINUOUS
10
28.2107
20
-136.69
11
28.306
21
-136.594
0
LINE
8
BLACK
6
CONTINUOUS
10
28.306
20
-136.594
11
28.306
21
-136.785
0
LINE
8
BLACK
6
CONTINUOUS
10
29.6393
20
-134.785
11
29.8298
21
-134.785
0
LINE
8
BLACK
6
CONTINUOUS
10
29.8298
20
-134.785
11
30.0202
21
-134.88
0
LINE
8
BLACK
6
CONTINUOUS
10
30.0202
20
-134.88
11
30.1155
21
-134.975
0
LINE
8
BLACK
6
CONTINUOUS
10
30.1155
20
-134.975
11
30.2107
21
-135.166
0
LINE
8
BLACK
6
CONTINUOUS
10
30.2107
20
-135.166
11
30.306
21
-135.547
0
LINE
8
BLACK
6
CONTINUOUS
10
30.306
20
-135.547
11
30.306
21
-136.023
0
LINE
8
BLACK
6
CONTINUOUS
10
30.306
20
-136.023
11
30.2107
21
-136.404
0
LINE
8
BLACK
6
CONTINUOUS
10
30.2107
20
-136.404
11
30.1155
21
-136.594
0
LINE
8
BLACK
6
CONTINUOUS
10
30.1155
20
-136.594
11
30.0202
21
-136.69
0
LINE
8
BLACK
6
CONTINUOUS
10
30.0202
20
-136.69
11
29.8298
21
-136.785
0
LINE
8
BLACK
6
CONTINUOUS
10
29.8298
20
-136.785
11
29.6393
21
-136.785
0
LINE
8
BLACK
6
CONTINUOUS
10
29.6393
20
-136.785
11
29.4488
21
-136.69
0
LINE
8
BLACK
6
CONTINUOUS
10
29.4488
20
-136.69
11
29.3536
21
-136.594
0
LINE
8
BLACK
6
CONTINUOUS
10
29.3536
20
-136.594
11
29.2583
21
-136.404
0
LINE
8
BLACK
6
CONTINUOUS
10
29.2583
20
-136.404
11
29.1631
21
-136.023
0
LINE
8
BLACK
6
CONTINUOUS
10
29.1631
20
-136.023
11
29.1631
21
-135.547
0
LINE
8
BLACK
6
CONTINUOUS
10
29.1631
20
-135.547
11
29.2583
21
-135.166
0
LINE
8
BLACK
6
CONTINUOUS
10
29.2583
20
-135.166
11
29.3536
21
-134.975
0
LINE
8
BLACK
6
CONTINUOUS
10
29.3536
20
-134.975
11
29.4488
21
-134.88
0
LINE
8
BLACK
6
CONTINUOUS
10
29.4488
20
-134.88
11
29.6393
21
-134.785
0
LINE
8
BLACK
6
CONTINUOUS
10
31.544
20
-134.785
11
31.7345
21
-134.785
0
LINE
8
BLACK
6
CONTINUOUS
10
31.7345
20
-134.785
11
31.925
21
-134.88
0
LINE
8
BLACK
6
CONTINUOUS
10
31.925
20
-134.88
11
32.0202
21
-134.975
0
LINE
8
BLACK
6
CONTINUOUS
10
32.0202
20
-134.975
11
32.1155
21
-135.166
0
LINE
8
BLACK
6
CONTINUOUS
10
32.1155
20
-135.166
11
32.2107
21
-135.547
0
LINE
8
BLACK
6
CONTINUOUS
10
32.2107
20
-135.547
11
32.2107
21
-136.023
0
LINE
8
BLACK
6
CONTINUOUS
10
32.2107
20
-136.023
11
32.1155
21
-136.404
0
LINE
8
BLACK
6
CONTINUOUS
10
32.1155
20
-136.404
11
32.0202
21
-136.594
0
LINE
8
BLACK
6
CONTINUOUS
10
32.0202
20
-136.594
11
31.925
21
-136.69
0
LINE
8
BLACK
6
CONTINUOUS
10
31.925
20
-136.69
11
31.7345
21
-136.785
0
LINE
8
BLACK
6
CONTINUOUS
10
31.7345
20
-136.785
11
31.544
21
-136.785
0
LINE
8
BLACK
6
CONTINUOUS
10
31.544
20
-136.785
11
31.3536
21
-136.69
0
LINE
8
BLACK
6
CONTINUOUS
10
31.3536
20
-136.69
11
31.2583
21
-136.594
0
LINE
8
BLACK
6
CONTINUOUS
10
31.2583
20
-136.594
11
31.1631
21
-136.404
0
LINE
8
BLACK
6
CONTINUOUS
10
31.1631
20
-136.404
11
31.0679
21
-136.023
0
LINE
8
BLACK
6
CONTINUOUS
10
31.0679
20
-136.023
11
31.0679
21
-135.547
0
LINE
8
BLACK
6
CONTINUOUS
10
31.0679
20
-135.547
11
31.1631
21
-135.166
0
LINE
8
BLACK
6
CONTINUOUS
10
31.1631
20
-135.166
11
31.2583
21
-134.975
0
LINE
8
BLACK
6
CONTINUOUS
10
31.2583
20
-134.975
11
31.3536
21
-134.88
0
LINE
8
BLACK
6
CONTINUOUS
10
31.3536
20
-134.88
11
31.544
21
-134.785
0
LINE
8
BLACK
6
CONTINUOUS
10
33.4488
20
-134.785
11
33.6393
21
-134.785
0
LINE
8
BLACK
6
CONTINUOUS
10
33.6393
20
-134.785
11
33.8298
21
-134.88
0
LINE
8
BLACK
6
CONTINUOUS
10
33.8298
20
-134.88
11
33.925
21
-134.975
0
LINE
8
BLACK
6
CONTINUOUS
10
33.925
20
-134.975
11
34.0202
21
-135.166
0
LINE
8
BLACK
6
CONTINUOUS
10
34.0202
20
-135.166
11
34.1155
21
-135.547
0
LINE
8
BLACK
6
CONTINUOUS
10
34.1155
20
-135.547
11
34.1155
21
-136.023
0
LINE
8
BLACK
6
CONTINUOUS
10
34.1155
20
-136.023
11
34.0202
21
-136.404
0
LINE
8
BLACK
6
CONTINUOUS
10
34.0202
20
-136.404
11
33.925
21
-136.594
0
LINE
8
BLACK
6
CONTINUOUS
10
33.925
20
-136.594
11
33.8298
21
-136.69
0
LINE
8
BLACK
6
CONTINUOUS
10
33.8298
20
-136.69
11
33.6393
21
-136.785
0
LINE
8
BLACK
6
CONTINUOUS
10
33.6393
20
-136.785
11
33.4488
21
-136.785
0
LINE
8
BLACK
6
CONTINUOUS
10
33.4488
20
-136.785
11
33.2583
21
-136.69
0
LINE
8
BLACK
6
CONTINUOUS
10
33.2583
20
-136.69
11
33.1631
21
-136.594
0
LINE
8
BLACK
6
CONTINUOUS
10
33.1631
20
-136.594
11
33.0679
21
-136.404
0
LINE
8
BLACK
6
CONTINUOUS
10
33.0679
20
-136.404
11
32.9726
21
-136.023
0
LINE
8
BLACK
6
CONTINUOUS
10
32.9726
20
-136.023
11
32.9726
21
-135.547
0
LINE
8
BLACK
6
CONTINUOUS
10
32.9726
20
-135.547
11
33.0679
21
-135.166
0
LINE
8
BLACK
6
CONTINUOUS
10
33.0679
20
-135.166
11
33.1631
21
-134.975
0
LINE
8
BLACK
6
CONTINUOUS
10
33.1631
20
-134.975
11
33.2583
21
-134.88
0
LINE
8
BLACK
6
CONTINUOUS
10
33.2583
20
-134.88
11
33.4488
21
-134.785
0
LINE
8
BLACK
6
CONTINUOUS
10
34.9726
20
-136.785
11
34.9726
21
-135.451
0
LINE
8
BLACK
6
CONTINUOUS
10
34.9726
20
-135.642
11
35.0679
21
-135.547
0
LINE
8
BLACK
6
CONTINUOUS
10
35.0679
20
-135.547
11
35.2583
21
-135.451
0
LINE
8
BLACK
6
CONTINUOUS
10
35.2583
20
-135.451
11
35.544
21
-135.451
0
LINE
8
BLACK
6
CONTINUOUS
10
35.544
20
-135.451
11
35.7345
21
-135.547
0
LINE
8
BLACK
6
CONTINUOUS
10
35.7345
20
-135.547
11
35.8298
21
-135.737
0
LINE
8
BLACK
6
CONTINUOUS
10
35.8298
20
-135.737
11
35.8298
21
-136.785
0
LINE
8
BLACK
6
CONTINUOUS
10
35.8298
20
-135.737
11
35.925
21
-135.547
0
LINE
8
BLACK
6
CONTINUOUS
10
35.925
20
-135.547
11
36.1155
21
-135.451
0
LINE
8
BLACK
6
CONTINUOUS
10
36.1155
20
-135.451
11
36.4012
21
-135.451
0
LINE
8
BLACK
6
CONTINUOUS
10
36.4012
20
-135.451
11
36.5917
21
-135.547
0
LINE
8
BLACK
6
CONTINUOUS
10
36.5917
20
-135.547
11
36.6869
21
-135.737
0
LINE
8
BLACK
6
CONTINUOUS
10
36.6869
20
-135.737
11
36.6869
21
-136.785
0
LINE
8
BLACK
6
CONTINUOUS
10
37.6393
20
-136.785
11
37.6393
21
-135.451
0
LINE
8
BLACK
6
CONTINUOUS
10
37.6393
20
-135.642
11
37.7345
21
-135.547
0
LINE
8
BLACK
6
CONTINUOUS
10
37.7345
20
-135.547
11
37.925
21
-135.451
0
LINE
8
BLACK
6
CONTINUOUS
10
37.925
20
-135.451
11
38.2107
21
-135.451
0
LINE
8
BLACK
6
CONTINUOUS
10
38.2107
20
-135.451
11
38.4012
21
-135.547
0
LINE
8
BLACK
6
CONTINUOUS
10
38.4012
20
-135.547
11
38.4964
21
-135.737
0
LINE
8
BLACK
6
CONTINUOUS
10
38.4964
20
-135.737
11
38.4964
21
-136.785
0
LINE
8
BLACK
6
CONTINUOUS
10
38.4964
20
-135.737
11
38.5917
21
-135.547
0
LINE
8
BLACK
6
CONTINUOUS
10
38.5917
20
-135.547
11
38.7821
21
-135.451
0
LINE
8
BLACK
6
CONTINUOUS
10
38.7821
20
-135.451
11
39.0679
21
-135.451
0
LINE
8
BLACK
6
CONTINUOUS
10
39.0679
20
-135.451
11
39.2583
21
-135.547
0
LINE
8
BLACK
6
CONTINUOUS
10
39.2583
20
-135.547
11
39.3536
21
-135.737
0
LINE
8
BLACK
6
CONTINUOUS
10
39.3536
20
-135.737
11
39.3536
21
-136.785
0
LINE
8
BLACK
6
CONTINUOUS
10
43.2583
20
-134.69
11
41.544
21
-137.261
0
LINE
8
BLACK
6
CONTINUOUS
10
45.8298
20
-134.785
11
46.0202
21
-134.785
0
LINE
8
BLACK
6
CONTINUOUS
10
46.0202
20
-134.785
11
46.2107
21
-134.88
0
LINE
8
BLACK
6
CONTINUOUS
10
46.2107
20
-134.88
11
46.306
21
-134.975
0
LINE
8
BLACK
6
CONTINUOUS
10
46.306
20
-134.975
11
46.4012
21
-135.166
0
LINE
8
BLACK
6
CONTINUOUS
10
46.4012
20
-135.166
11
46.4964
21
-135.547
0
LINE
8
BLACK
6
CONTINUOUS
10
46.4964
20
-135.547
11
46.4964
21
-136.023
0
LINE
8
BLACK
6
CONTINUOUS
10
46.4964
20
-136.023
11
46.4012
21
-136.404
0
LINE
8
BLACK
6
CONTINUOUS
10
46.4012
20
-136.404
11
46.306
21
-136.594
0
LINE
8
BLACK
6
CONTINUOUS
10
46.306
20
-136.594
11
46.2107
21
-136.69
0
LINE
8
BLACK
6
CONTINUOUS
10
46.2107
20
-136.69
11
46.0202
21
-136.785
0
LINE
8
BLACK
6
CONTINUOUS
10
46.0202
20
-136.785
11
45.8298
21
-136.785
0
LINE
8
BLACK
6
CONTINUOUS
10
45.8298
20
-136.785
11
45.6393
21
-136.69
0
LINE
8
BLACK
6
CONTINUOUS
10
45.6393
20
-136.69
11
45.544
21
-136.594
0
LINE
8
BLACK
6
CONTINUOUS
10
45.544
20
-136.594
11
45.4488
21
-136.404
0
LINE
8
BLACK
6
CONTINUOUS
10
45.4488
20
-136.404
11
45.3536
21
-136.023
0
LINE
8
BLACK
6
CONTINUOUS
10
45.3536
20
-136.023
11
45.3536
21
-135.547
0
LINE
8
BLACK
6
CONTINUOUS
10
45.3536
20
-135.547
11
45.4488
21
-135.166
0
LINE
8
BLACK
6
CONTINUOUS
10
45.4488
20
-135.166
11
45.544
21
-134.975
0
LINE
8
BLACK
6
CONTINUOUS
10
45.544
20
-134.975
11
45.6393
21
-134.88
0
LINE
8
BLACK
6
CONTINUOUS
10
45.6393
20
-134.88
11
45.8298
21
-134.785
0
LINE
8
BLACK
6
CONTINUOUS
10
47.3536
20
-136.594
11
47.4488
21
-136.69
0
LINE
8
BLACK
6
CONTINUOUS
10
47.4488
20
-136.69
11
47.3536
21
-136.785
0
LINE
8
BLACK
6
CONTINUOUS
10
47.3536
20
-136.785
11
47.2583
21
-136.69
0
LINE
8
BLACK
6
CONTINUOUS
10
47.2583
20
-136.69
11
47.3536
21
-136.594
0
LINE
8
BLACK
6
CONTINUOUS
10
47.3536
20
-136.594
11
47.3536
21
-136.785
0
LINE
8
BLACK
6
CONTINUOUS
10
48.6869
20
-134.785
11
48.8774
21
-134.785
0
LINE
8
BLACK
6
CONTINUOUS
10
48.8774
20
-134.785
11
49.0679
21
-134.88
0
LINE
8
BLACK
6
CONTINUOUS
10
49.0679
20
-134.88
11
49.1631
21
-134.975
0
LINE
8
BLACK
6
CONTINUOUS
10
49.1631
20
-134.975
11
49.2583
21
-135.166
0
LINE
8
BLACK
6
CONTINUOUS
10
49.2583
20
-135.166
11
49.3536
21
-135.547
0
LINE
8
BLACK
6
CONTINUOUS
10
49.3536
20
-135.547
11
49.3536
21
-136.023
0
LINE
8
BLACK
6
CONTINUOUS
10
49.3536
20
-136.023
11
49.2583
21
-136.404
0
LINE
8
BLACK
6
CONTINUOUS
10
49.2583
20
-136.404
11
49.1631
21
-136.594
0
LINE
8
BLACK
6
CONTINUOUS
10
49.1631
20
-136.594
11
49.0679
21
-136.69
0
LINE
8
BLACK
6
CONTINUOUS
10
49.0679
20
-136.69
11
48.8774
21
-136.785
0
LINE
8
BLACK
6
CONTINUOUS
10
48.8774
20
-136.785
11
48.6869
21
-136.785
0
LINE
8
BLACK
6
CONTINUOUS
10
48.6869
20
-136.785
11
48.4964
21
-136.69
0
LINE
8
BLACK
6
CONTINUOUS
10
48.4964
20
-136.69
11
48.4012
21
-136.594
0
LINE
8
BLACK
6
CONTINUOUS
10
48.4012
20
-136.594
11
48.306
21
-136.404
0
LINE
8
BLACK
6
CONTINUOUS
10
48.306
20
-136.404
11
48.2107
21
-136.023
0
LINE
8
BLACK
6
CONTINUOUS
10
48.2107
20
-136.023
11
48.2107
21
-135.547
0
LINE
8
BLACK
6
CONTINUOUS
10
48.2107
20
-135.547
11
48.306
21
-135.166
0
LINE
8
BLACK
6
CONTINUOUS
10
48.306
20
-135.166
11
48.4012
21
-134.975
0
LINE
8
BLACK
6
CONTINUOUS
10
48.4012
20
-134.975
11
48.4964
21
-134.88
0
LINE
8
BLACK
6
CONTINUOUS
10
48.4964
20
-134.88
11
48.6869
21
-134.785
0
LINE
8
BLACK
6
CONTINUOUS
10
50.0202
20
-134.785
11
51.2583
21
-134.785
0
LINE
8
BLACK
6
CONTINUOUS
10
51.2583
20
-134.785
11
50.5917
21
-135.547
0
LINE
8
BLACK
6
CONTINUOUS
10
50.5917
20
-135.547
11
50.8774
21
-135.547
0
LINE
8
BLACK
6
CONTINUOUS
10
50.8774
20
-135.547
11
51.0679
21
-135.642
0
LINE
8
BLACK
6
CONTINUOUS
10
51.0679
20
-135.642
11
51.1631
21
-135.737
0
LINE
8
BLACK
6
CONTINUOUS
10
51.1631
20
-135.737
11
51.2583
21
-135.928
0
LINE
8
BLACK
6
CONTINUOUS
10
51.2583
20
-135.928
11
51.2583
21
-136.404
0
LINE
8
BLACK
6
CONTINUOUS
10
51.2583
20
-136.404
11
51.1631
21
-136.594
0
LINE
8
BLACK
6
CONTINUOUS
10
51.1631
20
-136.594
11
51.0679
21
-136.69
0
LINE
8
BLACK
6
CONTINUOUS
10
51.0679
20
-136.69
11
50.8774
21
-136.785
0
LINE
8
BLACK
6
CONTINUOUS
10
50.8774
20
-136.785
11
50.306
21
-136.785
0
LINE
8
BLACK
6
CONTINUOUS
10
50.306
20
-136.785
11
50.1155
21
-136.69
0
LINE
8
BLACK
6
CONTINUOUS
10
50.1155
20
-136.69
11
50.0202
21
-136.594
0
LINE
8
BLACK
6
CONTINUOUS
10
52.2107
20
-136.785
11
52.5917
21
-136.785
0
LINE
8
BLACK
6
CONTINUOUS
10
52.5917
20
-136.785
11
52.7821
21
-136.69
0
LINE
8
BLACK
6
CONTINUOUS
10
52.7821
20
-136.69
11
52.8774
21
-136.594
0
LINE
8
BLACK
6
CONTINUOUS
10
52.8774
20
-136.594
11
53.0679
21
-136.309
0
LINE
8
BLACK
6
CONTINUOUS
10
53.0679
20
-136.309
11
53.1631
21
-135.928
0
LINE
8
BLACK
6
CONTINUOUS
10
53.1631
20
-135.928
11
53.1631
21
-135.166
0
LINE
8
BLACK
6
CONTINUOUS
10
53.1631
20
-135.166
11
53.0679
21
-134.975
0
LINE
8
BLACK
6
CONTINUOUS
10
53.0679
20
-134.975
11
52.9726
21
-134.88
0
LINE
8
BLACK
6
CONTINUOUS
10
52.9726
20
-134.88
11
52.7821
21
-134.785
0
LINE
8
BLACK
6
CONTINUOUS
10
52.7821
20
-134.785
11
52.4012
21
-134.785
0
LINE
8
BLACK
6
CONTINUOUS
10
52.4012
20
-134.785
11
52.2107
21
-134.88
0
LINE
8
BLACK
6
CONTINUOUS
10
52.2107
20
-134.88
11
52.1155
21
-134.975
0
LINE
8
BLACK
6
CONTINUOUS
10
52.1155
20
-134.975
11
52.0202
21
-135.166
0
LINE
8
BLACK
6
CONTINUOUS
10
52.0202
20
-135.166
11
52.0202
21
-135.642
0
LINE
8
BLACK
6
CONTINUOUS
10
52.0202
20
-135.642
11
52.1155
21
-135.832
0
LINE
8
BLACK
6
CONTINUOUS
10
52.1155
20
-135.832
11
52.2107
21
-135.928
0
LINE
8
BLACK
6
CONTINUOUS
10
52.2107
20
-135.928
11
52.4012
21
-136.023
0
LINE
8
BLACK
6
CONTINUOUS
10
52.4012
20
-136.023
11
52.7821
21
-136.023
0
LINE
8
BLACK
6
CONTINUOUS
10
52.7821
20
-136.023
11
52.9726
21
-135.928
0
LINE
8
BLACK
6
CONTINUOUS
10
52.9726
20
-135.928
11
53.0679
21
-135.832
0
LINE
8
BLACK
6
CONTINUOUS
10
53.0679
20
-135.832
11
53.1631
21
-135.642
0
LINE
8
BLACK
6
CONTINUOUS
10
54.8774
20
-135.451
11
54.8774
21
-136.785
0
LINE
8
BLACK
6
CONTINUOUS
10
54.4012
20
-134.69
11
53.925
21
-136.118
0
LINE
8
BLACK
6
CONTINUOUS
10
53.925
20
-136.118
11
55.1631
21
-136.118
0
LINE
8
BLACK
6
CONTINUOUS
10
55.8298
20
-134.785
11
55.8298
21
-135.166
0
LINE
8
BLACK
6
CONTINUOUS
10
56.5917
20
-134.785
11
56.5917
21
-135.166
0
LINE
8
BLACK
6
CONTINUOUS
10
59.544
20
-137.547
11
59.4488
21
-137.451
0
LINE
8
BLACK
6
CONTINUOUS
10
59.4488
20
-137.451
11
59.2583
21
-137.166
0
LINE
8
BLACK
6
CONTINUOUS
10
59.2583
20
-137.166
11
59.1631
21
-136.975
0
LINE
8
BLACK
6
CONTINUOUS
10
59.1631
20
-136.975
11
59.0679
21
-136.69
0
LINE
8
BLACK
6
CONTINUOUS
10
59.0679
20
-136.69
11
58.9726
21
-136.213
0
LINE
8
BLACK
6
CONTINUOUS
10
58.9726
20
-136.213
11
58.9726
21
-135.832
0
LINE
8
BLACK
6
CONTINUOUS
10
58.9726
20
-135.832
11
59.0679
21
-135.356
0
LINE
8
BLACK
6
CONTINUOUS
10
59.0679
20
-135.356
11
59.1631
21
-135.07
0
LINE
8
BLACK
6
CONTINUOUS
10
59.1631
20
-135.07
11
59.2583
21
-134.88
0
LINE
8
BLACK
6
CONTINUOUS
10
59.2583
20
-134.88
11
59.4488
21
-134.594
0
LINE
8
BLACK
6
CONTINUOUS
10
59.4488
20
-134.594
11
59.544
21
-134.499
0
LINE
8
BLACK
6
CONTINUOUS
10
61.3536
20
-136.785
11
60.2107
21
-136.785
0
LINE
8
BLACK
6
CONTINUOUS
10
60.7821
20
-136.785
11
60.7821
21
-134.785
0
LINE
8
BLACK
6
CONTINUOUS
10
60.7821
20
-134.785
11
60.5917
21
-135.07
0
LINE
8
BLACK
6
CONTINUOUS
10
60.5917
20
-135.07
11
60.4012
21
-135.261
0
LINE
8
BLACK
6
CONTINUOUS
10
60.4012
20
-135.261
11
60.2107
21
-135.356
0
LINE
8
BLACK
6
CONTINUOUS
10
63.0679
20
-135.451
11
63.0679
21
-136.785
0
LINE
8
BLACK
6
CONTINUOUS
10
62.5917
20
-134.69
11
62.1155
21
-136.118
0
LINE
8
BLACK
6
CONTINUOUS
10
62.1155
20
-136.118
11
63.3536
21
-136.118
0
LINE
8
BLACK
6
CONTINUOUS
10
65.6393
20
-136.785
11
65.6393
21
-134.785
0
LINE
8
BLACK
6
CONTINUOUS
10
66.4964
20
-136.785
11
66.4964
21
-135.737
0
LINE
8
BLACK
6
CONTINUOUS
10
66.4964
20
-135.737
11
66.4012
21
-135.547
0
LINE
8
BLACK
6
CONTINUOUS
10
66.4012
20
-135.547
11
66.2107
21
-135.451
0
LINE
8
BLACK
6
CONTINUOUS
10
66.2107
20
-135.451
11
65.925
21
-135.451
0
LINE
8
BLACK
6
CONTINUOUS
10
65.925
20
-135.451
11
65.7345
21
-135.547
0
LINE
8
BLACK
6
CONTINUOUS
10
65.7345
20
-135.547
11
65.6393
21
-135.642
0
LINE
8
BLACK
6
CONTINUOUS
10
67.7345
20
-136.785
11
67.544
21
-136.69
0
LINE
8
BLACK
6
CONTINUOUS
10
67.544
20
-136.69
11
67.4488
21
-136.594
0
LINE
8
BLACK
6
CONTINUOUS
10
67.4488
20
-136.594
11
67.3536
21
-136.404
0
LINE
8
BLACK
6
CONTINUOUS
10
67.3536
20
-136.404
11
67.3536
21
-135.832
0
LINE
8
BLACK
6
CONTINUOUS
10
67.3536
20
-135.832
11
67.4488
21
-135.642
0
LINE
8
BLACK
6
CONTINUOUS
10
67.4488
20
-135.642
11
67.544
21
-135.547
0
LINE
8
BLACK
6
CONTINUOUS
10
67.544
20
-135.547
11
67.7345
21
-135.451
0
LINE
8
BLACK
6
CONTINUOUS
10
67.7345
20
-135.451
11
68.0202
21
-135.451
0
LINE
8
BLACK
6
CONTINUOUS
10
68.0202
20
-135.451
11
68.2107
21
-135.547
0
LINE
8
BLACK
6
CONTINUOUS
10
68.2107
20
-135.547
11
68.306
21
-135.642
0
LINE
8
BLACK
6
CONTINUOUS
10
68.306
20
-135.642
11
68.4012
21
-135.832
0
LINE
8
BLACK
6
CONTINUOUS
10
68.4012
20
-135.832
11
68.4012
21
-136.404
0
LINE
8
BLACK
6
CONTINUOUS
10
68.4012
20
-136.404
11
68.306
21
-136.594
0
LINE
8
BLACK
6
CONTINUOUS
10
68.306
20
-136.594
11
68.2107
21
-136.69
0
LINE
8
BLACK
6
CONTINUOUS
10
68.2107
20
-136.69
11
68.0202
21
-136.785
0
LINE
8
BLACK
6
CONTINUOUS
10
68.0202
20
-136.785
11
67.7345
21
-136.785
0
LINE
8
BLACK
6
CONTINUOUS
10
69.544
20
-136.785
11
69.3536
21
-136.69
0
LINE
8
BLACK
6
CONTINUOUS
10
69.3536
20
-136.69
11
69.2583
21
-136.499
0
LINE
8
BLACK
6
CONTINUOUS
10
69.2583
20
-136.499
11
69.2583
21
-134.785
0
LINE
8
BLACK
6
CONTINUOUS
10
71.0679
20
-136.69
11
70.8774
21
-136.785
0
LINE
8
BLACK
6
CONTINUOUS
10
70.8774
20
-136.785
11
70.4964
21
-136.785
0
LINE
8
BLACK
6
CONTINUOUS
10
70.4964
20
-136.785
11
70.306
21
-136.69
0
LINE
8
BLACK
6
CONTINUOUS
10
70.306
20
-136.69
11
70.2107
21
-136.499
0
LINE
8
BLACK
6
CONTINUOUS
10
70.2107
20
-136.499
11
70.2107
21
-135.737
0
LINE
8
BLACK
6
CONTINUOUS
10
70.2107
20
-135.737
11
70.306
21
-135.547
0
LINE
8
BLACK
6
CONTINUOUS
10
70.306
20
-135.547
11
70.4964
21
-135.451
0
LINE
8
BLACK
6
CONTINUOUS
10
70.4964
20
-135.451
11
70.8774
21
-135.451
0
LINE
8
BLACK
6
CONTINUOUS
10
70.8774
20
-135.451
11
71.0679
21
-135.547
0
LINE
8
BLACK
6
CONTINUOUS
10
71.0679
20
-135.547
11
71.1631
21
-135.737
0
LINE
8
BLACK
6
CONTINUOUS
10
71.1631
20
-135.737
11
71.1631
21
-135.928
0
LINE
8
BLACK
6
CONTINUOUS
10
71.1631
20
-135.928
11
70.2107
21
-136.118
0
LINE
8
BLACK
6
CONTINUOUS
10
71.925
20
-136.69
11
72.1155
21
-136.785
0
LINE
8
BLACK
6
CONTINUOUS
10
72.1155
20
-136.785
11
72.4964
21
-136.785
0
LINE
8
BLACK
6
CONTINUOUS
10
72.4964
20
-136.785
11
72.6869
21
-136.69
0
LINE
8
BLACK
6
CONTINUOUS
10
72.6869
20
-136.69
11
72.7821
21
-136.499
0
LINE
8
BLACK
6
CONTINUOUS
10
72.7821
20
-136.499
11
72.7821
21
-136.404
0
LINE
8
BLACK
6
CONTINUOUS
10
72.7821
20
-136.404
11
72.6869
21
-136.213
0
LINE
8
BLACK
6
CONTINUOUS
10
72.6869
20
-136.213
11
72.4964
21
-136.118
0
LINE
8
BLACK
6
CONTINUOUS
10
72.4964
20
-136.118
11
72.2107
21
-136.118
0
LINE
8
BLACK
6
CONTINUOUS
10
72.2107
20
-136.118
11
72.0202
21
-136.023
0
LINE
8
BLACK
6
CONTINUOUS
10
72.0202
20
-136.023
11
71.925
21
-135.832
0
LINE
8
BLACK
6
CONTINUOUS
10
71.925
20
-135.832
11
71.925
21
-135.737
0
LINE
8
BLACK
6
CONTINUOUS
10
71.925
20
-135.737
11
72.0202
21
-135.547
0
LINE
8
BLACK
6
CONTINUOUS
10
72.0202
20
-135.547
11
72.2107
21
-135.451
0
LINE
8
BLACK
6
CONTINUOUS
10
72.2107
20
-135.451
11
72.4964
21
-135.451
0
LINE
8
BLACK
6
CONTINUOUS
10
72.4964
20
-135.451
11
72.6869
21
-135.547
0
LINE
8
BLACK
6
CONTINUOUS
10
73.4488
20
-137.547
11
73.544
21
-137.451
0
LINE
8
BLACK
6
CONTINUOUS
10
73.544
20
-137.451
11
73.7345
21
-137.166
0
LINE
8
BLACK
6
CONTINUOUS
10
73.7345
20
-137.166
11
73.8298
21
-136.975
0
LINE
8
BLACK
6
CONTINUOUS
10
73.8298
20
-136.975
11
73.925
21
-136.69
0
LINE
8
BLACK
6
CONTINUOUS
10
73.925
20
-136.69
11
74.0202
21
-136.213
0
LINE
8
BLACK
6
CONTINUOUS
10
74.0202
20
-136.213
11
74.0202
21
-135.832
0
LINE
8
BLACK
6
CONTINUOUS
10
74.0202
20
-135.832
11
73.925
21
-135.356
0
LINE
8
BLACK
6
CONTINUOUS
10
73.925
20
-135.356
11
73.8298
21
-135.07
0
LINE
8
BLACK
6
CONTINUOUS
10
73.8298
20
-135.07
11
73.7345
21
-134.88
0
LINE
8
BLACK
6
CONTINUOUS
10
73.7345
20
-134.88
11
73.544
21
-134.594
0
LINE
8
BLACK
6
CONTINUOUS
10
73.544
20
-134.594
11
73.4488
21
-134.499
0
LINE
8
BLACK
6
CONTINUOUS
10
23.6651
20
-138.906
11
23.6651
21
-138.134
0
LINE
8
BLACK
6
CONTINUOUS
10
23.6651
20
-138.134
11
22.8927
21
-138.134
0
LINE
8
BLACK
6
CONTINUOUS
10
22.8927
20
-138.134
11
22.8927
21
-138.906
0
LINE
8
BLACK
6
CONTINUOUS
10
22.8927
20
-138.906
11
23.6651
21
-138.906
0
LINE
8
BLACK
6
CONTINUOUS
10
27.4488
20
-139.425
11
26.306
21
-139.425
0
LINE
8
BLACK
6
CONTINUOUS
10
26.8774
20
-139.425
11
26.8774
21
-137.425
0
LINE
8
BLACK
6
CONTINUOUS
10
26.8774
20
-137.425
11
26.6869
21
-137.71
0
LINE
8
BLACK
6
CONTINUOUS
10
26.6869
20
-137.71
11
26.4964
21
-137.901
0
LINE
8
BLACK
6
CONTINUOUS
10
26.4964
20
-137.901
11
26.306
21
-137.996
0
LINE
8
BLACK
6
CONTINUOUS
10
28.306
20
-139.234
11
28.4012
21
-139.33
0
LINE
8
BLACK
6
CONTINUOUS
10
28.4012
20
-139.33
11
28.306
21
-139.425
0
LINE
8
BLACK
6
CONTINUOUS
10
28.306
20
-139.425
11
28.2107
21
-139.33
0
LINE
8
BLACK
6
CONTINUOUS
10
28.2107
20
-139.33
11
28.306
21
-139.234
0
LINE
8
BLACK
6
CONTINUOUS
10
28.306
20
-139.234
11
28.306
21
-139.425
0
LINE
8
BLACK
6
CONTINUOUS
10
29.6393
20
-137.425
11
29.8298
21
-137.425
0
LINE
8
BLACK
6
CONTINUOUS
10
29.8298
20
-137.425
11
30.0202
21
-137.52
0
LINE
8
BLACK
6
CONTINUOUS
10
30.0202
20
-137.52
11
30.1155
21
-137.615
0
LINE
8
BLACK
6
CONTINUOUS
10
30.1155
20
-137.615
11
30.2107
21
-137.806
0
LINE
8
BLACK
6
CONTINUOUS
10
30.2107
20
-137.806
11
30.306
21
-138.187
0
LINE
8
BLACK
6
CONTINUOUS
10
30.306
20
-138.187
11
30.306
21
-138.663
0
LINE
8
BLACK
6
CONTINUOUS
10
30.306
20
-138.663
11
30.2107
21
-139.044
0
LINE
8
BLACK
6
CONTINUOUS
10
30.2107
20
-139.044
11
30.1155
21
-139.234
0
LINE
8
BLACK
6
CONTINUOUS
10
30.1155
20
-139.234
11
30.0202
21
-139.33
0
LINE
8
BLACK
6
CONTINUOUS
10
30.0202
20
-139.33
11
29.8298
21
-139.425
0
LINE
8
BLACK
6
CONTINUOUS
10
29.8298
20
-139.425
11
29.6393
21
-139.425
0
LINE
8
BLACK
6
CONTINUOUS
10
29.6393
20
-139.425
11
29.4488
21
-139.33
0
LINE
8
BLACK
6
CONTINUOUS
10
29.4488
20
-139.33
11
29.3536
21
-139.234
0
LINE
8
BLACK
6
CONTINUOUS
10
29.3536
20
-139.234
11
29.2583
21
-139.044
0
LINE
8
BLACK
6
CONTINUOUS
10
29.2583
20
-139.044
11
29.1631
21
-138.663
0
LINE
8
BLACK
6
CONTINUOUS
10
29.1631
20
-138.663
11
29.1631
21
-138.187
0
LINE
8
BLACK
6
CONTINUOUS
10
29.1631
20
-138.187
11
29.2583
21
-137.806
0
LINE
8
BLACK
6
CONTINUOUS
10
29.2583
20
-137.806
11
29.3536
21
-137.615
0
LINE
8
BLACK
6
CONTINUOUS
10
29.3536
20
-137.615
11
29.4488
21
-137.52
0
LINE
8
BLACK
6
CONTINUOUS
10
29.4488
20
-137.52
11
29.6393
21
-137.425
0
LINE
8
BLACK
6
CONTINUOUS
10
31.2583
20
-139.425
11
31.6393
21
-139.425
0
LINE
8
BLACK
6
CONTINUOUS
10
31.6393
20
-139.425
11
31.8298
21
-139.33
0
LINE
8
BLACK
6
CONTINUOUS
10
31.8298
20
-139.33
11
31.925
21
-139.234
0
LINE
8
BLACK
6
CONTINUOUS
10
31.925
20
-139.234
11
32.1155
21
-138.949
0
LINE
8
BLACK
6
CONTINUOUS
10
32.1155
20
-138.949
11
32.2107
21
-138.568
0
LINE
8
BLACK
6
CONTINUOUS
10
32.2107
20
-138.568
11
32.2107
21
-137.806
0
LINE
8
BLACK
6
CONTINUOUS
10
32.2107
20
-137.806
11
32.1155
21
-137.615
0
LINE
8
BLACK
6
CONTINUOUS
10
32.1155
20
-137.615
11
32.0202
21
-137.52
0
LINE
8
BLACK
6
CONTINUOUS
10
32.0202
20
-137.52
11
31.8298
21
-137.425
0
LINE
8
BLACK
6
CONTINUOUS
10
31.8298
20
-137.425
11
31.4488
21
-137.425
0
LINE
8
BLACK
6
CONTINUOUS
10
31.4488
20
-137.425
11
31.2583
21
-137.52
0
LINE
8
BLACK
6
CONTINUOUS
10
31.2583
20
-137.52
11
31.1631
21
-137.615
0
LINE
8
BLACK
6
CONTINUOUS
10
31.1631
20
-137.615
11
31.0679
21
-137.806
0
LINE
8
BLACK
6
CONTINUOUS
10
31.0679
20
-137.806
11
31.0679
21
-138.282
0
LINE
8
BLACK
6
CONTINUOUS
10
31.0679
20
-138.282
11
31.1631
21
-138.472
0
LINE
8
BLACK
6
CONTINUOUS
10
31.1631
20
-138.472
11
31.2583
21
-138.568
0
LINE
8
BLACK
6
CONTINUOUS
10
31.2583
20
-138.568
11
31.4488
21
-138.663
0
LINE
8
BLACK
6
CONTINUOUS
10
31.4488
20
-138.663
11
31.8298
21
-138.663
0
LINE
8
BLACK
6
CONTINUOUS
10
31.8298
20
-138.663
11
32.0202
21
-138.568
0
LINE
8
BLACK
6
CONTINUOUS
10
32.0202
20
-138.568
11
32.1155
21
-138.472
0
LINE
8
BLACK
6
CONTINUOUS
10
32.1155
20
-138.472
11
32.2107
21
-138.282
0
LINE
8
BLACK
6
CONTINUOUS
10
32.9726
20
-137.615
11
33.0679
21
-137.52
0
LINE
8
BLACK
6
CONTINUOUS
10
33.0679
20
-137.52
11
33.2583
21
-137.425
0
LINE
8
BLACK
6
CONTINUOUS
10
33.2583
20
-137.425
11
33.7345
21
-137.425
0
LINE
8
BLACK
6
CONTINUOUS
10
33.7345
20
-137.425
11
33.925
21
-137.52
0
LINE
8
BLACK
6
CONTINUOUS
10
33.925
20
-137.52
11
34.0202
21
-137.615
0
LINE
8
BLACK
6
CONTINUOUS
10
34.0202
20
-137.615
11
34.1155
21
-137.806
0
LINE
8
BLACK
6
CONTINUOUS
10
34.1155
20
-137.806
11
34.1155
21
-137.996
0
LINE
8
BLACK
6
CONTINUOUS
10
34.1155
20
-137.996
11
34.0202
21
-138.282
0
LINE
8
BLACK
6
CONTINUOUS
10
34.0202
20
-138.282
11
32.8774
21
-139.425
0
LINE
8
BLACK
6
CONTINUOUS
10
32.8774
20
-139.425
11
34.1155
21
-139.425
0
LINE
8
BLACK
6
CONTINUOUS
10
34.9726
20
-139.425
11
34.9726
21
-138.091
0
LINE
8
BLACK
6
CONTINUOUS
10
34.9726
20
-138.282
11
35.0679
21
-138.187
0
LINE
8
BLACK
6
CONTINUOUS
10
35.0679
20
-138.187
11
35.2583
21
-138.091
0
LINE
8
BLACK
6
CONTINUOUS
10
35.2583
20
-138.091
11
35.544
21
-138.091
0
LINE
8
BLACK
6
CONTINUOUS
10
35.544
20
-138.091
11
35.7345
21
-138.187
0
LINE
8
BLACK
6
CONTINUOUS
10
35.7345
20
-138.187
11
35.8298
21
-138.377
0
LINE
8
BLACK
6
CONTINUOUS
10
35.8298
20
-138.377
11
35.8298
21
-139.425
0
LINE
8
BLACK
6
CONTINUOUS
10
35.8298
20
-138.377
11
35.925
21
-138.187
0
LINE
8
BLACK
6
CONTINUOUS
10
35.925
20
-138.187
11
36.1155
21
-138.091
0
LINE
8
BLACK
6
CONTINUOUS
10
36.1155
20
-138.091
11
36.4012
21
-138.091
0
LINE
8
BLACK
6
CONTINUOUS
10
36.4012
20
-138.091
11
36.5917
21
-138.187
0
LINE
8
BLACK
6
CONTINUOUS
10
36.5917
20
-138.187
11
36.6869
21
-138.377
0
LINE
8
BLACK
6
CONTINUOUS
10
36.6869
20
-138.377
11
36.6869
21
-139.425
0
LINE
8
BLACK
6
CONTINUOUS
10
37.6393
20
-139.425
11
37.6393
21
-138.091
0
LINE
8
BLACK
6
CONTINUOUS
10
37.6393
20
-138.282
11
37.7345
21
-138.187
0
LINE
8
BLACK
6
CONTINUOUS
10
37.7345
20
-138.187
11
37.925
21
-138.091
0
LINE
8
BLACK
6
CONTINUOUS
10
37.925
20
-138.091
11
38.2107
21
-138.091
0
LINE
8
BLACK
6
CONTINUOUS
10
38.2107
20
-138.091
11
38.4012
21
-138.187
0
LINE
8
BLACK
6
CONTINUOUS
10
38.4012
20
-138.187
11
38.4964
21
-138.377
0
LINE
8
BLACK
6
CONTINUOUS
10
38.4964
20
-138.377
11
38.4964
21
-139.425
0
LINE
8
BLACK
6
CONTINUOUS
10
38.4964
20
-138.377
11
38.5917
21
-138.187
0
LINE
8
BLACK
6
CONTINUOUS
10
38.5917
20
-138.187
11
38.7821
21
-138.091
0
LINE
8
BLACK
6
CONTINUOUS
10
38.7821
20
-138.091
11
39.0679
21
-138.091
0
LINE
8
BLACK
6
CONTINUOUS
10
39.0679
20
-138.091
11
39.2583
21
-138.187
0
LINE
8
BLACK
6
CONTINUOUS
10
39.2583
20
-138.187
11
39.3536
21
-138.377
0
LINE
8
BLACK
6
CONTINUOUS
10
39.3536
20
-138.377
11
39.3536
21
-139.425
0
LINE
8
BLACK
6
CONTINUOUS
10
43.2583
20
-137.33
11
41.544
21
-139.901
0
LINE
8
BLACK
6
CONTINUOUS
10
45.8298
20
-137.425
11
46.0202
21
-137.425
0
LINE
8
BLACK
6
CONTINUOUS
10
46.0202
20
-137.425
11
46.2107
21
-137.52
0
LINE
8
BLACK
6
CONTINUOUS
10
46.2107
20
-137.52
11
46.306
21
-137.615
0
LINE
8
BLACK
6
CONTINUOUS
10
46.306
20
-137.615
11
46.4012
21
-137.806
0
LINE
8
BLACK
6
CONTINUOUS
10
46.4012
20
-137.806
11
46.4964
21
-138.187
0
LINE
8
BLACK
6
CONTINUOUS
10
46.4964
20
-138.187
11
46.4964
21
-138.663
0
LINE
8
BLACK
6
CONTINUOUS
10
46.4964
20
-138.663
11
46.4012
21
-139.044
0
LINE
8
BLACK
6
CONTINUOUS
10
46.4012
20
-139.044
11
46.306
21
-139.234
0
LINE
8
BLACK
6
CONTINUOUS
10
46.306
20
-139.234
11
46.2107
21
-139.33
0
LINE
8
BLACK
6
CONTINUOUS
10
46.2107
20
-139.33
11
46.0202
21
-139.425
0
LINE
8
BLACK
6
CONTINUOUS
10
46.0202
20
-139.425
11
45.8298
21
-139.425
0
LINE
8
BLACK
6
CONTINUOUS
10
45.8298
20
-139.425
11
45.6393
21
-139.33
0
LINE
8
BLACK
6
CONTINUOUS
10
45.6393
20
-139.33
11
45.544
21
-139.234
0
LINE
8
BLACK
6
CONTINUOUS
10
45.544
20
-139.234
11
45.4488
21
-139.044
0
LINE
8
BLACK
6
CONTINUOUS
10
45.4488
20
-139.044
11
45.3536
21
-138.663
0
LINE
8
BLACK
6
CONTINUOUS
10
45.3536
20
-138.663
11
45.3536
21
-138.187
0
LINE
8
BLACK
6
CONTINUOUS
10
45.3536
20
-138.187
11
45.4488
21
-137.806
0
LINE
8
BLACK
6
CONTINUOUS
10
45.4488
20
-137.806
11
45.544
21
-137.615
0
LINE
8
BLACK
6
CONTINUOUS
10
45.544
20
-137.615
11
45.6393
21
-137.52
0
LINE
8
BLACK
6
CONTINUOUS
10
45.6393
20
-137.52
11
45.8298
21
-137.425
0
LINE
8
BLACK
6
CONTINUOUS
10
47.3536
20
-139.234
11
47.4488
21
-139.33
0
LINE
8
BLACK
6
CONTINUOUS
10
47.4488
20
-139.33
11
47.3536
21
-139.425
0
LINE
8
BLACK
6
CONTINUOUS
10
47.3536
20
-139.425
11
47.2583
21
-139.33
0
LINE
8
BLACK
6
CONTINUOUS
10
47.2583
20
-139.33
11
47.3536
21
-139.234
0
LINE
8
BLACK
6
CONTINUOUS
10
47.3536
20
-139.234
11
47.3536
21
-139.425
0
LINE
8
BLACK
6
CONTINUOUS
10
48.6869
20
-137.425
11
48.8774
21
-137.425
0
LINE
8
BLACK
6
CONTINUOUS
10
48.8774
20
-137.425
11
49.0679
21
-137.52
0
LINE
8
BLACK
6
CONTINUOUS
10
49.0679
20
-137.52
11
49.1631
21
-137.615
0
LINE
8
BLACK
6
CONTINUOUS
10
49.1631
20
-137.615
11
49.2583
21
-137.806
0
LINE
8
BLACK
6
CONTINUOUS
10
49.2583
20
-137.806
11
49.3536
21
-138.187
0
LINE
8
BLACK
6
CONTINUOUS
10
49.3536
20
-138.187
11
49.3536
21
-138.663
0
LINE
8
BLACK
6
CONTINUOUS
10
49.3536
20
-138.663
11
49.2583
21
-139.044
0
LINE
8
BLACK
6
CONTINUOUS
10
49.2583
20
-139.044
11
49.1631
21
-139.234
0
LINE
8
BLACK
6
CONTINUOUS
10
49.1631
20
-139.234
11
49.0679
21
-139.33
0
LINE
8
BLACK
6
CONTINUOUS
10
49.0679
20
-139.33
11
48.8774
21
-139.425
0
LINE
8
BLACK
6
CONTINUOUS
10
48.8774
20
-139.425
11
48.6869
21
-139.425
0
LINE
8
BLACK
6
CONTINUOUS
10
48.6869
20
-139.425
11
48.4964
21
-139.33
0
LINE
8
BLACK
6
CONTINUOUS
10
48.4964
20
-139.33
11
48.4012
21
-139.234
0
LINE
8
BLACK
6
CONTINUOUS
10
48.4012
20
-139.234
11
48.306
21
-139.044
0
LINE
8
BLACK
6
CONTINUOUS
10
48.306
20
-139.044
11
48.2107
21
-138.663
0
LINE
8
BLACK
6
CONTINUOUS
10
48.2107
20
-138.663
11
48.2107
21
-138.187
0
LINE
8
BLACK
6
CONTINUOUS
10
48.2107
20
-138.187
11
48.306
21
-137.806
0
LINE
8
BLACK
6
CONTINUOUS
10
48.306
20
-137.806
11
48.4012
21
-137.615
0
LINE
8
BLACK
6
CONTINUOUS
10
48.4012
20
-137.615
11
48.4964
21
-137.52
0
LINE
8
BLACK
6
CONTINUOUS
10
48.4964
20
-137.52
11
48.6869
21
-137.425
0
LINE
8
BLACK
6
CONTINUOUS
10
51.0679
20
-138.091
11
51.0679
21
-139.425
0
LINE
8
BLACK
6
CONTINUOUS
10
50.5917
20
-137.33
11
50.1155
21
-138.758
0
LINE
8
BLACK
6
CONTINUOUS
10
50.1155
20
-138.758
11
51.3536
21
-138.758
0
LINE
8
BLACK
6
CONTINUOUS
10
51.925
20
-137.425
11
53.1631
21
-137.425
0
LINE
8
BLACK
6
CONTINUOUS
10
53.1631
20
-137.425
11
52.4964
21
-138.187
0
LINE
8
BLACK
6
CONTINUOUS
10
52.4964
20
-138.187
11
52.7821
21
-138.187
0
LINE
8
BLACK
6
CONTINUOUS
10
52.7821
20
-138.187
11
52.9726
21
-138.282
0
LINE
8
BLACK
6
CONTINUOUS
10
52.9726
20
-138.282
11
53.0679
21
-138.377
0
LINE
8
BLACK
6
CONTINUOUS
10
53.0679
20
-138.377
11
53.1631
21
-138.568
0
LINE
8
BLACK
6
CONTINUOUS
10
53.1631
20
-138.568
11
53.1631
21
-139.044
0
LINE
8
BLACK
6
CONTINUOUS
10
53.1631
20
-139.044
11
53.0679
21
-139.234
0
LINE
8
BLACK
6
CONTINUOUS
10
53.0679
20
-139.234
11
52.9726
21
-139.33
0
LINE
8
BLACK
6
CONTINUOUS
10
52.9726
20
-139.33
11
52.7821
21
-139.425
0
LINE
8
BLACK
6
CONTINUOUS
10
52.7821
20
-139.425
11
52.2107
21
-139.425
0
LINE
8
BLACK
6
CONTINUOUS
10
52.2107
20
-139.425
11
52.0202
21
-139.33
0
LINE
8
BLACK
6
CONTINUOUS
10
52.0202
20
-139.33
11
51.925
21
-139.234
0
LINE
8
BLACK
6
CONTINUOUS
10
54.4012
20
-137.425
11
54.5917
21
-137.425
0
LINE
8
BLACK
6
CONTINUOUS
10
54.5917
20
-137.425
11
54.7821
21
-137.52
0
LINE
8
BLACK
6
CONTINUOUS
10
54.7821
20
-137.52
11
54.8774
21
-137.615
0
LINE
8
BLACK
6
CONTINUOUS
10
54.8774
20
-137.615
11
54.9726
21
-137.806
0
LINE
8
BLACK
6
CONTINUOUS
10
54.9726
20
-137.806
11
55.0679
21
-138.187
0
LINE
8
BLACK
6
CONTINUOUS
10
55.0679
20
-138.187
11
55.0679
21
-138.663
0
LINE
8
BLACK
6
CONTINUOUS
10
55.0679
20
-138.663
11
54.9726
21
-139.044
0
LINE
8
BLACK
6
CONTINUOUS
10
54.9726
20
-139.044
11
54.8774
21
-139.234
0
LINE
8
BLACK
6
CONTINUOUS
10
54.8774
20
-139.234
11
54.7821
21
-139.33
0
LINE
8
BLACK
6
CONTINUOUS
10
54.7821
20
-139.33
11
54.5917
21
-139.425
0
LINE
8
BLACK
6
CONTINUOUS
10
54.5917
20
-139.425
11
54.4012
21
-139.425
0
LINE
8
BLACK
6
CONTINUOUS
10
54.4012
20
-139.425
11
54.2107
21
-139.33
0
LINE
8
BLACK
6
CONTINUOUS
10
54.2107
20
-139.33
11
54.1155
21
-139.234
0
LINE
8
BLACK
6
CONTINUOUS
10
54.1155
20
-139.234
11
54.0202
21
-139.044
0
LINE
8
BLACK
6
CONTINUOUS
10
54.0202
20
-139.044
11
53.925
21
-138.663
0
LINE
8
BLACK
6
CONTINUOUS
10
53.925
20
-138.663
11
53.925
21
-138.187
0
LINE
8
BLACK
6
CONTINUOUS
10
53.925
20
-138.187
11
54.0202
21
-137.806
0
LINE
8
BLACK
6
CONTINUOUS
10
54.0202
20
-137.806
11
54.1155
21
-137.615
0
LINE
8
BLACK
6
CONTINUOUS
10
54.1155
20
-137.615
11
54.2107
21
-137.52
0
LINE
8
BLACK
6
CONTINUOUS
10
54.2107
20
-137.52
11
54.4012
21
-137.425
0
LINE
8
BLACK
6
CONTINUOUS
10
55.8298
20
-137.425
11
55.8298
21
-137.806
0
LINE
8
BLACK
6
CONTINUOUS
10
56.5917
20
-137.425
11
56.5917
21
-137.806
0
LINE
8
BLACK
6
CONTINUOUS
10
59.544
20
-140.187
11
59.4488
21
-140.091
0
LINE
8
BLACK
6
CONTINUOUS
10
59.4488
20
-140.091
11
59.2583
21
-139.806
0
LINE
8
BLACK
6
CONTINUOUS
10
59.2583
20
-139.806
11
59.1631
21
-139.615
0
LINE
8
BLACK
6
CONTINUOUS
10
59.1631
20
-139.615
11
59.0679
21
-139.33
0
LINE
8
BLACK
6
CONTINUOUS
10
59.0679
20
-139.33
11
58.9726
21
-138.853
0
LINE
8
BLACK
6
CONTINUOUS
10
58.9726
20
-138.853
11
58.9726
21
-138.472
0
LINE
8
BLACK
6
CONTINUOUS
10
58.9726
20
-138.472
11
59.0679
21
-137.996
0
LINE
8
BLACK
6
CONTINUOUS
10
59.0679
20
-137.996
11
59.1631
21
-137.71
0
LINE
8
BLACK
6
CONTINUOUS
10
59.1631
20
-137.71
11
59.2583
21
-137.52
0
LINE
8
BLACK
6
CONTINUOUS
10
59.2583
20
-137.52
11
59.4488
21
-137.234
0
LINE
8
BLACK
6
CONTINUOUS
10
59.4488
20
-137.234
11
59.544
21
-137.139
0
LINE
8
BLACK
6
CONTINUOUS
10
60.2107
20
-137.615
11
60.306
21
-137.52
0
LINE
8
BLACK
6
CONTINUOUS
10
60.306
20
-137.52
11
60.4964
21
-137.425
0
LINE
8
BLACK
6
CONTINUOUS
10
60.4964
20
-137.425
11
60.9726
21
-137.425
0
LINE
8
BLACK
6
CONTINUOUS
10
60.9726
20
-137.425
11
61.1631
21
-137.52
0
LINE
8
BLACK
6
CONTINUOUS
10
61.1631
20
-137.52
11
61.2583
21
-137.615
0
LINE
8
BLACK
6
CONTINUOUS
10
61.2583
20
-137.615
11
61.3536
21
-137.806
0
LINE
8
BLACK
6
CONTINUOUS
10
61.3536
20
-137.806
11
61.3536
21
-137.996
0
LINE
8
BLACK
6
CONTINUOUS
10
61.3536
20
-137.996
11
61.2583
21
-138.282
0
LINE
8
BLACK
6
CONTINUOUS
10
61.2583
20
-138.282
11
60.1155
21
-139.425
0
LINE
8
BLACK
6
CONTINUOUS
10
60.1155
20
-139.425
11
61.3536
21
-139.425
0
LINE
8
BLACK
6
CONTINUOUS
10
63.0679
20
-138.091
11
63.0679
21
-139.425
0
LINE
8
BLACK
6
CONTINUOUS
10
62.5917
20
-137.33
11
62.1155
21
-138.758
0
LINE
8
BLACK
6
CONTINUOUS
10
62.1155
20
-138.758
11
63.3536
21
-138.758
0
LINE
8
BLACK
6
CONTINUOUS
10
65.6393
20
-139.425
11
65.6393
21
-137.425
0
LINE
8
BLACK
6
CONTINUOUS
10
66.4964
20
-139.425
11
66.4964
21
-138.377
0
LINE
8
BLACK
6
CONTINUOUS
10
66.4964
20
-138.377
11
66.4012
21
-138.187
0
LINE
8
BLACK
6
CONTINUOUS
10
66.4012
20
-138.187
11
66.2107
21
-138.091
0
LINE
8
BLACK
6
CONTINUOUS
10
66.2107
20
-138.091
11
65.925
21
-138.091
0
LINE
8
BLACK
6
CONTINUOUS
10
65.925
20
-138.091
11
65.7345
21
-138.187
0
LINE
8
BLACK
6
CONTINUOUS
10
65.7345
20
-138.187
11
65.6393
21
-138.282
0
LINE
8
BLACK
6
CONTINUOUS
10
67.7345
20
-139.425
11
67.544
21
-139.33
0
LINE
8
BLACK
6
CONTINUOUS
10
67.544
20
-139.33
11
67.4488
21
-139.234
0
LINE
8
BLACK
6
CONTINUOUS
10
67.4488
20
-139.234
11
67.3536
21
-139.044
0
LINE
8
BLACK
6
CONTINUOUS
10
67.3536
20
-139.044
11
67.3536
21
-138.472
0
LINE
8
BLACK
6
CONTINUOUS
10
67.3536
20
-138.472
11
67.4488
21
-138.282
0
LINE
8
BLACK
6
CONTINUOUS
10
67.4488
20
-138.282
11
67.544
21
-138.187
0
LINE
8
BLACK
6
CONTINUOUS
10
67.544
20
-138.187
11
67.7345
21
-138.091
0
LINE
8
BLACK
6
CONTINUOUS
10
67.7345
20
-138.091
11
68.0202
21
-138.091
0
LINE
8
BLACK
6
CONTINUOUS
10
68.0202
20
-138.091
11
68.2107
21
-138.187
0
LINE
8
BLACK
6
CONTINUOUS
10
68.2107
20
-138.187
11
68.306
21
-138.282
0
LINE
8
BLACK
6
CONTINUOUS
10
68.306
20
-138.282
11
68.4012
21
-138.472
0
LINE
8
BLACK
6
CONTINUOUS
10
68.4012
20
-138.472
11
68.4012
21
-139.044
0
LINE
8
BLACK
6
CONTINUOUS
10
68.4012
20
-139.044
11
68.306
21
-139.234
0
LINE
8
BLACK
6
CONTINUOUS
10
68.306
20
-139.234
11
68.2107
21
-139.33
0
LINE
8
BLACK
6
CONTINUOUS
10
68.2107
20
-139.33
11
68.0202
21
-139.425
0
LINE
8
BLACK
6
CONTINUOUS
10
68.0202
20
-139.425
11
67.7345
21
-139.425
0
LINE
8
BLACK
6
CONTINUOUS
10
69.544
20
-139.425
11
69.3536
21
-139.33
0
LINE
8
BLACK
6
CONTINUOUS
10
69.3536
20
-139.33
11
69.2583
21
-139.139
0
LINE
8
BLACK
6
CONTINUOUS
10
69.2583
20
-139.139
11
69.2583
21
-137.425
0
LINE
8
BLACK
6
CONTINUOUS
10
71.0679
20
-139.33
11
70.8774
21
-139.425
0
LINE
8
BLACK
6
CONTINUOUS
10
70.8774
20
-139.425
11
70.4964
21
-139.425
0
LINE
8
BLACK
6
CONTINUOUS
10
70.4964
20
-139.425
11
70.306
21
-139.33
0
LINE
8
BLACK
6
CONTINUOUS
10
70.306
20
-139.33
11
70.2107
21
-139.139
0
LINE
8
BLACK
6
CONTINUOUS
10
70.2107
20
-139.139
11
70.2107
21
-138.377
0
LINE
8
BLACK
6
CONTINUOUS
10
70.2107
20
-138.377
11
70.306
21
-138.187
0
LINE
8
BLACK
6
CONTINUOUS
10
70.306
20
-138.187
11
70.4964
21
-138.091
0
LINE
8
BLACK
6
CONTINUOUS
10
70.4964
20
-138.091
11
70.8774
21
-138.091
0
LINE
8
BLACK
6
CONTINUOUS
10
70.8774
20
-138.091
11
71.0679
21
-138.187
0
LINE
8
BLACK
6
CONTINUOUS
10
71.0679
20
-138.187
11
71.1631
21
-138.377
0
LINE
8
BLACK
6
CONTINUOUS
10
71.1631
20
-138.377
11
71.1631
21
-138.568
0
LINE
8
BLACK
6
CONTINUOUS
10
71.1631
20
-138.568
11
70.2107
21
-138.758
0
LINE
8
BLACK
6
CONTINUOUS
10
71.925
20
-139.33
11
72.1155
21
-139.425
0
LINE
8
BLACK
6
CONTINUOUS
10
72.1155
20
-139.425
11
72.4964
21
-139.425
0
LINE
8
BLACK
6
CONTINUOUS
10
72.4964
20
-139.425
11
72.6869
21
-139.33
0
LINE
8
BLACK
6
CONTINUOUS
10
72.6869
20
-139.33
11
72.7821
21
-139.139
0
LINE
8
BLACK
6
CONTINUOUS
10
72.7821
20
-139.139
11
72.7821
21
-139.044
0
LINE
8
BLACK
6
CONTINUOUS
10
72.7821
20
-139.044
11
72.6869
21
-138.853
0
LINE
8
BLACK
6
CONTINUOUS
10
72.6869
20
-138.853
11
72.4964
21
-138.758
0
LINE
8
BLACK
6
CONTINUOUS
10
72.4964
20
-138.758
11
72.2107
21
-138.758
0
LINE
8
BLACK
6
CONTINUOUS
10
72.2107
20
-138.758
11
72.0202
21
-138.663
0
LINE
8
BLACK
6
CONTINUOUS
10
72.0202
20
-138.663
11
71.925
21
-138.472
0
LINE
8
BLACK
6
CONTINUOUS
10
71.925
20
-138.472
11
71.925
21
-138.377
0
LINE
8
BLACK
6
CONTINUOUS
10
71.925
20
-138.377
11
72.0202
21
-138.187
0
LINE
8
BLACK
6
CONTINUOUS
10
72.0202
20
-138.187
11
72.2107
21
-138.091
0
LINE
8
BLACK
6
CONTINUOUS
10
72.2107
20
-138.091
11
72.4964
21
-138.091
0
LINE
8
BLACK
6
CONTINUOUS
10
72.4964
20
-138.091
11
72.6869
21
-138.187
0
LINE
8
BLACK
6
CONTINUOUS
10
73.4488
20
-140.187
11
73.544
21
-140.091
0
LINE
8
BLACK
6
CONTINUOUS
10
73.544
20
-140.091
11
73.7345
21
-139.806
0
LINE
8
BLACK
6
CONTINUOUS
10
73.7345
20
-139.806
11
73.8298
21
-139.615
0
LINE
8
BLACK
6
CONTINUOUS
10
73.8298
20
-139.615
11
73.925
21
-139.33
0
LINE
8
BLACK
6
CONTINUOUS
10
73.925
20
-139.33
11
74.0202
21
-138.853
0
LINE
8
BLACK
6
CONTINUOUS
10
74.0202
20
-138.853
11
74.0202
21
-138.472
0
LINE
8
BLACK
6
CONTINUOUS
10
74.0202
20
-138.472
11
73.925
21
-137.996
0
LINE
8
BLACK
6
CONTINUOUS
10
73.925
20
-137.996
11
73.8298
21
-137.71
0
LINE
8
BLACK
6
CONTINUOUS
10
73.8298
20
-137.71
11
73.7345
21
-137.52
0
LINE
8
BLACK
6
CONTINUOUS
10
73.7345
20
-137.52
11
73.544
21
-137.234
0
LINE
8
BLACK
6
CONTINUOUS
10
73.544
20
-137.234
11
73.4488
21
-137.139
0
LINE
8
BLACK
6
CONTINUOUS
10
23.075
20
-141.91
11
23.825
21
-141.16
0
LINE
8
BLACK
6
CONTINUOUS
10
23.825
20
-141.16
11
23.075
21
-140.41
0
LINE
8
BLACK
6
CONTINUOUS
10
23.075
20
-140.41
11
22.325
21
-141.16
0
LINE
8
BLACK
6
CONTINUOUS
10
22.325
20
-141.16
11
23.075
21
-141.91
0
LINE
8
BLACK
6
CONTINUOUS
10
27.4488
20
-142.065
11
26.306
21
-142.065
0
LINE
8
BLACK
6
CONTINUOUS
10
26.8774
20
-142.065
11
26.8774
21
-140.065
0
LINE
8
BLACK
6
CONTINUOUS
10
26.8774
20
-140.065
11
26.6869
21
-140.35
0
LINE
8
BLACK
6
CONTINUOUS
10
26.6869
20
-140.35
11
26.4964
21
-140.541
0
LINE
8
BLACK
6
CONTINUOUS
10
26.4964
20
-140.541
11
26.306
21
-140.636
0
LINE
8
BLACK
6
CONTINUOUS
10
28.306
20
-141.874
11
28.4012
21
-141.97
0
LINE
8
BLACK
6
CONTINUOUS
10
28.4012
20
-141.97
11
28.306
21
-142.065
0
LINE
8
BLACK
6
CONTINUOUS
10
28.306
20
-142.065
11
28.2107
21
-141.97
0
LINE
8
BLACK
6
CONTINUOUS
10
28.2107
20
-141.97
11
28.306
21
-141.874
0
LINE
8
BLACK
6
CONTINUOUS
10
28.306
20
-141.874
11
28.306
21
-142.065
0
LINE
8
BLACK
6
CONTINUOUS
10
30.2107
20
-140.065
11
29.2583
21
-140.065
0
LINE
8
BLACK
6
CONTINUOUS
10
29.2583
20
-140.065
11
29.1631
21
-141.017
0
LINE
8
BLACK
6
CONTINUOUS
10
29.1631
20
-141.017
11
29.2583
21
-140.922
0
LINE
8
BLACK
6
CONTINUOUS
10
29.2583
20
-140.922
11
29.4488
21
-140.827
0
LINE
8
BLACK
6
CONTINUOUS
10
29.4488
20
-140.827
11
29.925
21
-140.827
0
LINE
8
BLACK
6
CONTINUOUS
10
29.925
20
-140.827
11
30.1155
21
-140.922
0
LINE
8
BLACK
6
CONTINUOUS
10
30.1155
20
-140.922
11
30.2107
21
-141.017
0
LINE
8
BLACK
6
CONTINUOUS
10
30.2107
20
-141.017
11
30.306
21
-141.208
0
LINE
8
BLACK
6
CONTINUOUS
10
30.306
20
-141.208
11
30.306
21
-141.684
0
LINE
8
BLACK
6
CONTINUOUS
10
30.306
20
-141.684
11
30.2107
21
-141.874
0
LINE
8
BLACK
6
CONTINUOUS
10
30.2107
20
-141.874
11
30.1155
21
-141.97
0
LINE
8
BLACK
6
CONTINUOUS
10
30.1155
20
-141.97
11
29.925
21
-142.065
0
LINE
8
BLACK
6
CONTINUOUS
10
29.925
20
-142.065
11
29.4488
21
-142.065
0
LINE
8
BLACK
6
CONTINUOUS
10
29.4488
20
-142.065
11
29.2583
21
-141.97
0
LINE
8
BLACK
6
CONTINUOUS
10
29.2583
20
-141.97
11
29.1631
21
-141.874
0
LINE
8
BLACK
6
CONTINUOUS
10
31.544
20
-140.065
11
31.7345
21
-140.065
0
LINE
8
BLACK
6
CONTINUOUS
10
31.7345
20
-140.065
11
31.925
21
-140.16
0
LINE
8
BLACK
6
CONTINUOUS
10
31.925
20
-140.16
11
32.0202
21
-140.255
0
LINE
8
BLACK
6
CONTINUOUS
10
32.0202
20
-140.255
11
32.1155
21
-140.446
0
LINE
8
BLACK
6
CONTINUOUS
10
32.1155
20
-140.446
11
32.2107
21
-140.827
0
LINE
8
BLACK
6
CONTINUOUS
10
32.2107
20
-140.827
11
32.2107
21
-141.303
0
LINE
8
BLACK
6
CONTINUOUS
10
32.2107
20
-141.303
11
32.1155
21
-141.684
0
LINE
8
BLACK
6
CONTINUOUS
10
32.1155
20
-141.684
11
32.0202
21
-141.874
0
LINE
8
BLACK
6
CONTINUOUS
10
32.0202
20
-141.874
11
31.925
21
-141.97
0
LINE
8
BLACK
6
CONTINUOUS
10
31.925
20
-141.97
11
31.7345
21
-142.065
0
LINE
8
BLACK
6
CONTINUOUS
10
31.7345
20
-142.065
11
31.544
21
-142.065
0
LINE
8
BLACK
6
CONTINUOUS
10
31.544
20
-142.065
11
31.3536
21
-141.97
0
LINE
8
BLACK
6
CONTINUOUS
10
31.3536
20
-141.97
11
31.2583
21
-141.874
0
LINE
8
BLACK
6
CONTINUOUS
10
31.2583
20
-141.874
11
31.1631
21
-141.684
0
LINE
8
BLACK
6
CONTINUOUS
10
31.1631
20
-141.684
11
31.0679
21
-141.303
0
LINE
8
BLACK
6
CONTINUOUS
10
31.0679
20
-141.303
11
31.0679
21
-140.827
0
LINE
8
BLACK
6
CONTINUOUS
10
31.0679
20
-140.827
11
31.1631
21
-140.446
0
LINE
8
BLACK
6
CONTINUOUS
10
31.1631
20
-140.446
11
31.2583
21
-140.255
0
LINE
8
BLACK
6
CONTINUOUS
10
31.2583
20
-140.255
11
31.3536
21
-140.16
0
LINE
8
BLACK
6
CONTINUOUS
10
31.3536
20
-140.16
11
31.544
21
-140.065
0
LINE
8
BLACK
6
CONTINUOUS
10
33.4488
20
-140.065
11
33.6393
21
-140.065
0
LINE
8
BLACK
6
CONTINUOUS
10
33.6393
20
-140.065
11
33.8298
21
-140.16
0
LINE
8
BLACK
6
CONTINUOUS
10
33.8298
20
-140.16
11
33.925
21
-140.255
0
LINE
8
BLACK
6
CONTINUOUS
10
33.925
20
-140.255
11
34.0202
21
-140.446
0
LINE
8
BLACK
6
CONTINUOUS
10
34.0202
20
-140.446
11
34.1155
21
-140.827
0
LINE
8
BLACK
6
CONTINUOUS
10
34.1155
20
-140.827
11
34.1155
21
-141.303
0
LINE
8
BLACK
6
CONTINUOUS
10
34.1155
20
-141.303
11
34.0202
21
-141.684
0
LINE
8
BLACK
6
CONTINUOUS
10
34.0202
20
-141.684
11
33.925
21
-141.874
0
LINE
8
BLACK
6
CONTINUOUS
10
33.925
20
-141.874
11
33.8298
21
-141.97
0
LINE
8
BLACK
6
CONTINUOUS
10
33.8298
20
-141.97
11
33.6393
21
-142.065
0
LINE
8
BLACK
6
CONTINUOUS
10
33.6393
20
-142.065
11
33.4488
21
-142.065
0
LINE
8
BLACK
6
CONTINUOUS
10
33.4488
20
-142.065
11
33.2583
21
-141.97
0
LINE
8
BLACK
6
CONTINUOUS
10
33.2583
20
-141.97
11
33.1631
21
-141.874
0
LINE
8
BLACK
6
CONTINUOUS
10
33.1631
20
-141.874
11
33.0679
21
-141.684
0
LINE
8
BLACK
6
CONTINUOUS
10
33.0679
20
-141.684
11
32.9726
21
-141.303
0
LINE
8
BLACK
6
CONTINUOUS
10
32.9726
20
-141.303
11
32.9726
21
-140.827
0
LINE
8
BLACK
6
CONTINUOUS
10
32.9726
20
-140.827
11
33.0679
21
-140.446
0
LINE
8
BLACK
6
CONTINUOUS
10
33.0679
20
-140.446
11
33.1631
21
-140.255
0
LINE
8
BLACK
6
CONTINUOUS
10
33.1631
20
-140.255
11
33.2583
21
-140.16
0
LINE
8
BLACK
6
CONTINUOUS
10
33.2583
20
-140.16
11
33.4488
21
-140.065
0
LINE
8
BLACK
6
CONTINUOUS
10
34.9726
20
-142.065
11
34.9726
21
-140.731
0
LINE
8
BLACK
6
CONTINUOUS
10
34.9726
20
-140.922
11
35.0679
21
-140.827
0
LINE
8
BLACK
6
CONTINUOUS
10
35.0679
20
-140.827
11
35.2583
21
-140.731
0
LINE
8
BLACK
6
CONTINUOUS
10
35.2583
20
-140.731
11
35.544
21
-140.731
0
LINE
8
BLACK
6
CONTINUOUS
10
35.544
20
-140.731
11
35.7345
21
-140.827
0
LINE
8
BLACK
6
CONTINUOUS
10
35.7345
20
-140.827
11
35.8298
21
-141.017
0
LINE
8
BLACK
6
CONTINUOUS
10
35.8298
20
-141.017
11
35.8298
21
-142.065
0
LINE
8
BLACK
6
CONTINUOUS
10
35.8298
20
-141.017
11
35.925
21
-140.827
0
LINE
8
BLACK
6
CONTINUOUS
10
35.925
20
-140.827
11
36.1155
21
-140.731
0
LINE
8
BLACK
6
CONTINUOUS
10
36.1155
20
-140.731
11
36.4012
21
-140.731
0
LINE
8
BLACK
6
CONTINUOUS
10
36.4012
20
-140.731
11
36.5917
21
-140.827
0
LINE
8
BLACK
6
CONTINUOUS
10
36.5917
20
-140.827
11
36.6869
21
-141.017
0
LINE
8
BLACK
6
CONTINUOUS
10
36.6869
20
-141.017
11
36.6869
21
-142.065
0
LINE
8
BLACK
6
CONTINUOUS
10
37.6393
20
-142.065
11
37.6393
21
-140.731
0
LINE
8
BLACK
6
CONTINUOUS
10
37.6393
20
-140.922
11
37.7345
21
-140.827
0
LINE
8
BLACK
6
CONTINUOUS
10
37.7345
20
-140.827
11
37.925
21
-140.731
0
LINE
8
BLACK
6
CONTINUOUS
10
37.925
20
-140.731
11
38.2107
21
-140.731
0
LINE
8
BLACK
6
CONTINUOUS
10
38.2107
20
-140.731
11
38.4012
21
-140.827
0
LINE
8
BLACK
6
CONTINUOUS
10
38.4012
20
-140.827
11
38.4964
21
-141.017
0
LINE
8
BLACK
6
CONTINUOUS
10
38.4964
20
-141.017
11
38.4964
21
-142.065
0
LINE
8
BLACK
6
CONTINUOUS
10
38.4964
20
-141.017
11
38.5917
21
-140.827
0
LINE
8
BLACK
6
CONTINUOUS
10
38.5917
20
-140.827
11
38.7821
21
-140.731
0
LINE
8
BLACK
6
CONTINUOUS
10
38.7821
20
-140.731
11
39.0679
21
-140.731
0
LINE
8
BLACK
6
CONTINUOUS
10
39.0679
20
-140.731
11
39.2583
21
-140.827
0
LINE
8
BLACK
6
CONTINUOUS
10
39.2583
20
-140.827
11
39.3536
21
-141.017
0
LINE
8
BLACK
6
CONTINUOUS
10
39.3536
20
-141.017
11
39.3536
21
-142.065
0
LINE
8
BLACK
6
CONTINUOUS
10
43.2583
20
-139.97
11
41.544
21
-142.541
0
LINE
8
BLACK
6
CONTINUOUS
10
45.8298
20
-140.065
11
46.0202
21
-140.065
0
LINE
8
BLACK
6
CONTINUOUS
10
46.0202
20
-140.065
11
46.2107
21
-140.16
0
LINE
8
BLACK
6
CONTINUOUS
10
46.2107
20
-140.16
11
46.306
21
-140.255
0
LINE
8
BLACK
6
CONTINUOUS
10
46.306
20
-140.255
11
46.4012
21
-140.446
0
LINE
8
BLACK
6
CONTINUOUS
10
46.4012
20
-140.446
11
46.4964
21
-140.827
0
LINE
8
BLACK
6
CONTINUOUS
10
46.4964
20
-140.827
11
46.4964
21
-141.303
0
LINE
8
BLACK
6
CONTINUOUS
10
46.4964
20
-141.303
11
46.4012
21
-141.684
0
LINE
8
BLACK
6
CONTINUOUS
10
46.4012
20
-141.684
11
46.306
21
-141.874
0
LINE
8
BLACK
6
CONTINUOUS
10
46.306
20
-141.874
11
46.2107
21
-141.97
0
LINE
8
BLACK
6
CONTINUOUS
10
46.2107
20
-141.97
11
46.0202
21
-142.065
0
LINE
8
BLACK
6
CONTINUOUS
10
46.0202
20
-142.065
11
45.8298
21
-142.065
0
LINE
8
BLACK
6
CONTINUOUS
10
45.8298
20
-142.065
11
45.6393
21
-141.97
0
LINE
8
BLACK
6
CONTINUOUS
10
45.6393
20
-141.97
11
45.544
21
-141.874
0
LINE
8
BLACK
6
CONTINUOUS
10
45.544
20
-141.874
11
45.4488
21
-141.684
0
LINE
8
BLACK
6
CONTINUOUS
10
45.4488
20
-141.684
11
45.3536
21
-141.303
0
LINE
8
BLACK
6
CONTINUOUS
10
45.3536
20
-141.303
11
45.3536
21
-140.827
0
LINE
8
BLACK
6
CONTINUOUS
10
45.3536
20
-140.827
11
45.4488
21
-140.446
0
LINE
8
BLACK
6
CONTINUOUS
10
45.4488
20
-140.446
11
45.544
21
-140.255
0
LINE
8
BLACK
6
CONTINUOUS
10
45.544
20
-140.255
11
45.6393
21
-140.16
0
LINE
8
BLACK
6
CONTINUOUS
10
45.6393
20
-140.16
11
45.8298
21
-140.065
0
LINE
8
BLACK
6
CONTINUOUS
10
47.3536
20
-141.874
11
47.4488
21
-141.97
0
LINE
8
BLACK
6
CONTINUOUS
10
47.4488
20
-141.97
11
47.3536
21
-142.065
0
LINE
8
BLACK
6
CONTINUOUS
10
47.3536
20
-142.065
11
47.2583
21
-141.97
0
LINE
8
BLACK
6
CONTINUOUS
10
47.2583
20
-141.97
11
47.3536
21
-141.874
0
LINE
8
BLACK
6
CONTINUOUS
10
47.3536
20
-141.874
11
47.3536
21
-142.065
0
LINE
8
BLACK
6
CONTINUOUS
10
48.6869
20
-140.065
11
48.8774
21
-140.065
0
LINE
8
BLACK
6
CONTINUOUS
10
48.8774
20
-140.065
11
49.0679
21
-140.16
0
LINE
8
BLACK
6
CONTINUOUS
10
49.0679
20
-140.16
11
49.1631
21
-140.255
0
LINE
8
BLACK
6
CONTINUOUS
10
49.1631
20
-140.255
11
49.2583
21
-140.446
0
LINE
8
BLACK
6
CONTINUOUS
10
49.2583
20
-140.446
11
49.3536
21
-140.827
0
LINE
8
BLACK
6
CONTINUOUS
10
49.3536
20
-140.827
11
49.3536
21
-141.303
0
LINE
8
BLACK
6
CONTINUOUS
10
49.3536
20
-141.303
11
49.2583
21
-141.684
0
LINE
8
BLACK
6
CONTINUOUS
10
49.2583
20
-141.684
11
49.1631
21
-141.874
0
LINE
8
BLACK
6
CONTINUOUS
10
49.1631
20
-141.874
11
49.0679
21
-141.97
0
LINE
8
BLACK
6
CONTINUOUS
10
49.0679
20
-141.97
11
48.8774
21
-142.065
0
LINE
8
BLACK
6
CONTINUOUS
10
48.8774
20
-142.065
11
48.6869
21
-142.065
0
LINE
8
BLACK
6
CONTINUOUS
10
48.6869
20
-142.065
11
48.4964
21
-141.97
0
LINE
8
BLACK
6
CONTINUOUS
10
48.4964
20
-141.97
11
48.4012
21
-141.874
0
LINE
8
BLACK
6
CONTINUOUS
10
48.4012
20
-141.874
11
48.306
21
-141.684
0
LINE
8
BLACK
6
CONTINUOUS
10
48.306
20
-141.684
11
48.2107
21
-141.303
0
LINE
8
BLACK
6
CONTINUOUS
10
48.2107
20
-141.303
11
48.2107
21
-140.827
0
LINE
8
BLACK
6
CONTINUOUS
10
48.2107
20
-140.827
11
48.306
21
-140.446
0
LINE
8
BLACK
6
CONTINUOUS
10
48.306
20
-140.446
11
48.4012
21
-140.255
0
LINE
8
BLACK
6
CONTINUOUS
10
48.4012
20
-140.255
11
48.4964
21
-140.16
0
LINE
8
BLACK
6
CONTINUOUS
10
48.4964
20
-140.16
11
48.6869
21
-140.065
0
LINE
8
BLACK
6
CONTINUOUS
10
51.1631
20
-140.065
11
50.2107
21
-140.065
0
LINE
8
BLACK
6
CONTINUOUS
10
50.2107
20
-140.065
11
50.1155
21
-141.017
0
LINE
8
BLACK
6
CONTINUOUS
10
50.1155
20
-141.017
11
50.2107
21
-140.922
0
LINE
8
BLACK
6
CONTINUOUS
10
50.2107
20
-140.922
11
50.4012
21
-140.827
0
LINE
8
BLACK
6
CONTINUOUS
10
50.4012
20
-140.827
11
50.8774
21
-140.827
0
LINE
8
BLACK
6
CONTINUOUS
10
50.8774
20
-140.827
11
51.0679
21
-140.922
0
LINE
8
BLACK
6
CONTINUOUS
10
51.0679
20
-140.922
11
51.1631
21
-141.017
0
LINE
8
BLACK
6
CONTINUOUS
10
51.1631
20
-141.017
11
51.2583
21
-141.208
0
LINE
8
BLACK
6
CONTINUOUS
10
51.2583
20
-141.208
11
51.2583
21
-141.684
0
LINE
8
BLACK
6
CONTINUOUS
10
51.2583
20
-141.684
11
51.1631
21
-141.874
0
LINE
8
BLACK
6
CONTINUOUS
10
51.1631
20
-141.874
11
51.0679
21
-141.97
0
LINE
8
BLACK
6
CONTINUOUS
10
51.0679
20
-141.97
11
50.8774
21
-142.065
0
LINE
8
BLACK
6
CONTINUOUS
10
50.8774
20
-142.065
11
50.4012
21
-142.065
0
LINE
8
BLACK
6
CONTINUOUS
10
50.4012
20
-142.065
11
50.2107
21
-141.97
0
LINE
8
BLACK
6
CONTINUOUS
10
50.2107
20
-141.97
11
50.1155
21
-141.874
0
LINE
8
BLACK
6
CONTINUOUS
10
52.2107
20
-142.065
11
52.5917
21
-142.065
0
LINE
8
BLACK
6
CONTINUOUS
10
52.5917
20
-142.065
11
52.7821
21
-141.97
0
LINE
8
BLACK
6
CONTINUOUS
10
52.7821
20
-141.97
11
52.8774
21
-141.874
0
LINE
8
BLACK
6
CONTINUOUS
10
52.8774
20
-141.874
11
53.0679
21
-141.589
0
LINE
8
BLACK
6
CONTINUOUS
10
53.0679
20
-141.589
11
53.1631
21
-141.208
0
LINE
8
BLACK
6
CONTINUOUS
10
53.1631
20
-141.208
11
53.1631
21
-140.446
0
LINE
8
BLACK
6
CONTINUOUS
10
53.1631
20
-140.446
11
53.0679
21
-140.255
0
LINE
8
BLACK
6
CONTINUOUS
10
53.0679
20
-140.255
11
52.9726
21
-140.16
0
LINE
8
BLACK
6
CONTINUOUS
10
52.9726
20
-140.16
11
52.7821
21
-140.065
0
LINE
8
BLACK
6
CONTINUOUS
10
52.7821
20
-140.065
11
52.4012
21
-140.065
0
LINE
8
BLACK
6
CONTINUOUS
10
52.4012
20
-140.065
11
52.2107
21
-140.16
0
LINE
8
BLACK
6
CONTINUOUS
10
52.2107
20
-140.16
11
52.1155
21
-140.255
0
LINE
8
BLACK
6
CONTINUOUS
10
52.1155
20
-140.255
11
52.0202
21
-140.446
0
LINE
8
BLACK
6
CONTINUOUS
10
52.0202
20
-140.446
11
52.0202
21
-140.922
0
LINE
8
BLACK
6
CONTINUOUS
10
52.0202
20
-140.922
11
52.1155
21
-141.112
0
LINE
8
BLACK
6
CONTINUOUS
10
52.1155
20
-141.112
11
52.2107
21
-141.208
0
LINE
8
BLACK
6
CONTINUOUS
10
52.2107
20
-141.208
11
52.4012
21
-141.303
0
LINE
8
BLACK
6
CONTINUOUS
10
52.4012
20
-141.303
11
52.7821
21
-141.303
0
LINE
8
BLACK
6
CONTINUOUS
10
52.7821
20
-141.303
11
52.9726
21
-141.208
0
LINE
8
BLACK
6
CONTINUOUS
10
52.9726
20
-141.208
11
53.0679
21
-141.112
0
LINE
8
BLACK
6
CONTINUOUS
10
53.0679
20
-141.112
11
53.1631
21
-140.922
0
LINE
8
BLACK
6
CONTINUOUS
10
55.0679
20
-142.065
11
53.925
21
-142.065
0
LINE
8
BLACK
6
CONTINUOUS
10
54.4964
20
-142.065
11
54.4964
21
-140.065
0
LINE
8
BLACK
6
CONTINUOUS
10
54.4964
20
-140.065
11
54.306
21
-140.35
0
LINE
8
BLACK
6
CONTINUOUS
10
54.306
20
-140.35
11
54.1155
21
-140.541
0
LINE
8
BLACK
6
CONTINUOUS
10
54.1155
20
-140.541
11
53.925
21
-140.636
0
LINE
8
BLACK
6
CONTINUOUS
10
55.8298
20
-140.065
11
55.8298
21
-140.446
0
LINE
8
BLACK
6
CONTINUOUS
10
56.5917
20
-140.065
11
56.5917
21
-140.446
0
LINE
8
BLACK
6
CONTINUOUS
10
59.544
20
-142.827
11
59.4488
21
-142.731
0
LINE
8
BLACK
6
CONTINUOUS
10
59.4488
20
-142.731
11
59.2583
21
-142.446
0
LINE
8
BLACK
6
CONTINUOUS
10
59.2583
20
-142.446
11
59.1631
21
-142.255
0
LINE
8
BLACK
6
CONTINUOUS
10
59.1631
20
-142.255
11
59.0679
21
-141.97
0
LINE
8
BLACK
6
CONTINUOUS
10
59.0679
20
-141.97
11
58.9726
21
-141.493
0
LINE
8
BLACK
6
CONTINUOUS
10
58.9726
20
-141.493
11
58.9726
21
-141.112
0
LINE
8
BLACK
6
CONTINUOUS
10
58.9726
20
-141.112
11
59.0679
21
-140.636
0
LINE
8
BLACK
6
CONTINUOUS
10
59.0679
20
-140.636
11
59.1631
21
-140.35
0
LINE
8
BLACK
6
CONTINUOUS
10
59.1631
20
-140.35
11
59.2583
21
-140.16
0
LINE
8
BLACK
6
CONTINUOUS
10
59.2583
20
-140.16
11
59.4488
21
-139.874
0
LINE
8
BLACK
6
CONTINUOUS
10
59.4488
20
-139.874
11
59.544
21
-139.779
0
LINE
8
BLACK
6
CONTINUOUS
10
61.3536
20
-142.065
11
60.2107
21
-142.065
0
LINE
8
BLACK
6
CONTINUOUS
10
60.7821
20
-142.065
11
60.7821
21
-140.065
0
LINE
8
BLACK
6
CONTINUOUS
10
60.7821
20
-140.065
11
60.5917
21
-140.35
0
LINE
8
BLACK
6
CONTINUOUS
10
60.5917
20
-140.35
11
60.4012
21
-140.541
0
LINE
8
BLACK
6
CONTINUOUS
10
60.4012
20
-140.541
11
60.2107
21
-140.636
0
LINE
8
BLACK
6
CONTINUOUS
10
62.5917
20
-140.065
11
62.7821
21
-140.065
0
LINE
8
BLACK
6
CONTINUOUS
10
62.7821
20
-140.065
11
62.9726
21
-140.16
0
LINE
8
BLACK
6
CONTINUOUS
10
62.9726
20
-140.16
11
63.0679
21
-140.255
0
LINE
8
BLACK
6
CONTINUOUS
10
63.0679
20
-140.255
11
63.1631
21
-140.446
0
LINE
8
BLACK
6
CONTINUOUS
10
63.1631
20
-140.446
11
63.2583
21
-140.827
0
LINE
8
BLACK
6
CONTINUOUS
10
63.2583
20
-140.827
11
63.2583
21
-141.303
0
LINE
8
BLACK
6
CONTINUOUS
10
63.2583
20
-141.303
11
63.1631
21
-141.684
0
LINE
8
BLACK
6
CONTINUOUS
10
63.1631
20
-141.684
11
63.0679
21
-141.874
0
LINE
8
BLACK
6
CONTINUOUS
10
63.0679
20
-141.874
11
62.9726
21
-141.97
0
LINE
8
BLACK
6
CONTINUOUS
10
62.9726
20
-141.97
11
62.7821
21
-142.065
0
LINE
8
BLACK
6
CONTINUOUS
10
62.7821
20
-142.065
11
62.5917
21
-142.065
0
LINE
8
BLACK
6
CONTINUOUS
10
62.5917
20
-142.065
11
62.4012
21
-141.97
0
LINE
8
BLACK
6
CONTINUOUS
10
62.4012
20
-141.97
11
62.306
21
-141.874
0
LINE
8
BLACK
6
CONTINUOUS
10
62.306
20
-141.874
11
62.2107
21
-141.684
0
LINE
8
BLACK
6
CONTINUOUS
10
62.2107
20
-141.684
11
62.1155
21
-141.303
0
LINE
8
BLACK
6
CONTINUOUS
10
62.1155
20
-141.303
11
62.1155
21
-140.827
0
LINE
8
BLACK
6
CONTINUOUS
10
62.1155
20
-140.827
11
62.2107
21
-140.446
0
LINE
8
BLACK
6
CONTINUOUS
10
62.2107
20
-140.446
11
62.306
21
-140.255
0
LINE
8
BLACK
6
CONTINUOUS
10
62.306
20
-140.255
11
62.4012
21
-140.16
0
LINE
8
BLACK
6
CONTINUOUS
10
62.4012
20
-140.16
11
62.5917
21
-140.065
0
LINE
8
BLACK
6
CONTINUOUS
10
64.4964
20
-140.065
11
64.6869
21
-140.065
0
LINE
8
BLACK
6
CONTINUOUS
10
64.6869
20
-140.065
11
64.8774
21
-140.16
0
LINE
8
BLACK
6
CONTINUOUS
10
64.8774
20
-140.16
11
64.9726
21
-140.255
0
LINE
8
BLACK
6
CONTINUOUS
10
64.9726
20
-140.255
11
65.0679
21
-140.446
0
LINE
8
BLACK
6
CONTINUOUS
10
65.0679
20
-140.446
11
65.1631
21
-140.827
0
LINE
8
BLACK
6
CONTINUOUS
10
65.1631
20
-140.827
11
65.1631
21
-141.303
0
LINE
8
BLACK
6
CONTINUOUS
10
65.1631
20
-141.303
11
65.0679
21
-141.684
0
LINE
8
BLACK
6
CONTINUOUS
10
65.0679
20
-141.684
11
64.9726
21
-141.874
0
LINE
8
BLACK
6
CONTINUOUS
10
64.9726
20
-141.874
11
64.8774
21
-141.97
0
LINE
8
BLACK
6
CONTINUOUS
10
64.8774
20
-141.97
11
64.6869
21
-142.065
0
LINE
8
BLACK
6
CONTINUOUS
10
64.6869
20
-142.065
11
64.4964
21
-142.065
0
LINE
8
BLACK
6
CONTINUOUS
10
64.4964
20
-142.065
11
64.306
21
-141.97
0
LINE
8
BLACK
6
CONTINUOUS
10
64.306
20
-141.97
11
64.2107
21
-141.874
0
LINE
8
BLACK
6
CONTINUOUS
10
64.2107
20
-141.874
11
64.1155
21
-141.684
0
LINE
8
BLACK
6
CONTINUOUS
10
64.1155
20
-141.684
11
64.0202
21
-141.303
0
LINE
8
BLACK
6
CONTINUOUS
10
64.0202
20
-141.303
11
64.0202
21
-140.827
0
LINE
8
BLACK
6
CONTINUOUS
10
64.0202
20
-140.827
11
64.1155
21
-140.446
0
LINE
8
BLACK
6
CONTINUOUS
10
64.1155
20
-140.446
11
64.2107
21
-140.255
0
LINE
8
BLACK
6
CONTINUOUS
10
64.2107
20
-140.255
11
64.306
21
-140.16
0
LINE
8
BLACK
6
CONTINUOUS
10
64.306
20
-140.16
11
64.4964
21
-140.065
0
LINE
8
BLACK
6
CONTINUOUS
10
67.544
20
-142.065
11
67.544
21
-140.065
0
LINE
8
BLACK
6
CONTINUOUS
10
68.4012
20
-142.065
11
68.4012
21
-141.017
0
LINE
8
BLACK
6
CONTINUOUS
10
68.4012
20
-141.017
11
68.306
21
-140.827
0
LINE
8
BLACK
6
CONTINUOUS
10
68.306
20
-140.827
11
68.1155
21
-140.731
0
LINE
8
BLACK
6
CONTINUOUS
10
68.1155
20
-140.731
11
67.8298
21
-140.731
0
LINE
8
BLACK
6
CONTINUOUS
10
67.8298
20
-140.731
11
67.6393
21
-140.827
0
LINE
8
BLACK
6
CONTINUOUS
10
67.6393
20
-140.827
11
67.544
21
-140.922
0
LINE
8
BLACK
6
CONTINUOUS
10
69.6393
20
-142.065
11
69.4488
21
-141.97
0
LINE
8
BLACK
6
CONTINUOUS
10
69.4488
20
-141.97
11
69.3536
21
-141.874
0
LINE
8
BLACK
6
CONTINUOUS
10
69.3536
20
-141.874
11
69.2583
21
-141.684
0
LINE
8
BLACK
6
CONTINUOUS
10
69.2583
20
-141.684
11
69.2583
21
-141.112
0
LINE
8
BLACK
6
CONTINUOUS
10
69.2583
20
-141.112
11
69.3536
21
-140.922
0
LINE
8
BLACK
6
CONTINUOUS
10
69.3536
20
-140.922
11
69.4488
21
-140.827
0
LINE
8
BLACK
6
CONTINUOUS
10
69.4488
20
-140.827
11
69.6393
21
-140.731
0
LINE
8
BLACK
6
CONTINUOUS
10
69.6393
20
-140.731
11
69.925
21
-140.731
0
LINE
8
BLACK
6
CONTINUOUS
10
69.925
20
-140.731
11
70.1155
21
-140.827
0
LINE
8
BLACK
6
CONTINUOUS
10
70.1155
20
-140.827
11
70.2107
21
-140.922
0
LINE
8
BLACK
6
CONTINUOUS
10
70.2107
20
-140.922
11
70.306
21
-141.112
0
LINE
8
BLACK
6
CONTINUOUS
10
70.306
20
-141.112
11
70.306
21
-141.684
0
LINE
8
BLACK
6
CONTINUOUS
10
70.306
20
-141.684
11
70.2107
21
-141.874
0
LINE
8
BLACK
6
CONTINUOUS
10
70.2107
20
-141.874
11
70.1155
21
-141.97
0
LINE
8
BLACK
6
CONTINUOUS
10
70.1155
20
-141.97
11
69.925
21
-142.065
0
LINE
8
BLACK
6
CONTINUOUS
10
69.925
20
-142.065
11
69.6393
21
-142.065
0
LINE
8
BLACK
6
CONTINUOUS
10
71.4488
20
-142.065
11
71.2583
21
-141.97
0
LINE
8
BLACK
6
CONTINUOUS
10
71.2583
20
-141.97
11
71.1631
21
-141.779
0
LINE
8
BLACK
6
CONTINUOUS
10
71.1631
20
-141.779
11
71.1631
21
-140.065
0
LINE
8
BLACK
6
CONTINUOUS
10
72.9726
20
-141.97
11
72.7821
21
-142.065
0
LINE
8
BLACK
6
CONTINUOUS
10
72.7821
20
-142.065
11
72.4012
21
-142.065
0
LINE
8
BLACK
6
CONTINUOUS
10
72.4012
20
-142.065
11
72.2107
21
-141.97
0
LINE
8
BLACK
6
CONTINUOUS
10
72.2107
20
-141.97
11
72.1155
21
-141.779
0
LINE
8
BLACK
6
CONTINUOUS
10
72.1155
20
-141.779
11
72.1155
21
-141.017
0
LINE
8
BLACK
6
CONTINUOUS
10
72.1155
20
-141.017
11
72.2107
21
-140.827
0
LINE
8
BLACK
6
CONTINUOUS
10
72.2107
20
-140.827
11
72.4012
21
-140.731
0
LINE
8
BLACK
6
CONTINUOUS
10
72.4012
20
-140.731
11
72.7821
21
-140.731
0
LINE
8
BLACK
6
CONTINUOUS
10
72.7821
20
-140.731
11
72.9726
21
-140.827
0
LINE
8
BLACK
6
CONTINUOUS
10
72.9726
20
-140.827
11
73.0679
21
-141.017
0
LINE
8
BLACK
6
CONTINUOUS
10
73.0679
20
-141.017
11
73.0679
21
-141.208
0
LINE
8
BLACK
6
CONTINUOUS
10
73.0679
20
-141.208
11
72.1155
21
-141.398
0
LINE
8
BLACK
6
CONTINUOUS
10
73.8298
20
-141.97
11
74.0202
21
-142.065
0
LINE
8
BLACK
6
CONTINUOUS
10
74.0202
20
-142.065
11
74.4012
21
-142.065
0
LINE
8
BLACK
6
CONTINUOUS
10
74.4012
20
-142.065
11
74.5917
21
-141.97
0
LINE
8
BLACK
6
CONTINUOUS
10
74.5917
20
-141.97
11
74.6869
21
-141.779
0
LINE
8
BLACK
6
CONTINUOUS
10
74.6869
20
-141.779
11
74.6869
21
-141.684
0
LINE
8
BLACK
6
CONTINUOUS
10
74.6869
20
-141.684
11
74.5917
21
-141.493
0
LINE
8
BLACK
6
CONTINUOUS
10
74.5917
20
-141.493
11
74.4012
21
-141.398
0
LINE
8
BLACK
6
CONTINUOUS
10
74.4012
20
-141.398
11
74.1155
21
-141.398
0
LINE
8
BLACK
6
CONTINUOUS
10
74.1155
20
-141.398
11
73.925
21
-141.303
0
LINE
8
BLACK
6
CONTINUOUS
10
73.925
20
-141.303
11
73.8298
21
-141.112
0
LINE
8
BLACK
6
CONTINUOUS
10
73.8298
20
-141.112
11
73.8298
21
-141.017
0
LINE
8
BLACK
6
CONTINUOUS
10
73.8298
20
-141.017
11
73.925
21
-140.827
0
LINE
8
BLACK
6
CONTINUOUS
10
73.925
20
-140.827
11
74.1155
21
-140.731
0
LINE
8
BLACK
6
CONTINUOUS
10
74.1155
20
-140.731
11
74.4012
21
-140.731
0
LINE
8
BLACK
6
CONTINUOUS
10
74.4012
20
-140.731
11
74.5917
21
-140.827
0
LINE
8
BLACK
6
CONTINUOUS
10
75.3536
20
-142.827
11
75.4488
21
-142.731
0
LINE
8
BLACK
6
CONTINUOUS
10
75.4488
20
-142.731
11
75.6393
21
-142.446
0
LINE
8
BLACK
6
CONTINUOUS
10
75.6393
20
-142.446
11
75.7345
21
-142.255
0
LINE
8
BLACK
6
CONTINUOUS
10
75.7345
20
-142.255
11
75.8298
21
-141.97
0
LINE
8
BLACK
6
CONTINUOUS
10
75.8298
20
-141.97
11
75.925
21
-141.493
0
LINE
8
BLACK
6
CONTINUOUS
10
75.925
20
-141.493
11
75.925
21
-141.112
0
LINE
8
BLACK
6
CONTINUOUS
10
75.925
20
-141.112
11
75.8298
21
-140.636
0
LINE
8
BLACK
6
CONTINUOUS
10
75.8298
20
-140.636
11
75.7345
21
-140.35
0
LINE
8
BLACK
6
CONTINUOUS
10
75.7345
20
-140.35
11
75.6393
21
-140.16
0
LINE
8
BLACK
6
CONTINUOUS
10
75.6393
20
-140.16
11
75.4488
21
-139.874
0
LINE
8
BLACK
6
CONTINUOUS
10
75.4488
20
-139.874
11
75.3536
21
-139.779
  0
ENDSEC
  0
EOF
