%TF.GenerationSoftware,KiCad,Pcbnew,(6.0.0-0)*%
%TF.CreationDate,2022-12-13T13:56:05+01:00*%
%TF.ProjectId,litl,6c69746c-2e6b-4696-9361-645f70636258,rev?*%
%TF.SameCoordinates,Original*%
%TF.FileFunction,Soldermask,Top*%
%TF.FilePolarity,Negative*%
%FSLAX46Y46*%
G04 Gerber Fmt 4.6, Leading zero omitted, Abs format (unit mm)*
G04 Created by KiCad (PCBNEW (6.0.0-0)) date 2022-12-13 13:56:05*
%MOMM*%
%LPD*%
G01*
G04 APERTURE LIST*
%ADD10C,0.300000*%
%ADD11C,1.700000*%
%ADD12C,4.000000*%
%ADD13C,2.200000*%
%ADD14C,1.651000*%
%ADD15R,1.651000X1.651000*%
%ADD16C,3.050000*%
%ADD17R,2.000000X3.200000*%
%ADD18R,2.000000X2.000000*%
%ADD19C,2.000000*%
%ADD20R,1.700000X1.700000*%
%ADD21O,1.700000X1.700000*%
%ADD22R,1.752600X1.752600*%
%ADD23C,1.752600*%
G04 APERTURE END LIST*
D10*
X106015476Y-43879761D02*
X105825000Y-43784523D01*
X105729761Y-43594047D01*
X105729761Y-41879761D01*
X106777380Y-43879761D02*
X106777380Y-42546428D01*
X106777380Y-41879761D02*
X106682142Y-41975000D01*
X106777380Y-42070238D01*
X106872619Y-41975000D01*
X106777380Y-41879761D01*
X106777380Y-42070238D01*
X107444047Y-42546428D02*
X108205952Y-42546428D01*
X107729761Y-41879761D02*
X107729761Y-43594047D01*
X107825000Y-43784523D01*
X108015476Y-43879761D01*
X108205952Y-43879761D01*
X109158333Y-43879761D02*
X108967857Y-43784523D01*
X108872619Y-43594047D01*
X108872619Y-41879761D01*
X111253571Y-42546428D02*
X111729761Y-43879761D01*
X112205952Y-42546428D01*
X112872619Y-42070238D02*
X112967857Y-41975000D01*
X113158333Y-41879761D01*
X113634523Y-41879761D01*
X113825000Y-41975000D01*
X113920238Y-42070238D01*
X114015476Y-42260714D01*
X114015476Y-42451190D01*
X113920238Y-42736904D01*
X112777380Y-43879761D01*
X114015476Y-43879761D01*
D11*
X110130000Y-76400000D03*
D12*
X105050000Y-76400000D03*
D11*
X99970000Y-76400000D03*
D13*
X107590000Y-71320000D03*
X101240000Y-73860000D03*
D11*
X100580000Y-95500000D03*
X90420000Y-95500000D03*
D12*
X95500000Y-95500000D03*
D13*
X98040000Y-90420000D03*
X91690000Y-92960000D03*
D14*
X103627500Y-38200000D03*
D15*
X111247500Y-38200000D03*
D11*
X52220000Y-95500000D03*
D12*
X57300000Y-95500000D03*
D11*
X62380000Y-95500000D03*
D13*
X59840000Y-90420000D03*
X53490000Y-92960000D03*
D12*
X57262500Y-103720000D03*
X45362500Y-95480000D03*
X33462500Y-103720000D03*
D11*
X50442500Y-95480000D03*
X40282500Y-95480000D03*
D16*
X33462500Y-88480000D03*
X57262500Y-88480000D03*
D13*
X47902500Y-90400000D03*
X41552500Y-92940000D03*
D14*
X125115000Y-33425000D03*
D15*
X132735000Y-33425000D03*
D14*
X134665000Y-28650000D03*
D15*
X142285000Y-28650000D03*
D11*
X255157500Y-76400000D03*
D12*
X260237500Y-76400000D03*
D11*
X265317500Y-76400000D03*
D13*
X262777500Y-71320000D03*
X256427500Y-73860000D03*
D14*
X67815000Y-38200000D03*
D15*
X75435000Y-38200000D03*
D11*
X185920000Y-95500000D03*
D12*
X191000000Y-95500000D03*
D11*
X196080000Y-95500000D03*
D13*
X193540000Y-90420000D03*
X187190000Y-92960000D03*
D12*
X138475000Y-57300000D03*
D11*
X143555000Y-57300000D03*
X133395000Y-57300000D03*
D13*
X141015000Y-52220000D03*
X134665000Y-54760000D03*
D11*
X212182500Y-114600000D03*
X222342500Y-114600000D03*
D12*
X217262500Y-114600000D03*
D13*
X219802500Y-109520000D03*
X213452500Y-112060000D03*
D14*
X101240000Y-33425000D03*
D15*
X108860000Y-33425000D03*
D14*
X63040000Y-28650000D03*
D15*
X70660000Y-28650000D03*
D11*
X124455000Y-57300000D03*
X114295000Y-57300000D03*
D12*
X119375000Y-57300000D03*
D13*
X121915000Y-52220000D03*
X115565000Y-54760000D03*
D14*
X172865000Y-33425000D03*
D15*
X180485000Y-33425000D03*
D11*
X166820000Y-95500000D03*
X176980000Y-95500000D03*
D12*
X171900000Y-95500000D03*
D13*
X174440000Y-90420000D03*
X168090000Y-92960000D03*
D14*
X77365000Y-33425000D03*
D15*
X84985000Y-33425000D03*
D14*
X115565000Y-38200000D03*
D15*
X123185000Y-38200000D03*
D12*
X133700000Y-95500000D03*
D11*
X138780000Y-95500000D03*
X128620000Y-95500000D03*
D13*
X136240000Y-90420000D03*
X129890000Y-92960000D03*
D16*
X238787500Y-69400000D03*
D12*
X238787500Y-84640000D03*
D11*
X245607500Y-76400000D03*
X255767500Y-76400000D03*
D12*
X262587500Y-84640000D03*
D16*
X262587500Y-69400000D03*
D12*
X250687500Y-76400000D03*
D13*
X253227500Y-71320000D03*
X246877500Y-73860000D03*
D14*
X165702500Y-42975000D03*
D15*
X173322500Y-42975000D03*
D12*
X167080000Y-106350000D03*
X190880000Y-106350000D03*
D16*
X167080000Y-121590000D03*
X190880000Y-121590000D03*
D12*
X178980000Y-114590000D03*
D11*
X173900000Y-114590000D03*
X184060000Y-114590000D03*
D13*
X181520000Y-109510000D03*
X175170000Y-112050000D03*
D11*
X148340000Y-114650000D03*
X138180000Y-114650000D03*
D12*
X143260000Y-114650000D03*
D13*
X145800000Y-109570000D03*
X139450000Y-112110000D03*
D14*
X79752500Y-38200000D03*
D15*
X87372500Y-38200000D03*
D11*
X30580000Y-76400000D03*
D12*
X35660000Y-76400000D03*
D11*
X40740000Y-76400000D03*
D13*
X38200000Y-71320000D03*
X31850000Y-73860000D03*
D12*
X176675000Y-57300000D03*
D11*
X181755000Y-57300000D03*
X171595000Y-57300000D03*
D13*
X179215000Y-52220000D03*
X172865000Y-54760000D03*
D11*
X252770000Y-57300000D03*
X262930000Y-57300000D03*
D12*
X257850000Y-57300000D03*
D13*
X260390000Y-52220000D03*
X254040000Y-54760000D03*
D14*
X201515000Y-42975000D03*
D15*
X209135000Y-42975000D03*
D14*
X86915000Y-28650000D03*
D15*
X94535000Y-28650000D03*
D11*
X71320000Y-95500000D03*
D12*
X76400000Y-95500000D03*
D11*
X81480000Y-95500000D03*
D13*
X78940000Y-90420000D03*
X72590000Y-92960000D03*
D14*
X196740000Y-33425000D03*
D15*
X204360000Y-33425000D03*
D11*
X119680000Y-95500000D03*
D12*
X114600000Y-95500000D03*
D11*
X109520000Y-95500000D03*
D13*
X117140000Y-90420000D03*
X110790000Y-92960000D03*
D12*
X38200000Y-57300000D03*
D11*
X33120000Y-57300000D03*
X43280000Y-57300000D03*
D13*
X40740000Y-52220000D03*
X34390000Y-54760000D03*
D12*
X81175000Y-57300000D03*
D11*
X86255000Y-57300000D03*
X76095000Y-57300000D03*
D13*
X83715000Y-52220000D03*
X77365000Y-54760000D03*
D14*
X127502500Y-38200000D03*
D15*
X135122500Y-38200000D03*
D14*
X187190000Y-38200000D03*
D15*
X194810000Y-38200000D03*
D14*
X158540000Y-28650000D03*
D15*
X166160000Y-28650000D03*
D12*
X57300000Y-114600000D03*
D11*
X52220000Y-114600000D03*
X62380000Y-114600000D03*
D13*
X59840000Y-109520000D03*
X53490000Y-112060000D03*
D11*
X267705000Y-35427000D03*
D12*
X262625000Y-35427000D03*
D11*
X257545000Y-35427000D03*
D13*
X265165000Y-30347000D03*
X258815000Y-32887000D03*
D17*
X228555400Y-35812500D03*
X239755400Y-35812500D03*
D18*
X236655400Y-28312500D03*
D19*
X231655400Y-28312500D03*
X234155400Y-28312500D03*
X231655400Y-42812500D03*
X236655400Y-42812500D03*
D12*
X214875000Y-57300000D03*
D11*
X219955000Y-57300000D03*
X209795000Y-57300000D03*
D13*
X217415000Y-52220000D03*
X211065000Y-54760000D03*
D14*
X94077500Y-42975000D03*
D15*
X101697500Y-42975000D03*
D14*
X148990000Y-33425000D03*
D15*
X156610000Y-33425000D03*
D14*
X160927500Y-33425000D03*
D15*
X168547500Y-33425000D03*
D11*
X195470000Y-76400000D03*
X205630000Y-76400000D03*
D12*
X200550000Y-76400000D03*
D13*
X203090000Y-71320000D03*
X196740000Y-73860000D03*
D12*
X181450000Y-76400000D03*
D11*
X176370000Y-76400000D03*
X186530000Y-76400000D03*
D13*
X183990000Y-71320000D03*
X177640000Y-73860000D03*
D11*
X229075400Y-35812500D03*
X239235400Y-35812500D03*
D12*
X234155400Y-35812500D03*
D13*
X236695400Y-30732500D03*
X230345400Y-33272500D03*
D14*
X194352500Y-28650000D03*
D15*
X201972500Y-28650000D03*
D14*
X117952500Y-42975000D03*
D15*
X125572500Y-42975000D03*
D14*
X163315000Y-38200000D03*
D15*
X170935000Y-38200000D03*
D12*
X124150000Y-76400000D03*
D11*
X129230000Y-76400000D03*
X119070000Y-76400000D03*
D13*
X126690000Y-71320000D03*
X120340000Y-73860000D03*
D11*
X80870000Y-76400000D03*
X91030000Y-76400000D03*
D12*
X85950000Y-76400000D03*
D13*
X88490000Y-71320000D03*
X82140000Y-73860000D03*
D14*
X199127500Y-38200000D03*
D15*
X206747500Y-38200000D03*
D17*
X257025000Y-35427000D03*
X268225000Y-35427000D03*
D18*
X265125000Y-27927000D03*
D19*
X260125000Y-27927000D03*
X262625000Y-27927000D03*
X260125000Y-42427000D03*
X265125000Y-42427000D03*
D11*
X105355000Y-57300000D03*
X95195000Y-57300000D03*
D12*
X100275000Y-57300000D03*
D13*
X102815000Y-52220000D03*
X96465000Y-54760000D03*
D14*
X98852500Y-28650000D03*
D15*
X106472500Y-28650000D03*
D11*
X138170000Y-76400000D03*
D12*
X143250000Y-76400000D03*
D11*
X148330000Y-76400000D03*
D13*
X145790000Y-71320000D03*
X139440000Y-73860000D03*
D11*
X265317500Y-114600000D03*
D12*
X260237500Y-114600000D03*
D11*
X255157500Y-114600000D03*
D13*
X262777500Y-109520000D03*
X256427500Y-112060000D03*
D14*
X110790000Y-28650000D03*
D15*
X118410000Y-28650000D03*
D11*
X162655000Y-57300000D03*
D12*
X157575000Y-57300000D03*
D11*
X152495000Y-57300000D03*
D13*
X160115000Y-52220000D03*
X153765000Y-54760000D03*
D14*
X137052500Y-33425000D03*
D15*
X144672500Y-33425000D03*
D11*
X167430000Y-76400000D03*
X157270000Y-76400000D03*
D12*
X162350000Y-76400000D03*
D13*
X164890000Y-71320000D03*
X158540000Y-73860000D03*
D11*
X200855000Y-57300000D03*
X190695000Y-57300000D03*
D12*
X195775000Y-57300000D03*
D13*
X198315000Y-52220000D03*
X191965000Y-54760000D03*
D11*
X30732500Y-114600000D03*
X40892500Y-114600000D03*
D12*
X35812500Y-114600000D03*
D13*
X38352500Y-109520000D03*
X32002500Y-112060000D03*
D12*
X229200000Y-95500000D03*
D11*
X224120000Y-95500000D03*
X234280000Y-95500000D03*
D13*
X231740000Y-90420000D03*
X225390000Y-92960000D03*
D12*
X145637500Y-114610000D03*
X195637500Y-106370000D03*
X95637500Y-106370000D03*
D16*
X95637500Y-121610000D03*
D11*
X150717500Y-114610000D03*
X140557500Y-114610000D03*
D16*
X195637500Y-121610000D03*
D13*
X148177500Y-109530000D03*
X141827500Y-112070000D03*
D14*
X153765000Y-42975000D03*
D15*
X161385000Y-42975000D03*
D14*
X65427500Y-33425000D03*
D15*
X73047500Y-33425000D03*
D14*
X177640000Y-42975000D03*
D15*
X185260000Y-42975000D03*
D11*
X224730000Y-76400000D03*
X214570000Y-76400000D03*
D12*
X219650000Y-76400000D03*
D13*
X222190000Y-71320000D03*
X215840000Y-73860000D03*
D20*
X212487500Y-40587500D03*
D21*
X212487500Y-38047500D03*
X212487500Y-35507500D03*
X212487500Y-32967500D03*
D11*
X233670000Y-114600000D03*
X243830000Y-114600000D03*
D12*
X238750000Y-114600000D03*
D13*
X241290000Y-109520000D03*
X234940000Y-112060000D03*
D12*
X78787500Y-114600000D03*
D11*
X83867500Y-114600000D03*
X73707500Y-114600000D03*
D13*
X81327500Y-109520000D03*
X74977500Y-112060000D03*
D14*
X184802500Y-33425000D03*
D15*
X192422500Y-33425000D03*
D11*
X81480000Y-114600000D03*
D12*
X76400000Y-114600000D03*
D11*
X71320000Y-114600000D03*
D13*
X78940000Y-109520000D03*
X72590000Y-112060000D03*
D11*
X205020000Y-95500000D03*
X215180000Y-95500000D03*
D12*
X210100000Y-95500000D03*
D13*
X212640000Y-90420000D03*
X206290000Y-92960000D03*
D12*
X100410000Y-106378000D03*
D11*
X107230000Y-114618000D03*
D12*
X124210000Y-106378000D03*
D16*
X100410000Y-121618000D03*
X124210000Y-121618000D03*
D12*
X112310000Y-114618000D03*
D11*
X117390000Y-114618000D03*
D13*
X114850000Y-109538000D03*
X108500000Y-112078000D03*
D14*
X70202500Y-42975000D03*
D15*
X77822500Y-42975000D03*
D14*
X129890000Y-42975000D03*
D15*
X137510000Y-42975000D03*
D11*
X56995000Y-57300000D03*
D12*
X62075000Y-57300000D03*
D11*
X67155000Y-57300000D03*
D13*
X64615000Y-52220000D03*
X58265000Y-54760000D03*
D14*
X74977500Y-28650000D03*
D15*
X82597500Y-28650000D03*
D14*
X113177500Y-33425000D03*
D15*
X120797500Y-33425000D03*
D14*
X82140000Y-42975000D03*
D15*
X89760000Y-42975000D03*
D12*
X255462500Y-95500000D03*
D11*
X250382500Y-95500000D03*
X260542500Y-95500000D03*
D13*
X258002500Y-90420000D03*
X251652500Y-92960000D03*
D11*
X147720000Y-95500000D03*
D12*
X152800000Y-95500000D03*
D11*
X157880000Y-95500000D03*
D13*
X155340000Y-90420000D03*
X148990000Y-92960000D03*
D14*
X170477500Y-28650000D03*
D15*
X178097500Y-28650000D03*
D14*
X141827500Y-42975000D03*
D15*
X149447500Y-42975000D03*
D14*
X151377500Y-38200000D03*
D15*
X158997500Y-38200000D03*
D14*
X91690000Y-38200000D03*
D15*
X99310000Y-38200000D03*
D12*
X35812500Y-95500000D03*
D11*
X40892500Y-95500000D03*
X30732500Y-95500000D03*
D13*
X38352500Y-90420000D03*
X32002500Y-92960000D03*
D14*
X139440000Y-38200000D03*
D15*
X147060000Y-38200000D03*
D11*
X228895000Y-57300000D03*
D12*
X233975000Y-57300000D03*
D11*
X239055000Y-57300000D03*
D13*
X236515000Y-52220000D03*
X230165000Y-54760000D03*
D14*
X89302500Y-33425000D03*
D15*
X96922500Y-33425000D03*
D14*
X182415000Y-28650000D03*
D15*
X190035000Y-28650000D03*
D12*
X66850000Y-76400000D03*
D11*
X71930000Y-76400000D03*
X61770000Y-76400000D03*
D13*
X69390000Y-71320000D03*
X63040000Y-73860000D03*
D14*
X122727500Y-28650000D03*
D15*
X130347500Y-28650000D03*
D14*
X146602500Y-28650000D03*
D15*
X154222500Y-28650000D03*
D14*
X175252500Y-38200000D03*
D15*
X182872500Y-38200000D03*
D14*
X189577500Y-42975000D03*
D15*
X197197500Y-42975000D03*
D11*
X35507500Y-76400000D03*
X45667500Y-76400000D03*
D12*
X40587500Y-76400000D03*
D13*
X43127500Y-71320000D03*
X36777500Y-73860000D03*
D11*
X243830000Y-76400000D03*
D12*
X238750000Y-76400000D03*
D11*
X233670000Y-76400000D03*
D13*
X241290000Y-71320000D03*
X234940000Y-73860000D03*
D22*
X29005000Y-27963900D03*
D23*
X31545000Y-28421100D03*
X34085000Y-27963900D03*
X36625000Y-28421100D03*
X39165000Y-27963900D03*
X41705000Y-28421100D03*
X44245000Y-27963900D03*
X46785000Y-28421100D03*
X49325000Y-27963900D03*
X51865000Y-28421100D03*
X54405000Y-27963900D03*
X56945000Y-28421100D03*
X56945000Y-43203900D03*
X54405000Y-43661100D03*
X51865000Y-43203900D03*
X49325000Y-43661100D03*
X46785000Y-43203900D03*
X44245000Y-43661100D03*
X41705000Y-43203900D03*
X39165000Y-43661100D03*
X36625000Y-43203900D03*
X34085000Y-43661100D03*
X31545000Y-43203900D03*
X29005000Y-43661100D03*
M02*
