%FSLAX45Y45*%
G04 Gerber Fmt 4.5, Leading zero omitted, Abs format (unit mm)*
G04 Created by KiCad (PCBNEW (6.0.0-0)) date 2023-04-30 11:45:08*
%MOMM*%
%LPD*%
G01*
G04 APERTURE LIST*
%TA.AperFunction,Profile*%
%ADD10C,0.100000*%
%TD*%
%ADD11C,0.200000*%
%ADD12C,0.150000*%
%ADD13C,0.170000*%
%ADD14C,0.305000*%
%ADD15C,0.400000*%
G04 APERTURE END LIST*
D10*
X2865000Y-2437500D02*
G75*
G03*
X2387500Y-2915000I0J-477500D01*
G01*
X27217500Y-2915000D02*
G75*
G03*
X26740000Y-2437500I-477500J0D01*
G01*
X26740000Y-2437500D02*
X2865000Y-2437500D01*
X2387500Y-3103750D02*
X2387500Y-12415000D01*
X27217500Y-2915000D02*
X27217500Y-12415000D01*
X27217500Y-12415000D02*
X2387500Y-12415000D01*
X2387500Y-3103750D02*
X2387500Y-2915000D01*
D11*
D12*
X22780540Y-3506250D02*
X22930540Y-3656250D01*
X22930540Y-3506250D02*
X22780540Y-3656250D01*
D11*
X22790540Y-3516250D02*
X22790540Y-3646250D01*
X22920540Y-3516250D02*
X22920540Y-3646250D01*
X22790540Y-3646250D02*
G75*
G03*
X22920540Y-3646250I65000J0D01*
G01*
X22920540Y-3516250D02*
G75*
G03*
X22790540Y-3516250I-65000J0D01*
G01*
D12*
X23900540Y-3506250D02*
X24050540Y-3656250D01*
X24050540Y-3506250D02*
X23900540Y-3656250D01*
D11*
X23910540Y-3516250D02*
X23910540Y-3646250D01*
X24040540Y-3516250D02*
X24040540Y-3646250D01*
X23910540Y-3646250D02*
G75*
G03*
X24040540Y-3646250I65000J0D01*
G01*
X24040540Y-3516250D02*
G75*
G03*
X23910540Y-3516250I-65000J0D01*
G01*
D12*
X25627500Y-3467700D02*
X25777500Y-3617700D01*
X25777500Y-3467700D02*
X25627500Y-3617700D01*
D11*
X25637500Y-3477700D02*
X25637500Y-3607700D01*
X25767500Y-3477700D02*
X25767500Y-3607700D01*
X25637500Y-3607700D02*
G75*
G03*
X25767500Y-3607700I65000J0D01*
G01*
X25767500Y-3477700D02*
G75*
G03*
X25637500Y-3477700I-65000J0D01*
G01*
D12*
X26747500Y-3467700D02*
X26897500Y-3617700D01*
X26897500Y-3467700D02*
X26747500Y-3617700D01*
D11*
X26757500Y-3477700D02*
X26757500Y-3607700D01*
X26887500Y-3477700D02*
X26887500Y-3607700D01*
X26757500Y-3607700D02*
G75*
G03*
X26887500Y-3607700I65000J0D01*
G01*
X26887500Y-3477700D02*
G75*
G03*
X26757500Y-3477700I-65000J0D01*
G01*
D13*
X3143000Y-7640000D02*
G75*
G03*
X3143000Y-7640000I-85000J0D01*
G01*
X3158250Y-9550000D02*
G75*
G03*
X3158250Y-9550000I-85000J0D01*
G01*
X3158250Y-11460000D02*
G75*
G03*
X3158250Y-11460000I-85000J0D01*
G01*
X3397000Y-5730000D02*
G75*
G03*
X3397000Y-5730000I-85000J0D01*
G01*
X3635750Y-7640000D02*
G75*
G03*
X3635750Y-7640000I-85000J0D01*
G01*
X4113250Y-9548000D02*
G75*
G03*
X4113250Y-9548000I-85000J0D01*
G01*
X4159000Y-7640000D02*
G75*
G03*
X4159000Y-7640000I-85000J0D01*
G01*
X4174250Y-9550000D02*
G75*
G03*
X4174250Y-9550000I-85000J0D01*
G01*
X4174250Y-11460000D02*
G75*
G03*
X4174250Y-11460000I-85000J0D01*
G01*
X4413000Y-5730000D02*
G75*
G03*
X4413000Y-5730000I-85000J0D01*
G01*
X4651750Y-7640000D02*
G75*
G03*
X4651750Y-7640000I-85000J0D01*
G01*
X5129250Y-9548000D02*
G75*
G03*
X5129250Y-9548000I-85000J0D01*
G01*
X5307000Y-9550000D02*
G75*
G03*
X5307000Y-9550000I-85000J0D01*
G01*
X5307000Y-11460000D02*
G75*
G03*
X5307000Y-11460000I-85000J0D01*
G01*
X5784500Y-5730000D02*
G75*
G03*
X5784500Y-5730000I-85000J0D01*
G01*
X6262000Y-7640000D02*
G75*
G03*
X6262000Y-7640000I-85000J0D01*
G01*
X6323000Y-9550000D02*
G75*
G03*
X6323000Y-9550000I-85000J0D01*
G01*
X6323000Y-11460000D02*
G75*
G03*
X6323000Y-11460000I-85000J0D01*
G01*
X6800500Y-5730000D02*
G75*
G03*
X6800500Y-5730000I-85000J0D01*
G01*
X7217000Y-9550000D02*
G75*
G03*
X7217000Y-9550000I-85000J0D01*
G01*
X7217000Y-11460000D02*
G75*
G03*
X7217000Y-11460000I-85000J0D01*
G01*
X7278000Y-7640000D02*
G75*
G03*
X7278000Y-7640000I-85000J0D01*
G01*
X7455750Y-11460000D02*
G75*
G03*
X7455750Y-11460000I-85000J0D01*
G01*
X7694500Y-5730000D02*
G75*
G03*
X7694500Y-5730000I-85000J0D01*
G01*
X8172000Y-7640000D02*
G75*
G03*
X8172000Y-7640000I-85000J0D01*
G01*
X8233000Y-9550000D02*
G75*
G03*
X8233000Y-9550000I-85000J0D01*
G01*
X8233000Y-11460000D02*
G75*
G03*
X8233000Y-11460000I-85000J0D01*
G01*
X8471750Y-11460000D02*
G75*
G03*
X8471750Y-11460000I-85000J0D01*
G01*
X8710500Y-5730000D02*
G75*
G03*
X8710500Y-5730000I-85000J0D01*
G01*
X9127000Y-9550000D02*
G75*
G03*
X9127000Y-9550000I-85000J0D01*
G01*
X9188000Y-7640000D02*
G75*
G03*
X9188000Y-7640000I-85000J0D01*
G01*
X9604500Y-5730000D02*
G75*
G03*
X9604500Y-5730000I-85000J0D01*
G01*
X10082000Y-7640000D02*
G75*
G03*
X10082000Y-7640000I-85000J0D01*
G01*
X10143000Y-9550000D02*
G75*
G03*
X10143000Y-9550000I-85000J0D01*
G01*
X10620500Y-5730000D02*
G75*
G03*
X10620500Y-5730000I-85000J0D01*
G01*
X10808000Y-11461800D02*
G75*
G03*
X10808000Y-11461800I-85000J0D01*
G01*
X11037000Y-9550000D02*
G75*
G03*
X11037000Y-9550000I-85000J0D01*
G01*
X11098000Y-7640000D02*
G75*
G03*
X11098000Y-7640000I-85000J0D01*
G01*
X11514500Y-5730000D02*
G75*
G03*
X11514500Y-5730000I-85000J0D01*
G01*
X11824000Y-11461800D02*
G75*
G03*
X11824000Y-11461800I-85000J0D01*
G01*
X11992000Y-7640000D02*
G75*
G03*
X11992000Y-7640000I-85000J0D01*
G01*
X12053000Y-9550000D02*
G75*
G03*
X12053000Y-9550000I-85000J0D01*
G01*
X12530500Y-5730000D02*
G75*
G03*
X12530500Y-5730000I-85000J0D01*
G01*
X12947000Y-9550000D02*
G75*
G03*
X12947000Y-9550000I-85000J0D01*
G01*
X13008000Y-7640000D02*
G75*
G03*
X13008000Y-7640000I-85000J0D01*
G01*
X13424500Y-5730000D02*
G75*
G03*
X13424500Y-5730000I-85000J0D01*
G01*
X13902000Y-7640000D02*
G75*
G03*
X13902000Y-7640000I-85000J0D01*
G01*
X13903000Y-11465000D02*
G75*
G03*
X13903000Y-11465000I-85000J0D01*
G01*
X13963000Y-9550000D02*
G75*
G03*
X13963000Y-9550000I-85000J0D01*
G01*
X14140750Y-11461000D02*
G75*
G03*
X14140750Y-11461000I-85000J0D01*
G01*
X14440500Y-5730000D02*
G75*
G03*
X14440500Y-5730000I-85000J0D01*
G01*
X14857000Y-9550000D02*
G75*
G03*
X14857000Y-9550000I-85000J0D01*
G01*
X14918000Y-7640000D02*
G75*
G03*
X14918000Y-7640000I-85000J0D01*
G01*
X14919000Y-11465000D02*
G75*
G03*
X14919000Y-11465000I-85000J0D01*
G01*
X15156750Y-11461000D02*
G75*
G03*
X15156750Y-11461000I-85000J0D01*
G01*
X15334500Y-5730000D02*
G75*
G03*
X15334500Y-5730000I-85000J0D01*
G01*
X15812000Y-7640000D02*
G75*
G03*
X15812000Y-7640000I-85000J0D01*
G01*
X15873000Y-9550000D02*
G75*
G03*
X15873000Y-9550000I-85000J0D01*
G01*
X16350500Y-5730000D02*
G75*
G03*
X16350500Y-5730000I-85000J0D01*
G01*
X16767000Y-9550000D02*
G75*
G03*
X16767000Y-9550000I-85000J0D01*
G01*
X16828000Y-7640000D02*
G75*
G03*
X16828000Y-7640000I-85000J0D01*
G01*
X17244500Y-5730000D02*
G75*
G03*
X17244500Y-5730000I-85000J0D01*
G01*
X17475000Y-11459000D02*
G75*
G03*
X17475000Y-11459000I-85000J0D01*
G01*
X17722000Y-7640000D02*
G75*
G03*
X17722000Y-7640000I-85000J0D01*
G01*
X17783000Y-9550000D02*
G75*
G03*
X17783000Y-9550000I-85000J0D01*
G01*
X18260500Y-5730000D02*
G75*
G03*
X18260500Y-5730000I-85000J0D01*
G01*
X18491000Y-11459000D02*
G75*
G03*
X18491000Y-11459000I-85000J0D01*
G01*
X18677000Y-9550000D02*
G75*
G03*
X18677000Y-9550000I-85000J0D01*
G01*
X18738000Y-7640000D02*
G75*
G03*
X18738000Y-7640000I-85000J0D01*
G01*
X19154500Y-5730000D02*
G75*
G03*
X19154500Y-5730000I-85000J0D01*
G01*
X19632000Y-7640000D02*
G75*
G03*
X19632000Y-7640000I-85000J0D01*
G01*
X19693000Y-9550000D02*
G75*
G03*
X19693000Y-9550000I-85000J0D01*
G01*
X20170500Y-5730000D02*
G75*
G03*
X20170500Y-5730000I-85000J0D01*
G01*
X20587000Y-9550000D02*
G75*
G03*
X20587000Y-9550000I-85000J0D01*
G01*
X20648000Y-7640000D02*
G75*
G03*
X20648000Y-7640000I-85000J0D01*
G01*
X21064500Y-5730000D02*
G75*
G03*
X21064500Y-5730000I-85000J0D01*
G01*
X21303250Y-11460000D02*
G75*
G03*
X21303250Y-11460000I-85000J0D01*
G01*
X21542000Y-7640000D02*
G75*
G03*
X21542000Y-7640000I-85000J0D01*
G01*
X21603000Y-9550000D02*
G75*
G03*
X21603000Y-9550000I-85000J0D01*
G01*
X22080500Y-5730000D02*
G75*
G03*
X22080500Y-5730000I-85000J0D01*
G01*
X22319250Y-11460000D02*
G75*
G03*
X22319250Y-11460000I-85000J0D01*
G01*
X22497000Y-9550000D02*
G75*
G03*
X22497000Y-9550000I-85000J0D01*
G01*
X22558000Y-7640000D02*
G75*
G03*
X22558000Y-7640000I-85000J0D01*
G01*
X22974500Y-5730000D02*
G75*
G03*
X22974500Y-5730000I-85000J0D01*
G01*
X22992540Y-3581250D02*
G75*
G03*
X22992540Y-3581250I-85000J0D01*
G01*
X23452000Y-7640000D02*
G75*
G03*
X23452000Y-7640000I-85000J0D01*
G01*
X23452000Y-11460000D02*
G75*
G03*
X23452000Y-11460000I-85000J0D01*
G01*
X23513000Y-9550000D02*
G75*
G03*
X23513000Y-9550000I-85000J0D01*
G01*
X23990500Y-5730000D02*
G75*
G03*
X23990500Y-5730000I-85000J0D01*
G01*
X24008540Y-3581250D02*
G75*
G03*
X24008540Y-3581250I-85000J0D01*
G01*
X24468000Y-7640000D02*
G75*
G03*
X24468000Y-7640000I-85000J0D01*
G01*
X24468000Y-11460000D02*
G75*
G03*
X24468000Y-11460000I-85000J0D01*
G01*
X24645750Y-7640000D02*
G75*
G03*
X24645750Y-7640000I-85000J0D01*
G01*
X25123250Y-9550000D02*
G75*
G03*
X25123250Y-9550000I-85000J0D01*
G01*
X25362000Y-5730000D02*
G75*
G03*
X25362000Y-5730000I-85000J0D01*
G01*
X25600750Y-7640000D02*
G75*
G03*
X25600750Y-7640000I-85000J0D01*
G01*
X25600750Y-11460000D02*
G75*
G03*
X25600750Y-11460000I-85000J0D01*
G01*
X25661750Y-7640000D02*
G75*
G03*
X25661750Y-7640000I-85000J0D01*
G01*
X25839500Y-3542700D02*
G75*
G03*
X25839500Y-3542700I-85000J0D01*
G01*
X26139250Y-9550000D02*
G75*
G03*
X26139250Y-9550000I-85000J0D01*
G01*
X26378000Y-5730000D02*
G75*
G03*
X26378000Y-5730000I-85000J0D01*
G01*
X26616750Y-7640000D02*
G75*
G03*
X26616750Y-7640000I-85000J0D01*
G01*
X26616750Y-11460000D02*
G75*
G03*
X26616750Y-11460000I-85000J0D01*
G01*
X26855500Y-3542700D02*
G75*
G03*
X26855500Y-3542700I-85000J0D01*
G01*
D14*
X3346250Y-8695500D02*
X3346250Y-9000500D01*
X3193750Y-8848000D02*
X3498750Y-8848000D01*
X5726250Y-8695500D02*
X5726250Y-9000500D01*
X5573750Y-8848000D02*
X5878750Y-8848000D01*
X9563750Y-12008500D02*
X9563750Y-12313500D01*
X9411250Y-12161000D02*
X9716250Y-12161000D01*
X10041000Y-12009300D02*
X10041000Y-12314300D01*
X9888500Y-12161800D02*
X10193500Y-12161800D01*
X12421000Y-12009300D02*
X12421000Y-12314300D01*
X12268500Y-12161800D02*
X12573500Y-12161800D01*
X16708000Y-12006500D02*
X16708000Y-12311500D01*
X16555500Y-12159000D02*
X16860500Y-12159000D01*
X19088000Y-12006500D02*
X19088000Y-12311500D01*
X18935500Y-12159000D02*
X19240500Y-12159000D01*
X19563750Y-12008500D02*
X19563750Y-12313500D01*
X19411250Y-12161000D02*
X19716250Y-12161000D01*
X23878750Y-6787500D02*
X23878750Y-7092500D01*
X23726250Y-6940000D02*
X24031250Y-6940000D01*
X26258750Y-6787500D02*
X26258750Y-7092500D01*
X26106250Y-6940000D02*
X26411250Y-6940000D01*
D15*
X3487673Y-10513423D02*
X3487673Y-10230577D01*
X3204827Y-10230577D01*
X3204827Y-10513423D01*
X3487673Y-10513423D01*
X3707423Y-7781423D02*
X3707423Y-7498577D01*
X3424577Y-7498577D01*
X3424577Y-7781423D01*
X3707423Y-7781423D01*
X3722673Y-9691423D02*
X3722673Y-9408577D01*
X3439827Y-9408577D01*
X3439827Y-9691423D01*
X3722673Y-9691423D01*
X3722673Y-11601423D02*
X3722673Y-11318577D01*
X3439827Y-11318577D01*
X3439827Y-11601423D01*
X3722673Y-11601423D01*
X3961423Y-5871423D02*
X3961423Y-5588577D01*
X3678577Y-5588577D01*
X3678577Y-5871423D01*
X3961423Y-5871423D01*
X4200173Y-7781423D02*
X4200173Y-7498577D01*
X3917327Y-7498577D01*
X3917327Y-7781423D01*
X4200173Y-7781423D01*
X4677673Y-9689423D02*
X4677673Y-9406577D01*
X4394827Y-9406577D01*
X4394827Y-9689423D01*
X4677673Y-9689423D01*
X5867673Y-10513423D02*
X5867673Y-10230577D01*
X5584827Y-10230577D01*
X5584827Y-10513423D01*
X5867673Y-10513423D01*
X5871423Y-9691423D02*
X5871423Y-9408577D01*
X5588577Y-9408577D01*
X5588577Y-9691423D01*
X5871423Y-9691423D01*
X5871423Y-11601423D02*
X5871423Y-11318577D01*
X5588577Y-11318577D01*
X5588577Y-11601423D01*
X5871423Y-11601423D01*
X6348923Y-5871423D02*
X6348923Y-5588577D01*
X6066077Y-5588577D01*
X6066077Y-5871423D01*
X6348923Y-5871423D01*
X6826423Y-7781423D02*
X6826423Y-7498577D01*
X6543577Y-7498577D01*
X6543577Y-7781423D01*
X6826423Y-7781423D01*
X7781423Y-9691423D02*
X7781423Y-9408577D01*
X7498577Y-9408577D01*
X7498577Y-9691423D01*
X7781423Y-9691423D01*
X7781423Y-11601423D02*
X7781423Y-11318577D01*
X7498577Y-11318577D01*
X7498577Y-11601423D01*
X7781423Y-11601423D01*
X8020173Y-11601423D02*
X8020173Y-11318577D01*
X7737327Y-11318577D01*
X7737327Y-11601423D01*
X8020173Y-11601423D01*
X8258923Y-5871423D02*
X8258923Y-5588577D01*
X7976077Y-5588577D01*
X7976077Y-5871423D01*
X8258923Y-5871423D01*
X8736423Y-7781423D02*
X8736423Y-7498577D01*
X8453577Y-7498577D01*
X8453577Y-7781423D01*
X8736423Y-7781423D01*
X9691423Y-9691423D02*
X9691423Y-9408577D01*
X9408577Y-9408577D01*
X9408577Y-9691423D01*
X9691423Y-9691423D01*
X9705173Y-10778423D02*
X9705173Y-10495577D01*
X9422327Y-10495577D01*
X9422327Y-10778423D01*
X9705173Y-10778423D01*
X10168923Y-5871423D02*
X10168923Y-5588577D01*
X9886077Y-5588577D01*
X9886077Y-5871423D01*
X10168923Y-5871423D01*
X10182423Y-10779223D02*
X10182423Y-10496377D01*
X9899577Y-10496377D01*
X9899577Y-10779223D01*
X10182423Y-10779223D01*
X10646423Y-7781423D02*
X10646423Y-7498577D01*
X10363577Y-7498577D01*
X10363577Y-7781423D01*
X10646423Y-7781423D01*
X11372423Y-11603223D02*
X11372423Y-11320377D01*
X11089577Y-11320377D01*
X11089577Y-11603223D01*
X11372423Y-11603223D01*
X11601423Y-9691423D02*
X11601423Y-9408577D01*
X11318577Y-9408577D01*
X11318577Y-9691423D01*
X11601423Y-9691423D01*
X12078923Y-5871423D02*
X12078923Y-5588577D01*
X11796077Y-5588577D01*
X11796077Y-5871423D01*
X12078923Y-5871423D01*
X12556423Y-7781423D02*
X12556423Y-7498577D01*
X12273577Y-7498577D01*
X12273577Y-7781423D01*
X12556423Y-7781423D01*
X12562423Y-10779223D02*
X12562423Y-10496377D01*
X12279577Y-10496377D01*
X12279577Y-10779223D01*
X12562423Y-10779223D01*
X13511423Y-9691423D02*
X13511423Y-9408577D01*
X13228577Y-9408577D01*
X13228577Y-9691423D01*
X13511423Y-9691423D01*
X13988923Y-5871423D02*
X13988923Y-5588577D01*
X13706077Y-5588577D01*
X13706077Y-5871423D01*
X13988923Y-5871423D01*
X14466423Y-7781423D02*
X14466423Y-7498577D01*
X14183577Y-7498577D01*
X14183577Y-7781423D01*
X14466423Y-7781423D01*
X14467423Y-11606423D02*
X14467423Y-11323577D01*
X14184577Y-11323577D01*
X14184577Y-11606423D01*
X14467423Y-11606423D01*
X14705173Y-11602423D02*
X14705173Y-11319577D01*
X14422327Y-11319577D01*
X14422327Y-11602423D01*
X14705173Y-11602423D01*
X15421423Y-9691423D02*
X15421423Y-9408577D01*
X15138577Y-9408577D01*
X15138577Y-9691423D01*
X15421423Y-9691423D01*
X15898923Y-5871423D02*
X15898923Y-5588577D01*
X15616077Y-5588577D01*
X15616077Y-5871423D01*
X15898923Y-5871423D01*
X16376423Y-7781423D02*
X16376423Y-7498577D01*
X16093577Y-7498577D01*
X16093577Y-7781423D01*
X16376423Y-7781423D01*
X16849423Y-10776423D02*
X16849423Y-10493577D01*
X16566577Y-10493577D01*
X16566577Y-10776423D01*
X16849423Y-10776423D01*
X17331423Y-9691423D02*
X17331423Y-9408577D01*
X17048577Y-9408577D01*
X17048577Y-9691423D01*
X17331423Y-9691423D01*
X17808923Y-5871423D02*
X17808923Y-5588577D01*
X17526077Y-5588577D01*
X17526077Y-5871423D01*
X17808923Y-5871423D01*
X18039423Y-11600423D02*
X18039423Y-11317577D01*
X17756577Y-11317577D01*
X17756577Y-11600423D01*
X18039423Y-11600423D01*
X18286423Y-7781423D02*
X18286423Y-7498577D01*
X18003577Y-7498577D01*
X18003577Y-7781423D01*
X18286423Y-7781423D01*
X19229423Y-10776423D02*
X19229423Y-10493577D01*
X18946577Y-10493577D01*
X18946577Y-10776423D01*
X19229423Y-10776423D01*
X19241423Y-9691423D02*
X19241423Y-9408577D01*
X18958577Y-9408577D01*
X18958577Y-9691423D01*
X19241423Y-9691423D01*
X19705173Y-10778423D02*
X19705173Y-10495577D01*
X19422327Y-10495577D01*
X19422327Y-10778423D01*
X19705173Y-10778423D01*
X19718923Y-5871423D02*
X19718923Y-5588577D01*
X19436077Y-5588577D01*
X19436077Y-5871423D01*
X19718923Y-5871423D01*
X20196423Y-7781423D02*
X20196423Y-7498577D01*
X19913577Y-7498577D01*
X19913577Y-7781423D01*
X20196423Y-7781423D01*
X21151423Y-9691423D02*
X21151423Y-9408577D01*
X20868577Y-9408577D01*
X20868577Y-9691423D01*
X21151423Y-9691423D01*
X21628923Y-5871423D02*
X21628923Y-5588577D01*
X21346077Y-5588577D01*
X21346077Y-5871423D01*
X21628923Y-5871423D01*
X21867673Y-11601423D02*
X21867673Y-11318577D01*
X21584827Y-11318577D01*
X21584827Y-11601423D01*
X21867673Y-11601423D01*
X22106423Y-7781423D02*
X22106423Y-7498577D01*
X21823577Y-7498577D01*
X21823577Y-7781423D01*
X22106423Y-7781423D01*
X23061423Y-9691423D02*
X23061423Y-9408577D01*
X22778577Y-9408577D01*
X22778577Y-9691423D01*
X23061423Y-9691423D01*
X23538923Y-5871423D02*
X23538923Y-5588577D01*
X23256077Y-5588577D01*
X23256077Y-5871423D01*
X23538923Y-5871423D01*
X23556963Y-3722673D02*
X23556963Y-3439827D01*
X23274117Y-3439827D01*
X23274117Y-3722673D01*
X23556963Y-3722673D01*
X24016423Y-7781423D02*
X24016423Y-7498577D01*
X23733577Y-7498577D01*
X23733577Y-7781423D01*
X24016423Y-7781423D01*
X24016423Y-11601423D02*
X24016423Y-11318577D01*
X23733577Y-11318577D01*
X23733577Y-11601423D01*
X24016423Y-11601423D01*
X24020173Y-8605423D02*
X24020173Y-8322577D01*
X23737327Y-8322577D01*
X23737327Y-8605423D01*
X24020173Y-8605423D01*
X25210173Y-7781423D02*
X25210173Y-7498577D01*
X24927327Y-7498577D01*
X24927327Y-7781423D01*
X25210173Y-7781423D01*
X25687673Y-9691423D02*
X25687673Y-9408577D01*
X25404827Y-9408577D01*
X25404827Y-9691423D01*
X25687673Y-9691423D01*
X25926423Y-5871423D02*
X25926423Y-5588577D01*
X25643577Y-5588577D01*
X25643577Y-5871423D01*
X25926423Y-5871423D01*
X26165173Y-7781423D02*
X26165173Y-7498577D01*
X25882327Y-7498577D01*
X25882327Y-7781423D01*
X26165173Y-7781423D01*
X26165173Y-11601423D02*
X26165173Y-11318577D01*
X25882327Y-11318577D01*
X25882327Y-11601423D01*
X26165173Y-11601423D01*
X26400173Y-8605423D02*
X26400173Y-8322577D01*
X26117327Y-8322577D01*
X26117327Y-8605423D01*
X26400173Y-8605423D01*
X26403923Y-3684123D02*
X26403923Y-3401277D01*
X26121077Y-3401277D01*
X26121077Y-3684123D01*
X26403923Y-3684123D01*
D11*
X2640119Y-12730476D02*
X2640119Y-12530476D01*
X2687738Y-12530476D01*
X2716310Y-12540000D01*
X2735357Y-12559048D01*
X2744881Y-12578095D01*
X2754405Y-12616190D01*
X2754405Y-12644762D01*
X2744881Y-12682857D01*
X2735357Y-12701905D01*
X2716310Y-12720952D01*
X2687738Y-12730476D01*
X2640119Y-12730476D01*
X2840119Y-12730476D02*
X2840119Y-12597143D01*
X2840119Y-12635238D02*
X2849643Y-12616190D01*
X2859167Y-12606667D01*
X2878214Y-12597143D01*
X2897262Y-12597143D01*
X2963928Y-12730476D02*
X2963928Y-12597143D01*
X2963928Y-12530476D02*
X2954405Y-12540000D01*
X2963928Y-12549524D01*
X2973452Y-12540000D01*
X2963928Y-12530476D01*
X2963928Y-12549524D01*
X3087738Y-12730476D02*
X3068690Y-12720952D01*
X3059167Y-12701905D01*
X3059167Y-12530476D01*
X3192500Y-12730476D02*
X3173452Y-12720952D01*
X3163928Y-12701905D01*
X3163928Y-12530476D01*
X3421071Y-12730476D02*
X3421071Y-12530476D01*
X3487738Y-12673333D01*
X3554405Y-12530476D01*
X3554405Y-12730476D01*
X3735357Y-12730476D02*
X3735357Y-12625714D01*
X3725833Y-12606667D01*
X3706786Y-12597143D01*
X3668690Y-12597143D01*
X3649643Y-12606667D01*
X3735357Y-12720952D02*
X3716309Y-12730476D01*
X3668690Y-12730476D01*
X3649643Y-12720952D01*
X3640119Y-12701905D01*
X3640119Y-12682857D01*
X3649643Y-12663809D01*
X3668690Y-12654286D01*
X3716309Y-12654286D01*
X3735357Y-12644762D01*
X3830595Y-12597143D02*
X3830595Y-12797143D01*
X3830595Y-12606667D02*
X3849643Y-12597143D01*
X3887738Y-12597143D01*
X3906786Y-12606667D01*
X3916309Y-12616190D01*
X3925833Y-12635238D01*
X3925833Y-12692381D01*
X3916309Y-12711428D01*
X3906786Y-12720952D01*
X3887738Y-12730476D01*
X3849643Y-12730476D01*
X3830595Y-12720952D01*
X4011548Y-12711428D02*
X4021071Y-12720952D01*
X4011548Y-12730476D01*
X4002024Y-12720952D01*
X4011548Y-12711428D01*
X4011548Y-12730476D01*
X4011548Y-12606667D02*
X4021071Y-12616190D01*
X4011548Y-12625714D01*
X4002024Y-12616190D01*
X4011548Y-12606667D01*
X4011548Y-12625714D01*
D12*
X2232500Y-12985000D02*
X2382500Y-13135000D01*
X2382500Y-12985000D02*
X2232500Y-13135000D01*
D11*
X2744881Y-13150476D02*
X2630595Y-13150476D01*
X2687738Y-13150476D02*
X2687738Y-12950476D01*
X2668690Y-12979048D01*
X2649643Y-12998095D01*
X2630595Y-13007619D01*
X2830595Y-13131428D02*
X2840119Y-13140952D01*
X2830595Y-13150476D01*
X2821071Y-13140952D01*
X2830595Y-13131428D01*
X2830595Y-13150476D01*
X3021071Y-12950476D02*
X2925833Y-12950476D01*
X2916309Y-13045714D01*
X2925833Y-13036190D01*
X2944881Y-13026667D01*
X2992500Y-13026667D01*
X3011548Y-13036190D01*
X3021071Y-13045714D01*
X3030595Y-13064762D01*
X3030595Y-13112381D01*
X3021071Y-13131428D01*
X3011548Y-13140952D01*
X2992500Y-13150476D01*
X2944881Y-13150476D01*
X2925833Y-13140952D01*
X2916309Y-13131428D01*
X3154405Y-12950476D02*
X3173452Y-12950476D01*
X3192500Y-12960000D01*
X3202024Y-12969524D01*
X3211548Y-12988571D01*
X3221071Y-13026667D01*
X3221071Y-13074286D01*
X3211548Y-13112381D01*
X3202024Y-13131428D01*
X3192500Y-13140952D01*
X3173452Y-13150476D01*
X3154405Y-13150476D01*
X3135357Y-13140952D01*
X3125833Y-13131428D01*
X3116309Y-13112381D01*
X3106786Y-13074286D01*
X3106786Y-13026667D01*
X3116309Y-12988571D01*
X3125833Y-12969524D01*
X3135357Y-12960000D01*
X3154405Y-12950476D01*
X3344881Y-12950476D02*
X3363928Y-12950476D01*
X3382976Y-12960000D01*
X3392500Y-12969524D01*
X3402024Y-12988571D01*
X3411548Y-13026667D01*
X3411548Y-13074286D01*
X3402024Y-13112381D01*
X3392500Y-13131428D01*
X3382976Y-13140952D01*
X3363928Y-13150476D01*
X3344881Y-13150476D01*
X3325833Y-13140952D01*
X3316309Y-13131428D01*
X3306786Y-13112381D01*
X3297262Y-13074286D01*
X3297262Y-13026667D01*
X3306786Y-12988571D01*
X3316309Y-12969524D01*
X3325833Y-12960000D01*
X3344881Y-12950476D01*
X3497262Y-13150476D02*
X3497262Y-13017143D01*
X3497262Y-13036190D02*
X3506786Y-13026667D01*
X3525833Y-13017143D01*
X3554405Y-13017143D01*
X3573452Y-13026667D01*
X3582976Y-13045714D01*
X3582976Y-13150476D01*
X3582976Y-13045714D02*
X3592500Y-13026667D01*
X3611548Y-13017143D01*
X3640119Y-13017143D01*
X3659167Y-13026667D01*
X3668690Y-13045714D01*
X3668690Y-13150476D01*
X3763928Y-13150476D02*
X3763928Y-13017143D01*
X3763928Y-13036190D02*
X3773452Y-13026667D01*
X3792500Y-13017143D01*
X3821071Y-13017143D01*
X3840119Y-13026667D01*
X3849643Y-13045714D01*
X3849643Y-13150476D01*
X3849643Y-13045714D02*
X3859167Y-13026667D01*
X3878214Y-13017143D01*
X3906786Y-13017143D01*
X3925833Y-13026667D01*
X3935357Y-13045714D01*
X3935357Y-13150476D01*
X4325833Y-12940952D02*
X4154405Y-13198095D01*
X4582976Y-12950476D02*
X4602024Y-12950476D01*
X4621071Y-12960000D01*
X4630595Y-12969524D01*
X4640119Y-12988571D01*
X4649643Y-13026667D01*
X4649643Y-13074286D01*
X4640119Y-13112381D01*
X4630595Y-13131428D01*
X4621071Y-13140952D01*
X4602024Y-13150476D01*
X4582976Y-13150476D01*
X4563929Y-13140952D01*
X4554405Y-13131428D01*
X4544881Y-13112381D01*
X4535357Y-13074286D01*
X4535357Y-13026667D01*
X4544881Y-12988571D01*
X4554405Y-12969524D01*
X4563929Y-12960000D01*
X4582976Y-12950476D01*
X4735357Y-13131428D02*
X4744881Y-13140952D01*
X4735357Y-13150476D01*
X4725833Y-13140952D01*
X4735357Y-13131428D01*
X4735357Y-13150476D01*
X4868690Y-12950476D02*
X4887738Y-12950476D01*
X4906786Y-12960000D01*
X4916310Y-12969524D01*
X4925833Y-12988571D01*
X4935357Y-13026667D01*
X4935357Y-13074286D01*
X4925833Y-13112381D01*
X4916310Y-13131428D01*
X4906786Y-13140952D01*
X4887738Y-13150476D01*
X4868690Y-13150476D01*
X4849643Y-13140952D01*
X4840119Y-13131428D01*
X4830595Y-13112381D01*
X4821071Y-13074286D01*
X4821071Y-13026667D01*
X4830595Y-12988571D01*
X4840119Y-12969524D01*
X4849643Y-12960000D01*
X4868690Y-12950476D01*
X5116310Y-12950476D02*
X5021071Y-12950476D01*
X5011548Y-13045714D01*
X5021071Y-13036190D01*
X5040119Y-13026667D01*
X5087738Y-13026667D01*
X5106786Y-13036190D01*
X5116310Y-13045714D01*
X5125833Y-13064762D01*
X5125833Y-13112381D01*
X5116310Y-13131428D01*
X5106786Y-13140952D01*
X5087738Y-13150476D01*
X5040119Y-13150476D01*
X5021071Y-13140952D01*
X5011548Y-13131428D01*
X5221071Y-13150476D02*
X5259167Y-13150476D01*
X5278214Y-13140952D01*
X5287738Y-13131428D01*
X5306786Y-13102857D01*
X5316310Y-13064762D01*
X5316310Y-12988571D01*
X5306786Y-12969524D01*
X5297262Y-12960000D01*
X5278214Y-12950476D01*
X5240119Y-12950476D01*
X5221071Y-12960000D01*
X5211548Y-12969524D01*
X5202024Y-12988571D01*
X5202024Y-13036190D01*
X5211548Y-13055238D01*
X5221071Y-13064762D01*
X5240119Y-13074286D01*
X5278214Y-13074286D01*
X5297262Y-13064762D01*
X5306786Y-13055238D01*
X5316310Y-13036190D01*
X5506786Y-13150476D02*
X5392500Y-13150476D01*
X5449643Y-13150476D02*
X5449643Y-12950476D01*
X5430595Y-12979048D01*
X5411548Y-12998095D01*
X5392500Y-13007619D01*
X5582976Y-12950476D02*
X5582976Y-12988571D01*
X5659167Y-12950476D02*
X5659167Y-12988571D01*
X5954405Y-13226667D02*
X5944881Y-13217143D01*
X5925833Y-13188571D01*
X5916309Y-13169524D01*
X5906786Y-13140952D01*
X5897262Y-13093333D01*
X5897262Y-13055238D01*
X5906786Y-13007619D01*
X5916309Y-12979048D01*
X5925833Y-12960000D01*
X5944881Y-12931428D01*
X5954405Y-12921905D01*
X6068690Y-12950476D02*
X6087738Y-12950476D01*
X6106786Y-12960000D01*
X6116309Y-12969524D01*
X6125833Y-12988571D01*
X6135357Y-13026667D01*
X6135357Y-13074286D01*
X6125833Y-13112381D01*
X6116309Y-13131428D01*
X6106786Y-13140952D01*
X6087738Y-13150476D01*
X6068690Y-13150476D01*
X6049643Y-13140952D01*
X6040119Y-13131428D01*
X6030595Y-13112381D01*
X6021071Y-13074286D01*
X6021071Y-13026667D01*
X6030595Y-12988571D01*
X6040119Y-12969524D01*
X6049643Y-12960000D01*
X6068690Y-12950476D01*
X6373452Y-13150476D02*
X6373452Y-12950476D01*
X6459167Y-13150476D02*
X6459167Y-13045714D01*
X6449643Y-13026667D01*
X6430595Y-13017143D01*
X6402024Y-13017143D01*
X6382976Y-13026667D01*
X6373452Y-13036190D01*
X6582976Y-13150476D02*
X6563928Y-13140952D01*
X6554405Y-13131428D01*
X6544881Y-13112381D01*
X6544881Y-13055238D01*
X6554405Y-13036190D01*
X6563928Y-13026667D01*
X6582976Y-13017143D01*
X6611548Y-13017143D01*
X6630595Y-13026667D01*
X6640119Y-13036190D01*
X6649643Y-13055238D01*
X6649643Y-13112381D01*
X6640119Y-13131428D01*
X6630595Y-13140952D01*
X6611548Y-13150476D01*
X6582976Y-13150476D01*
X6763928Y-13150476D02*
X6744881Y-13140952D01*
X6735357Y-13121905D01*
X6735357Y-12950476D01*
X6916309Y-13140952D02*
X6897262Y-13150476D01*
X6859167Y-13150476D01*
X6840119Y-13140952D01*
X6830595Y-13121905D01*
X6830595Y-13045714D01*
X6840119Y-13026667D01*
X6859167Y-13017143D01*
X6897262Y-13017143D01*
X6916309Y-13026667D01*
X6925833Y-13045714D01*
X6925833Y-13064762D01*
X6830595Y-13083809D01*
X7002024Y-13140952D02*
X7021071Y-13150476D01*
X7059167Y-13150476D01*
X7078214Y-13140952D01*
X7087738Y-13121905D01*
X7087738Y-13112381D01*
X7078214Y-13093333D01*
X7059167Y-13083809D01*
X7030595Y-13083809D01*
X7011548Y-13074286D01*
X7002024Y-13055238D01*
X7002024Y-13045714D01*
X7011548Y-13026667D01*
X7030595Y-13017143D01*
X7059167Y-13017143D01*
X7078214Y-13026667D01*
X7325833Y-13074286D02*
X7478214Y-13074286D01*
X7402024Y-13150476D02*
X7402024Y-12998095D01*
X7811548Y-13017143D02*
X7811548Y-13150476D01*
X7763928Y-12940952D02*
X7716309Y-13083809D01*
X7840119Y-13083809D01*
X8059167Y-13140952D02*
X8078214Y-13150476D01*
X8116309Y-13150476D01*
X8135357Y-13140952D01*
X8144881Y-13121905D01*
X8144881Y-13112381D01*
X8135357Y-13093333D01*
X8116309Y-13083809D01*
X8087738Y-13083809D01*
X8068690Y-13074286D01*
X8059167Y-13055238D01*
X8059167Y-13045714D01*
X8068690Y-13026667D01*
X8087738Y-13017143D01*
X8116309Y-13017143D01*
X8135357Y-13026667D01*
X8259167Y-13150476D02*
X8240119Y-13140952D01*
X8230595Y-13121905D01*
X8230595Y-12950476D01*
X8363928Y-13150476D02*
X8344881Y-13140952D01*
X8335357Y-13131428D01*
X8325833Y-13112381D01*
X8325833Y-13055238D01*
X8335357Y-13036190D01*
X8344881Y-13026667D01*
X8363928Y-13017143D01*
X8392500Y-13017143D01*
X8411548Y-13026667D01*
X8421071Y-13036190D01*
X8430595Y-13055238D01*
X8430595Y-13112381D01*
X8421071Y-13131428D01*
X8411548Y-13140952D01*
X8392500Y-13150476D01*
X8363928Y-13150476D01*
X8487738Y-13017143D02*
X8563929Y-13017143D01*
X8516310Y-12950476D02*
X8516310Y-13121905D01*
X8525833Y-13140952D01*
X8544881Y-13150476D01*
X8563929Y-13150476D01*
X8621071Y-13140952D02*
X8640119Y-13150476D01*
X8678214Y-13150476D01*
X8697262Y-13140952D01*
X8706786Y-13121905D01*
X8706786Y-13112381D01*
X8697262Y-13093333D01*
X8678214Y-13083809D01*
X8649643Y-13083809D01*
X8630595Y-13074286D01*
X8621071Y-13055238D01*
X8621071Y-13045714D01*
X8630595Y-13026667D01*
X8649643Y-13017143D01*
X8678214Y-13017143D01*
X8697262Y-13026667D01*
X8773452Y-13226667D02*
X8782976Y-13217143D01*
X8802024Y-13188571D01*
X8811548Y-13169524D01*
X8821071Y-13140952D01*
X8830595Y-13093333D01*
X8830595Y-13055238D01*
X8821071Y-13007619D01*
X8811548Y-12979048D01*
X8802024Y-12960000D01*
X8782976Y-12931428D01*
X8773452Y-12921905D01*
X9135357Y-13226667D02*
X9125833Y-13217143D01*
X9106786Y-13188571D01*
X9097262Y-13169524D01*
X9087738Y-13140952D01*
X9078214Y-13093333D01*
X9078214Y-13055238D01*
X9087738Y-13007619D01*
X9097262Y-12979048D01*
X9106786Y-12960000D01*
X9125833Y-12931428D01*
X9135357Y-12921905D01*
X9211548Y-13017143D02*
X9211548Y-13150476D01*
X9211548Y-13036190D02*
X9221071Y-13026667D01*
X9240119Y-13017143D01*
X9268690Y-13017143D01*
X9287738Y-13026667D01*
X9297262Y-13045714D01*
X9297262Y-13150476D01*
X9421071Y-13150476D02*
X9402024Y-13140952D01*
X9392500Y-13131428D01*
X9382976Y-13112381D01*
X9382976Y-13055238D01*
X9392500Y-13036190D01*
X9402024Y-13026667D01*
X9421071Y-13017143D01*
X9449643Y-13017143D01*
X9468690Y-13026667D01*
X9478214Y-13036190D01*
X9487738Y-13055238D01*
X9487738Y-13112381D01*
X9478214Y-13131428D01*
X9468690Y-13140952D01*
X9449643Y-13150476D01*
X9421071Y-13150476D01*
X9544881Y-13017143D02*
X9621071Y-13017143D01*
X9573452Y-12950476D02*
X9573452Y-13121905D01*
X9582976Y-13140952D01*
X9602024Y-13150476D01*
X9621071Y-13150476D01*
X9840119Y-13017143D02*
X9840119Y-13217143D01*
X9840119Y-13026667D02*
X9859167Y-13017143D01*
X9897262Y-13017143D01*
X9916310Y-13026667D01*
X9925833Y-13036190D01*
X9935357Y-13055238D01*
X9935357Y-13112381D01*
X9925833Y-13131428D01*
X9916310Y-13140952D01*
X9897262Y-13150476D01*
X9859167Y-13150476D01*
X9840119Y-13140952D01*
X10049643Y-13150476D02*
X10030595Y-13140952D01*
X10021071Y-13121905D01*
X10021071Y-12950476D01*
X10211548Y-13150476D02*
X10211548Y-13045714D01*
X10202024Y-13026667D01*
X10182976Y-13017143D01*
X10144881Y-13017143D01*
X10125833Y-13026667D01*
X10211548Y-13140952D02*
X10192500Y-13150476D01*
X10144881Y-13150476D01*
X10125833Y-13140952D01*
X10116310Y-13121905D01*
X10116310Y-13102857D01*
X10125833Y-13083809D01*
X10144881Y-13074286D01*
X10192500Y-13074286D01*
X10211548Y-13064762D01*
X10278214Y-13017143D02*
X10354405Y-13017143D01*
X10306786Y-12950476D02*
X10306786Y-13121905D01*
X10316310Y-13140952D01*
X10335357Y-13150476D01*
X10354405Y-13150476D01*
X10497262Y-13140952D02*
X10478214Y-13150476D01*
X10440119Y-13150476D01*
X10421071Y-13140952D01*
X10411548Y-13121905D01*
X10411548Y-13045714D01*
X10421071Y-13026667D01*
X10440119Y-13017143D01*
X10478214Y-13017143D01*
X10497262Y-13026667D01*
X10506786Y-13045714D01*
X10506786Y-13064762D01*
X10411548Y-13083809D01*
X10678214Y-13150476D02*
X10678214Y-12950476D01*
X10678214Y-13140952D02*
X10659167Y-13150476D01*
X10621071Y-13150476D01*
X10602024Y-13140952D01*
X10592500Y-13131428D01*
X10582976Y-13112381D01*
X10582976Y-13055238D01*
X10592500Y-13036190D01*
X10602024Y-13026667D01*
X10621071Y-13017143D01*
X10659167Y-13017143D01*
X10678214Y-13026667D01*
X10754405Y-13226667D02*
X10763929Y-13217143D01*
X10782976Y-13188571D01*
X10792500Y-13169524D01*
X10802024Y-13140952D01*
X10811548Y-13093333D01*
X10811548Y-13055238D01*
X10802024Y-13007619D01*
X10792500Y-12979048D01*
X10782976Y-12960000D01*
X10763929Y-12931428D01*
X10754405Y-12921905D01*
D13*
X2382500Y-13330000D02*
G75*
G03*
X2382500Y-13330000I-85000J0D01*
G01*
D11*
X2744881Y-13420476D02*
X2630595Y-13420476D01*
X2687738Y-13420476D02*
X2687738Y-13220476D01*
X2668690Y-13249048D01*
X2649643Y-13268095D01*
X2630595Y-13277619D01*
X2830595Y-13401428D02*
X2840119Y-13410952D01*
X2830595Y-13420476D01*
X2821071Y-13410952D01*
X2830595Y-13401428D01*
X2830595Y-13420476D01*
X2906786Y-13220476D02*
X3040119Y-13220476D01*
X2954405Y-13420476D01*
X3154405Y-13220476D02*
X3173452Y-13220476D01*
X3192500Y-13230000D01*
X3202024Y-13239524D01*
X3211548Y-13258571D01*
X3221071Y-13296667D01*
X3221071Y-13344286D01*
X3211548Y-13382381D01*
X3202024Y-13401428D01*
X3192500Y-13410952D01*
X3173452Y-13420476D01*
X3154405Y-13420476D01*
X3135357Y-13410952D01*
X3125833Y-13401428D01*
X3116309Y-13382381D01*
X3106786Y-13344286D01*
X3106786Y-13296667D01*
X3116309Y-13258571D01*
X3125833Y-13239524D01*
X3135357Y-13230000D01*
X3154405Y-13220476D01*
X3344881Y-13220476D02*
X3363928Y-13220476D01*
X3382976Y-13230000D01*
X3392500Y-13239524D01*
X3402024Y-13258571D01*
X3411548Y-13296667D01*
X3411548Y-13344286D01*
X3402024Y-13382381D01*
X3392500Y-13401428D01*
X3382976Y-13410952D01*
X3363928Y-13420476D01*
X3344881Y-13420476D01*
X3325833Y-13410952D01*
X3316309Y-13401428D01*
X3306786Y-13382381D01*
X3297262Y-13344286D01*
X3297262Y-13296667D01*
X3306786Y-13258571D01*
X3316309Y-13239524D01*
X3325833Y-13230000D01*
X3344881Y-13220476D01*
X3497262Y-13420476D02*
X3497262Y-13287143D01*
X3497262Y-13306190D02*
X3506786Y-13296667D01*
X3525833Y-13287143D01*
X3554405Y-13287143D01*
X3573452Y-13296667D01*
X3582976Y-13315714D01*
X3582976Y-13420476D01*
X3582976Y-13315714D02*
X3592500Y-13296667D01*
X3611548Y-13287143D01*
X3640119Y-13287143D01*
X3659167Y-13296667D01*
X3668690Y-13315714D01*
X3668690Y-13420476D01*
X3763928Y-13420476D02*
X3763928Y-13287143D01*
X3763928Y-13306190D02*
X3773452Y-13296667D01*
X3792500Y-13287143D01*
X3821071Y-13287143D01*
X3840119Y-13296667D01*
X3849643Y-13315714D01*
X3849643Y-13420476D01*
X3849643Y-13315714D02*
X3859167Y-13296667D01*
X3878214Y-13287143D01*
X3906786Y-13287143D01*
X3925833Y-13296667D01*
X3935357Y-13315714D01*
X3935357Y-13420476D01*
X4325833Y-13210952D02*
X4154405Y-13468095D01*
X4582976Y-13220476D02*
X4602024Y-13220476D01*
X4621071Y-13230000D01*
X4630595Y-13239524D01*
X4640119Y-13258571D01*
X4649643Y-13296667D01*
X4649643Y-13344286D01*
X4640119Y-13382381D01*
X4630595Y-13401428D01*
X4621071Y-13410952D01*
X4602024Y-13420476D01*
X4582976Y-13420476D01*
X4563929Y-13410952D01*
X4554405Y-13401428D01*
X4544881Y-13382381D01*
X4535357Y-13344286D01*
X4535357Y-13296667D01*
X4544881Y-13258571D01*
X4554405Y-13239524D01*
X4563929Y-13230000D01*
X4582976Y-13220476D01*
X4735357Y-13401428D02*
X4744881Y-13410952D01*
X4735357Y-13420476D01*
X4725833Y-13410952D01*
X4735357Y-13401428D01*
X4735357Y-13420476D01*
X4868690Y-13220476D02*
X4887738Y-13220476D01*
X4906786Y-13230000D01*
X4916310Y-13239524D01*
X4925833Y-13258571D01*
X4935357Y-13296667D01*
X4935357Y-13344286D01*
X4925833Y-13382381D01*
X4916310Y-13401428D01*
X4906786Y-13410952D01*
X4887738Y-13420476D01*
X4868690Y-13420476D01*
X4849643Y-13410952D01*
X4840119Y-13401428D01*
X4830595Y-13382381D01*
X4821071Y-13344286D01*
X4821071Y-13296667D01*
X4830595Y-13258571D01*
X4840119Y-13239524D01*
X4849643Y-13230000D01*
X4868690Y-13220476D01*
X5106786Y-13220476D02*
X5068690Y-13220476D01*
X5049643Y-13230000D01*
X5040119Y-13239524D01*
X5021071Y-13268095D01*
X5011548Y-13306190D01*
X5011548Y-13382381D01*
X5021071Y-13401428D01*
X5030595Y-13410952D01*
X5049643Y-13420476D01*
X5087738Y-13420476D01*
X5106786Y-13410952D01*
X5116310Y-13401428D01*
X5125833Y-13382381D01*
X5125833Y-13334762D01*
X5116310Y-13315714D01*
X5106786Y-13306190D01*
X5087738Y-13296667D01*
X5049643Y-13296667D01*
X5030595Y-13306190D01*
X5021071Y-13315714D01*
X5011548Y-13334762D01*
X5297262Y-13220476D02*
X5259167Y-13220476D01*
X5240119Y-13230000D01*
X5230595Y-13239524D01*
X5211548Y-13268095D01*
X5202024Y-13306190D01*
X5202024Y-13382381D01*
X5211548Y-13401428D01*
X5221071Y-13410952D01*
X5240119Y-13420476D01*
X5278214Y-13420476D01*
X5297262Y-13410952D01*
X5306786Y-13401428D01*
X5316310Y-13382381D01*
X5316310Y-13334762D01*
X5306786Y-13315714D01*
X5297262Y-13306190D01*
X5278214Y-13296667D01*
X5240119Y-13296667D01*
X5221071Y-13306190D01*
X5211548Y-13315714D01*
X5202024Y-13334762D01*
X5411548Y-13420476D02*
X5449643Y-13420476D01*
X5468690Y-13410952D01*
X5478214Y-13401428D01*
X5497262Y-13372857D01*
X5506786Y-13334762D01*
X5506786Y-13258571D01*
X5497262Y-13239524D01*
X5487738Y-13230000D01*
X5468690Y-13220476D01*
X5430595Y-13220476D01*
X5411548Y-13230000D01*
X5402024Y-13239524D01*
X5392500Y-13258571D01*
X5392500Y-13306190D01*
X5402024Y-13325238D01*
X5411548Y-13334762D01*
X5430595Y-13344286D01*
X5468690Y-13344286D01*
X5487738Y-13334762D01*
X5497262Y-13325238D01*
X5506786Y-13306190D01*
X5582976Y-13220476D02*
X5582976Y-13258571D01*
X5659167Y-13220476D02*
X5659167Y-13258571D01*
X5954405Y-13496667D02*
X5944881Y-13487143D01*
X5925833Y-13458571D01*
X5916309Y-13439524D01*
X5906786Y-13410952D01*
X5897262Y-13363333D01*
X5897262Y-13325238D01*
X5906786Y-13277619D01*
X5916309Y-13249048D01*
X5925833Y-13230000D01*
X5944881Y-13201428D01*
X5954405Y-13191905D01*
X6135357Y-13420476D02*
X6021071Y-13420476D01*
X6078214Y-13420476D02*
X6078214Y-13220476D01*
X6059167Y-13249048D01*
X6040119Y-13268095D01*
X6021071Y-13277619D01*
X6259167Y-13220476D02*
X6278214Y-13220476D01*
X6297262Y-13230000D01*
X6306786Y-13239524D01*
X6316309Y-13258571D01*
X6325833Y-13296667D01*
X6325833Y-13344286D01*
X6316309Y-13382381D01*
X6306786Y-13401428D01*
X6297262Y-13410952D01*
X6278214Y-13420476D01*
X6259167Y-13420476D01*
X6240119Y-13410952D01*
X6230595Y-13401428D01*
X6221071Y-13382381D01*
X6211548Y-13344286D01*
X6211548Y-13296667D01*
X6221071Y-13258571D01*
X6230595Y-13239524D01*
X6240119Y-13230000D01*
X6259167Y-13220476D01*
X6497262Y-13287143D02*
X6497262Y-13420476D01*
X6449643Y-13210952D02*
X6402024Y-13353809D01*
X6525833Y-13353809D01*
X6754405Y-13420476D02*
X6754405Y-13220476D01*
X6840119Y-13420476D02*
X6840119Y-13315714D01*
X6830595Y-13296667D01*
X6811548Y-13287143D01*
X6782976Y-13287143D01*
X6763928Y-13296667D01*
X6754405Y-13306190D01*
X6963928Y-13420476D02*
X6944881Y-13410952D01*
X6935357Y-13401428D01*
X6925833Y-13382381D01*
X6925833Y-13325238D01*
X6935357Y-13306190D01*
X6944881Y-13296667D01*
X6963928Y-13287143D01*
X6992500Y-13287143D01*
X7011548Y-13296667D01*
X7021071Y-13306190D01*
X7030595Y-13325238D01*
X7030595Y-13382381D01*
X7021071Y-13401428D01*
X7011548Y-13410952D01*
X6992500Y-13420476D01*
X6963928Y-13420476D01*
X7144881Y-13420476D02*
X7125833Y-13410952D01*
X7116309Y-13391905D01*
X7116309Y-13220476D01*
X7297262Y-13410952D02*
X7278214Y-13420476D01*
X7240119Y-13420476D01*
X7221071Y-13410952D01*
X7211548Y-13391905D01*
X7211548Y-13315714D01*
X7221071Y-13296667D01*
X7240119Y-13287143D01*
X7278214Y-13287143D01*
X7297262Y-13296667D01*
X7306786Y-13315714D01*
X7306786Y-13334762D01*
X7211548Y-13353809D01*
X7382976Y-13410952D02*
X7402024Y-13420476D01*
X7440119Y-13420476D01*
X7459167Y-13410952D01*
X7468690Y-13391905D01*
X7468690Y-13382381D01*
X7459167Y-13363333D01*
X7440119Y-13353809D01*
X7411548Y-13353809D01*
X7392500Y-13344286D01*
X7382976Y-13325238D01*
X7382976Y-13315714D01*
X7392500Y-13296667D01*
X7411548Y-13287143D01*
X7440119Y-13287143D01*
X7459167Y-13296667D01*
X7535357Y-13496667D02*
X7544881Y-13487143D01*
X7563928Y-13458571D01*
X7573452Y-13439524D01*
X7582976Y-13410952D01*
X7592500Y-13363333D01*
X7592500Y-13325238D01*
X7582976Y-13277619D01*
X7573452Y-13249048D01*
X7563928Y-13230000D01*
X7544881Y-13201428D01*
X7535357Y-13191905D01*
X7897262Y-13496667D02*
X7887738Y-13487143D01*
X7868690Y-13458571D01*
X7859167Y-13439524D01*
X7849643Y-13410952D01*
X7840119Y-13363333D01*
X7840119Y-13325238D01*
X7849643Y-13277619D01*
X7859167Y-13249048D01*
X7868690Y-13230000D01*
X7887738Y-13201428D01*
X7897262Y-13191905D01*
X7973452Y-13287143D02*
X7973452Y-13420476D01*
X7973452Y-13306190D02*
X7982976Y-13296667D01*
X8002024Y-13287143D01*
X8030595Y-13287143D01*
X8049643Y-13296667D01*
X8059167Y-13315714D01*
X8059167Y-13420476D01*
X8182976Y-13420476D02*
X8163928Y-13410952D01*
X8154405Y-13401428D01*
X8144881Y-13382381D01*
X8144881Y-13325238D01*
X8154405Y-13306190D01*
X8163928Y-13296667D01*
X8182976Y-13287143D01*
X8211548Y-13287143D01*
X8230595Y-13296667D01*
X8240119Y-13306190D01*
X8249643Y-13325238D01*
X8249643Y-13382381D01*
X8240119Y-13401428D01*
X8230595Y-13410952D01*
X8211548Y-13420476D01*
X8182976Y-13420476D01*
X8306786Y-13287143D02*
X8382976Y-13287143D01*
X8335357Y-13220476D02*
X8335357Y-13391905D01*
X8344881Y-13410952D01*
X8363928Y-13420476D01*
X8382976Y-13420476D01*
X8602024Y-13287143D02*
X8602024Y-13487143D01*
X8602024Y-13296667D02*
X8621071Y-13287143D01*
X8659167Y-13287143D01*
X8678214Y-13296667D01*
X8687738Y-13306190D01*
X8697262Y-13325238D01*
X8697262Y-13382381D01*
X8687738Y-13401428D01*
X8678214Y-13410952D01*
X8659167Y-13420476D01*
X8621071Y-13420476D01*
X8602024Y-13410952D01*
X8811548Y-13420476D02*
X8792500Y-13410952D01*
X8782976Y-13391905D01*
X8782976Y-13220476D01*
X8973452Y-13420476D02*
X8973452Y-13315714D01*
X8963929Y-13296667D01*
X8944881Y-13287143D01*
X8906786Y-13287143D01*
X8887738Y-13296667D01*
X8973452Y-13410952D02*
X8954405Y-13420476D01*
X8906786Y-13420476D01*
X8887738Y-13410952D01*
X8878214Y-13391905D01*
X8878214Y-13372857D01*
X8887738Y-13353809D01*
X8906786Y-13344286D01*
X8954405Y-13344286D01*
X8973452Y-13334762D01*
X9040119Y-13287143D02*
X9116310Y-13287143D01*
X9068690Y-13220476D02*
X9068690Y-13391905D01*
X9078214Y-13410952D01*
X9097262Y-13420476D01*
X9116310Y-13420476D01*
X9259167Y-13410952D02*
X9240119Y-13420476D01*
X9202024Y-13420476D01*
X9182976Y-13410952D01*
X9173452Y-13391905D01*
X9173452Y-13315714D01*
X9182976Y-13296667D01*
X9202024Y-13287143D01*
X9240119Y-13287143D01*
X9259167Y-13296667D01*
X9268690Y-13315714D01*
X9268690Y-13334762D01*
X9173452Y-13353809D01*
X9440119Y-13420476D02*
X9440119Y-13220476D01*
X9440119Y-13410952D02*
X9421071Y-13420476D01*
X9382976Y-13420476D01*
X9363929Y-13410952D01*
X9354405Y-13401428D01*
X9344881Y-13382381D01*
X9344881Y-13325238D01*
X9354405Y-13306190D01*
X9363929Y-13296667D01*
X9382976Y-13287143D01*
X9421071Y-13287143D01*
X9440119Y-13296667D01*
X9516310Y-13496667D02*
X9525833Y-13487143D01*
X9544881Y-13458571D01*
X9554405Y-13439524D01*
X9563929Y-13410952D01*
X9573452Y-13363333D01*
X9573452Y-13325238D01*
X9563929Y-13277619D01*
X9554405Y-13249048D01*
X9544881Y-13230000D01*
X9525833Y-13201428D01*
X9516310Y-13191905D01*
X2282500Y-13520000D02*
X2282500Y-13720000D01*
X2182500Y-13620000D02*
X2382500Y-13620000D01*
X2621071Y-13510476D02*
X2744881Y-13510476D01*
X2678214Y-13586667D01*
X2706786Y-13586667D01*
X2725833Y-13596190D01*
X2735357Y-13605714D01*
X2744881Y-13624762D01*
X2744881Y-13672381D01*
X2735357Y-13691428D01*
X2725833Y-13700952D01*
X2706786Y-13710476D01*
X2649643Y-13710476D01*
X2630595Y-13700952D01*
X2621071Y-13691428D01*
X2830595Y-13691428D02*
X2840119Y-13700952D01*
X2830595Y-13710476D01*
X2821071Y-13700952D01*
X2830595Y-13691428D01*
X2830595Y-13710476D01*
X2963928Y-13510476D02*
X2982976Y-13510476D01*
X3002024Y-13520000D01*
X3011548Y-13529524D01*
X3021071Y-13548571D01*
X3030595Y-13586667D01*
X3030595Y-13634286D01*
X3021071Y-13672381D01*
X3011548Y-13691428D01*
X3002024Y-13700952D01*
X2982976Y-13710476D01*
X2963928Y-13710476D01*
X2944881Y-13700952D01*
X2935357Y-13691428D01*
X2925833Y-13672381D01*
X2916309Y-13634286D01*
X2916309Y-13586667D01*
X2925833Y-13548571D01*
X2935357Y-13529524D01*
X2944881Y-13520000D01*
X2963928Y-13510476D01*
X3211548Y-13510476D02*
X3116309Y-13510476D01*
X3106786Y-13605714D01*
X3116309Y-13596190D01*
X3135357Y-13586667D01*
X3182976Y-13586667D01*
X3202024Y-13596190D01*
X3211548Y-13605714D01*
X3221071Y-13624762D01*
X3221071Y-13672381D01*
X3211548Y-13691428D01*
X3202024Y-13700952D01*
X3182976Y-13710476D01*
X3135357Y-13710476D01*
X3116309Y-13700952D01*
X3106786Y-13691428D01*
X3344881Y-13510476D02*
X3363928Y-13510476D01*
X3382976Y-13520000D01*
X3392500Y-13529524D01*
X3402024Y-13548571D01*
X3411548Y-13586667D01*
X3411548Y-13634286D01*
X3402024Y-13672381D01*
X3392500Y-13691428D01*
X3382976Y-13700952D01*
X3363928Y-13710476D01*
X3344881Y-13710476D01*
X3325833Y-13700952D01*
X3316309Y-13691428D01*
X3306786Y-13672381D01*
X3297262Y-13634286D01*
X3297262Y-13586667D01*
X3306786Y-13548571D01*
X3316309Y-13529524D01*
X3325833Y-13520000D01*
X3344881Y-13510476D01*
X3497262Y-13710476D02*
X3497262Y-13577143D01*
X3497262Y-13596190D02*
X3506786Y-13586667D01*
X3525833Y-13577143D01*
X3554405Y-13577143D01*
X3573452Y-13586667D01*
X3582976Y-13605714D01*
X3582976Y-13710476D01*
X3582976Y-13605714D02*
X3592500Y-13586667D01*
X3611548Y-13577143D01*
X3640119Y-13577143D01*
X3659167Y-13586667D01*
X3668690Y-13605714D01*
X3668690Y-13710476D01*
X3763928Y-13710476D02*
X3763928Y-13577143D01*
X3763928Y-13596190D02*
X3773452Y-13586667D01*
X3792500Y-13577143D01*
X3821071Y-13577143D01*
X3840119Y-13586667D01*
X3849643Y-13605714D01*
X3849643Y-13710476D01*
X3849643Y-13605714D02*
X3859167Y-13586667D01*
X3878214Y-13577143D01*
X3906786Y-13577143D01*
X3925833Y-13586667D01*
X3935357Y-13605714D01*
X3935357Y-13710476D01*
X4325833Y-13500952D02*
X4154405Y-13758095D01*
X4582976Y-13510476D02*
X4602024Y-13510476D01*
X4621071Y-13520000D01*
X4630595Y-13529524D01*
X4640119Y-13548571D01*
X4649643Y-13586667D01*
X4649643Y-13634286D01*
X4640119Y-13672381D01*
X4630595Y-13691428D01*
X4621071Y-13700952D01*
X4602024Y-13710476D01*
X4582976Y-13710476D01*
X4563929Y-13700952D01*
X4554405Y-13691428D01*
X4544881Y-13672381D01*
X4535357Y-13634286D01*
X4535357Y-13586667D01*
X4544881Y-13548571D01*
X4554405Y-13529524D01*
X4563929Y-13520000D01*
X4582976Y-13510476D01*
X4735357Y-13691428D02*
X4744881Y-13700952D01*
X4735357Y-13710476D01*
X4725833Y-13700952D01*
X4735357Y-13691428D01*
X4735357Y-13710476D01*
X4935357Y-13710476D02*
X4821071Y-13710476D01*
X4878214Y-13710476D02*
X4878214Y-13510476D01*
X4859167Y-13539048D01*
X4840119Y-13558095D01*
X4821071Y-13567619D01*
X5011548Y-13529524D02*
X5021071Y-13520000D01*
X5040119Y-13510476D01*
X5087738Y-13510476D01*
X5106786Y-13520000D01*
X5116310Y-13529524D01*
X5125833Y-13548571D01*
X5125833Y-13567619D01*
X5116310Y-13596190D01*
X5002024Y-13710476D01*
X5125833Y-13710476D01*
X5249643Y-13510476D02*
X5268690Y-13510476D01*
X5287738Y-13520000D01*
X5297262Y-13529524D01*
X5306786Y-13548571D01*
X5316310Y-13586667D01*
X5316310Y-13634286D01*
X5306786Y-13672381D01*
X5297262Y-13691428D01*
X5287738Y-13700952D01*
X5268690Y-13710476D01*
X5249643Y-13710476D01*
X5230595Y-13700952D01*
X5221071Y-13691428D01*
X5211548Y-13672381D01*
X5202024Y-13634286D01*
X5202024Y-13586667D01*
X5211548Y-13548571D01*
X5221071Y-13529524D01*
X5230595Y-13520000D01*
X5249643Y-13510476D01*
X5506786Y-13710476D02*
X5392500Y-13710476D01*
X5449643Y-13710476D02*
X5449643Y-13510476D01*
X5430595Y-13539048D01*
X5411548Y-13558095D01*
X5392500Y-13567619D01*
X5582976Y-13510476D02*
X5582976Y-13548571D01*
X5659167Y-13510476D02*
X5659167Y-13548571D01*
X5954405Y-13786667D02*
X5944881Y-13777143D01*
X5925833Y-13748571D01*
X5916309Y-13729524D01*
X5906786Y-13700952D01*
X5897262Y-13653333D01*
X5897262Y-13615238D01*
X5906786Y-13567619D01*
X5916309Y-13539048D01*
X5925833Y-13520000D01*
X5944881Y-13491428D01*
X5954405Y-13481905D01*
X6135357Y-13710476D02*
X6021071Y-13710476D01*
X6078214Y-13710476D02*
X6078214Y-13510476D01*
X6059167Y-13539048D01*
X6040119Y-13558095D01*
X6021071Y-13567619D01*
X6259167Y-13510476D02*
X6278214Y-13510476D01*
X6297262Y-13520000D01*
X6306786Y-13529524D01*
X6316309Y-13548571D01*
X6325833Y-13586667D01*
X6325833Y-13634286D01*
X6316309Y-13672381D01*
X6306786Y-13691428D01*
X6297262Y-13700952D01*
X6278214Y-13710476D01*
X6259167Y-13710476D01*
X6240119Y-13700952D01*
X6230595Y-13691428D01*
X6221071Y-13672381D01*
X6211548Y-13634286D01*
X6211548Y-13586667D01*
X6221071Y-13548571D01*
X6230595Y-13529524D01*
X6240119Y-13520000D01*
X6259167Y-13510476D01*
X6563928Y-13710476D02*
X6563928Y-13510476D01*
X6649643Y-13710476D02*
X6649643Y-13605714D01*
X6640119Y-13586667D01*
X6621071Y-13577143D01*
X6592500Y-13577143D01*
X6573452Y-13586667D01*
X6563928Y-13596190D01*
X6773452Y-13710476D02*
X6754405Y-13700952D01*
X6744881Y-13691428D01*
X6735357Y-13672381D01*
X6735357Y-13615238D01*
X6744881Y-13596190D01*
X6754405Y-13586667D01*
X6773452Y-13577143D01*
X6802024Y-13577143D01*
X6821071Y-13586667D01*
X6830595Y-13596190D01*
X6840119Y-13615238D01*
X6840119Y-13672381D01*
X6830595Y-13691428D01*
X6821071Y-13700952D01*
X6802024Y-13710476D01*
X6773452Y-13710476D01*
X6954405Y-13710476D02*
X6935357Y-13700952D01*
X6925833Y-13681905D01*
X6925833Y-13510476D01*
X7106786Y-13700952D02*
X7087738Y-13710476D01*
X7049643Y-13710476D01*
X7030595Y-13700952D01*
X7021071Y-13681905D01*
X7021071Y-13605714D01*
X7030595Y-13586667D01*
X7049643Y-13577143D01*
X7087738Y-13577143D01*
X7106786Y-13586667D01*
X7116309Y-13605714D01*
X7116309Y-13624762D01*
X7021071Y-13643809D01*
X7192500Y-13700952D02*
X7211548Y-13710476D01*
X7249643Y-13710476D01*
X7268690Y-13700952D01*
X7278214Y-13681905D01*
X7278214Y-13672381D01*
X7268690Y-13653333D01*
X7249643Y-13643809D01*
X7221071Y-13643809D01*
X7202024Y-13634286D01*
X7192500Y-13615238D01*
X7192500Y-13605714D01*
X7202024Y-13586667D01*
X7221071Y-13577143D01*
X7249643Y-13577143D01*
X7268690Y-13586667D01*
X7344881Y-13786667D02*
X7354405Y-13777143D01*
X7373452Y-13748571D01*
X7382976Y-13729524D01*
X7392500Y-13700952D01*
X7402024Y-13653333D01*
X7402024Y-13615238D01*
X7392500Y-13567619D01*
X7382976Y-13539048D01*
X7373452Y-13520000D01*
X7354405Y-13491428D01*
X7344881Y-13481905D01*
X7706786Y-13786667D02*
X7697262Y-13777143D01*
X7678214Y-13748571D01*
X7668690Y-13729524D01*
X7659167Y-13700952D01*
X7649643Y-13653333D01*
X7649643Y-13615238D01*
X7659167Y-13567619D01*
X7668690Y-13539048D01*
X7678214Y-13520000D01*
X7697262Y-13491428D01*
X7706786Y-13481905D01*
X7782976Y-13577143D02*
X7782976Y-13710476D01*
X7782976Y-13596190D02*
X7792500Y-13586667D01*
X7811548Y-13577143D01*
X7840119Y-13577143D01*
X7859167Y-13586667D01*
X7868690Y-13605714D01*
X7868690Y-13710476D01*
X7992500Y-13710476D02*
X7973452Y-13700952D01*
X7963928Y-13691428D01*
X7954405Y-13672381D01*
X7954405Y-13615238D01*
X7963928Y-13596190D01*
X7973452Y-13586667D01*
X7992500Y-13577143D01*
X8021071Y-13577143D01*
X8040119Y-13586667D01*
X8049643Y-13596190D01*
X8059167Y-13615238D01*
X8059167Y-13672381D01*
X8049643Y-13691428D01*
X8040119Y-13700952D01*
X8021071Y-13710476D01*
X7992500Y-13710476D01*
X8116309Y-13577143D02*
X8192500Y-13577143D01*
X8144881Y-13510476D02*
X8144881Y-13681905D01*
X8154405Y-13700952D01*
X8173452Y-13710476D01*
X8192500Y-13710476D01*
X8411548Y-13577143D02*
X8411548Y-13777143D01*
X8411548Y-13586667D02*
X8430595Y-13577143D01*
X8468690Y-13577143D01*
X8487738Y-13586667D01*
X8497262Y-13596190D01*
X8506786Y-13615238D01*
X8506786Y-13672381D01*
X8497262Y-13691428D01*
X8487738Y-13700952D01*
X8468690Y-13710476D01*
X8430595Y-13710476D01*
X8411548Y-13700952D01*
X8621071Y-13710476D02*
X8602024Y-13700952D01*
X8592500Y-13681905D01*
X8592500Y-13510476D01*
X8782976Y-13710476D02*
X8782976Y-13605714D01*
X8773452Y-13586667D01*
X8754405Y-13577143D01*
X8716310Y-13577143D01*
X8697262Y-13586667D01*
X8782976Y-13700952D02*
X8763929Y-13710476D01*
X8716310Y-13710476D01*
X8697262Y-13700952D01*
X8687738Y-13681905D01*
X8687738Y-13662857D01*
X8697262Y-13643809D01*
X8716310Y-13634286D01*
X8763929Y-13634286D01*
X8782976Y-13624762D01*
X8849643Y-13577143D02*
X8925833Y-13577143D01*
X8878214Y-13510476D02*
X8878214Y-13681905D01*
X8887738Y-13700952D01*
X8906786Y-13710476D01*
X8925833Y-13710476D01*
X9068690Y-13700952D02*
X9049643Y-13710476D01*
X9011548Y-13710476D01*
X8992500Y-13700952D01*
X8982976Y-13681905D01*
X8982976Y-13605714D01*
X8992500Y-13586667D01*
X9011548Y-13577143D01*
X9049643Y-13577143D01*
X9068690Y-13586667D01*
X9078214Y-13605714D01*
X9078214Y-13624762D01*
X8982976Y-13643809D01*
X9249643Y-13710476D02*
X9249643Y-13510476D01*
X9249643Y-13700952D02*
X9230595Y-13710476D01*
X9192500Y-13710476D01*
X9173452Y-13700952D01*
X9163929Y-13691428D01*
X9154405Y-13672381D01*
X9154405Y-13615238D01*
X9163929Y-13596190D01*
X9173452Y-13586667D01*
X9192500Y-13577143D01*
X9230595Y-13577143D01*
X9249643Y-13586667D01*
X9325833Y-13786667D02*
X9335357Y-13777143D01*
X9354405Y-13748571D01*
X9363929Y-13729524D01*
X9373452Y-13700952D01*
X9382976Y-13653333D01*
X9382976Y-13615238D01*
X9373452Y-13567619D01*
X9363929Y-13539048D01*
X9354405Y-13520000D01*
X9335357Y-13491428D01*
X9325833Y-13481905D01*
X2353211Y-14010711D02*
X2353211Y-13869289D01*
X2211789Y-13869289D01*
X2211789Y-14010711D01*
X2353211Y-14010711D01*
X2725833Y-13897143D02*
X2725833Y-14030476D01*
X2678214Y-13820952D02*
X2630595Y-13963809D01*
X2754405Y-13963809D01*
X2830595Y-14011428D02*
X2840119Y-14020952D01*
X2830595Y-14030476D01*
X2821071Y-14020952D01*
X2830595Y-14011428D01*
X2830595Y-14030476D01*
X2963928Y-13830476D02*
X2982976Y-13830476D01*
X3002024Y-13840000D01*
X3011548Y-13849524D01*
X3021071Y-13868571D01*
X3030595Y-13906667D01*
X3030595Y-13954286D01*
X3021071Y-13992381D01*
X3011548Y-14011428D01*
X3002024Y-14020952D01*
X2982976Y-14030476D01*
X2963928Y-14030476D01*
X2944881Y-14020952D01*
X2935357Y-14011428D01*
X2925833Y-13992381D01*
X2916309Y-13954286D01*
X2916309Y-13906667D01*
X2925833Y-13868571D01*
X2935357Y-13849524D01*
X2944881Y-13840000D01*
X2963928Y-13830476D01*
X3154405Y-13830476D02*
X3173452Y-13830476D01*
X3192500Y-13840000D01*
X3202024Y-13849524D01*
X3211548Y-13868571D01*
X3221071Y-13906667D01*
X3221071Y-13954286D01*
X3211548Y-13992381D01*
X3202024Y-14011428D01*
X3192500Y-14020952D01*
X3173452Y-14030476D01*
X3154405Y-14030476D01*
X3135357Y-14020952D01*
X3125833Y-14011428D01*
X3116309Y-13992381D01*
X3106786Y-13954286D01*
X3106786Y-13906667D01*
X3116309Y-13868571D01*
X3125833Y-13849524D01*
X3135357Y-13840000D01*
X3154405Y-13830476D01*
X3344881Y-13830476D02*
X3363928Y-13830476D01*
X3382976Y-13840000D01*
X3392500Y-13849524D01*
X3402024Y-13868571D01*
X3411548Y-13906667D01*
X3411548Y-13954286D01*
X3402024Y-13992381D01*
X3392500Y-14011428D01*
X3382976Y-14020952D01*
X3363928Y-14030476D01*
X3344881Y-14030476D01*
X3325833Y-14020952D01*
X3316309Y-14011428D01*
X3306786Y-13992381D01*
X3297262Y-13954286D01*
X3297262Y-13906667D01*
X3306786Y-13868571D01*
X3316309Y-13849524D01*
X3325833Y-13840000D01*
X3344881Y-13830476D01*
X3497262Y-14030476D02*
X3497262Y-13897143D01*
X3497262Y-13916190D02*
X3506786Y-13906667D01*
X3525833Y-13897143D01*
X3554405Y-13897143D01*
X3573452Y-13906667D01*
X3582976Y-13925714D01*
X3582976Y-14030476D01*
X3582976Y-13925714D02*
X3592500Y-13906667D01*
X3611548Y-13897143D01*
X3640119Y-13897143D01*
X3659167Y-13906667D01*
X3668690Y-13925714D01*
X3668690Y-14030476D01*
X3763928Y-14030476D02*
X3763928Y-13897143D01*
X3763928Y-13916190D02*
X3773452Y-13906667D01*
X3792500Y-13897143D01*
X3821071Y-13897143D01*
X3840119Y-13906667D01*
X3849643Y-13925714D01*
X3849643Y-14030476D01*
X3849643Y-13925714D02*
X3859167Y-13906667D01*
X3878214Y-13897143D01*
X3906786Y-13897143D01*
X3925833Y-13906667D01*
X3935357Y-13925714D01*
X3935357Y-14030476D01*
X4325833Y-13820952D02*
X4154405Y-14078095D01*
X4582976Y-13830476D02*
X4602024Y-13830476D01*
X4621071Y-13840000D01*
X4630595Y-13849524D01*
X4640119Y-13868571D01*
X4649643Y-13906667D01*
X4649643Y-13954286D01*
X4640119Y-13992381D01*
X4630595Y-14011428D01*
X4621071Y-14020952D01*
X4602024Y-14030476D01*
X4582976Y-14030476D01*
X4563929Y-14020952D01*
X4554405Y-14011428D01*
X4544881Y-13992381D01*
X4535357Y-13954286D01*
X4535357Y-13906667D01*
X4544881Y-13868571D01*
X4554405Y-13849524D01*
X4563929Y-13840000D01*
X4582976Y-13830476D01*
X4735357Y-14011428D02*
X4744881Y-14020952D01*
X4735357Y-14030476D01*
X4725833Y-14020952D01*
X4735357Y-14011428D01*
X4735357Y-14030476D01*
X4935357Y-14030476D02*
X4821071Y-14030476D01*
X4878214Y-14030476D02*
X4878214Y-13830476D01*
X4859167Y-13859048D01*
X4840119Y-13878095D01*
X4821071Y-13887619D01*
X5116310Y-13830476D02*
X5021071Y-13830476D01*
X5011548Y-13925714D01*
X5021071Y-13916190D01*
X5040119Y-13906667D01*
X5087738Y-13906667D01*
X5106786Y-13916190D01*
X5116310Y-13925714D01*
X5125833Y-13944762D01*
X5125833Y-13992381D01*
X5116310Y-14011428D01*
X5106786Y-14020952D01*
X5087738Y-14030476D01*
X5040119Y-14030476D01*
X5021071Y-14020952D01*
X5011548Y-14011428D01*
X5192500Y-13830476D02*
X5325833Y-13830476D01*
X5240119Y-14030476D01*
X5497262Y-13830476D02*
X5402024Y-13830476D01*
X5392500Y-13925714D01*
X5402024Y-13916190D01*
X5421071Y-13906667D01*
X5468690Y-13906667D01*
X5487738Y-13916190D01*
X5497262Y-13925714D01*
X5506786Y-13944762D01*
X5506786Y-13992381D01*
X5497262Y-14011428D01*
X5487738Y-14020952D01*
X5468690Y-14030476D01*
X5421071Y-14030476D01*
X5402024Y-14020952D01*
X5392500Y-14011428D01*
X5582976Y-13830476D02*
X5582976Y-13868571D01*
X5659167Y-13830476D02*
X5659167Y-13868571D01*
X5954405Y-14106667D02*
X5944881Y-14097143D01*
X5925833Y-14068571D01*
X5916309Y-14049524D01*
X5906786Y-14020952D01*
X5897262Y-13973333D01*
X5897262Y-13935238D01*
X5906786Y-13887619D01*
X5916309Y-13859048D01*
X5925833Y-13840000D01*
X5944881Y-13811428D01*
X5954405Y-13801905D01*
X6116309Y-13830476D02*
X6078214Y-13830476D01*
X6059167Y-13840000D01*
X6049643Y-13849524D01*
X6030595Y-13878095D01*
X6021071Y-13916190D01*
X6021071Y-13992381D01*
X6030595Y-14011428D01*
X6040119Y-14020952D01*
X6059167Y-14030476D01*
X6097262Y-14030476D01*
X6116309Y-14020952D01*
X6125833Y-14011428D01*
X6135357Y-13992381D01*
X6135357Y-13944762D01*
X6125833Y-13925714D01*
X6116309Y-13916190D01*
X6097262Y-13906667D01*
X6059167Y-13906667D01*
X6040119Y-13916190D01*
X6030595Y-13925714D01*
X6021071Y-13944762D01*
X6211548Y-13849524D02*
X6221071Y-13840000D01*
X6240119Y-13830476D01*
X6287738Y-13830476D01*
X6306786Y-13840000D01*
X6316309Y-13849524D01*
X6325833Y-13868571D01*
X6325833Y-13887619D01*
X6316309Y-13916190D01*
X6202024Y-14030476D01*
X6325833Y-14030476D01*
X6563928Y-14030476D02*
X6563928Y-13830476D01*
X6649643Y-14030476D02*
X6649643Y-13925714D01*
X6640119Y-13906667D01*
X6621071Y-13897143D01*
X6592500Y-13897143D01*
X6573452Y-13906667D01*
X6563928Y-13916190D01*
X6773452Y-14030476D02*
X6754405Y-14020952D01*
X6744881Y-14011428D01*
X6735357Y-13992381D01*
X6735357Y-13935238D01*
X6744881Y-13916190D01*
X6754405Y-13906667D01*
X6773452Y-13897143D01*
X6802024Y-13897143D01*
X6821071Y-13906667D01*
X6830595Y-13916190D01*
X6840119Y-13935238D01*
X6840119Y-13992381D01*
X6830595Y-14011428D01*
X6821071Y-14020952D01*
X6802024Y-14030476D01*
X6773452Y-14030476D01*
X6954405Y-14030476D02*
X6935357Y-14020952D01*
X6925833Y-14001905D01*
X6925833Y-13830476D01*
X7106786Y-14020952D02*
X7087738Y-14030476D01*
X7049643Y-14030476D01*
X7030595Y-14020952D01*
X7021071Y-14001905D01*
X7021071Y-13925714D01*
X7030595Y-13906667D01*
X7049643Y-13897143D01*
X7087738Y-13897143D01*
X7106786Y-13906667D01*
X7116309Y-13925714D01*
X7116309Y-13944762D01*
X7021071Y-13963809D01*
X7192500Y-14020952D02*
X7211548Y-14030476D01*
X7249643Y-14030476D01*
X7268690Y-14020952D01*
X7278214Y-14001905D01*
X7278214Y-13992381D01*
X7268690Y-13973333D01*
X7249643Y-13963809D01*
X7221071Y-13963809D01*
X7202024Y-13954286D01*
X7192500Y-13935238D01*
X7192500Y-13925714D01*
X7202024Y-13906667D01*
X7221071Y-13897143D01*
X7249643Y-13897143D01*
X7268690Y-13906667D01*
X7344881Y-14106667D02*
X7354405Y-14097143D01*
X7373452Y-14068571D01*
X7382976Y-14049524D01*
X7392500Y-14020952D01*
X7402024Y-13973333D01*
X7402024Y-13935238D01*
X7392500Y-13887619D01*
X7382976Y-13859048D01*
X7373452Y-13840000D01*
X7354405Y-13811428D01*
X7344881Y-13801905D01*
X7706786Y-14106667D02*
X7697262Y-14097143D01*
X7678214Y-14068571D01*
X7668690Y-14049524D01*
X7659167Y-14020952D01*
X7649643Y-13973333D01*
X7649643Y-13935238D01*
X7659167Y-13887619D01*
X7668690Y-13859048D01*
X7678214Y-13840000D01*
X7697262Y-13811428D01*
X7706786Y-13801905D01*
X7782976Y-13897143D02*
X7782976Y-14030476D01*
X7782976Y-13916190D02*
X7792500Y-13906667D01*
X7811548Y-13897143D01*
X7840119Y-13897143D01*
X7859167Y-13906667D01*
X7868690Y-13925714D01*
X7868690Y-14030476D01*
X7992500Y-14030476D02*
X7973452Y-14020952D01*
X7963928Y-14011428D01*
X7954405Y-13992381D01*
X7954405Y-13935238D01*
X7963928Y-13916190D01*
X7973452Y-13906667D01*
X7992500Y-13897143D01*
X8021071Y-13897143D01*
X8040119Y-13906667D01*
X8049643Y-13916190D01*
X8059167Y-13935238D01*
X8059167Y-13992381D01*
X8049643Y-14011428D01*
X8040119Y-14020952D01*
X8021071Y-14030476D01*
X7992500Y-14030476D01*
X8116309Y-13897143D02*
X8192500Y-13897143D01*
X8144881Y-13830476D02*
X8144881Y-14001905D01*
X8154405Y-14020952D01*
X8173452Y-14030476D01*
X8192500Y-14030476D01*
X8411548Y-13897143D02*
X8411548Y-14097143D01*
X8411548Y-13906667D02*
X8430595Y-13897143D01*
X8468690Y-13897143D01*
X8487738Y-13906667D01*
X8497262Y-13916190D01*
X8506786Y-13935238D01*
X8506786Y-13992381D01*
X8497262Y-14011428D01*
X8487738Y-14020952D01*
X8468690Y-14030476D01*
X8430595Y-14030476D01*
X8411548Y-14020952D01*
X8621071Y-14030476D02*
X8602024Y-14020952D01*
X8592500Y-14001905D01*
X8592500Y-13830476D01*
X8782976Y-14030476D02*
X8782976Y-13925714D01*
X8773452Y-13906667D01*
X8754405Y-13897143D01*
X8716310Y-13897143D01*
X8697262Y-13906667D01*
X8782976Y-14020952D02*
X8763929Y-14030476D01*
X8716310Y-14030476D01*
X8697262Y-14020952D01*
X8687738Y-14001905D01*
X8687738Y-13982857D01*
X8697262Y-13963809D01*
X8716310Y-13954286D01*
X8763929Y-13954286D01*
X8782976Y-13944762D01*
X8849643Y-13897143D02*
X8925833Y-13897143D01*
X8878214Y-13830476D02*
X8878214Y-14001905D01*
X8887738Y-14020952D01*
X8906786Y-14030476D01*
X8925833Y-14030476D01*
X9068690Y-14020952D02*
X9049643Y-14030476D01*
X9011548Y-14030476D01*
X8992500Y-14020952D01*
X8982976Y-14001905D01*
X8982976Y-13925714D01*
X8992500Y-13906667D01*
X9011548Y-13897143D01*
X9049643Y-13897143D01*
X9068690Y-13906667D01*
X9078214Y-13925714D01*
X9078214Y-13944762D01*
X8982976Y-13963809D01*
X9249643Y-14030476D02*
X9249643Y-13830476D01*
X9249643Y-14020952D02*
X9230595Y-14030476D01*
X9192500Y-14030476D01*
X9173452Y-14020952D01*
X9163929Y-14011428D01*
X9154405Y-13992381D01*
X9154405Y-13935238D01*
X9163929Y-13916190D01*
X9173452Y-13906667D01*
X9192500Y-13897143D01*
X9230595Y-13897143D01*
X9249643Y-13906667D01*
X9325833Y-14106667D02*
X9335357Y-14097143D01*
X9354405Y-14068571D01*
X9363929Y-14049524D01*
X9373452Y-14020952D01*
X9382976Y-13973333D01*
X9382976Y-13935238D01*
X9373452Y-13887619D01*
X9363929Y-13859048D01*
X9354405Y-13840000D01*
X9335357Y-13811428D01*
X9325833Y-13801905D01*
M02*
