%FSLAX45Y45*%
G04 Gerber Fmt 4.5, Leading zero omitted, Abs format (unit mm)*
G04 Created by KiCad (PCBNEW (6.0.0-0)) date 2022-12-13 13:56:18*
%MOMM*%
%LPD*%
G01*
G04 APERTURE LIST*
%TA.AperFunction,Profile*%
%ADD10C,0.100000*%
%TD*%
%ADD11C,0.200000*%
%ADD12C,0.040000*%
%ADD13C,0.099060*%
%ADD14C,0.100000*%
%ADD15C,0.109220*%
%ADD16C,0.150000*%
G04 APERTURE END LIST*
D10*
X2865000Y-2437500D02*
G75*
G03*
X2387500Y-2915000I0J-477500D01*
G01*
X27217500Y-2915000D02*
G75*
G03*
X26740000Y-2437500I-477500J0D01*
G01*
X26740000Y-2437500D02*
X2865000Y-2437500D01*
X2387500Y-3103750D02*
X2387500Y-12415000D01*
X27217500Y-2915000D02*
X27217500Y-12415000D01*
X27217500Y-12415000D02*
X2387500Y-12415000D01*
X2387500Y-3103750D02*
X2387500Y-2915000D01*
D11*
D12*
X4697293Y-3002141D02*
X4737293Y-3042141D01*
X4737293Y-3002141D02*
X4697293Y-3042141D01*
X4755000Y-3083750D02*
X4795000Y-3123750D01*
X4795000Y-3083750D02*
X4755000Y-3123750D01*
X6903750Y-3609750D02*
X6943750Y-3649750D01*
X6943750Y-3609750D02*
X6903750Y-3649750D01*
X17408750Y-4516250D02*
X17448750Y-4556250D01*
X17448750Y-4516250D02*
X17408750Y-4556250D01*
X18602500Y-4516250D02*
X18642500Y-4556250D01*
X18642500Y-4516250D02*
X18602500Y-4556250D01*
X18602500Y-5232500D02*
X18642500Y-5272500D01*
X18642500Y-5232500D02*
X18602500Y-5272500D01*
X22020000Y-3040000D02*
X22060000Y-3080000D01*
X22060000Y-3040000D02*
X22020000Y-3080000D01*
X23138750Y-4755000D02*
X23178750Y-4795000D01*
X23178750Y-4755000D02*
X23138750Y-4795000D01*
D13*
X6353530Y-2865000D02*
G75*
G03*
X6353530Y-2865000I-49530J0D01*
G01*
X6592280Y-3342500D02*
G75*
G03*
X6592280Y-3342500I-49530J0D01*
G01*
X6831030Y-3820000D02*
G75*
G03*
X6831030Y-3820000I-49530J0D01*
G01*
X7069780Y-4297500D02*
G75*
G03*
X7069780Y-4297500I-49530J0D01*
G01*
X7115530Y-2865000D02*
G75*
G03*
X7115530Y-2865000I-49530J0D01*
G01*
X7354280Y-3342500D02*
G75*
G03*
X7354280Y-3342500I-49530J0D01*
G01*
X7547280Y-2865000D02*
G75*
G03*
X7547280Y-2865000I-49530J0D01*
G01*
X7593030Y-3820000D02*
G75*
G03*
X7593030Y-3820000I-49530J0D01*
G01*
X7786030Y-3342500D02*
G75*
G03*
X7786030Y-3342500I-49530J0D01*
G01*
X7831780Y-4297500D02*
G75*
G03*
X7831780Y-4297500I-49530J0D01*
G01*
X8024780Y-3820000D02*
G75*
G03*
X8024780Y-3820000I-49530J0D01*
G01*
X8263530Y-4297500D02*
G75*
G03*
X8263530Y-4297500I-49530J0D01*
G01*
X8309280Y-2865000D02*
G75*
G03*
X8309280Y-2865000I-49530J0D01*
G01*
X8548030Y-3342500D02*
G75*
G03*
X8548030Y-3342500I-49530J0D01*
G01*
X8741030Y-2865000D02*
G75*
G03*
X8741030Y-2865000I-49530J0D01*
G01*
X8786780Y-3820000D02*
G75*
G03*
X8786780Y-3820000I-49530J0D01*
G01*
X8979780Y-3342500D02*
G75*
G03*
X8979780Y-3342500I-49530J0D01*
G01*
X9025530Y-4297500D02*
G75*
G03*
X9025530Y-4297500I-49530J0D01*
G01*
X9218530Y-3820000D02*
G75*
G03*
X9218530Y-3820000I-49530J0D01*
G01*
X9457280Y-4297500D02*
G75*
G03*
X9457280Y-4297500I-49530J0D01*
G01*
X9503030Y-2865000D02*
G75*
G03*
X9503030Y-2865000I-49530J0D01*
G01*
X9741780Y-3342500D02*
G75*
G03*
X9741780Y-3342500I-49530J0D01*
G01*
X9934780Y-2865000D02*
G75*
G03*
X9934780Y-2865000I-49530J0D01*
G01*
X9980530Y-3820000D02*
G75*
G03*
X9980530Y-3820000I-49530J0D01*
G01*
X10173530Y-3342500D02*
G75*
G03*
X10173530Y-3342500I-49530J0D01*
G01*
X10219280Y-4297500D02*
G75*
G03*
X10219280Y-4297500I-49530J0D01*
G01*
X10412280Y-3820000D02*
G75*
G03*
X10412280Y-3820000I-49530J0D01*
G01*
X10696780Y-2865000D02*
G75*
G03*
X10696780Y-2865000I-49530J0D01*
G01*
X10935530Y-3342500D02*
G75*
G03*
X10935530Y-3342500I-49530J0D01*
G01*
X11128530Y-2865000D02*
G75*
G03*
X11128530Y-2865000I-49530J0D01*
G01*
X11174280Y-3820000D02*
G75*
G03*
X11174280Y-3820000I-49530J0D01*
G01*
X11367280Y-3342500D02*
G75*
G03*
X11367280Y-3342500I-49530J0D01*
G01*
X11606030Y-3820000D02*
G75*
G03*
X11606030Y-3820000I-49530J0D01*
G01*
X11844780Y-4297500D02*
G75*
G03*
X11844780Y-4297500I-49530J0D01*
G01*
X11890530Y-2865000D02*
G75*
G03*
X11890530Y-2865000I-49530J0D01*
G01*
X12129280Y-3342500D02*
G75*
G03*
X12129280Y-3342500I-49530J0D01*
G01*
X12322280Y-2865000D02*
G75*
G03*
X12322280Y-2865000I-49530J0D01*
G01*
X12368030Y-3820000D02*
G75*
G03*
X12368030Y-3820000I-49530J0D01*
G01*
X12561030Y-3342500D02*
G75*
G03*
X12561030Y-3342500I-49530J0D01*
G01*
X12606780Y-4297500D02*
G75*
G03*
X12606780Y-4297500I-49530J0D01*
G01*
X12799780Y-3820000D02*
G75*
G03*
X12799780Y-3820000I-49530J0D01*
G01*
X13038530Y-4297500D02*
G75*
G03*
X13038530Y-4297500I-49530J0D01*
G01*
X13084280Y-2865000D02*
G75*
G03*
X13084280Y-2865000I-49530J0D01*
G01*
X13323030Y-3342500D02*
G75*
G03*
X13323030Y-3342500I-49530J0D01*
G01*
X13516030Y-2865000D02*
G75*
G03*
X13516030Y-2865000I-49530J0D01*
G01*
X13561780Y-3820000D02*
G75*
G03*
X13561780Y-3820000I-49530J0D01*
G01*
X13754780Y-3342500D02*
G75*
G03*
X13754780Y-3342500I-49530J0D01*
G01*
X13800530Y-4297500D02*
G75*
G03*
X13800530Y-4297500I-49530J0D01*
G01*
X13993530Y-3820000D02*
G75*
G03*
X13993530Y-3820000I-49530J0D01*
G01*
X14232280Y-4297500D02*
G75*
G03*
X14232280Y-4297500I-49530J0D01*
G01*
X14278030Y-2865000D02*
G75*
G03*
X14278030Y-2865000I-49530J0D01*
G01*
X14516780Y-3342500D02*
G75*
G03*
X14516780Y-3342500I-49530J0D01*
G01*
X14709780Y-2865000D02*
G75*
G03*
X14709780Y-2865000I-49530J0D01*
G01*
X14755530Y-3820000D02*
G75*
G03*
X14755530Y-3820000I-49530J0D01*
G01*
X14948530Y-3342500D02*
G75*
G03*
X14948530Y-3342500I-49530J0D01*
G01*
X14994280Y-4297500D02*
G75*
G03*
X14994280Y-4297500I-49530J0D01*
G01*
X15187280Y-3820000D02*
G75*
G03*
X15187280Y-3820000I-49530J0D01*
G01*
X15426030Y-4297500D02*
G75*
G03*
X15426030Y-4297500I-49530J0D01*
G01*
X15471780Y-2865000D02*
G75*
G03*
X15471780Y-2865000I-49530J0D01*
G01*
X15710530Y-3342500D02*
G75*
G03*
X15710530Y-3342500I-49530J0D01*
G01*
X15903530Y-2865000D02*
G75*
G03*
X15903530Y-2865000I-49530J0D01*
G01*
X15949280Y-3820000D02*
G75*
G03*
X15949280Y-3820000I-49530J0D01*
G01*
X16142280Y-3342500D02*
G75*
G03*
X16142280Y-3342500I-49530J0D01*
G01*
X16188030Y-4297500D02*
G75*
G03*
X16188030Y-4297500I-49530J0D01*
G01*
X16381030Y-3820000D02*
G75*
G03*
X16381030Y-3820000I-49530J0D01*
G01*
X16619780Y-4297500D02*
G75*
G03*
X16619780Y-4297500I-49530J0D01*
G01*
X16665530Y-2865000D02*
G75*
G03*
X16665530Y-2865000I-49530J0D01*
G01*
X16904280Y-3342500D02*
G75*
G03*
X16904280Y-3342500I-49530J0D01*
G01*
X17097280Y-2865000D02*
G75*
G03*
X17097280Y-2865000I-49530J0D01*
G01*
X17143030Y-3820000D02*
G75*
G03*
X17143030Y-3820000I-49530J0D01*
G01*
X17336030Y-3342500D02*
G75*
G03*
X17336030Y-3342500I-49530J0D01*
G01*
X17381780Y-4297500D02*
G75*
G03*
X17381780Y-4297500I-49530J0D01*
G01*
X17574780Y-3820000D02*
G75*
G03*
X17574780Y-3820000I-49530J0D01*
G01*
X17813530Y-4297500D02*
G75*
G03*
X17813530Y-4297500I-49530J0D01*
G01*
X17859280Y-2865000D02*
G75*
G03*
X17859280Y-2865000I-49530J0D01*
G01*
X18098030Y-3342500D02*
G75*
G03*
X18098030Y-3342500I-49530J0D01*
G01*
X18291030Y-2865000D02*
G75*
G03*
X18291030Y-2865000I-49530J0D01*
G01*
X18336780Y-3820000D02*
G75*
G03*
X18336780Y-3820000I-49530J0D01*
G01*
X18529780Y-3342500D02*
G75*
G03*
X18529780Y-3342500I-49530J0D01*
G01*
X18575530Y-4297500D02*
G75*
G03*
X18575530Y-4297500I-49530J0D01*
G01*
X18768530Y-3820000D02*
G75*
G03*
X18768530Y-3820000I-49530J0D01*
G01*
X19007280Y-4297500D02*
G75*
G03*
X19007280Y-4297500I-49530J0D01*
G01*
X19053030Y-2865000D02*
G75*
G03*
X19053030Y-2865000I-49530J0D01*
G01*
X19291780Y-3342500D02*
G75*
G03*
X19291780Y-3342500I-49530J0D01*
G01*
X19484780Y-2865000D02*
G75*
G03*
X19484780Y-2865000I-49530J0D01*
G01*
X19530530Y-3820000D02*
G75*
G03*
X19530530Y-3820000I-49530J0D01*
G01*
X19723530Y-3342500D02*
G75*
G03*
X19723530Y-3342500I-49530J0D01*
G01*
X19769280Y-4297500D02*
G75*
G03*
X19769280Y-4297500I-49530J0D01*
G01*
X19962280Y-3820000D02*
G75*
G03*
X19962280Y-3820000I-49530J0D01*
G01*
X20201030Y-4297500D02*
G75*
G03*
X20201030Y-4297500I-49530J0D01*
G01*
X20246780Y-2865000D02*
G75*
G03*
X20246780Y-2865000I-49530J0D01*
G01*
X20485530Y-3342500D02*
G75*
G03*
X20485530Y-3342500I-49530J0D01*
G01*
X20724280Y-3820000D02*
G75*
G03*
X20724280Y-3820000I-49530J0D01*
G01*
X20963030Y-4297500D02*
G75*
G03*
X20963030Y-4297500I-49530J0D01*
G01*
D14*
X21248750Y-3246750D02*
X21248750Y-3346750D01*
X21198750Y-3296750D02*
X21298750Y-3296750D01*
X21248750Y-3500750D02*
X21248750Y-3600750D01*
X21198750Y-3550750D02*
X21298750Y-3550750D01*
X21248750Y-3754750D02*
X21248750Y-3854750D01*
X21198750Y-3804750D02*
X21298750Y-3804750D01*
X21248750Y-4008750D02*
X21248750Y-4108750D01*
X21198750Y-4058750D02*
X21298750Y-4058750D01*
X23165540Y-2781250D02*
X23165540Y-2881250D01*
X23115540Y-2831250D02*
X23215540Y-2831250D01*
X23165540Y-4231250D02*
X23165540Y-4331250D01*
X23115540Y-4281250D02*
X23215540Y-4281250D01*
X23415540Y-2781250D02*
X23415540Y-2881250D01*
X23365540Y-2831250D02*
X23465540Y-2831250D01*
X23665540Y-2781250D02*
X23665540Y-2881250D01*
X23615540Y-2831250D02*
X23715540Y-2831250D01*
X23665540Y-4231250D02*
X23665540Y-4331250D01*
X23615540Y-4281250D02*
X23715540Y-4281250D01*
X26012500Y-2742700D02*
X26012500Y-2842700D01*
X25962500Y-2792700D02*
X26062500Y-2792700D01*
X26012500Y-4192700D02*
X26012500Y-4292700D01*
X25962500Y-4242700D02*
X26062500Y-4242700D01*
X26262500Y-2742700D02*
X26262500Y-2842700D01*
X26212500Y-2792700D02*
X26312500Y-2792700D01*
X26512500Y-2742700D02*
X26512500Y-2842700D01*
X26462500Y-2792700D02*
X26562500Y-2792700D01*
X26512500Y-4192700D02*
X26512500Y-4292700D01*
X26462500Y-4242700D02*
X26562500Y-4242700D01*
D15*
X2939115Y-2835005D02*
X2939115Y-2757775D01*
X2861884Y-2757775D01*
X2861884Y-2835005D01*
X2939115Y-2835005D01*
X2939115Y-4404726D02*
X2939115Y-4327495D01*
X2861884Y-4327495D01*
X2861884Y-4404726D01*
X2939115Y-4404726D01*
X3193115Y-2880725D02*
X3193115Y-2803494D01*
X3115884Y-2803494D01*
X3115884Y-2880725D01*
X3193115Y-2880725D01*
X3193115Y-4359006D02*
X3193115Y-4281775D01*
X3115884Y-4281775D01*
X3115884Y-4359006D01*
X3193115Y-4359006D01*
X3447115Y-2835005D02*
X3447115Y-2757775D01*
X3369884Y-2757775D01*
X3369884Y-2835005D01*
X3447115Y-2835005D01*
X3447115Y-4404726D02*
X3447115Y-4327495D01*
X3369884Y-4327495D01*
X3369884Y-4404726D01*
X3447115Y-4404726D01*
X3701115Y-2880725D02*
X3701115Y-2803494D01*
X3623884Y-2803494D01*
X3623884Y-2880725D01*
X3701115Y-2880725D01*
X3701115Y-4359006D02*
X3701115Y-4281775D01*
X3623884Y-4281775D01*
X3623884Y-4359006D01*
X3701115Y-4359006D01*
X3955115Y-2835005D02*
X3955115Y-2757775D01*
X3877884Y-2757775D01*
X3877884Y-2835005D01*
X3955115Y-2835005D01*
X3955115Y-4404726D02*
X3955115Y-4327495D01*
X3877884Y-4327495D01*
X3877884Y-4404726D01*
X3955115Y-4404726D01*
X4209116Y-2880725D02*
X4209116Y-2803494D01*
X4131884Y-2803494D01*
X4131884Y-2880725D01*
X4209116Y-2880725D01*
X4209116Y-4359006D02*
X4209116Y-4281775D01*
X4131884Y-4281775D01*
X4131884Y-4359006D01*
X4209116Y-4359006D01*
X4463116Y-2835005D02*
X4463116Y-2757775D01*
X4385885Y-2757775D01*
X4385885Y-2835005D01*
X4463116Y-2835005D01*
X4463116Y-4404726D02*
X4463116Y-4327495D01*
X4385885Y-4327495D01*
X4385885Y-4404726D01*
X4463116Y-4404726D01*
X4717116Y-2880725D02*
X4717116Y-2803494D01*
X4639885Y-2803494D01*
X4639885Y-2880725D01*
X4717116Y-2880725D01*
X4717116Y-4359006D02*
X4717116Y-4281775D01*
X4639885Y-4281775D01*
X4639885Y-4359006D01*
X4717116Y-4359006D01*
X4971116Y-2835005D02*
X4971116Y-2757775D01*
X4893885Y-2757775D01*
X4893885Y-2835005D01*
X4971116Y-2835005D01*
X4971116Y-4404726D02*
X4971116Y-4327495D01*
X4893885Y-4327495D01*
X4893885Y-4404726D01*
X4971116Y-4404726D01*
X5225116Y-2880725D02*
X5225116Y-2803494D01*
X5147885Y-2803494D01*
X5147885Y-2880725D01*
X5225116Y-2880725D01*
X5225116Y-4359006D02*
X5225116Y-4281775D01*
X5147885Y-4281775D01*
X5147885Y-4359006D01*
X5225116Y-4359006D01*
X5479116Y-2835005D02*
X5479116Y-2757775D01*
X5401885Y-2757775D01*
X5401885Y-2835005D01*
X5479116Y-2835005D01*
X5479116Y-4404726D02*
X5479116Y-4327495D01*
X5401885Y-4327495D01*
X5401885Y-4404726D01*
X5479116Y-4404726D01*
X5733115Y-2880725D02*
X5733115Y-2803494D01*
X5655884Y-2803494D01*
X5655884Y-2880725D01*
X5733115Y-2880725D01*
X5733115Y-4359006D02*
X5733115Y-4281775D01*
X5655884Y-4281775D01*
X5655884Y-4359006D01*
X5733115Y-4359006D01*
D16*
X3185000Y-7461000D02*
X3260000Y-7386000D01*
X3185000Y-7311000D01*
X3110000Y-7386000D01*
X3185000Y-7461000D01*
X3200250Y-9371000D02*
X3275250Y-9296000D01*
X3200250Y-9221000D01*
X3125250Y-9296000D01*
X3200250Y-9371000D01*
X3200250Y-11281000D02*
X3275250Y-11206000D01*
X3200250Y-11131000D01*
X3125250Y-11206000D01*
X3200250Y-11281000D01*
X3439000Y-5551000D02*
X3514000Y-5476000D01*
X3439000Y-5401000D01*
X3364000Y-5476000D01*
X3439000Y-5551000D01*
X3677750Y-7461000D02*
X3752750Y-7386000D01*
X3677750Y-7311000D01*
X3602750Y-7386000D01*
X3677750Y-7461000D01*
X3820000Y-7207000D02*
X3895000Y-7132000D01*
X3820000Y-7057000D01*
X3745000Y-7132000D01*
X3820000Y-7207000D01*
X3835250Y-9117000D02*
X3910250Y-9042000D01*
X3835250Y-8967000D01*
X3760250Y-9042000D01*
X3835250Y-9117000D01*
X3835250Y-11027000D02*
X3910250Y-10952000D01*
X3835250Y-10877000D01*
X3760250Y-10952000D01*
X3835250Y-11027000D01*
X4074000Y-5297000D02*
X4149000Y-5222000D01*
X4074000Y-5147000D01*
X3999000Y-5222000D01*
X4074000Y-5297000D01*
X4155250Y-9369000D02*
X4230250Y-9294000D01*
X4155250Y-9219000D01*
X4080250Y-9294000D01*
X4155250Y-9369000D01*
X4312750Y-7207000D02*
X4387750Y-7132000D01*
X4312750Y-7057000D01*
X4237750Y-7132000D01*
X4312750Y-7207000D01*
X4790250Y-9115000D02*
X4865250Y-9040000D01*
X4790250Y-8965000D01*
X4715250Y-9040000D01*
X4790250Y-9115000D01*
X5349000Y-9371000D02*
X5424000Y-9296000D01*
X5349000Y-9221000D01*
X5274000Y-9296000D01*
X5349000Y-9371000D01*
X5349000Y-11281000D02*
X5424000Y-11206000D01*
X5349000Y-11131000D01*
X5274000Y-11206000D01*
X5349000Y-11281000D01*
X5826500Y-5551000D02*
X5901500Y-5476000D01*
X5826500Y-5401000D01*
X5751500Y-5476000D01*
X5826500Y-5551000D01*
X5984000Y-9117000D02*
X6059000Y-9042000D01*
X5984000Y-8967000D01*
X5909000Y-9042000D01*
X5984000Y-9117000D01*
X5984000Y-11027000D02*
X6059000Y-10952000D01*
X5984000Y-10877000D01*
X5909000Y-10952000D01*
X5984000Y-11027000D01*
X6304000Y-7461000D02*
X6379000Y-7386000D01*
X6304000Y-7311000D01*
X6229000Y-7386000D01*
X6304000Y-7461000D01*
X6461500Y-5297000D02*
X6536500Y-5222000D01*
X6461500Y-5147000D01*
X6386500Y-5222000D01*
X6461500Y-5297000D01*
X6939000Y-7207000D02*
X7014000Y-7132000D01*
X6939000Y-7057000D01*
X6864000Y-7132000D01*
X6939000Y-7207000D01*
X7259000Y-9371000D02*
X7334000Y-9296000D01*
X7259000Y-9221000D01*
X7184000Y-9296000D01*
X7259000Y-9371000D01*
X7259000Y-11281000D02*
X7334000Y-11206000D01*
X7259000Y-11131000D01*
X7184000Y-11206000D01*
X7259000Y-11281000D01*
X7497750Y-11281000D02*
X7572750Y-11206000D01*
X7497750Y-11131000D01*
X7422750Y-11206000D01*
X7497750Y-11281000D01*
X7736500Y-5551000D02*
X7811500Y-5476000D01*
X7736500Y-5401000D01*
X7661500Y-5476000D01*
X7736500Y-5551000D01*
X7894000Y-9117000D02*
X7969000Y-9042000D01*
X7894000Y-8967000D01*
X7819000Y-9042000D01*
X7894000Y-9117000D01*
X7894000Y-11027000D02*
X7969000Y-10952000D01*
X7894000Y-10877000D01*
X7819000Y-10952000D01*
X7894000Y-11027000D01*
X8132750Y-11027000D02*
X8207750Y-10952000D01*
X8132750Y-10877000D01*
X8057750Y-10952000D01*
X8132750Y-11027000D01*
X8214000Y-7461000D02*
X8289000Y-7386000D01*
X8214000Y-7311000D01*
X8139000Y-7386000D01*
X8214000Y-7461000D01*
X8371500Y-5297000D02*
X8446500Y-5222000D01*
X8371500Y-5147000D01*
X8296500Y-5222000D01*
X8371500Y-5297000D01*
X8849000Y-7207000D02*
X8924000Y-7132000D01*
X8849000Y-7057000D01*
X8774000Y-7132000D01*
X8849000Y-7207000D01*
X9169000Y-9371000D02*
X9244000Y-9296000D01*
X9169000Y-9221000D01*
X9094000Y-9296000D01*
X9169000Y-9371000D01*
X9646500Y-5551000D02*
X9721500Y-5476000D01*
X9646500Y-5401000D01*
X9571500Y-5476000D01*
X9646500Y-5551000D01*
X9804000Y-9117000D02*
X9879000Y-9042000D01*
X9804000Y-8967000D01*
X9729000Y-9042000D01*
X9804000Y-9117000D01*
X10124000Y-7461000D02*
X10199000Y-7386000D01*
X10124000Y-7311000D01*
X10049000Y-7386000D01*
X10124000Y-7461000D01*
X10281500Y-5297000D02*
X10356500Y-5222000D01*
X10281500Y-5147000D01*
X10206500Y-5222000D01*
X10281500Y-5297000D01*
X10759000Y-7207000D02*
X10834000Y-7132000D01*
X10759000Y-7057000D01*
X10684000Y-7132000D01*
X10759000Y-7207000D01*
X10850000Y-11282800D02*
X10925000Y-11207800D01*
X10850000Y-11132800D01*
X10775000Y-11207800D01*
X10850000Y-11282800D01*
X11079000Y-9371000D02*
X11154000Y-9296000D01*
X11079000Y-9221000D01*
X11004000Y-9296000D01*
X11079000Y-9371000D01*
X11485000Y-11028800D02*
X11560000Y-10953800D01*
X11485000Y-10878800D01*
X11410000Y-10953800D01*
X11485000Y-11028800D01*
X11556500Y-5551000D02*
X11631500Y-5476000D01*
X11556500Y-5401000D01*
X11481500Y-5476000D01*
X11556500Y-5551000D01*
X11714000Y-9117000D02*
X11789000Y-9042000D01*
X11714000Y-8967000D01*
X11639000Y-9042000D01*
X11714000Y-9117000D01*
X12034000Y-7461000D02*
X12109000Y-7386000D01*
X12034000Y-7311000D01*
X11959000Y-7386000D01*
X12034000Y-7461000D01*
X12191500Y-5297000D02*
X12266500Y-5222000D01*
X12191500Y-5147000D01*
X12116500Y-5222000D01*
X12191500Y-5297000D01*
X12669000Y-7207000D02*
X12744000Y-7132000D01*
X12669000Y-7057000D01*
X12594000Y-7132000D01*
X12669000Y-7207000D01*
X12989000Y-9371000D02*
X13064000Y-9296000D01*
X12989000Y-9221000D01*
X12914000Y-9296000D01*
X12989000Y-9371000D01*
X13466500Y-5551000D02*
X13541500Y-5476000D01*
X13466500Y-5401000D01*
X13391500Y-5476000D01*
X13466500Y-5551000D01*
X13624000Y-9117000D02*
X13699000Y-9042000D01*
X13624000Y-8967000D01*
X13549000Y-9042000D01*
X13624000Y-9117000D01*
X13944000Y-7461000D02*
X14019000Y-7386000D01*
X13944000Y-7311000D01*
X13869000Y-7386000D01*
X13944000Y-7461000D01*
X13945000Y-11286000D02*
X14020000Y-11211000D01*
X13945000Y-11136000D01*
X13870000Y-11211000D01*
X13945000Y-11286000D01*
X14101500Y-5297000D02*
X14176500Y-5222000D01*
X14101500Y-5147000D01*
X14026500Y-5222000D01*
X14101500Y-5297000D01*
X14182750Y-11282000D02*
X14257750Y-11207000D01*
X14182750Y-11132000D01*
X14107750Y-11207000D01*
X14182750Y-11282000D01*
X14579000Y-7207000D02*
X14654000Y-7132000D01*
X14579000Y-7057000D01*
X14504000Y-7132000D01*
X14579000Y-7207000D01*
X14580000Y-11032000D02*
X14655000Y-10957000D01*
X14580000Y-10882000D01*
X14505000Y-10957000D01*
X14580000Y-11032000D01*
X14817750Y-11028000D02*
X14892750Y-10953000D01*
X14817750Y-10878000D01*
X14742750Y-10953000D01*
X14817750Y-11028000D01*
X14899000Y-9371000D02*
X14974000Y-9296000D01*
X14899000Y-9221000D01*
X14824000Y-9296000D01*
X14899000Y-9371000D01*
X15376500Y-5551000D02*
X15451500Y-5476000D01*
X15376500Y-5401000D01*
X15301500Y-5476000D01*
X15376500Y-5551000D01*
X15534000Y-9117000D02*
X15609000Y-9042000D01*
X15534000Y-8967000D01*
X15459000Y-9042000D01*
X15534000Y-9117000D01*
X15854000Y-7461000D02*
X15929000Y-7386000D01*
X15854000Y-7311000D01*
X15779000Y-7386000D01*
X15854000Y-7461000D01*
X16011500Y-5297000D02*
X16086500Y-5222000D01*
X16011500Y-5147000D01*
X15936500Y-5222000D01*
X16011500Y-5297000D01*
X16489000Y-7207000D02*
X16564000Y-7132000D01*
X16489000Y-7057000D01*
X16414000Y-7132000D01*
X16489000Y-7207000D01*
X16809000Y-9371000D02*
X16884000Y-9296000D01*
X16809000Y-9221000D01*
X16734000Y-9296000D01*
X16809000Y-9371000D01*
X17286500Y-5551000D02*
X17361500Y-5476000D01*
X17286500Y-5401000D01*
X17211500Y-5476000D01*
X17286500Y-5551000D01*
X17444000Y-9117000D02*
X17519000Y-9042000D01*
X17444000Y-8967000D01*
X17369000Y-9042000D01*
X17444000Y-9117000D01*
X17517000Y-11280000D02*
X17592000Y-11205000D01*
X17517000Y-11130000D01*
X17442000Y-11205000D01*
X17517000Y-11280000D01*
X17764000Y-7461000D02*
X17839000Y-7386000D01*
X17764000Y-7311000D01*
X17689000Y-7386000D01*
X17764000Y-7461000D01*
X17921500Y-5297000D02*
X17996500Y-5222000D01*
X17921500Y-5147000D01*
X17846500Y-5222000D01*
X17921500Y-5297000D01*
X18152000Y-11026000D02*
X18227000Y-10951000D01*
X18152000Y-10876000D01*
X18077000Y-10951000D01*
X18152000Y-11026000D01*
X18399000Y-7207000D02*
X18474000Y-7132000D01*
X18399000Y-7057000D01*
X18324000Y-7132000D01*
X18399000Y-7207000D01*
X18719000Y-9371000D02*
X18794000Y-9296000D01*
X18719000Y-9221000D01*
X18644000Y-9296000D01*
X18719000Y-9371000D01*
X19196500Y-5551000D02*
X19271500Y-5476000D01*
X19196500Y-5401000D01*
X19121500Y-5476000D01*
X19196500Y-5551000D01*
X19354000Y-9117000D02*
X19429000Y-9042000D01*
X19354000Y-8967000D01*
X19279000Y-9042000D01*
X19354000Y-9117000D01*
X19674000Y-7461000D02*
X19749000Y-7386000D01*
X19674000Y-7311000D01*
X19599000Y-7386000D01*
X19674000Y-7461000D01*
X19831500Y-5297000D02*
X19906500Y-5222000D01*
X19831500Y-5147000D01*
X19756500Y-5222000D01*
X19831500Y-5297000D01*
X20309000Y-7207000D02*
X20384000Y-7132000D01*
X20309000Y-7057000D01*
X20234000Y-7132000D01*
X20309000Y-7207000D01*
X20629000Y-9371000D02*
X20704000Y-9296000D01*
X20629000Y-9221000D01*
X20554000Y-9296000D01*
X20629000Y-9371000D01*
X21106500Y-5551000D02*
X21181500Y-5476000D01*
X21106500Y-5401000D01*
X21031500Y-5476000D01*
X21106500Y-5551000D01*
X21264000Y-9117000D02*
X21339000Y-9042000D01*
X21264000Y-8967000D01*
X21189000Y-9042000D01*
X21264000Y-9117000D01*
X21345250Y-11281000D02*
X21420250Y-11206000D01*
X21345250Y-11131000D01*
X21270250Y-11206000D01*
X21345250Y-11281000D01*
X21584000Y-7461000D02*
X21659000Y-7386000D01*
X21584000Y-7311000D01*
X21509000Y-7386000D01*
X21584000Y-7461000D01*
X21741500Y-5297000D02*
X21816500Y-5222000D01*
X21741500Y-5147000D01*
X21666500Y-5222000D01*
X21741500Y-5297000D01*
X21980250Y-11027000D02*
X22055250Y-10952000D01*
X21980250Y-10877000D01*
X21905250Y-10952000D01*
X21980250Y-11027000D01*
X22219000Y-7207000D02*
X22294000Y-7132000D01*
X22219000Y-7057000D01*
X22144000Y-7132000D01*
X22219000Y-7207000D01*
X22539000Y-9371000D02*
X22614000Y-9296000D01*
X22539000Y-9221000D01*
X22464000Y-9296000D01*
X22539000Y-9371000D01*
X23016500Y-5551000D02*
X23091500Y-5476000D01*
X23016500Y-5401000D01*
X22941500Y-5476000D01*
X23016500Y-5551000D01*
X23034540Y-3402250D02*
X23109540Y-3327250D01*
X23034540Y-3252250D01*
X22959540Y-3327250D01*
X23034540Y-3402250D01*
X23174000Y-9117000D02*
X23249000Y-9042000D01*
X23174000Y-8967000D01*
X23099000Y-9042000D01*
X23174000Y-9117000D01*
X23494000Y-7461000D02*
X23569000Y-7386000D01*
X23494000Y-7311000D01*
X23419000Y-7386000D01*
X23494000Y-7461000D01*
X23494000Y-11281000D02*
X23569000Y-11206000D01*
X23494000Y-11131000D01*
X23419000Y-11206000D01*
X23494000Y-11281000D01*
X23651500Y-5297000D02*
X23726500Y-5222000D01*
X23651500Y-5147000D01*
X23576500Y-5222000D01*
X23651500Y-5297000D01*
X23669540Y-3148250D02*
X23744540Y-3073250D01*
X23669540Y-2998250D01*
X23594540Y-3073250D01*
X23669540Y-3148250D01*
X24129000Y-7207000D02*
X24204000Y-7132000D01*
X24129000Y-7057000D01*
X24054000Y-7132000D01*
X24129000Y-7207000D01*
X24129000Y-11027000D02*
X24204000Y-10952000D01*
X24129000Y-10877000D01*
X24054000Y-10952000D01*
X24129000Y-11027000D01*
X24687750Y-7461000D02*
X24762750Y-7386000D01*
X24687750Y-7311000D01*
X24612750Y-7386000D01*
X24687750Y-7461000D01*
X25165250Y-9371000D02*
X25240250Y-9296000D01*
X25165250Y-9221000D01*
X25090250Y-9296000D01*
X25165250Y-9371000D01*
X25322750Y-7207000D02*
X25397750Y-7132000D01*
X25322750Y-7057000D01*
X25247750Y-7132000D01*
X25322750Y-7207000D01*
X25404000Y-5551000D02*
X25479000Y-5476000D01*
X25404000Y-5401000D01*
X25329000Y-5476000D01*
X25404000Y-5551000D01*
X25642750Y-7461000D02*
X25717750Y-7386000D01*
X25642750Y-7311000D01*
X25567750Y-7386000D01*
X25642750Y-7461000D01*
X25642750Y-11281000D02*
X25717750Y-11206000D01*
X25642750Y-11131000D01*
X25567750Y-11206000D01*
X25642750Y-11281000D01*
X25800250Y-9117000D02*
X25875250Y-9042000D01*
X25800250Y-8967000D01*
X25725250Y-9042000D01*
X25800250Y-9117000D01*
X25881500Y-3363700D02*
X25956500Y-3288700D01*
X25881500Y-3213700D01*
X25806500Y-3288700D01*
X25881500Y-3363700D01*
X26039000Y-5297000D02*
X26114000Y-5222000D01*
X26039000Y-5147000D01*
X25964000Y-5222000D01*
X26039000Y-5297000D01*
X26277750Y-7207000D02*
X26352750Y-7132000D01*
X26277750Y-7057000D01*
X26202750Y-7132000D01*
X26277750Y-7207000D01*
X26277750Y-11027000D02*
X26352750Y-10952000D01*
X26277750Y-10877000D01*
X26202750Y-10952000D01*
X26277750Y-11027000D01*
X26516500Y-3109700D02*
X26591500Y-3034700D01*
X26516500Y-2959700D01*
X26441500Y-3034700D01*
X26516500Y-3109700D01*
D11*
X2640119Y-12730476D02*
X2640119Y-12530476D01*
X2687738Y-12530476D01*
X2716310Y-12540000D01*
X2735357Y-12559048D01*
X2744881Y-12578095D01*
X2754405Y-12616190D01*
X2754405Y-12644762D01*
X2744881Y-12682857D01*
X2735357Y-12701905D01*
X2716310Y-12720952D01*
X2687738Y-12730476D01*
X2640119Y-12730476D01*
X2840119Y-12730476D02*
X2840119Y-12597143D01*
X2840119Y-12635238D02*
X2849643Y-12616190D01*
X2859167Y-12606667D01*
X2878214Y-12597143D01*
X2897262Y-12597143D01*
X2963928Y-12730476D02*
X2963928Y-12597143D01*
X2963928Y-12530476D02*
X2954405Y-12540000D01*
X2963928Y-12549524D01*
X2973452Y-12540000D01*
X2963928Y-12530476D01*
X2963928Y-12549524D01*
X3087738Y-12730476D02*
X3068690Y-12720952D01*
X3059167Y-12701905D01*
X3059167Y-12530476D01*
X3192500Y-12730476D02*
X3173452Y-12720952D01*
X3163928Y-12701905D01*
X3163928Y-12530476D01*
X3421071Y-12730476D02*
X3421071Y-12530476D01*
X3487738Y-12673333D01*
X3554405Y-12530476D01*
X3554405Y-12730476D01*
X3735357Y-12730476D02*
X3735357Y-12625714D01*
X3725833Y-12606667D01*
X3706786Y-12597143D01*
X3668690Y-12597143D01*
X3649643Y-12606667D01*
X3735357Y-12720952D02*
X3716309Y-12730476D01*
X3668690Y-12730476D01*
X3649643Y-12720952D01*
X3640119Y-12701905D01*
X3640119Y-12682857D01*
X3649643Y-12663809D01*
X3668690Y-12654286D01*
X3716309Y-12654286D01*
X3735357Y-12644762D01*
X3830595Y-12597143D02*
X3830595Y-12797143D01*
X3830595Y-12606667D02*
X3849643Y-12597143D01*
X3887738Y-12597143D01*
X3906786Y-12606667D01*
X3916309Y-12616190D01*
X3925833Y-12635238D01*
X3925833Y-12692381D01*
X3916309Y-12711428D01*
X3906786Y-12720952D01*
X3887738Y-12730476D01*
X3849643Y-12730476D01*
X3830595Y-12720952D01*
X4011548Y-12711428D02*
X4021071Y-12720952D01*
X4011548Y-12730476D01*
X4002024Y-12720952D01*
X4011548Y-12711428D01*
X4011548Y-12730476D01*
X4011548Y-12606667D02*
X4021071Y-12616190D01*
X4011548Y-12625714D01*
X4002024Y-12616190D01*
X4011548Y-12606667D01*
X4011548Y-12625714D01*
D12*
X2342500Y-13040000D02*
X2382500Y-13080000D01*
X2382500Y-13040000D02*
X2342500Y-13080000D01*
D11*
X2678214Y-12950476D02*
X2697262Y-12950476D01*
X2716310Y-12960000D01*
X2725833Y-12969524D01*
X2735357Y-12988571D01*
X2744881Y-13026667D01*
X2744881Y-13074286D01*
X2735357Y-13112381D01*
X2725833Y-13131428D01*
X2716310Y-13140952D01*
X2697262Y-13150476D01*
X2678214Y-13150476D01*
X2659167Y-13140952D01*
X2649643Y-13131428D01*
X2640119Y-13112381D01*
X2630595Y-13074286D01*
X2630595Y-13026667D01*
X2640119Y-12988571D01*
X2649643Y-12969524D01*
X2659167Y-12960000D01*
X2678214Y-12950476D01*
X2830595Y-13131428D02*
X2840119Y-13140952D01*
X2830595Y-13150476D01*
X2821071Y-13140952D01*
X2830595Y-13131428D01*
X2830595Y-13150476D01*
X3011548Y-13017143D02*
X3011548Y-13150476D01*
X2963928Y-12940952D02*
X2916309Y-13083809D01*
X3040119Y-13083809D01*
X3154405Y-12950476D02*
X3173452Y-12950476D01*
X3192500Y-12960000D01*
X3202024Y-12969524D01*
X3211548Y-12988571D01*
X3221071Y-13026667D01*
X3221071Y-13074286D01*
X3211548Y-13112381D01*
X3202024Y-13131428D01*
X3192500Y-13140952D01*
X3173452Y-13150476D01*
X3154405Y-13150476D01*
X3135357Y-13140952D01*
X3125833Y-13131428D01*
X3116309Y-13112381D01*
X3106786Y-13074286D01*
X3106786Y-13026667D01*
X3116309Y-12988571D01*
X3125833Y-12969524D01*
X3135357Y-12960000D01*
X3154405Y-12950476D01*
X3344881Y-12950476D02*
X3363928Y-12950476D01*
X3382976Y-12960000D01*
X3392500Y-12969524D01*
X3402024Y-12988571D01*
X3411548Y-13026667D01*
X3411548Y-13074286D01*
X3402024Y-13112381D01*
X3392500Y-13131428D01*
X3382976Y-13140952D01*
X3363928Y-13150476D01*
X3344881Y-13150476D01*
X3325833Y-13140952D01*
X3316309Y-13131428D01*
X3306786Y-13112381D01*
X3297262Y-13074286D01*
X3297262Y-13026667D01*
X3306786Y-12988571D01*
X3316309Y-12969524D01*
X3325833Y-12960000D01*
X3344881Y-12950476D01*
X3497262Y-13150476D02*
X3497262Y-13017143D01*
X3497262Y-13036190D02*
X3506786Y-13026667D01*
X3525833Y-13017143D01*
X3554405Y-13017143D01*
X3573452Y-13026667D01*
X3582976Y-13045714D01*
X3582976Y-13150476D01*
X3582976Y-13045714D02*
X3592500Y-13026667D01*
X3611548Y-13017143D01*
X3640119Y-13017143D01*
X3659167Y-13026667D01*
X3668690Y-13045714D01*
X3668690Y-13150476D01*
X3763928Y-13150476D02*
X3763928Y-13017143D01*
X3763928Y-13036190D02*
X3773452Y-13026667D01*
X3792500Y-13017143D01*
X3821071Y-13017143D01*
X3840119Y-13026667D01*
X3849643Y-13045714D01*
X3849643Y-13150476D01*
X3849643Y-13045714D02*
X3859167Y-13026667D01*
X3878214Y-13017143D01*
X3906786Y-13017143D01*
X3925833Y-13026667D01*
X3935357Y-13045714D01*
X3935357Y-13150476D01*
X4325833Y-12940952D02*
X4154405Y-13198095D01*
X4582976Y-12950476D02*
X4602024Y-12950476D01*
X4621071Y-12960000D01*
X4630595Y-12969524D01*
X4640119Y-12988571D01*
X4649643Y-13026667D01*
X4649643Y-13074286D01*
X4640119Y-13112381D01*
X4630595Y-13131428D01*
X4621071Y-13140952D01*
X4602024Y-13150476D01*
X4582976Y-13150476D01*
X4563929Y-13140952D01*
X4554405Y-13131428D01*
X4544881Y-13112381D01*
X4535357Y-13074286D01*
X4535357Y-13026667D01*
X4544881Y-12988571D01*
X4554405Y-12969524D01*
X4563929Y-12960000D01*
X4582976Y-12950476D01*
X4735357Y-13131428D02*
X4744881Y-13140952D01*
X4735357Y-13150476D01*
X4725833Y-13140952D01*
X4735357Y-13131428D01*
X4735357Y-13150476D01*
X4868690Y-12950476D02*
X4887738Y-12950476D01*
X4906786Y-12960000D01*
X4916310Y-12969524D01*
X4925833Y-12988571D01*
X4935357Y-13026667D01*
X4935357Y-13074286D01*
X4925833Y-13112381D01*
X4916310Y-13131428D01*
X4906786Y-13140952D01*
X4887738Y-13150476D01*
X4868690Y-13150476D01*
X4849643Y-13140952D01*
X4840119Y-13131428D01*
X4830595Y-13112381D01*
X4821071Y-13074286D01*
X4821071Y-13026667D01*
X4830595Y-12988571D01*
X4840119Y-12969524D01*
X4849643Y-12960000D01*
X4868690Y-12950476D01*
X5125833Y-13150476D02*
X5011548Y-13150476D01*
X5068690Y-13150476D02*
X5068690Y-12950476D01*
X5049643Y-12979048D01*
X5030595Y-12998095D01*
X5011548Y-13007619D01*
X5306786Y-12950476D02*
X5211548Y-12950476D01*
X5202024Y-13045714D01*
X5211548Y-13036190D01*
X5230595Y-13026667D01*
X5278214Y-13026667D01*
X5297262Y-13036190D01*
X5306786Y-13045714D01*
X5316310Y-13064762D01*
X5316310Y-13112381D01*
X5306786Y-13131428D01*
X5297262Y-13140952D01*
X5278214Y-13150476D01*
X5230595Y-13150476D01*
X5211548Y-13140952D01*
X5202024Y-13131428D01*
X5382976Y-12950476D02*
X5516310Y-12950476D01*
X5430595Y-13150476D01*
X5582976Y-12950476D02*
X5582976Y-12988571D01*
X5659167Y-12950476D02*
X5659167Y-12988571D01*
X5954405Y-13226667D02*
X5944881Y-13217143D01*
X5925833Y-13188571D01*
X5916309Y-13169524D01*
X5906786Y-13140952D01*
X5897262Y-13093333D01*
X5897262Y-13055238D01*
X5906786Y-13007619D01*
X5916309Y-12979048D01*
X5925833Y-12960000D01*
X5944881Y-12931428D01*
X5954405Y-12921905D01*
X6059167Y-13036190D02*
X6040119Y-13026667D01*
X6030595Y-13017143D01*
X6021071Y-12998095D01*
X6021071Y-12988571D01*
X6030595Y-12969524D01*
X6040119Y-12960000D01*
X6059167Y-12950476D01*
X6097262Y-12950476D01*
X6116309Y-12960000D01*
X6125833Y-12969524D01*
X6135357Y-12988571D01*
X6135357Y-12998095D01*
X6125833Y-13017143D01*
X6116309Y-13026667D01*
X6097262Y-13036190D01*
X6059167Y-13036190D01*
X6040119Y-13045714D01*
X6030595Y-13055238D01*
X6021071Y-13074286D01*
X6021071Y-13112381D01*
X6030595Y-13131428D01*
X6040119Y-13140952D01*
X6059167Y-13150476D01*
X6097262Y-13150476D01*
X6116309Y-13140952D01*
X6125833Y-13131428D01*
X6135357Y-13112381D01*
X6135357Y-13074286D01*
X6125833Y-13055238D01*
X6116309Y-13045714D01*
X6097262Y-13036190D01*
X6373452Y-13150476D02*
X6373452Y-12950476D01*
X6459167Y-13150476D02*
X6459167Y-13045714D01*
X6449643Y-13026667D01*
X6430595Y-13017143D01*
X6402024Y-13017143D01*
X6382976Y-13026667D01*
X6373452Y-13036190D01*
X6582976Y-13150476D02*
X6563928Y-13140952D01*
X6554405Y-13131428D01*
X6544881Y-13112381D01*
X6544881Y-13055238D01*
X6554405Y-13036190D01*
X6563928Y-13026667D01*
X6582976Y-13017143D01*
X6611548Y-13017143D01*
X6630595Y-13026667D01*
X6640119Y-13036190D01*
X6649643Y-13055238D01*
X6649643Y-13112381D01*
X6640119Y-13131428D01*
X6630595Y-13140952D01*
X6611548Y-13150476D01*
X6582976Y-13150476D01*
X6763928Y-13150476D02*
X6744881Y-13140952D01*
X6735357Y-13121905D01*
X6735357Y-12950476D01*
X6916309Y-13140952D02*
X6897262Y-13150476D01*
X6859167Y-13150476D01*
X6840119Y-13140952D01*
X6830595Y-13121905D01*
X6830595Y-13045714D01*
X6840119Y-13026667D01*
X6859167Y-13017143D01*
X6897262Y-13017143D01*
X6916309Y-13026667D01*
X6925833Y-13045714D01*
X6925833Y-13064762D01*
X6830595Y-13083809D01*
X7002024Y-13140952D02*
X7021071Y-13150476D01*
X7059167Y-13150476D01*
X7078214Y-13140952D01*
X7087738Y-13121905D01*
X7087738Y-13112381D01*
X7078214Y-13093333D01*
X7059167Y-13083809D01*
X7030595Y-13083809D01*
X7011548Y-13074286D01*
X7002024Y-13055238D01*
X7002024Y-13045714D01*
X7011548Y-13026667D01*
X7030595Y-13017143D01*
X7059167Y-13017143D01*
X7078214Y-13026667D01*
X7154405Y-13226667D02*
X7163928Y-13217143D01*
X7182976Y-13188571D01*
X7192500Y-13169524D01*
X7202024Y-13140952D01*
X7211548Y-13093333D01*
X7211548Y-13055238D01*
X7202024Y-13007619D01*
X7192500Y-12979048D01*
X7182976Y-12960000D01*
X7163928Y-12931428D01*
X7154405Y-12921905D01*
D13*
X2382500Y-13324000D02*
G75*
G03*
X2382500Y-13324000I-49530J0D01*
G01*
D11*
X2678214Y-13214476D02*
X2697262Y-13214476D01*
X2716310Y-13224000D01*
X2725833Y-13233524D01*
X2735357Y-13252571D01*
X2744881Y-13290667D01*
X2744881Y-13338286D01*
X2735357Y-13376381D01*
X2725833Y-13395428D01*
X2716310Y-13404952D01*
X2697262Y-13414476D01*
X2678214Y-13414476D01*
X2659167Y-13404952D01*
X2649643Y-13395428D01*
X2640119Y-13376381D01*
X2630595Y-13338286D01*
X2630595Y-13290667D01*
X2640119Y-13252571D01*
X2649643Y-13233524D01*
X2659167Y-13224000D01*
X2678214Y-13214476D01*
X2830595Y-13395428D02*
X2840119Y-13404952D01*
X2830595Y-13414476D01*
X2821071Y-13404952D01*
X2830595Y-13395428D01*
X2830595Y-13414476D01*
X2935357Y-13414476D02*
X2973452Y-13414476D01*
X2992500Y-13404952D01*
X3002024Y-13395428D01*
X3021071Y-13366857D01*
X3030595Y-13328762D01*
X3030595Y-13252571D01*
X3021071Y-13233524D01*
X3011548Y-13224000D01*
X2992500Y-13214476D01*
X2954405Y-13214476D01*
X2935357Y-13224000D01*
X2925833Y-13233524D01*
X2916309Y-13252571D01*
X2916309Y-13300190D01*
X2925833Y-13319238D01*
X2935357Y-13328762D01*
X2954405Y-13338286D01*
X2992500Y-13338286D01*
X3011548Y-13328762D01*
X3021071Y-13319238D01*
X3030595Y-13300190D01*
X3125833Y-13414476D02*
X3163928Y-13414476D01*
X3182976Y-13404952D01*
X3192500Y-13395428D01*
X3211548Y-13366857D01*
X3221071Y-13328762D01*
X3221071Y-13252571D01*
X3211548Y-13233524D01*
X3202024Y-13224000D01*
X3182976Y-13214476D01*
X3144881Y-13214476D01*
X3125833Y-13224000D01*
X3116309Y-13233524D01*
X3106786Y-13252571D01*
X3106786Y-13300190D01*
X3116309Y-13319238D01*
X3125833Y-13328762D01*
X3144881Y-13338286D01*
X3182976Y-13338286D01*
X3202024Y-13328762D01*
X3211548Y-13319238D01*
X3221071Y-13300190D01*
X3411548Y-13414476D02*
X3297262Y-13414476D01*
X3354405Y-13414476D02*
X3354405Y-13214476D01*
X3335357Y-13243048D01*
X3316309Y-13262095D01*
X3297262Y-13271619D01*
X3497262Y-13414476D02*
X3497262Y-13281143D01*
X3497262Y-13300190D02*
X3506786Y-13290667D01*
X3525833Y-13281143D01*
X3554405Y-13281143D01*
X3573452Y-13290667D01*
X3582976Y-13309714D01*
X3582976Y-13414476D01*
X3582976Y-13309714D02*
X3592500Y-13290667D01*
X3611548Y-13281143D01*
X3640119Y-13281143D01*
X3659167Y-13290667D01*
X3668690Y-13309714D01*
X3668690Y-13414476D01*
X3763928Y-13414476D02*
X3763928Y-13281143D01*
X3763928Y-13300190D02*
X3773452Y-13290667D01*
X3792500Y-13281143D01*
X3821071Y-13281143D01*
X3840119Y-13290667D01*
X3849643Y-13309714D01*
X3849643Y-13414476D01*
X3849643Y-13309714D02*
X3859167Y-13290667D01*
X3878214Y-13281143D01*
X3906786Y-13281143D01*
X3925833Y-13290667D01*
X3935357Y-13309714D01*
X3935357Y-13414476D01*
X4325833Y-13204952D02*
X4154405Y-13462095D01*
X4582976Y-13214476D02*
X4602024Y-13214476D01*
X4621071Y-13224000D01*
X4630595Y-13233524D01*
X4640119Y-13252571D01*
X4649643Y-13290667D01*
X4649643Y-13338286D01*
X4640119Y-13376381D01*
X4630595Y-13395428D01*
X4621071Y-13404952D01*
X4602024Y-13414476D01*
X4582976Y-13414476D01*
X4563929Y-13404952D01*
X4554405Y-13395428D01*
X4544881Y-13376381D01*
X4535357Y-13338286D01*
X4535357Y-13290667D01*
X4544881Y-13252571D01*
X4554405Y-13233524D01*
X4563929Y-13224000D01*
X4582976Y-13214476D01*
X4735357Y-13395428D02*
X4744881Y-13404952D01*
X4735357Y-13414476D01*
X4725833Y-13404952D01*
X4735357Y-13395428D01*
X4735357Y-13414476D01*
X4868690Y-13214476D02*
X4887738Y-13214476D01*
X4906786Y-13224000D01*
X4916310Y-13233524D01*
X4925833Y-13252571D01*
X4935357Y-13290667D01*
X4935357Y-13338286D01*
X4925833Y-13376381D01*
X4916310Y-13395428D01*
X4906786Y-13404952D01*
X4887738Y-13414476D01*
X4868690Y-13414476D01*
X4849643Y-13404952D01*
X4840119Y-13395428D01*
X4830595Y-13376381D01*
X4821071Y-13338286D01*
X4821071Y-13290667D01*
X4830595Y-13252571D01*
X4840119Y-13233524D01*
X4849643Y-13224000D01*
X4868690Y-13214476D01*
X5002024Y-13214476D02*
X5125833Y-13214476D01*
X5059167Y-13290667D01*
X5087738Y-13290667D01*
X5106786Y-13300190D01*
X5116310Y-13309714D01*
X5125833Y-13328762D01*
X5125833Y-13376381D01*
X5116310Y-13395428D01*
X5106786Y-13404952D01*
X5087738Y-13414476D01*
X5030595Y-13414476D01*
X5011548Y-13404952D01*
X5002024Y-13395428D01*
X5221071Y-13414476D02*
X5259167Y-13414476D01*
X5278214Y-13404952D01*
X5287738Y-13395428D01*
X5306786Y-13366857D01*
X5316310Y-13328762D01*
X5316310Y-13252571D01*
X5306786Y-13233524D01*
X5297262Y-13224000D01*
X5278214Y-13214476D01*
X5240119Y-13214476D01*
X5221071Y-13224000D01*
X5211548Y-13233524D01*
X5202024Y-13252571D01*
X5202024Y-13300190D01*
X5211548Y-13319238D01*
X5221071Y-13328762D01*
X5240119Y-13338286D01*
X5278214Y-13338286D01*
X5297262Y-13328762D01*
X5306786Y-13319238D01*
X5316310Y-13300190D01*
X5440119Y-13214476D02*
X5459167Y-13214476D01*
X5478214Y-13224000D01*
X5487738Y-13233524D01*
X5497262Y-13252571D01*
X5506786Y-13290667D01*
X5506786Y-13338286D01*
X5497262Y-13376381D01*
X5487738Y-13395428D01*
X5478214Y-13404952D01*
X5459167Y-13414476D01*
X5440119Y-13414476D01*
X5421071Y-13404952D01*
X5411548Y-13395428D01*
X5402024Y-13376381D01*
X5392500Y-13338286D01*
X5392500Y-13290667D01*
X5402024Y-13252571D01*
X5411548Y-13233524D01*
X5421071Y-13224000D01*
X5440119Y-13214476D01*
X5582976Y-13214476D02*
X5582976Y-13252571D01*
X5659167Y-13214476D02*
X5659167Y-13252571D01*
X5954405Y-13490667D02*
X5944881Y-13481143D01*
X5925833Y-13452571D01*
X5916309Y-13433524D01*
X5906786Y-13404952D01*
X5897262Y-13357333D01*
X5897262Y-13319238D01*
X5906786Y-13271619D01*
X5916309Y-13243048D01*
X5925833Y-13224000D01*
X5944881Y-13195428D01*
X5954405Y-13185905D01*
X6040119Y-13414476D02*
X6078214Y-13414476D01*
X6097262Y-13404952D01*
X6106786Y-13395428D01*
X6125833Y-13366857D01*
X6135357Y-13328762D01*
X6135357Y-13252571D01*
X6125833Y-13233524D01*
X6116309Y-13224000D01*
X6097262Y-13214476D01*
X6059167Y-13214476D01*
X6040119Y-13224000D01*
X6030595Y-13233524D01*
X6021071Y-13252571D01*
X6021071Y-13300190D01*
X6030595Y-13319238D01*
X6040119Y-13328762D01*
X6059167Y-13338286D01*
X6097262Y-13338286D01*
X6116309Y-13328762D01*
X6125833Y-13319238D01*
X6135357Y-13300190D01*
X6306786Y-13281143D02*
X6306786Y-13414476D01*
X6259167Y-13204952D02*
X6211548Y-13347809D01*
X6335357Y-13347809D01*
X6563928Y-13414476D02*
X6563928Y-13214476D01*
X6649643Y-13414476D02*
X6649643Y-13309714D01*
X6640119Y-13290667D01*
X6621071Y-13281143D01*
X6592500Y-13281143D01*
X6573452Y-13290667D01*
X6563928Y-13300190D01*
X6773452Y-13414476D02*
X6754405Y-13404952D01*
X6744881Y-13395428D01*
X6735357Y-13376381D01*
X6735357Y-13319238D01*
X6744881Y-13300190D01*
X6754405Y-13290667D01*
X6773452Y-13281143D01*
X6802024Y-13281143D01*
X6821071Y-13290667D01*
X6830595Y-13300190D01*
X6840119Y-13319238D01*
X6840119Y-13376381D01*
X6830595Y-13395428D01*
X6821071Y-13404952D01*
X6802024Y-13414476D01*
X6773452Y-13414476D01*
X6954405Y-13414476D02*
X6935357Y-13404952D01*
X6925833Y-13385905D01*
X6925833Y-13214476D01*
X7106786Y-13404952D02*
X7087738Y-13414476D01*
X7049643Y-13414476D01*
X7030595Y-13404952D01*
X7021071Y-13385905D01*
X7021071Y-13309714D01*
X7030595Y-13290667D01*
X7049643Y-13281143D01*
X7087738Y-13281143D01*
X7106786Y-13290667D01*
X7116309Y-13309714D01*
X7116309Y-13328762D01*
X7021071Y-13347809D01*
X7192500Y-13404952D02*
X7211548Y-13414476D01*
X7249643Y-13414476D01*
X7268690Y-13404952D01*
X7278214Y-13385905D01*
X7278214Y-13376381D01*
X7268690Y-13357333D01*
X7249643Y-13347809D01*
X7221071Y-13347809D01*
X7202024Y-13338286D01*
X7192500Y-13319238D01*
X7192500Y-13309714D01*
X7202024Y-13290667D01*
X7221071Y-13281143D01*
X7249643Y-13281143D01*
X7268690Y-13290667D01*
X7344881Y-13490667D02*
X7354405Y-13481143D01*
X7373452Y-13452571D01*
X7382976Y-13433524D01*
X7392500Y-13404952D01*
X7402024Y-13357333D01*
X7402024Y-13319238D01*
X7392500Y-13271619D01*
X7382976Y-13243048D01*
X7373452Y-13224000D01*
X7354405Y-13195428D01*
X7344881Y-13185905D01*
D14*
X2332500Y-13538000D02*
X2332500Y-13638000D01*
X2282500Y-13588000D02*
X2382500Y-13588000D01*
D11*
X2744881Y-13678476D02*
X2630595Y-13678476D01*
X2687738Y-13678476D02*
X2687738Y-13478476D01*
X2668690Y-13507048D01*
X2649643Y-13526095D01*
X2630595Y-13535619D01*
X2830595Y-13659428D02*
X2840119Y-13668952D01*
X2830595Y-13678476D01*
X2821071Y-13668952D01*
X2830595Y-13659428D01*
X2830595Y-13678476D01*
X2963928Y-13478476D02*
X2982976Y-13478476D01*
X3002024Y-13488000D01*
X3011548Y-13497524D01*
X3021071Y-13516571D01*
X3030595Y-13554667D01*
X3030595Y-13602286D01*
X3021071Y-13640381D01*
X3011548Y-13659428D01*
X3002024Y-13668952D01*
X2982976Y-13678476D01*
X2963928Y-13678476D01*
X2944881Y-13668952D01*
X2935357Y-13659428D01*
X2925833Y-13640381D01*
X2916309Y-13602286D01*
X2916309Y-13554667D01*
X2925833Y-13516571D01*
X2935357Y-13497524D01*
X2944881Y-13488000D01*
X2963928Y-13478476D01*
X3154405Y-13478476D02*
X3173452Y-13478476D01*
X3192500Y-13488000D01*
X3202024Y-13497524D01*
X3211548Y-13516571D01*
X3221071Y-13554667D01*
X3221071Y-13602286D01*
X3211548Y-13640381D01*
X3202024Y-13659428D01*
X3192500Y-13668952D01*
X3173452Y-13678476D01*
X3154405Y-13678476D01*
X3135357Y-13668952D01*
X3125833Y-13659428D01*
X3116309Y-13640381D01*
X3106786Y-13602286D01*
X3106786Y-13554667D01*
X3116309Y-13516571D01*
X3125833Y-13497524D01*
X3135357Y-13488000D01*
X3154405Y-13478476D01*
X3344881Y-13478476D02*
X3363928Y-13478476D01*
X3382976Y-13488000D01*
X3392500Y-13497524D01*
X3402024Y-13516571D01*
X3411548Y-13554667D01*
X3411548Y-13602286D01*
X3402024Y-13640381D01*
X3392500Y-13659428D01*
X3382976Y-13668952D01*
X3363928Y-13678476D01*
X3344881Y-13678476D01*
X3325833Y-13668952D01*
X3316309Y-13659428D01*
X3306786Y-13640381D01*
X3297262Y-13602286D01*
X3297262Y-13554667D01*
X3306786Y-13516571D01*
X3316309Y-13497524D01*
X3325833Y-13488000D01*
X3344881Y-13478476D01*
X3497262Y-13678476D02*
X3497262Y-13545143D01*
X3497262Y-13564190D02*
X3506786Y-13554667D01*
X3525833Y-13545143D01*
X3554405Y-13545143D01*
X3573452Y-13554667D01*
X3582976Y-13573714D01*
X3582976Y-13678476D01*
X3582976Y-13573714D02*
X3592500Y-13554667D01*
X3611548Y-13545143D01*
X3640119Y-13545143D01*
X3659167Y-13554667D01*
X3668690Y-13573714D01*
X3668690Y-13678476D01*
X3763928Y-13678476D02*
X3763928Y-13545143D01*
X3763928Y-13564190D02*
X3773452Y-13554667D01*
X3792500Y-13545143D01*
X3821071Y-13545143D01*
X3840119Y-13554667D01*
X3849643Y-13573714D01*
X3849643Y-13678476D01*
X3849643Y-13573714D02*
X3859167Y-13554667D01*
X3878214Y-13545143D01*
X3906786Y-13545143D01*
X3925833Y-13554667D01*
X3935357Y-13573714D01*
X3935357Y-13678476D01*
X4325833Y-13468952D02*
X4154405Y-13726095D01*
X4582976Y-13478476D02*
X4602024Y-13478476D01*
X4621071Y-13488000D01*
X4630595Y-13497524D01*
X4640119Y-13516571D01*
X4649643Y-13554667D01*
X4649643Y-13602286D01*
X4640119Y-13640381D01*
X4630595Y-13659428D01*
X4621071Y-13668952D01*
X4602024Y-13678476D01*
X4582976Y-13678476D01*
X4563929Y-13668952D01*
X4554405Y-13659428D01*
X4544881Y-13640381D01*
X4535357Y-13602286D01*
X4535357Y-13554667D01*
X4544881Y-13516571D01*
X4554405Y-13497524D01*
X4563929Y-13488000D01*
X4582976Y-13478476D01*
X4735357Y-13659428D02*
X4744881Y-13668952D01*
X4735357Y-13678476D01*
X4725833Y-13668952D01*
X4735357Y-13659428D01*
X4735357Y-13678476D01*
X4868690Y-13478476D02*
X4887738Y-13478476D01*
X4906786Y-13488000D01*
X4916310Y-13497524D01*
X4925833Y-13516571D01*
X4935357Y-13554667D01*
X4935357Y-13602286D01*
X4925833Y-13640381D01*
X4916310Y-13659428D01*
X4906786Y-13668952D01*
X4887738Y-13678476D01*
X4868690Y-13678476D01*
X4849643Y-13668952D01*
X4840119Y-13659428D01*
X4830595Y-13640381D01*
X4821071Y-13602286D01*
X4821071Y-13554667D01*
X4830595Y-13516571D01*
X4840119Y-13497524D01*
X4849643Y-13488000D01*
X4868690Y-13478476D01*
X5002024Y-13478476D02*
X5125833Y-13478476D01*
X5059167Y-13554667D01*
X5087738Y-13554667D01*
X5106786Y-13564190D01*
X5116310Y-13573714D01*
X5125833Y-13592762D01*
X5125833Y-13640381D01*
X5116310Y-13659428D01*
X5106786Y-13668952D01*
X5087738Y-13678476D01*
X5030595Y-13678476D01*
X5011548Y-13668952D01*
X5002024Y-13659428D01*
X5221071Y-13678476D02*
X5259167Y-13678476D01*
X5278214Y-13668952D01*
X5287738Y-13659428D01*
X5306786Y-13630857D01*
X5316310Y-13592762D01*
X5316310Y-13516571D01*
X5306786Y-13497524D01*
X5297262Y-13488000D01*
X5278214Y-13478476D01*
X5240119Y-13478476D01*
X5221071Y-13488000D01*
X5211548Y-13497524D01*
X5202024Y-13516571D01*
X5202024Y-13564190D01*
X5211548Y-13583238D01*
X5221071Y-13592762D01*
X5240119Y-13602286D01*
X5278214Y-13602286D01*
X5297262Y-13592762D01*
X5306786Y-13583238D01*
X5316310Y-13564190D01*
X5487738Y-13545143D02*
X5487738Y-13678476D01*
X5440119Y-13468952D02*
X5392500Y-13611809D01*
X5516310Y-13611809D01*
X5582976Y-13478476D02*
X5582976Y-13516571D01*
X5659167Y-13478476D02*
X5659167Y-13516571D01*
X5954405Y-13754667D02*
X5944881Y-13745143D01*
X5925833Y-13716571D01*
X5916309Y-13697524D01*
X5906786Y-13668952D01*
X5897262Y-13621333D01*
X5897262Y-13583238D01*
X5906786Y-13535619D01*
X5916309Y-13507048D01*
X5925833Y-13488000D01*
X5944881Y-13459428D01*
X5954405Y-13449905D01*
X6135357Y-13678476D02*
X6021071Y-13678476D01*
X6078214Y-13678476D02*
X6078214Y-13478476D01*
X6059167Y-13507048D01*
X6040119Y-13526095D01*
X6021071Y-13535619D01*
X6306786Y-13545143D02*
X6306786Y-13678476D01*
X6259167Y-13468952D02*
X6211548Y-13611809D01*
X6335357Y-13611809D01*
X6563928Y-13678476D02*
X6563928Y-13478476D01*
X6649643Y-13678476D02*
X6649643Y-13573714D01*
X6640119Y-13554667D01*
X6621071Y-13545143D01*
X6592500Y-13545143D01*
X6573452Y-13554667D01*
X6563928Y-13564190D01*
X6773452Y-13678476D02*
X6754405Y-13668952D01*
X6744881Y-13659428D01*
X6735357Y-13640381D01*
X6735357Y-13583238D01*
X6744881Y-13564190D01*
X6754405Y-13554667D01*
X6773452Y-13545143D01*
X6802024Y-13545143D01*
X6821071Y-13554667D01*
X6830595Y-13564190D01*
X6840119Y-13583238D01*
X6840119Y-13640381D01*
X6830595Y-13659428D01*
X6821071Y-13668952D01*
X6802024Y-13678476D01*
X6773452Y-13678476D01*
X6954405Y-13678476D02*
X6935357Y-13668952D01*
X6925833Y-13649905D01*
X6925833Y-13478476D01*
X7106786Y-13668952D02*
X7087738Y-13678476D01*
X7049643Y-13678476D01*
X7030595Y-13668952D01*
X7021071Y-13649905D01*
X7021071Y-13573714D01*
X7030595Y-13554667D01*
X7049643Y-13545143D01*
X7087738Y-13545143D01*
X7106786Y-13554667D01*
X7116309Y-13573714D01*
X7116309Y-13592762D01*
X7021071Y-13611809D01*
X7192500Y-13668952D02*
X7211548Y-13678476D01*
X7249643Y-13678476D01*
X7268690Y-13668952D01*
X7278214Y-13649905D01*
X7278214Y-13640381D01*
X7268690Y-13621333D01*
X7249643Y-13611809D01*
X7221071Y-13611809D01*
X7202024Y-13602286D01*
X7192500Y-13583238D01*
X7192500Y-13573714D01*
X7202024Y-13554667D01*
X7221071Y-13545143D01*
X7249643Y-13545143D01*
X7268690Y-13554667D01*
X7344881Y-13754667D02*
X7354405Y-13745143D01*
X7373452Y-13716571D01*
X7382976Y-13697524D01*
X7392500Y-13668952D01*
X7402024Y-13621333D01*
X7402024Y-13583238D01*
X7392500Y-13535619D01*
X7382976Y-13507048D01*
X7373452Y-13488000D01*
X7354405Y-13459428D01*
X7344881Y-13449905D01*
D15*
X2366506Y-13890615D02*
X2366506Y-13813384D01*
X2289275Y-13813384D01*
X2289275Y-13890615D01*
X2366506Y-13890615D01*
D11*
X2744881Y-13942476D02*
X2630595Y-13942476D01*
X2687738Y-13942476D02*
X2687738Y-13742476D01*
X2668690Y-13771048D01*
X2649643Y-13790095D01*
X2630595Y-13799619D01*
X2830595Y-13923428D02*
X2840119Y-13932952D01*
X2830595Y-13942476D01*
X2821071Y-13932952D01*
X2830595Y-13923428D01*
X2830595Y-13942476D01*
X2963928Y-13742476D02*
X2982976Y-13742476D01*
X3002024Y-13752000D01*
X3011548Y-13761524D01*
X3021071Y-13780571D01*
X3030595Y-13818667D01*
X3030595Y-13866286D01*
X3021071Y-13904381D01*
X3011548Y-13923428D01*
X3002024Y-13932952D01*
X2982976Y-13942476D01*
X2963928Y-13942476D01*
X2944881Y-13932952D01*
X2935357Y-13923428D01*
X2925833Y-13904381D01*
X2916309Y-13866286D01*
X2916309Y-13818667D01*
X2925833Y-13780571D01*
X2935357Y-13761524D01*
X2944881Y-13752000D01*
X2963928Y-13742476D01*
X3125833Y-13942476D02*
X3163928Y-13942476D01*
X3182976Y-13932952D01*
X3192500Y-13923428D01*
X3211548Y-13894857D01*
X3221071Y-13856762D01*
X3221071Y-13780571D01*
X3211548Y-13761524D01*
X3202024Y-13752000D01*
X3182976Y-13742476D01*
X3144881Y-13742476D01*
X3125833Y-13752000D01*
X3116309Y-13761524D01*
X3106786Y-13780571D01*
X3106786Y-13828190D01*
X3116309Y-13847238D01*
X3125833Y-13856762D01*
X3144881Y-13866286D01*
X3182976Y-13866286D01*
X3202024Y-13856762D01*
X3211548Y-13847238D01*
X3221071Y-13828190D01*
X3297262Y-13761524D02*
X3306786Y-13752000D01*
X3325833Y-13742476D01*
X3373452Y-13742476D01*
X3392500Y-13752000D01*
X3402024Y-13761524D01*
X3411548Y-13780571D01*
X3411548Y-13799619D01*
X3402024Y-13828190D01*
X3287738Y-13942476D01*
X3411548Y-13942476D01*
X3497262Y-13942476D02*
X3497262Y-13809143D01*
X3497262Y-13828190D02*
X3506786Y-13818667D01*
X3525833Y-13809143D01*
X3554405Y-13809143D01*
X3573452Y-13818667D01*
X3582976Y-13837714D01*
X3582976Y-13942476D01*
X3582976Y-13837714D02*
X3592500Y-13818667D01*
X3611548Y-13809143D01*
X3640119Y-13809143D01*
X3659167Y-13818667D01*
X3668690Y-13837714D01*
X3668690Y-13942476D01*
X3763928Y-13942476D02*
X3763928Y-13809143D01*
X3763928Y-13828190D02*
X3773452Y-13818667D01*
X3792500Y-13809143D01*
X3821071Y-13809143D01*
X3840119Y-13818667D01*
X3849643Y-13837714D01*
X3849643Y-13942476D01*
X3849643Y-13837714D02*
X3859167Y-13818667D01*
X3878214Y-13809143D01*
X3906786Y-13809143D01*
X3925833Y-13818667D01*
X3935357Y-13837714D01*
X3935357Y-13942476D01*
X4325833Y-13732952D02*
X4154405Y-13990095D01*
X4582976Y-13742476D02*
X4602024Y-13742476D01*
X4621071Y-13752000D01*
X4630595Y-13761524D01*
X4640119Y-13780571D01*
X4649643Y-13818667D01*
X4649643Y-13866286D01*
X4640119Y-13904381D01*
X4630595Y-13923428D01*
X4621071Y-13932952D01*
X4602024Y-13942476D01*
X4582976Y-13942476D01*
X4563929Y-13932952D01*
X4554405Y-13923428D01*
X4544881Y-13904381D01*
X4535357Y-13866286D01*
X4535357Y-13818667D01*
X4544881Y-13780571D01*
X4554405Y-13761524D01*
X4563929Y-13752000D01*
X4582976Y-13742476D01*
X4735357Y-13923428D02*
X4744881Y-13932952D01*
X4735357Y-13942476D01*
X4725833Y-13932952D01*
X4735357Y-13923428D01*
X4735357Y-13942476D01*
X4868690Y-13742476D02*
X4887738Y-13742476D01*
X4906786Y-13752000D01*
X4916310Y-13761524D01*
X4925833Y-13780571D01*
X4935357Y-13818667D01*
X4935357Y-13866286D01*
X4925833Y-13904381D01*
X4916310Y-13923428D01*
X4906786Y-13932952D01*
X4887738Y-13942476D01*
X4868690Y-13942476D01*
X4849643Y-13932952D01*
X4840119Y-13923428D01*
X4830595Y-13904381D01*
X4821071Y-13866286D01*
X4821071Y-13818667D01*
X4830595Y-13780571D01*
X4840119Y-13761524D01*
X4849643Y-13752000D01*
X4868690Y-13742476D01*
X5106786Y-13809143D02*
X5106786Y-13942476D01*
X5059167Y-13732952D02*
X5011548Y-13875809D01*
X5135357Y-13875809D01*
X5192500Y-13742476D02*
X5316310Y-13742476D01*
X5249643Y-13818667D01*
X5278214Y-13818667D01*
X5297262Y-13828190D01*
X5306786Y-13837714D01*
X5316310Y-13856762D01*
X5316310Y-13904381D01*
X5306786Y-13923428D01*
X5297262Y-13932952D01*
X5278214Y-13942476D01*
X5221071Y-13942476D01*
X5202024Y-13932952D01*
X5192500Y-13923428D01*
X5440119Y-13742476D02*
X5459167Y-13742476D01*
X5478214Y-13752000D01*
X5487738Y-13761524D01*
X5497262Y-13780571D01*
X5506786Y-13818667D01*
X5506786Y-13866286D01*
X5497262Y-13904381D01*
X5487738Y-13923428D01*
X5478214Y-13932952D01*
X5459167Y-13942476D01*
X5440119Y-13942476D01*
X5421071Y-13932952D01*
X5411548Y-13923428D01*
X5402024Y-13904381D01*
X5392500Y-13866286D01*
X5392500Y-13818667D01*
X5402024Y-13780571D01*
X5411548Y-13761524D01*
X5421071Y-13752000D01*
X5440119Y-13742476D01*
X5582976Y-13742476D02*
X5582976Y-13780571D01*
X5659167Y-13742476D02*
X5659167Y-13780571D01*
X5954405Y-14018667D02*
X5944881Y-14009143D01*
X5925833Y-13980571D01*
X5916309Y-13961524D01*
X5906786Y-13932952D01*
X5897262Y-13885333D01*
X5897262Y-13847238D01*
X5906786Y-13799619D01*
X5916309Y-13771048D01*
X5925833Y-13752000D01*
X5944881Y-13723428D01*
X5954405Y-13713905D01*
X6021071Y-13761524D02*
X6030595Y-13752000D01*
X6049643Y-13742476D01*
X6097262Y-13742476D01*
X6116309Y-13752000D01*
X6125833Y-13761524D01*
X6135357Y-13780571D01*
X6135357Y-13799619D01*
X6125833Y-13828190D01*
X6011548Y-13942476D01*
X6135357Y-13942476D01*
X6306786Y-13809143D02*
X6306786Y-13942476D01*
X6259167Y-13732952D02*
X6211548Y-13875809D01*
X6335357Y-13875809D01*
X6563928Y-13942476D02*
X6563928Y-13742476D01*
X6649643Y-13942476D02*
X6649643Y-13837714D01*
X6640119Y-13818667D01*
X6621071Y-13809143D01*
X6592500Y-13809143D01*
X6573452Y-13818667D01*
X6563928Y-13828190D01*
X6773452Y-13942476D02*
X6754405Y-13932952D01*
X6744881Y-13923428D01*
X6735357Y-13904381D01*
X6735357Y-13847238D01*
X6744881Y-13828190D01*
X6754405Y-13818667D01*
X6773452Y-13809143D01*
X6802024Y-13809143D01*
X6821071Y-13818667D01*
X6830595Y-13828190D01*
X6840119Y-13847238D01*
X6840119Y-13904381D01*
X6830595Y-13923428D01*
X6821071Y-13932952D01*
X6802024Y-13942476D01*
X6773452Y-13942476D01*
X6954405Y-13942476D02*
X6935357Y-13932952D01*
X6925833Y-13913905D01*
X6925833Y-13742476D01*
X7106786Y-13932952D02*
X7087738Y-13942476D01*
X7049643Y-13942476D01*
X7030595Y-13932952D01*
X7021071Y-13913905D01*
X7021071Y-13837714D01*
X7030595Y-13818667D01*
X7049643Y-13809143D01*
X7087738Y-13809143D01*
X7106786Y-13818667D01*
X7116309Y-13837714D01*
X7116309Y-13856762D01*
X7021071Y-13875809D01*
X7192500Y-13932952D02*
X7211548Y-13942476D01*
X7249643Y-13942476D01*
X7268690Y-13932952D01*
X7278214Y-13913905D01*
X7278214Y-13904381D01*
X7268690Y-13885333D01*
X7249643Y-13875809D01*
X7221071Y-13875809D01*
X7202024Y-13866286D01*
X7192500Y-13847238D01*
X7192500Y-13837714D01*
X7202024Y-13818667D01*
X7221071Y-13809143D01*
X7249643Y-13809143D01*
X7268690Y-13818667D01*
X7344881Y-14018667D02*
X7354405Y-14009143D01*
X7373452Y-13980571D01*
X7382976Y-13961524D01*
X7392500Y-13932952D01*
X7402024Y-13885333D01*
X7402024Y-13847238D01*
X7392500Y-13799619D01*
X7382976Y-13771048D01*
X7373452Y-13752000D01*
X7354405Y-13723428D01*
X7344881Y-13713905D01*
D16*
X2307500Y-14191000D02*
X2382500Y-14116000D01*
X2307500Y-14041000D01*
X2232500Y-14116000D01*
X2307500Y-14191000D01*
D11*
X2744881Y-14206476D02*
X2630595Y-14206476D01*
X2687738Y-14206476D02*
X2687738Y-14006476D01*
X2668690Y-14035048D01*
X2649643Y-14054095D01*
X2630595Y-14063619D01*
X2830595Y-14187428D02*
X2840119Y-14196952D01*
X2830595Y-14206476D01*
X2821071Y-14196952D01*
X2830595Y-14187428D01*
X2830595Y-14206476D01*
X3021071Y-14006476D02*
X2925833Y-14006476D01*
X2916309Y-14101714D01*
X2925833Y-14092190D01*
X2944881Y-14082667D01*
X2992500Y-14082667D01*
X3011548Y-14092190D01*
X3021071Y-14101714D01*
X3030595Y-14120762D01*
X3030595Y-14168381D01*
X3021071Y-14187428D01*
X3011548Y-14196952D01*
X2992500Y-14206476D01*
X2944881Y-14206476D01*
X2925833Y-14196952D01*
X2916309Y-14187428D01*
X3154405Y-14006476D02*
X3173452Y-14006476D01*
X3192500Y-14016000D01*
X3202024Y-14025524D01*
X3211548Y-14044571D01*
X3221071Y-14082667D01*
X3221071Y-14130286D01*
X3211548Y-14168381D01*
X3202024Y-14187428D01*
X3192500Y-14196952D01*
X3173452Y-14206476D01*
X3154405Y-14206476D01*
X3135357Y-14196952D01*
X3125833Y-14187428D01*
X3116309Y-14168381D01*
X3106786Y-14130286D01*
X3106786Y-14082667D01*
X3116309Y-14044571D01*
X3125833Y-14025524D01*
X3135357Y-14016000D01*
X3154405Y-14006476D01*
X3344881Y-14006476D02*
X3363928Y-14006476D01*
X3382976Y-14016000D01*
X3392500Y-14025524D01*
X3402024Y-14044571D01*
X3411548Y-14082667D01*
X3411548Y-14130286D01*
X3402024Y-14168381D01*
X3392500Y-14187428D01*
X3382976Y-14196952D01*
X3363928Y-14206476D01*
X3344881Y-14206476D01*
X3325833Y-14196952D01*
X3316309Y-14187428D01*
X3306786Y-14168381D01*
X3297262Y-14130286D01*
X3297262Y-14082667D01*
X3306786Y-14044571D01*
X3316309Y-14025524D01*
X3325833Y-14016000D01*
X3344881Y-14006476D01*
X3497262Y-14206476D02*
X3497262Y-14073143D01*
X3497262Y-14092190D02*
X3506786Y-14082667D01*
X3525833Y-14073143D01*
X3554405Y-14073143D01*
X3573452Y-14082667D01*
X3582976Y-14101714D01*
X3582976Y-14206476D01*
X3582976Y-14101714D02*
X3592500Y-14082667D01*
X3611548Y-14073143D01*
X3640119Y-14073143D01*
X3659167Y-14082667D01*
X3668690Y-14101714D01*
X3668690Y-14206476D01*
X3763928Y-14206476D02*
X3763928Y-14073143D01*
X3763928Y-14092190D02*
X3773452Y-14082667D01*
X3792500Y-14073143D01*
X3821071Y-14073143D01*
X3840119Y-14082667D01*
X3849643Y-14101714D01*
X3849643Y-14206476D01*
X3849643Y-14101714D02*
X3859167Y-14082667D01*
X3878214Y-14073143D01*
X3906786Y-14073143D01*
X3925833Y-14082667D01*
X3935357Y-14101714D01*
X3935357Y-14206476D01*
X4325833Y-13996952D02*
X4154405Y-14254095D01*
X4582976Y-14006476D02*
X4602024Y-14006476D01*
X4621071Y-14016000D01*
X4630595Y-14025524D01*
X4640119Y-14044571D01*
X4649643Y-14082667D01*
X4649643Y-14130286D01*
X4640119Y-14168381D01*
X4630595Y-14187428D01*
X4621071Y-14196952D01*
X4602024Y-14206476D01*
X4582976Y-14206476D01*
X4563929Y-14196952D01*
X4554405Y-14187428D01*
X4544881Y-14168381D01*
X4535357Y-14130286D01*
X4535357Y-14082667D01*
X4544881Y-14044571D01*
X4554405Y-14025524D01*
X4563929Y-14016000D01*
X4582976Y-14006476D01*
X4735357Y-14187428D02*
X4744881Y-14196952D01*
X4735357Y-14206476D01*
X4725833Y-14196952D01*
X4735357Y-14187428D01*
X4735357Y-14206476D01*
X4868690Y-14006476D02*
X4887738Y-14006476D01*
X4906786Y-14016000D01*
X4916310Y-14025524D01*
X4925833Y-14044571D01*
X4935357Y-14082667D01*
X4935357Y-14130286D01*
X4925833Y-14168381D01*
X4916310Y-14187428D01*
X4906786Y-14196952D01*
X4887738Y-14206476D01*
X4868690Y-14206476D01*
X4849643Y-14196952D01*
X4840119Y-14187428D01*
X4830595Y-14168381D01*
X4821071Y-14130286D01*
X4821071Y-14082667D01*
X4830595Y-14044571D01*
X4840119Y-14025524D01*
X4849643Y-14016000D01*
X4868690Y-14006476D01*
X5116310Y-14006476D02*
X5021071Y-14006476D01*
X5011548Y-14101714D01*
X5021071Y-14092190D01*
X5040119Y-14082667D01*
X5087738Y-14082667D01*
X5106786Y-14092190D01*
X5116310Y-14101714D01*
X5125833Y-14120762D01*
X5125833Y-14168381D01*
X5116310Y-14187428D01*
X5106786Y-14196952D01*
X5087738Y-14206476D01*
X5040119Y-14206476D01*
X5021071Y-14196952D01*
X5011548Y-14187428D01*
X5221071Y-14206476D02*
X5259167Y-14206476D01*
X5278214Y-14196952D01*
X5287738Y-14187428D01*
X5306786Y-14158857D01*
X5316310Y-14120762D01*
X5316310Y-14044571D01*
X5306786Y-14025524D01*
X5297262Y-14016000D01*
X5278214Y-14006476D01*
X5240119Y-14006476D01*
X5221071Y-14016000D01*
X5211548Y-14025524D01*
X5202024Y-14044571D01*
X5202024Y-14092190D01*
X5211548Y-14111238D01*
X5221071Y-14120762D01*
X5240119Y-14130286D01*
X5278214Y-14130286D01*
X5297262Y-14120762D01*
X5306786Y-14111238D01*
X5316310Y-14092190D01*
X5506786Y-14206476D02*
X5392500Y-14206476D01*
X5449643Y-14206476D02*
X5449643Y-14006476D01*
X5430595Y-14035048D01*
X5411548Y-14054095D01*
X5392500Y-14063619D01*
X5582976Y-14006476D02*
X5582976Y-14044571D01*
X5659167Y-14006476D02*
X5659167Y-14044571D01*
X5954405Y-14282667D02*
X5944881Y-14273143D01*
X5925833Y-14244571D01*
X5916309Y-14225524D01*
X5906786Y-14196952D01*
X5897262Y-14149333D01*
X5897262Y-14111238D01*
X5906786Y-14063619D01*
X5916309Y-14035048D01*
X5925833Y-14016000D01*
X5944881Y-13987428D01*
X5954405Y-13977905D01*
X6135357Y-14206476D02*
X6021071Y-14206476D01*
X6078214Y-14206476D02*
X6078214Y-14006476D01*
X6059167Y-14035048D01*
X6040119Y-14054095D01*
X6021071Y-14063619D01*
X6259167Y-14006476D02*
X6278214Y-14006476D01*
X6297262Y-14016000D01*
X6306786Y-14025524D01*
X6316309Y-14044571D01*
X6325833Y-14082667D01*
X6325833Y-14130286D01*
X6316309Y-14168381D01*
X6306786Y-14187428D01*
X6297262Y-14196952D01*
X6278214Y-14206476D01*
X6259167Y-14206476D01*
X6240119Y-14196952D01*
X6230595Y-14187428D01*
X6221071Y-14168381D01*
X6211548Y-14130286D01*
X6211548Y-14082667D01*
X6221071Y-14044571D01*
X6230595Y-14025524D01*
X6240119Y-14016000D01*
X6259167Y-14006476D01*
X6497262Y-14073143D02*
X6497262Y-14206476D01*
X6449643Y-13996952D02*
X6402024Y-14139809D01*
X6525833Y-14139809D01*
X6754405Y-14206476D02*
X6754405Y-14006476D01*
X6840119Y-14206476D02*
X6840119Y-14101714D01*
X6830595Y-14082667D01*
X6811548Y-14073143D01*
X6782976Y-14073143D01*
X6763928Y-14082667D01*
X6754405Y-14092190D01*
X6963928Y-14206476D02*
X6944881Y-14196952D01*
X6935357Y-14187428D01*
X6925833Y-14168381D01*
X6925833Y-14111238D01*
X6935357Y-14092190D01*
X6944881Y-14082667D01*
X6963928Y-14073143D01*
X6992500Y-14073143D01*
X7011548Y-14082667D01*
X7021071Y-14092190D01*
X7030595Y-14111238D01*
X7030595Y-14168381D01*
X7021071Y-14187428D01*
X7011548Y-14196952D01*
X6992500Y-14206476D01*
X6963928Y-14206476D01*
X7144881Y-14206476D02*
X7125833Y-14196952D01*
X7116309Y-14177905D01*
X7116309Y-14006476D01*
X7297262Y-14196952D02*
X7278214Y-14206476D01*
X7240119Y-14206476D01*
X7221071Y-14196952D01*
X7211548Y-14177905D01*
X7211548Y-14101714D01*
X7221071Y-14082667D01*
X7240119Y-14073143D01*
X7278214Y-14073143D01*
X7297262Y-14082667D01*
X7306786Y-14101714D01*
X7306786Y-14120762D01*
X7211548Y-14139809D01*
X7382976Y-14196952D02*
X7402024Y-14206476D01*
X7440119Y-14206476D01*
X7459167Y-14196952D01*
X7468690Y-14177905D01*
X7468690Y-14168381D01*
X7459167Y-14149333D01*
X7440119Y-14139809D01*
X7411548Y-14139809D01*
X7392500Y-14130286D01*
X7382976Y-14111238D01*
X7382976Y-14101714D01*
X7392500Y-14082667D01*
X7411548Y-14073143D01*
X7440119Y-14073143D01*
X7459167Y-14082667D01*
X7535357Y-14282667D02*
X7544881Y-14273143D01*
X7563928Y-14244571D01*
X7573452Y-14225524D01*
X7582976Y-14196952D01*
X7592500Y-14149333D01*
X7592500Y-14111238D01*
X7582976Y-14063619D01*
X7573452Y-14035048D01*
X7563928Y-14016000D01*
X7544881Y-13987428D01*
X7535357Y-13977905D01*
M02*
