  0
SECTION
  2
HEADER
  9
$ANGBASE
  50
0.0
  9
$ANGDIR
  70
1
  9
$MEASUREMENT
  70
1
  0
ENDSEC
  0
SECTION
  2
TABLES
  0
TABLE
  2
LTYPE
  70
4
  0
LTYPE
  5
40F
  2
CONTINUOUS
  70
0
  3
Solid line
  72
65
  73
0
  40
0.0
  0
LTYPE
  5
410
  2
DASHDOT
 70
0
  3
Dash Dot ____ _ ____ _
 72
65
 73
4
 40
2.0
 49
1.25
 49
-0.25
 49
0.25
 49
-0.25
  0
LTYPE
  5
411
  2
DASHED
 70
0
  3
Dashed __ __ __ __ __
 72
65
 73
2
 40
0.75
 49
0.5
 49
-0.25
  0
LTYPE
  5
43B
  2
DOTTED
 70
0
  3
Dotted .  .  .  .
 72
65
 73
2
 40
0.2
 49
0.0
 49
-0.2
  0
ENDTAB
  0
TABLE
  2
STYLE
  70
4
  0
STYLE
  2
KICAD
  70
0
  40
0
  41
1
  42
1
  50
0
  71
0
  3
isocp.shx
  0
STYLE
  2
KICADB
  70
0
  40
0
  41
1
  42
1
  50
0
  71
0
  3
isocp.shx
  0
STYLE
  2
KICADI
  70
0
  40
0
  41
1
  42
1
  50
15
  71
0
  3
isocp.shx
  0
STYLE
  2
KICADBI
  70
0
  40
0
  41
1
  42
1
  50
15
  71
0
  3
isocp.shx
  0
ENDTAB
  0
TABLE
  2
LAYER
  70
1
  0
LAYER
  2
BLACK
  70
0
  62
7
  6
CONTINUOUS
  0
ENDTAB
  0
ENDSEC
  0
SECTION
  2
ENTITIES
0
ARC
8
BLACK
10
28.65
20
-29.15
40
4.775
50
90
51
180
0
ARC
8
BLACK
10
267.4
20
-29.15
40
4.775
50
-0
51
90
0
LINE
8
BLACK
6
CONTINUOUS
10
267.4
20
-24.375
11
28.65
21
-24.375
0
LINE
8
BLACK
6
CONTINUOUS
10
23.875
20
-31.0375
11
23.875
21
-124.15
0
LINE
8
BLACK
6
CONTINUOUS
10
272.175
20
-29.15
11
272.175
21
-124.15
0
LINE
8
BLACK
6
CONTINUOUS
10
272.175
20
-124.15
11
23.875
21
-124.15
0
LINE
8
BLACK
6
CONTINUOUS
10
23.875
20
-31.0375
11
23.875
21
-29.15
0
LINE
8
BLACK
6
CONTINUOUS
10
227.805
20
-35.0625
11
229.305
21
-36.5625
0
LINE
8
BLACK
6
CONTINUOUS
10
229.305
20
-35.0625
11
227.805
21
-36.5625
0
LINE
8
BLACK
6
CONTINUOUS
10
227.805
20
-35.1625
11
227.805
21
-36.4625
0
LINE
8
BLACK
6
CONTINUOUS
10
229.305
20
-35.1625
11
229.305
21
-36.4625
0
ARC
8
BLACK
10
228.555
20
-36.4625
40
0.75
50
180
51
360
0
ARC
8
BLACK
10
228.555
20
-35.1625
40
0.75
50
0
51
180
0
LINE
8
BLACK
6
CONTINUOUS
10
239.005
20
-35.0625
11
240.505
21
-36.5625
0
LINE
8
BLACK
6
CONTINUOUS
10
240.505
20
-35.0625
11
239.005
21
-36.5625
0
LINE
8
BLACK
6
CONTINUOUS
10
239.005
20
-35.1625
11
239.005
21
-36.4625
0
LINE
8
BLACK
6
CONTINUOUS
10
240.505
20
-35.1625
11
240.505
21
-36.4625
0
ARC
8
BLACK
10
239.755
20
-36.4625
40
0.75
50
180
51
360
0
ARC
8
BLACK
10
239.755
20
-35.1625
40
0.75
50
0
51
180
0
LINE
8
BLACK
6
CONTINUOUS
10
256.275
20
-34.677
11
257.775
21
-36.177
0
LINE
8
BLACK
6
CONTINUOUS
10
257.775
20
-34.677
11
256.275
21
-36.177
0
LINE
8
BLACK
6
CONTINUOUS
10
256.275
20
-34.777
11
256.275
21
-36.077
0
LINE
8
BLACK
6
CONTINUOUS
10
257.775
20
-34.777
11
257.775
21
-36.077
0
ARC
8
BLACK
10
257.025
20
-36.077
40
0.75
50
180
51
360
0
ARC
8
BLACK
10
257.025
20
-34.777
40
0.75
50
0
51
180
0
LINE
8
BLACK
6
CONTINUOUS
10
267.475
20
-34.677
11
268.975
21
-36.177
0
LINE
8
BLACK
6
CONTINUOUS
10
268.975
20
-34.677
11
267.475
21
-36.177
0
LINE
8
BLACK
6
CONTINUOUS
10
267.475
20
-34.777
11
267.475
21
-36.077
0
LINE
8
BLACK
6
CONTINUOUS
10
268.975
20
-34.777
11
268.975
21
-36.077
0
ARC
8
BLACK
10
268.225
20
-36.077
40
0.75
50
180
51
360
0
ARC
8
BLACK
10
268.225
20
-34.777
40
0.75
50
0
51
180
0
CIRCLE
8
BLACK
10
30.58
20
-76.4
40
0.85
0
CIRCLE
8
BLACK
10
30.7325
20
-95.5
40
0.85
0
CIRCLE
8
BLACK
10
30.7325
20
-114.6
40
0.85
0
CIRCLE
8
BLACK
10
33.12
20
-57.3
40
0.85
0
CIRCLE
8
BLACK
10
35.5075
20
-76.4
40
0.85
0
CIRCLE
8
BLACK
10
40.2825
20
-95.48
40
0.85
0
CIRCLE
8
BLACK
10
40.74
20
-76.4
40
0.85
0
CIRCLE
8
BLACK
10
40.8925
20
-95.5
40
0.85
0
CIRCLE
8
BLACK
10
40.8925
20
-114.6
40
0.85
0
CIRCLE
8
BLACK
10
43.28
20
-57.3
40
0.85
0
CIRCLE
8
BLACK
10
45.6675
20
-76.4
40
0.85
0
CIRCLE
8
BLACK
10
50.4425
20
-95.48
40
0.85
0
CIRCLE
8
BLACK
10
52.22
20
-95.5
40
0.85
0
CIRCLE
8
BLACK
10
52.22
20
-114.6
40
0.85
0
CIRCLE
8
BLACK
10
56.995
20
-57.3
40
0.85
0
CIRCLE
8
BLACK
10
61.77
20
-76.4
40
0.85
0
CIRCLE
8
BLACK
10
62.38
20
-95.5
40
0.85
0
CIRCLE
8
BLACK
10
62.38
20
-114.6
40
0.85
0
CIRCLE
8
BLACK
10
67.155
20
-57.3
40
0.85
0
CIRCLE
8
BLACK
10
71.32
20
-95.5
40
0.85
0
CIRCLE
8
BLACK
10
71.32
20
-114.6
40
0.85
0
CIRCLE
8
BLACK
10
71.93
20
-76.4
40
0.85
0
CIRCLE
8
BLACK
10
73.7075
20
-114.6
40
0.85
0
CIRCLE
8
BLACK
10
76.095
20
-57.3
40
0.85
0
CIRCLE
8
BLACK
10
80.87
20
-76.4
40
0.85
0
CIRCLE
8
BLACK
10
81.48
20
-95.5
40
0.85
0
CIRCLE
8
BLACK
10
81.48
20
-114.6
40
0.85
0
CIRCLE
8
BLACK
10
83.8675
20
-114.6
40
0.85
0
CIRCLE
8
BLACK
10
86.255
20
-57.3
40
0.85
0
CIRCLE
8
BLACK
10
90.42
20
-95.5
40
0.85
0
CIRCLE
8
BLACK
10
91.03
20
-76.4
40
0.85
0
CIRCLE
8
BLACK
10
95.195
20
-57.3
40
0.85
0
CIRCLE
8
BLACK
10
99.97
20
-76.4
40
0.85
0
CIRCLE
8
BLACK
10
100.58
20
-95.5
40
0.85
0
CIRCLE
8
BLACK
10
105.355
20
-57.3
40
0.85
0
CIRCLE
8
BLACK
10
107.23
20
-114.618
40
0.85
0
CIRCLE
8
BLACK
10
109.52
20
-95.5
40
0.85
0
CIRCLE
8
BLACK
10
110.13
20
-76.4
40
0.85
0
CIRCLE
8
BLACK
10
114.295
20
-57.3
40
0.85
0
CIRCLE
8
BLACK
10
117.39
20
-114.618
40
0.85
0
CIRCLE
8
BLACK
10
119.07
20
-76.4
40
0.85
0
CIRCLE
8
BLACK
10
119.68
20
-95.5
40
0.85
0
CIRCLE
8
BLACK
10
124.455
20
-57.3
40
0.85
0
CIRCLE
8
BLACK
10
128.62
20
-95.5
40
0.85
0
CIRCLE
8
BLACK
10
129.23
20
-76.4
40
0.85
0
CIRCLE
8
BLACK
10
133.395
20
-57.3
40
0.85
0
CIRCLE
8
BLACK
10
138.17
20
-76.4
40
0.85
0
CIRCLE
8
BLACK
10
138.18
20
-114.65
40
0.85
0
CIRCLE
8
BLACK
10
138.78
20
-95.5
40
0.85
0
CIRCLE
8
BLACK
10
140.558
20
-114.61
40
0.85
0
CIRCLE
8
BLACK
10
143.555
20
-57.3
40
0.85
0
CIRCLE
8
BLACK
10
147.72
20
-95.5
40
0.85
0
CIRCLE
8
BLACK
10
148.33
20
-76.4
40
0.85
0
CIRCLE
8
BLACK
10
148.34
20
-114.65
40
0.85
0
CIRCLE
8
BLACK
10
150.718
20
-114.61
40
0.85
0
CIRCLE
8
BLACK
10
152.495
20
-57.3
40
0.85
0
CIRCLE
8
BLACK
10
157.27
20
-76.4
40
0.85
0
CIRCLE
8
BLACK
10
157.88
20
-95.5
40
0.85
0
CIRCLE
8
BLACK
10
162.655
20
-57.3
40
0.85
0
CIRCLE
8
BLACK
10
166.82
20
-95.5
40
0.85
0
CIRCLE
8
BLACK
10
167.43
20
-76.4
40
0.85
0
CIRCLE
8
BLACK
10
171.595
20
-57.3
40
0.85
0
CIRCLE
8
BLACK
10
173.9
20
-114.59
40
0.85
0
CIRCLE
8
BLACK
10
176.37
20
-76.4
40
0.85
0
CIRCLE
8
BLACK
10
176.98
20
-95.5
40
0.85
0
CIRCLE
8
BLACK
10
181.755
20
-57.3
40
0.85
0
CIRCLE
8
BLACK
10
184.06
20
-114.59
40
0.85
0
CIRCLE
8
BLACK
10
185.92
20
-95.5
40
0.85
0
CIRCLE
8
BLACK
10
186.53
20
-76.4
40
0.85
0
CIRCLE
8
BLACK
10
190.695
20
-57.3
40
0.85
0
CIRCLE
8
BLACK
10
195.47
20
-76.4
40
0.85
0
CIRCLE
8
BLACK
10
196.08
20
-95.5
40
0.85
0
CIRCLE
8
BLACK
10
200.855
20
-57.3
40
0.85
0
CIRCLE
8
BLACK
10
205.02
20
-95.5
40
0.85
0
CIRCLE
8
BLACK
10
205.63
20
-76.4
40
0.85
0
CIRCLE
8
BLACK
10
209.795
20
-57.3
40
0.85
0
CIRCLE
8
BLACK
10
212.183
20
-114.6
40
0.85
0
CIRCLE
8
BLACK
10
214.57
20
-76.4
40
0.85
0
CIRCLE
8
BLACK
10
215.18
20
-95.5
40
0.85
0
CIRCLE
8
BLACK
10
219.955
20
-57.3
40
0.85
0
CIRCLE
8
BLACK
10
222.343
20
-114.6
40
0.85
0
CIRCLE
8
BLACK
10
224.12
20
-95.5
40
0.85
0
CIRCLE
8
BLACK
10
224.73
20
-76.4
40
0.85
0
CIRCLE
8
BLACK
10
228.895
20
-57.3
40
0.85
0
CIRCLE
8
BLACK
10
233.67
20
-76.4
40
0.85
0
CIRCLE
8
BLACK
10
233.67
20
-114.6
40
0.85
0
CIRCLE
8
BLACK
10
234.28
20
-95.5
40
0.85
0
CIRCLE
8
BLACK
10
239.055
20
-57.3
40
0.85
0
CIRCLE
8
BLACK
10
243.83
20
-76.4
40
0.85
0
CIRCLE
8
BLACK
10
243.83
20
-114.6
40
0.85
0
CIRCLE
8
BLACK
10
245.607
20
-76.4
40
0.85
0
CIRCLE
8
BLACK
10
250.382
20
-95.5
40
0.85
0
CIRCLE
8
BLACK
10
252.77
20
-57.3
40
0.85
0
CIRCLE
8
BLACK
10
255.157
20
-76.4
40
0.85
0
CIRCLE
8
BLACK
10
255.157
20
-114.6
40
0.85
0
CIRCLE
8
BLACK
10
255.767
20
-76.4
40
0.85
0
CIRCLE
8
BLACK
10
260.542
20
-95.5
40
0.85
0
CIRCLE
8
BLACK
10
262.93
20
-57.3
40
0.85
0
CIRCLE
8
BLACK
10
265.317
20
-76.4
40
0.85
0
CIRCLE
8
BLACK
10
265.317
20
-114.6
40
0.85
0
LINE
8
BLACK
6
CONTINUOUS
10
52.5125
20
-65.7
11
52.5125
21
-67.9
0
LINE
8
BLACK
6
CONTINUOUS
10
51.4125
20
-66.8
11
53.6125
21
-66.8
0
LINE
8
BLACK
6
CONTINUOUS
10
52.525
20
-65.75
11
52.525
21
-67.95
0
LINE
8
BLACK
6
CONTINUOUS
10
51.425
20
-66.85
11
53.625
21
-66.85
0
LINE
8
BLACK
6
CONTINUOUS
10
62.075
20
-34.7125
11
62.075
21
-36.9125
0
LINE
8
BLACK
6
CONTINUOUS
10
60.975
20
-35.8125
11
63.175
21
-35.8125
0
LINE
8
BLACK
6
CONTINUOUS
10
66.8375
20
-103.9
11
66.8375
21
-106.1
0
LINE
8
BLACK
6
CONTINUOUS
10
65.7375
20
-105
11
67.9375
21
-105
0
LINE
8
BLACK
6
CONTINUOUS
10
66.8375
20
-103.9
11
66.8375
21
-106.1
0
LINE
8
BLACK
6
CONTINUOUS
10
65.7375
20
-105
11
67.9375
21
-105
0
LINE
8
BLACK
6
CONTINUOUS
10
66.85
20
-103.95
11
66.85
21
-106.15
0
LINE
8
BLACK
6
CONTINUOUS
10
65.75
20
-105.05
11
67.95
21
-105.05
0
LINE
8
BLACK
6
CONTINUOUS
10
148.012
20
-65.7
11
148.012
21
-67.9
0
LINE
8
BLACK
6
CONTINUOUS
10
146.912
20
-66.8
11
149.112
21
-66.8
0
LINE
8
BLACK
6
CONTINUOUS
10
148.025
20
-65.75
11
148.025
21
-67.95
0
LINE
8
BLACK
6
CONTINUOUS
10
146.925
20
-66.85
11
149.125
21
-66.85
0
LINE
8
BLACK
6
CONTINUOUS
10
229.188
20
-103.9
11
229.188
21
-106.1
0
LINE
8
BLACK
6
CONTINUOUS
10
228.087
20
-105
11
230.287
21
-105
0
LINE
8
BLACK
6
CONTINUOUS
10
229.2
20
-103.95
11
229.2
21
-106.15
0
LINE
8
BLACK
6
CONTINUOUS
10
228.1
20
-105.05
11
230.3
21
-105.05
0
LINE
8
BLACK
6
CONTINUOUS
10
243.512
20
-65.7
11
243.512
21
-67.9
0
LINE
8
BLACK
6
CONTINUOUS
10
242.412
20
-66.8
11
244.612
21
-66.8
0
LINE
8
BLACK
6
CONTINUOUS
10
243.525
20
-65.75
11
243.525
21
-67.95
0
LINE
8
BLACK
6
CONTINUOUS
10
242.425
20
-66.85
11
244.625
21
-66.85
0
LINE
8
BLACK
6
CONTINUOUS
10
250.688
20
-34.7125
11
250.688
21
-36.9125
0
LINE
8
BLACK
6
CONTINUOUS
10
249.587
20
-35.8125
11
251.787
21
-35.8125
0
LINE
8
BLACK
6
CONTINUOUS
10
34.5408
20
-89.5583
11
34.5408
21
-87.4017
0
LINE
8
BLACK
6
CONTINUOUS
10
34.5408
20
-87.4017
11
32.3842
21
-87.4017
0
LINE
8
BLACK
6
CONTINUOUS
10
32.3842
20
-87.4017
11
32.3842
21
-89.5583
0
LINE
8
BLACK
6
CONTINUOUS
10
32.3842
20
-89.5583
11
34.5408
21
-89.5583
0
LINE
8
BLACK
6
CONTINUOUS
10
58.3408
20
-89.5583
11
58.3408
21
-87.4017
0
LINE
8
BLACK
6
CONTINUOUS
10
58.3408
20
-87.4017
11
56.1842
21
-87.4017
0
LINE
8
BLACK
6
CONTINUOUS
10
56.1842
20
-87.4017
11
56.1842
21
-89.5583
0
LINE
8
BLACK
6
CONTINUOUS
10
56.1842
20
-89.5583
11
58.3408
21
-89.5583
0
LINE
8
BLACK
6
CONTINUOUS
10
96.7158
20
-122.688
11
96.7158
21
-120.532
0
LINE
8
BLACK
6
CONTINUOUS
10
96.7158
20
-120.532
11
94.5592
21
-120.532
0
LINE
8
BLACK
6
CONTINUOUS
10
94.5592
20
-120.532
11
94.5592
21
-122.688
0
LINE
8
BLACK
6
CONTINUOUS
10
94.5592
20
-122.688
11
96.7158
21
-122.688
0
LINE
8
BLACK
6
CONTINUOUS
10
101.488
20
-122.696
11
101.488
21
-120.54
0
LINE
8
BLACK
6
CONTINUOUS
10
101.488
20
-120.54
11
99.3317
21
-120.54
0
LINE
8
BLACK
6
CONTINUOUS
10
99.3317
20
-120.54
11
99.3317
21
-122.696
0
LINE
8
BLACK
6
CONTINUOUS
10
99.3317
20
-122.696
11
101.488
21
-122.696
0
LINE
8
BLACK
6
CONTINUOUS
10
125.288
20
-122.696
11
125.288
21
-120.54
0
LINE
8
BLACK
6
CONTINUOUS
10
125.288
20
-120.54
11
123.132
21
-120.54
0
LINE
8
BLACK
6
CONTINUOUS
10
123.132
20
-120.54
11
123.132
21
-122.696
0
LINE
8
BLACK
6
CONTINUOUS
10
123.132
20
-122.696
11
125.288
21
-122.696
0
LINE
8
BLACK
6
CONTINUOUS
10
168.158
20
-122.668
11
168.158
21
-120.512
0
LINE
8
BLACK
6
CONTINUOUS
10
168.158
20
-120.512
11
166.002
21
-120.512
0
LINE
8
BLACK
6
CONTINUOUS
10
166.002
20
-120.512
11
166.002
21
-122.668
0
LINE
8
BLACK
6
CONTINUOUS
10
166.002
20
-122.668
11
168.158
21
-122.668
0
LINE
8
BLACK
6
CONTINUOUS
10
191.958
20
-122.668
11
191.958
21
-120.512
0
LINE
8
BLACK
6
CONTINUOUS
10
191.958
20
-120.512
11
189.802
21
-120.512
0
LINE
8
BLACK
6
CONTINUOUS
10
189.802
20
-120.512
11
189.802
21
-122.668
0
LINE
8
BLACK
6
CONTINUOUS
10
189.802
20
-122.668
11
191.958
21
-122.668
0
LINE
8
BLACK
6
CONTINUOUS
10
196.716
20
-122.688
11
196.716
21
-120.532
0
LINE
8
BLACK
6
CONTINUOUS
10
196.716
20
-120.532
11
194.559
21
-120.532
0
LINE
8
BLACK
6
CONTINUOUS
10
194.559
20
-120.532
11
194.559
21
-122.688
0
LINE
8
BLACK
6
CONTINUOUS
10
194.559
20
-122.688
11
196.716
21
-122.688
0
LINE
8
BLACK
6
CONTINUOUS
10
239.866
20
-70.4783
11
239.866
21
-68.3217
0
LINE
8
BLACK
6
CONTINUOUS
10
239.866
20
-68.3217
11
237.709
21
-68.3217
0
LINE
8
BLACK
6
CONTINUOUS
10
237.709
20
-68.3217
11
237.709
21
-70.4783
0
LINE
8
BLACK
6
CONTINUOUS
10
237.709
20
-70.4783
11
239.866
21
-70.4783
0
LINE
8
BLACK
6
CONTINUOUS
10
263.666
20
-70.4783
11
263.666
21
-68.3217
0
LINE
8
BLACK
6
CONTINUOUS
10
263.666
20
-68.3217
11
261.509
21
-68.3217
0
LINE
8
BLACK
6
CONTINUOUS
10
261.509
20
-68.3217
11
261.509
21
-70.4783
0
LINE
8
BLACK
6
CONTINUOUS
10
261.509
20
-70.4783
11
263.666
21
-70.4783
0
LINE
8
BLACK
6
CONTINUOUS
10
33.4625
20
-105.72
11
35.4625
21
-103.72
0
LINE
8
BLACK
6
CONTINUOUS
10
35.4625
20
-103.72
11
33.4625
21
-101.72
0
LINE
8
BLACK
6
CONTINUOUS
10
33.4625
20
-101.72
11
31.4625
21
-103.72
0
LINE
8
BLACK
6
CONTINUOUS
10
31.4625
20
-103.72
11
33.4625
21
-105.72
0
LINE
8
BLACK
6
CONTINUOUS
10
35.66
20
-78.4
11
37.66
21
-76.4
0
LINE
8
BLACK
6
CONTINUOUS
10
37.66
20
-76.4
11
35.66
21
-74.4
0
LINE
8
BLACK
6
CONTINUOUS
10
35.66
20
-74.4
11
33.66
21
-76.4
0
LINE
8
BLACK
6
CONTINUOUS
10
33.66
20
-76.4
11
35.66
21
-78.4
0
LINE
8
BLACK
6
CONTINUOUS
10
35.8125
20
-97.5
11
37.8125
21
-95.5
0
LINE
8
BLACK
6
CONTINUOUS
10
37.8125
20
-95.5
11
35.8125
21
-93.5
0
LINE
8
BLACK
6
CONTINUOUS
10
35.8125
20
-93.5
11
33.8125
21
-95.5
0
LINE
8
BLACK
6
CONTINUOUS
10
33.8125
20
-95.5
11
35.8125
21
-97.5
0
LINE
8
BLACK
6
CONTINUOUS
10
35.8125
20
-116.6
11
37.8125
21
-114.6
0
LINE
8
BLACK
6
CONTINUOUS
10
37.8125
20
-114.6
11
35.8125
21
-112.6
0
LINE
8
BLACK
6
CONTINUOUS
10
35.8125
20
-112.6
11
33.8125
21
-114.6
0
LINE
8
BLACK
6
CONTINUOUS
10
33.8125
20
-114.6
11
35.8125
21
-116.6
0
LINE
8
BLACK
6
CONTINUOUS
10
38.2
20
-59.3
11
40.2
21
-57.3
0
LINE
8
BLACK
6
CONTINUOUS
10
40.2
20
-57.3
11
38.2
21
-55.3
0
LINE
8
BLACK
6
CONTINUOUS
10
38.2
20
-55.3
11
36.2
21
-57.3
0
LINE
8
BLACK
6
CONTINUOUS
10
36.2
20
-57.3
11
38.2
21
-59.3
0
LINE
8
BLACK
6
CONTINUOUS
10
40.5875
20
-78.4
11
42.5875
21
-76.4
0
LINE
8
BLACK
6
CONTINUOUS
10
42.5875
20
-76.4
11
40.5875
21
-74.4
0
LINE
8
BLACK
6
CONTINUOUS
10
40.5875
20
-74.4
11
38.5875
21
-76.4
0
LINE
8
BLACK
6
CONTINUOUS
10
38.5875
20
-76.4
11
40.5875
21
-78.4
0
LINE
8
BLACK
6
CONTINUOUS
10
45.3625
20
-97.48
11
47.3625
21
-95.48
0
LINE
8
BLACK
6
CONTINUOUS
10
47.3625
20
-95.48
11
45.3625
21
-93.48
0
LINE
8
BLACK
6
CONTINUOUS
10
45.3625
20
-93.48
11
43.3625
21
-95.48
0
LINE
8
BLACK
6
CONTINUOUS
10
43.3625
20
-95.48
11
45.3625
21
-97.48
0
LINE
8
BLACK
6
CONTINUOUS
10
57.2625
20
-105.72
11
59.2625
21
-103.72
0
LINE
8
BLACK
6
CONTINUOUS
10
59.2625
20
-103.72
11
57.2625
21
-101.72
0
LINE
8
BLACK
6
CONTINUOUS
10
57.2625
20
-101.72
11
55.2625
21
-103.72
0
LINE
8
BLACK
6
CONTINUOUS
10
55.2625
20
-103.72
11
57.2625
21
-105.72
0
LINE
8
BLACK
6
CONTINUOUS
10
57.3
20
-97.5
11
59.3
21
-95.5
0
LINE
8
BLACK
6
CONTINUOUS
10
59.3
20
-95.5
11
57.3
21
-93.5
0
LINE
8
BLACK
6
CONTINUOUS
10
57.3
20
-93.5
11
55.3
21
-95.5
0
LINE
8
BLACK
6
CONTINUOUS
10
55.3
20
-95.5
11
57.3
21
-97.5
0
LINE
8
BLACK
6
CONTINUOUS
10
57.3
20
-116.6
11
59.3
21
-114.6
0
LINE
8
BLACK
6
CONTINUOUS
10
59.3
20
-114.6
11
57.3
21
-112.6
0
LINE
8
BLACK
6
CONTINUOUS
10
57.3
20
-112.6
11
55.3
21
-114.6
0
LINE
8
BLACK
6
CONTINUOUS
10
55.3
20
-114.6
11
57.3
21
-116.6
0
LINE
8
BLACK
6
CONTINUOUS
10
62.075
20
-59.3
11
64.075
21
-57.3
0
LINE
8
BLACK
6
CONTINUOUS
10
64.075
20
-57.3
11
62.075
21
-55.3
0
LINE
8
BLACK
6
CONTINUOUS
10
62.075
20
-55.3
11
60.075
21
-57.3
0
LINE
8
BLACK
6
CONTINUOUS
10
60.075
20
-57.3
11
62.075
21
-59.3
0
LINE
8
BLACK
6
CONTINUOUS
10
66.85
20
-78.4
11
68.85
21
-76.4
0
LINE
8
BLACK
6
CONTINUOUS
10
68.85
20
-76.4
11
66.85
21
-74.4
0
LINE
8
BLACK
6
CONTINUOUS
10
66.85
20
-74.4
11
64.85
21
-76.4
0
LINE
8
BLACK
6
CONTINUOUS
10
64.85
20
-76.4
11
66.85
21
-78.4
0
LINE
8
BLACK
6
CONTINUOUS
10
76.4
20
-97.5
11
78.4
21
-95.5
0
LINE
8
BLACK
6
CONTINUOUS
10
78.4
20
-95.5
11
76.4
21
-93.5
0
LINE
8
BLACK
6
CONTINUOUS
10
76.4
20
-93.5
11
74.4
21
-95.5
0
LINE
8
BLACK
6
CONTINUOUS
10
74.4
20
-95.5
11
76.4
21
-97.5
0
LINE
8
BLACK
6
CONTINUOUS
10
76.4
20
-116.6
11
78.4
21
-114.6
0
LINE
8
BLACK
6
CONTINUOUS
10
78.4
20
-114.6
11
76.4
21
-112.6
0
LINE
8
BLACK
6
CONTINUOUS
10
76.4
20
-112.6
11
74.4
21
-114.6
0
LINE
8
BLACK
6
CONTINUOUS
10
74.4
20
-114.6
11
76.4
21
-116.6
0
LINE
8
BLACK
6
CONTINUOUS
10
78.7875
20
-116.6
11
80.7875
21
-114.6
0
LINE
8
BLACK
6
CONTINUOUS
10
80.7875
20
-114.6
11
78.7875
21
-112.6
0
LINE
8
BLACK
6
CONTINUOUS
10
78.7875
20
-112.6
11
76.7875
21
-114.6
0
LINE
8
BLACK
6
CONTINUOUS
10
76.7875
20
-114.6
11
78.7875
21
-116.6
0
LINE
8
BLACK
6
CONTINUOUS
10
81.175
20
-59.3
11
83.175
21
-57.3
0
LINE
8
BLACK
6
CONTINUOUS
10
83.175
20
-57.3
11
81.175
21
-55.3
0
LINE
8
BLACK
6
CONTINUOUS
10
81.175
20
-55.3
11
79.175
21
-57.3
0
LINE
8
BLACK
6
CONTINUOUS
10
79.175
20
-57.3
11
81.175
21
-59.3
0
LINE
8
BLACK
6
CONTINUOUS
10
85.95
20
-78.4
11
87.95
21
-76.4
0
LINE
8
BLACK
6
CONTINUOUS
10
87.95
20
-76.4
11
85.95
21
-74.4
0
LINE
8
BLACK
6
CONTINUOUS
10
85.95
20
-74.4
11
83.95
21
-76.4
0
LINE
8
BLACK
6
CONTINUOUS
10
83.95
20
-76.4
11
85.95
21
-78.4
0
LINE
8
BLACK
6
CONTINUOUS
10
95.5
20
-97.5
11
97.5
21
-95.5
0
LINE
8
BLACK
6
CONTINUOUS
10
97.5
20
-95.5
11
95.5
21
-93.5
0
LINE
8
BLACK
6
CONTINUOUS
10
95.5
20
-93.5
11
93.5
21
-95.5
0
LINE
8
BLACK
6
CONTINUOUS
10
93.5
20
-95.5
11
95.5
21
-97.5
0
LINE
8
BLACK
6
CONTINUOUS
10
95.6375
20
-108.37
11
97.6375
21
-106.37
0
LINE
8
BLACK
6
CONTINUOUS
10
97.6375
20
-106.37
11
95.6375
21
-104.37
0
LINE
8
BLACK
6
CONTINUOUS
10
95.6375
20
-104.37
11
93.6375
21
-106.37
0
LINE
8
BLACK
6
CONTINUOUS
10
93.6375
20
-106.37
11
95.6375
21
-108.37
0
LINE
8
BLACK
6
CONTINUOUS
10
100.275
20
-59.3
11
102.275
21
-57.3
0
LINE
8
BLACK
6
CONTINUOUS
10
102.275
20
-57.3
11
100.275
21
-55.3
0
LINE
8
BLACK
6
CONTINUOUS
10
100.275
20
-55.3
11
98.275
21
-57.3
0
LINE
8
BLACK
6
CONTINUOUS
10
98.275
20
-57.3
11
100.275
21
-59.3
0
LINE
8
BLACK
6
CONTINUOUS
10
100.41
20
-108.378
11
102.41
21
-106.378
0
LINE
8
BLACK
6
CONTINUOUS
10
102.41
20
-106.378
11
100.41
21
-104.378
0
LINE
8
BLACK
6
CONTINUOUS
10
100.41
20
-104.378
11
98.41
21
-106.378
0
LINE
8
BLACK
6
CONTINUOUS
10
98.41
20
-106.378
11
100.41
21
-108.378
0
LINE
8
BLACK
6
CONTINUOUS
10
105.05
20
-78.4
11
107.05
21
-76.4
0
LINE
8
BLACK
6
CONTINUOUS
10
107.05
20
-76.4
11
105.05
21
-74.4
0
LINE
8
BLACK
6
CONTINUOUS
10
105.05
20
-74.4
11
103.05
21
-76.4
0
LINE
8
BLACK
6
CONTINUOUS
10
103.05
20
-76.4
11
105.05
21
-78.4
0
LINE
8
BLACK
6
CONTINUOUS
10
112.31
20
-116.618
11
114.31
21
-114.618
0
LINE
8
BLACK
6
CONTINUOUS
10
114.31
20
-114.618
11
112.31
21
-112.618
0
LINE
8
BLACK
6
CONTINUOUS
10
112.31
20
-112.618
11
110.31
21
-114.618
0
LINE
8
BLACK
6
CONTINUOUS
10
110.31
20
-114.618
11
112.31
21
-116.618
0
LINE
8
BLACK
6
CONTINUOUS
10
114.6
20
-97.5
11
116.6
21
-95.5
0
LINE
8
BLACK
6
CONTINUOUS
10
116.6
20
-95.5
11
114.6
21
-93.5
0
LINE
8
BLACK
6
CONTINUOUS
10
114.6
20
-93.5
11
112.6
21
-95.5
0
LINE
8
BLACK
6
CONTINUOUS
10
112.6
20
-95.5
11
114.6
21
-97.5
0
LINE
8
BLACK
6
CONTINUOUS
10
119.375
20
-59.3
11
121.375
21
-57.3
0
LINE
8
BLACK
6
CONTINUOUS
10
121.375
20
-57.3
11
119.375
21
-55.3
0
LINE
8
BLACK
6
CONTINUOUS
10
119.375
20
-55.3
11
117.375
21
-57.3
0
LINE
8
BLACK
6
CONTINUOUS
10
117.375
20
-57.3
11
119.375
21
-59.3
0
LINE
8
BLACK
6
CONTINUOUS
10
124.15
20
-78.4
11
126.15
21
-76.4
0
LINE
8
BLACK
6
CONTINUOUS
10
126.15
20
-76.4
11
124.15
21
-74.4
0
LINE
8
BLACK
6
CONTINUOUS
10
124.15
20
-74.4
11
122.15
21
-76.4
0
LINE
8
BLACK
6
CONTINUOUS
10
122.15
20
-76.4
11
124.15
21
-78.4
0
LINE
8
BLACK
6
CONTINUOUS
10
124.21
20
-108.378
11
126.21
21
-106.378
0
LINE
8
BLACK
6
CONTINUOUS
10
126.21
20
-106.378
11
124.21
21
-104.378
0
LINE
8
BLACK
6
CONTINUOUS
10
124.21
20
-104.378
11
122.21
21
-106.378
0
LINE
8
BLACK
6
CONTINUOUS
10
122.21
20
-106.378
11
124.21
21
-108.378
0
LINE
8
BLACK
6
CONTINUOUS
10
133.7
20
-97.5
11
135.7
21
-95.5
0
LINE
8
BLACK
6
CONTINUOUS
10
135.7
20
-95.5
11
133.7
21
-93.5
0
LINE
8
BLACK
6
CONTINUOUS
10
133.7
20
-93.5
11
131.7
21
-95.5
0
LINE
8
BLACK
6
CONTINUOUS
10
131.7
20
-95.5
11
133.7
21
-97.5
0
LINE
8
BLACK
6
CONTINUOUS
10
138.475
20
-59.3
11
140.475
21
-57.3
0
LINE
8
BLACK
6
CONTINUOUS
10
140.475
20
-57.3
11
138.475
21
-55.3
0
LINE
8
BLACK
6
CONTINUOUS
10
138.475
20
-55.3
11
136.475
21
-57.3
0
LINE
8
BLACK
6
CONTINUOUS
10
136.475
20
-57.3
11
138.475
21
-59.3
0
LINE
8
BLACK
6
CONTINUOUS
10
143.25
20
-78.4
11
145.25
21
-76.4
0
LINE
8
BLACK
6
CONTINUOUS
10
145.25
20
-76.4
11
143.25
21
-74.4
0
LINE
8
BLACK
6
CONTINUOUS
10
143.25
20
-74.4
11
141.25
21
-76.4
0
LINE
8
BLACK
6
CONTINUOUS
10
141.25
20
-76.4
11
143.25
21
-78.4
0
LINE
8
BLACK
6
CONTINUOUS
10
143.26
20
-116.65
11
145.26
21
-114.65
0
LINE
8
BLACK
6
CONTINUOUS
10
145.26
20
-114.65
11
143.26
21
-112.65
0
LINE
8
BLACK
6
CONTINUOUS
10
143.26
20
-112.65
11
141.26
21
-114.65
0
LINE
8
BLACK
6
CONTINUOUS
10
141.26
20
-114.65
11
143.26
21
-116.65
0
LINE
8
BLACK
6
CONTINUOUS
10
145.637
20
-116.61
11
147.637
21
-114.61
0
LINE
8
BLACK
6
CONTINUOUS
10
147.637
20
-114.61
11
145.637
21
-112.61
0
LINE
8
BLACK
6
CONTINUOUS
10
145.637
20
-112.61
11
143.637
21
-114.61
0
LINE
8
BLACK
6
CONTINUOUS
10
143.637
20
-114.61
11
145.637
21
-116.61
0
LINE
8
BLACK
6
CONTINUOUS
10
152.8
20
-97.5
11
154.8
21
-95.5
0
LINE
8
BLACK
6
CONTINUOUS
10
154.8
20
-95.5
11
152.8
21
-93.5
0
LINE
8
BLACK
6
CONTINUOUS
10
152.8
20
-93.5
11
150.8
21
-95.5
0
LINE
8
BLACK
6
CONTINUOUS
10
150.8
20
-95.5
11
152.8
21
-97.5
0
LINE
8
BLACK
6
CONTINUOUS
10
157.575
20
-59.3
11
159.575
21
-57.3
0
LINE
8
BLACK
6
CONTINUOUS
10
159.575
20
-57.3
11
157.575
21
-55.3
0
LINE
8
BLACK
6
CONTINUOUS
10
157.575
20
-55.3
11
155.575
21
-57.3
0
LINE
8
BLACK
6
CONTINUOUS
10
155.575
20
-57.3
11
157.575
21
-59.3
0
LINE
8
BLACK
6
CONTINUOUS
10
162.35
20
-78.4
11
164.35
21
-76.4
0
LINE
8
BLACK
6
CONTINUOUS
10
164.35
20
-76.4
11
162.35
21
-74.4
0
LINE
8
BLACK
6
CONTINUOUS
10
162.35
20
-74.4
11
160.35
21
-76.4
0
LINE
8
BLACK
6
CONTINUOUS
10
160.35
20
-76.4
11
162.35
21
-78.4
0
LINE
8
BLACK
6
CONTINUOUS
10
167.08
20
-108.35
11
169.08
21
-106.35
0
LINE
8
BLACK
6
CONTINUOUS
10
169.08
20
-106.35
11
167.08
21
-104.35
0
LINE
8
BLACK
6
CONTINUOUS
10
167.08
20
-104.35
11
165.08
21
-106.35
0
LINE
8
BLACK
6
CONTINUOUS
10
165.08
20
-106.35
11
167.08
21
-108.35
0
LINE
8
BLACK
6
CONTINUOUS
10
171.9
20
-97.5
11
173.9
21
-95.5
0
LINE
8
BLACK
6
CONTINUOUS
10
173.9
20
-95.5
11
171.9
21
-93.5
0
LINE
8
BLACK
6
CONTINUOUS
10
171.9
20
-93.5
11
169.9
21
-95.5
0
LINE
8
BLACK
6
CONTINUOUS
10
169.9
20
-95.5
11
171.9
21
-97.5
0
LINE
8
BLACK
6
CONTINUOUS
10
176.675
20
-59.3
11
178.675
21
-57.3
0
LINE
8
BLACK
6
CONTINUOUS
10
178.675
20
-57.3
11
176.675
21
-55.3
0
LINE
8
BLACK
6
CONTINUOUS
10
176.675
20
-55.3
11
174.675
21
-57.3
0
LINE
8
BLACK
6
CONTINUOUS
10
174.675
20
-57.3
11
176.675
21
-59.3
0
LINE
8
BLACK
6
CONTINUOUS
10
178.98
20
-116.59
11
180.98
21
-114.59
0
LINE
8
BLACK
6
CONTINUOUS
10
180.98
20
-114.59
11
178.98
21
-112.59
0
LINE
8
BLACK
6
CONTINUOUS
10
178.98
20
-112.59
11
176.98
21
-114.59
0
LINE
8
BLACK
6
CONTINUOUS
10
176.98
20
-114.59
11
178.98
21
-116.59
0
LINE
8
BLACK
6
CONTINUOUS
10
181.45
20
-78.4
11
183.45
21
-76.4
0
LINE
8
BLACK
6
CONTINUOUS
10
183.45
20
-76.4
11
181.45
21
-74.4
0
LINE
8
BLACK
6
CONTINUOUS
10
181.45
20
-74.4
11
179.45
21
-76.4
0
LINE
8
BLACK
6
CONTINUOUS
10
179.45
20
-76.4
11
181.45
21
-78.4
0
LINE
8
BLACK
6
CONTINUOUS
10
190.88
20
-108.35
11
192.88
21
-106.35
0
LINE
8
BLACK
6
CONTINUOUS
10
192.88
20
-106.35
11
190.88
21
-104.35
0
LINE
8
BLACK
6
CONTINUOUS
10
190.88
20
-104.35
11
188.88
21
-106.35
0
LINE
8
BLACK
6
CONTINUOUS
10
188.88
20
-106.35
11
190.88
21
-108.35
0
LINE
8
BLACK
6
CONTINUOUS
10
191
20
-97.5
11
193
21
-95.5
0
LINE
8
BLACK
6
CONTINUOUS
10
193
20
-95.5
11
191
21
-93.5
0
LINE
8
BLACK
6
CONTINUOUS
10
191
20
-93.5
11
189
21
-95.5
0
LINE
8
BLACK
6
CONTINUOUS
10
189
20
-95.5
11
191
21
-97.5
0
LINE
8
BLACK
6
CONTINUOUS
10
195.637
20
-108.37
11
197.637
21
-106.37
0
LINE
8
BLACK
6
CONTINUOUS
10
197.637
20
-106.37
11
195.637
21
-104.37
0
LINE
8
BLACK
6
CONTINUOUS
10
195.637
20
-104.37
11
193.637
21
-106.37
0
LINE
8
BLACK
6
CONTINUOUS
10
193.637
20
-106.37
11
195.637
21
-108.37
0
LINE
8
BLACK
6
CONTINUOUS
10
195.775
20
-59.3
11
197.775
21
-57.3
0
LINE
8
BLACK
6
CONTINUOUS
10
197.775
20
-57.3
11
195.775
21
-55.3
0
LINE
8
BLACK
6
CONTINUOUS
10
195.775
20
-55.3
11
193.775
21
-57.3
0
LINE
8
BLACK
6
CONTINUOUS
10
193.775
20
-57.3
11
195.775
21
-59.3
0
LINE
8
BLACK
6
CONTINUOUS
10
200.55
20
-78.4
11
202.55
21
-76.4
0
LINE
8
BLACK
6
CONTINUOUS
10
202.55
20
-76.4
11
200.55
21
-74.4
0
LINE
8
BLACK
6
CONTINUOUS
10
200.55
20
-74.4
11
198.55
21
-76.4
0
LINE
8
BLACK
6
CONTINUOUS
10
198.55
20
-76.4
11
200.55
21
-78.4
0
LINE
8
BLACK
6
CONTINUOUS
10
210.1
20
-97.5
11
212.1
21
-95.5
0
LINE
8
BLACK
6
CONTINUOUS
10
212.1
20
-95.5
11
210.1
21
-93.5
0
LINE
8
BLACK
6
CONTINUOUS
10
210.1
20
-93.5
11
208.1
21
-95.5
0
LINE
8
BLACK
6
CONTINUOUS
10
208.1
20
-95.5
11
210.1
21
-97.5
0
LINE
8
BLACK
6
CONTINUOUS
10
214.875
20
-59.3
11
216.875
21
-57.3
0
LINE
8
BLACK
6
CONTINUOUS
10
216.875
20
-57.3
11
214.875
21
-55.3
0
LINE
8
BLACK
6
CONTINUOUS
10
214.875
20
-55.3
11
212.875
21
-57.3
0
LINE
8
BLACK
6
CONTINUOUS
10
212.875
20
-57.3
11
214.875
21
-59.3
0
LINE
8
BLACK
6
CONTINUOUS
10
217.262
20
-116.6
11
219.262
21
-114.6
0
LINE
8
BLACK
6
CONTINUOUS
10
219.262
20
-114.6
11
217.262
21
-112.6
0
LINE
8
BLACK
6
CONTINUOUS
10
217.262
20
-112.6
11
215.262
21
-114.6
0
LINE
8
BLACK
6
CONTINUOUS
10
215.262
20
-114.6
11
217.262
21
-116.6
0
LINE
8
BLACK
6
CONTINUOUS
10
219.65
20
-78.4
11
221.65
21
-76.4
0
LINE
8
BLACK
6
CONTINUOUS
10
221.65
20
-76.4
11
219.65
21
-74.4
0
LINE
8
BLACK
6
CONTINUOUS
10
219.65
20
-74.4
11
217.65
21
-76.4
0
LINE
8
BLACK
6
CONTINUOUS
10
217.65
20
-76.4
11
219.65
21
-78.4
0
LINE
8
BLACK
6
CONTINUOUS
10
229.2
20
-97.5
11
231.2
21
-95.5
0
LINE
8
BLACK
6
CONTINUOUS
10
231.2
20
-95.5
11
229.2
21
-93.5
0
LINE
8
BLACK
6
CONTINUOUS
10
229.2
20
-93.5
11
227.2
21
-95.5
0
LINE
8
BLACK
6
CONTINUOUS
10
227.2
20
-95.5
11
229.2
21
-97.5
0
LINE
8
BLACK
6
CONTINUOUS
10
233.975
20
-59.3
11
235.975
21
-57.3
0
LINE
8
BLACK
6
CONTINUOUS
10
235.975
20
-57.3
11
233.975
21
-55.3
0
LINE
8
BLACK
6
CONTINUOUS
10
233.975
20
-55.3
11
231.975
21
-57.3
0
LINE
8
BLACK
6
CONTINUOUS
10
231.975
20
-57.3
11
233.975
21
-59.3
0
LINE
8
BLACK
6
CONTINUOUS
10
238.75
20
-78.4
11
240.75
21
-76.4
0
LINE
8
BLACK
6
CONTINUOUS
10
240.75
20
-76.4
11
238.75
21
-74.4
0
LINE
8
BLACK
6
CONTINUOUS
10
238.75
20
-74.4
11
236.75
21
-76.4
0
LINE
8
BLACK
6
CONTINUOUS
10
236.75
20
-76.4
11
238.75
21
-78.4
0
LINE
8
BLACK
6
CONTINUOUS
10
238.75
20
-116.6
11
240.75
21
-114.6
0
LINE
8
BLACK
6
CONTINUOUS
10
240.75
20
-114.6
11
238.75
21
-112.6
0
LINE
8
BLACK
6
CONTINUOUS
10
238.75
20
-112.6
11
236.75
21
-114.6
0
LINE
8
BLACK
6
CONTINUOUS
10
236.75
20
-114.6
11
238.75
21
-116.6
0
LINE
8
BLACK
6
CONTINUOUS
10
238.787
20
-86.64
11
240.787
21
-84.64
0
LINE
8
BLACK
6
CONTINUOUS
10
240.787
20
-84.64
11
238.787
21
-82.64
0
LINE
8
BLACK
6
CONTINUOUS
10
238.787
20
-82.64
11
236.787
21
-84.64
0
LINE
8
BLACK
6
CONTINUOUS
10
236.787
20
-84.64
11
238.787
21
-86.64
0
LINE
8
BLACK
6
CONTINUOUS
10
250.688
20
-78.4
11
252.688
21
-76.4
0
LINE
8
BLACK
6
CONTINUOUS
10
252.688
20
-76.4
11
250.688
21
-74.4
0
LINE
8
BLACK
6
CONTINUOUS
10
250.688
20
-74.4
11
248.688
21
-76.4
0
LINE
8
BLACK
6
CONTINUOUS
10
248.688
20
-76.4
11
250.688
21
-78.4
0
LINE
8
BLACK
6
CONTINUOUS
10
255.462
20
-97.5
11
257.462
21
-95.5
0
LINE
8
BLACK
6
CONTINUOUS
10
257.462
20
-95.5
11
255.462
21
-93.5
0
LINE
8
BLACK
6
CONTINUOUS
10
255.462
20
-93.5
11
253.462
21
-95.5
0
LINE
8
BLACK
6
CONTINUOUS
10
253.462
20
-95.5
11
255.462
21
-97.5
0
LINE
8
BLACK
6
CONTINUOUS
10
257.85
20
-59.3
11
259.85
21
-57.3
0
LINE
8
BLACK
6
CONTINUOUS
10
259.85
20
-57.3
11
257.85
21
-55.3
0
LINE
8
BLACK
6
CONTINUOUS
10
257.85
20
-55.3
11
255.85
21
-57.3
0
LINE
8
BLACK
6
CONTINUOUS
10
255.85
20
-57.3
11
257.85
21
-59.3
0
LINE
8
BLACK
6
CONTINUOUS
10
260.238
20
-78.4
11
262.238
21
-76.4
0
LINE
8
BLACK
6
CONTINUOUS
10
262.238
20
-76.4
11
260.238
21
-74.4
0
LINE
8
BLACK
6
CONTINUOUS
10
260.238
20
-74.4
11
258.238
21
-76.4
0
LINE
8
BLACK
6
CONTINUOUS
10
258.238
20
-76.4
11
260.238
21
-78.4
0
LINE
8
BLACK
6
CONTINUOUS
10
260.238
20
-116.6
11
262.238
21
-114.6
0
LINE
8
BLACK
6
CONTINUOUS
10
262.238
20
-114.6
11
260.238
21
-112.6
0
LINE
8
BLACK
6
CONTINUOUS
10
260.238
20
-112.6
11
258.238
21
-114.6
0
LINE
8
BLACK
6
CONTINUOUS
10
258.238
20
-114.6
11
260.238
21
-116.6
0
LINE
8
BLACK
6
CONTINUOUS
10
262.587
20
-86.64
11
264.587
21
-84.64
0
LINE
8
BLACK
6
CONTINUOUS
10
264.587
20
-84.64
11
262.587
21
-82.64
0
LINE
8
BLACK
6
CONTINUOUS
10
262.587
20
-82.64
11
260.587
21
-84.64
0
LINE
8
BLACK
6
CONTINUOUS
10
260.587
20
-84.64
11
262.587
21
-86.64
0
LINE
8
BLACK
6
CONTINUOUS
10
26.4012
20
-127.305
11
26.4012
21
-125.305
0
LINE
8
BLACK
6
CONTINUOUS
10
26.4012
20
-125.305
11
26.8774
21
-125.305
0
LINE
8
BLACK
6
CONTINUOUS
10
26.8774
20
-125.305
11
27.1631
21
-125.4
0
LINE
8
BLACK
6
CONTINUOUS
10
27.1631
20
-125.4
11
27.3536
21
-125.59
0
LINE
8
BLACK
6
CONTINUOUS
10
27.3536
20
-125.59
11
27.4488
21
-125.781
0
LINE
8
BLACK
6
CONTINUOUS
10
27.4488
20
-125.781
11
27.544
21
-126.162
0
LINE
8
BLACK
6
CONTINUOUS
10
27.544
20
-126.162
11
27.544
21
-126.448
0
LINE
8
BLACK
6
CONTINUOUS
10
27.544
20
-126.448
11
27.4488
21
-126.829
0
LINE
8
BLACK
6
CONTINUOUS
10
27.4488
20
-126.829
11
27.3536
21
-127.019
0
LINE
8
BLACK
6
CONTINUOUS
10
27.3536
20
-127.019
11
27.1631
21
-127.21
0
LINE
8
BLACK
6
CONTINUOUS
10
27.1631
20
-127.21
11
26.8774
21
-127.305
0
LINE
8
BLACK
6
CONTINUOUS
10
26.8774
20
-127.305
11
26.4012
21
-127.305
0
LINE
8
BLACK
6
CONTINUOUS
10
28.4012
20
-127.305
11
28.4012
21
-125.971
0
LINE
8
BLACK
6
CONTINUOUS
10
28.4012
20
-126.352
11
28.4964
21
-126.162
0
LINE
8
BLACK
6
CONTINUOUS
10
28.4964
20
-126.162
11
28.5917
21
-126.067
0
LINE
8
BLACK
6
CONTINUOUS
10
28.5917
20
-126.067
11
28.7821
21
-125.971
0
LINE
8
BLACK
6
CONTINUOUS
10
28.7821
20
-125.971
11
28.9726
21
-125.971
0
LINE
8
BLACK
6
CONTINUOUS
10
29.6393
20
-127.305
11
29.6393
21
-125.971
0
LINE
8
BLACK
6
CONTINUOUS
10
29.6393
20
-125.305
11
29.544
21
-125.4
0
LINE
8
BLACK
6
CONTINUOUS
10
29.544
20
-125.4
11
29.6393
21
-125.495
0
LINE
8
BLACK
6
CONTINUOUS
10
29.6393
20
-125.495
11
29.7345
21
-125.4
0
LINE
8
BLACK
6
CONTINUOUS
10
29.7345
20
-125.4
11
29.6393
21
-125.305
0
LINE
8
BLACK
6
CONTINUOUS
10
29.6393
20
-125.305
11
29.6393
21
-125.495
0
LINE
8
BLACK
6
CONTINUOUS
10
30.8774
20
-127.305
11
30.6869
21
-127.21
0
LINE
8
BLACK
6
CONTINUOUS
10
30.6869
20
-127.21
11
30.5917
21
-127.019
0
LINE
8
BLACK
6
CONTINUOUS
10
30.5917
20
-127.019
11
30.5917
21
-125.305
0
LINE
8
BLACK
6
CONTINUOUS
10
31.925
20
-127.305
11
31.7345
21
-127.21
0
LINE
8
BLACK
6
CONTINUOUS
10
31.7345
20
-127.21
11
31.6393
21
-127.019
0
LINE
8
BLACK
6
CONTINUOUS
10
31.6393
20
-127.019
11
31.6393
21
-125.305
0
LINE
8
BLACK
6
CONTINUOUS
10
34.2107
20
-127.305
11
34.2107
21
-125.305
0
LINE
8
BLACK
6
CONTINUOUS
10
34.2107
20
-125.305
11
34.8774
21
-126.733
0
LINE
8
BLACK
6
CONTINUOUS
10
34.8774
20
-126.733
11
35.544
21
-125.305
0
LINE
8
BLACK
6
CONTINUOUS
10
35.544
20
-125.305
11
35.544
21
-127.305
0
LINE
8
BLACK
6
CONTINUOUS
10
37.3536
20
-127.305
11
37.3536
21
-126.257
0
LINE
8
BLACK
6
CONTINUOUS
10
37.3536
20
-126.257
11
37.2583
21
-126.067
0
LINE
8
BLACK
6
CONTINUOUS
10
37.2583
20
-126.067
11
37.0679
21
-125.971
0
LINE
8
BLACK
6
CONTINUOUS
10
37.0679
20
-125.971
11
36.6869
21
-125.971
0
LINE
8
BLACK
6
CONTINUOUS
10
36.6869
20
-125.971
11
36.4964
21
-126.067
0
LINE
8
BLACK
6
CONTINUOUS
10
37.3536
20
-127.21
11
37.1631
21
-127.305
0
LINE
8
BLACK
6
CONTINUOUS
10
37.1631
20
-127.305
11
36.6869
21
-127.305
0
LINE
8
BLACK
6
CONTINUOUS
10
36.6869
20
-127.305
11
36.4964
21
-127.21
0
LINE
8
BLACK
6
CONTINUOUS
10
36.4964
20
-127.21
11
36.4012
21
-127.019
0
LINE
8
BLACK
6
CONTINUOUS
10
36.4012
20
-127.019
11
36.4012
21
-126.829
0
LINE
8
BLACK
6
CONTINUOUS
10
36.4012
20
-126.829
11
36.4964
21
-126.638
0
LINE
8
BLACK
6
CONTINUOUS
10
36.4964
20
-126.638
11
36.6869
21
-126.543
0
LINE
8
BLACK
6
CONTINUOUS
10
36.6869
20
-126.543
11
37.1631
21
-126.543
0
LINE
8
BLACK
6
CONTINUOUS
10
37.1631
20
-126.543
11
37.3536
21
-126.448
0
LINE
8
BLACK
6
CONTINUOUS
10
38.306
20
-125.971
11
38.306
21
-127.971
0
LINE
8
BLACK
6
CONTINUOUS
10
38.306
20
-126.067
11
38.4964
21
-125.971
0
LINE
8
BLACK
6
CONTINUOUS
10
38.4964
20
-125.971
11
38.8774
21
-125.971
0
LINE
8
BLACK
6
CONTINUOUS
10
38.8774
20
-125.971
11
39.0679
21
-126.067
0
LINE
8
BLACK
6
CONTINUOUS
10
39.0679
20
-126.067
11
39.1631
21
-126.162
0
LINE
8
BLACK
6
CONTINUOUS
10
39.1631
20
-126.162
11
39.2583
21
-126.352
0
LINE
8
BLACK
6
CONTINUOUS
10
39.2583
20
-126.352
11
39.2583
21
-126.924
0
LINE
8
BLACK
6
CONTINUOUS
10
39.2583
20
-126.924
11
39.1631
21
-127.114
0
LINE
8
BLACK
6
CONTINUOUS
10
39.1631
20
-127.114
11
39.0679
21
-127.21
0
LINE
8
BLACK
6
CONTINUOUS
10
39.0679
20
-127.21
11
38.8774
21
-127.305
0
LINE
8
BLACK
6
CONTINUOUS
10
38.8774
20
-127.305
11
38.4964
21
-127.305
0
LINE
8
BLACK
6
CONTINUOUS
10
38.4964
20
-127.305
11
38.306
21
-127.21
0
LINE
8
BLACK
6
CONTINUOUS
10
40.1155
20
-127.114
11
40.2107
21
-127.21
0
LINE
8
BLACK
6
CONTINUOUS
10
40.2107
20
-127.21
11
40.1155
21
-127.305
0
LINE
8
BLACK
6
CONTINUOUS
10
40.1155
20
-127.305
11
40.0202
21
-127.21
0
LINE
8
BLACK
6
CONTINUOUS
10
40.0202
20
-127.21
11
40.1155
21
-127.114
0
LINE
8
BLACK
6
CONTINUOUS
10
40.1155
20
-127.114
11
40.1155
21
-127.305
0
LINE
8
BLACK
6
CONTINUOUS
10
40.1155
20
-126.067
11
40.2107
21
-126.162
0
LINE
8
BLACK
6
CONTINUOUS
10
40.2107
20
-126.162
11
40.1155
21
-126.257
0
LINE
8
BLACK
6
CONTINUOUS
10
40.1155
20
-126.257
11
40.0202
21
-126.162
0
LINE
8
BLACK
6
CONTINUOUS
10
40.0202
20
-126.162
11
40.1155
21
-126.067
0
LINE
8
BLACK
6
CONTINUOUS
10
40.1155
20
-126.067
11
40.1155
21
-126.257
0
LINE
8
BLACK
6
CONTINUOUS
10
22.325
20
-129.85
11
23.825
21
-131.35
0
LINE
8
BLACK
6
CONTINUOUS
10
23.825
20
-129.85
11
22.325
21
-131.35
0
LINE
8
BLACK
6
CONTINUOUS
10
27.4488
20
-131.505
11
26.306
21
-131.505
0
LINE
8
BLACK
6
CONTINUOUS
10
26.8774
20
-131.505
11
26.8774
21
-129.505
0
LINE
8
BLACK
6
CONTINUOUS
10
26.8774
20
-129.505
11
26.6869
21
-129.79
0
LINE
8
BLACK
6
CONTINUOUS
10
26.6869
20
-129.79
11
26.4964
21
-129.981
0
LINE
8
BLACK
6
CONTINUOUS
10
26.4964
20
-129.981
11
26.306
21
-130.076
0
LINE
8
BLACK
6
CONTINUOUS
10
28.306
20
-131.314
11
28.4012
21
-131.41
0
LINE
8
BLACK
6
CONTINUOUS
10
28.4012
20
-131.41
11
28.306
21
-131.505
0
LINE
8
BLACK
6
CONTINUOUS
10
28.306
20
-131.505
11
28.2107
21
-131.41
0
LINE
8
BLACK
6
CONTINUOUS
10
28.2107
20
-131.41
11
28.306
21
-131.314
0
LINE
8
BLACK
6
CONTINUOUS
10
28.306
20
-131.314
11
28.306
21
-131.505
0
LINE
8
BLACK
6
CONTINUOUS
10
30.2107
20
-129.505
11
29.2583
21
-129.505
0
LINE
8
BLACK
6
CONTINUOUS
10
29.2583
20
-129.505
11
29.1631
21
-130.457
0
LINE
8
BLACK
6
CONTINUOUS
10
29.1631
20
-130.457
11
29.2583
21
-130.362
0
LINE
8
BLACK
6
CONTINUOUS
10
29.2583
20
-130.362
11
29.4488
21
-130.267
0
LINE
8
BLACK
6
CONTINUOUS
10
29.4488
20
-130.267
11
29.925
21
-130.267
0
LINE
8
BLACK
6
CONTINUOUS
10
29.925
20
-130.267
11
30.1155
21
-130.362
0
LINE
8
BLACK
6
CONTINUOUS
10
30.1155
20
-130.362
11
30.2107
21
-130.457
0
LINE
8
BLACK
6
CONTINUOUS
10
30.2107
20
-130.457
11
30.306
21
-130.648
0
LINE
8
BLACK
6
CONTINUOUS
10
30.306
20
-130.648
11
30.306
21
-131.124
0
LINE
8
BLACK
6
CONTINUOUS
10
30.306
20
-131.124
11
30.2107
21
-131.314
0
LINE
8
BLACK
6
CONTINUOUS
10
30.2107
20
-131.314
11
30.1155
21
-131.41
0
LINE
8
BLACK
6
CONTINUOUS
10
30.1155
20
-131.41
11
29.925
21
-131.505
0
LINE
8
BLACK
6
CONTINUOUS
10
29.925
20
-131.505
11
29.4488
21
-131.505
0
LINE
8
BLACK
6
CONTINUOUS
10
29.4488
20
-131.505
11
29.2583
21
-131.41
0
LINE
8
BLACK
6
CONTINUOUS
10
29.2583
20
-131.41
11
29.1631
21
-131.314
0
LINE
8
BLACK
6
CONTINUOUS
10
31.544
20
-129.505
11
31.7345
21
-129.505
0
LINE
8
BLACK
6
CONTINUOUS
10
31.7345
20
-129.505
11
31.925
21
-129.6
0
LINE
8
BLACK
6
CONTINUOUS
10
31.925
20
-129.6
11
32.0202
21
-129.695
0
LINE
8
BLACK
6
CONTINUOUS
10
32.0202
20
-129.695
11
32.1155
21
-129.886
0
LINE
8
BLACK
6
CONTINUOUS
10
32.1155
20
-129.886
11
32.2107
21
-130.267
0
LINE
8
BLACK
6
CONTINUOUS
10
32.2107
20
-130.267
11
32.2107
21
-130.743
0
LINE
8
BLACK
6
CONTINUOUS
10
32.2107
20
-130.743
11
32.1155
21
-131.124
0
LINE
8
BLACK
6
CONTINUOUS
10
32.1155
20
-131.124
11
32.0202
21
-131.314
0
LINE
8
BLACK
6
CONTINUOUS
10
32.0202
20
-131.314
11
31.925
21
-131.41
0
LINE
8
BLACK
6
CONTINUOUS
10
31.925
20
-131.41
11
31.7345
21
-131.505
0
LINE
8
BLACK
6
CONTINUOUS
10
31.7345
20
-131.505
11
31.544
21
-131.505
0
LINE
8
BLACK
6
CONTINUOUS
10
31.544
20
-131.505
11
31.3536
21
-131.41
0
LINE
8
BLACK
6
CONTINUOUS
10
31.3536
20
-131.41
11
31.2583
21
-131.314
0
LINE
8
BLACK
6
CONTINUOUS
10
31.2583
20
-131.314
11
31.1631
21
-131.124
0
LINE
8
BLACK
6
CONTINUOUS
10
31.1631
20
-131.124
11
31.0679
21
-130.743
0
LINE
8
BLACK
6
CONTINUOUS
10
31.0679
20
-130.743
11
31.0679
21
-130.267
0
LINE
8
BLACK
6
CONTINUOUS
10
31.0679
20
-130.267
11
31.1631
21
-129.886
0
LINE
8
BLACK
6
CONTINUOUS
10
31.1631
20
-129.886
11
31.2583
21
-129.695
0
LINE
8
BLACK
6
CONTINUOUS
10
31.2583
20
-129.695
11
31.3536
21
-129.6
0
LINE
8
BLACK
6
CONTINUOUS
10
31.3536
20
-129.6
11
31.544
21
-129.505
0
LINE
8
BLACK
6
CONTINUOUS
10
33.4488
20
-129.505
11
33.6393
21
-129.505
0
LINE
8
BLACK
6
CONTINUOUS
10
33.6393
20
-129.505
11
33.8298
21
-129.6
0
LINE
8
BLACK
6
CONTINUOUS
10
33.8298
20
-129.6
11
33.925
21
-129.695
0
LINE
8
BLACK
6
CONTINUOUS
10
33.925
20
-129.695
11
34.0202
21
-129.886
0
LINE
8
BLACK
6
CONTINUOUS
10
34.0202
20
-129.886
11
34.1155
21
-130.267
0
LINE
8
BLACK
6
CONTINUOUS
10
34.1155
20
-130.267
11
34.1155
21
-130.743
0
LINE
8
BLACK
6
CONTINUOUS
10
34.1155
20
-130.743
11
34.0202
21
-131.124
0
LINE
8
BLACK
6
CONTINUOUS
10
34.0202
20
-131.124
11
33.925
21
-131.314
0
LINE
8
BLACK
6
CONTINUOUS
10
33.925
20
-131.314
11
33.8298
21
-131.41
0
LINE
8
BLACK
6
CONTINUOUS
10
33.8298
20
-131.41
11
33.6393
21
-131.505
0
LINE
8
BLACK
6
CONTINUOUS
10
33.6393
20
-131.505
11
33.4488
21
-131.505
0
LINE
8
BLACK
6
CONTINUOUS
10
33.4488
20
-131.505
11
33.2583
21
-131.41
0
LINE
8
BLACK
6
CONTINUOUS
10
33.2583
20
-131.41
11
33.1631
21
-131.314
0
LINE
8
BLACK
6
CONTINUOUS
10
33.1631
20
-131.314
11
33.0679
21
-131.124
0
LINE
8
BLACK
6
CONTINUOUS
10
33.0679
20
-131.124
11
32.9726
21
-130.743
0
LINE
8
BLACK
6
CONTINUOUS
10
32.9726
20
-130.743
11
32.9726
21
-130.267
0
LINE
8
BLACK
6
CONTINUOUS
10
32.9726
20
-130.267
11
33.0679
21
-129.886
0
LINE
8
BLACK
6
CONTINUOUS
10
33.0679
20
-129.886
11
33.1631
21
-129.695
0
LINE
8
BLACK
6
CONTINUOUS
10
33.1631
20
-129.695
11
33.2583
21
-129.6
0
LINE
8
BLACK
6
CONTINUOUS
10
33.2583
20
-129.6
11
33.4488
21
-129.505
0
LINE
8
BLACK
6
CONTINUOUS
10
34.9726
20
-131.505
11
34.9726
21
-130.171
0
LINE
8
BLACK
6
CONTINUOUS
10
34.9726
20
-130.362
11
35.0679
21
-130.267
0
LINE
8
BLACK
6
CONTINUOUS
10
35.0679
20
-130.267
11
35.2583
21
-130.171
0
LINE
8
BLACK
6
CONTINUOUS
10
35.2583
20
-130.171
11
35.544
21
-130.171
0
LINE
8
BLACK
6
CONTINUOUS
10
35.544
20
-130.171
11
35.7345
21
-130.267
0
LINE
8
BLACK
6
CONTINUOUS
10
35.7345
20
-130.267
11
35.8298
21
-130.457
0
LINE
8
BLACK
6
CONTINUOUS
10
35.8298
20
-130.457
11
35.8298
21
-131.505
0
LINE
8
BLACK
6
CONTINUOUS
10
35.8298
20
-130.457
11
35.925
21
-130.267
0
LINE
8
BLACK
6
CONTINUOUS
10
35.925
20
-130.267
11
36.1155
21
-130.171
0
LINE
8
BLACK
6
CONTINUOUS
10
36.1155
20
-130.171
11
36.4012
21
-130.171
0
LINE
8
BLACK
6
CONTINUOUS
10
36.4012
20
-130.171
11
36.5917
21
-130.267
0
LINE
8
BLACK
6
CONTINUOUS
10
36.5917
20
-130.267
11
36.6869
21
-130.457
0
LINE
8
BLACK
6
CONTINUOUS
10
36.6869
20
-130.457
11
36.6869
21
-131.505
0
LINE
8
BLACK
6
CONTINUOUS
10
37.6393
20
-131.505
11
37.6393
21
-130.171
0
LINE
8
BLACK
6
CONTINUOUS
10
37.6393
20
-130.362
11
37.7345
21
-130.267
0
LINE
8
BLACK
6
CONTINUOUS
10
37.7345
20
-130.267
11
37.925
21
-130.171
0
LINE
8
BLACK
6
CONTINUOUS
10
37.925
20
-130.171
11
38.2107
21
-130.171
0
LINE
8
BLACK
6
CONTINUOUS
10
38.2107
20
-130.171
11
38.4012
21
-130.267
0
LINE
8
BLACK
6
CONTINUOUS
10
38.4012
20
-130.267
11
38.4964
21
-130.457
0
LINE
8
BLACK
6
CONTINUOUS
10
38.4964
20
-130.457
11
38.4964
21
-131.505
0
LINE
8
BLACK
6
CONTINUOUS
10
38.4964
20
-130.457
11
38.5917
21
-130.267
0
LINE
8
BLACK
6
CONTINUOUS
10
38.5917
20
-130.267
11
38.7821
21
-130.171
0
LINE
8
BLACK
6
CONTINUOUS
10
38.7821
20
-130.171
11
39.0679
21
-130.171
0
LINE
8
BLACK
6
CONTINUOUS
10
39.0679
20
-130.171
11
39.2583
21
-130.267
0
LINE
8
BLACK
6
CONTINUOUS
10
39.2583
20
-130.267
11
39.3536
21
-130.457
0
LINE
8
BLACK
6
CONTINUOUS
10
39.3536
20
-130.457
11
39.3536
21
-131.505
0
LINE
8
BLACK
6
CONTINUOUS
10
43.2583
20
-129.41
11
41.544
21
-131.981
0
LINE
8
BLACK
6
CONTINUOUS
10
45.8298
20
-129.505
11
46.0202
21
-129.505
0
LINE
8
BLACK
6
CONTINUOUS
10
46.0202
20
-129.505
11
46.2107
21
-129.6
0
LINE
8
BLACK
6
CONTINUOUS
10
46.2107
20
-129.6
11
46.306
21
-129.695
0
LINE
8
BLACK
6
CONTINUOUS
10
46.306
20
-129.695
11
46.4012
21
-129.886
0
LINE
8
BLACK
6
CONTINUOUS
10
46.4012
20
-129.886
11
46.4964
21
-130.267
0
LINE
8
BLACK
6
CONTINUOUS
10
46.4964
20
-130.267
11
46.4964
21
-130.743
0
LINE
8
BLACK
6
CONTINUOUS
10
46.4964
20
-130.743
11
46.4012
21
-131.124
0
LINE
8
BLACK
6
CONTINUOUS
10
46.4012
20
-131.124
11
46.306
21
-131.314
0
LINE
8
BLACK
6
CONTINUOUS
10
46.306
20
-131.314
11
46.2107
21
-131.41
0
LINE
8
BLACK
6
CONTINUOUS
10
46.2107
20
-131.41
11
46.0202
21
-131.505
0
LINE
8
BLACK
6
CONTINUOUS
10
46.0202
20
-131.505
11
45.8298
21
-131.505
0
LINE
8
BLACK
6
CONTINUOUS
10
45.8298
20
-131.505
11
45.6393
21
-131.41
0
LINE
8
BLACK
6
CONTINUOUS
10
45.6393
20
-131.41
11
45.544
21
-131.314
0
LINE
8
BLACK
6
CONTINUOUS
10
45.544
20
-131.314
11
45.4488
21
-131.124
0
LINE
8
BLACK
6
CONTINUOUS
10
45.4488
20
-131.124
11
45.3536
21
-130.743
0
LINE
8
BLACK
6
CONTINUOUS
10
45.3536
20
-130.743
11
45.3536
21
-130.267
0
LINE
8
BLACK
6
CONTINUOUS
10
45.3536
20
-130.267
11
45.4488
21
-129.886
0
LINE
8
BLACK
6
CONTINUOUS
10
45.4488
20
-129.886
11
45.544
21
-129.695
0
LINE
8
BLACK
6
CONTINUOUS
10
45.544
20
-129.695
11
45.6393
21
-129.6
0
LINE
8
BLACK
6
CONTINUOUS
10
45.6393
20
-129.6
11
45.8298
21
-129.505
0
LINE
8
BLACK
6
CONTINUOUS
10
47.3536
20
-131.314
11
47.4488
21
-131.41
0
LINE
8
BLACK
6
CONTINUOUS
10
47.4488
20
-131.41
11
47.3536
21
-131.505
0
LINE
8
BLACK
6
CONTINUOUS
10
47.3536
20
-131.505
11
47.2583
21
-131.41
0
LINE
8
BLACK
6
CONTINUOUS
10
47.2583
20
-131.41
11
47.3536
21
-131.314
0
LINE
8
BLACK
6
CONTINUOUS
10
47.3536
20
-131.314
11
47.3536
21
-131.505
0
LINE
8
BLACK
6
CONTINUOUS
10
48.6869
20
-129.505
11
48.8774
21
-129.505
0
LINE
8
BLACK
6
CONTINUOUS
10
48.8774
20
-129.505
11
49.0679
21
-129.6
0
LINE
8
BLACK
6
CONTINUOUS
10
49.0679
20
-129.6
11
49.1631
21
-129.695
0
LINE
8
BLACK
6
CONTINUOUS
10
49.1631
20
-129.695
11
49.2583
21
-129.886
0
LINE
8
BLACK
6
CONTINUOUS
10
49.2583
20
-129.886
11
49.3536
21
-130.267
0
LINE
8
BLACK
6
CONTINUOUS
10
49.3536
20
-130.267
11
49.3536
21
-130.743
0
LINE
8
BLACK
6
CONTINUOUS
10
49.3536
20
-130.743
11
49.2583
21
-131.124
0
LINE
8
BLACK
6
CONTINUOUS
10
49.2583
20
-131.124
11
49.1631
21
-131.314
0
LINE
8
BLACK
6
CONTINUOUS
10
49.1631
20
-131.314
11
49.0679
21
-131.41
0
LINE
8
BLACK
6
CONTINUOUS
10
49.0679
20
-131.41
11
48.8774
21
-131.505
0
LINE
8
BLACK
6
CONTINUOUS
10
48.8774
20
-131.505
11
48.6869
21
-131.505
0
LINE
8
BLACK
6
CONTINUOUS
10
48.6869
20
-131.505
11
48.4964
21
-131.41
0
LINE
8
BLACK
6
CONTINUOUS
10
48.4964
20
-131.41
11
48.4012
21
-131.314
0
LINE
8
BLACK
6
CONTINUOUS
10
48.4012
20
-131.314
11
48.306
21
-131.124
0
LINE
8
BLACK
6
CONTINUOUS
10
48.306
20
-131.124
11
48.2107
21
-130.743
0
LINE
8
BLACK
6
CONTINUOUS
10
48.2107
20
-130.743
11
48.2107
21
-130.267
0
LINE
8
BLACK
6
CONTINUOUS
10
48.2107
20
-130.267
11
48.306
21
-129.886
0
LINE
8
BLACK
6
CONTINUOUS
10
48.306
20
-129.886
11
48.4012
21
-129.695
0
LINE
8
BLACK
6
CONTINUOUS
10
48.4012
20
-129.695
11
48.4964
21
-129.6
0
LINE
8
BLACK
6
CONTINUOUS
10
48.4964
20
-129.6
11
48.6869
21
-129.505
0
LINE
8
BLACK
6
CONTINUOUS
10
51.1631
20
-129.505
11
50.2107
21
-129.505
0
LINE
8
BLACK
6
CONTINUOUS
10
50.2107
20
-129.505
11
50.1155
21
-130.457
0
LINE
8
BLACK
6
CONTINUOUS
10
50.1155
20
-130.457
11
50.2107
21
-130.362
0
LINE
8
BLACK
6
CONTINUOUS
10
50.2107
20
-130.362
11
50.4012
21
-130.267
0
LINE
8
BLACK
6
CONTINUOUS
10
50.4012
20
-130.267
11
50.8774
21
-130.267
0
LINE
8
BLACK
6
CONTINUOUS
10
50.8774
20
-130.267
11
51.0679
21
-130.362
0
LINE
8
BLACK
6
CONTINUOUS
10
51.0679
20
-130.362
11
51.1631
21
-130.457
0
LINE
8
BLACK
6
CONTINUOUS
10
51.1631
20
-130.457
11
51.2583
21
-130.648
0
LINE
8
BLACK
6
CONTINUOUS
10
51.2583
20
-130.648
11
51.2583
21
-131.124
0
LINE
8
BLACK
6
CONTINUOUS
10
51.2583
20
-131.124
11
51.1631
21
-131.314
0
LINE
8
BLACK
6
CONTINUOUS
10
51.1631
20
-131.314
11
51.0679
21
-131.41
0
LINE
8
BLACK
6
CONTINUOUS
10
51.0679
20
-131.41
11
50.8774
21
-131.505
0
LINE
8
BLACK
6
CONTINUOUS
10
50.8774
20
-131.505
11
50.4012
21
-131.505
0
LINE
8
BLACK
6
CONTINUOUS
10
50.4012
20
-131.505
11
50.2107
21
-131.41
0
LINE
8
BLACK
6
CONTINUOUS
10
50.2107
20
-131.41
11
50.1155
21
-131.314
0
LINE
8
BLACK
6
CONTINUOUS
10
52.2107
20
-131.505
11
52.5917
21
-131.505
0
LINE
8
BLACK
6
CONTINUOUS
10
52.5917
20
-131.505
11
52.7821
21
-131.41
0
LINE
8
BLACK
6
CONTINUOUS
10
52.7821
20
-131.41
11
52.8774
21
-131.314
0
LINE
8
BLACK
6
CONTINUOUS
10
52.8774
20
-131.314
11
53.0679
21
-131.029
0
LINE
8
BLACK
6
CONTINUOUS
10
53.0679
20
-131.029
11
53.1631
21
-130.648
0
LINE
8
BLACK
6
CONTINUOUS
10
53.1631
20
-130.648
11
53.1631
21
-129.886
0
LINE
8
BLACK
6
CONTINUOUS
10
53.1631
20
-129.886
11
53.0679
21
-129.695
0
LINE
8
BLACK
6
CONTINUOUS
10
53.0679
20
-129.695
11
52.9726
21
-129.6
0
LINE
8
BLACK
6
CONTINUOUS
10
52.9726
20
-129.6
11
52.7821
21
-129.505
0
LINE
8
BLACK
6
CONTINUOUS
10
52.7821
20
-129.505
11
52.4012
21
-129.505
0
LINE
8
BLACK
6
CONTINUOUS
10
52.4012
20
-129.505
11
52.2107
21
-129.6
0
LINE
8
BLACK
6
CONTINUOUS
10
52.2107
20
-129.6
11
52.1155
21
-129.695
0
LINE
8
BLACK
6
CONTINUOUS
10
52.1155
20
-129.695
11
52.0202
21
-129.886
0
LINE
8
BLACK
6
CONTINUOUS
10
52.0202
20
-129.886
11
52.0202
21
-130.362
0
LINE
8
BLACK
6
CONTINUOUS
10
52.0202
20
-130.362
11
52.1155
21
-130.552
0
LINE
8
BLACK
6
CONTINUOUS
10
52.1155
20
-130.552
11
52.2107
21
-130.648
0
LINE
8
BLACK
6
CONTINUOUS
10
52.2107
20
-130.648
11
52.4012
21
-130.743
0
LINE
8
BLACK
6
CONTINUOUS
10
52.4012
20
-130.743
11
52.7821
21
-130.743
0
LINE
8
BLACK
6
CONTINUOUS
10
52.7821
20
-130.743
11
52.9726
21
-130.648
0
LINE
8
BLACK
6
CONTINUOUS
10
52.9726
20
-130.648
11
53.0679
21
-130.552
0
LINE
8
BLACK
6
CONTINUOUS
10
53.0679
20
-130.552
11
53.1631
21
-130.362
0
LINE
8
BLACK
6
CONTINUOUS
10
55.0679
20
-131.505
11
53.925
21
-131.505
0
LINE
8
BLACK
6
CONTINUOUS
10
54.4964
20
-131.505
11
54.4964
21
-129.505
0
LINE
8
BLACK
6
CONTINUOUS
10
54.4964
20
-129.505
11
54.306
21
-129.79
0
LINE
8
BLACK
6
CONTINUOUS
10
54.306
20
-129.79
11
54.1155
21
-129.981
0
LINE
8
BLACK
6
CONTINUOUS
10
54.1155
20
-129.981
11
53.925
21
-130.076
0
LINE
8
BLACK
6
CONTINUOUS
10
55.8298
20
-129.505
11
55.8298
21
-129.886
0
LINE
8
BLACK
6
CONTINUOUS
10
56.5917
20
-129.505
11
56.5917
21
-129.886
0
LINE
8
BLACK
6
CONTINUOUS
10
59.544
20
-132.267
11
59.4488
21
-132.171
0
LINE
8
BLACK
6
CONTINUOUS
10
59.4488
20
-132.171
11
59.2583
21
-131.886
0
LINE
8
BLACK
6
CONTINUOUS
10
59.2583
20
-131.886
11
59.1631
21
-131.695
0
LINE
8
BLACK
6
CONTINUOUS
10
59.1631
20
-131.695
11
59.0679
21
-131.41
0
LINE
8
BLACK
6
CONTINUOUS
10
59.0679
20
-131.41
11
58.9726
21
-130.933
0
LINE
8
BLACK
6
CONTINUOUS
10
58.9726
20
-130.933
11
58.9726
21
-130.552
0
LINE
8
BLACK
6
CONTINUOUS
10
58.9726
20
-130.552
11
59.0679
21
-130.076
0
LINE
8
BLACK
6
CONTINUOUS
10
59.0679
20
-130.076
11
59.1631
21
-129.79
0
LINE
8
BLACK
6
CONTINUOUS
10
59.1631
20
-129.79
11
59.2583
21
-129.6
0
LINE
8
BLACK
6
CONTINUOUS
10
59.2583
20
-129.6
11
59.4488
21
-129.314
0
LINE
8
BLACK
6
CONTINUOUS
10
59.4488
20
-129.314
11
59.544
21
-129.219
0
LINE
8
BLACK
6
CONTINUOUS
10
60.6869
20
-129.505
11
60.8774
21
-129.505
0
LINE
8
BLACK
6
CONTINUOUS
10
60.8774
20
-129.505
11
61.0679
21
-129.6
0
LINE
8
BLACK
6
CONTINUOUS
10
61.0679
20
-129.6
11
61.1631
21
-129.695
0
LINE
8
BLACK
6
CONTINUOUS
10
61.1631
20
-129.695
11
61.2583
21
-129.886
0
LINE
8
BLACK
6
CONTINUOUS
10
61.2583
20
-129.886
11
61.3536
21
-130.267
0
LINE
8
BLACK
6
CONTINUOUS
10
61.3536
20
-130.267
11
61.3536
21
-130.743
0
LINE
8
BLACK
6
CONTINUOUS
10
61.3536
20
-130.743
11
61.2583
21
-131.124
0
LINE
8
BLACK
6
CONTINUOUS
10
61.2583
20
-131.124
11
61.1631
21
-131.314
0
LINE
8
BLACK
6
CONTINUOUS
10
61.1631
20
-131.314
11
61.0679
21
-131.41
0
LINE
8
BLACK
6
CONTINUOUS
10
61.0679
20
-131.41
11
60.8774
21
-131.505
0
LINE
8
BLACK
6
CONTINUOUS
10
60.8774
20
-131.505
11
60.6869
21
-131.505
0
LINE
8
BLACK
6
CONTINUOUS
10
60.6869
20
-131.505
11
60.4964
21
-131.41
0
LINE
8
BLACK
6
CONTINUOUS
10
60.4964
20
-131.41
11
60.4012
21
-131.314
0
LINE
8
BLACK
6
CONTINUOUS
10
60.4012
20
-131.314
11
60.306
21
-131.124
0
LINE
8
BLACK
6
CONTINUOUS
10
60.306
20
-131.124
11
60.2107
21
-130.743
0
LINE
8
BLACK
6
CONTINUOUS
10
60.2107
20
-130.743
11
60.2107
21
-130.267
0
LINE
8
BLACK
6
CONTINUOUS
10
60.2107
20
-130.267
11
60.306
21
-129.886
0
LINE
8
BLACK
6
CONTINUOUS
10
60.306
20
-129.886
11
60.4012
21
-129.695
0
LINE
8
BLACK
6
CONTINUOUS
10
60.4012
20
-129.695
11
60.4964
21
-129.6
0
LINE
8
BLACK
6
CONTINUOUS
10
60.4964
20
-129.6
11
60.6869
21
-129.505
0
LINE
8
BLACK
6
CONTINUOUS
10
63.7345
20
-131.505
11
63.7345
21
-129.505
0
LINE
8
BLACK
6
CONTINUOUS
10
64.5917
20
-131.505
11
64.5917
21
-130.457
0
LINE
8
BLACK
6
CONTINUOUS
10
64.5917
20
-130.457
11
64.4964
21
-130.267
0
LINE
8
BLACK
6
CONTINUOUS
10
64.4964
20
-130.267
11
64.306
21
-130.171
0
LINE
8
BLACK
6
CONTINUOUS
10
64.306
20
-130.171
11
64.0202
21
-130.171
0
LINE
8
BLACK
6
CONTINUOUS
10
64.0202
20
-130.171
11
63.8298
21
-130.267
0
LINE
8
BLACK
6
CONTINUOUS
10
63.8298
20
-130.267
11
63.7345
21
-130.362
0
LINE
8
BLACK
6
CONTINUOUS
10
65.8298
20
-131.505
11
65.6393
21
-131.41
0
LINE
8
BLACK
6
CONTINUOUS
10
65.6393
20
-131.41
11
65.544
21
-131.314
0
LINE
8
BLACK
6
CONTINUOUS
10
65.544
20
-131.314
11
65.4488
21
-131.124
0
LINE
8
BLACK
6
CONTINUOUS
10
65.4488
20
-131.124
11
65.4488
21
-130.552
0
LINE
8
BLACK
6
CONTINUOUS
10
65.4488
20
-130.552
11
65.544
21
-130.362
0
LINE
8
BLACK
6
CONTINUOUS
10
65.544
20
-130.362
11
65.6393
21
-130.267
0
LINE
8
BLACK
6
CONTINUOUS
10
65.6393
20
-130.267
11
65.8298
21
-130.171
0
LINE
8
BLACK
6
CONTINUOUS
10
65.8298
20
-130.171
11
66.1155
21
-130.171
0
LINE
8
BLACK
6
CONTINUOUS
10
66.1155
20
-130.171
11
66.306
21
-130.267
0
LINE
8
BLACK
6
CONTINUOUS
10
66.306
20
-130.267
11
66.4012
21
-130.362
0
LINE
8
BLACK
6
CONTINUOUS
10
66.4012
20
-130.362
11
66.4964
21
-130.552
0
LINE
8
BLACK
6
CONTINUOUS
10
66.4964
20
-130.552
11
66.4964
21
-131.124
0
LINE
8
BLACK
6
CONTINUOUS
10
66.4964
20
-131.124
11
66.4012
21
-131.314
0
LINE
8
BLACK
6
CONTINUOUS
10
66.4012
20
-131.314
11
66.306
21
-131.41
0
LINE
8
BLACK
6
CONTINUOUS
10
66.306
20
-131.41
11
66.1155
21
-131.505
0
LINE
8
BLACK
6
CONTINUOUS
10
66.1155
20
-131.505
11
65.8298
21
-131.505
0
LINE
8
BLACK
6
CONTINUOUS
10
67.6393
20
-131.505
11
67.4488
21
-131.41
0
LINE
8
BLACK
6
CONTINUOUS
10
67.4488
20
-131.41
11
67.3536
21
-131.219
0
LINE
8
BLACK
6
CONTINUOUS
10
67.3536
20
-131.219
11
67.3536
21
-129.505
0
LINE
8
BLACK
6
CONTINUOUS
10
69.1631
20
-131.41
11
68.9726
21
-131.505
0
LINE
8
BLACK
6
CONTINUOUS
10
68.9726
20
-131.505
11
68.5917
21
-131.505
0
LINE
8
BLACK
6
CONTINUOUS
10
68.5917
20
-131.505
11
68.4012
21
-131.41
0
LINE
8
BLACK
6
CONTINUOUS
10
68.4012
20
-131.41
11
68.306
21
-131.219
0
LINE
8
BLACK
6
CONTINUOUS
10
68.306
20
-131.219
11
68.306
21
-130.457
0
LINE
8
BLACK
6
CONTINUOUS
10
68.306
20
-130.457
11
68.4012
21
-130.267
0
LINE
8
BLACK
6
CONTINUOUS
10
68.4012
20
-130.267
11
68.5917
21
-130.171
0
LINE
8
BLACK
6
CONTINUOUS
10
68.5917
20
-130.171
11
68.9726
21
-130.171
0
LINE
8
BLACK
6
CONTINUOUS
10
68.9726
20
-130.171
11
69.1631
21
-130.267
0
LINE
8
BLACK
6
CONTINUOUS
10
69.1631
20
-130.267
11
69.2583
21
-130.457
0
LINE
8
BLACK
6
CONTINUOUS
10
69.2583
20
-130.457
11
69.2583
21
-130.648
0
LINE
8
BLACK
6
CONTINUOUS
10
69.2583
20
-130.648
11
68.306
21
-130.838
0
LINE
8
BLACK
6
CONTINUOUS
10
70.0202
20
-131.41
11
70.2107
21
-131.505
0
LINE
8
BLACK
6
CONTINUOUS
10
70.2107
20
-131.505
11
70.5917
21
-131.505
0
LINE
8
BLACK
6
CONTINUOUS
10
70.5917
20
-131.505
11
70.7821
21
-131.41
0
LINE
8
BLACK
6
CONTINUOUS
10
70.7821
20
-131.41
11
70.8774
21
-131.219
0
LINE
8
BLACK
6
CONTINUOUS
10
70.8774
20
-131.219
11
70.8774
21
-131.124
0
LINE
8
BLACK
6
CONTINUOUS
10
70.8774
20
-131.124
11
70.7821
21
-130.933
0
LINE
8
BLACK
6
CONTINUOUS
10
70.7821
20
-130.933
11
70.5917
21
-130.838
0
LINE
8
BLACK
6
CONTINUOUS
10
70.5917
20
-130.838
11
70.306
21
-130.838
0
LINE
8
BLACK
6
CONTINUOUS
10
70.306
20
-130.838
11
70.1155
21
-130.743
0
LINE
8
BLACK
6
CONTINUOUS
10
70.1155
20
-130.743
11
70.0202
21
-130.552
0
LINE
8
BLACK
6
CONTINUOUS
10
70.0202
20
-130.552
11
70.0202
21
-130.457
0
LINE
8
BLACK
6
CONTINUOUS
10
70.0202
20
-130.457
11
70.1155
21
-130.267
0
LINE
8
BLACK
6
CONTINUOUS
10
70.1155
20
-130.267
11
70.306
21
-130.171
0
LINE
8
BLACK
6
CONTINUOUS
10
70.306
20
-130.171
11
70.5917
21
-130.171
0
LINE
8
BLACK
6
CONTINUOUS
10
70.5917
20
-130.171
11
70.7821
21
-130.267
0
LINE
8
BLACK
6
CONTINUOUS
10
73.2583
20
-130.743
11
74.7821
21
-130.743
0
LINE
8
BLACK
6
CONTINUOUS
10
74.0202
20
-131.505
11
74.0202
21
-129.981
0
LINE
8
BLACK
6
CONTINUOUS
10
78.1155
20
-130.171
11
78.1155
21
-131.505
0
LINE
8
BLACK
6
CONTINUOUS
10
77.6393
20
-129.41
11
77.1631
21
-130.838
0
LINE
8
BLACK
6
CONTINUOUS
10
77.1631
20
-130.838
11
78.4012
21
-130.838
0
LINE
8
BLACK
6
CONTINUOUS
10
80.5917
20
-131.41
11
80.7821
21
-131.505
0
LINE
8
BLACK
6
CONTINUOUS
10
80.7821
20
-131.505
11
81.1631
21
-131.505
0
LINE
8
BLACK
6
CONTINUOUS
10
81.1631
20
-131.505
11
81.3536
21
-131.41
0
LINE
8
BLACK
6
CONTINUOUS
10
81.3536
20
-131.41
11
81.4488
21
-131.219
0
LINE
8
BLACK
6
CONTINUOUS
10
81.4488
20
-131.219
11
81.4488
21
-131.124
0
LINE
8
BLACK
6
CONTINUOUS
10
81.4488
20
-131.124
11
81.3536
21
-130.933
0
LINE
8
BLACK
6
CONTINUOUS
10
81.3536
20
-130.933
11
81.1631
21
-130.838
0
LINE
8
BLACK
6
CONTINUOUS
10
81.1631
20
-130.838
11
80.8774
21
-130.838
0
LINE
8
BLACK
6
CONTINUOUS
10
80.8774
20
-130.838
11
80.6869
21
-130.743
0
LINE
8
BLACK
6
CONTINUOUS
10
80.6869
20
-130.743
11
80.5917
21
-130.552
0
LINE
8
BLACK
6
CONTINUOUS
10
80.5917
20
-130.552
11
80.5917
21
-130.457
0
LINE
8
BLACK
6
CONTINUOUS
10
80.5917
20
-130.457
11
80.6869
21
-130.267
0
LINE
8
BLACK
6
CONTINUOUS
10
80.6869
20
-130.267
11
80.8774
21
-130.171
0
LINE
8
BLACK
6
CONTINUOUS
10
80.8774
20
-130.171
11
81.1631
21
-130.171
0
LINE
8
BLACK
6
CONTINUOUS
10
81.1631
20
-130.171
11
81.3536
21
-130.267
0
LINE
8
BLACK
6
CONTINUOUS
10
82.5917
20
-131.505
11
82.4012
21
-131.41
0
LINE
8
BLACK
6
CONTINUOUS
10
82.4012
20
-131.41
11
82.306
21
-131.219
0
LINE
8
BLACK
6
CONTINUOUS
10
82.306
20
-131.219
11
82.306
21
-129.505
0
LINE
8
BLACK
6
CONTINUOUS
10
83.6393
20
-131.505
11
83.4488
21
-131.41
0
LINE
8
BLACK
6
CONTINUOUS
10
83.4488
20
-131.41
11
83.3536
21
-131.314
0
LINE
8
BLACK
6
CONTINUOUS
10
83.3536
20
-131.314
11
83.2583
21
-131.124
0
LINE
8
BLACK
6
CONTINUOUS
10
83.2583
20
-131.124
11
83.2583
21
-130.552
0
LINE
8
BLACK
6
CONTINUOUS
10
83.2583
20
-130.552
11
83.3536
21
-130.362
0
LINE
8
BLACK
6
CONTINUOUS
10
83.3536
20
-130.362
11
83.4488
21
-130.267
0
LINE
8
BLACK
6
CONTINUOUS
10
83.4488
20
-130.267
11
83.6393
21
-130.171
0
LINE
8
BLACK
6
CONTINUOUS
10
83.6393
20
-130.171
11
83.925
21
-130.171
0
LINE
8
BLACK
6
CONTINUOUS
10
83.925
20
-130.171
11
84.1155
21
-130.267
0
LINE
8
BLACK
6
CONTINUOUS
10
84.1155
20
-130.267
11
84.2107
21
-130.362
0
LINE
8
BLACK
6
CONTINUOUS
10
84.2107
20
-130.362
11
84.306
21
-130.552
0
LINE
8
BLACK
6
CONTINUOUS
10
84.306
20
-130.552
11
84.306
21
-131.124
0
LINE
8
BLACK
6
CONTINUOUS
10
84.306
20
-131.124
11
84.2107
21
-131.314
0
LINE
8
BLACK
6
CONTINUOUS
10
84.2107
20
-131.314
11
84.1155
21
-131.41
0
LINE
8
BLACK
6
CONTINUOUS
10
84.1155
20
-131.41
11
83.925
21
-131.505
0
LINE
8
BLACK
6
CONTINUOUS
10
83.925
20
-131.505
11
83.6393
21
-131.505
0
LINE
8
BLACK
6
CONTINUOUS
10
84.8774
20
-130.171
11
85.6393
21
-130.171
0
LINE
8
BLACK
6
CONTINUOUS
10
85.1631
20
-129.505
11
85.1631
21
-131.219
0
LINE
8
BLACK
6
CONTINUOUS
10
85.1631
20
-131.219
11
85.2583
21
-131.41
0
LINE
8
BLACK
6
CONTINUOUS
10
85.2583
20
-131.41
11
85.4488
21
-131.505
0
LINE
8
BLACK
6
CONTINUOUS
10
85.4488
20
-131.505
11
85.6393
21
-131.505
0
LINE
8
BLACK
6
CONTINUOUS
10
86.2107
20
-131.41
11
86.4012
21
-131.505
0
LINE
8
BLACK
6
CONTINUOUS
10
86.4012
20
-131.505
11
86.7821
21
-131.505
0
LINE
8
BLACK
6
CONTINUOUS
10
86.7821
20
-131.505
11
86.9726
21
-131.41
0
LINE
8
BLACK
6
CONTINUOUS
10
86.9726
20
-131.41
11
87.0679
21
-131.219
0
LINE
8
BLACK
6
CONTINUOUS
10
87.0679
20
-131.219
11
87.0679
21
-131.124
0
LINE
8
BLACK
6
CONTINUOUS
10
87.0679
20
-131.124
11
86.9726
21
-130.933
0
LINE
8
BLACK
6
CONTINUOUS
10
86.9726
20
-130.933
11
86.7821
21
-130.838
0
LINE
8
BLACK
6
CONTINUOUS
10
86.7821
20
-130.838
11
86.4964
21
-130.838
0
LINE
8
BLACK
6
CONTINUOUS
10
86.4964
20
-130.838
11
86.306
21
-130.743
0
LINE
8
BLACK
6
CONTINUOUS
10
86.306
20
-130.743
11
86.2107
21
-130.552
0
LINE
8
BLACK
6
CONTINUOUS
10
86.2107
20
-130.552
11
86.2107
21
-130.457
0
LINE
8
BLACK
6
CONTINUOUS
10
86.2107
20
-130.457
11
86.306
21
-130.267
0
LINE
8
BLACK
6
CONTINUOUS
10
86.306
20
-130.267
11
86.4964
21
-130.171
0
LINE
8
BLACK
6
CONTINUOUS
10
86.4964
20
-130.171
11
86.7821
21
-130.171
0
LINE
8
BLACK
6
CONTINUOUS
10
86.7821
20
-130.171
11
86.9726
21
-130.267
0
LINE
8
BLACK
6
CONTINUOUS
10
87.7345
20
-132.267
11
87.8298
21
-132.171
0
LINE
8
BLACK
6
CONTINUOUS
10
87.8298
20
-132.171
11
88.0202
21
-131.886
0
LINE
8
BLACK
6
CONTINUOUS
10
88.0202
20
-131.886
11
88.1155
21
-131.695
0
LINE
8
BLACK
6
CONTINUOUS
10
88.1155
20
-131.695
11
88.2107
21
-131.41
0
LINE
8
BLACK
6
CONTINUOUS
10
88.2107
20
-131.41
11
88.306
21
-130.933
0
LINE
8
BLACK
6
CONTINUOUS
10
88.306
20
-130.933
11
88.306
21
-130.552
0
LINE
8
BLACK
6
CONTINUOUS
10
88.306
20
-130.552
11
88.2107
21
-130.076
0
LINE
8
BLACK
6
CONTINUOUS
10
88.2107
20
-130.076
11
88.1155
21
-129.79
0
LINE
8
BLACK
6
CONTINUOUS
10
88.1155
20
-129.79
11
88.0202
21
-129.6
0
LINE
8
BLACK
6
CONTINUOUS
10
88.0202
20
-129.6
11
87.8298
21
-129.314
0
LINE
8
BLACK
6
CONTINUOUS
10
87.8298
20
-129.314
11
87.7345
21
-129.219
0
LINE
8
BLACK
6
CONTINUOUS
10
91.3536
20
-132.267
11
91.2583
21
-132.171
0
LINE
8
BLACK
6
CONTINUOUS
10
91.2583
20
-132.171
11
91.0679
21
-131.886
0
LINE
8
BLACK
6
CONTINUOUS
10
91.0679
20
-131.886
11
90.9726
21
-131.695
0
LINE
8
BLACK
6
CONTINUOUS
10
90.9726
20
-131.695
11
90.8774
21
-131.41
0
LINE
8
BLACK
6
CONTINUOUS
10
90.8774
20
-131.41
11
90.7821
21
-130.933
0
LINE
8
BLACK
6
CONTINUOUS
10
90.7821
20
-130.933
11
90.7821
21
-130.552
0
LINE
8
BLACK
6
CONTINUOUS
10
90.7821
20
-130.552
11
90.8774
21
-130.076
0
LINE
8
BLACK
6
CONTINUOUS
10
90.8774
20
-130.076
11
90.9726
21
-129.79
0
LINE
8
BLACK
6
CONTINUOUS
10
90.9726
20
-129.79
11
91.0679
21
-129.6
0
LINE
8
BLACK
6
CONTINUOUS
10
91.0679
20
-129.6
11
91.2583
21
-129.314
0
LINE
8
BLACK
6
CONTINUOUS
10
91.2583
20
-129.314
11
91.3536
21
-129.219
0
LINE
8
BLACK
6
CONTINUOUS
10
92.1155
20
-130.171
11
92.1155
21
-131.505
0
LINE
8
BLACK
6
CONTINUOUS
10
92.1155
20
-130.362
11
92.2107
21
-130.267
0
LINE
8
BLACK
6
CONTINUOUS
10
92.2107
20
-130.267
11
92.4012
21
-130.171
0
LINE
8
BLACK
6
CONTINUOUS
10
92.4012
20
-130.171
11
92.6869
21
-130.171
0
LINE
8
BLACK
6
CONTINUOUS
10
92.6869
20
-130.171
11
92.8774
21
-130.267
0
LINE
8
BLACK
6
CONTINUOUS
10
92.8774
20
-130.267
11
92.9726
21
-130.457
0
LINE
8
BLACK
6
CONTINUOUS
10
92.9726
20
-130.457
11
92.9726
21
-131.505
0
LINE
8
BLACK
6
CONTINUOUS
10
94.2107
20
-131.505
11
94.0202
21
-131.41
0
LINE
8
BLACK
6
CONTINUOUS
10
94.0202
20
-131.41
11
93.925
21
-131.314
0
LINE
8
BLACK
6
CONTINUOUS
10
93.925
20
-131.314
11
93.8298
21
-131.124
0
LINE
8
BLACK
6
CONTINUOUS
10
93.8298
20
-131.124
11
93.8298
21
-130.552
0
LINE
8
BLACK
6
CONTINUOUS
10
93.8298
20
-130.552
11
93.925
21
-130.362
0
LINE
8
BLACK
6
CONTINUOUS
10
93.925
20
-130.362
11
94.0202
21
-130.267
0
LINE
8
BLACK
6
CONTINUOUS
10
94.0202
20
-130.267
11
94.2107
21
-130.171
0
LINE
8
BLACK
6
CONTINUOUS
10
94.2107
20
-130.171
11
94.4964
21
-130.171
0
LINE
8
BLACK
6
CONTINUOUS
10
94.4964
20
-130.171
11
94.6869
21
-130.267
0
LINE
8
BLACK
6
CONTINUOUS
10
94.6869
20
-130.267
11
94.7821
21
-130.362
0
LINE
8
BLACK
6
CONTINUOUS
10
94.7821
20
-130.362
11
94.8774
21
-130.552
0
LINE
8
BLACK
6
CONTINUOUS
10
94.8774
20
-130.552
11
94.8774
21
-131.124
0
LINE
8
BLACK
6
CONTINUOUS
10
94.8774
20
-131.124
11
94.7821
21
-131.314
0
LINE
8
BLACK
6
CONTINUOUS
10
94.7821
20
-131.314
11
94.6869
21
-131.41
0
LINE
8
BLACK
6
CONTINUOUS
10
94.6869
20
-131.41
11
94.4964
21
-131.505
0
LINE
8
BLACK
6
CONTINUOUS
10
94.4964
20
-131.505
11
94.2107
21
-131.505
0
LINE
8
BLACK
6
CONTINUOUS
10
95.4488
20
-130.171
11
96.2107
21
-130.171
0
LINE
8
BLACK
6
CONTINUOUS
10
95.7345
20
-129.505
11
95.7345
21
-131.219
0
LINE
8
BLACK
6
CONTINUOUS
10
95.7345
20
-131.219
11
95.8298
21
-131.41
0
LINE
8
BLACK
6
CONTINUOUS
10
95.8298
20
-131.41
11
96.0202
21
-131.505
0
LINE
8
BLACK
6
CONTINUOUS
10
96.0202
20
-131.505
11
96.2107
21
-131.505
0
LINE
8
BLACK
6
CONTINUOUS
10
98.4012
20
-130.171
11
98.4012
21
-132.171
0
LINE
8
BLACK
6
CONTINUOUS
10
98.4012
20
-130.267
11
98.5917
21
-130.171
0
LINE
8
BLACK
6
CONTINUOUS
10
98.5917
20
-130.171
11
98.9726
21
-130.171
0
LINE
8
BLACK
6
CONTINUOUS
10
98.9726
20
-130.171
11
99.1631
21
-130.267
0
LINE
8
BLACK
6
CONTINUOUS
10
99.1631
20
-130.267
11
99.2583
21
-130.362
0
LINE
8
BLACK
6
CONTINUOUS
10
99.2583
20
-130.362
11
99.3536
21
-130.552
0
LINE
8
BLACK
6
CONTINUOUS
10
99.3536
20
-130.552
11
99.3536
21
-131.124
0
LINE
8
BLACK
6
CONTINUOUS
10
99.3536
20
-131.124
11
99.2583
21
-131.314
0
LINE
8
BLACK
6
CONTINUOUS
10
99.2583
20
-131.314
11
99.1631
21
-131.41
0
LINE
8
BLACK
6
CONTINUOUS
10
99.1631
20
-131.41
11
98.9726
21
-131.505
0
LINE
8
BLACK
6
CONTINUOUS
10
98.9726
20
-131.505
11
98.5917
21
-131.505
0
LINE
8
BLACK
6
CONTINUOUS
10
98.5917
20
-131.505
11
98.4012
21
-131.41
0
LINE
8
BLACK
6
CONTINUOUS
10
100.496
20
-131.505
11
100.306
21
-131.41
0
LINE
8
BLACK
6
CONTINUOUS
10
100.306
20
-131.41
11
100.211
21
-131.219
0
LINE
8
BLACK
6
CONTINUOUS
10
100.211
20
-131.219
11
100.211
21
-129.505
0
LINE
8
BLACK
6
CONTINUOUS
10
102.115
20
-131.505
11
102.115
21
-130.457
0
LINE
8
BLACK
6
CONTINUOUS
10
102.115
20
-130.457
11
102.02
21
-130.267
0
LINE
8
BLACK
6
CONTINUOUS
10
102.02
20
-130.267
11
101.83
21
-130.171
0
LINE
8
BLACK
6
CONTINUOUS
10
101.83
20
-130.171
11
101.449
21
-130.171
0
LINE
8
BLACK
6
CONTINUOUS
10
101.449
20
-130.171
11
101.258
21
-130.267
0
LINE
8
BLACK
6
CONTINUOUS
10
102.115
20
-131.41
11
101.925
21
-131.505
0
LINE
8
BLACK
6
CONTINUOUS
10
101.925
20
-131.505
11
101.449
21
-131.505
0
LINE
8
BLACK
6
CONTINUOUS
10
101.449
20
-131.505
11
101.258
21
-131.41
0
LINE
8
BLACK
6
CONTINUOUS
10
101.258
20
-131.41
11
101.163
21
-131.219
0
LINE
8
BLACK
6
CONTINUOUS
10
101.163
20
-131.219
11
101.163
21
-131.029
0
LINE
8
BLACK
6
CONTINUOUS
10
101.163
20
-131.029
11
101.258
21
-130.838
0
LINE
8
BLACK
6
CONTINUOUS
10
101.258
20
-130.838
11
101.449
21
-130.743
0
LINE
8
BLACK
6
CONTINUOUS
10
101.449
20
-130.743
11
101.925
21
-130.743
0
LINE
8
BLACK
6
CONTINUOUS
10
101.925
20
-130.743
11
102.115
21
-130.648
0
LINE
8
BLACK
6
CONTINUOUS
10
102.782
20
-130.171
11
103.544
21
-130.171
0
LINE
8
BLACK
6
CONTINUOUS
10
103.068
20
-129.505
11
103.068
21
-131.219
0
LINE
8
BLACK
6
CONTINUOUS
10
103.068
20
-131.219
11
103.163
21
-131.41
0
LINE
8
BLACK
6
CONTINUOUS
10
103.163
20
-131.41
11
103.354
21
-131.505
0
LINE
8
BLACK
6
CONTINUOUS
10
103.354
20
-131.505
11
103.544
21
-131.505
0
LINE
8
BLACK
6
CONTINUOUS
10
104.973
20
-131.41
11
104.782
21
-131.505
0
LINE
8
BLACK
6
CONTINUOUS
10
104.782
20
-131.505
11
104.401
21
-131.505
0
LINE
8
BLACK
6
CONTINUOUS
10
104.401
20
-131.505
11
104.211
21
-131.41
0
LINE
8
BLACK
6
CONTINUOUS
10
104.211
20
-131.41
11
104.115
21
-131.219
0
LINE
8
BLACK
6
CONTINUOUS
10
104.115
20
-131.219
11
104.115
21
-130.457
0
LINE
8
BLACK
6
CONTINUOUS
10
104.115
20
-130.457
11
104.211
21
-130.267
0
LINE
8
BLACK
6
CONTINUOUS
10
104.211
20
-130.267
11
104.401
21
-130.171
0
LINE
8
BLACK
6
CONTINUOUS
10
104.401
20
-130.171
11
104.782
21
-130.171
0
LINE
8
BLACK
6
CONTINUOUS
10
104.782
20
-130.171
11
104.973
21
-130.267
0
LINE
8
BLACK
6
CONTINUOUS
10
104.973
20
-130.267
11
105.068
21
-130.457
0
LINE
8
BLACK
6
CONTINUOUS
10
105.068
20
-130.457
11
105.068
21
-130.648
0
LINE
8
BLACK
6
CONTINUOUS
10
105.068
20
-130.648
11
104.115
21
-130.838
0
LINE
8
BLACK
6
CONTINUOUS
10
106.782
20
-131.505
11
106.782
21
-129.505
0
LINE
8
BLACK
6
CONTINUOUS
10
106.782
20
-131.41
11
106.592
21
-131.505
0
LINE
8
BLACK
6
CONTINUOUS
10
106.592
20
-131.505
11
106.211
21
-131.505
0
LINE
8
BLACK
6
CONTINUOUS
10
106.211
20
-131.505
11
106.02
21
-131.41
0
LINE
8
BLACK
6
CONTINUOUS
10
106.02
20
-131.41
11
105.925
21
-131.314
0
LINE
8
BLACK
6
CONTINUOUS
10
105.925
20
-131.314
11
105.83
21
-131.124
0
LINE
8
BLACK
6
CONTINUOUS
10
105.83
20
-131.124
11
105.83
21
-130.552
0
LINE
8
BLACK
6
CONTINUOUS
10
105.83
20
-130.552
11
105.925
21
-130.362
0
LINE
8
BLACK
6
CONTINUOUS
10
105.925
20
-130.362
11
106.02
21
-130.267
0
LINE
8
BLACK
6
CONTINUOUS
10
106.02
20
-130.267
11
106.211
21
-130.171
0
LINE
8
BLACK
6
CONTINUOUS
10
106.211
20
-130.171
11
106.592
21
-130.171
0
LINE
8
BLACK
6
CONTINUOUS
10
106.592
20
-130.171
11
106.782
21
-130.267
0
LINE
8
BLACK
6
CONTINUOUS
10
107.544
20
-132.267
11
107.639
21
-132.171
0
LINE
8
BLACK
6
CONTINUOUS
10
107.639
20
-132.171
11
107.83
21
-131.886
0
LINE
8
BLACK
6
CONTINUOUS
10
107.83
20
-131.886
11
107.925
21
-131.695
0
LINE
8
BLACK
6
CONTINUOUS
10
107.925
20
-131.695
11
108.02
21
-131.41
0
LINE
8
BLACK
6
CONTINUOUS
10
108.02
20
-131.41
11
108.115
21
-130.933
0
LINE
8
BLACK
6
CONTINUOUS
10
108.115
20
-130.933
11
108.115
21
-130.552
0
LINE
8
BLACK
6
CONTINUOUS
10
108.115
20
-130.552
11
108.02
21
-130.076
0
LINE
8
BLACK
6
CONTINUOUS
10
108.02
20
-130.076
11
107.925
21
-129.79
0
LINE
8
BLACK
6
CONTINUOUS
10
107.925
20
-129.79
11
107.83
21
-129.6
0
LINE
8
BLACK
6
CONTINUOUS
10
107.83
20
-129.6
11
107.639
21
-129.314
0
LINE
8
BLACK
6
CONTINUOUS
10
107.639
20
-129.314
11
107.544
21
-129.219
0
CIRCLE
8
BLACK
10
22.975
20
-133.3
40
0.85
0
LINE
8
BLACK
6
CONTINUOUS
10
27.4488
20
-134.205
11
26.306
21
-134.205
0
LINE
8
BLACK
6
CONTINUOUS
10
26.8774
20
-134.205
11
26.8774
21
-132.205
0
LINE
8
BLACK
6
CONTINUOUS
10
26.8774
20
-132.205
11
26.6869
21
-132.49
0
LINE
8
BLACK
6
CONTINUOUS
10
26.6869
20
-132.49
11
26.4964
21
-132.681
0
LINE
8
BLACK
6
CONTINUOUS
10
26.4964
20
-132.681
11
26.306
21
-132.776
0
LINE
8
BLACK
6
CONTINUOUS
10
28.306
20
-134.014
11
28.4012
21
-134.11
0
LINE
8
BLACK
6
CONTINUOUS
10
28.4012
20
-134.11
11
28.306
21
-134.205
0
LINE
8
BLACK
6
CONTINUOUS
10
28.306
20
-134.205
11
28.2107
21
-134.11
0
LINE
8
BLACK
6
CONTINUOUS
10
28.2107
20
-134.11
11
28.306
21
-134.014
0
LINE
8
BLACK
6
CONTINUOUS
10
28.306
20
-134.014
11
28.306
21
-134.205
0
LINE
8
BLACK
6
CONTINUOUS
10
29.0679
20
-132.205
11
30.4012
21
-132.205
0
LINE
8
BLACK
6
CONTINUOUS
10
30.4012
20
-132.205
11
29.544
21
-134.205
0
LINE
8
BLACK
6
CONTINUOUS
10
31.544
20
-132.205
11
31.7345
21
-132.205
0
LINE
8
BLACK
6
CONTINUOUS
10
31.7345
20
-132.205
11
31.925
21
-132.3
0
LINE
8
BLACK
6
CONTINUOUS
10
31.925
20
-132.3
11
32.0202
21
-132.395
0
LINE
8
BLACK
6
CONTINUOUS
10
32.0202
20
-132.395
11
32.1155
21
-132.586
0
LINE
8
BLACK
6
CONTINUOUS
10
32.1155
20
-132.586
11
32.2107
21
-132.967
0
LINE
8
BLACK
6
CONTINUOUS
10
32.2107
20
-132.967
11
32.2107
21
-133.443
0
LINE
8
BLACK
6
CONTINUOUS
10
32.2107
20
-133.443
11
32.1155
21
-133.824
0
LINE
8
BLACK
6
CONTINUOUS
10
32.1155
20
-133.824
11
32.0202
21
-134.014
0
LINE
8
BLACK
6
CONTINUOUS
10
32.0202
20
-134.014
11
31.925
21
-134.11
0
LINE
8
BLACK
6
CONTINUOUS
10
31.925
20
-134.11
11
31.7345
21
-134.205
0
LINE
8
BLACK
6
CONTINUOUS
10
31.7345
20
-134.205
11
31.544
21
-134.205
0
LINE
8
BLACK
6
CONTINUOUS
10
31.544
20
-134.205
11
31.3536
21
-134.11
0
LINE
8
BLACK
6
CONTINUOUS
10
31.3536
20
-134.11
11
31.2583
21
-134.014
0
LINE
8
BLACK
6
CONTINUOUS
10
31.2583
20
-134.014
11
31.1631
21
-133.824
0
LINE
8
BLACK
6
CONTINUOUS
10
31.1631
20
-133.824
11
31.0679
21
-133.443
0
LINE
8
BLACK
6
CONTINUOUS
10
31.0679
20
-133.443
11
31.0679
21
-132.967
0
LINE
8
BLACK
6
CONTINUOUS
10
31.0679
20
-132.967
11
31.1631
21
-132.586
0
LINE
8
BLACK
6
CONTINUOUS
10
31.1631
20
-132.586
11
31.2583
21
-132.395
0
LINE
8
BLACK
6
CONTINUOUS
10
31.2583
20
-132.395
11
31.3536
21
-132.3
0
LINE
8
BLACK
6
CONTINUOUS
10
31.3536
20
-132.3
11
31.544
21
-132.205
0
LINE
8
BLACK
6
CONTINUOUS
10
33.4488
20
-132.205
11
33.6393
21
-132.205
0
LINE
8
BLACK
6
CONTINUOUS
10
33.6393
20
-132.205
11
33.8298
21
-132.3
0
LINE
8
BLACK
6
CONTINUOUS
10
33.8298
20
-132.3
11
33.925
21
-132.395
0
LINE
8
BLACK
6
CONTINUOUS
10
33.925
20
-132.395
11
34.0202
21
-132.586
0
LINE
8
BLACK
6
CONTINUOUS
10
34.0202
20
-132.586
11
34.1155
21
-132.967
0
LINE
8
BLACK
6
CONTINUOUS
10
34.1155
20
-132.967
11
34.1155
21
-133.443
0
LINE
8
BLACK
6
CONTINUOUS
10
34.1155
20
-133.443
11
34.0202
21
-133.824
0
LINE
8
BLACK
6
CONTINUOUS
10
34.0202
20
-133.824
11
33.925
21
-134.014
0
LINE
8
BLACK
6
CONTINUOUS
10
33.925
20
-134.014
11
33.8298
21
-134.11
0
LINE
8
BLACK
6
CONTINUOUS
10
33.8298
20
-134.11
11
33.6393
21
-134.205
0
LINE
8
BLACK
6
CONTINUOUS
10
33.6393
20
-134.205
11
33.4488
21
-134.205
0
LINE
8
BLACK
6
CONTINUOUS
10
33.4488
20
-134.205
11
33.2583
21
-134.11
0
LINE
8
BLACK
6
CONTINUOUS
10
33.2583
20
-134.11
11
33.1631
21
-134.014
0
LINE
8
BLACK
6
CONTINUOUS
10
33.1631
20
-134.014
11
33.0679
21
-133.824
0
LINE
8
BLACK
6
CONTINUOUS
10
33.0679
20
-133.824
11
32.9726
21
-133.443
0
LINE
8
BLACK
6
CONTINUOUS
10
32.9726
20
-133.443
11
32.9726
21
-132.967
0
LINE
8
BLACK
6
CONTINUOUS
10
32.9726
20
-132.967
11
33.0679
21
-132.586
0
LINE
8
BLACK
6
CONTINUOUS
10
33.0679
20
-132.586
11
33.1631
21
-132.395
0
LINE
8
BLACK
6
CONTINUOUS
10
33.1631
20
-132.395
11
33.2583
21
-132.3
0
LINE
8
BLACK
6
CONTINUOUS
10
33.2583
20
-132.3
11
33.4488
21
-132.205
0
LINE
8
BLACK
6
CONTINUOUS
10
34.9726
20
-134.205
11
34.9726
21
-132.871
0
LINE
8
BLACK
6
CONTINUOUS
10
34.9726
20
-133.062
11
35.0679
21
-132.967
0
LINE
8
BLACK
6
CONTINUOUS
10
35.0679
20
-132.967
11
35.2583
21
-132.871
0
LINE
8
BLACK
6
CONTINUOUS
10
35.2583
20
-132.871
11
35.544
21
-132.871
0
LINE
8
BLACK
6
CONTINUOUS
10
35.544
20
-132.871
11
35.7345
21
-132.967
0
LINE
8
BLACK
6
CONTINUOUS
10
35.7345
20
-132.967
11
35.8298
21
-133.157
0
LINE
8
BLACK
6
CONTINUOUS
10
35.8298
20
-133.157
11
35.8298
21
-134.205
0
LINE
8
BLACK
6
CONTINUOUS
10
35.8298
20
-133.157
11
35.925
21
-132.967
0
LINE
8
BLACK
6
CONTINUOUS
10
35.925
20
-132.967
11
36.1155
21
-132.871
0
LINE
8
BLACK
6
CONTINUOUS
10
36.1155
20
-132.871
11
36.4012
21
-132.871
0
LINE
8
BLACK
6
CONTINUOUS
10
36.4012
20
-132.871
11
36.5917
21
-132.967
0
LINE
8
BLACK
6
CONTINUOUS
10
36.5917
20
-132.967
11
36.6869
21
-133.157
0
LINE
8
BLACK
6
CONTINUOUS
10
36.6869
20
-133.157
11
36.6869
21
-134.205
0
LINE
8
BLACK
6
CONTINUOUS
10
37.6393
20
-134.205
11
37.6393
21
-132.871
0
LINE
8
BLACK
6
CONTINUOUS
10
37.6393
20
-133.062
11
37.7345
21
-132.967
0
LINE
8
BLACK
6
CONTINUOUS
10
37.7345
20
-132.967
11
37.925
21
-132.871
0
LINE
8
BLACK
6
CONTINUOUS
10
37.925
20
-132.871
11
38.2107
21
-132.871
0
LINE
8
BLACK
6
CONTINUOUS
10
38.2107
20
-132.871
11
38.4012
21
-132.967
0
LINE
8
BLACK
6
CONTINUOUS
10
38.4012
20
-132.967
11
38.4964
21
-133.157
0
LINE
8
BLACK
6
CONTINUOUS
10
38.4964
20
-133.157
11
38.4964
21
-134.205
0
LINE
8
BLACK
6
CONTINUOUS
10
38.4964
20
-133.157
11
38.5917
21
-132.967
0
LINE
8
BLACK
6
CONTINUOUS
10
38.5917
20
-132.967
11
38.7821
21
-132.871
0
LINE
8
BLACK
6
CONTINUOUS
10
38.7821
20
-132.871
11
39.0679
21
-132.871
0
LINE
8
BLACK
6
CONTINUOUS
10
39.0679
20
-132.871
11
39.2583
21
-132.967
0
LINE
8
BLACK
6
CONTINUOUS
10
39.2583
20
-132.967
11
39.3536
21
-133.157
0
LINE
8
BLACK
6
CONTINUOUS
10
39.3536
20
-133.157
11
39.3536
21
-134.205
0
LINE
8
BLACK
6
CONTINUOUS
10
43.2583
20
-132.11
11
41.544
21
-134.681
0
LINE
8
BLACK
6
CONTINUOUS
10
45.8298
20
-132.205
11
46.0202
21
-132.205
0
LINE
8
BLACK
6
CONTINUOUS
10
46.0202
20
-132.205
11
46.2107
21
-132.3
0
LINE
8
BLACK
6
CONTINUOUS
10
46.2107
20
-132.3
11
46.306
21
-132.395
0
LINE
8
BLACK
6
CONTINUOUS
10
46.306
20
-132.395
11
46.4012
21
-132.586
0
LINE
8
BLACK
6
CONTINUOUS
10
46.4012
20
-132.586
11
46.4964
21
-132.967
0
LINE
8
BLACK
6
CONTINUOUS
10
46.4964
20
-132.967
11
46.4964
21
-133.443
0
LINE
8
BLACK
6
CONTINUOUS
10
46.4964
20
-133.443
11
46.4012
21
-133.824
0
LINE
8
BLACK
6
CONTINUOUS
10
46.4012
20
-133.824
11
46.306
21
-134.014
0
LINE
8
BLACK
6
CONTINUOUS
10
46.306
20
-134.014
11
46.2107
21
-134.11
0
LINE
8
BLACK
6
CONTINUOUS
10
46.2107
20
-134.11
11
46.0202
21
-134.205
0
LINE
8
BLACK
6
CONTINUOUS
10
46.0202
20
-134.205
11
45.8298
21
-134.205
0
LINE
8
BLACK
6
CONTINUOUS
10
45.8298
20
-134.205
11
45.6393
21
-134.11
0
LINE
8
BLACK
6
CONTINUOUS
10
45.6393
20
-134.11
11
45.544
21
-134.014
0
LINE
8
BLACK
6
CONTINUOUS
10
45.544
20
-134.014
11
45.4488
21
-133.824
0
LINE
8
BLACK
6
CONTINUOUS
10
45.4488
20
-133.824
11
45.3536
21
-133.443
0
LINE
8
BLACK
6
CONTINUOUS
10
45.3536
20
-133.443
11
45.3536
21
-132.967
0
LINE
8
BLACK
6
CONTINUOUS
10
45.3536
20
-132.967
11
45.4488
21
-132.586
0
LINE
8
BLACK
6
CONTINUOUS
10
45.4488
20
-132.586
11
45.544
21
-132.395
0
LINE
8
BLACK
6
CONTINUOUS
10
45.544
20
-132.395
11
45.6393
21
-132.3
0
LINE
8
BLACK
6
CONTINUOUS
10
45.6393
20
-132.3
11
45.8298
21
-132.205
0
LINE
8
BLACK
6
CONTINUOUS
10
47.3536
20
-134.014
11
47.4488
21
-134.11
0
LINE
8
BLACK
6
CONTINUOUS
10
47.4488
20
-134.11
11
47.3536
21
-134.205
0
LINE
8
BLACK
6
CONTINUOUS
10
47.3536
20
-134.205
11
47.2583
21
-134.11
0
LINE
8
BLACK
6
CONTINUOUS
10
47.2583
20
-134.11
11
47.3536
21
-134.014
0
LINE
8
BLACK
6
CONTINUOUS
10
47.3536
20
-134.014
11
47.3536
21
-134.205
0
LINE
8
BLACK
6
CONTINUOUS
10
48.6869
20
-132.205
11
48.8774
21
-132.205
0
LINE
8
BLACK
6
CONTINUOUS
10
48.8774
20
-132.205
11
49.0679
21
-132.3
0
LINE
8
BLACK
6
CONTINUOUS
10
49.0679
20
-132.3
11
49.1631
21
-132.395
0
LINE
8
BLACK
6
CONTINUOUS
10
49.1631
20
-132.395
11
49.2583
21
-132.586
0
LINE
8
BLACK
6
CONTINUOUS
10
49.2583
20
-132.586
11
49.3536
21
-132.967
0
LINE
8
BLACK
6
CONTINUOUS
10
49.3536
20
-132.967
11
49.3536
21
-133.443
0
LINE
8
BLACK
6
CONTINUOUS
10
49.3536
20
-133.443
11
49.2583
21
-133.824
0
LINE
8
BLACK
6
CONTINUOUS
10
49.2583
20
-133.824
11
49.1631
21
-134.014
0
LINE
8
BLACK
6
CONTINUOUS
10
49.1631
20
-134.014
11
49.0679
21
-134.11
0
LINE
8
BLACK
6
CONTINUOUS
10
49.0679
20
-134.11
11
48.8774
21
-134.205
0
LINE
8
BLACK
6
CONTINUOUS
10
48.8774
20
-134.205
11
48.6869
21
-134.205
0
LINE
8
BLACK
6
CONTINUOUS
10
48.6869
20
-134.205
11
48.4964
21
-134.11
0
LINE
8
BLACK
6
CONTINUOUS
10
48.4964
20
-134.11
11
48.4012
21
-134.014
0
LINE
8
BLACK
6
CONTINUOUS
10
48.4012
20
-134.014
11
48.306
21
-133.824
0
LINE
8
BLACK
6
CONTINUOUS
10
48.306
20
-133.824
11
48.2107
21
-133.443
0
LINE
8
BLACK
6
CONTINUOUS
10
48.2107
20
-133.443
11
48.2107
21
-132.967
0
LINE
8
BLACK
6
CONTINUOUS
10
48.2107
20
-132.967
11
48.306
21
-132.586
0
LINE
8
BLACK
6
CONTINUOUS
10
48.306
20
-132.586
11
48.4012
21
-132.395
0
LINE
8
BLACK
6
CONTINUOUS
10
48.4012
20
-132.395
11
48.4964
21
-132.3
0
LINE
8
BLACK
6
CONTINUOUS
10
48.4964
20
-132.3
11
48.6869
21
-132.205
0
LINE
8
BLACK
6
CONTINUOUS
10
51.0679
20
-132.205
11
50.6869
21
-132.205
0
LINE
8
BLACK
6
CONTINUOUS
10
50.6869
20
-132.205
11
50.4964
21
-132.3
0
LINE
8
BLACK
6
CONTINUOUS
10
50.4964
20
-132.3
11
50.4012
21
-132.395
0
LINE
8
BLACK
6
CONTINUOUS
10
50.4012
20
-132.395
11
50.2107
21
-132.681
0
LINE
8
BLACK
6
CONTINUOUS
10
50.2107
20
-132.681
11
50.1155
21
-133.062
0
LINE
8
BLACK
6
CONTINUOUS
10
50.1155
20
-133.062
11
50.1155
21
-133.824
0
LINE
8
BLACK
6
CONTINUOUS
10
50.1155
20
-133.824
11
50.2107
21
-134.014
0
LINE
8
BLACK
6
CONTINUOUS
10
50.2107
20
-134.014
11
50.306
21
-134.11
0
LINE
8
BLACK
6
CONTINUOUS
10
50.306
20
-134.11
11
50.4964
21
-134.205
0
LINE
8
BLACK
6
CONTINUOUS
10
50.4964
20
-134.205
11
50.8774
21
-134.205
0
LINE
8
BLACK
6
CONTINUOUS
10
50.8774
20
-134.205
11
51.0679
21
-134.11
0
LINE
8
BLACK
6
CONTINUOUS
10
51.0679
20
-134.11
11
51.1631
21
-134.014
0
LINE
8
BLACK
6
CONTINUOUS
10
51.1631
20
-134.014
11
51.2583
21
-133.824
0
LINE
8
BLACK
6
CONTINUOUS
10
51.2583
20
-133.824
11
51.2583
21
-133.348
0
LINE
8
BLACK
6
CONTINUOUS
10
51.2583
20
-133.348
11
51.1631
21
-133.157
0
LINE
8
BLACK
6
CONTINUOUS
10
51.1631
20
-133.157
11
51.0679
21
-133.062
0
LINE
8
BLACK
6
CONTINUOUS
10
51.0679
20
-133.062
11
50.8774
21
-132.967
0
LINE
8
BLACK
6
CONTINUOUS
10
50.8774
20
-132.967
11
50.4964
21
-132.967
0
LINE
8
BLACK
6
CONTINUOUS
10
50.4964
20
-132.967
11
50.306
21
-133.062
0
LINE
8
BLACK
6
CONTINUOUS
10
50.306
20
-133.062
11
50.2107
21
-133.157
0
LINE
8
BLACK
6
CONTINUOUS
10
50.2107
20
-133.157
11
50.1155
21
-133.348
0
LINE
8
BLACK
6
CONTINUOUS
10
52.9726
20
-132.205
11
52.5917
21
-132.205
0
LINE
8
BLACK
6
CONTINUOUS
10
52.5917
20
-132.205
11
52.4012
21
-132.3
0
LINE
8
BLACK
6
CONTINUOUS
10
52.4012
20
-132.3
11
52.306
21
-132.395
0
LINE
8
BLACK
6
CONTINUOUS
10
52.306
20
-132.395
11
52.1155
21
-132.681
0
LINE
8
BLACK
6
CONTINUOUS
10
52.1155
20
-132.681
11
52.0202
21
-133.062
0
LINE
8
BLACK
6
CONTINUOUS
10
52.0202
20
-133.062
11
52.0202
21
-133.824
0
LINE
8
BLACK
6
CONTINUOUS
10
52.0202
20
-133.824
11
52.1155
21
-134.014
0
LINE
8
BLACK
6
CONTINUOUS
10
52.1155
20
-134.014
11
52.2107
21
-134.11
0
LINE
8
BLACK
6
CONTINUOUS
10
52.2107
20
-134.11
11
52.4012
21
-134.205
0
LINE
8
BLACK
6
CONTINUOUS
10
52.4012
20
-134.205
11
52.7821
21
-134.205
0
LINE
8
BLACK
6
CONTINUOUS
10
52.7821
20
-134.205
11
52.9726
21
-134.11
0
LINE
8
BLACK
6
CONTINUOUS
10
52.9726
20
-134.11
11
53.0679
21
-134.014
0
LINE
8
BLACK
6
CONTINUOUS
10
53.0679
20
-134.014
11
53.1631
21
-133.824
0
LINE
8
BLACK
6
CONTINUOUS
10
53.1631
20
-133.824
11
53.1631
21
-133.348
0
LINE
8
BLACK
6
CONTINUOUS
10
53.1631
20
-133.348
11
53.0679
21
-133.157
0
LINE
8
BLACK
6
CONTINUOUS
10
53.0679
20
-133.157
11
52.9726
21
-133.062
0
LINE
8
BLACK
6
CONTINUOUS
10
52.9726
20
-133.062
11
52.7821
21
-132.967
0
LINE
8
BLACK
6
CONTINUOUS
10
52.7821
20
-132.967
11
52.4012
21
-132.967
0
LINE
8
BLACK
6
CONTINUOUS
10
52.4012
20
-132.967
11
52.2107
21
-133.062
0
LINE
8
BLACK
6
CONTINUOUS
10
52.2107
20
-133.062
11
52.1155
21
-133.157
0
LINE
8
BLACK
6
CONTINUOUS
10
52.1155
20
-133.157
11
52.0202
21
-133.348
0
LINE
8
BLACK
6
CONTINUOUS
10
54.1155
20
-134.205
11
54.4964
21
-134.205
0
LINE
8
BLACK
6
CONTINUOUS
10
54.4964
20
-134.205
11
54.6869
21
-134.11
0
LINE
8
BLACK
6
CONTINUOUS
10
54.6869
20
-134.11
11
54.7821
21
-134.014
0
LINE
8
BLACK
6
CONTINUOUS
10
54.7821
20
-134.014
11
54.9726
21
-133.729
0
LINE
8
BLACK
6
CONTINUOUS
10
54.9726
20
-133.729
11
55.0679
21
-133.348
0
LINE
8
BLACK
6
CONTINUOUS
10
55.0679
20
-133.348
11
55.0679
21
-132.586
0
LINE
8
BLACK
6
CONTINUOUS
10
55.0679
20
-132.586
11
54.9726
21
-132.395
0
LINE
8
BLACK
6
CONTINUOUS
10
54.9726
20
-132.395
11
54.8774
21
-132.3
0
LINE
8
BLACK
6
CONTINUOUS
10
54.8774
20
-132.3
11
54.6869
21
-132.205
0
LINE
8
BLACK
6
CONTINUOUS
10
54.6869
20
-132.205
11
54.306
21
-132.205
0
LINE
8
BLACK
6
CONTINUOUS
10
54.306
20
-132.205
11
54.1155
21
-132.3
0
LINE
8
BLACK
6
CONTINUOUS
10
54.1155
20
-132.3
11
54.0202
21
-132.395
0
LINE
8
BLACK
6
CONTINUOUS
10
54.0202
20
-132.395
11
53.925
21
-132.586
0
LINE
8
BLACK
6
CONTINUOUS
10
53.925
20
-132.586
11
53.925
21
-133.062
0
LINE
8
BLACK
6
CONTINUOUS
10
53.925
20
-133.062
11
54.0202
21
-133.252
0
LINE
8
BLACK
6
CONTINUOUS
10
54.0202
20
-133.252
11
54.1155
21
-133.348
0
LINE
8
BLACK
6
CONTINUOUS
10
54.1155
20
-133.348
11
54.306
21
-133.443
0
LINE
8
BLACK
6
CONTINUOUS
10
54.306
20
-133.443
11
54.6869
21
-133.443
0
LINE
8
BLACK
6
CONTINUOUS
10
54.6869
20
-133.443
11
54.8774
21
-133.348
0
LINE
8
BLACK
6
CONTINUOUS
10
54.8774
20
-133.348
11
54.9726
21
-133.252
0
LINE
8
BLACK
6
CONTINUOUS
10
54.9726
20
-133.252
11
55.0679
21
-133.062
0
LINE
8
BLACK
6
CONTINUOUS
10
55.8298
20
-132.205
11
55.8298
21
-132.586
0
LINE
8
BLACK
6
CONTINUOUS
10
56.5917
20
-132.205
11
56.5917
21
-132.586
0
LINE
8
BLACK
6
CONTINUOUS
10
59.544
20
-134.967
11
59.4488
21
-134.871
0
LINE
8
BLACK
6
CONTINUOUS
10
59.4488
20
-134.871
11
59.2583
21
-134.586
0
LINE
8
BLACK
6
CONTINUOUS
10
59.2583
20
-134.586
11
59.1631
21
-134.395
0
LINE
8
BLACK
6
CONTINUOUS
10
59.1631
20
-134.395
11
59.0679
21
-134.11
0
LINE
8
BLACK
6
CONTINUOUS
10
59.0679
20
-134.11
11
58.9726
21
-133.633
0
LINE
8
BLACK
6
CONTINUOUS
10
58.9726
20
-133.633
11
58.9726
21
-133.252
0
LINE
8
BLACK
6
CONTINUOUS
10
58.9726
20
-133.252
11
59.0679
21
-132.776
0
LINE
8
BLACK
6
CONTINUOUS
10
59.0679
20
-132.776
11
59.1631
21
-132.49
0
LINE
8
BLACK
6
CONTINUOUS
10
59.1631
20
-132.49
11
59.2583
21
-132.3
0
LINE
8
BLACK
6
CONTINUOUS
10
59.2583
20
-132.3
11
59.4488
21
-132.014
0
LINE
8
BLACK
6
CONTINUOUS
10
59.4488
20
-132.014
11
59.544
21
-131.919
0
LINE
8
BLACK
6
CONTINUOUS
10
61.3536
20
-134.205
11
60.2107
21
-134.205
0
LINE
8
BLACK
6
CONTINUOUS
10
60.7821
20
-134.205
11
60.7821
21
-132.205
0
LINE
8
BLACK
6
CONTINUOUS
10
60.7821
20
-132.205
11
60.5917
21
-132.49
0
LINE
8
BLACK
6
CONTINUOUS
10
60.5917
20
-132.49
11
60.4012
21
-132.681
0
LINE
8
BLACK
6
CONTINUOUS
10
60.4012
20
-132.681
11
60.2107
21
-132.776
0
LINE
8
BLACK
6
CONTINUOUS
10
62.5917
20
-132.205
11
62.7821
21
-132.205
0
LINE
8
BLACK
6
CONTINUOUS
10
62.7821
20
-132.205
11
62.9726
21
-132.3
0
LINE
8
BLACK
6
CONTINUOUS
10
62.9726
20
-132.3
11
63.0679
21
-132.395
0
LINE
8
BLACK
6
CONTINUOUS
10
63.0679
20
-132.395
11
63.1631
21
-132.586
0
LINE
8
BLACK
6
CONTINUOUS
10
63.1631
20
-132.586
11
63.2583
21
-132.967
0
LINE
8
BLACK
6
CONTINUOUS
10
63.2583
20
-132.967
11
63.2583
21
-133.443
0
LINE
8
BLACK
6
CONTINUOUS
10
63.2583
20
-133.443
11
63.1631
21
-133.824
0
LINE
8
BLACK
6
CONTINUOUS
10
63.1631
20
-133.824
11
63.0679
21
-134.014
0
LINE
8
BLACK
6
CONTINUOUS
10
63.0679
20
-134.014
11
62.9726
21
-134.11
0
LINE
8
BLACK
6
CONTINUOUS
10
62.9726
20
-134.11
11
62.7821
21
-134.205
0
LINE
8
BLACK
6
CONTINUOUS
10
62.7821
20
-134.205
11
62.5917
21
-134.205
0
LINE
8
BLACK
6
CONTINUOUS
10
62.5917
20
-134.205
11
62.4012
21
-134.11
0
LINE
8
BLACK
6
CONTINUOUS
10
62.4012
20
-134.11
11
62.306
21
-134.014
0
LINE
8
BLACK
6
CONTINUOUS
10
62.306
20
-134.014
11
62.2107
21
-133.824
0
LINE
8
BLACK
6
CONTINUOUS
10
62.2107
20
-133.824
11
62.1155
21
-133.443
0
LINE
8
BLACK
6
CONTINUOUS
10
62.1155
20
-133.443
11
62.1155
21
-132.967
0
LINE
8
BLACK
6
CONTINUOUS
10
62.1155
20
-132.967
11
62.2107
21
-132.586
0
LINE
8
BLACK
6
CONTINUOUS
10
62.2107
20
-132.586
11
62.306
21
-132.395
0
LINE
8
BLACK
6
CONTINUOUS
10
62.306
20
-132.395
11
62.4012
21
-132.3
0
LINE
8
BLACK
6
CONTINUOUS
10
62.4012
20
-132.3
11
62.5917
21
-132.205
0
LINE
8
BLACK
6
CONTINUOUS
10
64.4964
20
-132.205
11
64.6869
21
-132.205
0
LINE
8
BLACK
6
CONTINUOUS
10
64.6869
20
-132.205
11
64.8774
21
-132.3
0
LINE
8
BLACK
6
CONTINUOUS
10
64.8774
20
-132.3
11
64.9726
21
-132.395
0
LINE
8
BLACK
6
CONTINUOUS
10
64.9726
20
-132.395
11
65.0679
21
-132.586
0
LINE
8
BLACK
6
CONTINUOUS
10
65.0679
20
-132.586
11
65.1631
21
-132.967
0
LINE
8
BLACK
6
CONTINUOUS
10
65.1631
20
-132.967
11
65.1631
21
-133.443
0
LINE
8
BLACK
6
CONTINUOUS
10
65.1631
20
-133.443
11
65.0679
21
-133.824
0
LINE
8
BLACK
6
CONTINUOUS
10
65.0679
20
-133.824
11
64.9726
21
-134.014
0
LINE
8
BLACK
6
CONTINUOUS
10
64.9726
20
-134.014
11
64.8774
21
-134.11
0
LINE
8
BLACK
6
CONTINUOUS
10
64.8774
20
-134.11
11
64.6869
21
-134.205
0
LINE
8
BLACK
6
CONTINUOUS
10
64.6869
20
-134.205
11
64.4964
21
-134.205
0
LINE
8
BLACK
6
CONTINUOUS
10
64.4964
20
-134.205
11
64.306
21
-134.11
0
LINE
8
BLACK
6
CONTINUOUS
10
64.306
20
-134.11
11
64.2107
21
-134.014
0
LINE
8
BLACK
6
CONTINUOUS
10
64.2107
20
-134.014
11
64.1155
21
-133.824
0
LINE
8
BLACK
6
CONTINUOUS
10
64.1155
20
-133.824
11
64.0202
21
-133.443
0
LINE
8
BLACK
6
CONTINUOUS
10
64.0202
20
-133.443
11
64.0202
21
-132.967
0
LINE
8
BLACK
6
CONTINUOUS
10
64.0202
20
-132.967
11
64.1155
21
-132.586
0
LINE
8
BLACK
6
CONTINUOUS
10
64.1155
20
-132.586
11
64.2107
21
-132.395
0
LINE
8
BLACK
6
CONTINUOUS
10
64.2107
20
-132.395
11
64.306
21
-132.3
0
LINE
8
BLACK
6
CONTINUOUS
10
64.306
20
-132.3
11
64.4964
21
-132.205
0
LINE
8
BLACK
6
CONTINUOUS
10
67.544
20
-134.205
11
67.544
21
-132.205
0
LINE
8
BLACK
6
CONTINUOUS
10
68.4012
20
-134.205
11
68.4012
21
-133.157
0
LINE
8
BLACK
6
CONTINUOUS
10
68.4012
20
-133.157
11
68.306
21
-132.967
0
LINE
8
BLACK
6
CONTINUOUS
10
68.306
20
-132.967
11
68.1155
21
-132.871
0
LINE
8
BLACK
6
CONTINUOUS
10
68.1155
20
-132.871
11
67.8298
21
-132.871
0
LINE
8
BLACK
6
CONTINUOUS
10
67.8298
20
-132.871
11
67.6393
21
-132.967
0
LINE
8
BLACK
6
CONTINUOUS
10
67.6393
20
-132.967
11
67.544
21
-133.062
0
LINE
8
BLACK
6
CONTINUOUS
10
69.6393
20
-134.205
11
69.4488
21
-134.11
0
LINE
8
BLACK
6
CONTINUOUS
10
69.4488
20
-134.11
11
69.3536
21
-134.014
0
LINE
8
BLACK
6
CONTINUOUS
10
69.3536
20
-134.014
11
69.2583
21
-133.824
0
LINE
8
BLACK
6
CONTINUOUS
10
69.2583
20
-133.824
11
69.2583
21
-133.252
0
LINE
8
BLACK
6
CONTINUOUS
10
69.2583
20
-133.252
11
69.3536
21
-133.062
0
LINE
8
BLACK
6
CONTINUOUS
10
69.3536
20
-133.062
11
69.4488
21
-132.967
0
LINE
8
BLACK
6
CONTINUOUS
10
69.4488
20
-132.967
11
69.6393
21
-132.871
0
LINE
8
BLACK
6
CONTINUOUS
10
69.6393
20
-132.871
11
69.925
21
-132.871
0
LINE
8
BLACK
6
CONTINUOUS
10
69.925
20
-132.871
11
70.1155
21
-132.967
0
LINE
8
BLACK
6
CONTINUOUS
10
70.1155
20
-132.967
11
70.2107
21
-133.062
0
LINE
8
BLACK
6
CONTINUOUS
10
70.2107
20
-133.062
11
70.306
21
-133.252
0
LINE
8
BLACK
6
CONTINUOUS
10
70.306
20
-133.252
11
70.306
21
-133.824
0
LINE
8
BLACK
6
CONTINUOUS
10
70.306
20
-133.824
11
70.2107
21
-134.014
0
LINE
8
BLACK
6
CONTINUOUS
10
70.2107
20
-134.014
11
70.1155
21
-134.11
0
LINE
8
BLACK
6
CONTINUOUS
10
70.1155
20
-134.11
11
69.925
21
-134.205
0
LINE
8
BLACK
6
CONTINUOUS
10
69.925
20
-134.205
11
69.6393
21
-134.205
0
LINE
8
BLACK
6
CONTINUOUS
10
71.4488
20
-134.205
11
71.2583
21
-134.11
0
LINE
8
BLACK
6
CONTINUOUS
10
71.2583
20
-134.11
11
71.1631
21
-133.919
0
LINE
8
BLACK
6
CONTINUOUS
10
71.1631
20
-133.919
11
71.1631
21
-132.205
0
LINE
8
BLACK
6
CONTINUOUS
10
72.9726
20
-134.11
11
72.7821
21
-134.205
0
LINE
8
BLACK
6
CONTINUOUS
10
72.7821
20
-134.205
11
72.4012
21
-134.205
0
LINE
8
BLACK
6
CONTINUOUS
10
72.4012
20
-134.205
11
72.2107
21
-134.11
0
LINE
8
BLACK
6
CONTINUOUS
10
72.2107
20
-134.11
11
72.1155
21
-133.919
0
LINE
8
BLACK
6
CONTINUOUS
10
72.1155
20
-133.919
11
72.1155
21
-133.157
0
LINE
8
BLACK
6
CONTINUOUS
10
72.1155
20
-133.157
11
72.2107
21
-132.967
0
LINE
8
BLACK
6
CONTINUOUS
10
72.2107
20
-132.967
11
72.4012
21
-132.871
0
LINE
8
BLACK
6
CONTINUOUS
10
72.4012
20
-132.871
11
72.7821
21
-132.871
0
LINE
8
BLACK
6
CONTINUOUS
10
72.7821
20
-132.871
11
72.9726
21
-132.967
0
LINE
8
BLACK
6
CONTINUOUS
10
72.9726
20
-132.967
11
73.0679
21
-133.157
0
LINE
8
BLACK
6
CONTINUOUS
10
73.0679
20
-133.157
11
73.0679
21
-133.348
0
LINE
8
BLACK
6
CONTINUOUS
10
73.0679
20
-133.348
11
72.1155
21
-133.538
0
LINE
8
BLACK
6
CONTINUOUS
10
73.8298
20
-134.11
11
74.0202
21
-134.205
0
LINE
8
BLACK
6
CONTINUOUS
10
74.0202
20
-134.205
11
74.4012
21
-134.205
0
LINE
8
BLACK
6
CONTINUOUS
10
74.4012
20
-134.205
11
74.5917
21
-134.11
0
LINE
8
BLACK
6
CONTINUOUS
10
74.5917
20
-134.11
11
74.6869
21
-133.919
0
LINE
8
BLACK
6
CONTINUOUS
10
74.6869
20
-133.919
11
74.6869
21
-133.824
0
LINE
8
BLACK
6
CONTINUOUS
10
74.6869
20
-133.824
11
74.5917
21
-133.633
0
LINE
8
BLACK
6
CONTINUOUS
10
74.5917
20
-133.633
11
74.4012
21
-133.538
0
LINE
8
BLACK
6
CONTINUOUS
10
74.4012
20
-133.538
11
74.1155
21
-133.538
0
LINE
8
BLACK
6
CONTINUOUS
10
74.1155
20
-133.538
11
73.925
21
-133.443
0
LINE
8
BLACK
6
CONTINUOUS
10
73.925
20
-133.443
11
73.8298
21
-133.252
0
LINE
8
BLACK
6
CONTINUOUS
10
73.8298
20
-133.252
11
73.8298
21
-133.157
0
LINE
8
BLACK
6
CONTINUOUS
10
73.8298
20
-133.157
11
73.925
21
-132.967
0
LINE
8
BLACK
6
CONTINUOUS
10
73.925
20
-132.967
11
74.1155
21
-132.871
0
LINE
8
BLACK
6
CONTINUOUS
10
74.1155
20
-132.871
11
74.4012
21
-132.871
0
LINE
8
BLACK
6
CONTINUOUS
10
74.4012
20
-132.871
11
74.5917
21
-132.967
0
LINE
8
BLACK
6
CONTINUOUS
10
75.3536
20
-134.967
11
75.4488
21
-134.871
0
LINE
8
BLACK
6
CONTINUOUS
10
75.4488
20
-134.871
11
75.6393
21
-134.586
0
LINE
8
BLACK
6
CONTINUOUS
10
75.6393
20
-134.586
11
75.7345
21
-134.395
0
LINE
8
BLACK
6
CONTINUOUS
10
75.7345
20
-134.395
11
75.8298
21
-134.11
0
LINE
8
BLACK
6
CONTINUOUS
10
75.8298
20
-134.11
11
75.925
21
-133.633
0
LINE
8
BLACK
6
CONTINUOUS
10
75.925
20
-133.633
11
75.925
21
-133.252
0
LINE
8
BLACK
6
CONTINUOUS
10
75.925
20
-133.252
11
75.8298
21
-132.776
0
LINE
8
BLACK
6
CONTINUOUS
10
75.8298
20
-132.776
11
75.7345
21
-132.49
0
LINE
8
BLACK
6
CONTINUOUS
10
75.7345
20
-132.49
11
75.6393
21
-132.3
0
LINE
8
BLACK
6
CONTINUOUS
10
75.6393
20
-132.3
11
75.4488
21
-132.014
0
LINE
8
BLACK
6
CONTINUOUS
10
75.4488
20
-132.014
11
75.3536
21
-131.919
0
LINE
8
BLACK
6
CONTINUOUS
10
78.9726
20
-134.967
11
78.8774
21
-134.871
0
LINE
8
BLACK
6
CONTINUOUS
10
78.8774
20
-134.871
11
78.6869
21
-134.586
0
LINE
8
BLACK
6
CONTINUOUS
10
78.6869
20
-134.586
11
78.5917
21
-134.395
0
LINE
8
BLACK
6
CONTINUOUS
10
78.5917
20
-134.395
11
78.4964
21
-134.11
0
LINE
8
BLACK
6
CONTINUOUS
10
78.4964
20
-134.11
11
78.4012
21
-133.633
0
LINE
8
BLACK
6
CONTINUOUS
10
78.4012
20
-133.633
11
78.4012
21
-133.252
0
LINE
8
BLACK
6
CONTINUOUS
10
78.4012
20
-133.252
11
78.4964
21
-132.776
0
LINE
8
BLACK
6
CONTINUOUS
10
78.4964
20
-132.776
11
78.5917
21
-132.49
0
LINE
8
BLACK
6
CONTINUOUS
10
78.5917
20
-132.49
11
78.6869
21
-132.3
0
LINE
8
BLACK
6
CONTINUOUS
10
78.6869
20
-132.3
11
78.8774
21
-132.014
0
LINE
8
BLACK
6
CONTINUOUS
10
78.8774
20
-132.014
11
78.9726
21
-131.919
0
LINE
8
BLACK
6
CONTINUOUS
10
79.7345
20
-132.871
11
79.7345
21
-134.205
0
LINE
8
BLACK
6
CONTINUOUS
10
79.7345
20
-133.062
11
79.8298
21
-132.967
0
LINE
8
BLACK
6
CONTINUOUS
10
79.8298
20
-132.967
11
80.0202
21
-132.871
0
LINE
8
BLACK
6
CONTINUOUS
10
80.0202
20
-132.871
11
80.306
21
-132.871
0
LINE
8
BLACK
6
CONTINUOUS
10
80.306
20
-132.871
11
80.4964
21
-132.967
0
LINE
8
BLACK
6
CONTINUOUS
10
80.4964
20
-132.967
11
80.5917
21
-133.157
0
LINE
8
BLACK
6
CONTINUOUS
10
80.5917
20
-133.157
11
80.5917
21
-134.205
0
LINE
8
BLACK
6
CONTINUOUS
10
81.8298
20
-134.205
11
81.6393
21
-134.11
0
LINE
8
BLACK
6
CONTINUOUS
10
81.6393
20
-134.11
11
81.544
21
-134.014
0
LINE
8
BLACK
6
CONTINUOUS
10
81.544
20
-134.014
11
81.4488
21
-133.824
0
LINE
8
BLACK
6
CONTINUOUS
10
81.4488
20
-133.824
11
81.4488
21
-133.252
0
LINE
8
BLACK
6
CONTINUOUS
10
81.4488
20
-133.252
11
81.544
21
-133.062
0
LINE
8
BLACK
6
CONTINUOUS
10
81.544
20
-133.062
11
81.6393
21
-132.967
0
LINE
8
BLACK
6
CONTINUOUS
10
81.6393
20
-132.967
11
81.8298
21
-132.871
0
LINE
8
BLACK
6
CONTINUOUS
10
81.8298
20
-132.871
11
82.1155
21
-132.871
0
LINE
8
BLACK
6
CONTINUOUS
10
82.1155
20
-132.871
11
82.306
21
-132.967
0
LINE
8
BLACK
6
CONTINUOUS
10
82.306
20
-132.967
11
82.4012
21
-133.062
0
LINE
8
BLACK
6
CONTINUOUS
10
82.4012
20
-133.062
11
82.4964
21
-133.252
0
LINE
8
BLACK
6
CONTINUOUS
10
82.4964
20
-133.252
11
82.4964
21
-133.824
0
LINE
8
BLACK
6
CONTINUOUS
10
82.4964
20
-133.824
11
82.4012
21
-134.014
0
LINE
8
BLACK
6
CONTINUOUS
10
82.4012
20
-134.014
11
82.306
21
-134.11
0
LINE
8
BLACK
6
CONTINUOUS
10
82.306
20
-134.11
11
82.1155
21
-134.205
0
LINE
8
BLACK
6
CONTINUOUS
10
82.1155
20
-134.205
11
81.8298
21
-134.205
0
LINE
8
BLACK
6
CONTINUOUS
10
83.0679
20
-132.871
11
83.8298
21
-132.871
0
LINE
8
BLACK
6
CONTINUOUS
10
83.3536
20
-132.205
11
83.3536
21
-133.919
0
LINE
8
BLACK
6
CONTINUOUS
10
83.3536
20
-133.919
11
83.4488
21
-134.11
0
LINE
8
BLACK
6
CONTINUOUS
10
83.4488
20
-134.11
11
83.6393
21
-134.205
0
LINE
8
BLACK
6
CONTINUOUS
10
83.6393
20
-134.205
11
83.8298
21
-134.205
0
LINE
8
BLACK
6
CONTINUOUS
10
86.0202
20
-132.871
11
86.0202
21
-134.871
0
LINE
8
BLACK
6
CONTINUOUS
10
86.0202
20
-132.967
11
86.2107
21
-132.871
0
LINE
8
BLACK
6
CONTINUOUS
10
86.2107
20
-132.871
11
86.5917
21
-132.871
0
LINE
8
BLACK
6
CONTINUOUS
10
86.5917
20
-132.871
11
86.7821
21
-132.967
0
LINE
8
BLACK
6
CONTINUOUS
10
86.7821
20
-132.967
11
86.8774
21
-133.062
0
LINE
8
BLACK
6
CONTINUOUS
10
86.8774
20
-133.062
11
86.9726
21
-133.252
0
LINE
8
BLACK
6
CONTINUOUS
10
86.9726
20
-133.252
11
86.9726
21
-133.824
0
LINE
8
BLACK
6
CONTINUOUS
10
86.9726
20
-133.824
11
86.8774
21
-134.014
0
LINE
8
BLACK
6
CONTINUOUS
10
86.8774
20
-134.014
11
86.7821
21
-134.11
0
LINE
8
BLACK
6
CONTINUOUS
10
86.7821
20
-134.11
11
86.5917
21
-134.205
0
LINE
8
BLACK
6
CONTINUOUS
10
86.5917
20
-134.205
11
86.2107
21
-134.205
0
LINE
8
BLACK
6
CONTINUOUS
10
86.2107
20
-134.205
11
86.0202
21
-134.11
0
LINE
8
BLACK
6
CONTINUOUS
10
88.1155
20
-134.205
11
87.925
21
-134.11
0
LINE
8
BLACK
6
CONTINUOUS
10
87.925
20
-134.11
11
87.8298
21
-133.919
0
LINE
8
BLACK
6
CONTINUOUS
10
87.8298
20
-133.919
11
87.8298
21
-132.205
0
LINE
8
BLACK
6
CONTINUOUS
10
89.7345
20
-134.205
11
89.7345
21
-133.157
0
LINE
8
BLACK
6
CONTINUOUS
10
89.7345
20
-133.157
11
89.6393
21
-132.967
0
LINE
8
BLACK
6
CONTINUOUS
10
89.6393
20
-132.967
11
89.4488
21
-132.871
0
LINE
8
BLACK
6
CONTINUOUS
10
89.4488
20
-132.871
11
89.0679
21
-132.871
0
LINE
8
BLACK
6
CONTINUOUS
10
89.0679
20
-132.871
11
88.8774
21
-132.967
0
LINE
8
BLACK
6
CONTINUOUS
10
89.7345
20
-134.11
11
89.544
21
-134.205
0
LINE
8
BLACK
6
CONTINUOUS
10
89.544
20
-134.205
11
89.0679
21
-134.205
0
LINE
8
BLACK
6
CONTINUOUS
10
89.0679
20
-134.205
11
88.8774
21
-134.11
0
LINE
8
BLACK
6
CONTINUOUS
10
88.8774
20
-134.11
11
88.7821
21
-133.919
0
LINE
8
BLACK
6
CONTINUOUS
10
88.7821
20
-133.919
11
88.7821
21
-133.729
0
LINE
8
BLACK
6
CONTINUOUS
10
88.7821
20
-133.729
11
88.8774
21
-133.538
0
LINE
8
BLACK
6
CONTINUOUS
10
88.8774
20
-133.538
11
89.0679
21
-133.443
0
LINE
8
BLACK
6
CONTINUOUS
10
89.0679
20
-133.443
11
89.544
21
-133.443
0
LINE
8
BLACK
6
CONTINUOUS
10
89.544
20
-133.443
11
89.7345
21
-133.348
0
LINE
8
BLACK
6
CONTINUOUS
10
90.4012
20
-132.871
11
91.1631
21
-132.871
0
LINE
8
BLACK
6
CONTINUOUS
10
90.6869
20
-132.205
11
90.6869
21
-133.919
0
LINE
8
BLACK
6
CONTINUOUS
10
90.6869
20
-133.919
11
90.7821
21
-134.11
0
LINE
8
BLACK
6
CONTINUOUS
10
90.7821
20
-134.11
11
90.9726
21
-134.205
0
LINE
8
BLACK
6
CONTINUOUS
10
90.9726
20
-134.205
11
91.1631
21
-134.205
0
LINE
8
BLACK
6
CONTINUOUS
10
92.5917
20
-134.11
11
92.4012
21
-134.205
0
LINE
8
BLACK
6
CONTINUOUS
10
92.4012
20
-134.205
11
92.0202
21
-134.205
0
LINE
8
BLACK
6
CONTINUOUS
10
92.0202
20
-134.205
11
91.8298
21
-134.11
0
LINE
8
BLACK
6
CONTINUOUS
10
91.8298
20
-134.11
11
91.7345
21
-133.919
0
LINE
8
BLACK
6
CONTINUOUS
10
91.7345
20
-133.919
11
91.7345
21
-133.157
0
LINE
8
BLACK
6
CONTINUOUS
10
91.7345
20
-133.157
11
91.8298
21
-132.967
0
LINE
8
BLACK
6
CONTINUOUS
10
91.8298
20
-132.967
11
92.0202
21
-132.871
0
LINE
8
BLACK
6
CONTINUOUS
10
92.0202
20
-132.871
11
92.4012
21
-132.871
0
LINE
8
BLACK
6
CONTINUOUS
10
92.4012
20
-132.871
11
92.5917
21
-132.967
0
LINE
8
BLACK
6
CONTINUOUS
10
92.5917
20
-132.967
11
92.6869
21
-133.157
0
LINE
8
BLACK
6
CONTINUOUS
10
92.6869
20
-133.157
11
92.6869
21
-133.348
0
LINE
8
BLACK
6
CONTINUOUS
10
92.6869
20
-133.348
11
91.7345
21
-133.538
0
LINE
8
BLACK
6
CONTINUOUS
10
94.4012
20
-134.205
11
94.4012
21
-132.205
0
LINE
8
BLACK
6
CONTINUOUS
10
94.4012
20
-134.11
11
94.2107
21
-134.205
0
LINE
8
BLACK
6
CONTINUOUS
10
94.2107
20
-134.205
11
93.8298
21
-134.205
0
LINE
8
BLACK
6
CONTINUOUS
10
93.8298
20
-134.205
11
93.6393
21
-134.11
0
LINE
8
BLACK
6
CONTINUOUS
10
93.6393
20
-134.11
11
93.544
21
-134.014
0
LINE
8
BLACK
6
CONTINUOUS
10
93.544
20
-134.014
11
93.4488
21
-133.824
0
LINE
8
BLACK
6
CONTINUOUS
10
93.4488
20
-133.824
11
93.4488
21
-133.252
0
LINE
8
BLACK
6
CONTINUOUS
10
93.4488
20
-133.252
11
93.544
21
-133.062
0
LINE
8
BLACK
6
CONTINUOUS
10
93.544
20
-133.062
11
93.6393
21
-132.967
0
LINE
8
BLACK
6
CONTINUOUS
10
93.6393
20
-132.967
11
93.8298
21
-132.871
0
LINE
8
BLACK
6
CONTINUOUS
10
93.8298
20
-132.871
11
94.2107
21
-132.871
0
LINE
8
BLACK
6
CONTINUOUS
10
94.2107
20
-132.871
11
94.4012
21
-132.967
0
LINE
8
BLACK
6
CONTINUOUS
10
95.1631
20
-134.967
11
95.2583
21
-134.871
0
LINE
8
BLACK
6
CONTINUOUS
10
95.2583
20
-134.871
11
95.4488
21
-134.586
0
LINE
8
BLACK
6
CONTINUOUS
10
95.4488
20
-134.586
11
95.544
21
-134.395
0
LINE
8
BLACK
6
CONTINUOUS
10
95.544
20
-134.395
11
95.6393
21
-134.11
0
LINE
8
BLACK
6
CONTINUOUS
10
95.6393
20
-134.11
11
95.7345
21
-133.633
0
LINE
8
BLACK
6
CONTINUOUS
10
95.7345
20
-133.633
11
95.7345
21
-133.252
0
LINE
8
BLACK
6
CONTINUOUS
10
95.7345
20
-133.252
11
95.6393
21
-132.776
0
LINE
8
BLACK
6
CONTINUOUS
10
95.6393
20
-132.776
11
95.544
21
-132.49
0
LINE
8
BLACK
6
CONTINUOUS
10
95.544
20
-132.49
11
95.4488
21
-132.3
0
LINE
8
BLACK
6
CONTINUOUS
10
95.4488
20
-132.3
11
95.2583
21
-132.014
0
LINE
8
BLACK
6
CONTINUOUS
10
95.2583
20
-132.014
11
95.1631
21
-131.919
0
LINE
8
BLACK
6
CONTINUOUS
10
22.825
20
-135.2
11
22.825
21
-137.2
0
LINE
8
BLACK
6
CONTINUOUS
10
21.825
20
-136.2
11
23.825
21
-136.2
0
LINE
8
BLACK
6
CONTINUOUS
10
26.306
20
-135.295
11
26.4012
21
-135.2
0
LINE
8
BLACK
6
CONTINUOUS
10
26.4012
20
-135.2
11
26.5917
21
-135.105
0
LINE
8
BLACK
6
CONTINUOUS
10
26.5917
20
-135.105
11
27.0679
21
-135.105
0
LINE
8
BLACK
6
CONTINUOUS
10
27.0679
20
-135.105
11
27.2583
21
-135.2
0
LINE
8
BLACK
6
CONTINUOUS
10
27.2583
20
-135.2
11
27.3536
21
-135.295
0
LINE
8
BLACK
6
CONTINUOUS
10
27.3536
20
-135.295
11
27.4488
21
-135.486
0
LINE
8
BLACK
6
CONTINUOUS
10
27.4488
20
-135.486
11
27.4488
21
-135.676
0
LINE
8
BLACK
6
CONTINUOUS
10
27.4488
20
-135.676
11
27.3536
21
-135.962
0
LINE
8
BLACK
6
CONTINUOUS
10
27.3536
20
-135.962
11
26.2107
21
-137.105
0
LINE
8
BLACK
6
CONTINUOUS
10
26.2107
20
-137.105
11
27.4488
21
-137.105
0
LINE
8
BLACK
6
CONTINUOUS
10
28.306
20
-136.914
11
28.4012
21
-137.01
0
LINE
8
BLACK
6
CONTINUOUS
10
28.4012
20
-137.01
11
28.306
21
-137.105
0
LINE
8
BLACK
6
CONTINUOUS
10
28.306
20
-137.105
11
28.2107
21
-137.01
0
LINE
8
BLACK
6
CONTINUOUS
10
28.2107
20
-137.01
11
28.306
21
-136.914
0
LINE
8
BLACK
6
CONTINUOUS
10
28.306
20
-136.914
11
28.306
21
-137.105
0
LINE
8
BLACK
6
CONTINUOUS
10
29.1631
20
-135.295
11
29.2583
21
-135.2
0
LINE
8
BLACK
6
CONTINUOUS
10
29.2583
20
-135.2
11
29.4488
21
-135.105
0
LINE
8
BLACK
6
CONTINUOUS
10
29.4488
20
-135.105
11
29.925
21
-135.105
0
LINE
8
BLACK
6
CONTINUOUS
10
29.925
20
-135.105
11
30.1155
21
-135.2
0
LINE
8
BLACK
6
CONTINUOUS
10
30.1155
20
-135.2
11
30.2107
21
-135.295
0
LINE
8
BLACK
6
CONTINUOUS
10
30.2107
20
-135.295
11
30.306
21
-135.486
0
LINE
8
BLACK
6
CONTINUOUS
10
30.306
20
-135.486
11
30.306
21
-135.676
0
LINE
8
BLACK
6
CONTINUOUS
10
30.306
20
-135.676
11
30.2107
21
-135.962
0
LINE
8
BLACK
6
CONTINUOUS
10
30.2107
20
-135.962
11
29.0679
21
-137.105
0
LINE
8
BLACK
6
CONTINUOUS
10
29.0679
20
-137.105
11
30.306
21
-137.105
0
LINE
8
BLACK
6
CONTINUOUS
10
31.544
20
-135.105
11
31.7345
21
-135.105
0
LINE
8
BLACK
6
CONTINUOUS
10
31.7345
20
-135.105
11
31.925
21
-135.2
0
LINE
8
BLACK
6
CONTINUOUS
10
31.925
20
-135.2
11
32.0202
21
-135.295
0
LINE
8
BLACK
6
CONTINUOUS
10
32.0202
20
-135.295
11
32.1155
21
-135.486
0
LINE
8
BLACK
6
CONTINUOUS
10
32.1155
20
-135.486
11
32.2107
21
-135.867
0
LINE
8
BLACK
6
CONTINUOUS
10
32.2107
20
-135.867
11
32.2107
21
-136.343
0
LINE
8
BLACK
6
CONTINUOUS
10
32.2107
20
-136.343
11
32.1155
21
-136.724
0
LINE
8
BLACK
6
CONTINUOUS
10
32.1155
20
-136.724
11
32.0202
21
-136.914
0
LINE
8
BLACK
6
CONTINUOUS
10
32.0202
20
-136.914
11
31.925
21
-137.01
0
LINE
8
BLACK
6
CONTINUOUS
10
31.925
20
-137.01
11
31.7345
21
-137.105
0
LINE
8
BLACK
6
CONTINUOUS
10
31.7345
20
-137.105
11
31.544
21
-137.105
0
LINE
8
BLACK
6
CONTINUOUS
10
31.544
20
-137.105
11
31.3536
21
-137.01
0
LINE
8
BLACK
6
CONTINUOUS
10
31.3536
20
-137.01
11
31.2583
21
-136.914
0
LINE
8
BLACK
6
CONTINUOUS
10
31.2583
20
-136.914
11
31.1631
21
-136.724
0
LINE
8
BLACK
6
CONTINUOUS
10
31.1631
20
-136.724
11
31.0679
21
-136.343
0
LINE
8
BLACK
6
CONTINUOUS
10
31.0679
20
-136.343
11
31.0679
21
-135.867
0
LINE
8
BLACK
6
CONTINUOUS
10
31.0679
20
-135.867
11
31.1631
21
-135.486
0
LINE
8
BLACK
6
CONTINUOUS
10
31.1631
20
-135.486
11
31.2583
21
-135.295
0
LINE
8
BLACK
6
CONTINUOUS
10
31.2583
20
-135.295
11
31.3536
21
-135.2
0
LINE
8
BLACK
6
CONTINUOUS
10
31.3536
20
-135.2
11
31.544
21
-135.105
0
LINE
8
BLACK
6
CONTINUOUS
10
33.4488
20
-135.105
11
33.6393
21
-135.105
0
LINE
8
BLACK
6
CONTINUOUS
10
33.6393
20
-135.105
11
33.8298
21
-135.2
0
LINE
8
BLACK
6
CONTINUOUS
10
33.8298
20
-135.2
11
33.925
21
-135.295
0
LINE
8
BLACK
6
CONTINUOUS
10
33.925
20
-135.295
11
34.0202
21
-135.486
0
LINE
8
BLACK
6
CONTINUOUS
10
34.0202
20
-135.486
11
34.1155
21
-135.867
0
LINE
8
BLACK
6
CONTINUOUS
10
34.1155
20
-135.867
11
34.1155
21
-136.343
0
LINE
8
BLACK
6
CONTINUOUS
10
34.1155
20
-136.343
11
34.0202
21
-136.724
0
LINE
8
BLACK
6
CONTINUOUS
10
34.0202
20
-136.724
11
33.925
21
-136.914
0
LINE
8
BLACK
6
CONTINUOUS
10
33.925
20
-136.914
11
33.8298
21
-137.01
0
LINE
8
BLACK
6
CONTINUOUS
10
33.8298
20
-137.01
11
33.6393
21
-137.105
0
LINE
8
BLACK
6
CONTINUOUS
10
33.6393
20
-137.105
11
33.4488
21
-137.105
0
LINE
8
BLACK
6
CONTINUOUS
10
33.4488
20
-137.105
11
33.2583
21
-137.01
0
LINE
8
BLACK
6
CONTINUOUS
10
33.2583
20
-137.01
11
33.1631
21
-136.914
0
LINE
8
BLACK
6
CONTINUOUS
10
33.1631
20
-136.914
11
33.0679
21
-136.724
0
LINE
8
BLACK
6
CONTINUOUS
10
33.0679
20
-136.724
11
32.9726
21
-136.343
0
LINE
8
BLACK
6
CONTINUOUS
10
32.9726
20
-136.343
11
32.9726
21
-135.867
0
LINE
8
BLACK
6
CONTINUOUS
10
32.9726
20
-135.867
11
33.0679
21
-135.486
0
LINE
8
BLACK
6
CONTINUOUS
10
33.0679
20
-135.486
11
33.1631
21
-135.295
0
LINE
8
BLACK
6
CONTINUOUS
10
33.1631
20
-135.295
11
33.2583
21
-135.2
0
LINE
8
BLACK
6
CONTINUOUS
10
33.2583
20
-135.2
11
33.4488
21
-135.105
0
LINE
8
BLACK
6
CONTINUOUS
10
34.9726
20
-137.105
11
34.9726
21
-135.771
0
LINE
8
BLACK
6
CONTINUOUS
10
34.9726
20
-135.962
11
35.0679
21
-135.867
0
LINE
8
BLACK
6
CONTINUOUS
10
35.0679
20
-135.867
11
35.2583
21
-135.771
0
LINE
8
BLACK
6
CONTINUOUS
10
35.2583
20
-135.771
11
35.544
21
-135.771
0
LINE
8
BLACK
6
CONTINUOUS
10
35.544
20
-135.771
11
35.7345
21
-135.867
0
LINE
8
BLACK
6
CONTINUOUS
10
35.7345
20
-135.867
11
35.8298
21
-136.057
0
LINE
8
BLACK
6
CONTINUOUS
10
35.8298
20
-136.057
11
35.8298
21
-137.105
0
LINE
8
BLACK
6
CONTINUOUS
10
35.8298
20
-136.057
11
35.925
21
-135.867
0
LINE
8
BLACK
6
CONTINUOUS
10
35.925
20
-135.867
11
36.1155
21
-135.771
0
LINE
8
BLACK
6
CONTINUOUS
10
36.1155
20
-135.771
11
36.4012
21
-135.771
0
LINE
8
BLACK
6
CONTINUOUS
10
36.4012
20
-135.771
11
36.5917
21
-135.867
0
LINE
8
BLACK
6
CONTINUOUS
10
36.5917
20
-135.867
11
36.6869
21
-136.057
0
LINE
8
BLACK
6
CONTINUOUS
10
36.6869
20
-136.057
11
36.6869
21
-137.105
0
LINE
8
BLACK
6
CONTINUOUS
10
37.6393
20
-137.105
11
37.6393
21
-135.771
0
LINE
8
BLACK
6
CONTINUOUS
10
37.6393
20
-135.962
11
37.7345
21
-135.867
0
LINE
8
BLACK
6
CONTINUOUS
10
37.7345
20
-135.867
11
37.925
21
-135.771
0
LINE
8
BLACK
6
CONTINUOUS
10
37.925
20
-135.771
11
38.2107
21
-135.771
0
LINE
8
BLACK
6
CONTINUOUS
10
38.2107
20
-135.771
11
38.4012
21
-135.867
0
LINE
8
BLACK
6
CONTINUOUS
10
38.4012
20
-135.867
11
38.4964
21
-136.057
0
LINE
8
BLACK
6
CONTINUOUS
10
38.4964
20
-136.057
11
38.4964
21
-137.105
0
LINE
8
BLACK
6
CONTINUOUS
10
38.4964
20
-136.057
11
38.5917
21
-135.867
0
LINE
8
BLACK
6
CONTINUOUS
10
38.5917
20
-135.867
11
38.7821
21
-135.771
0
LINE
8
BLACK
6
CONTINUOUS
10
38.7821
20
-135.771
11
39.0679
21
-135.771
0
LINE
8
BLACK
6
CONTINUOUS
10
39.0679
20
-135.771
11
39.2583
21
-135.867
0
LINE
8
BLACK
6
CONTINUOUS
10
39.2583
20
-135.867
11
39.3536
21
-136.057
0
LINE
8
BLACK
6
CONTINUOUS
10
39.3536
20
-136.057
11
39.3536
21
-137.105
0
LINE
8
BLACK
6
CONTINUOUS
10
43.2583
20
-135.01
11
41.544
21
-137.581
0
LINE
8
BLACK
6
CONTINUOUS
10
45.8298
20
-135.105
11
46.0202
21
-135.105
0
LINE
8
BLACK
6
CONTINUOUS
10
46.0202
20
-135.105
11
46.2107
21
-135.2
0
LINE
8
BLACK
6
CONTINUOUS
10
46.2107
20
-135.2
11
46.306
21
-135.295
0
LINE
8
BLACK
6
CONTINUOUS
10
46.306
20
-135.295
11
46.4012
21
-135.486
0
LINE
8
BLACK
6
CONTINUOUS
10
46.4012
20
-135.486
11
46.4964
21
-135.867
0
LINE
8
BLACK
6
CONTINUOUS
10
46.4964
20
-135.867
11
46.4964
21
-136.343
0
LINE
8
BLACK
6
CONTINUOUS
10
46.4964
20
-136.343
11
46.4012
21
-136.724
0
LINE
8
BLACK
6
CONTINUOUS
10
46.4012
20
-136.724
11
46.306
21
-136.914
0
LINE
8
BLACK
6
CONTINUOUS
10
46.306
20
-136.914
11
46.2107
21
-137.01
0
LINE
8
BLACK
6
CONTINUOUS
10
46.2107
20
-137.01
11
46.0202
21
-137.105
0
LINE
8
BLACK
6
CONTINUOUS
10
46.0202
20
-137.105
11
45.8298
21
-137.105
0
LINE
8
BLACK
6
CONTINUOUS
10
45.8298
20
-137.105
11
45.6393
21
-137.01
0
LINE
8
BLACK
6
CONTINUOUS
10
45.6393
20
-137.01
11
45.544
21
-136.914
0
LINE
8
BLACK
6
CONTINUOUS
10
45.544
20
-136.914
11
45.4488
21
-136.724
0
LINE
8
BLACK
6
CONTINUOUS
10
45.4488
20
-136.724
11
45.3536
21
-136.343
0
LINE
8
BLACK
6
CONTINUOUS
10
45.3536
20
-136.343
11
45.3536
21
-135.867
0
LINE
8
BLACK
6
CONTINUOUS
10
45.3536
20
-135.867
11
45.4488
21
-135.486
0
LINE
8
BLACK
6
CONTINUOUS
10
45.4488
20
-135.486
11
45.544
21
-135.295
0
LINE
8
BLACK
6
CONTINUOUS
10
45.544
20
-135.295
11
45.6393
21
-135.2
0
LINE
8
BLACK
6
CONTINUOUS
10
45.6393
20
-135.2
11
45.8298
21
-135.105
0
LINE
8
BLACK
6
CONTINUOUS
10
47.3536
20
-136.914
11
47.4488
21
-137.01
0
LINE
8
BLACK
6
CONTINUOUS
10
47.4488
20
-137.01
11
47.3536
21
-137.105
0
LINE
8
BLACK
6
CONTINUOUS
10
47.3536
20
-137.105
11
47.2583
21
-137.01
0
LINE
8
BLACK
6
CONTINUOUS
10
47.2583
20
-137.01
11
47.3536
21
-136.914
0
LINE
8
BLACK
6
CONTINUOUS
10
47.3536
20
-136.914
11
47.3536
21
-137.105
0
LINE
8
BLACK
6
CONTINUOUS
10
48.6869
20
-135.105
11
48.8774
21
-135.105
0
LINE
8
BLACK
6
CONTINUOUS
10
48.8774
20
-135.105
11
49.0679
21
-135.2
0
LINE
8
BLACK
6
CONTINUOUS
10
49.0679
20
-135.2
11
49.1631
21
-135.295
0
LINE
8
BLACK
6
CONTINUOUS
10
49.1631
20
-135.295
11
49.2583
21
-135.486
0
LINE
8
BLACK
6
CONTINUOUS
10
49.2583
20
-135.486
11
49.3536
21
-135.867
0
LINE
8
BLACK
6
CONTINUOUS
10
49.3536
20
-135.867
11
49.3536
21
-136.343
0
LINE
8
BLACK
6
CONTINUOUS
10
49.3536
20
-136.343
11
49.2583
21
-136.724
0
LINE
8
BLACK
6
CONTINUOUS
10
49.2583
20
-136.724
11
49.1631
21
-136.914
0
LINE
8
BLACK
6
CONTINUOUS
10
49.1631
20
-136.914
11
49.0679
21
-137.01
0
LINE
8
BLACK
6
CONTINUOUS
10
49.0679
20
-137.01
11
48.8774
21
-137.105
0
LINE
8
BLACK
6
CONTINUOUS
10
48.8774
20
-137.105
11
48.6869
21
-137.105
0
LINE
8
BLACK
6
CONTINUOUS
10
48.6869
20
-137.105
11
48.4964
21
-137.01
0
LINE
8
BLACK
6
CONTINUOUS
10
48.4964
20
-137.01
11
48.4012
21
-136.914
0
LINE
8
BLACK
6
CONTINUOUS
10
48.4012
20
-136.914
11
48.306
21
-136.724
0
LINE
8
BLACK
6
CONTINUOUS
10
48.306
20
-136.724
11
48.2107
21
-136.343
0
LINE
8
BLACK
6
CONTINUOUS
10
48.2107
20
-136.343
11
48.2107
21
-135.867
0
LINE
8
BLACK
6
CONTINUOUS
10
48.2107
20
-135.867
11
48.306
21
-135.486
0
LINE
8
BLACK
6
CONTINUOUS
10
48.306
20
-135.486
11
48.4012
21
-135.295
0
LINE
8
BLACK
6
CONTINUOUS
10
48.4012
20
-135.295
11
48.4964
21
-135.2
0
LINE
8
BLACK
6
CONTINUOUS
10
48.4964
20
-135.2
11
48.6869
21
-135.105
0
LINE
8
BLACK
6
CONTINUOUS
10
50.4964
20
-135.962
11
50.306
21
-135.867
0
LINE
8
BLACK
6
CONTINUOUS
10
50.306
20
-135.867
11
50.2107
21
-135.771
0
LINE
8
BLACK
6
CONTINUOUS
10
50.2107
20
-135.771
11
50.1155
21
-135.581
0
LINE
8
BLACK
6
CONTINUOUS
10
50.1155
20
-135.581
11
50.1155
21
-135.486
0
LINE
8
BLACK
6
CONTINUOUS
10
50.1155
20
-135.486
11
50.2107
21
-135.295
0
LINE
8
BLACK
6
CONTINUOUS
10
50.2107
20
-135.295
11
50.306
21
-135.2
0
LINE
8
BLACK
6
CONTINUOUS
10
50.306
20
-135.2
11
50.4964
21
-135.105
0
LINE
8
BLACK
6
CONTINUOUS
10
50.4964
20
-135.105
11
50.8774
21
-135.105
0
LINE
8
BLACK
6
CONTINUOUS
10
50.8774
20
-135.105
11
51.0679
21
-135.2
0
LINE
8
BLACK
6
CONTINUOUS
10
51.0679
20
-135.2
11
51.1631
21
-135.295
0
LINE
8
BLACK
6
CONTINUOUS
10
51.1631
20
-135.295
11
51.2583
21
-135.486
0
LINE
8
BLACK
6
CONTINUOUS
10
51.2583
20
-135.486
11
51.2583
21
-135.581
0
LINE
8
BLACK
6
CONTINUOUS
10
51.2583
20
-135.581
11
51.1631
21
-135.771
0
LINE
8
BLACK
6
CONTINUOUS
10
51.1631
20
-135.771
11
51.0679
21
-135.867
0
LINE
8
BLACK
6
CONTINUOUS
10
51.0679
20
-135.867
11
50.8774
21
-135.962
0
LINE
8
BLACK
6
CONTINUOUS
10
50.8774
20
-135.962
11
50.4964
21
-135.962
0
LINE
8
BLACK
6
CONTINUOUS
10
50.4964
20
-135.962
11
50.306
21
-136.057
0
LINE
8
BLACK
6
CONTINUOUS
10
50.306
20
-136.057
11
50.2107
21
-136.152
0
LINE
8
BLACK
6
CONTINUOUS
10
50.2107
20
-136.152
11
50.1155
21
-136.343
0
LINE
8
BLACK
6
CONTINUOUS
10
50.1155
20
-136.343
11
50.1155
21
-136.724
0
LINE
8
BLACK
6
CONTINUOUS
10
50.1155
20
-136.724
11
50.2107
21
-136.914
0
LINE
8
BLACK
6
CONTINUOUS
10
50.2107
20
-136.914
11
50.306
21
-137.01
0
LINE
8
BLACK
6
CONTINUOUS
10
50.306
20
-137.01
11
50.4964
21
-137.105
0
LINE
8
BLACK
6
CONTINUOUS
10
50.4964
20
-137.105
11
50.8774
21
-137.105
0
LINE
8
BLACK
6
CONTINUOUS
10
50.8774
20
-137.105
11
51.0679
21
-137.01
0
LINE
8
BLACK
6
CONTINUOUS
10
51.0679
20
-137.01
11
51.1631
21
-136.914
0
LINE
8
BLACK
6
CONTINUOUS
10
51.1631
20
-136.914
11
51.2583
21
-136.724
0
LINE
8
BLACK
6
CONTINUOUS
10
51.2583
20
-136.724
11
51.2583
21
-136.343
0
LINE
8
BLACK
6
CONTINUOUS
10
51.2583
20
-136.343
11
51.1631
21
-136.152
0
LINE
8
BLACK
6
CONTINUOUS
10
51.1631
20
-136.152
11
51.0679
21
-136.057
0
LINE
8
BLACK
6
CONTINUOUS
10
51.0679
20
-136.057
11
50.8774
21
-135.962
0
LINE
8
BLACK
6
CONTINUOUS
10
52.9726
20
-135.105
11
52.5917
21
-135.105
0
LINE
8
BLACK
6
CONTINUOUS
10
52.5917
20
-135.105
11
52.4012
21
-135.2
0
LINE
8
BLACK
6
CONTINUOUS
10
52.4012
20
-135.2
11
52.306
21
-135.295
0
LINE
8
BLACK
6
CONTINUOUS
10
52.306
20
-135.295
11
52.1155
21
-135.581
0
LINE
8
BLACK
6
CONTINUOUS
10
52.1155
20
-135.581
11
52.0202
21
-135.962
0
LINE
8
BLACK
6
CONTINUOUS
10
52.0202
20
-135.962
11
52.0202
21
-136.724
0
LINE
8
BLACK
6
CONTINUOUS
10
52.0202
20
-136.724
11
52.1155
21
-136.914
0
LINE
8
BLACK
6
CONTINUOUS
10
52.1155
20
-136.914
11
52.2107
21
-137.01
0
LINE
8
BLACK
6
CONTINUOUS
10
52.2107
20
-137.01
11
52.4012
21
-137.105
0
LINE
8
BLACK
6
CONTINUOUS
10
52.4012
20
-137.105
11
52.7821
21
-137.105
0
LINE
8
BLACK
6
CONTINUOUS
10
52.7821
20
-137.105
11
52.9726
21
-137.01
0
LINE
8
BLACK
6
CONTINUOUS
10
52.9726
20
-137.01
11
53.0679
21
-136.914
0
LINE
8
BLACK
6
CONTINUOUS
10
53.0679
20
-136.914
11
53.1631
21
-136.724
0
LINE
8
BLACK
6
CONTINUOUS
10
53.1631
20
-136.724
11
53.1631
21
-136.248
0
LINE
8
BLACK
6
CONTINUOUS
10
53.1631
20
-136.248
11
53.0679
21
-136.057
0
LINE
8
BLACK
6
CONTINUOUS
10
53.0679
20
-136.057
11
52.9726
21
-135.962
0
LINE
8
BLACK
6
CONTINUOUS
10
52.9726
20
-135.962
11
52.7821
21
-135.867
0
LINE
8
BLACK
6
CONTINUOUS
10
52.7821
20
-135.867
11
52.4012
21
-135.867
0
LINE
8
BLACK
6
CONTINUOUS
10
52.4012
20
-135.867
11
52.2107
21
-135.962
0
LINE
8
BLACK
6
CONTINUOUS
10
52.2107
20
-135.962
11
52.1155
21
-136.057
0
LINE
8
BLACK
6
CONTINUOUS
10
52.1155
20
-136.057
11
52.0202
21
-136.248
0
LINE
8
BLACK
6
CONTINUOUS
10
54.8774
20
-135.105
11
54.4964
21
-135.105
0
LINE
8
BLACK
6
CONTINUOUS
10
54.4964
20
-135.105
11
54.306
21
-135.2
0
LINE
8
BLACK
6
CONTINUOUS
10
54.306
20
-135.2
11
54.2107
21
-135.295
0
LINE
8
BLACK
6
CONTINUOUS
10
54.2107
20
-135.295
11
54.0202
21
-135.581
0
LINE
8
BLACK
6
CONTINUOUS
10
54.0202
20
-135.581
11
53.925
21
-135.962
0
LINE
8
BLACK
6
CONTINUOUS
10
53.925
20
-135.962
11
53.925
21
-136.724
0
LINE
8
BLACK
6
CONTINUOUS
10
53.925
20
-136.724
11
54.0202
21
-136.914
0
LINE
8
BLACK
6
CONTINUOUS
10
54.0202
20
-136.914
11
54.1155
21
-137.01
0
LINE
8
BLACK
6
CONTINUOUS
10
54.1155
20
-137.01
11
54.306
21
-137.105
0
LINE
8
BLACK
6
CONTINUOUS
10
54.306
20
-137.105
11
54.6869
21
-137.105
0
LINE
8
BLACK
6
CONTINUOUS
10
54.6869
20
-137.105
11
54.8774
21
-137.01
0
LINE
8
BLACK
6
CONTINUOUS
10
54.8774
20
-137.01
11
54.9726
21
-136.914
0
LINE
8
BLACK
6
CONTINUOUS
10
54.9726
20
-136.914
11
55.0679
21
-136.724
0
LINE
8
BLACK
6
CONTINUOUS
10
55.0679
20
-136.724
11
55.0679
21
-136.248
0
LINE
8
BLACK
6
CONTINUOUS
10
55.0679
20
-136.248
11
54.9726
21
-136.057
0
LINE
8
BLACK
6
CONTINUOUS
10
54.9726
20
-136.057
11
54.8774
21
-135.962
0
LINE
8
BLACK
6
CONTINUOUS
10
54.8774
20
-135.962
11
54.6869
21
-135.867
0
LINE
8
BLACK
6
CONTINUOUS
10
54.6869
20
-135.867
11
54.306
21
-135.867
0
LINE
8
BLACK
6
CONTINUOUS
10
54.306
20
-135.867
11
54.1155
21
-135.962
0
LINE
8
BLACK
6
CONTINUOUS
10
54.1155
20
-135.962
11
54.0202
21
-136.057
0
LINE
8
BLACK
6
CONTINUOUS
10
54.0202
20
-136.057
11
53.925
21
-136.248
0
LINE
8
BLACK
6
CONTINUOUS
10
55.8298
20
-135.105
11
55.8298
21
-135.486
0
LINE
8
BLACK
6
CONTINUOUS
10
56.5917
20
-135.105
11
56.5917
21
-135.486
0
LINE
8
BLACK
6
CONTINUOUS
10
59.544
20
-137.867
11
59.4488
21
-137.771
0
LINE
8
BLACK
6
CONTINUOUS
10
59.4488
20
-137.771
11
59.2583
21
-137.486
0
LINE
8
BLACK
6
CONTINUOUS
10
59.2583
20
-137.486
11
59.1631
21
-137.295
0
LINE
8
BLACK
6
CONTINUOUS
10
59.1631
20
-137.295
11
59.0679
21
-137.01
0
LINE
8
BLACK
6
CONTINUOUS
10
59.0679
20
-137.01
11
58.9726
21
-136.533
0
LINE
8
BLACK
6
CONTINUOUS
10
58.9726
20
-136.533
11
58.9726
21
-136.152
0
LINE
8
BLACK
6
CONTINUOUS
10
58.9726
20
-136.152
11
59.0679
21
-135.676
0
LINE
8
BLACK
6
CONTINUOUS
10
59.0679
20
-135.676
11
59.1631
21
-135.39
0
LINE
8
BLACK
6
CONTINUOUS
10
59.1631
20
-135.39
11
59.2583
21
-135.2
0
LINE
8
BLACK
6
CONTINUOUS
10
59.2583
20
-135.2
11
59.4488
21
-134.914
0
LINE
8
BLACK
6
CONTINUOUS
10
59.4488
20
-134.914
11
59.544
21
-134.819
0
LINE
8
BLACK
6
CONTINUOUS
10
61.3536
20
-137.105
11
60.2107
21
-137.105
0
LINE
8
BLACK
6
CONTINUOUS
10
60.7821
20
-137.105
11
60.7821
21
-135.105
0
LINE
8
BLACK
6
CONTINUOUS
10
60.7821
20
-135.105
11
60.5917
21
-135.39
0
LINE
8
BLACK
6
CONTINUOUS
10
60.5917
20
-135.39
11
60.4012
21
-135.581
0
LINE
8
BLACK
6
CONTINUOUS
10
60.4012
20
-135.581
11
60.2107
21
-135.676
0
LINE
8
BLACK
6
CONTINUOUS
10
62.0202
20
-135.105
11
63.2583
21
-135.105
0
LINE
8
BLACK
6
CONTINUOUS
10
63.2583
20
-135.105
11
62.5917
21
-135.867
0
LINE
8
BLACK
6
CONTINUOUS
10
62.5917
20
-135.867
11
62.8774
21
-135.867
0
LINE
8
BLACK
6
CONTINUOUS
10
62.8774
20
-135.867
11
63.0679
21
-135.962
0
LINE
8
BLACK
6
CONTINUOUS
10
63.0679
20
-135.962
11
63.1631
21
-136.057
0
LINE
8
BLACK
6
CONTINUOUS
10
63.1631
20
-136.057
11
63.2583
21
-136.248
0
LINE
8
BLACK
6
CONTINUOUS
10
63.2583
20
-136.248
11
63.2583
21
-136.724
0
LINE
8
BLACK
6
CONTINUOUS
10
63.2583
20
-136.724
11
63.1631
21
-136.914
0
LINE
8
BLACK
6
CONTINUOUS
10
63.1631
20
-136.914
11
63.0679
21
-137.01
0
LINE
8
BLACK
6
CONTINUOUS
10
63.0679
20
-137.01
11
62.8774
21
-137.105
0
LINE
8
BLACK
6
CONTINUOUS
10
62.8774
20
-137.105
11
62.306
21
-137.105
0
LINE
8
BLACK
6
CONTINUOUS
10
62.306
20
-137.105
11
62.1155
21
-137.01
0
LINE
8
BLACK
6
CONTINUOUS
10
62.1155
20
-137.01
11
62.0202
21
-136.914
0
LINE
8
BLACK
6
CONTINUOUS
10
65.6393
20
-137.105
11
65.6393
21
-135.105
0
LINE
8
BLACK
6
CONTINUOUS
10
66.4964
20
-137.105
11
66.4964
21
-136.057
0
LINE
8
BLACK
6
CONTINUOUS
10
66.4964
20
-136.057
11
66.4012
21
-135.867
0
LINE
8
BLACK
6
CONTINUOUS
10
66.4012
20
-135.867
11
66.2107
21
-135.771
0
LINE
8
BLACK
6
CONTINUOUS
10
66.2107
20
-135.771
11
65.925
21
-135.771
0
LINE
8
BLACK
6
CONTINUOUS
10
65.925
20
-135.771
11
65.7345
21
-135.867
0
LINE
8
BLACK
6
CONTINUOUS
10
65.7345
20
-135.867
11
65.6393
21
-135.962
0
LINE
8
BLACK
6
CONTINUOUS
10
67.7345
20
-137.105
11
67.544
21
-137.01
0
LINE
8
BLACK
6
CONTINUOUS
10
67.544
20
-137.01
11
67.4488
21
-136.914
0
LINE
8
BLACK
6
CONTINUOUS
10
67.4488
20
-136.914
11
67.3536
21
-136.724
0
LINE
8
BLACK
6
CONTINUOUS
10
67.3536
20
-136.724
11
67.3536
21
-136.152
0
LINE
8
BLACK
6
CONTINUOUS
10
67.3536
20
-136.152
11
67.4488
21
-135.962
0
LINE
8
BLACK
6
CONTINUOUS
10
67.4488
20
-135.962
11
67.544
21
-135.867
0
LINE
8
BLACK
6
CONTINUOUS
10
67.544
20
-135.867
11
67.7345
21
-135.771
0
LINE
8
BLACK
6
CONTINUOUS
10
67.7345
20
-135.771
11
68.0202
21
-135.771
0
LINE
8
BLACK
6
CONTINUOUS
10
68.0202
20
-135.771
11
68.2107
21
-135.867
0
LINE
8
BLACK
6
CONTINUOUS
10
68.2107
20
-135.867
11
68.306
21
-135.962
0
LINE
8
BLACK
6
CONTINUOUS
10
68.306
20
-135.962
11
68.4012
21
-136.152
0
LINE
8
BLACK
6
CONTINUOUS
10
68.4012
20
-136.152
11
68.4012
21
-136.724
0
LINE
8
BLACK
6
CONTINUOUS
10
68.4012
20
-136.724
11
68.306
21
-136.914
0
LINE
8
BLACK
6
CONTINUOUS
10
68.306
20
-136.914
11
68.2107
21
-137.01
0
LINE
8
BLACK
6
CONTINUOUS
10
68.2107
20
-137.01
11
68.0202
21
-137.105
0
LINE
8
BLACK
6
CONTINUOUS
10
68.0202
20
-137.105
11
67.7345
21
-137.105
0
LINE
8
BLACK
6
CONTINUOUS
10
69.544
20
-137.105
11
69.3536
21
-137.01
0
LINE
8
BLACK
6
CONTINUOUS
10
69.3536
20
-137.01
11
69.2583
21
-136.819
0
LINE
8
BLACK
6
CONTINUOUS
10
69.2583
20
-136.819
11
69.2583
21
-135.105
0
LINE
8
BLACK
6
CONTINUOUS
10
71.0679
20
-137.01
11
70.8774
21
-137.105
0
LINE
8
BLACK
6
CONTINUOUS
10
70.8774
20
-137.105
11
70.4964
21
-137.105
0
LINE
8
BLACK
6
CONTINUOUS
10
70.4964
20
-137.105
11
70.306
21
-137.01
0
LINE
8
BLACK
6
CONTINUOUS
10
70.306
20
-137.01
11
70.2107
21
-136.819
0
LINE
8
BLACK
6
CONTINUOUS
10
70.2107
20
-136.819
11
70.2107
21
-136.057
0
LINE
8
BLACK
6
CONTINUOUS
10
70.2107
20
-136.057
11
70.306
21
-135.867
0
LINE
8
BLACK
6
CONTINUOUS
10
70.306
20
-135.867
11
70.4964
21
-135.771
0
LINE
8
BLACK
6
CONTINUOUS
10
70.4964
20
-135.771
11
70.8774
21
-135.771
0
LINE
8
BLACK
6
CONTINUOUS
10
70.8774
20
-135.771
11
71.0679
21
-135.867
0
LINE
8
BLACK
6
CONTINUOUS
10
71.0679
20
-135.867
11
71.1631
21
-136.057
0
LINE
8
BLACK
6
CONTINUOUS
10
71.1631
20
-136.057
11
71.1631
21
-136.248
0
LINE
8
BLACK
6
CONTINUOUS
10
71.1631
20
-136.248
11
70.2107
21
-136.438
0
LINE
8
BLACK
6
CONTINUOUS
10
71.925
20
-137.01
11
72.1155
21
-137.105
0
LINE
8
BLACK
6
CONTINUOUS
10
72.1155
20
-137.105
11
72.4964
21
-137.105
0
LINE
8
BLACK
6
CONTINUOUS
10
72.4964
20
-137.105
11
72.6869
21
-137.01
0
LINE
8
BLACK
6
CONTINUOUS
10
72.6869
20
-137.01
11
72.7821
21
-136.819
0
LINE
8
BLACK
6
CONTINUOUS
10
72.7821
20
-136.819
11
72.7821
21
-136.724
0
LINE
8
BLACK
6
CONTINUOUS
10
72.7821
20
-136.724
11
72.6869
21
-136.533
0
LINE
8
BLACK
6
CONTINUOUS
10
72.6869
20
-136.533
11
72.4964
21
-136.438
0
LINE
8
BLACK
6
CONTINUOUS
10
72.4964
20
-136.438
11
72.2107
21
-136.438
0
LINE
8
BLACK
6
CONTINUOUS
10
72.2107
20
-136.438
11
72.0202
21
-136.343
0
LINE
8
BLACK
6
CONTINUOUS
10
72.0202
20
-136.343
11
71.925
21
-136.152
0
LINE
8
BLACK
6
CONTINUOUS
10
71.925
20
-136.152
11
71.925
21
-136.057
0
LINE
8
BLACK
6
CONTINUOUS
10
71.925
20
-136.057
11
72.0202
21
-135.867
0
LINE
8
BLACK
6
CONTINUOUS
10
72.0202
20
-135.867
11
72.2107
21
-135.771
0
LINE
8
BLACK
6
CONTINUOUS
10
72.2107
20
-135.771
11
72.4964
21
-135.771
0
LINE
8
BLACK
6
CONTINUOUS
10
72.4964
20
-135.771
11
72.6869
21
-135.867
0
LINE
8
BLACK
6
CONTINUOUS
10
73.4488
20
-137.867
11
73.544
21
-137.771
0
LINE
8
BLACK
6
CONTINUOUS
10
73.544
20
-137.771
11
73.7345
21
-137.486
0
LINE
8
BLACK
6
CONTINUOUS
10
73.7345
20
-137.486
11
73.8298
21
-137.295
0
LINE
8
BLACK
6
CONTINUOUS
10
73.8298
20
-137.295
11
73.925
21
-137.01
0
LINE
8
BLACK
6
CONTINUOUS
10
73.925
20
-137.01
11
74.0202
21
-136.533
0
LINE
8
BLACK
6
CONTINUOUS
10
74.0202
20
-136.533
11
74.0202
21
-136.152
0
LINE
8
BLACK
6
CONTINUOUS
10
74.0202
20
-136.152
11
73.925
21
-135.676
0
LINE
8
BLACK
6
CONTINUOUS
10
73.925
20
-135.676
11
73.8298
21
-135.39
0
LINE
8
BLACK
6
CONTINUOUS
10
73.8298
20
-135.39
11
73.7345
21
-135.2
0
LINE
8
BLACK
6
CONTINUOUS
10
73.7345
20
-135.2
11
73.544
21
-134.914
0
LINE
8
BLACK
6
CONTINUOUS
10
73.544
20
-134.914
11
73.4488
21
-134.819
0
LINE
8
BLACK
6
CONTINUOUS
10
77.0679
20
-137.867
11
76.9726
21
-137.771
0
LINE
8
BLACK
6
CONTINUOUS
10
76.9726
20
-137.771
11
76.7821
21
-137.486
0
LINE
8
BLACK
6
CONTINUOUS
10
76.7821
20
-137.486
11
76.6869
21
-137.295
0
LINE
8
BLACK
6
CONTINUOUS
10
76.6869
20
-137.295
11
76.5917
21
-137.01
0
LINE
8
BLACK
6
CONTINUOUS
10
76.5917
20
-137.01
11
76.4964
21
-136.533
0
LINE
8
BLACK
6
CONTINUOUS
10
76.4964
20
-136.533
11
76.4964
21
-136.152
0
LINE
8
BLACK
6
CONTINUOUS
10
76.4964
20
-136.152
11
76.5917
21
-135.676
0
LINE
8
BLACK
6
CONTINUOUS
10
76.5917
20
-135.676
11
76.6869
21
-135.39
0
LINE
8
BLACK
6
CONTINUOUS
10
76.6869
20
-135.39
11
76.7821
21
-135.2
0
LINE
8
BLACK
6
CONTINUOUS
10
76.7821
20
-135.2
11
76.9726
21
-134.914
0
LINE
8
BLACK
6
CONTINUOUS
10
76.9726
20
-134.914
11
77.0679
21
-134.819
0
LINE
8
BLACK
6
CONTINUOUS
10
77.8298
20
-135.771
11
77.8298
21
-137.105
0
LINE
8
BLACK
6
CONTINUOUS
10
77.8298
20
-135.962
11
77.925
21
-135.867
0
LINE
8
BLACK
6
CONTINUOUS
10
77.925
20
-135.867
11
78.1155
21
-135.771
0
LINE
8
BLACK
6
CONTINUOUS
10
78.1155
20
-135.771
11
78.4012
21
-135.771
0
LINE
8
BLACK
6
CONTINUOUS
10
78.4012
20
-135.771
11
78.5917
21
-135.867
0
LINE
8
BLACK
6
CONTINUOUS
10
78.5917
20
-135.867
11
78.6869
21
-136.057
0
LINE
8
BLACK
6
CONTINUOUS
10
78.6869
20
-136.057
11
78.6869
21
-137.105
0
LINE
8
BLACK
6
CONTINUOUS
10
79.925
20
-137.105
11
79.7345
21
-137.01
0
LINE
8
BLACK
6
CONTINUOUS
10
79.7345
20
-137.01
11
79.6393
21
-136.914
0
LINE
8
BLACK
6
CONTINUOUS
10
79.6393
20
-136.914
11
79.544
21
-136.724
0
LINE
8
BLACK
6
CONTINUOUS
10
79.544
20
-136.724
11
79.544
21
-136.152
0
LINE
8
BLACK
6
CONTINUOUS
10
79.544
20
-136.152
11
79.6393
21
-135.962
0
LINE
8
BLACK
6
CONTINUOUS
10
79.6393
20
-135.962
11
79.7345
21
-135.867
0
LINE
8
BLACK
6
CONTINUOUS
10
79.7345
20
-135.867
11
79.925
21
-135.771
0
LINE
8
BLACK
6
CONTINUOUS
10
79.925
20
-135.771
11
80.2107
21
-135.771
0
LINE
8
BLACK
6
CONTINUOUS
10
80.2107
20
-135.771
11
80.4012
21
-135.867
0
LINE
8
BLACK
6
CONTINUOUS
10
80.4012
20
-135.867
11
80.4964
21
-135.962
0
LINE
8
BLACK
6
CONTINUOUS
10
80.4964
20
-135.962
11
80.5917
21
-136.152
0
LINE
8
BLACK
6
CONTINUOUS
10
80.5917
20
-136.152
11
80.5917
21
-136.724
0
LINE
8
BLACK
6
CONTINUOUS
10
80.5917
20
-136.724
11
80.4964
21
-136.914
0
LINE
8
BLACK
6
CONTINUOUS
10
80.4964
20
-136.914
11
80.4012
21
-137.01
0
LINE
8
BLACK
6
CONTINUOUS
10
80.4012
20
-137.01
11
80.2107
21
-137.105
0
LINE
8
BLACK
6
CONTINUOUS
10
80.2107
20
-137.105
11
79.925
21
-137.105
0
LINE
8
BLACK
6
CONTINUOUS
10
81.1631
20
-135.771
11
81.925
21
-135.771
0
LINE
8
BLACK
6
CONTINUOUS
10
81.4488
20
-135.105
11
81.4488
21
-136.819
0
LINE
8
BLACK
6
CONTINUOUS
10
81.4488
20
-136.819
11
81.544
21
-137.01
0
LINE
8
BLACK
6
CONTINUOUS
10
81.544
20
-137.01
11
81.7345
21
-137.105
0
LINE
8
BLACK
6
CONTINUOUS
10
81.7345
20
-137.105
11
81.925
21
-137.105
0
LINE
8
BLACK
6
CONTINUOUS
10
84.1155
20
-135.771
11
84.1155
21
-137.771
0
LINE
8
BLACK
6
CONTINUOUS
10
84.1155
20
-135.867
11
84.306
21
-135.771
0
LINE
8
BLACK
6
CONTINUOUS
10
84.306
20
-135.771
11
84.6869
21
-135.771
0
LINE
8
BLACK
6
CONTINUOUS
10
84.6869
20
-135.771
11
84.8774
21
-135.867
0
LINE
8
BLACK
6
CONTINUOUS
10
84.8774
20
-135.867
11
84.9726
21
-135.962
0
LINE
8
BLACK
6
CONTINUOUS
10
84.9726
20
-135.962
11
85.0679
21
-136.152
0
LINE
8
BLACK
6
CONTINUOUS
10
85.0679
20
-136.152
11
85.0679
21
-136.724
0
LINE
8
BLACK
6
CONTINUOUS
10
85.0679
20
-136.724
11
84.9726
21
-136.914
0
LINE
8
BLACK
6
CONTINUOUS
10
84.9726
20
-136.914
11
84.8774
21
-137.01
0
LINE
8
BLACK
6
CONTINUOUS
10
84.8774
20
-137.01
11
84.6869
21
-137.105
0
LINE
8
BLACK
6
CONTINUOUS
10
84.6869
20
-137.105
11
84.306
21
-137.105
0
LINE
8
BLACK
6
CONTINUOUS
10
84.306
20
-137.105
11
84.1155
21
-137.01
0
LINE
8
BLACK
6
CONTINUOUS
10
86.2107
20
-137.105
11
86.0202
21
-137.01
0
LINE
8
BLACK
6
CONTINUOUS
10
86.0202
20
-137.01
11
85.925
21
-136.819
0
LINE
8
BLACK
6
CONTINUOUS
10
85.925
20
-136.819
11
85.925
21
-135.105
0
LINE
8
BLACK
6
CONTINUOUS
10
87.8298
20
-137.105
11
87.8298
21
-136.057
0
LINE
8
BLACK
6
CONTINUOUS
10
87.8298
20
-136.057
11
87.7345
21
-135.867
0
LINE
8
BLACK
6
CONTINUOUS
10
87.7345
20
-135.867
11
87.544
21
-135.771
0
LINE
8
BLACK
6
CONTINUOUS
10
87.544
20
-135.771
11
87.1631
21
-135.771
0
LINE
8
BLACK
6
CONTINUOUS
10
87.1631
20
-135.771
11
86.9726
21
-135.867
0
LINE
8
BLACK
6
CONTINUOUS
10
87.8298
20
-137.01
11
87.6393
21
-137.105
0
LINE
8
BLACK
6
CONTINUOUS
10
87.6393
20
-137.105
11
87.1631
21
-137.105
0
LINE
8
BLACK
6
CONTINUOUS
10
87.1631
20
-137.105
11
86.9726
21
-137.01
0
LINE
8
BLACK
6
CONTINUOUS
10
86.9726
20
-137.01
11
86.8774
21
-136.819
0
LINE
8
BLACK
6
CONTINUOUS
10
86.8774
20
-136.819
11
86.8774
21
-136.629
0
LINE
8
BLACK
6
CONTINUOUS
10
86.8774
20
-136.629
11
86.9726
21
-136.438
0
LINE
8
BLACK
6
CONTINUOUS
10
86.9726
20
-136.438
11
87.1631
21
-136.343
0
LINE
8
BLACK
6
CONTINUOUS
10
87.1631
20
-136.343
11
87.6393
21
-136.343
0
LINE
8
BLACK
6
CONTINUOUS
10
87.6393
20
-136.343
11
87.8298
21
-136.248
0
LINE
8
BLACK
6
CONTINUOUS
10
88.4964
20
-135.771
11
89.2583
21
-135.771
0
LINE
8
BLACK
6
CONTINUOUS
10
88.7821
20
-135.105
11
88.7821
21
-136.819
0
LINE
8
BLACK
6
CONTINUOUS
10
88.7821
20
-136.819
11
88.8774
21
-137.01
0
LINE
8
BLACK
6
CONTINUOUS
10
88.8774
20
-137.01
11
89.0679
21
-137.105
0
LINE
8
BLACK
6
CONTINUOUS
10
89.0679
20
-137.105
11
89.2583
21
-137.105
0
LINE
8
BLACK
6
CONTINUOUS
10
90.6869
20
-137.01
11
90.4964
21
-137.105
0
LINE
8
BLACK
6
CONTINUOUS
10
90.4964
20
-137.105
11
90.1155
21
-137.105
0
LINE
8
BLACK
6
CONTINUOUS
10
90.1155
20
-137.105
11
89.925
21
-137.01
0
LINE
8
BLACK
6
CONTINUOUS
10
89.925
20
-137.01
11
89.8298
21
-136.819
0
LINE
8
BLACK
6
CONTINUOUS
10
89.8298
20
-136.819
11
89.8298
21
-136.057
0
LINE
8
BLACK
6
CONTINUOUS
10
89.8298
20
-136.057
11
89.925
21
-135.867
0
LINE
8
BLACK
6
CONTINUOUS
10
89.925
20
-135.867
11
90.1155
21
-135.771
0
LINE
8
BLACK
6
CONTINUOUS
10
90.1155
20
-135.771
11
90.4964
21
-135.771
0
LINE
8
BLACK
6
CONTINUOUS
10
90.4964
20
-135.771
11
90.6869
21
-135.867
0
LINE
8
BLACK
6
CONTINUOUS
10
90.6869
20
-135.867
11
90.7821
21
-136.057
0
LINE
8
BLACK
6
CONTINUOUS
10
90.7821
20
-136.057
11
90.7821
21
-136.248
0
LINE
8
BLACK
6
CONTINUOUS
10
90.7821
20
-136.248
11
89.8298
21
-136.438
0
LINE
8
BLACK
6
CONTINUOUS
10
92.4964
20
-137.105
11
92.4964
21
-135.105
0
LINE
8
BLACK
6
CONTINUOUS
10
92.4964
20
-137.01
11
92.306
21
-137.105
0
LINE
8
BLACK
6
CONTINUOUS
10
92.306
20
-137.105
11
91.925
21
-137.105
0
LINE
8
BLACK
6
CONTINUOUS
10
91.925
20
-137.105
11
91.7345
21
-137.01
0
LINE
8
BLACK
6
CONTINUOUS
10
91.7345
20
-137.01
11
91.6393
21
-136.914
0
LINE
8
BLACK
6
CONTINUOUS
10
91.6393
20
-136.914
11
91.544
21
-136.724
0
LINE
8
BLACK
6
CONTINUOUS
10
91.544
20
-136.724
11
91.544
21
-136.152
0
LINE
8
BLACK
6
CONTINUOUS
10
91.544
20
-136.152
11
91.6393
21
-135.962
0
LINE
8
BLACK
6
CONTINUOUS
10
91.6393
20
-135.962
11
91.7345
21
-135.867
0
LINE
8
BLACK
6
CONTINUOUS
10
91.7345
20
-135.867
11
91.925
21
-135.771
0
LINE
8
BLACK
6
CONTINUOUS
10
91.925
20
-135.771
11
92.306
21
-135.771
0
LINE
8
BLACK
6
CONTINUOUS
10
92.306
20
-135.771
11
92.4964
21
-135.867
0
LINE
8
BLACK
6
CONTINUOUS
10
93.2583
20
-137.867
11
93.3536
21
-137.771
0
LINE
8
BLACK
6
CONTINUOUS
10
93.3536
20
-137.771
11
93.544
21
-137.486
0
LINE
8
BLACK
6
CONTINUOUS
10
93.544
20
-137.486
11
93.6393
21
-137.295
0
LINE
8
BLACK
6
CONTINUOUS
10
93.6393
20
-137.295
11
93.7345
21
-137.01
0
LINE
8
BLACK
6
CONTINUOUS
10
93.7345
20
-137.01
11
93.8298
21
-136.533
0
LINE
8
BLACK
6
CONTINUOUS
10
93.8298
20
-136.533
11
93.8298
21
-136.152
0
LINE
8
BLACK
6
CONTINUOUS
10
93.8298
20
-136.152
11
93.7345
21
-135.676
0
LINE
8
BLACK
6
CONTINUOUS
10
93.7345
20
-135.676
11
93.6393
21
-135.39
0
LINE
8
BLACK
6
CONTINUOUS
10
93.6393
20
-135.39
11
93.544
21
-135.2
0
LINE
8
BLACK
6
CONTINUOUS
10
93.544
20
-135.2
11
93.3536
21
-134.914
0
LINE
8
BLACK
6
CONTINUOUS
10
93.3536
20
-134.914
11
93.2583
21
-134.819
0
LINE
8
BLACK
6
CONTINUOUS
10
23.5321
20
-140.107
11
23.5321
21
-138.693
0
LINE
8
BLACK
6
CONTINUOUS
10
23.5321
20
-138.693
11
22.1179
21
-138.693
0
LINE
8
BLACK
6
CONTINUOUS
10
22.1179
20
-138.693
11
22.1179
21
-140.107
0
LINE
8
BLACK
6
CONTINUOUS
10
22.1179
20
-140.107
11
23.5321
21
-140.107
0
LINE
8
BLACK
6
CONTINUOUS
10
26.2107
20
-138.305
11
27.4488
21
-138.305
0
LINE
8
BLACK
6
CONTINUOUS
10
27.4488
20
-138.305
11
26.7821
21
-139.067
0
LINE
8
BLACK
6
CONTINUOUS
10
26.7821
20
-139.067
11
27.0679
21
-139.067
0
LINE
8
BLACK
6
CONTINUOUS
10
27.0679
20
-139.067
11
27.2583
21
-139.162
0
LINE
8
BLACK
6
CONTINUOUS
10
27.2583
20
-139.162
11
27.3536
21
-139.257
0
LINE
8
BLACK
6
CONTINUOUS
10
27.3536
20
-139.257
11
27.4488
21
-139.448
0
LINE
8
BLACK
6
CONTINUOUS
10
27.4488
20
-139.448
11
27.4488
21
-139.924
0
LINE
8
BLACK
6
CONTINUOUS
10
27.4488
20
-139.924
11
27.3536
21
-140.114
0
LINE
8
BLACK
6
CONTINUOUS
10
27.3536
20
-140.114
11
27.2583
21
-140.21
0
LINE
8
BLACK
6
CONTINUOUS
10
27.2583
20
-140.21
11
27.0679
21
-140.305
0
LINE
8
BLACK
6
CONTINUOUS
10
27.0679
20
-140.305
11
26.4964
21
-140.305
0
LINE
8
BLACK
6
CONTINUOUS
10
26.4964
20
-140.305
11
26.306
21
-140.21
0
LINE
8
BLACK
6
CONTINUOUS
10
26.306
20
-140.21
11
26.2107
21
-140.114
0
LINE
8
BLACK
6
CONTINUOUS
10
28.306
20
-140.114
11
28.4012
21
-140.21
0
LINE
8
BLACK
6
CONTINUOUS
10
28.4012
20
-140.21
11
28.306
21
-140.305
0
LINE
8
BLACK
6
CONTINUOUS
10
28.306
20
-140.305
11
28.2107
21
-140.21
0
LINE
8
BLACK
6
CONTINUOUS
10
28.2107
20
-140.21
11
28.306
21
-140.114
0
LINE
8
BLACK
6
CONTINUOUS
10
28.306
20
-140.114
11
28.306
21
-140.305
0
LINE
8
BLACK
6
CONTINUOUS
10
29.6393
20
-138.305
11
29.8298
21
-138.305
0
LINE
8
BLACK
6
CONTINUOUS
10
29.8298
20
-138.305
11
30.0202
21
-138.4
0
LINE
8
BLACK
6
CONTINUOUS
10
30.0202
20
-138.4
11
30.1155
21
-138.495
0
LINE
8
BLACK
6
CONTINUOUS
10
30.1155
20
-138.495
11
30.2107
21
-138.686
0
LINE
8
BLACK
6
CONTINUOUS
10
30.2107
20
-138.686
11
30.306
21
-139.067
0
LINE
8
BLACK
6
CONTINUOUS
10
30.306
20
-139.067
11
30.306
21
-139.543
0
LINE
8
BLACK
6
CONTINUOUS
10
30.306
20
-139.543
11
30.2107
21
-139.924
0
LINE
8
BLACK
6
CONTINUOUS
10
30.2107
20
-139.924
11
30.1155
21
-140.114
0
LINE
8
BLACK
6
CONTINUOUS
10
30.1155
20
-140.114
11
30.0202
21
-140.21
0
LINE
8
BLACK
6
CONTINUOUS
10
30.0202
20
-140.21
11
29.8298
21
-140.305
0
LINE
8
BLACK
6
CONTINUOUS
10
29.8298
20
-140.305
11
29.6393
21
-140.305
0
LINE
8
BLACK
6
CONTINUOUS
10
29.6393
20
-140.305
11
29.4488
21
-140.21
0
LINE
8
BLACK
6
CONTINUOUS
10
29.4488
20
-140.21
11
29.3536
21
-140.114
0
LINE
8
BLACK
6
CONTINUOUS
10
29.3536
20
-140.114
11
29.2583
21
-139.924
0
LINE
8
BLACK
6
CONTINUOUS
10
29.2583
20
-139.924
11
29.1631
21
-139.543
0
LINE
8
BLACK
6
CONTINUOUS
10
29.1631
20
-139.543
11
29.1631
21
-139.067
0
LINE
8
BLACK
6
CONTINUOUS
10
29.1631
20
-139.067
11
29.2583
21
-138.686
0
LINE
8
BLACK
6
CONTINUOUS
10
29.2583
20
-138.686
11
29.3536
21
-138.495
0
LINE
8
BLACK
6
CONTINUOUS
10
29.3536
20
-138.495
11
29.4488
21
-138.4
0
LINE
8
BLACK
6
CONTINUOUS
10
29.4488
20
-138.4
11
29.6393
21
-138.305
0
LINE
8
BLACK
6
CONTINUOUS
10
32.1155
20
-138.305
11
31.1631
21
-138.305
0
LINE
8
BLACK
6
CONTINUOUS
10
31.1631
20
-138.305
11
31.0679
21
-139.257
0
LINE
8
BLACK
6
CONTINUOUS
10
31.0679
20
-139.257
11
31.1631
21
-139.162
0
LINE
8
BLACK
6
CONTINUOUS
10
31.1631
20
-139.162
11
31.3536
21
-139.067
0
LINE
8
BLACK
6
CONTINUOUS
10
31.3536
20
-139.067
11
31.8298
21
-139.067
0
LINE
8
BLACK
6
CONTINUOUS
10
31.8298
20
-139.067
11
32.0202
21
-139.162
0
LINE
8
BLACK
6
CONTINUOUS
10
32.0202
20
-139.162
11
32.1155
21
-139.257
0
LINE
8
BLACK
6
CONTINUOUS
10
32.1155
20
-139.257
11
32.2107
21
-139.448
0
LINE
8
BLACK
6
CONTINUOUS
10
32.2107
20
-139.448
11
32.2107
21
-139.924
0
LINE
8
BLACK
6
CONTINUOUS
10
32.2107
20
-139.924
11
32.1155
21
-140.114
0
LINE
8
BLACK
6
CONTINUOUS
10
32.1155
20
-140.114
11
32.0202
21
-140.21
0
LINE
8
BLACK
6
CONTINUOUS
10
32.0202
20
-140.21
11
31.8298
21
-140.305
0
LINE
8
BLACK
6
CONTINUOUS
10
31.8298
20
-140.305
11
31.3536
21
-140.305
0
LINE
8
BLACK
6
CONTINUOUS
10
31.3536
20
-140.305
11
31.1631
21
-140.21
0
LINE
8
BLACK
6
CONTINUOUS
10
31.1631
20
-140.21
11
31.0679
21
-140.114
0
LINE
8
BLACK
6
CONTINUOUS
10
33.4488
20
-138.305
11
33.6393
21
-138.305
0
LINE
8
BLACK
6
CONTINUOUS
10
33.6393
20
-138.305
11
33.8298
21
-138.4
0
LINE
8
BLACK
6
CONTINUOUS
10
33.8298
20
-138.4
11
33.925
21
-138.495
0
LINE
8
BLACK
6
CONTINUOUS
10
33.925
20
-138.495
11
34.0202
21
-138.686
0
LINE
8
BLACK
6
CONTINUOUS
10
34.0202
20
-138.686
11
34.1155
21
-139.067
0
LINE
8
BLACK
6
CONTINUOUS
10
34.1155
20
-139.067
11
34.1155
21
-139.543
0
LINE
8
BLACK
6
CONTINUOUS
10
34.1155
20
-139.543
11
34.0202
21
-139.924
0
LINE
8
BLACK
6
CONTINUOUS
10
34.0202
20
-139.924
11
33.925
21
-140.114
0
LINE
8
BLACK
6
CONTINUOUS
10
33.925
20
-140.114
11
33.8298
21
-140.21
0
LINE
8
BLACK
6
CONTINUOUS
10
33.8298
20
-140.21
11
33.6393
21
-140.305
0
LINE
8
BLACK
6
CONTINUOUS
10
33.6393
20
-140.305
11
33.4488
21
-140.305
0
LINE
8
BLACK
6
CONTINUOUS
10
33.4488
20
-140.305
11
33.2583
21
-140.21
0
LINE
8
BLACK
6
CONTINUOUS
10
33.2583
20
-140.21
11
33.1631
21
-140.114
0
LINE
8
BLACK
6
CONTINUOUS
10
33.1631
20
-140.114
11
33.0679
21
-139.924
0
LINE
8
BLACK
6
CONTINUOUS
10
33.0679
20
-139.924
11
32.9726
21
-139.543
0
LINE
8
BLACK
6
CONTINUOUS
10
32.9726
20
-139.543
11
32.9726
21
-139.067
0
LINE
8
BLACK
6
CONTINUOUS
10
32.9726
20
-139.067
11
33.0679
21
-138.686
0
LINE
8
BLACK
6
CONTINUOUS
10
33.0679
20
-138.686
11
33.1631
21
-138.495
0
LINE
8
BLACK
6
CONTINUOUS
10
33.1631
20
-138.495
11
33.2583
21
-138.4
0
LINE
8
BLACK
6
CONTINUOUS
10
33.2583
20
-138.4
11
33.4488
21
-138.305
0
LINE
8
BLACK
6
CONTINUOUS
10
34.9726
20
-140.305
11
34.9726
21
-138.971
0
LINE
8
BLACK
6
CONTINUOUS
10
34.9726
20
-139.162
11
35.0679
21
-139.067
0
LINE
8
BLACK
6
CONTINUOUS
10
35.0679
20
-139.067
11
35.2583
21
-138.971
0
LINE
8
BLACK
6
CONTINUOUS
10
35.2583
20
-138.971
11
35.544
21
-138.971
0
LINE
8
BLACK
6
CONTINUOUS
10
35.544
20
-138.971
11
35.7345
21
-139.067
0
LINE
8
BLACK
6
CONTINUOUS
10
35.7345
20
-139.067
11
35.8298
21
-139.257
0
LINE
8
BLACK
6
CONTINUOUS
10
35.8298
20
-139.257
11
35.8298
21
-140.305
0
LINE
8
BLACK
6
CONTINUOUS
10
35.8298
20
-139.257
11
35.925
21
-139.067
0
LINE
8
BLACK
6
CONTINUOUS
10
35.925
20
-139.067
11
36.1155
21
-138.971
0
LINE
8
BLACK
6
CONTINUOUS
10
36.1155
20
-138.971
11
36.4012
21
-138.971
0
LINE
8
BLACK
6
CONTINUOUS
10
36.4012
20
-138.971
11
36.5917
21
-139.067
0
LINE
8
BLACK
6
CONTINUOUS
10
36.5917
20
-139.067
11
36.6869
21
-139.257
0
LINE
8
BLACK
6
CONTINUOUS
10
36.6869
20
-139.257
11
36.6869
21
-140.305
0
LINE
8
BLACK
6
CONTINUOUS
10
37.6393
20
-140.305
11
37.6393
21
-138.971
0
LINE
8
BLACK
6
CONTINUOUS
10
37.6393
20
-139.162
11
37.7345
21
-139.067
0
LINE
8
BLACK
6
CONTINUOUS
10
37.7345
20
-139.067
11
37.925
21
-138.971
0
LINE
8
BLACK
6
CONTINUOUS
10
37.925
20
-138.971
11
38.2107
21
-138.971
0
LINE
8
BLACK
6
CONTINUOUS
10
38.2107
20
-138.971
11
38.4012
21
-139.067
0
LINE
8
BLACK
6
CONTINUOUS
10
38.4012
20
-139.067
11
38.4964
21
-139.257
0
LINE
8
BLACK
6
CONTINUOUS
10
38.4964
20
-139.257
11
38.4964
21
-140.305
0
LINE
8
BLACK
6
CONTINUOUS
10
38.4964
20
-139.257
11
38.5917
21
-139.067
0
LINE
8
BLACK
6
CONTINUOUS
10
38.5917
20
-139.067
11
38.7821
21
-138.971
0
LINE
8
BLACK
6
CONTINUOUS
10
38.7821
20
-138.971
11
39.0679
21
-138.971
0
LINE
8
BLACK
6
CONTINUOUS
10
39.0679
20
-138.971
11
39.2583
21
-139.067
0
LINE
8
BLACK
6
CONTINUOUS
10
39.2583
20
-139.067
11
39.3536
21
-139.257
0
LINE
8
BLACK
6
CONTINUOUS
10
39.3536
20
-139.257
11
39.3536
21
-140.305
0
LINE
8
BLACK
6
CONTINUOUS
10
43.2583
20
-138.21
11
41.544
21
-140.781
0
LINE
8
BLACK
6
CONTINUOUS
10
45.8298
20
-138.305
11
46.0202
21
-138.305
0
LINE
8
BLACK
6
CONTINUOUS
10
46.0202
20
-138.305
11
46.2107
21
-138.4
0
LINE
8
BLACK
6
CONTINUOUS
10
46.2107
20
-138.4
11
46.306
21
-138.495
0
LINE
8
BLACK
6
CONTINUOUS
10
46.306
20
-138.495
11
46.4012
21
-138.686
0
LINE
8
BLACK
6
CONTINUOUS
10
46.4012
20
-138.686
11
46.4964
21
-139.067
0
LINE
8
BLACK
6
CONTINUOUS
10
46.4964
20
-139.067
11
46.4964
21
-139.543
0
LINE
8
BLACK
6
CONTINUOUS
10
46.4964
20
-139.543
11
46.4012
21
-139.924
0
LINE
8
BLACK
6
CONTINUOUS
10
46.4012
20
-139.924
11
46.306
21
-140.114
0
LINE
8
BLACK
6
CONTINUOUS
10
46.306
20
-140.114
11
46.2107
21
-140.21
0
LINE
8
BLACK
6
CONTINUOUS
10
46.2107
20
-140.21
11
46.0202
21
-140.305
0
LINE
8
BLACK
6
CONTINUOUS
10
46.0202
20
-140.305
11
45.8298
21
-140.305
0
LINE
8
BLACK
6
CONTINUOUS
10
45.8298
20
-140.305
11
45.6393
21
-140.21
0
LINE
8
BLACK
6
CONTINUOUS
10
45.6393
20
-140.21
11
45.544
21
-140.114
0
LINE
8
BLACK
6
CONTINUOUS
10
45.544
20
-140.114
11
45.4488
21
-139.924
0
LINE
8
BLACK
6
CONTINUOUS
10
45.4488
20
-139.924
11
45.3536
21
-139.543
0
LINE
8
BLACK
6
CONTINUOUS
10
45.3536
20
-139.543
11
45.3536
21
-139.067
0
LINE
8
BLACK
6
CONTINUOUS
10
45.3536
20
-139.067
11
45.4488
21
-138.686
0
LINE
8
BLACK
6
CONTINUOUS
10
45.4488
20
-138.686
11
45.544
21
-138.495
0
LINE
8
BLACK
6
CONTINUOUS
10
45.544
20
-138.495
11
45.6393
21
-138.4
0
LINE
8
BLACK
6
CONTINUOUS
10
45.6393
20
-138.4
11
45.8298
21
-138.305
0
LINE
8
BLACK
6
CONTINUOUS
10
47.3536
20
-140.114
11
47.4488
21
-140.21
0
LINE
8
BLACK
6
CONTINUOUS
10
47.4488
20
-140.21
11
47.3536
21
-140.305
0
LINE
8
BLACK
6
CONTINUOUS
10
47.3536
20
-140.305
11
47.2583
21
-140.21
0
LINE
8
BLACK
6
CONTINUOUS
10
47.2583
20
-140.21
11
47.3536
21
-140.114
0
LINE
8
BLACK
6
CONTINUOUS
10
47.3536
20
-140.114
11
47.3536
21
-140.305
0
LINE
8
BLACK
6
CONTINUOUS
10
49.3536
20
-140.305
11
48.2107
21
-140.305
0
LINE
8
BLACK
6
CONTINUOUS
10
48.7821
20
-140.305
11
48.7821
21
-138.305
0
LINE
8
BLACK
6
CONTINUOUS
10
48.7821
20
-138.305
11
48.5917
21
-138.59
0
LINE
8
BLACK
6
CONTINUOUS
10
48.5917
20
-138.59
11
48.4012
21
-138.781
0
LINE
8
BLACK
6
CONTINUOUS
10
48.4012
20
-138.781
11
48.2107
21
-138.876
0
LINE
8
BLACK
6
CONTINUOUS
10
50.1155
20
-138.495
11
50.2107
21
-138.4
0
LINE
8
BLACK
6
CONTINUOUS
10
50.2107
20
-138.4
11
50.4012
21
-138.305
0
LINE
8
BLACK
6
CONTINUOUS
10
50.4012
20
-138.305
11
50.8774
21
-138.305
0
LINE
8
BLACK
6
CONTINUOUS
10
50.8774
20
-138.305
11
51.0679
21
-138.4
0
LINE
8
BLACK
6
CONTINUOUS
10
51.0679
20
-138.4
11
51.1631
21
-138.495
0
LINE
8
BLACK
6
CONTINUOUS
10
51.1631
20
-138.495
11
51.2583
21
-138.686
0
LINE
8
BLACK
6
CONTINUOUS
10
51.2583
20
-138.686
11
51.2583
21
-138.876
0
LINE
8
BLACK
6
CONTINUOUS
10
51.2583
20
-138.876
11
51.1631
21
-139.162
0
LINE
8
BLACK
6
CONTINUOUS
10
51.1631
20
-139.162
11
50.0202
21
-140.305
0
LINE
8
BLACK
6
CONTINUOUS
10
50.0202
20
-140.305
11
51.2583
21
-140.305
0
LINE
8
BLACK
6
CONTINUOUS
10
52.4964
20
-138.305
11
52.6869
21
-138.305
0
LINE
8
BLACK
6
CONTINUOUS
10
52.6869
20
-138.305
11
52.8774
21
-138.4
0
LINE
8
BLACK
6
CONTINUOUS
10
52.8774
20
-138.4
11
52.9726
21
-138.495
0
LINE
8
BLACK
6
CONTINUOUS
10
52.9726
20
-138.495
11
53.0679
21
-138.686
0
LINE
8
BLACK
6
CONTINUOUS
10
53.0679
20
-138.686
11
53.1631
21
-139.067
0
LINE
8
BLACK
6
CONTINUOUS
10
53.1631
20
-139.067
11
53.1631
21
-139.543
0
LINE
8
BLACK
6
CONTINUOUS
10
53.1631
20
-139.543
11
53.0679
21
-139.924
0
LINE
8
BLACK
6
CONTINUOUS
10
53.0679
20
-139.924
11
52.9726
21
-140.114
0
LINE
8
BLACK
6
CONTINUOUS
10
52.9726
20
-140.114
11
52.8774
21
-140.21
0
LINE
8
BLACK
6
CONTINUOUS
10
52.8774
20
-140.21
11
52.6869
21
-140.305
0
LINE
8
BLACK
6
CONTINUOUS
10
52.6869
20
-140.305
11
52.4964
21
-140.305
0
LINE
8
BLACK
6
CONTINUOUS
10
52.4964
20
-140.305
11
52.306
21
-140.21
0
LINE
8
BLACK
6
CONTINUOUS
10
52.306
20
-140.21
11
52.2107
21
-140.114
0
LINE
8
BLACK
6
CONTINUOUS
10
52.2107
20
-140.114
11
52.1155
21
-139.924
0
LINE
8
BLACK
6
CONTINUOUS
10
52.1155
20
-139.924
11
52.0202
21
-139.543
0
LINE
8
BLACK
6
CONTINUOUS
10
52.0202
20
-139.543
11
52.0202
21
-139.067
0
LINE
8
BLACK
6
CONTINUOUS
10
52.0202
20
-139.067
11
52.1155
21
-138.686
0
LINE
8
BLACK
6
CONTINUOUS
10
52.1155
20
-138.686
11
52.2107
21
-138.495
0
LINE
8
BLACK
6
CONTINUOUS
10
52.2107
20
-138.495
11
52.306
21
-138.4
0
LINE
8
BLACK
6
CONTINUOUS
10
52.306
20
-138.4
11
52.4964
21
-138.305
0
LINE
8
BLACK
6
CONTINUOUS
10
55.0679
20
-140.305
11
53.925
21
-140.305
0
LINE
8
BLACK
6
CONTINUOUS
10
54.4964
20
-140.305
11
54.4964
21
-138.305
0
LINE
8
BLACK
6
CONTINUOUS
10
54.4964
20
-138.305
11
54.306
21
-138.59
0
LINE
8
BLACK
6
CONTINUOUS
10
54.306
20
-138.59
11
54.1155
21
-138.781
0
LINE
8
BLACK
6
CONTINUOUS
10
54.1155
20
-138.781
11
53.925
21
-138.876
0
LINE
8
BLACK
6
CONTINUOUS
10
55.8298
20
-138.305
11
55.8298
21
-138.686
0
LINE
8
BLACK
6
CONTINUOUS
10
56.5917
20
-138.305
11
56.5917
21
-138.686
0
LINE
8
BLACK
6
CONTINUOUS
10
59.544
20
-141.067
11
59.4488
21
-140.971
0
LINE
8
BLACK
6
CONTINUOUS
10
59.4488
20
-140.971
11
59.2583
21
-140.686
0
LINE
8
BLACK
6
CONTINUOUS
10
59.2583
20
-140.686
11
59.1631
21
-140.495
0
LINE
8
BLACK
6
CONTINUOUS
10
59.1631
20
-140.495
11
59.0679
21
-140.21
0
LINE
8
BLACK
6
CONTINUOUS
10
59.0679
20
-140.21
11
58.9726
21
-139.733
0
LINE
8
BLACK
6
CONTINUOUS
10
58.9726
20
-139.733
11
58.9726
21
-139.352
0
LINE
8
BLACK
6
CONTINUOUS
10
58.9726
20
-139.352
11
59.0679
21
-138.876
0
LINE
8
BLACK
6
CONTINUOUS
10
59.0679
20
-138.876
11
59.1631
21
-138.59
0
LINE
8
BLACK
6
CONTINUOUS
10
59.1631
20
-138.59
11
59.2583
21
-138.4
0
LINE
8
BLACK
6
CONTINUOUS
10
59.2583
20
-138.4
11
59.4488
21
-138.114
0
LINE
8
BLACK
6
CONTINUOUS
10
59.4488
20
-138.114
11
59.544
21
-138.019
0
LINE
8
BLACK
6
CONTINUOUS
10
61.3536
20
-140.305
11
60.2107
21
-140.305
0
LINE
8
BLACK
6
CONTINUOUS
10
60.7821
20
-140.305
11
60.7821
21
-138.305
0
LINE
8
BLACK
6
CONTINUOUS
10
60.7821
20
-138.305
11
60.5917
21
-138.59
0
LINE
8
BLACK
6
CONTINUOUS
10
60.5917
20
-138.59
11
60.4012
21
-138.781
0
LINE
8
BLACK
6
CONTINUOUS
10
60.4012
20
-138.781
11
60.2107
21
-138.876
0
LINE
8
BLACK
6
CONTINUOUS
10
62.5917
20
-138.305
11
62.7821
21
-138.305
0
LINE
8
BLACK
6
CONTINUOUS
10
62.7821
20
-138.305
11
62.9726
21
-138.4
0
LINE
8
BLACK
6
CONTINUOUS
10
62.9726
20
-138.4
11
63.0679
21
-138.495
0
LINE
8
BLACK
6
CONTINUOUS
10
63.0679
20
-138.495
11
63.1631
21
-138.686
0
LINE
8
BLACK
6
CONTINUOUS
10
63.1631
20
-138.686
11
63.2583
21
-139.067
0
LINE
8
BLACK
6
CONTINUOUS
10
63.2583
20
-139.067
11
63.2583
21
-139.543
0
LINE
8
BLACK
6
CONTINUOUS
10
63.2583
20
-139.543
11
63.1631
21
-139.924
0
LINE
8
BLACK
6
CONTINUOUS
10
63.1631
20
-139.924
11
63.0679
21
-140.114
0
LINE
8
BLACK
6
CONTINUOUS
10
63.0679
20
-140.114
11
62.9726
21
-140.21
0
LINE
8
BLACK
6
CONTINUOUS
10
62.9726
20
-140.21
11
62.7821
21
-140.305
0
LINE
8
BLACK
6
CONTINUOUS
10
62.7821
20
-140.305
11
62.5917
21
-140.305
0
LINE
8
BLACK
6
CONTINUOUS
10
62.5917
20
-140.305
11
62.4012
21
-140.21
0
LINE
8
BLACK
6
CONTINUOUS
10
62.4012
20
-140.21
11
62.306
21
-140.114
0
LINE
8
BLACK
6
CONTINUOUS
10
62.306
20
-140.114
11
62.2107
21
-139.924
0
LINE
8
BLACK
6
CONTINUOUS
10
62.2107
20
-139.924
11
62.1155
21
-139.543
0
LINE
8
BLACK
6
CONTINUOUS
10
62.1155
20
-139.543
11
62.1155
21
-139.067
0
LINE
8
BLACK
6
CONTINUOUS
10
62.1155
20
-139.067
11
62.2107
21
-138.686
0
LINE
8
BLACK
6
CONTINUOUS
10
62.2107
20
-138.686
11
62.306
21
-138.495
0
LINE
8
BLACK
6
CONTINUOUS
10
62.306
20
-138.495
11
62.4012
21
-138.4
0
LINE
8
BLACK
6
CONTINUOUS
10
62.4012
20
-138.4
11
62.5917
21
-138.305
0
LINE
8
BLACK
6
CONTINUOUS
10
65.6393
20
-140.305
11
65.6393
21
-138.305
0
LINE
8
BLACK
6
CONTINUOUS
10
66.4964
20
-140.305
11
66.4964
21
-139.257
0
LINE
8
BLACK
6
CONTINUOUS
10
66.4964
20
-139.257
11
66.4012
21
-139.067
0
LINE
8
BLACK
6
CONTINUOUS
10
66.4012
20
-139.067
11
66.2107
21
-138.971
0
LINE
8
BLACK
6
CONTINUOUS
10
66.2107
20
-138.971
11
65.925
21
-138.971
0
LINE
8
BLACK
6
CONTINUOUS
10
65.925
20
-138.971
11
65.7345
21
-139.067
0
LINE
8
BLACK
6
CONTINUOUS
10
65.7345
20
-139.067
11
65.6393
21
-139.162
0
LINE
8
BLACK
6
CONTINUOUS
10
67.7345
20
-140.305
11
67.544
21
-140.21
0
LINE
8
BLACK
6
CONTINUOUS
10
67.544
20
-140.21
11
67.4488
21
-140.114
0
LINE
8
BLACK
6
CONTINUOUS
10
67.4488
20
-140.114
11
67.3536
21
-139.924
0
LINE
8
BLACK
6
CONTINUOUS
10
67.3536
20
-139.924
11
67.3536
21
-139.352
0
LINE
8
BLACK
6
CONTINUOUS
10
67.3536
20
-139.352
11
67.4488
21
-139.162
0
LINE
8
BLACK
6
CONTINUOUS
10
67.4488
20
-139.162
11
67.544
21
-139.067
0
LINE
8
BLACK
6
CONTINUOUS
10
67.544
20
-139.067
11
67.7345
21
-138.971
0
LINE
8
BLACK
6
CONTINUOUS
10
67.7345
20
-138.971
11
68.0202
21
-138.971
0
LINE
8
BLACK
6
CONTINUOUS
10
68.0202
20
-138.971
11
68.2107
21
-139.067
0
LINE
8
BLACK
6
CONTINUOUS
10
68.2107
20
-139.067
11
68.306
21
-139.162
0
LINE
8
BLACK
6
CONTINUOUS
10
68.306
20
-139.162
11
68.4012
21
-139.352
0
LINE
8
BLACK
6
CONTINUOUS
10
68.4012
20
-139.352
11
68.4012
21
-139.924
0
LINE
8
BLACK
6
CONTINUOUS
10
68.4012
20
-139.924
11
68.306
21
-140.114
0
LINE
8
BLACK
6
CONTINUOUS
10
68.306
20
-140.114
11
68.2107
21
-140.21
0
LINE
8
BLACK
6
CONTINUOUS
10
68.2107
20
-140.21
11
68.0202
21
-140.305
0
LINE
8
BLACK
6
CONTINUOUS
10
68.0202
20
-140.305
11
67.7345
21
-140.305
0
LINE
8
BLACK
6
CONTINUOUS
10
69.544
20
-140.305
11
69.3536
21
-140.21
0
LINE
8
BLACK
6
CONTINUOUS
10
69.3536
20
-140.21
11
69.2583
21
-140.019
0
LINE
8
BLACK
6
CONTINUOUS
10
69.2583
20
-140.019
11
69.2583
21
-138.305
0
LINE
8
BLACK
6
CONTINUOUS
10
71.0679
20
-140.21
11
70.8774
21
-140.305
0
LINE
8
BLACK
6
CONTINUOUS
10
70.8774
20
-140.305
11
70.4964
21
-140.305
0
LINE
8
BLACK
6
CONTINUOUS
10
70.4964
20
-140.305
11
70.306
21
-140.21
0
LINE
8
BLACK
6
CONTINUOUS
10
70.306
20
-140.21
11
70.2107
21
-140.019
0
LINE
8
BLACK
6
CONTINUOUS
10
70.2107
20
-140.019
11
70.2107
21
-139.257
0
LINE
8
BLACK
6
CONTINUOUS
10
70.2107
20
-139.257
11
70.306
21
-139.067
0
LINE
8
BLACK
6
CONTINUOUS
10
70.306
20
-139.067
11
70.4964
21
-138.971
0
LINE
8
BLACK
6
CONTINUOUS
10
70.4964
20
-138.971
11
70.8774
21
-138.971
0
LINE
8
BLACK
6
CONTINUOUS
10
70.8774
20
-138.971
11
71.0679
21
-139.067
0
LINE
8
BLACK
6
CONTINUOUS
10
71.0679
20
-139.067
11
71.1631
21
-139.257
0
LINE
8
BLACK
6
CONTINUOUS
10
71.1631
20
-139.257
11
71.1631
21
-139.448
0
LINE
8
BLACK
6
CONTINUOUS
10
71.1631
20
-139.448
11
70.2107
21
-139.638
0
LINE
8
BLACK
6
CONTINUOUS
10
71.925
20
-140.21
11
72.1155
21
-140.305
0
LINE
8
BLACK
6
CONTINUOUS
10
72.1155
20
-140.305
11
72.4964
21
-140.305
0
LINE
8
BLACK
6
CONTINUOUS
10
72.4964
20
-140.305
11
72.6869
21
-140.21
0
LINE
8
BLACK
6
CONTINUOUS
10
72.6869
20
-140.21
11
72.7821
21
-140.019
0
LINE
8
BLACK
6
CONTINUOUS
10
72.7821
20
-140.019
11
72.7821
21
-139.924
0
LINE
8
BLACK
6
CONTINUOUS
10
72.7821
20
-139.924
11
72.6869
21
-139.733
0
LINE
8
BLACK
6
CONTINUOUS
10
72.6869
20
-139.733
11
72.4964
21
-139.638
0
LINE
8
BLACK
6
CONTINUOUS
10
72.4964
20
-139.638
11
72.2107
21
-139.638
0
LINE
8
BLACK
6
CONTINUOUS
10
72.2107
20
-139.638
11
72.0202
21
-139.543
0
LINE
8
BLACK
6
CONTINUOUS
10
72.0202
20
-139.543
11
71.925
21
-139.352
0
LINE
8
BLACK
6
CONTINUOUS
10
71.925
20
-139.352
11
71.925
21
-139.257
0
LINE
8
BLACK
6
CONTINUOUS
10
71.925
20
-139.257
11
72.0202
21
-139.067
0
LINE
8
BLACK
6
CONTINUOUS
10
72.0202
20
-139.067
11
72.2107
21
-138.971
0
LINE
8
BLACK
6
CONTINUOUS
10
72.2107
20
-138.971
11
72.4964
21
-138.971
0
LINE
8
BLACK
6
CONTINUOUS
10
72.4964
20
-138.971
11
72.6869
21
-139.067
0
LINE
8
BLACK
6
CONTINUOUS
10
73.4488
20
-141.067
11
73.544
21
-140.971
0
LINE
8
BLACK
6
CONTINUOUS
10
73.544
20
-140.971
11
73.7345
21
-140.686
0
LINE
8
BLACK
6
CONTINUOUS
10
73.7345
20
-140.686
11
73.8298
21
-140.495
0
LINE
8
BLACK
6
CONTINUOUS
10
73.8298
20
-140.495
11
73.925
21
-140.21
0
LINE
8
BLACK
6
CONTINUOUS
10
73.925
20
-140.21
11
74.0202
21
-139.733
0
LINE
8
BLACK
6
CONTINUOUS
10
74.0202
20
-139.733
11
74.0202
21
-139.352
0
LINE
8
BLACK
6
CONTINUOUS
10
74.0202
20
-139.352
11
73.925
21
-138.876
0
LINE
8
BLACK
6
CONTINUOUS
10
73.925
20
-138.876
11
73.8298
21
-138.59
0
LINE
8
BLACK
6
CONTINUOUS
10
73.8298
20
-138.59
11
73.7345
21
-138.4
0
LINE
8
BLACK
6
CONTINUOUS
10
73.7345
20
-138.4
11
73.544
21
-138.114
0
LINE
8
BLACK
6
CONTINUOUS
10
73.544
20
-138.114
11
73.4488
21
-138.019
0
LINE
8
BLACK
6
CONTINUOUS
10
77.0679
20
-141.067
11
76.9726
21
-140.971
0
LINE
8
BLACK
6
CONTINUOUS
10
76.9726
20
-140.971
11
76.7821
21
-140.686
0
LINE
8
BLACK
6
CONTINUOUS
10
76.7821
20
-140.686
11
76.6869
21
-140.495
0
LINE
8
BLACK
6
CONTINUOUS
10
76.6869
20
-140.495
11
76.5917
21
-140.21
0
LINE
8
BLACK
6
CONTINUOUS
10
76.5917
20
-140.21
11
76.4964
21
-139.733
0
LINE
8
BLACK
6
CONTINUOUS
10
76.4964
20
-139.733
11
76.4964
21
-139.352
0
LINE
8
BLACK
6
CONTINUOUS
10
76.4964
20
-139.352
11
76.5917
21
-138.876
0
LINE
8
BLACK
6
CONTINUOUS
10
76.5917
20
-138.876
11
76.6869
21
-138.59
0
LINE
8
BLACK
6
CONTINUOUS
10
76.6869
20
-138.59
11
76.7821
21
-138.4
0
LINE
8
BLACK
6
CONTINUOUS
10
76.7821
20
-138.4
11
76.9726
21
-138.114
0
LINE
8
BLACK
6
CONTINUOUS
10
76.9726
20
-138.114
11
77.0679
21
-138.019
0
LINE
8
BLACK
6
CONTINUOUS
10
77.8298
20
-138.971
11
77.8298
21
-140.305
0
LINE
8
BLACK
6
CONTINUOUS
10
77.8298
20
-139.162
11
77.925
21
-139.067
0
LINE
8
BLACK
6
CONTINUOUS
10
77.925
20
-139.067
11
78.1155
21
-138.971
0
LINE
8
BLACK
6
CONTINUOUS
10
78.1155
20
-138.971
11
78.4012
21
-138.971
0
LINE
8
BLACK
6
CONTINUOUS
10
78.4012
20
-138.971
11
78.5917
21
-139.067
0
LINE
8
BLACK
6
CONTINUOUS
10
78.5917
20
-139.067
11
78.6869
21
-139.257
0
LINE
8
BLACK
6
CONTINUOUS
10
78.6869
20
-139.257
11
78.6869
21
-140.305
0
LINE
8
BLACK
6
CONTINUOUS
10
79.925
20
-140.305
11
79.7345
21
-140.21
0
LINE
8
BLACK
6
CONTINUOUS
10
79.7345
20
-140.21
11
79.6393
21
-140.114
0
LINE
8
BLACK
6
CONTINUOUS
10
79.6393
20
-140.114
11
79.544
21
-139.924
0
LINE
8
BLACK
6
CONTINUOUS
10
79.544
20
-139.924
11
79.544
21
-139.352
0
LINE
8
BLACK
6
CONTINUOUS
10
79.544
20
-139.352
11
79.6393
21
-139.162
0
LINE
8
BLACK
6
CONTINUOUS
10
79.6393
20
-139.162
11
79.7345
21
-139.067
0
LINE
8
BLACK
6
CONTINUOUS
10
79.7345
20
-139.067
11
79.925
21
-138.971
0
LINE
8
BLACK
6
CONTINUOUS
10
79.925
20
-138.971
11
80.2107
21
-138.971
0
LINE
8
BLACK
6
CONTINUOUS
10
80.2107
20
-138.971
11
80.4012
21
-139.067
0
LINE
8
BLACK
6
CONTINUOUS
10
80.4012
20
-139.067
11
80.4964
21
-139.162
0
LINE
8
BLACK
6
CONTINUOUS
10
80.4964
20
-139.162
11
80.5917
21
-139.352
0
LINE
8
BLACK
6
CONTINUOUS
10
80.5917
20
-139.352
11
80.5917
21
-139.924
0
LINE
8
BLACK
6
CONTINUOUS
10
80.5917
20
-139.924
11
80.4964
21
-140.114
0
LINE
8
BLACK
6
CONTINUOUS
10
80.4964
20
-140.114
11
80.4012
21
-140.21
0
LINE
8
BLACK
6
CONTINUOUS
10
80.4012
20
-140.21
11
80.2107
21
-140.305
0
LINE
8
BLACK
6
CONTINUOUS
10
80.2107
20
-140.305
11
79.925
21
-140.305
0
LINE
8
BLACK
6
CONTINUOUS
10
81.1631
20
-138.971
11
81.925
21
-138.971
0
LINE
8
BLACK
6
CONTINUOUS
10
81.4488
20
-138.305
11
81.4488
21
-140.019
0
LINE
8
BLACK
6
CONTINUOUS
10
81.4488
20
-140.019
11
81.544
21
-140.21
0
LINE
8
BLACK
6
CONTINUOUS
10
81.544
20
-140.21
11
81.7345
21
-140.305
0
LINE
8
BLACK
6
CONTINUOUS
10
81.7345
20
-140.305
11
81.925
21
-140.305
0
LINE
8
BLACK
6
CONTINUOUS
10
84.1155
20
-138.971
11
84.1155
21
-140.971
0
LINE
8
BLACK
6
CONTINUOUS
10
84.1155
20
-139.067
11
84.306
21
-138.971
0
LINE
8
BLACK
6
CONTINUOUS
10
84.306
20
-138.971
11
84.6869
21
-138.971
0
LINE
8
BLACK
6
CONTINUOUS
10
84.6869
20
-138.971
11
84.8774
21
-139.067
0
LINE
8
BLACK
6
CONTINUOUS
10
84.8774
20
-139.067
11
84.9726
21
-139.162
0
LINE
8
BLACK
6
CONTINUOUS
10
84.9726
20
-139.162
11
85.0679
21
-139.352
0
LINE
8
BLACK
6
CONTINUOUS
10
85.0679
20
-139.352
11
85.0679
21
-139.924
0
LINE
8
BLACK
6
CONTINUOUS
10
85.0679
20
-139.924
11
84.9726
21
-140.114
0
LINE
8
BLACK
6
CONTINUOUS
10
84.9726
20
-140.114
11
84.8774
21
-140.21
0
LINE
8
BLACK
6
CONTINUOUS
10
84.8774
20
-140.21
11
84.6869
21
-140.305
0
LINE
8
BLACK
6
CONTINUOUS
10
84.6869
20
-140.305
11
84.306
21
-140.305
0
LINE
8
BLACK
6
CONTINUOUS
10
84.306
20
-140.305
11
84.1155
21
-140.21
0
LINE
8
BLACK
6
CONTINUOUS
10
86.2107
20
-140.305
11
86.0202
21
-140.21
0
LINE
8
BLACK
6
CONTINUOUS
10
86.0202
20
-140.21
11
85.925
21
-140.019
0
LINE
8
BLACK
6
CONTINUOUS
10
85.925
20
-140.019
11
85.925
21
-138.305
0
LINE
8
BLACK
6
CONTINUOUS
10
87.8298
20
-140.305
11
87.8298
21
-139.257
0
LINE
8
BLACK
6
CONTINUOUS
10
87.8298
20
-139.257
11
87.7345
21
-139.067
0
LINE
8
BLACK
6
CONTINUOUS
10
87.7345
20
-139.067
11
87.544
21
-138.971
0
LINE
8
BLACK
6
CONTINUOUS
10
87.544
20
-138.971
11
87.1631
21
-138.971
0
LINE
8
BLACK
6
CONTINUOUS
10
87.1631
20
-138.971
11
86.9726
21
-139.067
0
LINE
8
BLACK
6
CONTINUOUS
10
87.8298
20
-140.21
11
87.6393
21
-140.305
0
LINE
8
BLACK
6
CONTINUOUS
10
87.6393
20
-140.305
11
87.1631
21
-140.305
0
LINE
8
BLACK
6
CONTINUOUS
10
87.1631
20
-140.305
11
86.9726
21
-140.21
0
LINE
8
BLACK
6
CONTINUOUS
10
86.9726
20
-140.21
11
86.8774
21
-140.019
0
LINE
8
BLACK
6
CONTINUOUS
10
86.8774
20
-140.019
11
86.8774
21
-139.829
0
LINE
8
BLACK
6
CONTINUOUS
10
86.8774
20
-139.829
11
86.9726
21
-139.638
0
LINE
8
BLACK
6
CONTINUOUS
10
86.9726
20
-139.638
11
87.1631
21
-139.543
0
LINE
8
BLACK
6
CONTINUOUS
10
87.1631
20
-139.543
11
87.6393
21
-139.543
0
LINE
8
BLACK
6
CONTINUOUS
10
87.6393
20
-139.543
11
87.8298
21
-139.448
0
LINE
8
BLACK
6
CONTINUOUS
10
88.4964
20
-138.971
11
89.2583
21
-138.971
0
LINE
8
BLACK
6
CONTINUOUS
10
88.7821
20
-138.305
11
88.7821
21
-140.019
0
LINE
8
BLACK
6
CONTINUOUS
10
88.7821
20
-140.019
11
88.8774
21
-140.21
0
LINE
8
BLACK
6
CONTINUOUS
10
88.8774
20
-140.21
11
89.0679
21
-140.305
0
LINE
8
BLACK
6
CONTINUOUS
10
89.0679
20
-140.305
11
89.2583
21
-140.305
0
LINE
8
BLACK
6
CONTINUOUS
10
90.6869
20
-140.21
11
90.4964
21
-140.305
0
LINE
8
BLACK
6
CONTINUOUS
10
90.4964
20
-140.305
11
90.1155
21
-140.305
0
LINE
8
BLACK
6
CONTINUOUS
10
90.1155
20
-140.305
11
89.925
21
-140.21
0
LINE
8
BLACK
6
CONTINUOUS
10
89.925
20
-140.21
11
89.8298
21
-140.019
0
LINE
8
BLACK
6
CONTINUOUS
10
89.8298
20
-140.019
11
89.8298
21
-139.257
0
LINE
8
BLACK
6
CONTINUOUS
10
89.8298
20
-139.257
11
89.925
21
-139.067
0
LINE
8
BLACK
6
CONTINUOUS
10
89.925
20
-139.067
11
90.1155
21
-138.971
0
LINE
8
BLACK
6
CONTINUOUS
10
90.1155
20
-138.971
11
90.4964
21
-138.971
0
LINE
8
BLACK
6
CONTINUOUS
10
90.4964
20
-138.971
11
90.6869
21
-139.067
0
LINE
8
BLACK
6
CONTINUOUS
10
90.6869
20
-139.067
11
90.7821
21
-139.257
0
LINE
8
BLACK
6
CONTINUOUS
10
90.7821
20
-139.257
11
90.7821
21
-139.448
0
LINE
8
BLACK
6
CONTINUOUS
10
90.7821
20
-139.448
11
89.8298
21
-139.638
0
LINE
8
BLACK
6
CONTINUOUS
10
92.4964
20
-140.305
11
92.4964
21
-138.305
0
LINE
8
BLACK
6
CONTINUOUS
10
92.4964
20
-140.21
11
92.306
21
-140.305
0
LINE
8
BLACK
6
CONTINUOUS
10
92.306
20
-140.305
11
91.925
21
-140.305
0
LINE
8
BLACK
6
CONTINUOUS
10
91.925
20
-140.305
11
91.7345
21
-140.21
0
LINE
8
BLACK
6
CONTINUOUS
10
91.7345
20
-140.21
11
91.6393
21
-140.114
0
LINE
8
BLACK
6
CONTINUOUS
10
91.6393
20
-140.114
11
91.544
21
-139.924
0
LINE
8
BLACK
6
CONTINUOUS
10
91.544
20
-139.924
11
91.544
21
-139.352
0
LINE
8
BLACK
6
CONTINUOUS
10
91.544
20
-139.352
11
91.6393
21
-139.162
0
LINE
8
BLACK
6
CONTINUOUS
10
91.6393
20
-139.162
11
91.7345
21
-139.067
0
LINE
8
BLACK
6
CONTINUOUS
10
91.7345
20
-139.067
11
91.925
21
-138.971
0
LINE
8
BLACK
6
CONTINUOUS
10
91.925
20
-138.971
11
92.306
21
-138.971
0
LINE
8
BLACK
6
CONTINUOUS
10
92.306
20
-138.971
11
92.4964
21
-139.067
0
LINE
8
BLACK
6
CONTINUOUS
10
93.2583
20
-141.067
11
93.3536
21
-140.971
0
LINE
8
BLACK
6
CONTINUOUS
10
93.3536
20
-140.971
11
93.544
21
-140.686
0
LINE
8
BLACK
6
CONTINUOUS
10
93.544
20
-140.686
11
93.6393
21
-140.495
0
LINE
8
BLACK
6
CONTINUOUS
10
93.6393
20
-140.495
11
93.7345
21
-140.21
0
LINE
8
BLACK
6
CONTINUOUS
10
93.7345
20
-140.21
11
93.8298
21
-139.733
0
LINE
8
BLACK
6
CONTINUOUS
10
93.8298
20
-139.733
11
93.8298
21
-139.352
0
LINE
8
BLACK
6
CONTINUOUS
10
93.8298
20
-139.352
11
93.7345
21
-138.876
0
LINE
8
BLACK
6
CONTINUOUS
10
93.7345
20
-138.876
11
93.6393
21
-138.59
0
LINE
8
BLACK
6
CONTINUOUS
10
93.6393
20
-138.59
11
93.544
21
-138.4
0
LINE
8
BLACK
6
CONTINUOUS
10
93.544
20
-138.4
11
93.3536
21
-138.114
0
LINE
8
BLACK
6
CONTINUOUS
10
93.3536
20
-138.114
11
93.2583
21
-138.019
0
LINE
8
BLACK
6
CONTINUOUS
10
22.825
20
-143.6
11
23.825
21
-142.6
0
LINE
8
BLACK
6
CONTINUOUS
10
23.825
20
-142.6
11
22.825
21
-141.6
0
LINE
8
BLACK
6
CONTINUOUS
10
22.825
20
-141.6
11
21.825
21
-142.6
0
LINE
8
BLACK
6
CONTINUOUS
10
21.825
20
-142.6
11
22.825
21
-143.6
0
LINE
8
BLACK
6
CONTINUOUS
10
27.2583
20
-142.171
11
27.2583
21
-143.505
0
LINE
8
BLACK
6
CONTINUOUS
10
26.7821
20
-141.41
11
26.306
21
-142.838
0
LINE
8
BLACK
6
CONTINUOUS
10
26.306
20
-142.838
11
27.544
21
-142.838
0
LINE
8
BLACK
6
CONTINUOUS
10
28.306
20
-143.314
11
28.4012
21
-143.41
0
LINE
8
BLACK
6
CONTINUOUS
10
28.4012
20
-143.41
11
28.306
21
-143.505
0
LINE
8
BLACK
6
CONTINUOUS
10
28.306
20
-143.505
11
28.2107
21
-143.41
0
LINE
8
BLACK
6
CONTINUOUS
10
28.2107
20
-143.41
11
28.306
21
-143.314
0
LINE
8
BLACK
6
CONTINUOUS
10
28.306
20
-143.314
11
28.306
21
-143.505
0
LINE
8
BLACK
6
CONTINUOUS
10
29.6393
20
-141.505
11
29.8298
21
-141.505
0
LINE
8
BLACK
6
CONTINUOUS
10
29.8298
20
-141.505
11
30.0202
21
-141.6
0
LINE
8
BLACK
6
CONTINUOUS
10
30.0202
20
-141.6
11
30.1155
21
-141.695
0
LINE
8
BLACK
6
CONTINUOUS
10
30.1155
20
-141.695
11
30.2107
21
-141.886
0
LINE
8
BLACK
6
CONTINUOUS
10
30.2107
20
-141.886
11
30.306
21
-142.267
0
LINE
8
BLACK
6
CONTINUOUS
10
30.306
20
-142.267
11
30.306
21
-142.743
0
LINE
8
BLACK
6
CONTINUOUS
10
30.306
20
-142.743
11
30.2107
21
-143.124
0
LINE
8
BLACK
6
CONTINUOUS
10
30.2107
20
-143.124
11
30.1155
21
-143.314
0
LINE
8
BLACK
6
CONTINUOUS
10
30.1155
20
-143.314
11
30.0202
21
-143.41
0
LINE
8
BLACK
6
CONTINUOUS
10
30.0202
20
-143.41
11
29.8298
21
-143.505
0
LINE
8
BLACK
6
CONTINUOUS
10
29.8298
20
-143.505
11
29.6393
21
-143.505
0
LINE
8
BLACK
6
CONTINUOUS
10
29.6393
20
-143.505
11
29.4488
21
-143.41
0
LINE
8
BLACK
6
CONTINUOUS
10
29.4488
20
-143.41
11
29.3536
21
-143.314
0
LINE
8
BLACK
6
CONTINUOUS
10
29.3536
20
-143.314
11
29.2583
21
-143.124
0
LINE
8
BLACK
6
CONTINUOUS
10
29.2583
20
-143.124
11
29.1631
21
-142.743
0
LINE
8
BLACK
6
CONTINUOUS
10
29.1631
20
-142.743
11
29.1631
21
-142.267
0
LINE
8
BLACK
6
CONTINUOUS
10
29.1631
20
-142.267
11
29.2583
21
-141.886
0
LINE
8
BLACK
6
CONTINUOUS
10
29.2583
20
-141.886
11
29.3536
21
-141.695
0
LINE
8
BLACK
6
CONTINUOUS
10
29.3536
20
-141.695
11
29.4488
21
-141.6
0
LINE
8
BLACK
6
CONTINUOUS
10
29.4488
20
-141.6
11
29.6393
21
-141.505
0
LINE
8
BLACK
6
CONTINUOUS
10
31.544
20
-141.505
11
31.7345
21
-141.505
0
LINE
8
BLACK
6
CONTINUOUS
10
31.7345
20
-141.505
11
31.925
21
-141.6
0
LINE
8
BLACK
6
CONTINUOUS
10
31.925
20
-141.6
11
32.0202
21
-141.695
0
LINE
8
BLACK
6
CONTINUOUS
10
32.0202
20
-141.695
11
32.1155
21
-141.886
0
LINE
8
BLACK
6
CONTINUOUS
10
32.1155
20
-141.886
11
32.2107
21
-142.267
0
LINE
8
BLACK
6
CONTINUOUS
10
32.2107
20
-142.267
11
32.2107
21
-142.743
0
LINE
8
BLACK
6
CONTINUOUS
10
32.2107
20
-142.743
11
32.1155
21
-143.124
0
LINE
8
BLACK
6
CONTINUOUS
10
32.1155
20
-143.124
11
32.0202
21
-143.314
0
LINE
8
BLACK
6
CONTINUOUS
10
32.0202
20
-143.314
11
31.925
21
-143.41
0
LINE
8
BLACK
6
CONTINUOUS
10
31.925
20
-143.41
11
31.7345
21
-143.505
0
LINE
8
BLACK
6
CONTINUOUS
10
31.7345
20
-143.505
11
31.544
21
-143.505
0
LINE
8
BLACK
6
CONTINUOUS
10
31.544
20
-143.505
11
31.3536
21
-143.41
0
LINE
8
BLACK
6
CONTINUOUS
10
31.3536
20
-143.41
11
31.2583
21
-143.314
0
LINE
8
BLACK
6
CONTINUOUS
10
31.2583
20
-143.314
11
31.1631
21
-143.124
0
LINE
8
BLACK
6
CONTINUOUS
10
31.1631
20
-143.124
11
31.0679
21
-142.743
0
LINE
8
BLACK
6
CONTINUOUS
10
31.0679
20
-142.743
11
31.0679
21
-142.267
0
LINE
8
BLACK
6
CONTINUOUS
10
31.0679
20
-142.267
11
31.1631
21
-141.886
0
LINE
8
BLACK
6
CONTINUOUS
10
31.1631
20
-141.886
11
31.2583
21
-141.695
0
LINE
8
BLACK
6
CONTINUOUS
10
31.2583
20
-141.695
11
31.3536
21
-141.6
0
LINE
8
BLACK
6
CONTINUOUS
10
31.3536
20
-141.6
11
31.544
21
-141.505
0
LINE
8
BLACK
6
CONTINUOUS
10
33.4488
20
-141.505
11
33.6393
21
-141.505
0
LINE
8
BLACK
6
CONTINUOUS
10
33.6393
20
-141.505
11
33.8298
21
-141.6
0
LINE
8
BLACK
6
CONTINUOUS
10
33.8298
20
-141.6
11
33.925
21
-141.695
0
LINE
8
BLACK
6
CONTINUOUS
10
33.925
20
-141.695
11
34.0202
21
-141.886
0
LINE
8
BLACK
6
CONTINUOUS
10
34.0202
20
-141.886
11
34.1155
21
-142.267
0
LINE
8
BLACK
6
CONTINUOUS
10
34.1155
20
-142.267
11
34.1155
21
-142.743
0
LINE
8
BLACK
6
CONTINUOUS
10
34.1155
20
-142.743
11
34.0202
21
-143.124
0
LINE
8
BLACK
6
CONTINUOUS
10
34.0202
20
-143.124
11
33.925
21
-143.314
0
LINE
8
BLACK
6
CONTINUOUS
10
33.925
20
-143.314
11
33.8298
21
-143.41
0
LINE
8
BLACK
6
CONTINUOUS
10
33.8298
20
-143.41
11
33.6393
21
-143.505
0
LINE
8
BLACK
6
CONTINUOUS
10
33.6393
20
-143.505
11
33.4488
21
-143.505
0
LINE
8
BLACK
6
CONTINUOUS
10
33.4488
20
-143.505
11
33.2583
21
-143.41
0
LINE
8
BLACK
6
CONTINUOUS
10
33.2583
20
-143.41
11
33.1631
21
-143.314
0
LINE
8
BLACK
6
CONTINUOUS
10
33.1631
20
-143.314
11
33.0679
21
-143.124
0
LINE
8
BLACK
6
CONTINUOUS
10
33.0679
20
-143.124
11
32.9726
21
-142.743
0
LINE
8
BLACK
6
CONTINUOUS
10
32.9726
20
-142.743
11
32.9726
21
-142.267
0
LINE
8
BLACK
6
CONTINUOUS
10
32.9726
20
-142.267
11
33.0679
21
-141.886
0
LINE
8
BLACK
6
CONTINUOUS
10
33.0679
20
-141.886
11
33.1631
21
-141.695
0
LINE
8
BLACK
6
CONTINUOUS
10
33.1631
20
-141.695
11
33.2583
21
-141.6
0
LINE
8
BLACK
6
CONTINUOUS
10
33.2583
20
-141.6
11
33.4488
21
-141.505
0
LINE
8
BLACK
6
CONTINUOUS
10
34.9726
20
-143.505
11
34.9726
21
-142.171
0
LINE
8
BLACK
6
CONTINUOUS
10
34.9726
20
-142.362
11
35.0679
21
-142.267
0
LINE
8
BLACK
6
CONTINUOUS
10
35.0679
20
-142.267
11
35.2583
21
-142.171
0
LINE
8
BLACK
6
CONTINUOUS
10
35.2583
20
-142.171
11
35.544
21
-142.171
0
LINE
8
BLACK
6
CONTINUOUS
10
35.544
20
-142.171
11
35.7345
21
-142.267
0
LINE
8
BLACK
6
CONTINUOUS
10
35.7345
20
-142.267
11
35.8298
21
-142.457
0
LINE
8
BLACK
6
CONTINUOUS
10
35.8298
20
-142.457
11
35.8298
21
-143.505
0
LINE
8
BLACK
6
CONTINUOUS
10
35.8298
20
-142.457
11
35.925
21
-142.267
0
LINE
8
BLACK
6
CONTINUOUS
10
35.925
20
-142.267
11
36.1155
21
-142.171
0
LINE
8
BLACK
6
CONTINUOUS
10
36.1155
20
-142.171
11
36.4012
21
-142.171
0
LINE
8
BLACK
6
CONTINUOUS
10
36.4012
20
-142.171
11
36.5917
21
-142.267
0
LINE
8
BLACK
6
CONTINUOUS
10
36.5917
20
-142.267
11
36.6869
21
-142.457
0
LINE
8
BLACK
6
CONTINUOUS
10
36.6869
20
-142.457
11
36.6869
21
-143.505
0
LINE
8
BLACK
6
CONTINUOUS
10
37.6393
20
-143.505
11
37.6393
21
-142.171
0
LINE
8
BLACK
6
CONTINUOUS
10
37.6393
20
-142.362
11
37.7345
21
-142.267
0
LINE
8
BLACK
6
CONTINUOUS
10
37.7345
20
-142.267
11
37.925
21
-142.171
0
LINE
8
BLACK
6
CONTINUOUS
10
37.925
20
-142.171
11
38.2107
21
-142.171
0
LINE
8
BLACK
6
CONTINUOUS
10
38.2107
20
-142.171
11
38.4012
21
-142.267
0
LINE
8
BLACK
6
CONTINUOUS
10
38.4012
20
-142.267
11
38.4964
21
-142.457
0
LINE
8
BLACK
6
CONTINUOUS
10
38.4964
20
-142.457
11
38.4964
21
-143.505
0
LINE
8
BLACK
6
CONTINUOUS
10
38.4964
20
-142.457
11
38.5917
21
-142.267
0
LINE
8
BLACK
6
CONTINUOUS
10
38.5917
20
-142.267
11
38.7821
21
-142.171
0
LINE
8
BLACK
6
CONTINUOUS
10
38.7821
20
-142.171
11
39.0679
21
-142.171
0
LINE
8
BLACK
6
CONTINUOUS
10
39.0679
20
-142.171
11
39.2583
21
-142.267
0
LINE
8
BLACK
6
CONTINUOUS
10
39.2583
20
-142.267
11
39.3536
21
-142.457
0
LINE
8
BLACK
6
CONTINUOUS
10
39.3536
20
-142.457
11
39.3536
21
-143.505
0
LINE
8
BLACK
6
CONTINUOUS
10
43.2583
20
-141.41
11
41.544
21
-143.981
0
LINE
8
BLACK
6
CONTINUOUS
10
45.8298
20
-141.505
11
46.0202
21
-141.505
0
LINE
8
BLACK
6
CONTINUOUS
10
46.0202
20
-141.505
11
46.2107
21
-141.6
0
LINE
8
BLACK
6
CONTINUOUS
10
46.2107
20
-141.6
11
46.306
21
-141.695
0
LINE
8
BLACK
6
CONTINUOUS
10
46.306
20
-141.695
11
46.4012
21
-141.886
0
LINE
8
BLACK
6
CONTINUOUS
10
46.4012
20
-141.886
11
46.4964
21
-142.267
0
LINE
8
BLACK
6
CONTINUOUS
10
46.4964
20
-142.267
11
46.4964
21
-142.743
0
LINE
8
BLACK
6
CONTINUOUS
10
46.4964
20
-142.743
11
46.4012
21
-143.124
0
LINE
8
BLACK
6
CONTINUOUS
10
46.4012
20
-143.124
11
46.306
21
-143.314
0
LINE
8
BLACK
6
CONTINUOUS
10
46.306
20
-143.314
11
46.2107
21
-143.41
0
LINE
8
BLACK
6
CONTINUOUS
10
46.2107
20
-143.41
11
46.0202
21
-143.505
0
LINE
8
BLACK
6
CONTINUOUS
10
46.0202
20
-143.505
11
45.8298
21
-143.505
0
LINE
8
BLACK
6
CONTINUOUS
10
45.8298
20
-143.505
11
45.6393
21
-143.41
0
LINE
8
BLACK
6
CONTINUOUS
10
45.6393
20
-143.41
11
45.544
21
-143.314
0
LINE
8
BLACK
6
CONTINUOUS
10
45.544
20
-143.314
11
45.4488
21
-143.124
0
LINE
8
BLACK
6
CONTINUOUS
10
45.4488
20
-143.124
11
45.3536
21
-142.743
0
LINE
8
BLACK
6
CONTINUOUS
10
45.3536
20
-142.743
11
45.3536
21
-142.267
0
LINE
8
BLACK
6
CONTINUOUS
10
45.3536
20
-142.267
11
45.4488
21
-141.886
0
LINE
8
BLACK
6
CONTINUOUS
10
45.4488
20
-141.886
11
45.544
21
-141.695
0
LINE
8
BLACK
6
CONTINUOUS
10
45.544
20
-141.695
11
45.6393
21
-141.6
0
LINE
8
BLACK
6
CONTINUOUS
10
45.6393
20
-141.6
11
45.8298
21
-141.505
0
LINE
8
BLACK
6
CONTINUOUS
10
47.3536
20
-143.314
11
47.4488
21
-143.41
0
LINE
8
BLACK
6
CONTINUOUS
10
47.4488
20
-143.41
11
47.3536
21
-143.505
0
LINE
8
BLACK
6
CONTINUOUS
10
47.3536
20
-143.505
11
47.2583
21
-143.41
0
LINE
8
BLACK
6
CONTINUOUS
10
47.2583
20
-143.41
11
47.3536
21
-143.314
0
LINE
8
BLACK
6
CONTINUOUS
10
47.3536
20
-143.314
11
47.3536
21
-143.505
0
LINE
8
BLACK
6
CONTINUOUS
10
49.3536
20
-143.505
11
48.2107
21
-143.505
0
LINE
8
BLACK
6
CONTINUOUS
10
48.7821
20
-143.505
11
48.7821
21
-141.505
0
LINE
8
BLACK
6
CONTINUOUS
10
48.7821
20
-141.505
11
48.5917
21
-141.79
0
LINE
8
BLACK
6
CONTINUOUS
10
48.5917
20
-141.79
11
48.4012
21
-141.981
0
LINE
8
BLACK
6
CONTINUOUS
10
48.4012
20
-141.981
11
48.2107
21
-142.076
0
LINE
8
BLACK
6
CONTINUOUS
10
51.1631
20
-141.505
11
50.2107
21
-141.505
0
LINE
8
BLACK
6
CONTINUOUS
10
50.2107
20
-141.505
11
50.1155
21
-142.457
0
LINE
8
BLACK
6
CONTINUOUS
10
50.1155
20
-142.457
11
50.2107
21
-142.362
0
LINE
8
BLACK
6
CONTINUOUS
10
50.2107
20
-142.362
11
50.4012
21
-142.267
0
LINE
8
BLACK
6
CONTINUOUS
10
50.4012
20
-142.267
11
50.8774
21
-142.267
0
LINE
8
BLACK
6
CONTINUOUS
10
50.8774
20
-142.267
11
51.0679
21
-142.362
0
LINE
8
BLACK
6
CONTINUOUS
10
51.0679
20
-142.362
11
51.1631
21
-142.457
0
LINE
8
BLACK
6
CONTINUOUS
10
51.1631
20
-142.457
11
51.2583
21
-142.648
0
LINE
8
BLACK
6
CONTINUOUS
10
51.2583
20
-142.648
11
51.2583
21
-143.124
0
LINE
8
BLACK
6
CONTINUOUS
10
51.2583
20
-143.124
11
51.1631
21
-143.314
0
LINE
8
BLACK
6
CONTINUOUS
10
51.1631
20
-143.314
11
51.0679
21
-143.41
0
LINE
8
BLACK
6
CONTINUOUS
10
51.0679
20
-143.41
11
50.8774
21
-143.505
0
LINE
8
BLACK
6
CONTINUOUS
10
50.8774
20
-143.505
11
50.4012
21
-143.505
0
LINE
8
BLACK
6
CONTINUOUS
10
50.4012
20
-143.505
11
50.2107
21
-143.41
0
LINE
8
BLACK
6
CONTINUOUS
10
50.2107
20
-143.41
11
50.1155
21
-143.314
0
LINE
8
BLACK
6
CONTINUOUS
10
51.925
20
-141.505
11
53.2583
21
-141.505
0
LINE
8
BLACK
6
CONTINUOUS
10
53.2583
20
-141.505
11
52.4012
21
-143.505
0
LINE
8
BLACK
6
CONTINUOUS
10
54.9726
20
-141.505
11
54.0202
21
-141.505
0
LINE
8
BLACK
6
CONTINUOUS
10
54.0202
20
-141.505
11
53.925
21
-142.457
0
LINE
8
BLACK
6
CONTINUOUS
10
53.925
20
-142.457
11
54.0202
21
-142.362
0
LINE
8
BLACK
6
CONTINUOUS
10
54.0202
20
-142.362
11
54.2107
21
-142.267
0
LINE
8
BLACK
6
CONTINUOUS
10
54.2107
20
-142.267
11
54.6869
21
-142.267
0
LINE
8
BLACK
6
CONTINUOUS
10
54.6869
20
-142.267
11
54.8774
21
-142.362
0
LINE
8
BLACK
6
CONTINUOUS
10
54.8774
20
-142.362
11
54.9726
21
-142.457
0
LINE
8
BLACK
6
CONTINUOUS
10
54.9726
20
-142.457
11
55.0679
21
-142.648
0
LINE
8
BLACK
6
CONTINUOUS
10
55.0679
20
-142.648
11
55.0679
21
-143.124
0
LINE
8
BLACK
6
CONTINUOUS
10
55.0679
20
-143.124
11
54.9726
21
-143.314
0
LINE
8
BLACK
6
CONTINUOUS
10
54.9726
20
-143.314
11
54.8774
21
-143.41
0
LINE
8
BLACK
6
CONTINUOUS
10
54.8774
20
-143.41
11
54.6869
21
-143.505
0
LINE
8
BLACK
6
CONTINUOUS
10
54.6869
20
-143.505
11
54.2107
21
-143.505
0
LINE
8
BLACK
6
CONTINUOUS
10
54.2107
20
-143.505
11
54.0202
21
-143.41
0
LINE
8
BLACK
6
CONTINUOUS
10
54.0202
20
-143.41
11
53.925
21
-143.314
0
LINE
8
BLACK
6
CONTINUOUS
10
55.8298
20
-141.505
11
55.8298
21
-141.886
0
LINE
8
BLACK
6
CONTINUOUS
10
56.5917
20
-141.505
11
56.5917
21
-141.886
0
LINE
8
BLACK
6
CONTINUOUS
10
59.544
20
-144.267
11
59.4488
21
-144.171
0
LINE
8
BLACK
6
CONTINUOUS
10
59.4488
20
-144.171
11
59.2583
21
-143.886
0
LINE
8
BLACK
6
CONTINUOUS
10
59.2583
20
-143.886
11
59.1631
21
-143.695
0
LINE
8
BLACK
6
CONTINUOUS
10
59.1631
20
-143.695
11
59.0679
21
-143.41
0
LINE
8
BLACK
6
CONTINUOUS
10
59.0679
20
-143.41
11
58.9726
21
-142.933
0
LINE
8
BLACK
6
CONTINUOUS
10
58.9726
20
-142.933
11
58.9726
21
-142.552
0
LINE
8
BLACK
6
CONTINUOUS
10
58.9726
20
-142.552
11
59.0679
21
-142.076
0
LINE
8
BLACK
6
CONTINUOUS
10
59.0679
20
-142.076
11
59.1631
21
-141.79
0
LINE
8
BLACK
6
CONTINUOUS
10
59.1631
20
-141.79
11
59.2583
21
-141.6
0
LINE
8
BLACK
6
CONTINUOUS
10
59.2583
20
-141.6
11
59.4488
21
-141.314
0
LINE
8
BLACK
6
CONTINUOUS
10
59.4488
20
-141.314
11
59.544
21
-141.219
0
LINE
8
BLACK
6
CONTINUOUS
10
61.1631
20
-141.505
11
60.7821
21
-141.505
0
LINE
8
BLACK
6
CONTINUOUS
10
60.7821
20
-141.505
11
60.5917
21
-141.6
0
LINE
8
BLACK
6
CONTINUOUS
10
60.5917
20
-141.6
11
60.4964
21
-141.695
0
LINE
8
BLACK
6
CONTINUOUS
10
60.4964
20
-141.695
11
60.306
21
-141.981
0
LINE
8
BLACK
6
CONTINUOUS
10
60.306
20
-141.981
11
60.2107
21
-142.362
0
LINE
8
BLACK
6
CONTINUOUS
10
60.2107
20
-142.362
11
60.2107
21
-143.124
0
LINE
8
BLACK
6
CONTINUOUS
10
60.2107
20
-143.124
11
60.306
21
-143.314
0
LINE
8
BLACK
6
CONTINUOUS
10
60.306
20
-143.314
11
60.4012
21
-143.41
0
LINE
8
BLACK
6
CONTINUOUS
10
60.4012
20
-143.41
11
60.5917
21
-143.505
0
LINE
8
BLACK
6
CONTINUOUS
10
60.5917
20
-143.505
11
60.9726
21
-143.505
0
LINE
8
BLACK
6
CONTINUOUS
10
60.9726
20
-143.505
11
61.1631
21
-143.41
0
LINE
8
BLACK
6
CONTINUOUS
10
61.1631
20
-143.41
11
61.2583
21
-143.314
0
LINE
8
BLACK
6
CONTINUOUS
10
61.2583
20
-143.314
11
61.3536
21
-143.124
0
LINE
8
BLACK
6
CONTINUOUS
10
61.3536
20
-143.124
11
61.3536
21
-142.648
0
LINE
8
BLACK
6
CONTINUOUS
10
61.3536
20
-142.648
11
61.2583
21
-142.457
0
LINE
8
BLACK
6
CONTINUOUS
10
61.2583
20
-142.457
11
61.1631
21
-142.362
0
LINE
8
BLACK
6
CONTINUOUS
10
61.1631
20
-142.362
11
60.9726
21
-142.267
0
LINE
8
BLACK
6
CONTINUOUS
10
60.9726
20
-142.267
11
60.5917
21
-142.267
0
LINE
8
BLACK
6
CONTINUOUS
10
60.5917
20
-142.267
11
60.4012
21
-142.362
0
LINE
8
BLACK
6
CONTINUOUS
10
60.4012
20
-142.362
11
60.306
21
-142.457
0
LINE
8
BLACK
6
CONTINUOUS
10
60.306
20
-142.457
11
60.2107
21
-142.648
0
LINE
8
BLACK
6
CONTINUOUS
10
62.5917
20
-141.505
11
62.7821
21
-141.505
0
LINE
8
BLACK
6
CONTINUOUS
10
62.7821
20
-141.505
11
62.9726
21
-141.6
0
LINE
8
BLACK
6
CONTINUOUS
10
62.9726
20
-141.6
11
63.0679
21
-141.695
0
LINE
8
BLACK
6
CONTINUOUS
10
63.0679
20
-141.695
11
63.1631
21
-141.886
0
LINE
8
BLACK
6
CONTINUOUS
10
63.1631
20
-141.886
11
63.2583
21
-142.267
0
LINE
8
BLACK
6
CONTINUOUS
10
63.2583
20
-142.267
11
63.2583
21
-142.743
0
LINE
8
BLACK
6
CONTINUOUS
10
63.2583
20
-142.743
11
63.1631
21
-143.124
0
LINE
8
BLACK
6
CONTINUOUS
10
63.1631
20
-143.124
11
63.0679
21
-143.314
0
LINE
8
BLACK
6
CONTINUOUS
10
63.0679
20
-143.314
11
62.9726
21
-143.41
0
LINE
8
BLACK
6
CONTINUOUS
10
62.9726
20
-143.41
11
62.7821
21
-143.505
0
LINE
8
BLACK
6
CONTINUOUS
10
62.7821
20
-143.505
11
62.5917
21
-143.505
0
LINE
8
BLACK
6
CONTINUOUS
10
62.5917
20
-143.505
11
62.4012
21
-143.41
0
LINE
8
BLACK
6
CONTINUOUS
10
62.4012
20
-143.41
11
62.306
21
-143.314
0
LINE
8
BLACK
6
CONTINUOUS
10
62.306
20
-143.314
11
62.2107
21
-143.124
0
LINE
8
BLACK
6
CONTINUOUS
10
62.2107
20
-143.124
11
62.1155
21
-142.743
0
LINE
8
BLACK
6
CONTINUOUS
10
62.1155
20
-142.743
11
62.1155
21
-142.267
0
LINE
8
BLACK
6
CONTINUOUS
10
62.1155
20
-142.267
11
62.2107
21
-141.886
0
LINE
8
BLACK
6
CONTINUOUS
10
62.2107
20
-141.886
11
62.306
21
-141.695
0
LINE
8
BLACK
6
CONTINUOUS
10
62.306
20
-141.695
11
62.4012
21
-141.6
0
LINE
8
BLACK
6
CONTINUOUS
10
62.4012
20
-141.6
11
62.5917
21
-141.505
0
LINE
8
BLACK
6
CONTINUOUS
10
65.6393
20
-143.505
11
65.6393
21
-141.505
0
LINE
8
BLACK
6
CONTINUOUS
10
66.4964
20
-143.505
11
66.4964
21
-142.457
0
LINE
8
BLACK
6
CONTINUOUS
10
66.4964
20
-142.457
11
66.4012
21
-142.267
0
LINE
8
BLACK
6
CONTINUOUS
10
66.4012
20
-142.267
11
66.2107
21
-142.171
0
LINE
8
BLACK
6
CONTINUOUS
10
66.2107
20
-142.171
11
65.925
21
-142.171
0
LINE
8
BLACK
6
CONTINUOUS
10
65.925
20
-142.171
11
65.7345
21
-142.267
0
LINE
8
BLACK
6
CONTINUOUS
10
65.7345
20
-142.267
11
65.6393
21
-142.362
0
LINE
8
BLACK
6
CONTINUOUS
10
67.7345
20
-143.505
11
67.544
21
-143.41
0
LINE
8
BLACK
6
CONTINUOUS
10
67.544
20
-143.41
11
67.4488
21
-143.314
0
LINE
8
BLACK
6
CONTINUOUS
10
67.4488
20
-143.314
11
67.3536
21
-143.124
0
LINE
8
BLACK
6
CONTINUOUS
10
67.3536
20
-143.124
11
67.3536
21
-142.552
0
LINE
8
BLACK
6
CONTINUOUS
10
67.3536
20
-142.552
11
67.4488
21
-142.362
0
LINE
8
BLACK
6
CONTINUOUS
10
67.4488
20
-142.362
11
67.544
21
-142.267
0
LINE
8
BLACK
6
CONTINUOUS
10
67.544
20
-142.267
11
67.7345
21
-142.171
0
LINE
8
BLACK
6
CONTINUOUS
10
67.7345
20
-142.171
11
68.0202
21
-142.171
0
LINE
8
BLACK
6
CONTINUOUS
10
68.0202
20
-142.171
11
68.2107
21
-142.267
0
LINE
8
BLACK
6
CONTINUOUS
10
68.2107
20
-142.267
11
68.306
21
-142.362
0
LINE
8
BLACK
6
CONTINUOUS
10
68.306
20
-142.362
11
68.4012
21
-142.552
0
LINE
8
BLACK
6
CONTINUOUS
10
68.4012
20
-142.552
11
68.4012
21
-143.124
0
LINE
8
BLACK
6
CONTINUOUS
10
68.4012
20
-143.124
11
68.306
21
-143.314
0
LINE
8
BLACK
6
CONTINUOUS
10
68.306
20
-143.314
11
68.2107
21
-143.41
0
LINE
8
BLACK
6
CONTINUOUS
10
68.2107
20
-143.41
11
68.0202
21
-143.505
0
LINE
8
BLACK
6
CONTINUOUS
10
68.0202
20
-143.505
11
67.7345
21
-143.505
0
LINE
8
BLACK
6
CONTINUOUS
10
69.544
20
-143.505
11
69.3536
21
-143.41
0
LINE
8
BLACK
6
CONTINUOUS
10
69.3536
20
-143.41
11
69.2583
21
-143.219
0
LINE
8
BLACK
6
CONTINUOUS
10
69.2583
20
-143.219
11
69.2583
21
-141.505
0
LINE
8
BLACK
6
CONTINUOUS
10
71.0679
20
-143.41
11
70.8774
21
-143.505
0
LINE
8
BLACK
6
CONTINUOUS
10
70.8774
20
-143.505
11
70.4964
21
-143.505
0
LINE
8
BLACK
6
CONTINUOUS
10
70.4964
20
-143.505
11
70.306
21
-143.41
0
LINE
8
BLACK
6
CONTINUOUS
10
70.306
20
-143.41
11
70.2107
21
-143.219
0
LINE
8
BLACK
6
CONTINUOUS
10
70.2107
20
-143.219
11
70.2107
21
-142.457
0
LINE
8
BLACK
6
CONTINUOUS
10
70.2107
20
-142.457
11
70.306
21
-142.267
0
LINE
8
BLACK
6
CONTINUOUS
10
70.306
20
-142.267
11
70.4964
21
-142.171
0
LINE
8
BLACK
6
CONTINUOUS
10
70.4964
20
-142.171
11
70.8774
21
-142.171
0
LINE
8
BLACK
6
CONTINUOUS
10
70.8774
20
-142.171
11
71.0679
21
-142.267
0
LINE
8
BLACK
6
CONTINUOUS
10
71.0679
20
-142.267
11
71.1631
21
-142.457
0
LINE
8
BLACK
6
CONTINUOUS
10
71.1631
20
-142.457
11
71.1631
21
-142.648
0
LINE
8
BLACK
6
CONTINUOUS
10
71.1631
20
-142.648
11
70.2107
21
-142.838
0
LINE
8
BLACK
6
CONTINUOUS
10
71.925
20
-143.41
11
72.1155
21
-143.505
0
LINE
8
BLACK
6
CONTINUOUS
10
72.1155
20
-143.505
11
72.4964
21
-143.505
0
LINE
8
BLACK
6
CONTINUOUS
10
72.4964
20
-143.505
11
72.6869
21
-143.41
0
LINE
8
BLACK
6
CONTINUOUS
10
72.6869
20
-143.41
11
72.7821
21
-143.219
0
LINE
8
BLACK
6
CONTINUOUS
10
72.7821
20
-143.219
11
72.7821
21
-143.124
0
LINE
8
BLACK
6
CONTINUOUS
10
72.7821
20
-143.124
11
72.6869
21
-142.933
0
LINE
8
BLACK
6
CONTINUOUS
10
72.6869
20
-142.933
11
72.4964
21
-142.838
0
LINE
8
BLACK
6
CONTINUOUS
10
72.4964
20
-142.838
11
72.2107
21
-142.838
0
LINE
8
BLACK
6
CONTINUOUS
10
72.2107
20
-142.838
11
72.0202
21
-142.743
0
LINE
8
BLACK
6
CONTINUOUS
10
72.0202
20
-142.743
11
71.925
21
-142.552
0
LINE
8
BLACK
6
CONTINUOUS
10
71.925
20
-142.552
11
71.925
21
-142.457
0
LINE
8
BLACK
6
CONTINUOUS
10
71.925
20
-142.457
11
72.0202
21
-142.267
0
LINE
8
BLACK
6
CONTINUOUS
10
72.0202
20
-142.267
11
72.2107
21
-142.171
0
LINE
8
BLACK
6
CONTINUOUS
10
72.2107
20
-142.171
11
72.4964
21
-142.171
0
LINE
8
BLACK
6
CONTINUOUS
10
72.4964
20
-142.171
11
72.6869
21
-142.267
0
LINE
8
BLACK
6
CONTINUOUS
10
73.4488
20
-144.267
11
73.544
21
-144.171
0
LINE
8
BLACK
6
CONTINUOUS
10
73.544
20
-144.171
11
73.7345
21
-143.886
0
LINE
8
BLACK
6
CONTINUOUS
10
73.7345
20
-143.886
11
73.8298
21
-143.695
0
LINE
8
BLACK
6
CONTINUOUS
10
73.8298
20
-143.695
11
73.925
21
-143.41
0
LINE
8
BLACK
6
CONTINUOUS
10
73.925
20
-143.41
11
74.0202
21
-142.933
0
LINE
8
BLACK
6
CONTINUOUS
10
74.0202
20
-142.933
11
74.0202
21
-142.552
0
LINE
8
BLACK
6
CONTINUOUS
10
74.0202
20
-142.552
11
73.925
21
-142.076
0
LINE
8
BLACK
6
CONTINUOUS
10
73.925
20
-142.076
11
73.8298
21
-141.79
0
LINE
8
BLACK
6
CONTINUOUS
10
73.8298
20
-141.79
11
73.7345
21
-141.6
0
LINE
8
BLACK
6
CONTINUOUS
10
73.7345
20
-141.6
11
73.544
21
-141.314
0
LINE
8
BLACK
6
CONTINUOUS
10
73.544
20
-141.314
11
73.4488
21
-141.219
0
LINE
8
BLACK
6
CONTINUOUS
10
77.0679
20
-144.267
11
76.9726
21
-144.171
0
LINE
8
BLACK
6
CONTINUOUS
10
76.9726
20
-144.171
11
76.7821
21
-143.886
0
LINE
8
BLACK
6
CONTINUOUS
10
76.7821
20
-143.886
11
76.6869
21
-143.695
0
LINE
8
BLACK
6
CONTINUOUS
10
76.6869
20
-143.695
11
76.5917
21
-143.41
0
LINE
8
BLACK
6
CONTINUOUS
10
76.5917
20
-143.41
11
76.4964
21
-142.933
0
LINE
8
BLACK
6
CONTINUOUS
10
76.4964
20
-142.933
11
76.4964
21
-142.552
0
LINE
8
BLACK
6
CONTINUOUS
10
76.4964
20
-142.552
11
76.5917
21
-142.076
0
LINE
8
BLACK
6
CONTINUOUS
10
76.5917
20
-142.076
11
76.6869
21
-141.79
0
LINE
8
BLACK
6
CONTINUOUS
10
76.6869
20
-141.79
11
76.7821
21
-141.6
0
LINE
8
BLACK
6
CONTINUOUS
10
76.7821
20
-141.6
11
76.9726
21
-141.314
0
LINE
8
BLACK
6
CONTINUOUS
10
76.9726
20
-141.314
11
77.0679
21
-141.219
0
LINE
8
BLACK
6
CONTINUOUS
10
77.8298
20
-142.171
11
77.8298
21
-143.505
0
LINE
8
BLACK
6
CONTINUOUS
10
77.8298
20
-142.362
11
77.925
21
-142.267
0
LINE
8
BLACK
6
CONTINUOUS
10
77.925
20
-142.267
11
78.1155
21
-142.171
0
LINE
8
BLACK
6
CONTINUOUS
10
78.1155
20
-142.171
11
78.4012
21
-142.171
0
LINE
8
BLACK
6
CONTINUOUS
10
78.4012
20
-142.171
11
78.5917
21
-142.267
0
LINE
8
BLACK
6
CONTINUOUS
10
78.5917
20
-142.267
11
78.6869
21
-142.457
0
LINE
8
BLACK
6
CONTINUOUS
10
78.6869
20
-142.457
11
78.6869
21
-143.505
0
LINE
8
BLACK
6
CONTINUOUS
10
79.925
20
-143.505
11
79.7345
21
-143.41
0
LINE
8
BLACK
6
CONTINUOUS
10
79.7345
20
-143.41
11
79.6393
21
-143.314
0
LINE
8
BLACK
6
CONTINUOUS
10
79.6393
20
-143.314
11
79.544
21
-143.124
0
LINE
8
BLACK
6
CONTINUOUS
10
79.544
20
-143.124
11
79.544
21
-142.552
0
LINE
8
BLACK
6
CONTINUOUS
10
79.544
20
-142.552
11
79.6393
21
-142.362
0
LINE
8
BLACK
6
CONTINUOUS
10
79.6393
20
-142.362
11
79.7345
21
-142.267
0
LINE
8
BLACK
6
CONTINUOUS
10
79.7345
20
-142.267
11
79.925
21
-142.171
0
LINE
8
BLACK
6
CONTINUOUS
10
79.925
20
-142.171
11
80.2107
21
-142.171
0
LINE
8
BLACK
6
CONTINUOUS
10
80.2107
20
-142.171
11
80.4012
21
-142.267
0
LINE
8
BLACK
6
CONTINUOUS
10
80.4012
20
-142.267
11
80.4964
21
-142.362
0
LINE
8
BLACK
6
CONTINUOUS
10
80.4964
20
-142.362
11
80.5917
21
-142.552
0
LINE
8
BLACK
6
CONTINUOUS
10
80.5917
20
-142.552
11
80.5917
21
-143.124
0
LINE
8
BLACK
6
CONTINUOUS
10
80.5917
20
-143.124
11
80.4964
21
-143.314
0
LINE
8
BLACK
6
CONTINUOUS
10
80.4964
20
-143.314
11
80.4012
21
-143.41
0
LINE
8
BLACK
6
CONTINUOUS
10
80.4012
20
-143.41
11
80.2107
21
-143.505
0
LINE
8
BLACK
6
CONTINUOUS
10
80.2107
20
-143.505
11
79.925
21
-143.505
0
LINE
8
BLACK
6
CONTINUOUS
10
81.1631
20
-142.171
11
81.925
21
-142.171
0
LINE
8
BLACK
6
CONTINUOUS
10
81.4488
20
-141.505
11
81.4488
21
-143.219
0
LINE
8
BLACK
6
CONTINUOUS
10
81.4488
20
-143.219
11
81.544
21
-143.41
0
LINE
8
BLACK
6
CONTINUOUS
10
81.544
20
-143.41
11
81.7345
21
-143.505
0
LINE
8
BLACK
6
CONTINUOUS
10
81.7345
20
-143.505
11
81.925
21
-143.505
0
LINE
8
BLACK
6
CONTINUOUS
10
84.1155
20
-142.171
11
84.1155
21
-144.171
0
LINE
8
BLACK
6
CONTINUOUS
10
84.1155
20
-142.267
11
84.306
21
-142.171
0
LINE
8
BLACK
6
CONTINUOUS
10
84.306
20
-142.171
11
84.6869
21
-142.171
0
LINE
8
BLACK
6
CONTINUOUS
10
84.6869
20
-142.171
11
84.8774
21
-142.267
0
LINE
8
BLACK
6
CONTINUOUS
10
84.8774
20
-142.267
11
84.9726
21
-142.362
0
LINE
8
BLACK
6
CONTINUOUS
10
84.9726
20
-142.362
11
85.0679
21
-142.552
0
LINE
8
BLACK
6
CONTINUOUS
10
85.0679
20
-142.552
11
85.0679
21
-143.124
0
LINE
8
BLACK
6
CONTINUOUS
10
85.0679
20
-143.124
11
84.9726
21
-143.314
0
LINE
8
BLACK
6
CONTINUOUS
10
84.9726
20
-143.314
11
84.8774
21
-143.41
0
LINE
8
BLACK
6
CONTINUOUS
10
84.8774
20
-143.41
11
84.6869
21
-143.505
0
LINE
8
BLACK
6
CONTINUOUS
10
84.6869
20
-143.505
11
84.306
21
-143.505
0
LINE
8
BLACK
6
CONTINUOUS
10
84.306
20
-143.505
11
84.1155
21
-143.41
0
LINE
8
BLACK
6
CONTINUOUS
10
86.2107
20
-143.505
11
86.0202
21
-143.41
0
LINE
8
BLACK
6
CONTINUOUS
10
86.0202
20
-143.41
11
85.925
21
-143.219
0
LINE
8
BLACK
6
CONTINUOUS
10
85.925
20
-143.219
11
85.925
21
-141.505
0
LINE
8
BLACK
6
CONTINUOUS
10
87.8298
20
-143.505
11
87.8298
21
-142.457
0
LINE
8
BLACK
6
CONTINUOUS
10
87.8298
20
-142.457
11
87.7345
21
-142.267
0
LINE
8
BLACK
6
CONTINUOUS
10
87.7345
20
-142.267
11
87.544
21
-142.171
0
LINE
8
BLACK
6
CONTINUOUS
10
87.544
20
-142.171
11
87.1631
21
-142.171
0
LINE
8
BLACK
6
CONTINUOUS
10
87.1631
20
-142.171
11
86.9726
21
-142.267
0
LINE
8
BLACK
6
CONTINUOUS
10
87.8298
20
-143.41
11
87.6393
21
-143.505
0
LINE
8
BLACK
6
CONTINUOUS
10
87.6393
20
-143.505
11
87.1631
21
-143.505
0
LINE
8
BLACK
6
CONTINUOUS
10
87.1631
20
-143.505
11
86.9726
21
-143.41
0
LINE
8
BLACK
6
CONTINUOUS
10
86.9726
20
-143.41
11
86.8774
21
-143.219
0
LINE
8
BLACK
6
CONTINUOUS
10
86.8774
20
-143.219
11
86.8774
21
-143.029
0
LINE
8
BLACK
6
CONTINUOUS
10
86.8774
20
-143.029
11
86.9726
21
-142.838
0
LINE
8
BLACK
6
CONTINUOUS
10
86.9726
20
-142.838
11
87.1631
21
-142.743
0
LINE
8
BLACK
6
CONTINUOUS
10
87.1631
20
-142.743
11
87.6393
21
-142.743
0
LINE
8
BLACK
6
CONTINUOUS
10
87.6393
20
-142.743
11
87.8298
21
-142.648
0
LINE
8
BLACK
6
CONTINUOUS
10
88.4964
20
-142.171
11
89.2583
21
-142.171
0
LINE
8
BLACK
6
CONTINUOUS
10
88.7821
20
-141.505
11
88.7821
21
-143.219
0
LINE
8
BLACK
6
CONTINUOUS
10
88.7821
20
-143.219
11
88.8774
21
-143.41
0
LINE
8
BLACK
6
CONTINUOUS
10
88.8774
20
-143.41
11
89.0679
21
-143.505
0
LINE
8
BLACK
6
CONTINUOUS
10
89.0679
20
-143.505
11
89.2583
21
-143.505
0
LINE
8
BLACK
6
CONTINUOUS
10
90.6869
20
-143.41
11
90.4964
21
-143.505
0
LINE
8
BLACK
6
CONTINUOUS
10
90.4964
20
-143.505
11
90.1155
21
-143.505
0
LINE
8
BLACK
6
CONTINUOUS
10
90.1155
20
-143.505
11
89.925
21
-143.41
0
LINE
8
BLACK
6
CONTINUOUS
10
89.925
20
-143.41
11
89.8298
21
-143.219
0
LINE
8
BLACK
6
CONTINUOUS
10
89.8298
20
-143.219
11
89.8298
21
-142.457
0
LINE
8
BLACK
6
CONTINUOUS
10
89.8298
20
-142.457
11
89.925
21
-142.267
0
LINE
8
BLACK
6
CONTINUOUS
10
89.925
20
-142.267
11
90.1155
21
-142.171
0
LINE
8
BLACK
6
CONTINUOUS
10
90.1155
20
-142.171
11
90.4964
21
-142.171
0
LINE
8
BLACK
6
CONTINUOUS
10
90.4964
20
-142.171
11
90.6869
21
-142.267
0
LINE
8
BLACK
6
CONTINUOUS
10
90.6869
20
-142.267
11
90.7821
21
-142.457
0
LINE
8
BLACK
6
CONTINUOUS
10
90.7821
20
-142.457
11
90.7821
21
-142.648
0
LINE
8
BLACK
6
CONTINUOUS
10
90.7821
20
-142.648
11
89.8298
21
-142.838
0
LINE
8
BLACK
6
CONTINUOUS
10
92.4964
20
-143.505
11
92.4964
21
-141.505
0
LINE
8
BLACK
6
CONTINUOUS
10
92.4964
20
-143.41
11
92.306
21
-143.505
0
LINE
8
BLACK
6
CONTINUOUS
10
92.306
20
-143.505
11
91.925
21
-143.505
0
LINE
8
BLACK
6
CONTINUOUS
10
91.925
20
-143.505
11
91.7345
21
-143.41
0
LINE
8
BLACK
6
CONTINUOUS
10
91.7345
20
-143.41
11
91.6393
21
-143.314
0
LINE
8
BLACK
6
CONTINUOUS
10
91.6393
20
-143.314
11
91.544
21
-143.124
0
LINE
8
BLACK
6
CONTINUOUS
10
91.544
20
-143.124
11
91.544
21
-142.552
0
LINE
8
BLACK
6
CONTINUOUS
10
91.544
20
-142.552
11
91.6393
21
-142.362
0
LINE
8
BLACK
6
CONTINUOUS
10
91.6393
20
-142.362
11
91.7345
21
-142.267
0
LINE
8
BLACK
6
CONTINUOUS
10
91.7345
20
-142.267
11
91.925
21
-142.171
0
LINE
8
BLACK
6
CONTINUOUS
10
91.925
20
-142.171
11
92.306
21
-142.171
0
LINE
8
BLACK
6
CONTINUOUS
10
92.306
20
-142.171
11
92.4964
21
-142.267
0
LINE
8
BLACK
6
CONTINUOUS
10
93.2583
20
-144.267
11
93.3536
21
-144.171
0
LINE
8
BLACK
6
CONTINUOUS
10
93.3536
20
-144.171
11
93.544
21
-143.886
0
LINE
8
BLACK
6
CONTINUOUS
10
93.544
20
-143.886
11
93.6393
21
-143.695
0
LINE
8
BLACK
6
CONTINUOUS
10
93.6393
20
-143.695
11
93.7345
21
-143.41
0
LINE
8
BLACK
6
CONTINUOUS
10
93.7345
20
-143.41
11
93.8298
21
-142.933
0
LINE
8
BLACK
6
CONTINUOUS
10
93.8298
20
-142.933
11
93.8298
21
-142.552
0
LINE
8
BLACK
6
CONTINUOUS
10
93.8298
20
-142.552
11
93.7345
21
-142.076
0
LINE
8
BLACK
6
CONTINUOUS
10
93.7345
20
-142.076
11
93.6393
21
-141.79
0
LINE
8
BLACK
6
CONTINUOUS
10
93.6393
20
-141.79
11
93.544
21
-141.6
0
LINE
8
BLACK
6
CONTINUOUS
10
93.544
20
-141.6
11
93.3536
21
-141.314
0
LINE
8
BLACK
6
CONTINUOUS
10
93.3536
20
-141.314
11
93.2583
21
-141.219
  0
ENDSEC
  0
EOF
