%TF.GenerationSoftware,KiCad,Pcbnew,(6.0.0-0)*%
%TF.CreationDate,2023-04-30T11:44:53+02:00*%
%TF.ProjectId,litl,6c69746c-2e6b-4696-9361-645f70636258,rev?*%
%TF.SameCoordinates,Original*%
%TF.FileFunction,Legend,Top*%
%TF.FilePolarity,Positive*%
%FSLAX46Y46*%
G04 Gerber Fmt 4.6, Leading zero omitted, Abs format (unit mm)*
G04 Created by KiCad (PCBNEW (6.0.0-0)) date 2023-04-30 11:44:53*
%MOMM*%
%LPD*%
G01*
G04 APERTURE LIST*
%ADD10C,0.150000*%
%ADD11C,0.203200*%
%ADD12C,0.120000*%
%ADD13C,0.381000*%
%ADD14C,1.651000*%
%ADD15R,1.651000X1.651000*%
%ADD16R,1.752600X1.752600*%
%ADD17C,1.752600*%
%ADD18C,0.300000*%
%ADD19C,2.200000*%
%ADD20C,1.700000*%
%ADD21C,4.000000*%
%ADD22C,3.050000*%
%ADD23C,2.000000*%
%ADD24R,2.000000X2.000000*%
%ADD25R,2.000000X3.200000*%
%ADD26R,1.700000X1.700000*%
%ADD27O,1.700000X1.700000*%
G04 APERTURE END LIST*
D10*
X104788095Y-81627380D02*
X104788095Y-80627380D01*
X105026190Y-80627380D01*
X105169047Y-80675000D01*
X105264285Y-80770238D01*
X105311904Y-80865476D01*
X105359523Y-81055952D01*
X105359523Y-81198809D01*
X105311904Y-81389285D01*
X105264285Y-81484523D01*
X105169047Y-81579761D01*
X105026190Y-81627380D01*
X104788095Y-81627380D01*
X100060714Y-62003571D02*
X100394047Y-62003571D01*
X100536904Y-62527380D02*
X100060714Y-62527380D01*
X100060714Y-61527380D01*
X100536904Y-61527380D01*
X143511904Y-80675000D02*
X143416666Y-80627380D01*
X143273809Y-80627380D01*
X143130952Y-80675000D01*
X143035714Y-80770238D01*
X142988095Y-80865476D01*
X142940476Y-81055952D01*
X142940476Y-81198809D01*
X142988095Y-81389285D01*
X143035714Y-81484523D01*
X143130952Y-81579761D01*
X143273809Y-81627380D01*
X143369047Y-81627380D01*
X143511904Y-81579761D01*
X143559523Y-81532142D01*
X143559523Y-81198809D01*
X143369047Y-81198809D01*
X73774404Y-119827380D02*
X73202976Y-119827380D01*
X73488690Y-119827380D02*
X73488690Y-118827380D01*
X73393452Y-118970238D01*
X73298214Y-119065476D01*
X73202976Y-119113095D01*
X74202976Y-118827380D02*
X74202976Y-119636904D01*
X74250595Y-119732142D01*
X74298214Y-119779761D01*
X74393452Y-119827380D01*
X74583928Y-119827380D01*
X74679166Y-119779761D01*
X74726785Y-119732142D01*
X74774404Y-119636904D01*
X74774404Y-118827380D01*
X85664285Y-81579761D02*
X85807142Y-81627380D01*
X86045238Y-81627380D01*
X86140476Y-81579761D01*
X86188095Y-81532142D01*
X86235714Y-81436904D01*
X86235714Y-81341666D01*
X86188095Y-81246428D01*
X86140476Y-81198809D01*
X86045238Y-81151190D01*
X85854761Y-81103571D01*
X85759523Y-81055952D01*
X85711904Y-81008333D01*
X85664285Y-80913095D01*
X85664285Y-80817857D01*
X85711904Y-80722619D01*
X85759523Y-80675000D01*
X85854761Y-80627380D01*
X86092857Y-80627380D01*
X86235714Y-80675000D01*
X177062500Y-118922619D02*
X177110119Y-118875000D01*
X177205357Y-118827380D01*
X177443452Y-118827380D01*
X177538690Y-118875000D01*
X177586309Y-118922619D01*
X177633928Y-119017857D01*
X177633928Y-119113095D01*
X177586309Y-119255952D01*
X177014880Y-119827380D01*
X177633928Y-119827380D01*
X178062500Y-119732142D02*
X178110119Y-119779761D01*
X178062500Y-119827380D01*
X178014880Y-119779761D01*
X178062500Y-119732142D01*
X178062500Y-119827380D01*
X178443452Y-118827380D02*
X179110119Y-118827380D01*
X178681547Y-119827380D01*
X179967261Y-118827380D02*
X179491071Y-118827380D01*
X179443452Y-119303571D01*
X179491071Y-119255952D01*
X179586309Y-119208333D01*
X179824404Y-119208333D01*
X179919642Y-119255952D01*
X179967261Y-119303571D01*
X180014880Y-119398809D01*
X180014880Y-119636904D01*
X179967261Y-119732142D01*
X179919642Y-119779761D01*
X179824404Y-119827380D01*
X179586309Y-119827380D01*
X179491071Y-119779761D01*
X179443452Y-119732142D01*
X180443452Y-118827380D02*
X180443452Y-119636904D01*
X180491071Y-119732142D01*
X180538690Y-119779761D01*
X180633928Y-119827380D01*
X180824404Y-119827380D01*
X180919642Y-119779761D01*
X180967261Y-119732142D01*
X181014880Y-119636904D01*
X181014880Y-118827380D01*
X233713095Y-62527380D02*
X233713095Y-61527380D01*
X234094047Y-61527380D01*
X234189285Y-61575000D01*
X234236904Y-61622619D01*
X234284523Y-61717857D01*
X234284523Y-61860714D01*
X234236904Y-61955952D01*
X234189285Y-62003571D01*
X234094047Y-62051190D01*
X233713095Y-62051190D01*
X62455952Y-62622619D02*
X62360714Y-62575000D01*
X62265476Y-62479761D01*
X62122619Y-62336904D01*
X62027380Y-62289285D01*
X61932142Y-62289285D01*
X61979761Y-62527380D02*
X61884523Y-62479761D01*
X61789285Y-62384523D01*
X61741666Y-62194047D01*
X61741666Y-61860714D01*
X61789285Y-61670238D01*
X61884523Y-61575000D01*
X61979761Y-61527380D01*
X62170238Y-61527380D01*
X62265476Y-61575000D01*
X62360714Y-61670238D01*
X62408333Y-61860714D01*
X62408333Y-62194047D01*
X62360714Y-62384523D01*
X62265476Y-62479761D01*
X62170238Y-62527380D01*
X61979761Y-62527380D01*
X171614285Y-100727380D02*
X171614285Y-99727380D01*
X172185714Y-100727380D01*
X172185714Y-99727380D01*
X110212500Y-118922619D02*
X110260119Y-118875000D01*
X110355357Y-118827380D01*
X110593452Y-118827380D01*
X110688690Y-118875000D01*
X110736309Y-118922619D01*
X110783928Y-119017857D01*
X110783928Y-119113095D01*
X110736309Y-119255952D01*
X110164880Y-119827380D01*
X110783928Y-119827380D01*
X111212500Y-119732142D02*
X111260119Y-119779761D01*
X111212500Y-119827380D01*
X111164880Y-119779761D01*
X111212500Y-119732142D01*
X111212500Y-119827380D01*
X111641071Y-118922619D02*
X111688690Y-118875000D01*
X111783928Y-118827380D01*
X112022023Y-118827380D01*
X112117261Y-118875000D01*
X112164880Y-118922619D01*
X112212500Y-119017857D01*
X112212500Y-119113095D01*
X112164880Y-119255952D01*
X111593452Y-119827380D01*
X112212500Y-119827380D01*
X113117261Y-118827380D02*
X112641071Y-118827380D01*
X112593452Y-119303571D01*
X112641071Y-119255952D01*
X112736309Y-119208333D01*
X112974404Y-119208333D01*
X113069642Y-119255952D01*
X113117261Y-119303571D01*
X113164880Y-119398809D01*
X113164880Y-119636904D01*
X113117261Y-119732142D01*
X113069642Y-119779761D01*
X112974404Y-119827380D01*
X112736309Y-119827380D01*
X112641071Y-119779761D01*
X112593452Y-119732142D01*
X113593452Y-118827380D02*
X113593452Y-119636904D01*
X113641071Y-119732142D01*
X113688690Y-119779761D01*
X113783928Y-119827380D01*
X113974404Y-119827380D01*
X114069642Y-119779761D01*
X114117261Y-119732142D01*
X114164880Y-119636904D01*
X114164880Y-118827380D01*
X219959523Y-81627380D02*
X219483333Y-81627380D01*
X219483333Y-80627380D01*
X32329761Y-80727142D02*
X32282142Y-80774761D01*
X32139285Y-80822380D01*
X32044047Y-80822380D01*
X31901190Y-80774761D01*
X31805952Y-80679523D01*
X31758333Y-80584285D01*
X31710714Y-80393809D01*
X31710714Y-80250952D01*
X31758333Y-80060476D01*
X31805952Y-79965238D01*
X31901190Y-79870000D01*
X32044047Y-79822380D01*
X32139285Y-79822380D01*
X32282142Y-79870000D01*
X32329761Y-79917619D01*
X32710714Y-80536666D02*
X33186904Y-80536666D01*
X32615476Y-80822380D02*
X32948809Y-79822380D01*
X33282142Y-80822380D01*
X33615476Y-80822380D02*
X33615476Y-79822380D01*
X33996428Y-79822380D01*
X34091666Y-79870000D01*
X34139285Y-79917619D01*
X34186904Y-80012857D01*
X34186904Y-80155714D01*
X34139285Y-80250952D01*
X34091666Y-80298571D01*
X33996428Y-80346190D01*
X33615476Y-80346190D01*
X34567857Y-80774761D02*
X34710714Y-80822380D01*
X34948809Y-80822380D01*
X35044047Y-80774761D01*
X35091666Y-80727142D01*
X35139285Y-80631904D01*
X35139285Y-80536666D01*
X35091666Y-80441428D01*
X35044047Y-80393809D01*
X34948809Y-80346190D01*
X34758333Y-80298571D01*
X34663095Y-80250952D01*
X34615476Y-80203333D01*
X34567857Y-80108095D01*
X34567857Y-80012857D01*
X34615476Y-79917619D01*
X34663095Y-79870000D01*
X34758333Y-79822380D01*
X34996428Y-79822380D01*
X35139285Y-79870000D01*
X30353571Y-82384761D02*
X30496428Y-82432380D01*
X30734523Y-82432380D01*
X30829761Y-82384761D01*
X30877380Y-82337142D01*
X30925000Y-82241904D01*
X30925000Y-82146666D01*
X30877380Y-82051428D01*
X30829761Y-82003809D01*
X30734523Y-81956190D01*
X30544047Y-81908571D01*
X30448809Y-81860952D01*
X30401190Y-81813333D01*
X30353571Y-81718095D01*
X30353571Y-81622857D01*
X30401190Y-81527619D01*
X30448809Y-81480000D01*
X30544047Y-81432380D01*
X30782142Y-81432380D01*
X30925000Y-81480000D01*
X31210714Y-81432380D02*
X31782142Y-81432380D01*
X31496428Y-82432380D02*
X31496428Y-81432380D01*
X32115476Y-81908571D02*
X32448809Y-81908571D01*
X32591666Y-82432380D02*
X32115476Y-82432380D01*
X32115476Y-81432380D01*
X32591666Y-81432380D01*
X33020238Y-82432380D02*
X33020238Y-81432380D01*
X33401190Y-81432380D01*
X33496428Y-81480000D01*
X33544047Y-81527619D01*
X33591666Y-81622857D01*
X33591666Y-81765714D01*
X33544047Y-81860952D01*
X33496428Y-81908571D01*
X33401190Y-81956190D01*
X33020238Y-81956190D01*
X34020238Y-82432380D02*
X34020238Y-81432380D01*
X34401190Y-81432380D01*
X34496428Y-81480000D01*
X34544047Y-81527619D01*
X34591666Y-81622857D01*
X34591666Y-81765714D01*
X34544047Y-81860952D01*
X34496428Y-81908571D01*
X34401190Y-81956190D01*
X34020238Y-81956190D01*
X35020238Y-81908571D02*
X35353571Y-81908571D01*
X35496428Y-82432380D02*
X35020238Y-82432380D01*
X35020238Y-81432380D01*
X35496428Y-81432380D01*
X35925000Y-82432380D02*
X35925000Y-81432380D01*
X36163095Y-81432380D01*
X36305952Y-81480000D01*
X36401190Y-81575238D01*
X36448809Y-81670476D01*
X36496428Y-81860952D01*
X36496428Y-82003809D01*
X36448809Y-82194285D01*
X36401190Y-82289523D01*
X36305952Y-82384761D01*
X36163095Y-82432380D01*
X35925000Y-82432380D01*
X138189285Y-61527380D02*
X138760714Y-61527380D01*
X138475000Y-62527380D02*
X138475000Y-61527380D01*
X114909523Y-100632142D02*
X114861904Y-100679761D01*
X114719047Y-100727380D01*
X114623809Y-100727380D01*
X114480952Y-100679761D01*
X114385714Y-100584523D01*
X114338095Y-100489285D01*
X114290476Y-100298809D01*
X114290476Y-100155952D01*
X114338095Y-99965476D01*
X114385714Y-99870238D01*
X114480952Y-99775000D01*
X114623809Y-99727380D01*
X114719047Y-99727380D01*
X114861904Y-99775000D01*
X114909523Y-99822619D01*
X176389285Y-61527380D02*
X176389285Y-62336904D01*
X176436904Y-62432142D01*
X176484523Y-62479761D01*
X176579761Y-62527380D01*
X176770238Y-62527380D01*
X176865476Y-62479761D01*
X176913095Y-62432142D01*
X176960714Y-62336904D01*
X176960714Y-61527380D01*
X258808928Y-80822380D02*
X258237500Y-80822380D01*
X258523214Y-80822380D02*
X258523214Y-79822380D01*
X258427976Y-79965238D01*
X258332738Y-80060476D01*
X258237500Y-80108095D01*
X259237500Y-80727142D02*
X259285119Y-80774761D01*
X259237500Y-80822380D01*
X259189880Y-80774761D01*
X259237500Y-80727142D01*
X259237500Y-80822380D01*
X259666071Y-79917619D02*
X259713690Y-79870000D01*
X259808928Y-79822380D01*
X260047023Y-79822380D01*
X260142261Y-79870000D01*
X260189880Y-79917619D01*
X260237500Y-80012857D01*
X260237500Y-80108095D01*
X260189880Y-80250952D01*
X259618452Y-80822380D01*
X260237500Y-80822380D01*
X261142261Y-79822380D02*
X260666071Y-79822380D01*
X260618452Y-80298571D01*
X260666071Y-80250952D01*
X260761309Y-80203333D01*
X260999404Y-80203333D01*
X261094642Y-80250952D01*
X261142261Y-80298571D01*
X261189880Y-80393809D01*
X261189880Y-80631904D01*
X261142261Y-80727142D01*
X261094642Y-80774761D01*
X260999404Y-80822380D01*
X260761309Y-80822380D01*
X260666071Y-80774761D01*
X260618452Y-80727142D01*
X261618452Y-79822380D02*
X261618452Y-80631904D01*
X261666071Y-80727142D01*
X261713690Y-80774761D01*
X261808928Y-80822380D01*
X261999404Y-80822380D01*
X262094642Y-80774761D01*
X262142261Y-80727142D01*
X262189880Y-80631904D01*
X262189880Y-79822380D01*
X258427976Y-82384761D02*
X258570833Y-82432380D01*
X258808928Y-82432380D01*
X258904166Y-82384761D01*
X258951785Y-82337142D01*
X258999404Y-82241904D01*
X258999404Y-82146666D01*
X258951785Y-82051428D01*
X258904166Y-82003809D01*
X258808928Y-81956190D01*
X258618452Y-81908571D01*
X258523214Y-81860952D01*
X258475595Y-81813333D01*
X258427976Y-81718095D01*
X258427976Y-81622857D01*
X258475595Y-81527619D01*
X258523214Y-81480000D01*
X258618452Y-81432380D01*
X258856547Y-81432380D01*
X258999404Y-81480000D01*
X259427976Y-82432380D02*
X259427976Y-81432380D01*
X259808928Y-81432380D01*
X259904166Y-81480000D01*
X259951785Y-81527619D01*
X259999404Y-81622857D01*
X259999404Y-81765714D01*
X259951785Y-81860952D01*
X259904166Y-81908571D01*
X259808928Y-81956190D01*
X259427976Y-81956190D01*
X260904166Y-82432380D02*
X260427976Y-82432380D01*
X260427976Y-81432380D01*
X261237500Y-82432380D02*
X261237500Y-81432380D01*
X261570833Y-81432380D02*
X262142261Y-81432380D01*
X261856547Y-82432380D02*
X261856547Y-81432380D01*
X256445238Y-61198571D02*
X256588095Y-61246190D01*
X256635714Y-61293809D01*
X256683333Y-61389047D01*
X256683333Y-61531904D01*
X256635714Y-61627142D01*
X256588095Y-61674761D01*
X256492857Y-61722380D01*
X256111904Y-61722380D01*
X256111904Y-60722380D01*
X256445238Y-60722380D01*
X256540476Y-60770000D01*
X256588095Y-60817619D01*
X256635714Y-60912857D01*
X256635714Y-61008095D01*
X256588095Y-61103333D01*
X256540476Y-61150952D01*
X256445238Y-61198571D01*
X256111904Y-61198571D01*
X257111904Y-61722380D02*
X257111904Y-60722380D01*
X257683333Y-61722380D02*
X257254761Y-61150952D01*
X257683333Y-60722380D02*
X257111904Y-61293809D01*
X258064285Y-61674761D02*
X258207142Y-61722380D01*
X258445238Y-61722380D01*
X258540476Y-61674761D01*
X258588095Y-61627142D01*
X258635714Y-61531904D01*
X258635714Y-61436666D01*
X258588095Y-61341428D01*
X258540476Y-61293809D01*
X258445238Y-61246190D01*
X258254761Y-61198571D01*
X258159523Y-61150952D01*
X258111904Y-61103333D01*
X258064285Y-61008095D01*
X258064285Y-60912857D01*
X258111904Y-60817619D01*
X258159523Y-60770000D01*
X258254761Y-60722380D01*
X258492857Y-60722380D01*
X258635714Y-60770000D01*
X259064285Y-61722380D02*
X259064285Y-60722380D01*
X259445238Y-60722380D01*
X259540476Y-60770000D01*
X259588095Y-60817619D01*
X259635714Y-60912857D01*
X259635714Y-61055714D01*
X259588095Y-61150952D01*
X259540476Y-61198571D01*
X259445238Y-61246190D01*
X259064285Y-61246190D01*
X256897619Y-63332380D02*
X256326190Y-63332380D01*
X256611904Y-63332380D02*
X256611904Y-62332380D01*
X256516666Y-62475238D01*
X256421428Y-62570476D01*
X256326190Y-62618095D01*
X257326190Y-63237142D02*
X257373809Y-63284761D01*
X257326190Y-63332380D01*
X257278571Y-63284761D01*
X257326190Y-63237142D01*
X257326190Y-63332380D01*
X258278571Y-62332380D02*
X257802380Y-62332380D01*
X257754761Y-62808571D01*
X257802380Y-62760952D01*
X257897619Y-62713333D01*
X258135714Y-62713333D01*
X258230952Y-62760952D01*
X258278571Y-62808571D01*
X258326190Y-62903809D01*
X258326190Y-63141904D01*
X258278571Y-63237142D01*
X258230952Y-63284761D01*
X258135714Y-63332380D01*
X257897619Y-63332380D01*
X257802380Y-63284761D01*
X257754761Y-63237142D01*
X258754761Y-62332380D02*
X258754761Y-63141904D01*
X258802380Y-63237142D01*
X258850000Y-63284761D01*
X258945238Y-63332380D01*
X259135714Y-63332380D01*
X259230952Y-63284761D01*
X259278571Y-63237142D01*
X259326190Y-63141904D01*
X259326190Y-62332380D01*
X181592857Y-80627380D02*
X181592857Y-81341666D01*
X181545238Y-81484523D01*
X181450000Y-81579761D01*
X181307142Y-81627380D01*
X181211904Y-81627380D01*
X254033928Y-100727380D02*
X253462500Y-100727380D01*
X253748214Y-100727380D02*
X253748214Y-99727380D01*
X253652976Y-99870238D01*
X253557738Y-99965476D01*
X253462500Y-100013095D01*
X254462500Y-100632142D02*
X254510119Y-100679761D01*
X254462500Y-100727380D01*
X254414880Y-100679761D01*
X254462500Y-100632142D01*
X254462500Y-100727380D01*
X254843452Y-99727380D02*
X255510119Y-99727380D01*
X255081547Y-100727380D01*
X256367261Y-99727380D02*
X255891071Y-99727380D01*
X255843452Y-100203571D01*
X255891071Y-100155952D01*
X255986309Y-100108333D01*
X256224404Y-100108333D01*
X256319642Y-100155952D01*
X256367261Y-100203571D01*
X256414880Y-100298809D01*
X256414880Y-100536904D01*
X256367261Y-100632142D01*
X256319642Y-100679761D01*
X256224404Y-100727380D01*
X255986309Y-100727380D01*
X255891071Y-100679761D01*
X255843452Y-100632142D01*
X256843452Y-99727380D02*
X256843452Y-100536904D01*
X256891071Y-100632142D01*
X256938690Y-100679761D01*
X257033928Y-100727380D01*
X257224404Y-100727380D01*
X257319642Y-100679761D01*
X257367261Y-100632142D01*
X257414880Y-100536904D01*
X257414880Y-99727380D01*
X95166666Y-99727380D02*
X95833333Y-100727380D01*
X95833333Y-99727380D02*
X95166666Y-100727380D01*
X215833928Y-119827380D02*
X215262500Y-119827380D01*
X215548214Y-119827380D02*
X215548214Y-118827380D01*
X215452976Y-118970238D01*
X215357738Y-119065476D01*
X215262500Y-119113095D01*
X216262500Y-119732142D02*
X216310119Y-119779761D01*
X216262500Y-119827380D01*
X216214880Y-119779761D01*
X216262500Y-119732142D01*
X216262500Y-119827380D01*
X216691071Y-118922619D02*
X216738690Y-118875000D01*
X216833928Y-118827380D01*
X217072023Y-118827380D01*
X217167261Y-118875000D01*
X217214880Y-118922619D01*
X217262500Y-119017857D01*
X217262500Y-119113095D01*
X217214880Y-119255952D01*
X216643452Y-119827380D01*
X217262500Y-119827380D01*
X218167261Y-118827380D02*
X217691071Y-118827380D01*
X217643452Y-119303571D01*
X217691071Y-119255952D01*
X217786309Y-119208333D01*
X218024404Y-119208333D01*
X218119642Y-119255952D01*
X218167261Y-119303571D01*
X218214880Y-119398809D01*
X218214880Y-119636904D01*
X218167261Y-119732142D01*
X218119642Y-119779761D01*
X218024404Y-119827380D01*
X217786309Y-119827380D01*
X217691071Y-119779761D01*
X217643452Y-119732142D01*
X218643452Y-118827380D02*
X218643452Y-119636904D01*
X218691071Y-119732142D01*
X218738690Y-119779761D01*
X218833928Y-119827380D01*
X219024404Y-119827380D01*
X219119642Y-119779761D01*
X219167261Y-119732142D01*
X219214880Y-119636904D01*
X219214880Y-118827380D01*
X37009523Y-61198571D02*
X37342857Y-61198571D01*
X37485714Y-61722380D02*
X37009523Y-61722380D01*
X37009523Y-60722380D01*
X37485714Y-60722380D01*
X37866666Y-61674761D02*
X38009523Y-61722380D01*
X38247619Y-61722380D01*
X38342857Y-61674761D01*
X38390476Y-61627142D01*
X38438095Y-61531904D01*
X38438095Y-61436666D01*
X38390476Y-61341428D01*
X38342857Y-61293809D01*
X38247619Y-61246190D01*
X38057142Y-61198571D01*
X37961904Y-61150952D01*
X37914285Y-61103333D01*
X37866666Y-61008095D01*
X37866666Y-60912857D01*
X37914285Y-60817619D01*
X37961904Y-60770000D01*
X38057142Y-60722380D01*
X38295238Y-60722380D01*
X38438095Y-60770000D01*
X39438095Y-61627142D02*
X39390476Y-61674761D01*
X39247619Y-61722380D01*
X39152380Y-61722380D01*
X39009523Y-61674761D01*
X38914285Y-61579523D01*
X38866666Y-61484285D01*
X38819047Y-61293809D01*
X38819047Y-61150952D01*
X38866666Y-60960476D01*
X38914285Y-60865238D01*
X39009523Y-60770000D01*
X39152380Y-60722380D01*
X39247619Y-60722380D01*
X39390476Y-60770000D01*
X39438095Y-60817619D01*
X37247619Y-63332380D02*
X36676190Y-63332380D01*
X36961904Y-63332380D02*
X36961904Y-62332380D01*
X36866666Y-62475238D01*
X36771428Y-62570476D01*
X36676190Y-62618095D01*
X37676190Y-63237142D02*
X37723809Y-63284761D01*
X37676190Y-63332380D01*
X37628571Y-63284761D01*
X37676190Y-63237142D01*
X37676190Y-63332380D01*
X38628571Y-62332380D02*
X38152380Y-62332380D01*
X38104761Y-62808571D01*
X38152380Y-62760952D01*
X38247619Y-62713333D01*
X38485714Y-62713333D01*
X38580952Y-62760952D01*
X38628571Y-62808571D01*
X38676190Y-62903809D01*
X38676190Y-63141904D01*
X38628571Y-63237142D01*
X38580952Y-63284761D01*
X38485714Y-63332380D01*
X38247619Y-63332380D01*
X38152380Y-63284761D01*
X38104761Y-63237142D01*
X39104761Y-62332380D02*
X39104761Y-63141904D01*
X39152380Y-63237142D01*
X39200000Y-63284761D01*
X39295238Y-63332380D01*
X39485714Y-63332380D01*
X39580952Y-63284761D01*
X39628571Y-63237142D01*
X39676190Y-63141904D01*
X39676190Y-62332380D01*
X238583333Y-80822380D02*
X238011904Y-80822380D01*
X238297619Y-80822380D02*
X238297619Y-79822380D01*
X238202380Y-79965238D01*
X238107142Y-80060476D01*
X238011904Y-80108095D01*
X239440476Y-80155714D02*
X239440476Y-80822380D01*
X239011904Y-80155714D02*
X239011904Y-80679523D01*
X239059523Y-80774761D01*
X239154761Y-80822380D01*
X239297619Y-80822380D01*
X239392857Y-80774761D01*
X239440476Y-80727142D01*
X236940476Y-82384761D02*
X237083333Y-82432380D01*
X237321428Y-82432380D01*
X237416666Y-82384761D01*
X237464285Y-82337142D01*
X237511904Y-82241904D01*
X237511904Y-82146666D01*
X237464285Y-82051428D01*
X237416666Y-82003809D01*
X237321428Y-81956190D01*
X237130952Y-81908571D01*
X237035714Y-81860952D01*
X236988095Y-81813333D01*
X236940476Y-81718095D01*
X236940476Y-81622857D01*
X236988095Y-81527619D01*
X237035714Y-81480000D01*
X237130952Y-81432380D01*
X237369047Y-81432380D01*
X237511904Y-81480000D01*
X237940476Y-82432380D02*
X237940476Y-81432380D01*
X238321428Y-81432380D01*
X238416666Y-81480000D01*
X238464285Y-81527619D01*
X238511904Y-81622857D01*
X238511904Y-81765714D01*
X238464285Y-81860952D01*
X238416666Y-81908571D01*
X238321428Y-81956190D01*
X237940476Y-81956190D01*
X239416666Y-82432380D02*
X238940476Y-82432380D01*
X238940476Y-81432380D01*
X239750000Y-82432380D02*
X239750000Y-81432380D01*
X240083333Y-81432380D02*
X240654761Y-81432380D01*
X240369047Y-82432380D02*
X240369047Y-81432380D01*
X238511904Y-119827380D02*
X237940476Y-119827380D01*
X238226190Y-119827380D02*
X238226190Y-118827380D01*
X238130952Y-118970238D01*
X238035714Y-119065476D01*
X237940476Y-119113095D01*
X238940476Y-118827380D02*
X238940476Y-119636904D01*
X238988095Y-119732142D01*
X239035714Y-119779761D01*
X239130952Y-119827380D01*
X239321428Y-119827380D01*
X239416666Y-119779761D01*
X239464285Y-119732142D01*
X239511904Y-119636904D01*
X239511904Y-118827380D01*
X34383928Y-99922380D02*
X33812500Y-99922380D01*
X34098214Y-99922380D02*
X34098214Y-98922380D01*
X34002976Y-99065238D01*
X33907738Y-99160476D01*
X33812500Y-99208095D01*
X34812500Y-99827142D02*
X34860119Y-99874761D01*
X34812500Y-99922380D01*
X34764880Y-99874761D01*
X34812500Y-99827142D01*
X34812500Y-99922380D01*
X35241071Y-99017619D02*
X35288690Y-98970000D01*
X35383928Y-98922380D01*
X35622023Y-98922380D01*
X35717261Y-98970000D01*
X35764880Y-99017619D01*
X35812500Y-99112857D01*
X35812500Y-99208095D01*
X35764880Y-99350952D01*
X35193452Y-99922380D01*
X35812500Y-99922380D01*
X36717261Y-98922380D02*
X36241071Y-98922380D01*
X36193452Y-99398571D01*
X36241071Y-99350952D01*
X36336309Y-99303333D01*
X36574404Y-99303333D01*
X36669642Y-99350952D01*
X36717261Y-99398571D01*
X36764880Y-99493809D01*
X36764880Y-99731904D01*
X36717261Y-99827142D01*
X36669642Y-99874761D01*
X36574404Y-99922380D01*
X36336309Y-99922380D01*
X36241071Y-99874761D01*
X36193452Y-99827142D01*
X37193452Y-98922380D02*
X37193452Y-99731904D01*
X37241071Y-99827142D01*
X37288690Y-99874761D01*
X37383928Y-99922380D01*
X37574404Y-99922380D01*
X37669642Y-99874761D01*
X37717261Y-99827142D01*
X37764880Y-99731904D01*
X37764880Y-98922380D01*
X34002976Y-101484761D02*
X34145833Y-101532380D01*
X34383928Y-101532380D01*
X34479166Y-101484761D01*
X34526785Y-101437142D01*
X34574404Y-101341904D01*
X34574404Y-101246666D01*
X34526785Y-101151428D01*
X34479166Y-101103809D01*
X34383928Y-101056190D01*
X34193452Y-101008571D01*
X34098214Y-100960952D01*
X34050595Y-100913333D01*
X34002976Y-100818095D01*
X34002976Y-100722857D01*
X34050595Y-100627619D01*
X34098214Y-100580000D01*
X34193452Y-100532380D01*
X34431547Y-100532380D01*
X34574404Y-100580000D01*
X35002976Y-101532380D02*
X35002976Y-100532380D01*
X35383928Y-100532380D01*
X35479166Y-100580000D01*
X35526785Y-100627619D01*
X35574404Y-100722857D01*
X35574404Y-100865714D01*
X35526785Y-100960952D01*
X35479166Y-101008571D01*
X35383928Y-101056190D01*
X35002976Y-101056190D01*
X36479166Y-101532380D02*
X36002976Y-101532380D01*
X36002976Y-100532380D01*
X36812500Y-101532380D02*
X36812500Y-100532380D01*
X37145833Y-100532380D02*
X37717261Y-100532380D01*
X37431547Y-101532380D02*
X37431547Y-100532380D01*
X133366666Y-99727380D02*
X133700000Y-100727380D01*
X134033333Y-99727380D01*
X80746428Y-61527380D02*
X80984523Y-62527380D01*
X81175000Y-61813095D01*
X81365476Y-62527380D01*
X81603571Y-61527380D01*
X43362500Y-99017619D02*
X43410119Y-98970000D01*
X43505357Y-98922380D01*
X43743452Y-98922380D01*
X43838690Y-98970000D01*
X43886309Y-99017619D01*
X43933928Y-99112857D01*
X43933928Y-99208095D01*
X43886309Y-99350952D01*
X43314880Y-99922380D01*
X43933928Y-99922380D01*
X44362500Y-99827142D02*
X44410119Y-99874761D01*
X44362500Y-99922380D01*
X44314880Y-99874761D01*
X44362500Y-99827142D01*
X44362500Y-99922380D01*
X44791071Y-99017619D02*
X44838690Y-98970000D01*
X44933928Y-98922380D01*
X45172023Y-98922380D01*
X45267261Y-98970000D01*
X45314880Y-99017619D01*
X45362500Y-99112857D01*
X45362500Y-99208095D01*
X45314880Y-99350952D01*
X44743452Y-99922380D01*
X45362500Y-99922380D01*
X46267261Y-98922380D02*
X45791071Y-98922380D01*
X45743452Y-99398571D01*
X45791071Y-99350952D01*
X45886309Y-99303333D01*
X46124404Y-99303333D01*
X46219642Y-99350952D01*
X46267261Y-99398571D01*
X46314880Y-99493809D01*
X46314880Y-99731904D01*
X46267261Y-99827142D01*
X46219642Y-99874761D01*
X46124404Y-99922380D01*
X45886309Y-99922380D01*
X45791071Y-99874761D01*
X45743452Y-99827142D01*
X46743452Y-98922380D02*
X46743452Y-99731904D01*
X46791071Y-99827142D01*
X46838690Y-99874761D01*
X46933928Y-99922380D01*
X47124404Y-99922380D01*
X47219642Y-99874761D01*
X47267261Y-99827142D01*
X47314880Y-99731904D01*
X47314880Y-98922380D01*
X44195833Y-101484761D02*
X44338690Y-101532380D01*
X44576785Y-101532380D01*
X44672023Y-101484761D01*
X44719642Y-101437142D01*
X44767261Y-101341904D01*
X44767261Y-101246666D01*
X44719642Y-101151428D01*
X44672023Y-101103809D01*
X44576785Y-101056190D01*
X44386309Y-101008571D01*
X44291071Y-100960952D01*
X44243452Y-100913333D01*
X44195833Y-100818095D01*
X44195833Y-100722857D01*
X44243452Y-100627619D01*
X44291071Y-100580000D01*
X44386309Y-100532380D01*
X44624404Y-100532380D01*
X44767261Y-100580000D01*
X45052976Y-100532380D02*
X45624404Y-100532380D01*
X45338690Y-101532380D02*
X45338690Y-100532380D01*
X45957738Y-101532380D02*
X45957738Y-100532380D01*
X46195833Y-100532380D01*
X46338690Y-100580000D01*
X46433928Y-100675238D01*
X46481547Y-100770476D01*
X46529166Y-100960952D01*
X46529166Y-101103809D01*
X46481547Y-101294285D01*
X46433928Y-101389523D01*
X46338690Y-101484761D01*
X46195833Y-101532380D01*
X45957738Y-101532380D01*
X229200000Y-100632142D02*
X229247619Y-100679761D01*
X229200000Y-100727380D01*
X229152380Y-100679761D01*
X229200000Y-100632142D01*
X229200000Y-100727380D01*
X190666666Y-100727380D02*
X190666666Y-99727380D01*
X191000000Y-100441666D01*
X191333333Y-99727380D01*
X191333333Y-100727380D01*
X214779761Y-61527380D02*
X214970238Y-61527380D01*
X215065476Y-61575000D01*
X215160714Y-61670238D01*
X215208333Y-61860714D01*
X215208333Y-62194047D01*
X215160714Y-62384523D01*
X215065476Y-62479761D01*
X214970238Y-62527380D01*
X214779761Y-62527380D01*
X214684523Y-62479761D01*
X214589285Y-62384523D01*
X214541666Y-62194047D01*
X214541666Y-61860714D01*
X214589285Y-61670238D01*
X214684523Y-61575000D01*
X214779761Y-61527380D01*
X258808928Y-119827380D02*
X258237500Y-119827380D01*
X258523214Y-119827380D02*
X258523214Y-118827380D01*
X258427976Y-118970238D01*
X258332738Y-119065476D01*
X258237500Y-119113095D01*
X259237500Y-119732142D02*
X259285119Y-119779761D01*
X259237500Y-119827380D01*
X259189880Y-119779761D01*
X259237500Y-119732142D01*
X259237500Y-119827380D01*
X259666071Y-118922619D02*
X259713690Y-118875000D01*
X259808928Y-118827380D01*
X260047023Y-118827380D01*
X260142261Y-118875000D01*
X260189880Y-118922619D01*
X260237500Y-119017857D01*
X260237500Y-119113095D01*
X260189880Y-119255952D01*
X259618452Y-119827380D01*
X260237500Y-119827380D01*
X261142261Y-118827380D02*
X260666071Y-118827380D01*
X260618452Y-119303571D01*
X260666071Y-119255952D01*
X260761309Y-119208333D01*
X260999404Y-119208333D01*
X261094642Y-119255952D01*
X261142261Y-119303571D01*
X261189880Y-119398809D01*
X261189880Y-119636904D01*
X261142261Y-119732142D01*
X261094642Y-119779761D01*
X260999404Y-119827380D01*
X260761309Y-119827380D01*
X260666071Y-119779761D01*
X260618452Y-119732142D01*
X261618452Y-118827380D02*
X261618452Y-119636904D01*
X261666071Y-119732142D01*
X261713690Y-119779761D01*
X261808928Y-119827380D01*
X261999404Y-119827380D01*
X262094642Y-119779761D01*
X262142261Y-119732142D01*
X262189880Y-119636904D01*
X262189880Y-118827380D01*
X66611904Y-81341666D02*
X67088095Y-81341666D01*
X66516666Y-81627380D02*
X66850000Y-80627380D01*
X67183333Y-81627380D01*
X152871428Y-100203571D02*
X153014285Y-100251190D01*
X153061904Y-100298809D01*
X153109523Y-100394047D01*
X153109523Y-100536904D01*
X153061904Y-100632142D01*
X153014285Y-100679761D01*
X152919047Y-100727380D01*
X152538095Y-100727380D01*
X152538095Y-99727380D01*
X152871428Y-99727380D01*
X152966666Y-99775000D01*
X153014285Y-99822619D01*
X153061904Y-99917857D01*
X153061904Y-100013095D01*
X153014285Y-100108333D01*
X152966666Y-100155952D01*
X152871428Y-100203571D01*
X152538095Y-100203571D01*
X200288095Y-81627380D02*
X200288095Y-80627380D01*
X200859523Y-81627380D02*
X200430952Y-81055952D01*
X200859523Y-80627380D02*
X200288095Y-81198809D01*
X57061904Y-119827380D02*
X56490476Y-119827380D01*
X56776190Y-119827380D02*
X56776190Y-118827380D01*
X56680952Y-118970238D01*
X56585714Y-119065476D01*
X56490476Y-119113095D01*
X57490476Y-118827380D02*
X57490476Y-119636904D01*
X57538095Y-119732142D01*
X57585714Y-119779761D01*
X57680952Y-119827380D01*
X57871428Y-119827380D01*
X57966666Y-119779761D01*
X58014285Y-119732142D01*
X58061904Y-119636904D01*
X58061904Y-118827380D01*
X144113690Y-118827380D02*
X143923214Y-118827380D01*
X143827976Y-118875000D01*
X143780357Y-118922619D01*
X143685119Y-119065476D01*
X143637500Y-119255952D01*
X143637500Y-119636904D01*
X143685119Y-119732142D01*
X143732738Y-119779761D01*
X143827976Y-119827380D01*
X144018452Y-119827380D01*
X144113690Y-119779761D01*
X144161309Y-119732142D01*
X144208928Y-119636904D01*
X144208928Y-119398809D01*
X144161309Y-119303571D01*
X144113690Y-119255952D01*
X144018452Y-119208333D01*
X143827976Y-119208333D01*
X143732738Y-119255952D01*
X143685119Y-119303571D01*
X143637500Y-119398809D01*
X144637500Y-119732142D02*
X144685119Y-119779761D01*
X144637500Y-119827380D01*
X144589880Y-119779761D01*
X144637500Y-119732142D01*
X144637500Y-119827380D01*
X145066071Y-118922619D02*
X145113690Y-118875000D01*
X145208928Y-118827380D01*
X145447023Y-118827380D01*
X145542261Y-118875000D01*
X145589880Y-118922619D01*
X145637500Y-119017857D01*
X145637500Y-119113095D01*
X145589880Y-119255952D01*
X145018452Y-119827380D01*
X145637500Y-119827380D01*
X146542261Y-118827380D02*
X146066071Y-118827380D01*
X146018452Y-119303571D01*
X146066071Y-119255952D01*
X146161309Y-119208333D01*
X146399404Y-119208333D01*
X146494642Y-119255952D01*
X146542261Y-119303571D01*
X146589880Y-119398809D01*
X146589880Y-119636904D01*
X146542261Y-119732142D01*
X146494642Y-119779761D01*
X146399404Y-119827380D01*
X146161309Y-119827380D01*
X146066071Y-119779761D01*
X146018452Y-119732142D01*
X147018452Y-118827380D02*
X147018452Y-119636904D01*
X147066071Y-119732142D01*
X147113690Y-119779761D01*
X147208928Y-119827380D01*
X147399404Y-119827380D01*
X147494642Y-119779761D01*
X147542261Y-119732142D01*
X147589880Y-119636904D01*
X147589880Y-118827380D01*
X76066666Y-99727380D02*
X76733333Y-99727380D01*
X76066666Y-100727380D01*
X76733333Y-100727380D01*
X57061904Y-99922380D02*
X56490476Y-99922380D01*
X56776190Y-99922380D02*
X56776190Y-98922380D01*
X56680952Y-99065238D01*
X56585714Y-99160476D01*
X56490476Y-99208095D01*
X57490476Y-98922380D02*
X57490476Y-99731904D01*
X57538095Y-99827142D01*
X57585714Y-99874761D01*
X57680952Y-99922380D01*
X57871428Y-99922380D01*
X57966666Y-99874761D01*
X58014285Y-99827142D01*
X58061904Y-99731904D01*
X58061904Y-98922380D01*
X55490476Y-101484761D02*
X55633333Y-101532380D01*
X55871428Y-101532380D01*
X55966666Y-101484761D01*
X56014285Y-101437142D01*
X56061904Y-101341904D01*
X56061904Y-101246666D01*
X56014285Y-101151428D01*
X55966666Y-101103809D01*
X55871428Y-101056190D01*
X55680952Y-101008571D01*
X55585714Y-100960952D01*
X55538095Y-100913333D01*
X55490476Y-100818095D01*
X55490476Y-100722857D01*
X55538095Y-100627619D01*
X55585714Y-100580000D01*
X55680952Y-100532380D01*
X55919047Y-100532380D01*
X56061904Y-100580000D01*
X56490476Y-101532380D02*
X56490476Y-100532380D01*
X56871428Y-100532380D01*
X56966666Y-100580000D01*
X57014285Y-100627619D01*
X57061904Y-100722857D01*
X57061904Y-100865714D01*
X57014285Y-100960952D01*
X56966666Y-101008571D01*
X56871428Y-101056190D01*
X56490476Y-101056190D01*
X57966666Y-101532380D02*
X57490476Y-101532380D01*
X57490476Y-100532380D01*
X58300000Y-101532380D02*
X58300000Y-100532380D01*
X58633333Y-100532380D02*
X59204761Y-100532380D01*
X58919047Y-101532380D02*
X58919047Y-100532380D01*
X39492261Y-80727142D02*
X39444642Y-80774761D01*
X39301785Y-80822380D01*
X39206547Y-80822380D01*
X39063690Y-80774761D01*
X38968452Y-80679523D01*
X38920833Y-80584285D01*
X38873214Y-80393809D01*
X38873214Y-80250952D01*
X38920833Y-80060476D01*
X38968452Y-79965238D01*
X39063690Y-79870000D01*
X39206547Y-79822380D01*
X39301785Y-79822380D01*
X39444642Y-79870000D01*
X39492261Y-79917619D01*
X39873214Y-80536666D02*
X40349404Y-80536666D01*
X39777976Y-80822380D02*
X40111309Y-79822380D01*
X40444642Y-80822380D01*
X40777976Y-80822380D02*
X40777976Y-79822380D01*
X41158928Y-79822380D01*
X41254166Y-79870000D01*
X41301785Y-79917619D01*
X41349404Y-80012857D01*
X41349404Y-80155714D01*
X41301785Y-80250952D01*
X41254166Y-80298571D01*
X41158928Y-80346190D01*
X40777976Y-80346190D01*
X41730357Y-80774761D02*
X41873214Y-80822380D01*
X42111309Y-80822380D01*
X42206547Y-80774761D01*
X42254166Y-80727142D01*
X42301785Y-80631904D01*
X42301785Y-80536666D01*
X42254166Y-80441428D01*
X42206547Y-80393809D01*
X42111309Y-80346190D01*
X41920833Y-80298571D01*
X41825595Y-80250952D01*
X41777976Y-80203333D01*
X41730357Y-80108095D01*
X41730357Y-80012857D01*
X41777976Y-79917619D01*
X41825595Y-79870000D01*
X41920833Y-79822380D01*
X42158928Y-79822380D01*
X42301785Y-79870000D01*
X39420833Y-82384761D02*
X39563690Y-82432380D01*
X39801785Y-82432380D01*
X39897023Y-82384761D01*
X39944642Y-82337142D01*
X39992261Y-82241904D01*
X39992261Y-82146666D01*
X39944642Y-82051428D01*
X39897023Y-82003809D01*
X39801785Y-81956190D01*
X39611309Y-81908571D01*
X39516071Y-81860952D01*
X39468452Y-81813333D01*
X39420833Y-81718095D01*
X39420833Y-81622857D01*
X39468452Y-81527619D01*
X39516071Y-81480000D01*
X39611309Y-81432380D01*
X39849404Y-81432380D01*
X39992261Y-81480000D01*
X40277976Y-81432380D02*
X40849404Y-81432380D01*
X40563690Y-82432380D02*
X40563690Y-81432380D01*
X41182738Y-82432380D02*
X41182738Y-81432380D01*
X41420833Y-81432380D01*
X41563690Y-81480000D01*
X41658928Y-81575238D01*
X41706547Y-81670476D01*
X41754166Y-81860952D01*
X41754166Y-82003809D01*
X41706547Y-82194285D01*
X41658928Y-82289523D01*
X41563690Y-82384761D01*
X41420833Y-82432380D01*
X41182738Y-82432380D01*
X162064285Y-81627380D02*
X162064285Y-80627380D01*
X162064285Y-81103571D02*
X162635714Y-81103571D01*
X162635714Y-81627380D02*
X162635714Y-80627380D01*
X124292857Y-81103571D02*
X123959523Y-81103571D01*
X123959523Y-81627380D02*
X123959523Y-80627380D01*
X124435714Y-80627380D01*
X77358928Y-119827380D02*
X76787500Y-119827380D01*
X77073214Y-119827380D02*
X77073214Y-118827380D01*
X76977976Y-118970238D01*
X76882738Y-119065476D01*
X76787500Y-119113095D01*
X77787500Y-119732142D02*
X77835119Y-119779761D01*
X77787500Y-119827380D01*
X77739880Y-119779761D01*
X77787500Y-119732142D01*
X77787500Y-119827380D01*
X78216071Y-118922619D02*
X78263690Y-118875000D01*
X78358928Y-118827380D01*
X78597023Y-118827380D01*
X78692261Y-118875000D01*
X78739880Y-118922619D01*
X78787500Y-119017857D01*
X78787500Y-119113095D01*
X78739880Y-119255952D01*
X78168452Y-119827380D01*
X78787500Y-119827380D01*
X79692261Y-118827380D02*
X79216071Y-118827380D01*
X79168452Y-119303571D01*
X79216071Y-119255952D01*
X79311309Y-119208333D01*
X79549404Y-119208333D01*
X79644642Y-119255952D01*
X79692261Y-119303571D01*
X79739880Y-119398809D01*
X79739880Y-119636904D01*
X79692261Y-119732142D01*
X79644642Y-119779761D01*
X79549404Y-119827380D01*
X79311309Y-119827380D01*
X79216071Y-119779761D01*
X79168452Y-119732142D01*
X80168452Y-118827380D02*
X80168452Y-119636904D01*
X80216071Y-119732142D01*
X80263690Y-119779761D01*
X80358928Y-119827380D01*
X80549404Y-119827380D01*
X80644642Y-119779761D01*
X80692261Y-119732142D01*
X80739880Y-119636904D01*
X80739880Y-118827380D01*
X157575000Y-62051190D02*
X157575000Y-62527380D01*
X157241666Y-61527380D02*
X157575000Y-62051190D01*
X157908333Y-61527380D01*
X214327380Y-40061428D02*
X214327380Y-39870952D01*
X214375000Y-39775714D01*
X214470238Y-39680476D01*
X214660714Y-39632857D01*
X214994047Y-39632857D01*
X215184523Y-39680476D01*
X215279761Y-39775714D01*
X215327380Y-39870952D01*
X215327380Y-40061428D01*
X215279761Y-40156666D01*
X215184523Y-40251904D01*
X214994047Y-40299523D01*
X214660714Y-40299523D01*
X214470238Y-40251904D01*
X214375000Y-40156666D01*
X214327380Y-40061428D01*
X215327380Y-38728095D02*
X215327380Y-39204285D01*
X214327380Y-39204285D01*
X214803571Y-38394761D02*
X214803571Y-38061428D01*
X215327380Y-37918571D02*
X215327380Y-38394761D01*
X214327380Y-38394761D01*
X214327380Y-37918571D01*
X215327380Y-37490000D02*
X214327380Y-37490000D01*
X214327380Y-37251904D01*
X214375000Y-37109047D01*
X214470238Y-37013809D01*
X214565476Y-36966190D01*
X214755952Y-36918571D01*
X214898809Y-36918571D01*
X215089285Y-36966190D01*
X215184523Y-37013809D01*
X215279761Y-37109047D01*
X215327380Y-37251904D01*
X215327380Y-37490000D01*
X195775000Y-62527380D02*
X195775000Y-61527380D01*
X119684523Y-62527380D02*
X119351190Y-62051190D01*
X119113095Y-62527380D02*
X119113095Y-61527380D01*
X119494047Y-61527380D01*
X119589285Y-61575000D01*
X119636904Y-61622619D01*
X119684523Y-61717857D01*
X119684523Y-61860714D01*
X119636904Y-61955952D01*
X119589285Y-62003571D01*
X119494047Y-62051190D01*
X119113095Y-62051190D01*
X210147619Y-100679761D02*
X210147619Y-100727380D01*
X210100000Y-100822619D01*
X210052380Y-100870238D01*
X34383928Y-119827380D02*
X33812500Y-119827380D01*
X34098214Y-119827380D02*
X34098214Y-118827380D01*
X34002976Y-118970238D01*
X33907738Y-119065476D01*
X33812500Y-119113095D01*
X34812500Y-119732142D02*
X34860119Y-119779761D01*
X34812500Y-119827380D01*
X34764880Y-119779761D01*
X34812500Y-119732142D01*
X34812500Y-119827380D01*
X35241071Y-118922619D02*
X35288690Y-118875000D01*
X35383928Y-118827380D01*
X35622023Y-118827380D01*
X35717261Y-118875000D01*
X35764880Y-118922619D01*
X35812500Y-119017857D01*
X35812500Y-119113095D01*
X35764880Y-119255952D01*
X35193452Y-119827380D01*
X35812500Y-119827380D01*
X36717261Y-118827380D02*
X36241071Y-118827380D01*
X36193452Y-119303571D01*
X36241071Y-119255952D01*
X36336309Y-119208333D01*
X36574404Y-119208333D01*
X36669642Y-119255952D01*
X36717261Y-119303571D01*
X36764880Y-119398809D01*
X36764880Y-119636904D01*
X36717261Y-119732142D01*
X36669642Y-119779761D01*
X36574404Y-119827380D01*
X36336309Y-119827380D01*
X36241071Y-119779761D01*
X36193452Y-119732142D01*
X37193452Y-118827380D02*
X37193452Y-119636904D01*
X37241071Y-119732142D01*
X37288690Y-119779761D01*
X37383928Y-119827380D01*
X37574404Y-119827380D01*
X37669642Y-119779761D01*
X37717261Y-119732142D01*
X37764880Y-119636904D01*
X37764880Y-118827380D01*
X140624404Y-119827380D02*
X140052976Y-119827380D01*
X140338690Y-119827380D02*
X140338690Y-118827380D01*
X140243452Y-118970238D01*
X140148214Y-119065476D01*
X140052976Y-119113095D01*
X141052976Y-118827380D02*
X141052976Y-119636904D01*
X141100595Y-119732142D01*
X141148214Y-119779761D01*
X141243452Y-119827380D01*
X141433928Y-119827380D01*
X141529166Y-119779761D01*
X141576785Y-119732142D01*
X141624404Y-119636904D01*
X141624404Y-118827380D01*
X248687500Y-79917619D02*
X248735119Y-79870000D01*
X248830357Y-79822380D01*
X249068452Y-79822380D01*
X249163690Y-79870000D01*
X249211309Y-79917619D01*
X249258928Y-80012857D01*
X249258928Y-80108095D01*
X249211309Y-80250952D01*
X248639880Y-80822380D01*
X249258928Y-80822380D01*
X249687500Y-80727142D02*
X249735119Y-80774761D01*
X249687500Y-80822380D01*
X249639880Y-80774761D01*
X249687500Y-80727142D01*
X249687500Y-80822380D01*
X250116071Y-79917619D02*
X250163690Y-79870000D01*
X250258928Y-79822380D01*
X250497023Y-79822380D01*
X250592261Y-79870000D01*
X250639880Y-79917619D01*
X250687500Y-80012857D01*
X250687500Y-80108095D01*
X250639880Y-80250952D01*
X250068452Y-80822380D01*
X250687500Y-80822380D01*
X251592261Y-79822380D02*
X251116071Y-79822380D01*
X251068452Y-80298571D01*
X251116071Y-80250952D01*
X251211309Y-80203333D01*
X251449404Y-80203333D01*
X251544642Y-80250952D01*
X251592261Y-80298571D01*
X251639880Y-80393809D01*
X251639880Y-80631904D01*
X251592261Y-80727142D01*
X251544642Y-80774761D01*
X251449404Y-80822380D01*
X251211309Y-80822380D01*
X251116071Y-80774761D01*
X251068452Y-80727142D01*
X252068452Y-79822380D02*
X252068452Y-80631904D01*
X252116071Y-80727142D01*
X252163690Y-80774761D01*
X252258928Y-80822380D01*
X252449404Y-80822380D01*
X252544642Y-80774761D01*
X252592261Y-80727142D01*
X252639880Y-80631904D01*
X252639880Y-79822380D01*
X249520833Y-82384761D02*
X249663690Y-82432380D01*
X249901785Y-82432380D01*
X249997023Y-82384761D01*
X250044642Y-82337142D01*
X250092261Y-82241904D01*
X250092261Y-82146666D01*
X250044642Y-82051428D01*
X249997023Y-82003809D01*
X249901785Y-81956190D01*
X249711309Y-81908571D01*
X249616071Y-81860952D01*
X249568452Y-81813333D01*
X249520833Y-81718095D01*
X249520833Y-81622857D01*
X249568452Y-81527619D01*
X249616071Y-81480000D01*
X249711309Y-81432380D01*
X249949404Y-81432380D01*
X250092261Y-81480000D01*
X250377976Y-81432380D02*
X250949404Y-81432380D01*
X250663690Y-82432380D02*
X250663690Y-81432380D01*
X251282738Y-82432380D02*
X251282738Y-81432380D01*
X251520833Y-81432380D01*
X251663690Y-81480000D01*
X251758928Y-81575238D01*
X251806547Y-81670476D01*
X251854166Y-81860952D01*
X251854166Y-82003809D01*
X251806547Y-82194285D01*
X251758928Y-82289523D01*
X251663690Y-82384761D01*
X251520833Y-82432380D01*
X251282738Y-82432380D01*
D11*
X105586928Y-38774523D02*
X105586928Y-37504523D01*
X105949785Y-37504523D01*
X106167500Y-37565000D01*
X106312642Y-37685952D01*
X106385214Y-37806904D01*
X106457785Y-38048809D01*
X106457785Y-38230238D01*
X106385214Y-38472142D01*
X106312642Y-38593095D01*
X106167500Y-38714047D01*
X105949785Y-38774523D01*
X105586928Y-38774523D01*
X107038357Y-37625476D02*
X107110928Y-37565000D01*
X107256071Y-37504523D01*
X107618928Y-37504523D01*
X107764071Y-37565000D01*
X107836642Y-37625476D01*
X107909214Y-37746428D01*
X107909214Y-37867380D01*
X107836642Y-38048809D01*
X106965785Y-38774523D01*
X107909214Y-38774523D01*
X108780071Y-38048809D02*
X108634928Y-37988333D01*
X108562357Y-37927857D01*
X108489785Y-37806904D01*
X108489785Y-37746428D01*
X108562357Y-37625476D01*
X108634928Y-37565000D01*
X108780071Y-37504523D01*
X109070357Y-37504523D01*
X109215500Y-37565000D01*
X109288071Y-37625476D01*
X109360642Y-37746428D01*
X109360642Y-37806904D01*
X109288071Y-37927857D01*
X109215500Y-37988333D01*
X109070357Y-38048809D01*
X108780071Y-38048809D01*
X108634928Y-38109285D01*
X108562357Y-38169761D01*
X108489785Y-38290714D01*
X108489785Y-38532619D01*
X108562357Y-38653571D01*
X108634928Y-38714047D01*
X108780071Y-38774523D01*
X109070357Y-38774523D01*
X109215500Y-38714047D01*
X109288071Y-38653571D01*
X109360642Y-38532619D01*
X109360642Y-38290714D01*
X109288071Y-38169761D01*
X109215500Y-38109285D01*
X109070357Y-38048809D01*
X127074428Y-33999523D02*
X127074428Y-32729523D01*
X127437285Y-32729523D01*
X127655000Y-32790000D01*
X127800142Y-32910952D01*
X127872714Y-33031904D01*
X127945285Y-33273809D01*
X127945285Y-33455238D01*
X127872714Y-33697142D01*
X127800142Y-33818095D01*
X127655000Y-33939047D01*
X127437285Y-33999523D01*
X127074428Y-33999523D01*
X129396714Y-33999523D02*
X128525857Y-33999523D01*
X128961285Y-33999523D02*
X128961285Y-32729523D01*
X128816142Y-32910952D01*
X128671000Y-33031904D01*
X128525857Y-33092380D01*
X130122428Y-33999523D02*
X130412714Y-33999523D01*
X130557857Y-33939047D01*
X130630428Y-33878571D01*
X130775571Y-33697142D01*
X130848142Y-33455238D01*
X130848142Y-32971428D01*
X130775571Y-32850476D01*
X130703000Y-32790000D01*
X130557857Y-32729523D01*
X130267571Y-32729523D01*
X130122428Y-32790000D01*
X130049857Y-32850476D01*
X129977285Y-32971428D01*
X129977285Y-33273809D01*
X130049857Y-33394761D01*
X130122428Y-33455238D01*
X130267571Y-33515714D01*
X130557857Y-33515714D01*
X130703000Y-33455238D01*
X130775571Y-33394761D01*
X130848142Y-33273809D01*
X137350142Y-29224523D02*
X137350142Y-27954523D01*
X137713000Y-27954523D01*
X137930714Y-28015000D01*
X138075857Y-28135952D01*
X138148428Y-28256904D01*
X138221000Y-28498809D01*
X138221000Y-28680238D01*
X138148428Y-28922142D01*
X138075857Y-29043095D01*
X137930714Y-29164047D01*
X137713000Y-29224523D01*
X137350142Y-29224523D01*
X138729000Y-27954523D02*
X139745000Y-27954523D01*
X139091857Y-29224523D01*
X69774428Y-38774523D02*
X69774428Y-37504523D01*
X70137285Y-37504523D01*
X70355000Y-37565000D01*
X70500142Y-37685952D01*
X70572714Y-37806904D01*
X70645285Y-38048809D01*
X70645285Y-38230238D01*
X70572714Y-38472142D01*
X70500142Y-38593095D01*
X70355000Y-38714047D01*
X70137285Y-38774523D01*
X69774428Y-38774523D01*
X71225857Y-37625476D02*
X71298428Y-37565000D01*
X71443571Y-37504523D01*
X71806428Y-37504523D01*
X71951571Y-37565000D01*
X72024142Y-37625476D01*
X72096714Y-37746428D01*
X72096714Y-37867380D01*
X72024142Y-38048809D01*
X71153285Y-38774523D01*
X72096714Y-38774523D01*
X73475571Y-37504523D02*
X72749857Y-37504523D01*
X72677285Y-38109285D01*
X72749857Y-38048809D01*
X72895000Y-37988333D01*
X73257857Y-37988333D01*
X73403000Y-38048809D01*
X73475571Y-38109285D01*
X73548142Y-38230238D01*
X73548142Y-38532619D01*
X73475571Y-38653571D01*
X73403000Y-38714047D01*
X73257857Y-38774523D01*
X72895000Y-38774523D01*
X72749857Y-38714047D01*
X72677285Y-38653571D01*
X103199428Y-33999523D02*
X103199428Y-32729523D01*
X103562285Y-32729523D01*
X103780000Y-32790000D01*
X103925142Y-32910952D01*
X103997714Y-33031904D01*
X104070285Y-33273809D01*
X104070285Y-33455238D01*
X103997714Y-33697142D01*
X103925142Y-33818095D01*
X103780000Y-33939047D01*
X103562285Y-33999523D01*
X103199428Y-33999523D01*
X105521714Y-33999523D02*
X104650857Y-33999523D01*
X105086285Y-33999523D02*
X105086285Y-32729523D01*
X104941142Y-32910952D01*
X104796000Y-33031904D01*
X104650857Y-33092380D01*
X106029714Y-32729523D02*
X107045714Y-32729523D01*
X106392571Y-33999523D01*
X65725142Y-29224523D02*
X65725142Y-27954523D01*
X66088000Y-27954523D01*
X66305714Y-28015000D01*
X66450857Y-28135952D01*
X66523428Y-28256904D01*
X66596000Y-28498809D01*
X66596000Y-28680238D01*
X66523428Y-28922142D01*
X66450857Y-29043095D01*
X66305714Y-29164047D01*
X66088000Y-29224523D01*
X65725142Y-29224523D01*
X68047428Y-29224523D02*
X67176571Y-29224523D01*
X67612000Y-29224523D02*
X67612000Y-27954523D01*
X67466857Y-28135952D01*
X67321714Y-28256904D01*
X67176571Y-28317380D01*
X174824428Y-33999523D02*
X174824428Y-32729523D01*
X175187285Y-32729523D01*
X175405000Y-32790000D01*
X175550142Y-32910952D01*
X175622714Y-33031904D01*
X175695285Y-33273809D01*
X175695285Y-33455238D01*
X175622714Y-33697142D01*
X175550142Y-33818095D01*
X175405000Y-33939047D01*
X175187285Y-33999523D01*
X174824428Y-33999523D01*
X176275857Y-32850476D02*
X176348428Y-32790000D01*
X176493571Y-32729523D01*
X176856428Y-32729523D01*
X177001571Y-32790000D01*
X177074142Y-32850476D01*
X177146714Y-32971428D01*
X177146714Y-33092380D01*
X177074142Y-33273809D01*
X176203285Y-33999523D01*
X177146714Y-33999523D01*
X177654714Y-32729523D02*
X178598142Y-32729523D01*
X178090142Y-33213333D01*
X178307857Y-33213333D01*
X178453000Y-33273809D01*
X178525571Y-33334285D01*
X178598142Y-33455238D01*
X178598142Y-33757619D01*
X178525571Y-33878571D01*
X178453000Y-33939047D01*
X178307857Y-33999523D01*
X177872428Y-33999523D01*
X177727285Y-33939047D01*
X177654714Y-33878571D01*
X79324428Y-33999523D02*
X79324428Y-32729523D01*
X79687285Y-32729523D01*
X79905000Y-32790000D01*
X80050142Y-32910952D01*
X80122714Y-33031904D01*
X80195285Y-33273809D01*
X80195285Y-33455238D01*
X80122714Y-33697142D01*
X80050142Y-33818095D01*
X79905000Y-33939047D01*
X79687285Y-33999523D01*
X79324428Y-33999523D01*
X81646714Y-33999523D02*
X80775857Y-33999523D01*
X81211285Y-33999523D02*
X81211285Y-32729523D01*
X81066142Y-32910952D01*
X80921000Y-33031904D01*
X80775857Y-33092380D01*
X83025571Y-32729523D02*
X82299857Y-32729523D01*
X82227285Y-33334285D01*
X82299857Y-33273809D01*
X82445000Y-33213333D01*
X82807857Y-33213333D01*
X82953000Y-33273809D01*
X83025571Y-33334285D01*
X83098142Y-33455238D01*
X83098142Y-33757619D01*
X83025571Y-33878571D01*
X82953000Y-33939047D01*
X82807857Y-33999523D01*
X82445000Y-33999523D01*
X82299857Y-33939047D01*
X82227285Y-33878571D01*
X117524428Y-38774523D02*
X117524428Y-37504523D01*
X117887285Y-37504523D01*
X118105000Y-37565000D01*
X118250142Y-37685952D01*
X118322714Y-37806904D01*
X118395285Y-38048809D01*
X118395285Y-38230238D01*
X118322714Y-38472142D01*
X118250142Y-38593095D01*
X118105000Y-38714047D01*
X117887285Y-38774523D01*
X117524428Y-38774523D01*
X118975857Y-37625476D02*
X119048428Y-37565000D01*
X119193571Y-37504523D01*
X119556428Y-37504523D01*
X119701571Y-37565000D01*
X119774142Y-37625476D01*
X119846714Y-37746428D01*
X119846714Y-37867380D01*
X119774142Y-38048809D01*
X118903285Y-38774523D01*
X119846714Y-38774523D01*
X120572428Y-38774523D02*
X120862714Y-38774523D01*
X121007857Y-38714047D01*
X121080428Y-38653571D01*
X121225571Y-38472142D01*
X121298142Y-38230238D01*
X121298142Y-37746428D01*
X121225571Y-37625476D01*
X121153000Y-37565000D01*
X121007857Y-37504523D01*
X120717571Y-37504523D01*
X120572428Y-37565000D01*
X120499857Y-37625476D01*
X120427285Y-37746428D01*
X120427285Y-38048809D01*
X120499857Y-38169761D01*
X120572428Y-38230238D01*
X120717571Y-38290714D01*
X121007857Y-38290714D01*
X121153000Y-38230238D01*
X121225571Y-38169761D01*
X121298142Y-38048809D01*
X167661928Y-43549523D02*
X167661928Y-42279523D01*
X168024785Y-42279523D01*
X168242500Y-42340000D01*
X168387642Y-42460952D01*
X168460214Y-42581904D01*
X168532785Y-42823809D01*
X168532785Y-43005238D01*
X168460214Y-43247142D01*
X168387642Y-43368095D01*
X168242500Y-43489047D01*
X168024785Y-43549523D01*
X167661928Y-43549523D01*
X169839071Y-42702857D02*
X169839071Y-43549523D01*
X169476214Y-42219047D02*
X169113357Y-43126190D01*
X170056785Y-43126190D01*
X170492214Y-42279523D02*
X171508214Y-42279523D01*
X170855071Y-43549523D01*
X81711928Y-38774523D02*
X81711928Y-37504523D01*
X82074785Y-37504523D01*
X82292500Y-37565000D01*
X82437642Y-37685952D01*
X82510214Y-37806904D01*
X82582785Y-38048809D01*
X82582785Y-38230238D01*
X82510214Y-38472142D01*
X82437642Y-38593095D01*
X82292500Y-38714047D01*
X82074785Y-38774523D01*
X81711928Y-38774523D01*
X83163357Y-37625476D02*
X83235928Y-37565000D01*
X83381071Y-37504523D01*
X83743928Y-37504523D01*
X83889071Y-37565000D01*
X83961642Y-37625476D01*
X84034214Y-37746428D01*
X84034214Y-37867380D01*
X83961642Y-38048809D01*
X83090785Y-38774523D01*
X84034214Y-38774523D01*
X85340500Y-37504523D02*
X85050214Y-37504523D01*
X84905071Y-37565000D01*
X84832500Y-37625476D01*
X84687357Y-37806904D01*
X84614785Y-38048809D01*
X84614785Y-38532619D01*
X84687357Y-38653571D01*
X84759928Y-38714047D01*
X84905071Y-38774523D01*
X85195357Y-38774523D01*
X85340500Y-38714047D01*
X85413071Y-38653571D01*
X85485642Y-38532619D01*
X85485642Y-38230238D01*
X85413071Y-38109285D01*
X85340500Y-38048809D01*
X85195357Y-37988333D01*
X84905071Y-37988333D01*
X84759928Y-38048809D01*
X84687357Y-38109285D01*
X84614785Y-38230238D01*
X203474428Y-43549523D02*
X203474428Y-42279523D01*
X203837285Y-42279523D01*
X204055000Y-42340000D01*
X204200142Y-42460952D01*
X204272714Y-42581904D01*
X204345285Y-42823809D01*
X204345285Y-43005238D01*
X204272714Y-43247142D01*
X204200142Y-43368095D01*
X204055000Y-43489047D01*
X203837285Y-43549523D01*
X203474428Y-43549523D01*
X205651571Y-42702857D02*
X205651571Y-43549523D01*
X205288714Y-42219047D02*
X204925857Y-43126190D01*
X205869285Y-43126190D01*
X207175571Y-42279523D02*
X206449857Y-42279523D01*
X206377285Y-42884285D01*
X206449857Y-42823809D01*
X206595000Y-42763333D01*
X206957857Y-42763333D01*
X207103000Y-42823809D01*
X207175571Y-42884285D01*
X207248142Y-43005238D01*
X207248142Y-43307619D01*
X207175571Y-43428571D01*
X207103000Y-43489047D01*
X206957857Y-43549523D01*
X206595000Y-43549523D01*
X206449857Y-43489047D01*
X206377285Y-43428571D01*
X89600142Y-29224523D02*
X89600142Y-27954523D01*
X89963000Y-27954523D01*
X90180714Y-28015000D01*
X90325857Y-28135952D01*
X90398428Y-28256904D01*
X90471000Y-28498809D01*
X90471000Y-28680238D01*
X90398428Y-28922142D01*
X90325857Y-29043095D01*
X90180714Y-29164047D01*
X89963000Y-29224523D01*
X89600142Y-29224523D01*
X90979000Y-27954523D02*
X91922428Y-27954523D01*
X91414428Y-28438333D01*
X91632142Y-28438333D01*
X91777285Y-28498809D01*
X91849857Y-28559285D01*
X91922428Y-28680238D01*
X91922428Y-28982619D01*
X91849857Y-29103571D01*
X91777285Y-29164047D01*
X91632142Y-29224523D01*
X91196714Y-29224523D01*
X91051571Y-29164047D01*
X90979000Y-29103571D01*
X198699428Y-33999523D02*
X198699428Y-32729523D01*
X199062285Y-32729523D01*
X199280000Y-32790000D01*
X199425142Y-32910952D01*
X199497714Y-33031904D01*
X199570285Y-33273809D01*
X199570285Y-33455238D01*
X199497714Y-33697142D01*
X199425142Y-33818095D01*
X199280000Y-33939047D01*
X199062285Y-33999523D01*
X198699428Y-33999523D01*
X200150857Y-32850476D02*
X200223428Y-32790000D01*
X200368571Y-32729523D01*
X200731428Y-32729523D01*
X200876571Y-32790000D01*
X200949142Y-32850476D01*
X201021714Y-32971428D01*
X201021714Y-33092380D01*
X200949142Y-33273809D01*
X200078285Y-33999523D01*
X201021714Y-33999523D01*
X202328000Y-33152857D02*
X202328000Y-33999523D01*
X201965142Y-32669047D02*
X201602285Y-33576190D01*
X202545714Y-33576190D01*
X129461928Y-38774523D02*
X129461928Y-37504523D01*
X129824785Y-37504523D01*
X130042500Y-37565000D01*
X130187642Y-37685952D01*
X130260214Y-37806904D01*
X130332785Y-38048809D01*
X130332785Y-38230238D01*
X130260214Y-38472142D01*
X130187642Y-38593095D01*
X130042500Y-38714047D01*
X129824785Y-38774523D01*
X129461928Y-38774523D01*
X130840785Y-37504523D02*
X131784214Y-37504523D01*
X131276214Y-37988333D01*
X131493928Y-37988333D01*
X131639071Y-38048809D01*
X131711642Y-38109285D01*
X131784214Y-38230238D01*
X131784214Y-38532619D01*
X131711642Y-38653571D01*
X131639071Y-38714047D01*
X131493928Y-38774523D01*
X131058500Y-38774523D01*
X130913357Y-38714047D01*
X130840785Y-38653571D01*
X132727642Y-37504523D02*
X132872785Y-37504523D01*
X133017928Y-37565000D01*
X133090500Y-37625476D01*
X133163071Y-37746428D01*
X133235642Y-37988333D01*
X133235642Y-38290714D01*
X133163071Y-38532619D01*
X133090500Y-38653571D01*
X133017928Y-38714047D01*
X132872785Y-38774523D01*
X132727642Y-38774523D01*
X132582500Y-38714047D01*
X132509928Y-38653571D01*
X132437357Y-38532619D01*
X132364785Y-38290714D01*
X132364785Y-37988333D01*
X132437357Y-37746428D01*
X132509928Y-37625476D01*
X132582500Y-37565000D01*
X132727642Y-37504523D01*
X189149428Y-38774523D02*
X189149428Y-37504523D01*
X189512285Y-37504523D01*
X189730000Y-37565000D01*
X189875142Y-37685952D01*
X189947714Y-37806904D01*
X190020285Y-38048809D01*
X190020285Y-38230238D01*
X189947714Y-38472142D01*
X189875142Y-38593095D01*
X189730000Y-38714047D01*
X189512285Y-38774523D01*
X189149428Y-38774523D01*
X190528285Y-37504523D02*
X191471714Y-37504523D01*
X190963714Y-37988333D01*
X191181428Y-37988333D01*
X191326571Y-38048809D01*
X191399142Y-38109285D01*
X191471714Y-38230238D01*
X191471714Y-38532619D01*
X191399142Y-38653571D01*
X191326571Y-38714047D01*
X191181428Y-38774523D01*
X190746000Y-38774523D01*
X190600857Y-38714047D01*
X190528285Y-38653571D01*
X192850571Y-37504523D02*
X192124857Y-37504523D01*
X192052285Y-38109285D01*
X192124857Y-38048809D01*
X192270000Y-37988333D01*
X192632857Y-37988333D01*
X192778000Y-38048809D01*
X192850571Y-38109285D01*
X192923142Y-38230238D01*
X192923142Y-38532619D01*
X192850571Y-38653571D01*
X192778000Y-38714047D01*
X192632857Y-38774523D01*
X192270000Y-38774523D01*
X192124857Y-38714047D01*
X192052285Y-38653571D01*
X161225142Y-29224523D02*
X161225142Y-27954523D01*
X161588000Y-27954523D01*
X161805714Y-28015000D01*
X161950857Y-28135952D01*
X162023428Y-28256904D01*
X162096000Y-28498809D01*
X162096000Y-28680238D01*
X162023428Y-28922142D01*
X161950857Y-29043095D01*
X161805714Y-29164047D01*
X161588000Y-29224523D01*
X161225142Y-29224523D01*
X162821714Y-29224523D02*
X163112000Y-29224523D01*
X163257142Y-29164047D01*
X163329714Y-29103571D01*
X163474857Y-28922142D01*
X163547428Y-28680238D01*
X163547428Y-28196428D01*
X163474857Y-28075476D01*
X163402285Y-28015000D01*
X163257142Y-27954523D01*
X162966857Y-27954523D01*
X162821714Y-28015000D01*
X162749142Y-28075476D01*
X162676571Y-28196428D01*
X162676571Y-28498809D01*
X162749142Y-28619761D01*
X162821714Y-28680238D01*
X162966857Y-28740714D01*
X163257142Y-28740714D01*
X163402285Y-28680238D01*
X163474857Y-28619761D01*
X163547428Y-28498809D01*
X96036928Y-43549523D02*
X96036928Y-42279523D01*
X96399785Y-42279523D01*
X96617500Y-42340000D01*
X96762642Y-42460952D01*
X96835214Y-42581904D01*
X96907785Y-42823809D01*
X96907785Y-43005238D01*
X96835214Y-43247142D01*
X96762642Y-43368095D01*
X96617500Y-43489047D01*
X96399785Y-43549523D01*
X96036928Y-43549523D01*
X98214071Y-42702857D02*
X98214071Y-43549523D01*
X97851214Y-42219047D02*
X97488357Y-43126190D01*
X98431785Y-43126190D01*
X99302642Y-42279523D02*
X99447785Y-42279523D01*
X99592928Y-42340000D01*
X99665500Y-42400476D01*
X99738071Y-42521428D01*
X99810642Y-42763333D01*
X99810642Y-43065714D01*
X99738071Y-43307619D01*
X99665500Y-43428571D01*
X99592928Y-43489047D01*
X99447785Y-43549523D01*
X99302642Y-43549523D01*
X99157500Y-43489047D01*
X99084928Y-43428571D01*
X99012357Y-43307619D01*
X98939785Y-43065714D01*
X98939785Y-42763333D01*
X99012357Y-42521428D01*
X99084928Y-42400476D01*
X99157500Y-42340000D01*
X99302642Y-42279523D01*
X150949428Y-33999523D02*
X150949428Y-32729523D01*
X151312285Y-32729523D01*
X151530000Y-32790000D01*
X151675142Y-32910952D01*
X151747714Y-33031904D01*
X151820285Y-33273809D01*
X151820285Y-33455238D01*
X151747714Y-33697142D01*
X151675142Y-33818095D01*
X151530000Y-33939047D01*
X151312285Y-33999523D01*
X150949428Y-33999523D01*
X152400857Y-32850476D02*
X152473428Y-32790000D01*
X152618571Y-32729523D01*
X152981428Y-32729523D01*
X153126571Y-32790000D01*
X153199142Y-32850476D01*
X153271714Y-32971428D01*
X153271714Y-33092380D01*
X153199142Y-33273809D01*
X152328285Y-33999523D01*
X153271714Y-33999523D01*
X154723142Y-33999523D02*
X153852285Y-33999523D01*
X154287714Y-33999523D02*
X154287714Y-32729523D01*
X154142571Y-32910952D01*
X153997428Y-33031904D01*
X153852285Y-33092380D01*
X162886928Y-33999523D02*
X162886928Y-32729523D01*
X163249785Y-32729523D01*
X163467500Y-32790000D01*
X163612642Y-32910952D01*
X163685214Y-33031904D01*
X163757785Y-33273809D01*
X163757785Y-33455238D01*
X163685214Y-33697142D01*
X163612642Y-33818095D01*
X163467500Y-33939047D01*
X163249785Y-33999523D01*
X162886928Y-33999523D01*
X164338357Y-32850476D02*
X164410928Y-32790000D01*
X164556071Y-32729523D01*
X164918928Y-32729523D01*
X165064071Y-32790000D01*
X165136642Y-32850476D01*
X165209214Y-32971428D01*
X165209214Y-33092380D01*
X165136642Y-33273809D01*
X164265785Y-33999523D01*
X165209214Y-33999523D01*
X165789785Y-32850476D02*
X165862357Y-32790000D01*
X166007500Y-32729523D01*
X166370357Y-32729523D01*
X166515500Y-32790000D01*
X166588071Y-32850476D01*
X166660642Y-32971428D01*
X166660642Y-33092380D01*
X166588071Y-33273809D01*
X165717214Y-33999523D01*
X166660642Y-33999523D01*
X196311928Y-29224523D02*
X196311928Y-27954523D01*
X196674785Y-27954523D01*
X196892500Y-28015000D01*
X197037642Y-28135952D01*
X197110214Y-28256904D01*
X197182785Y-28498809D01*
X197182785Y-28680238D01*
X197110214Y-28922142D01*
X197037642Y-29043095D01*
X196892500Y-29164047D01*
X196674785Y-29224523D01*
X196311928Y-29224523D01*
X198634214Y-29224523D02*
X197763357Y-29224523D01*
X198198785Y-29224523D02*
X198198785Y-27954523D01*
X198053642Y-28135952D01*
X197908500Y-28256904D01*
X197763357Y-28317380D01*
X199214785Y-28075476D02*
X199287357Y-28015000D01*
X199432500Y-27954523D01*
X199795357Y-27954523D01*
X199940500Y-28015000D01*
X200013071Y-28075476D01*
X200085642Y-28196428D01*
X200085642Y-28317380D01*
X200013071Y-28498809D01*
X199142214Y-29224523D01*
X200085642Y-29224523D01*
X119911928Y-43549523D02*
X119911928Y-42279523D01*
X120274785Y-42279523D01*
X120492500Y-42340000D01*
X120637642Y-42460952D01*
X120710214Y-42581904D01*
X120782785Y-42823809D01*
X120782785Y-43005238D01*
X120710214Y-43247142D01*
X120637642Y-43368095D01*
X120492500Y-43489047D01*
X120274785Y-43549523D01*
X119911928Y-43549523D01*
X122089071Y-42702857D02*
X122089071Y-43549523D01*
X121726214Y-42219047D02*
X121363357Y-43126190D01*
X122306785Y-43126190D01*
X123685642Y-43549523D02*
X122814785Y-43549523D01*
X123250214Y-43549523D02*
X123250214Y-42279523D01*
X123105071Y-42460952D01*
X122959928Y-42581904D01*
X122814785Y-42642380D01*
X165274428Y-38774523D02*
X165274428Y-37504523D01*
X165637285Y-37504523D01*
X165855000Y-37565000D01*
X166000142Y-37685952D01*
X166072714Y-37806904D01*
X166145285Y-38048809D01*
X166145285Y-38230238D01*
X166072714Y-38472142D01*
X166000142Y-38593095D01*
X165855000Y-38714047D01*
X165637285Y-38774523D01*
X165274428Y-38774523D01*
X166653285Y-37504523D02*
X167596714Y-37504523D01*
X167088714Y-37988333D01*
X167306428Y-37988333D01*
X167451571Y-38048809D01*
X167524142Y-38109285D01*
X167596714Y-38230238D01*
X167596714Y-38532619D01*
X167524142Y-38653571D01*
X167451571Y-38714047D01*
X167306428Y-38774523D01*
X166871000Y-38774523D01*
X166725857Y-38714047D01*
X166653285Y-38653571D01*
X168104714Y-37504523D02*
X169048142Y-37504523D01*
X168540142Y-37988333D01*
X168757857Y-37988333D01*
X168903000Y-38048809D01*
X168975571Y-38109285D01*
X169048142Y-38230238D01*
X169048142Y-38532619D01*
X168975571Y-38653571D01*
X168903000Y-38714047D01*
X168757857Y-38774523D01*
X168322428Y-38774523D01*
X168177285Y-38714047D01*
X168104714Y-38653571D01*
X201086928Y-38774523D02*
X201086928Y-37504523D01*
X201449785Y-37504523D01*
X201667500Y-37565000D01*
X201812642Y-37685952D01*
X201885214Y-37806904D01*
X201957785Y-38048809D01*
X201957785Y-38230238D01*
X201885214Y-38472142D01*
X201812642Y-38593095D01*
X201667500Y-38714047D01*
X201449785Y-38774523D01*
X201086928Y-38774523D01*
X202465785Y-37504523D02*
X203409214Y-37504523D01*
X202901214Y-37988333D01*
X203118928Y-37988333D01*
X203264071Y-38048809D01*
X203336642Y-38109285D01*
X203409214Y-38230238D01*
X203409214Y-38532619D01*
X203336642Y-38653571D01*
X203264071Y-38714047D01*
X203118928Y-38774523D01*
X202683500Y-38774523D01*
X202538357Y-38714047D01*
X202465785Y-38653571D01*
X204715500Y-37504523D02*
X204425214Y-37504523D01*
X204280071Y-37565000D01*
X204207500Y-37625476D01*
X204062357Y-37806904D01*
X203989785Y-38048809D01*
X203989785Y-38532619D01*
X204062357Y-38653571D01*
X204134928Y-38714047D01*
X204280071Y-38774523D01*
X204570357Y-38774523D01*
X204715500Y-38714047D01*
X204788071Y-38653571D01*
X204860642Y-38532619D01*
X204860642Y-38230238D01*
X204788071Y-38109285D01*
X204715500Y-38048809D01*
X204570357Y-37988333D01*
X204280071Y-37988333D01*
X204134928Y-38048809D01*
X204062357Y-38109285D01*
X203989785Y-38230238D01*
X101537642Y-29224523D02*
X101537642Y-27954523D01*
X101900500Y-27954523D01*
X102118214Y-28015000D01*
X102263357Y-28135952D01*
X102335928Y-28256904D01*
X102408500Y-28498809D01*
X102408500Y-28680238D01*
X102335928Y-28922142D01*
X102263357Y-29043095D01*
X102118214Y-29164047D01*
X101900500Y-29224523D01*
X101537642Y-29224523D01*
X103714785Y-28377857D02*
X103714785Y-29224523D01*
X103351928Y-27894047D02*
X102989071Y-28801190D01*
X103932500Y-28801190D01*
X113475142Y-29224523D02*
X113475142Y-27954523D01*
X113838000Y-27954523D01*
X114055714Y-28015000D01*
X114200857Y-28135952D01*
X114273428Y-28256904D01*
X114346000Y-28498809D01*
X114346000Y-28680238D01*
X114273428Y-28922142D01*
X114200857Y-29043095D01*
X114055714Y-29164047D01*
X113838000Y-29224523D01*
X113475142Y-29224523D01*
X115724857Y-27954523D02*
X114999142Y-27954523D01*
X114926571Y-28559285D01*
X114999142Y-28498809D01*
X115144285Y-28438333D01*
X115507142Y-28438333D01*
X115652285Y-28498809D01*
X115724857Y-28559285D01*
X115797428Y-28680238D01*
X115797428Y-28982619D01*
X115724857Y-29103571D01*
X115652285Y-29164047D01*
X115507142Y-29224523D01*
X115144285Y-29224523D01*
X114999142Y-29164047D01*
X114926571Y-29103571D01*
X139011928Y-33999523D02*
X139011928Y-32729523D01*
X139374785Y-32729523D01*
X139592500Y-32790000D01*
X139737642Y-32910952D01*
X139810214Y-33031904D01*
X139882785Y-33273809D01*
X139882785Y-33455238D01*
X139810214Y-33697142D01*
X139737642Y-33818095D01*
X139592500Y-33939047D01*
X139374785Y-33999523D01*
X139011928Y-33999523D01*
X140463357Y-32850476D02*
X140535928Y-32790000D01*
X140681071Y-32729523D01*
X141043928Y-32729523D01*
X141189071Y-32790000D01*
X141261642Y-32850476D01*
X141334214Y-32971428D01*
X141334214Y-33092380D01*
X141261642Y-33273809D01*
X140390785Y-33999523D01*
X141334214Y-33999523D01*
X142277642Y-32729523D02*
X142422785Y-32729523D01*
X142567928Y-32790000D01*
X142640500Y-32850476D01*
X142713071Y-32971428D01*
X142785642Y-33213333D01*
X142785642Y-33515714D01*
X142713071Y-33757619D01*
X142640500Y-33878571D01*
X142567928Y-33939047D01*
X142422785Y-33999523D01*
X142277642Y-33999523D01*
X142132500Y-33939047D01*
X142059928Y-33878571D01*
X141987357Y-33757619D01*
X141914785Y-33515714D01*
X141914785Y-33213333D01*
X141987357Y-32971428D01*
X142059928Y-32850476D01*
X142132500Y-32790000D01*
X142277642Y-32729523D01*
X155724428Y-43549523D02*
X155724428Y-42279523D01*
X156087285Y-42279523D01*
X156305000Y-42340000D01*
X156450142Y-42460952D01*
X156522714Y-42581904D01*
X156595285Y-42823809D01*
X156595285Y-43005238D01*
X156522714Y-43247142D01*
X156450142Y-43368095D01*
X156305000Y-43489047D01*
X156087285Y-43549523D01*
X155724428Y-43549523D01*
X157103285Y-42279523D02*
X158046714Y-42279523D01*
X157538714Y-42763333D01*
X157756428Y-42763333D01*
X157901571Y-42823809D01*
X157974142Y-42884285D01*
X158046714Y-43005238D01*
X158046714Y-43307619D01*
X157974142Y-43428571D01*
X157901571Y-43489047D01*
X157756428Y-43549523D01*
X157321000Y-43549523D01*
X157175857Y-43489047D01*
X157103285Y-43428571D01*
X158554714Y-42279523D02*
X159570714Y-42279523D01*
X158917571Y-43549523D01*
X67386928Y-33999523D02*
X67386928Y-32729523D01*
X67749785Y-32729523D01*
X67967500Y-32790000D01*
X68112642Y-32910952D01*
X68185214Y-33031904D01*
X68257785Y-33273809D01*
X68257785Y-33455238D01*
X68185214Y-33697142D01*
X68112642Y-33818095D01*
X67967500Y-33939047D01*
X67749785Y-33999523D01*
X67386928Y-33999523D01*
X69709214Y-33999523D02*
X68838357Y-33999523D01*
X69273785Y-33999523D02*
X69273785Y-32729523D01*
X69128642Y-32910952D01*
X68983500Y-33031904D01*
X68838357Y-33092380D01*
X71015500Y-33152857D02*
X71015500Y-33999523D01*
X70652642Y-32669047D02*
X70289785Y-33576190D01*
X71233214Y-33576190D01*
X179599428Y-43549523D02*
X179599428Y-42279523D01*
X179962285Y-42279523D01*
X180180000Y-42340000D01*
X180325142Y-42460952D01*
X180397714Y-42581904D01*
X180470285Y-42823809D01*
X180470285Y-43005238D01*
X180397714Y-43247142D01*
X180325142Y-43368095D01*
X180180000Y-43489047D01*
X179962285Y-43549523D01*
X179599428Y-43549523D01*
X181776571Y-42702857D02*
X181776571Y-43549523D01*
X181413714Y-42219047D02*
X181050857Y-43126190D01*
X181994285Y-43126190D01*
X183228000Y-42279523D02*
X182937714Y-42279523D01*
X182792571Y-42340000D01*
X182720000Y-42400476D01*
X182574857Y-42581904D01*
X182502285Y-42823809D01*
X182502285Y-43307619D01*
X182574857Y-43428571D01*
X182647428Y-43489047D01*
X182792571Y-43549523D01*
X183082857Y-43549523D01*
X183228000Y-43489047D01*
X183300571Y-43428571D01*
X183373142Y-43307619D01*
X183373142Y-43005238D01*
X183300571Y-42884285D01*
X183228000Y-42823809D01*
X183082857Y-42763333D01*
X182792571Y-42763333D01*
X182647428Y-42823809D01*
X182574857Y-42884285D01*
X182502285Y-43005238D01*
X186761928Y-33999523D02*
X186761928Y-32729523D01*
X187124785Y-32729523D01*
X187342500Y-32790000D01*
X187487642Y-32910952D01*
X187560214Y-33031904D01*
X187632785Y-33273809D01*
X187632785Y-33455238D01*
X187560214Y-33697142D01*
X187487642Y-33818095D01*
X187342500Y-33939047D01*
X187124785Y-33999523D01*
X186761928Y-33999523D01*
X189084214Y-33999523D02*
X188213357Y-33999523D01*
X188648785Y-33999523D02*
X188648785Y-32729523D01*
X188503642Y-32910952D01*
X188358500Y-33031904D01*
X188213357Y-33092380D01*
X189592214Y-32729523D02*
X190535642Y-32729523D01*
X190027642Y-33213333D01*
X190245357Y-33213333D01*
X190390500Y-33273809D01*
X190463071Y-33334285D01*
X190535642Y-33455238D01*
X190535642Y-33757619D01*
X190463071Y-33878571D01*
X190390500Y-33939047D01*
X190245357Y-33999523D01*
X189809928Y-33999523D01*
X189664785Y-33939047D01*
X189592214Y-33878571D01*
X72161928Y-43549523D02*
X72161928Y-42279523D01*
X72524785Y-42279523D01*
X72742500Y-42340000D01*
X72887642Y-42460952D01*
X72960214Y-42581904D01*
X73032785Y-42823809D01*
X73032785Y-43005238D01*
X72960214Y-43247142D01*
X72887642Y-43368095D01*
X72742500Y-43489047D01*
X72524785Y-43549523D01*
X72161928Y-43549523D01*
X73540785Y-42279523D02*
X74484214Y-42279523D01*
X73976214Y-42763333D01*
X74193928Y-42763333D01*
X74339071Y-42823809D01*
X74411642Y-42884285D01*
X74484214Y-43005238D01*
X74484214Y-43307619D01*
X74411642Y-43428571D01*
X74339071Y-43489047D01*
X74193928Y-43549523D01*
X73758500Y-43549523D01*
X73613357Y-43489047D01*
X73540785Y-43428571D01*
X75355071Y-42823809D02*
X75209928Y-42763333D01*
X75137357Y-42702857D01*
X75064785Y-42581904D01*
X75064785Y-42521428D01*
X75137357Y-42400476D01*
X75209928Y-42340000D01*
X75355071Y-42279523D01*
X75645357Y-42279523D01*
X75790500Y-42340000D01*
X75863071Y-42400476D01*
X75935642Y-42521428D01*
X75935642Y-42581904D01*
X75863071Y-42702857D01*
X75790500Y-42763333D01*
X75645357Y-42823809D01*
X75355071Y-42823809D01*
X75209928Y-42884285D01*
X75137357Y-42944761D01*
X75064785Y-43065714D01*
X75064785Y-43307619D01*
X75137357Y-43428571D01*
X75209928Y-43489047D01*
X75355071Y-43549523D01*
X75645357Y-43549523D01*
X75790500Y-43489047D01*
X75863071Y-43428571D01*
X75935642Y-43307619D01*
X75935642Y-43065714D01*
X75863071Y-42944761D01*
X75790500Y-42884285D01*
X75645357Y-42823809D01*
X131849428Y-43549523D02*
X131849428Y-42279523D01*
X132212285Y-42279523D01*
X132430000Y-42340000D01*
X132575142Y-42460952D01*
X132647714Y-42581904D01*
X132720285Y-42823809D01*
X132720285Y-43005238D01*
X132647714Y-43247142D01*
X132575142Y-43368095D01*
X132430000Y-43489047D01*
X132212285Y-43549523D01*
X131849428Y-43549523D01*
X134026571Y-42702857D02*
X134026571Y-43549523D01*
X133663714Y-42219047D02*
X133300857Y-43126190D01*
X134244285Y-43126190D01*
X134752285Y-42400476D02*
X134824857Y-42340000D01*
X134970000Y-42279523D01*
X135332857Y-42279523D01*
X135478000Y-42340000D01*
X135550571Y-42400476D01*
X135623142Y-42521428D01*
X135623142Y-42642380D01*
X135550571Y-42823809D01*
X134679714Y-43549523D01*
X135623142Y-43549523D01*
X77662642Y-29224523D02*
X77662642Y-27954523D01*
X78025500Y-27954523D01*
X78243214Y-28015000D01*
X78388357Y-28135952D01*
X78460928Y-28256904D01*
X78533500Y-28498809D01*
X78533500Y-28680238D01*
X78460928Y-28922142D01*
X78388357Y-29043095D01*
X78243214Y-29164047D01*
X78025500Y-29224523D01*
X77662642Y-29224523D01*
X79114071Y-28075476D02*
X79186642Y-28015000D01*
X79331785Y-27954523D01*
X79694642Y-27954523D01*
X79839785Y-28015000D01*
X79912357Y-28075476D01*
X79984928Y-28196428D01*
X79984928Y-28317380D01*
X79912357Y-28498809D01*
X79041500Y-29224523D01*
X79984928Y-29224523D01*
X115136928Y-33999523D02*
X115136928Y-32729523D01*
X115499785Y-32729523D01*
X115717500Y-32790000D01*
X115862642Y-32910952D01*
X115935214Y-33031904D01*
X116007785Y-33273809D01*
X116007785Y-33455238D01*
X115935214Y-33697142D01*
X115862642Y-33818095D01*
X115717500Y-33939047D01*
X115499785Y-33999523D01*
X115136928Y-33999523D01*
X117459214Y-33999523D02*
X116588357Y-33999523D01*
X117023785Y-33999523D02*
X117023785Y-32729523D01*
X116878642Y-32910952D01*
X116733500Y-33031904D01*
X116588357Y-33092380D01*
X118330071Y-33273809D02*
X118184928Y-33213333D01*
X118112357Y-33152857D01*
X118039785Y-33031904D01*
X118039785Y-32971428D01*
X118112357Y-32850476D01*
X118184928Y-32790000D01*
X118330071Y-32729523D01*
X118620357Y-32729523D01*
X118765500Y-32790000D01*
X118838071Y-32850476D01*
X118910642Y-32971428D01*
X118910642Y-33031904D01*
X118838071Y-33152857D01*
X118765500Y-33213333D01*
X118620357Y-33273809D01*
X118330071Y-33273809D01*
X118184928Y-33334285D01*
X118112357Y-33394761D01*
X118039785Y-33515714D01*
X118039785Y-33757619D01*
X118112357Y-33878571D01*
X118184928Y-33939047D01*
X118330071Y-33999523D01*
X118620357Y-33999523D01*
X118765500Y-33939047D01*
X118838071Y-33878571D01*
X118910642Y-33757619D01*
X118910642Y-33515714D01*
X118838071Y-33394761D01*
X118765500Y-33334285D01*
X118620357Y-33273809D01*
X84099428Y-43549523D02*
X84099428Y-42279523D01*
X84462285Y-42279523D01*
X84680000Y-42340000D01*
X84825142Y-42460952D01*
X84897714Y-42581904D01*
X84970285Y-42823809D01*
X84970285Y-43005238D01*
X84897714Y-43247142D01*
X84825142Y-43368095D01*
X84680000Y-43489047D01*
X84462285Y-43549523D01*
X84099428Y-43549523D01*
X85478285Y-42279523D02*
X86421714Y-42279523D01*
X85913714Y-42763333D01*
X86131428Y-42763333D01*
X86276571Y-42823809D01*
X86349142Y-42884285D01*
X86421714Y-43005238D01*
X86421714Y-43307619D01*
X86349142Y-43428571D01*
X86276571Y-43489047D01*
X86131428Y-43549523D01*
X85696000Y-43549523D01*
X85550857Y-43489047D01*
X85478285Y-43428571D01*
X87147428Y-43549523D02*
X87437714Y-43549523D01*
X87582857Y-43489047D01*
X87655428Y-43428571D01*
X87800571Y-43247142D01*
X87873142Y-43005238D01*
X87873142Y-42521428D01*
X87800571Y-42400476D01*
X87728000Y-42340000D01*
X87582857Y-42279523D01*
X87292571Y-42279523D01*
X87147428Y-42340000D01*
X87074857Y-42400476D01*
X87002285Y-42521428D01*
X87002285Y-42823809D01*
X87074857Y-42944761D01*
X87147428Y-43005238D01*
X87292571Y-43065714D01*
X87582857Y-43065714D01*
X87728000Y-43005238D01*
X87800571Y-42944761D01*
X87873142Y-42823809D01*
X172436928Y-29224523D02*
X172436928Y-27954523D01*
X172799785Y-27954523D01*
X173017500Y-28015000D01*
X173162642Y-28135952D01*
X173235214Y-28256904D01*
X173307785Y-28498809D01*
X173307785Y-28680238D01*
X173235214Y-28922142D01*
X173162642Y-29043095D01*
X173017500Y-29164047D01*
X172799785Y-29224523D01*
X172436928Y-29224523D01*
X174759214Y-29224523D02*
X173888357Y-29224523D01*
X174323785Y-29224523D02*
X174323785Y-27954523D01*
X174178642Y-28135952D01*
X174033500Y-28256904D01*
X173888357Y-28317380D01*
X175702642Y-27954523D02*
X175847785Y-27954523D01*
X175992928Y-28015000D01*
X176065500Y-28075476D01*
X176138071Y-28196428D01*
X176210642Y-28438333D01*
X176210642Y-28740714D01*
X176138071Y-28982619D01*
X176065500Y-29103571D01*
X175992928Y-29164047D01*
X175847785Y-29224523D01*
X175702642Y-29224523D01*
X175557500Y-29164047D01*
X175484928Y-29103571D01*
X175412357Y-28982619D01*
X175339785Y-28740714D01*
X175339785Y-28438333D01*
X175412357Y-28196428D01*
X175484928Y-28075476D01*
X175557500Y-28015000D01*
X175702642Y-27954523D01*
X143786928Y-43549523D02*
X143786928Y-42279523D01*
X144149785Y-42279523D01*
X144367500Y-42340000D01*
X144512642Y-42460952D01*
X144585214Y-42581904D01*
X144657785Y-42823809D01*
X144657785Y-43005238D01*
X144585214Y-43247142D01*
X144512642Y-43368095D01*
X144367500Y-43489047D01*
X144149785Y-43549523D01*
X143786928Y-43549523D01*
X145964071Y-42702857D02*
X145964071Y-43549523D01*
X145601214Y-42219047D02*
X145238357Y-43126190D01*
X146181785Y-43126190D01*
X146617214Y-42279523D02*
X147560642Y-42279523D01*
X147052642Y-42763333D01*
X147270357Y-42763333D01*
X147415500Y-42823809D01*
X147488071Y-42884285D01*
X147560642Y-43005238D01*
X147560642Y-43307619D01*
X147488071Y-43428571D01*
X147415500Y-43489047D01*
X147270357Y-43549523D01*
X146834928Y-43549523D01*
X146689785Y-43489047D01*
X146617214Y-43428571D01*
X153336928Y-38774523D02*
X153336928Y-37504523D01*
X153699785Y-37504523D01*
X153917500Y-37565000D01*
X154062642Y-37685952D01*
X154135214Y-37806904D01*
X154207785Y-38048809D01*
X154207785Y-38230238D01*
X154135214Y-38472142D01*
X154062642Y-38593095D01*
X153917500Y-38714047D01*
X153699785Y-38774523D01*
X153336928Y-38774523D01*
X154715785Y-37504523D02*
X155659214Y-37504523D01*
X155151214Y-37988333D01*
X155368928Y-37988333D01*
X155514071Y-38048809D01*
X155586642Y-38109285D01*
X155659214Y-38230238D01*
X155659214Y-38532619D01*
X155586642Y-38653571D01*
X155514071Y-38714047D01*
X155368928Y-38774523D01*
X154933500Y-38774523D01*
X154788357Y-38714047D01*
X154715785Y-38653571D01*
X156239785Y-37625476D02*
X156312357Y-37565000D01*
X156457500Y-37504523D01*
X156820357Y-37504523D01*
X156965500Y-37565000D01*
X157038071Y-37625476D01*
X157110642Y-37746428D01*
X157110642Y-37867380D01*
X157038071Y-38048809D01*
X156167214Y-38774523D01*
X157110642Y-38774523D01*
X93649428Y-38774523D02*
X93649428Y-37504523D01*
X94012285Y-37504523D01*
X94230000Y-37565000D01*
X94375142Y-37685952D01*
X94447714Y-37806904D01*
X94520285Y-38048809D01*
X94520285Y-38230238D01*
X94447714Y-38472142D01*
X94375142Y-38593095D01*
X94230000Y-38714047D01*
X94012285Y-38774523D01*
X93649428Y-38774523D01*
X95100857Y-37625476D02*
X95173428Y-37565000D01*
X95318571Y-37504523D01*
X95681428Y-37504523D01*
X95826571Y-37565000D01*
X95899142Y-37625476D01*
X95971714Y-37746428D01*
X95971714Y-37867380D01*
X95899142Y-38048809D01*
X95028285Y-38774523D01*
X95971714Y-38774523D01*
X96479714Y-37504523D02*
X97495714Y-37504523D01*
X96842571Y-38774523D01*
X141399428Y-38774523D02*
X141399428Y-37504523D01*
X141762285Y-37504523D01*
X141980000Y-37565000D01*
X142125142Y-37685952D01*
X142197714Y-37806904D01*
X142270285Y-38048809D01*
X142270285Y-38230238D01*
X142197714Y-38472142D01*
X142125142Y-38593095D01*
X141980000Y-38714047D01*
X141762285Y-38774523D01*
X141399428Y-38774523D01*
X142778285Y-37504523D02*
X143721714Y-37504523D01*
X143213714Y-37988333D01*
X143431428Y-37988333D01*
X143576571Y-38048809D01*
X143649142Y-38109285D01*
X143721714Y-38230238D01*
X143721714Y-38532619D01*
X143649142Y-38653571D01*
X143576571Y-38714047D01*
X143431428Y-38774523D01*
X142996000Y-38774523D01*
X142850857Y-38714047D01*
X142778285Y-38653571D01*
X145173142Y-38774523D02*
X144302285Y-38774523D01*
X144737714Y-38774523D02*
X144737714Y-37504523D01*
X144592571Y-37685952D01*
X144447428Y-37806904D01*
X144302285Y-37867380D01*
X91261928Y-33999523D02*
X91261928Y-32729523D01*
X91624785Y-32729523D01*
X91842500Y-32790000D01*
X91987642Y-32910952D01*
X92060214Y-33031904D01*
X92132785Y-33273809D01*
X92132785Y-33455238D01*
X92060214Y-33697142D01*
X91987642Y-33818095D01*
X91842500Y-33939047D01*
X91624785Y-33999523D01*
X91261928Y-33999523D01*
X93584214Y-33999523D02*
X92713357Y-33999523D01*
X93148785Y-33999523D02*
X93148785Y-32729523D01*
X93003642Y-32910952D01*
X92858500Y-33031904D01*
X92713357Y-33092380D01*
X94890500Y-32729523D02*
X94600214Y-32729523D01*
X94455071Y-32790000D01*
X94382500Y-32850476D01*
X94237357Y-33031904D01*
X94164785Y-33273809D01*
X94164785Y-33757619D01*
X94237357Y-33878571D01*
X94309928Y-33939047D01*
X94455071Y-33999523D01*
X94745357Y-33999523D01*
X94890500Y-33939047D01*
X94963071Y-33878571D01*
X95035642Y-33757619D01*
X95035642Y-33455238D01*
X94963071Y-33334285D01*
X94890500Y-33273809D01*
X94745357Y-33213333D01*
X94455071Y-33213333D01*
X94309928Y-33273809D01*
X94237357Y-33334285D01*
X94164785Y-33455238D01*
X184374428Y-29224523D02*
X184374428Y-27954523D01*
X184737285Y-27954523D01*
X184955000Y-28015000D01*
X185100142Y-28135952D01*
X185172714Y-28256904D01*
X185245285Y-28498809D01*
X185245285Y-28680238D01*
X185172714Y-28922142D01*
X185100142Y-29043095D01*
X184955000Y-29164047D01*
X184737285Y-29224523D01*
X184374428Y-29224523D01*
X186696714Y-29224523D02*
X185825857Y-29224523D01*
X186261285Y-29224523D02*
X186261285Y-27954523D01*
X186116142Y-28135952D01*
X185971000Y-28256904D01*
X185825857Y-28317380D01*
X188148142Y-29224523D02*
X187277285Y-29224523D01*
X187712714Y-29224523D02*
X187712714Y-27954523D01*
X187567571Y-28135952D01*
X187422428Y-28256904D01*
X187277285Y-28317380D01*
X125412642Y-29224523D02*
X125412642Y-27954523D01*
X125775500Y-27954523D01*
X125993214Y-28015000D01*
X126138357Y-28135952D01*
X126210928Y-28256904D01*
X126283500Y-28498809D01*
X126283500Y-28680238D01*
X126210928Y-28922142D01*
X126138357Y-29043095D01*
X125993214Y-29164047D01*
X125775500Y-29224523D01*
X125412642Y-29224523D01*
X127589785Y-27954523D02*
X127299500Y-27954523D01*
X127154357Y-28015000D01*
X127081785Y-28075476D01*
X126936642Y-28256904D01*
X126864071Y-28498809D01*
X126864071Y-28982619D01*
X126936642Y-29103571D01*
X127009214Y-29164047D01*
X127154357Y-29224523D01*
X127444642Y-29224523D01*
X127589785Y-29164047D01*
X127662357Y-29103571D01*
X127734928Y-28982619D01*
X127734928Y-28680238D01*
X127662357Y-28559285D01*
X127589785Y-28498809D01*
X127444642Y-28438333D01*
X127154357Y-28438333D01*
X127009214Y-28498809D01*
X126936642Y-28559285D01*
X126864071Y-28680238D01*
X149287642Y-29224523D02*
X149287642Y-27954523D01*
X149650500Y-27954523D01*
X149868214Y-28015000D01*
X150013357Y-28135952D01*
X150085928Y-28256904D01*
X150158500Y-28498809D01*
X150158500Y-28680238D01*
X150085928Y-28922142D01*
X150013357Y-29043095D01*
X149868214Y-29164047D01*
X149650500Y-29224523D01*
X149287642Y-29224523D01*
X151029357Y-28498809D02*
X150884214Y-28438333D01*
X150811642Y-28377857D01*
X150739071Y-28256904D01*
X150739071Y-28196428D01*
X150811642Y-28075476D01*
X150884214Y-28015000D01*
X151029357Y-27954523D01*
X151319642Y-27954523D01*
X151464785Y-28015000D01*
X151537357Y-28075476D01*
X151609928Y-28196428D01*
X151609928Y-28256904D01*
X151537357Y-28377857D01*
X151464785Y-28438333D01*
X151319642Y-28498809D01*
X151029357Y-28498809D01*
X150884214Y-28559285D01*
X150811642Y-28619761D01*
X150739071Y-28740714D01*
X150739071Y-28982619D01*
X150811642Y-29103571D01*
X150884214Y-29164047D01*
X151029357Y-29224523D01*
X151319642Y-29224523D01*
X151464785Y-29164047D01*
X151537357Y-29103571D01*
X151609928Y-28982619D01*
X151609928Y-28740714D01*
X151537357Y-28619761D01*
X151464785Y-28559285D01*
X151319642Y-28498809D01*
X177211928Y-38774523D02*
X177211928Y-37504523D01*
X177574785Y-37504523D01*
X177792500Y-37565000D01*
X177937642Y-37685952D01*
X178010214Y-37806904D01*
X178082785Y-38048809D01*
X178082785Y-38230238D01*
X178010214Y-38472142D01*
X177937642Y-38593095D01*
X177792500Y-38714047D01*
X177574785Y-38774523D01*
X177211928Y-38774523D01*
X178590785Y-37504523D02*
X179534214Y-37504523D01*
X179026214Y-37988333D01*
X179243928Y-37988333D01*
X179389071Y-38048809D01*
X179461642Y-38109285D01*
X179534214Y-38230238D01*
X179534214Y-38532619D01*
X179461642Y-38653571D01*
X179389071Y-38714047D01*
X179243928Y-38774523D01*
X178808500Y-38774523D01*
X178663357Y-38714047D01*
X178590785Y-38653571D01*
X180840500Y-37927857D02*
X180840500Y-38774523D01*
X180477642Y-37444047D02*
X180114785Y-38351190D01*
X181058214Y-38351190D01*
X191536928Y-43549523D02*
X191536928Y-42279523D01*
X191899785Y-42279523D01*
X192117500Y-42340000D01*
X192262642Y-42460952D01*
X192335214Y-42581904D01*
X192407785Y-42823809D01*
X192407785Y-43005238D01*
X192335214Y-43247142D01*
X192262642Y-43368095D01*
X192117500Y-43489047D01*
X191899785Y-43549523D01*
X191536928Y-43549523D01*
X193714071Y-42702857D02*
X193714071Y-43549523D01*
X193351214Y-42219047D02*
X192988357Y-43126190D01*
X193931785Y-43126190D01*
X195165500Y-42702857D02*
X195165500Y-43549523D01*
X194802642Y-42219047D02*
X194439785Y-43126190D01*
X195383214Y-43126190D01*
D10*
X49267857Y-41597309D02*
X49305952Y-41483023D01*
X49344047Y-41444928D01*
X49420238Y-41406833D01*
X49534523Y-41406833D01*
X49610714Y-41444928D01*
X49648809Y-41483023D01*
X49686904Y-41559214D01*
X49686904Y-41863976D01*
X48886904Y-41863976D01*
X48886904Y-41597309D01*
X48925000Y-41521119D01*
X48963095Y-41483023D01*
X49039285Y-41444928D01*
X49115476Y-41444928D01*
X49191666Y-41483023D01*
X49229761Y-41521119D01*
X49267857Y-41597309D01*
X49267857Y-41863976D01*
X49686904Y-40644928D02*
X49686904Y-41102071D01*
X49686904Y-40873500D02*
X48886904Y-40873500D01*
X49001190Y-40949690D01*
X49077380Y-41025880D01*
X49115476Y-41102071D01*
X39107857Y-41540166D02*
X39107857Y-41806833D01*
X39526904Y-41806833D02*
X38726904Y-41806833D01*
X38726904Y-41425880D01*
X38993571Y-40778261D02*
X39526904Y-40778261D01*
X38688809Y-40968738D02*
X39260238Y-41159214D01*
X39260238Y-40663976D01*
X31145000Y-41883023D02*
X31106904Y-41959214D01*
X31106904Y-42073500D01*
X31145000Y-42187785D01*
X31221190Y-42263976D01*
X31297380Y-42302071D01*
X31449761Y-42340166D01*
X31564047Y-42340166D01*
X31716428Y-42302071D01*
X31792619Y-42263976D01*
X31868809Y-42187785D01*
X31906904Y-42073500D01*
X31906904Y-41997309D01*
X31868809Y-41883023D01*
X31830714Y-41844928D01*
X31564047Y-41844928D01*
X31564047Y-41997309D01*
X31906904Y-41502071D02*
X31106904Y-41502071D01*
X31906904Y-41044928D01*
X31106904Y-41044928D01*
X31906904Y-40663976D02*
X31106904Y-40663976D01*
X31106904Y-40473500D01*
X31145000Y-40359214D01*
X31221190Y-40283023D01*
X31297380Y-40244928D01*
X31449761Y-40206833D01*
X31564047Y-40206833D01*
X31716428Y-40244928D01*
X31792619Y-40283023D01*
X31868809Y-40359214D01*
X31906904Y-40473500D01*
X31906904Y-40663976D01*
X39526904Y-30941976D02*
X38726904Y-30941976D01*
X38726904Y-30751500D01*
X38765000Y-30637214D01*
X38841190Y-30561023D01*
X38917380Y-30522928D01*
X39069761Y-30484833D01*
X39184047Y-30484833D01*
X39336428Y-30522928D01*
X39412619Y-30561023D01*
X39488809Y-30637214D01*
X39526904Y-30751500D01*
X39526904Y-30941976D01*
X39526904Y-29722928D02*
X39526904Y-30180071D01*
X39526904Y-29951500D02*
X38726904Y-29951500D01*
X38841190Y-30027690D01*
X38917380Y-30103880D01*
X38955476Y-30180071D01*
X51807857Y-30903880D02*
X51807857Y-30637214D01*
X52226904Y-30522928D02*
X52226904Y-30903880D01*
X51426904Y-30903880D01*
X51426904Y-30522928D01*
X51426904Y-29837214D02*
X51426904Y-29989595D01*
X51465000Y-30065785D01*
X51503095Y-30103880D01*
X51617380Y-30180071D01*
X51769761Y-30218166D01*
X52074523Y-30218166D01*
X52150714Y-30180071D01*
X52188809Y-30141976D01*
X52226904Y-30065785D01*
X52226904Y-29913404D01*
X52188809Y-29837214D01*
X52150714Y-29799119D01*
X52074523Y-29761023D01*
X51884047Y-29761023D01*
X51807857Y-29799119D01*
X51769761Y-29837214D01*
X51731666Y-29913404D01*
X51731666Y-30065785D01*
X51769761Y-30141976D01*
X51807857Y-30180071D01*
X51884047Y-30218166D01*
X54347857Y-41597309D02*
X54385952Y-41483023D01*
X54424047Y-41444928D01*
X54500238Y-41406833D01*
X54614523Y-41406833D01*
X54690714Y-41444928D01*
X54728809Y-41483023D01*
X54766904Y-41559214D01*
X54766904Y-41863976D01*
X53966904Y-41863976D01*
X53966904Y-41597309D01*
X54005000Y-41521119D01*
X54043095Y-41483023D01*
X54119285Y-41444928D01*
X54195476Y-41444928D01*
X54271666Y-41483023D01*
X54309761Y-41521119D01*
X54347857Y-41597309D01*
X54347857Y-41863976D01*
X54043095Y-41102071D02*
X54005000Y-41063976D01*
X53966904Y-40987785D01*
X53966904Y-40797309D01*
X54005000Y-40721119D01*
X54043095Y-40683023D01*
X54119285Y-40644928D01*
X54195476Y-40644928D01*
X54309761Y-40683023D01*
X54766904Y-41140166D01*
X54766904Y-40644928D01*
X28566904Y-34431104D02*
X28566904Y-33973961D01*
X29366904Y-34202532D02*
X28566904Y-34202532D01*
X28566904Y-33783485D02*
X29366904Y-33250151D01*
X28566904Y-33250151D02*
X29366904Y-33783485D01*
X28566904Y-32793008D02*
X28566904Y-32716818D01*
X28605000Y-32640628D01*
X28643095Y-32602532D01*
X28719285Y-32564437D01*
X28871666Y-32526342D01*
X29062142Y-32526342D01*
X29214523Y-32564437D01*
X29290714Y-32602532D01*
X29328809Y-32640628D01*
X29366904Y-32716818D01*
X29366904Y-32793008D01*
X29328809Y-32869199D01*
X29290714Y-32907294D01*
X29214523Y-32945389D01*
X29062142Y-32983485D01*
X28871666Y-32983485D01*
X28719285Y-32945389D01*
X28643095Y-32907294D01*
X28605000Y-32869199D01*
X28566904Y-32793008D01*
X28528809Y-31612056D02*
X29557380Y-32297770D01*
X29366904Y-31345389D02*
X28566904Y-31345389D01*
X28566904Y-31154913D01*
X28605000Y-31040628D01*
X28681190Y-30964437D01*
X28757380Y-30926342D01*
X28909761Y-30888247D01*
X29024047Y-30888247D01*
X29176428Y-30926342D01*
X29252619Y-30964437D01*
X29328809Y-31040628D01*
X29366904Y-31154913D01*
X29366904Y-31345389D01*
X28566904Y-30621580D02*
X28566904Y-30126342D01*
X28871666Y-30393008D01*
X28871666Y-30278723D01*
X28909761Y-30202532D01*
X28947857Y-30164437D01*
X29024047Y-30126342D01*
X29214523Y-30126342D01*
X29290714Y-30164437D01*
X29328809Y-30202532D01*
X29366904Y-30278723D01*
X29366904Y-30507294D01*
X29328809Y-30583485D01*
X29290714Y-30621580D01*
X51807857Y-41597309D02*
X51845952Y-41483023D01*
X51884047Y-41444928D01*
X51960238Y-41406833D01*
X52074523Y-41406833D01*
X52150714Y-41444928D01*
X52188809Y-41483023D01*
X52226904Y-41559214D01*
X52226904Y-41863976D01*
X51426904Y-41863976D01*
X51426904Y-41597309D01*
X51465000Y-41521119D01*
X51503095Y-41483023D01*
X51579285Y-41444928D01*
X51655476Y-41444928D01*
X51731666Y-41483023D01*
X51769761Y-41521119D01*
X51807857Y-41597309D01*
X51807857Y-41863976D01*
X51426904Y-41140166D02*
X51426904Y-40644928D01*
X51731666Y-40911595D01*
X51731666Y-40797309D01*
X51769761Y-40721119D01*
X51807857Y-40683023D01*
X51884047Y-40644928D01*
X52074523Y-40644928D01*
X52150714Y-40683023D01*
X52188809Y-40721119D01*
X52226904Y-40797309D01*
X52226904Y-41025880D01*
X52188809Y-41102071D01*
X52150714Y-41140166D01*
X31906904Y-30941976D02*
X31106904Y-30941976D01*
X31106904Y-30751500D01*
X31145000Y-30637214D01*
X31221190Y-30561023D01*
X31297380Y-30522928D01*
X31449761Y-30484833D01*
X31564047Y-30484833D01*
X31716428Y-30522928D01*
X31792619Y-30561023D01*
X31868809Y-30637214D01*
X31906904Y-30751500D01*
X31906904Y-30941976D01*
X31183095Y-30180071D02*
X31145000Y-30141976D01*
X31106904Y-30065785D01*
X31106904Y-29875309D01*
X31145000Y-29799119D01*
X31183095Y-29761023D01*
X31259285Y-29722928D01*
X31335476Y-29722928D01*
X31449761Y-29761023D01*
X31906904Y-30218166D01*
X31906904Y-29722928D01*
X54347857Y-30675309D02*
X54385952Y-30561023D01*
X54424047Y-30522928D01*
X54500238Y-30484833D01*
X54614523Y-30484833D01*
X54690714Y-30522928D01*
X54728809Y-30561023D01*
X54766904Y-30637214D01*
X54766904Y-30941976D01*
X53966904Y-30941976D01*
X53966904Y-30675309D01*
X54005000Y-30599119D01*
X54043095Y-30561023D01*
X54119285Y-30522928D01*
X54195476Y-30522928D01*
X54271666Y-30561023D01*
X54309761Y-30599119D01*
X54347857Y-30675309D01*
X54347857Y-30941976D01*
X54233571Y-29799119D02*
X54766904Y-29799119D01*
X53928809Y-29989595D02*
X54500238Y-30180071D01*
X54500238Y-29684833D01*
X44606904Y-30941976D02*
X43806904Y-30941976D01*
X43806904Y-30751500D01*
X43845000Y-30637214D01*
X43921190Y-30561023D01*
X43997380Y-30522928D01*
X44149761Y-30484833D01*
X44264047Y-30484833D01*
X44416428Y-30522928D01*
X44492619Y-30561023D01*
X44568809Y-30637214D01*
X44606904Y-30751500D01*
X44606904Y-30941976D01*
X44073571Y-29799119D02*
X44606904Y-29799119D01*
X43768809Y-29989595D02*
X44340238Y-30180071D01*
X44340238Y-29684833D01*
X42066904Y-30941976D02*
X41266904Y-30941976D01*
X41266904Y-30751500D01*
X41305000Y-30637214D01*
X41381190Y-30561023D01*
X41457380Y-30522928D01*
X41609761Y-30484833D01*
X41724047Y-30484833D01*
X41876428Y-30522928D01*
X41952619Y-30561023D01*
X42028809Y-30637214D01*
X42066904Y-30751500D01*
X42066904Y-30941976D01*
X41266904Y-29989595D02*
X41266904Y-29913404D01*
X41305000Y-29837214D01*
X41343095Y-29799119D01*
X41419285Y-29761023D01*
X41571666Y-29722928D01*
X41762142Y-29722928D01*
X41914523Y-29761023D01*
X41990714Y-29799119D01*
X42028809Y-29837214D01*
X42066904Y-29913404D01*
X42066904Y-29989595D01*
X42028809Y-30065785D01*
X41990714Y-30103880D01*
X41914523Y-30141976D01*
X41762142Y-30180071D01*
X41571666Y-30180071D01*
X41419285Y-30141976D01*
X41343095Y-30103880D01*
X41305000Y-30065785D01*
X41266904Y-29989595D01*
X49686904Y-30941976D02*
X48886904Y-30941976D01*
X48886904Y-30751500D01*
X48925000Y-30637214D01*
X49001190Y-30561023D01*
X49077380Y-30522928D01*
X49229761Y-30484833D01*
X49344047Y-30484833D01*
X49496428Y-30522928D01*
X49572619Y-30561023D01*
X49648809Y-30637214D01*
X49686904Y-30751500D01*
X49686904Y-30941976D01*
X48886904Y-30218166D02*
X48886904Y-29684833D01*
X49686904Y-30027690D01*
X29366904Y-41825880D02*
X28985952Y-42092547D01*
X29366904Y-42283023D02*
X28566904Y-42283023D01*
X28566904Y-41978261D01*
X28605000Y-41902071D01*
X28643095Y-41863976D01*
X28719285Y-41825880D01*
X28833571Y-41825880D01*
X28909761Y-41863976D01*
X28947857Y-41902071D01*
X28985952Y-41978261D01*
X28985952Y-42283023D01*
X29138333Y-41521119D02*
X29138333Y-41140166D01*
X29366904Y-41597309D02*
X28566904Y-41330642D01*
X29366904Y-41063976D01*
X28566904Y-40873500D02*
X29366904Y-40683023D01*
X28795476Y-40530642D01*
X29366904Y-40378261D01*
X28566904Y-40187785D01*
X56887857Y-30675309D02*
X56925952Y-30561023D01*
X56964047Y-30522928D01*
X57040238Y-30484833D01*
X57154523Y-30484833D01*
X57230714Y-30522928D01*
X57268809Y-30561023D01*
X57306904Y-30637214D01*
X57306904Y-30941976D01*
X56506904Y-30941976D01*
X56506904Y-30675309D01*
X56545000Y-30599119D01*
X56583095Y-30561023D01*
X56659285Y-30522928D01*
X56735476Y-30522928D01*
X56811666Y-30561023D01*
X56849761Y-30599119D01*
X56887857Y-30675309D01*
X56887857Y-30941976D01*
X56506904Y-29761023D02*
X56506904Y-30141976D01*
X56887857Y-30180071D01*
X56849761Y-30141976D01*
X56811666Y-30065785D01*
X56811666Y-29875309D01*
X56849761Y-29799119D01*
X56887857Y-29761023D01*
X56964047Y-29722928D01*
X57154523Y-29722928D01*
X57230714Y-29761023D01*
X57268809Y-29799119D01*
X57306904Y-29875309D01*
X57306904Y-30065785D01*
X57268809Y-30141976D01*
X57230714Y-30180071D01*
X41647857Y-41540166D02*
X41647857Y-41806833D01*
X42066904Y-41806833D02*
X41266904Y-41806833D01*
X41266904Y-41425880D01*
X41266904Y-40740166D02*
X41266904Y-41121119D01*
X41647857Y-41159214D01*
X41609761Y-41121119D01*
X41571666Y-41044928D01*
X41571666Y-40854452D01*
X41609761Y-40778261D01*
X41647857Y-40740166D01*
X41724047Y-40702071D01*
X41914523Y-40702071D01*
X41990714Y-40740166D01*
X42028809Y-40778261D01*
X42066904Y-40854452D01*
X42066904Y-41044928D01*
X42028809Y-41121119D01*
X41990714Y-41159214D01*
X47070714Y-30484833D02*
X47108809Y-30522928D01*
X47146904Y-30637214D01*
X47146904Y-30713404D01*
X47108809Y-30827690D01*
X47032619Y-30903880D01*
X46956428Y-30941976D01*
X46804047Y-30980071D01*
X46689761Y-30980071D01*
X46537380Y-30941976D01*
X46461190Y-30903880D01*
X46385000Y-30827690D01*
X46346904Y-30713404D01*
X46346904Y-30637214D01*
X46385000Y-30522928D01*
X46423095Y-30484833D01*
X46346904Y-29799119D02*
X46346904Y-29951500D01*
X46385000Y-30027690D01*
X46423095Y-30065785D01*
X46537380Y-30141976D01*
X46689761Y-30180071D01*
X46994523Y-30180071D01*
X47070714Y-30141976D01*
X47108809Y-30103880D01*
X47146904Y-30027690D01*
X47146904Y-29875309D01*
X47108809Y-29799119D01*
X47070714Y-29761023D01*
X46994523Y-29722928D01*
X46804047Y-29722928D01*
X46727857Y-29761023D01*
X46689761Y-29799119D01*
X46651666Y-29875309D01*
X46651666Y-30027690D01*
X46689761Y-30103880D01*
X46727857Y-30141976D01*
X46804047Y-30180071D01*
X56887857Y-41597309D02*
X56925952Y-41483023D01*
X56964047Y-41444928D01*
X57040238Y-41406833D01*
X57154523Y-41406833D01*
X57230714Y-41444928D01*
X57268809Y-41483023D01*
X57306904Y-41559214D01*
X57306904Y-41863976D01*
X56506904Y-41863976D01*
X56506904Y-41597309D01*
X56545000Y-41521119D01*
X56583095Y-41483023D01*
X56659285Y-41444928D01*
X56735476Y-41444928D01*
X56811666Y-41483023D01*
X56849761Y-41521119D01*
X56887857Y-41597309D01*
X56887857Y-41863976D01*
X56506904Y-40721119D02*
X56506904Y-40873500D01*
X56545000Y-40949690D01*
X56583095Y-40987785D01*
X56697380Y-41063976D01*
X56849761Y-41102071D01*
X57154523Y-41102071D01*
X57230714Y-41063976D01*
X57268809Y-41025880D01*
X57306904Y-40949690D01*
X57306904Y-40797309D01*
X57268809Y-40721119D01*
X57230714Y-40683023D01*
X57154523Y-40644928D01*
X56964047Y-40644928D01*
X56887857Y-40683023D01*
X56849761Y-40721119D01*
X56811666Y-40797309D01*
X56811666Y-40949690D01*
X56849761Y-41025880D01*
X56887857Y-41063976D01*
X56964047Y-41102071D01*
X46727857Y-41540166D02*
X46727857Y-41806833D01*
X47146904Y-41806833D02*
X46346904Y-41806833D01*
X46346904Y-41425880D01*
X46346904Y-41197309D02*
X46346904Y-40663976D01*
X47146904Y-41006833D01*
X34388809Y-41385833D02*
X34426904Y-41271547D01*
X34426904Y-41081071D01*
X34388809Y-41004880D01*
X34350714Y-40966785D01*
X34274523Y-40928690D01*
X34198333Y-40928690D01*
X34122142Y-40966785D01*
X34084047Y-41004880D01*
X34045952Y-41081071D01*
X34007857Y-41233452D01*
X33969761Y-41309642D01*
X33931666Y-41347738D01*
X33855476Y-41385833D01*
X33779285Y-41385833D01*
X33703095Y-41347738D01*
X33665000Y-41309642D01*
X33626904Y-41233452D01*
X33626904Y-41042976D01*
X33665000Y-40928690D01*
X33626904Y-40700119D02*
X33626904Y-40242976D01*
X34426904Y-40471547D02*
X33626904Y-40471547D01*
X36225000Y-30961023D02*
X36186904Y-31037214D01*
X36186904Y-31151500D01*
X36225000Y-31265785D01*
X36301190Y-31341976D01*
X36377380Y-31380071D01*
X36529761Y-31418166D01*
X36644047Y-31418166D01*
X36796428Y-31380071D01*
X36872619Y-31341976D01*
X36948809Y-31265785D01*
X36986904Y-31151500D01*
X36986904Y-31075309D01*
X36948809Y-30961023D01*
X36910714Y-30922928D01*
X36644047Y-30922928D01*
X36644047Y-31075309D01*
X36986904Y-30580071D02*
X36186904Y-30580071D01*
X36986904Y-30122928D01*
X36186904Y-30122928D01*
X36986904Y-29741976D02*
X36186904Y-29741976D01*
X36186904Y-29551500D01*
X36225000Y-29437214D01*
X36301190Y-29361023D01*
X36377380Y-29322928D01*
X36529761Y-29284833D01*
X36644047Y-29284833D01*
X36796428Y-29322928D01*
X36872619Y-29361023D01*
X36948809Y-29437214D01*
X36986904Y-29551500D01*
X36986904Y-29741976D01*
X44187857Y-41540166D02*
X44187857Y-41806833D01*
X44606904Y-41806833D02*
X43806904Y-41806833D01*
X43806904Y-41425880D01*
X43806904Y-40778261D02*
X43806904Y-40930642D01*
X43845000Y-41006833D01*
X43883095Y-41044928D01*
X43997380Y-41121119D01*
X44149761Y-41159214D01*
X44454523Y-41159214D01*
X44530714Y-41121119D01*
X44568809Y-41083023D01*
X44606904Y-41006833D01*
X44606904Y-40854452D01*
X44568809Y-40778261D01*
X44530714Y-40740166D01*
X44454523Y-40702071D01*
X44264047Y-40702071D01*
X44187857Y-40740166D01*
X44149761Y-40778261D01*
X44111666Y-40854452D01*
X44111666Y-41006833D01*
X44149761Y-41083023D01*
X44187857Y-41121119D01*
X44264047Y-41159214D01*
X36186904Y-42340166D02*
X36986904Y-42073500D01*
X36186904Y-41806833D01*
X36910714Y-41083023D02*
X36948809Y-41121119D01*
X36986904Y-41235404D01*
X36986904Y-41311595D01*
X36948809Y-41425880D01*
X36872619Y-41502071D01*
X36796428Y-41540166D01*
X36644047Y-41578261D01*
X36529761Y-41578261D01*
X36377380Y-41540166D01*
X36301190Y-41502071D01*
X36225000Y-41425880D01*
X36186904Y-41311595D01*
X36186904Y-41235404D01*
X36225000Y-41121119D01*
X36263095Y-41083023D01*
X36910714Y-40283023D02*
X36948809Y-40321119D01*
X36986904Y-40435404D01*
X36986904Y-40511595D01*
X36948809Y-40625880D01*
X36872619Y-40702071D01*
X36796428Y-40740166D01*
X36644047Y-40778261D01*
X36529761Y-40778261D01*
X36377380Y-40740166D01*
X36301190Y-40702071D01*
X36225000Y-40625880D01*
X36186904Y-40511595D01*
X36186904Y-40435404D01*
X36225000Y-40321119D01*
X36263095Y-40283023D01*
X33685000Y-30961023D02*
X33646904Y-31037214D01*
X33646904Y-31151500D01*
X33685000Y-31265785D01*
X33761190Y-31341976D01*
X33837380Y-31380071D01*
X33989761Y-31418166D01*
X34104047Y-31418166D01*
X34256428Y-31380071D01*
X34332619Y-31341976D01*
X34408809Y-31265785D01*
X34446904Y-31151500D01*
X34446904Y-31075309D01*
X34408809Y-30961023D01*
X34370714Y-30922928D01*
X34104047Y-30922928D01*
X34104047Y-31075309D01*
X34446904Y-30580071D02*
X33646904Y-30580071D01*
X34446904Y-30122928D01*
X33646904Y-30122928D01*
X34446904Y-29741976D02*
X33646904Y-29741976D01*
X33646904Y-29551500D01*
X33685000Y-29437214D01*
X33761190Y-29361023D01*
X33837380Y-29322928D01*
X33989761Y-29284833D01*
X34104047Y-29284833D01*
X34256428Y-29322928D01*
X34332619Y-29361023D01*
X34408809Y-29437214D01*
X34446904Y-29551500D01*
X34446904Y-29741976D01*
D12*
X98065000Y-83385000D02*
X98065000Y-69415000D01*
X98065000Y-69415000D02*
X112035000Y-69415000D01*
X112035000Y-69415000D02*
X112035000Y-83385000D01*
X112035000Y-83385000D02*
X98065000Y-83385000D01*
X102485000Y-88515000D02*
X102485000Y-102485000D01*
X102485000Y-102485000D02*
X88515000Y-102485000D01*
X88515000Y-102485000D02*
X88515000Y-88515000D01*
X88515000Y-88515000D02*
X102485000Y-88515000D01*
D10*
X108537500Y-37100000D02*
X108537500Y-39300000D01*
X108337500Y-39300000D02*
X108337500Y-37100000D01*
X108737500Y-37200000D02*
X108737500Y-37100000D01*
D11*
X108961500Y-39343000D02*
X105913500Y-39343000D01*
X105913500Y-39343000D02*
X105913500Y-37057000D01*
X105913500Y-37057000D02*
X108961500Y-37057000D01*
X108961500Y-37057000D02*
X108961500Y-39343000D01*
D10*
X108737500Y-37100000D02*
X108737500Y-37200000D01*
X108737500Y-39300000D02*
X108737500Y-37200000D01*
D12*
X50315000Y-88515000D02*
X64285000Y-88515000D01*
X64285000Y-102485000D02*
X50315000Y-102485000D01*
X64285000Y-88515000D02*
X64285000Y-102485000D01*
X50315000Y-102485000D02*
X50315000Y-88515000D01*
X52347500Y-102465000D02*
X38377500Y-102465000D01*
X38377500Y-102465000D02*
X38377500Y-88495000D01*
X38377500Y-88495000D02*
X52347500Y-88495000D01*
X52347500Y-88495000D02*
X52347500Y-102465000D01*
D11*
X130449000Y-34568000D02*
X127401000Y-34568000D01*
D10*
X129825000Y-34525000D02*
X129825000Y-32325000D01*
X130025000Y-32325000D02*
X130025000Y-34525000D01*
D11*
X127401000Y-32282000D02*
X130449000Y-32282000D01*
D10*
X130225000Y-32325000D02*
X130225000Y-32425000D01*
D11*
X130449000Y-32282000D02*
X130449000Y-34568000D01*
D10*
X130225000Y-32425000D02*
X130225000Y-32325000D01*
X130225000Y-34525000D02*
X130225000Y-32425000D01*
D11*
X127401000Y-34568000D02*
X127401000Y-32282000D01*
X136951000Y-27507000D02*
X139999000Y-27507000D01*
X136951000Y-29793000D02*
X136951000Y-27507000D01*
D10*
X139775000Y-27650000D02*
X139775000Y-27550000D01*
X139375000Y-29750000D02*
X139375000Y-27550000D01*
D11*
X139999000Y-29793000D02*
X136951000Y-29793000D01*
D10*
X139775000Y-27550000D02*
X139775000Y-27650000D01*
D11*
X139999000Y-27507000D02*
X139999000Y-29793000D01*
D10*
X139575000Y-27550000D02*
X139575000Y-29750000D01*
X139775000Y-29750000D02*
X139775000Y-27650000D01*
D12*
X253252500Y-83385000D02*
X253252500Y-69415000D01*
X267222500Y-83385000D02*
X253252500Y-83385000D01*
X253252500Y-69415000D02*
X267222500Y-69415000D01*
X267222500Y-69415000D02*
X267222500Y-83385000D01*
D11*
X70101000Y-39343000D02*
X70101000Y-37057000D01*
X70101000Y-37057000D02*
X73149000Y-37057000D01*
D10*
X72525000Y-39300000D02*
X72525000Y-37100000D01*
D11*
X73149000Y-37057000D02*
X73149000Y-39343000D01*
D10*
X72725000Y-37100000D02*
X72725000Y-39300000D01*
X72925000Y-39300000D02*
X72925000Y-37200000D01*
X72925000Y-37200000D02*
X72925000Y-37100000D01*
D11*
X73149000Y-39343000D02*
X70101000Y-39343000D01*
D10*
X72925000Y-37100000D02*
X72925000Y-37200000D01*
D12*
X197985000Y-102485000D02*
X184015000Y-102485000D01*
X184015000Y-102485000D02*
X184015000Y-88515000D01*
X197985000Y-88515000D02*
X197985000Y-102485000D01*
X184015000Y-88515000D02*
X197985000Y-88515000D01*
X145460000Y-50315000D02*
X145460000Y-64285000D01*
X131490000Y-50315000D02*
X145460000Y-50315000D01*
X131490000Y-64285000D02*
X131490000Y-50315000D01*
X145460000Y-64285000D02*
X131490000Y-64285000D01*
X224247500Y-121585000D02*
X210277500Y-121585000D01*
X210277500Y-107615000D02*
X224247500Y-107615000D01*
X224247500Y-107615000D02*
X224247500Y-121585000D01*
X210277500Y-121585000D02*
X210277500Y-107615000D01*
D11*
X103526000Y-32282000D02*
X106574000Y-32282000D01*
D10*
X106150000Y-32325000D02*
X106150000Y-34525000D01*
X106350000Y-34525000D02*
X106350000Y-32425000D01*
D11*
X106574000Y-32282000D02*
X106574000Y-34568000D01*
D10*
X106350000Y-32425000D02*
X106350000Y-32325000D01*
D11*
X103526000Y-34568000D02*
X103526000Y-32282000D01*
X106574000Y-34568000D02*
X103526000Y-34568000D01*
D10*
X106350000Y-32325000D02*
X106350000Y-32425000D01*
X105950000Y-34525000D02*
X105950000Y-32325000D01*
X68150000Y-27550000D02*
X68150000Y-27650000D01*
X67750000Y-29750000D02*
X67750000Y-27550000D01*
D11*
X68374000Y-29793000D02*
X65326000Y-29793000D01*
D10*
X68150000Y-27650000D02*
X68150000Y-27550000D01*
X67950000Y-27550000D02*
X67950000Y-29750000D01*
D11*
X68374000Y-27507000D02*
X68374000Y-29793000D01*
D10*
X68150000Y-29750000D02*
X68150000Y-27650000D01*
D11*
X65326000Y-27507000D02*
X68374000Y-27507000D01*
X65326000Y-29793000D02*
X65326000Y-27507000D01*
D12*
X126360000Y-64285000D02*
X112390000Y-64285000D01*
X112390000Y-50315000D02*
X126360000Y-50315000D01*
X112390000Y-64285000D02*
X112390000Y-50315000D01*
X126360000Y-50315000D02*
X126360000Y-64285000D01*
D11*
X178199000Y-34568000D02*
X175151000Y-34568000D01*
D10*
X177775000Y-32325000D02*
X177775000Y-34525000D01*
X177975000Y-32425000D02*
X177975000Y-32325000D01*
X177575000Y-34525000D02*
X177575000Y-32325000D01*
X177975000Y-32325000D02*
X177975000Y-32425000D01*
D11*
X175151000Y-32282000D02*
X178199000Y-32282000D01*
X175151000Y-34568000D02*
X175151000Y-32282000D01*
D10*
X177975000Y-34525000D02*
X177975000Y-32425000D01*
D11*
X178199000Y-32282000D02*
X178199000Y-34568000D01*
D12*
X164915000Y-102485000D02*
X164915000Y-88515000D01*
X178885000Y-102485000D02*
X164915000Y-102485000D01*
X164915000Y-88515000D02*
X178885000Y-88515000D01*
X178885000Y-88515000D02*
X178885000Y-102485000D01*
D10*
X82475000Y-34525000D02*
X82475000Y-32425000D01*
D11*
X79651000Y-32282000D02*
X82699000Y-32282000D01*
D10*
X82075000Y-34525000D02*
X82075000Y-32325000D01*
D11*
X82699000Y-34568000D02*
X79651000Y-34568000D01*
X79651000Y-34568000D02*
X79651000Y-32282000D01*
D10*
X82275000Y-32325000D02*
X82275000Y-34525000D01*
D11*
X82699000Y-32282000D02*
X82699000Y-34568000D01*
D10*
X82475000Y-32325000D02*
X82475000Y-32425000D01*
X82475000Y-32425000D02*
X82475000Y-32325000D01*
X120675000Y-39300000D02*
X120675000Y-37200000D01*
X120275000Y-39300000D02*
X120275000Y-37100000D01*
D11*
X117851000Y-37057000D02*
X120899000Y-37057000D01*
X120899000Y-39343000D02*
X117851000Y-39343000D01*
D10*
X120675000Y-37200000D02*
X120675000Y-37100000D01*
D11*
X120899000Y-37057000D02*
X120899000Y-39343000D01*
D10*
X120675000Y-37100000D02*
X120675000Y-37200000D01*
D11*
X117851000Y-39343000D02*
X117851000Y-37057000D01*
D10*
X120475000Y-37100000D02*
X120475000Y-39300000D01*
D12*
X126715000Y-88515000D02*
X140685000Y-88515000D01*
X140685000Y-88515000D02*
X140685000Y-102485000D01*
X140685000Y-102485000D02*
X126715000Y-102485000D01*
X126715000Y-102485000D02*
X126715000Y-88515000D01*
X243702500Y-69415000D02*
X257672500Y-69415000D01*
X243702500Y-83385000D02*
X243702500Y-69415000D01*
X257672500Y-83385000D02*
X243702500Y-83385000D01*
X257672500Y-69415000D02*
X257672500Y-83385000D01*
D10*
X170412500Y-44075000D02*
X170412500Y-41875000D01*
X170612500Y-41875000D02*
X170612500Y-44075000D01*
X170812500Y-44075000D02*
X170812500Y-41975000D01*
X170812500Y-41975000D02*
X170812500Y-41875000D01*
D11*
X167988500Y-41832000D02*
X171036500Y-41832000D01*
D10*
X170812500Y-41875000D02*
X170812500Y-41975000D01*
D11*
X171036500Y-41832000D02*
X171036500Y-44118000D01*
X171036500Y-44118000D02*
X167988500Y-44118000D01*
X167988500Y-44118000D02*
X167988500Y-41832000D01*
D12*
X185965000Y-121575000D02*
X171995000Y-121575000D01*
X185965000Y-107605000D02*
X185965000Y-121575000D01*
X171995000Y-107605000D02*
X185965000Y-107605000D01*
X171995000Y-121575000D02*
X171995000Y-107605000D01*
X150245000Y-107665000D02*
X150245000Y-121635000D01*
X150245000Y-121635000D02*
X136275000Y-121635000D01*
X136275000Y-121635000D02*
X136275000Y-107665000D01*
X136275000Y-107665000D02*
X150245000Y-107665000D01*
D10*
X84862500Y-37100000D02*
X84862500Y-37200000D01*
D11*
X82038500Y-39343000D02*
X82038500Y-37057000D01*
X82038500Y-37057000D02*
X85086500Y-37057000D01*
X85086500Y-37057000D02*
X85086500Y-39343000D01*
D10*
X84462500Y-39300000D02*
X84462500Y-37100000D01*
D11*
X85086500Y-39343000D02*
X82038500Y-39343000D01*
D10*
X84862500Y-37200000D02*
X84862500Y-37100000D01*
X84862500Y-39300000D02*
X84862500Y-37200000D01*
X84662500Y-37100000D02*
X84662500Y-39300000D01*
D12*
X42645000Y-83385000D02*
X28675000Y-83385000D01*
X28675000Y-69415000D02*
X42645000Y-69415000D01*
X42645000Y-69415000D02*
X42645000Y-83385000D01*
X28675000Y-83385000D02*
X28675000Y-69415000D01*
X183660000Y-64285000D02*
X169690000Y-64285000D01*
X169690000Y-64285000D02*
X169690000Y-50315000D01*
X183660000Y-50315000D02*
X183660000Y-64285000D01*
X169690000Y-50315000D02*
X183660000Y-50315000D01*
X264835000Y-50315000D02*
X264835000Y-64285000D01*
X250865000Y-64285000D02*
X250865000Y-50315000D01*
X250865000Y-50315000D02*
X264835000Y-50315000D01*
X264835000Y-64285000D02*
X250865000Y-64285000D01*
D10*
X206225000Y-44075000D02*
X206225000Y-41875000D01*
X206625000Y-41875000D02*
X206625000Y-41975000D01*
D11*
X203801000Y-44118000D02*
X203801000Y-41832000D01*
X203801000Y-41832000D02*
X206849000Y-41832000D01*
D10*
X206625000Y-41975000D02*
X206625000Y-41875000D01*
D11*
X206849000Y-41832000D02*
X206849000Y-44118000D01*
D10*
X206625000Y-44075000D02*
X206625000Y-41975000D01*
X206425000Y-41875000D02*
X206425000Y-44075000D01*
D11*
X206849000Y-44118000D02*
X203801000Y-44118000D01*
D10*
X92025000Y-27550000D02*
X92025000Y-27650000D01*
X91625000Y-29750000D02*
X91625000Y-27550000D01*
D11*
X89201000Y-27507000D02*
X92249000Y-27507000D01*
X92249000Y-29793000D02*
X89201000Y-29793000D01*
D10*
X91825000Y-27550000D02*
X91825000Y-29750000D01*
X92025000Y-29750000D02*
X92025000Y-27650000D01*
X92025000Y-27650000D02*
X92025000Y-27550000D01*
D11*
X92249000Y-27507000D02*
X92249000Y-29793000D01*
X89201000Y-29793000D02*
X89201000Y-27507000D01*
D12*
X83385000Y-102485000D02*
X69415000Y-102485000D01*
X83385000Y-88515000D02*
X83385000Y-102485000D01*
X69415000Y-88515000D02*
X83385000Y-88515000D01*
X69415000Y-102485000D02*
X69415000Y-88515000D01*
D11*
X199026000Y-34568000D02*
X199026000Y-32282000D01*
X199026000Y-32282000D02*
X202074000Y-32282000D01*
D10*
X201850000Y-32425000D02*
X201850000Y-32325000D01*
X201850000Y-34525000D02*
X201850000Y-32425000D01*
D11*
X202074000Y-32282000D02*
X202074000Y-34568000D01*
X202074000Y-34568000D02*
X199026000Y-34568000D01*
D10*
X201450000Y-34525000D02*
X201450000Y-32325000D01*
X201850000Y-32325000D02*
X201850000Y-32425000D01*
X201650000Y-32325000D02*
X201650000Y-34525000D01*
D12*
X107615000Y-102485000D02*
X107615000Y-88515000D01*
X121585000Y-102485000D02*
X107615000Y-102485000D01*
X121585000Y-88515000D02*
X121585000Y-102485000D01*
X107615000Y-88515000D02*
X121585000Y-88515000D01*
X31215000Y-64285000D02*
X31215000Y-50315000D01*
X45185000Y-64285000D02*
X31215000Y-64285000D01*
X45185000Y-50315000D02*
X45185000Y-64285000D01*
X31215000Y-50315000D02*
X45185000Y-50315000D01*
X74190000Y-50315000D02*
X88160000Y-50315000D01*
X88160000Y-64285000D02*
X74190000Y-64285000D01*
X74190000Y-64285000D02*
X74190000Y-50315000D01*
X88160000Y-50315000D02*
X88160000Y-64285000D01*
D11*
X132836500Y-39343000D02*
X129788500Y-39343000D01*
X129788500Y-39343000D02*
X129788500Y-37057000D01*
D10*
X132212500Y-39300000D02*
X132212500Y-37100000D01*
X132612500Y-37100000D02*
X132612500Y-37200000D01*
D11*
X132836500Y-37057000D02*
X132836500Y-39343000D01*
D10*
X132412500Y-37100000D02*
X132412500Y-39300000D01*
X132612500Y-39300000D02*
X132612500Y-37200000D01*
X132612500Y-37200000D02*
X132612500Y-37100000D01*
D11*
X129788500Y-37057000D02*
X132836500Y-37057000D01*
D10*
X192300000Y-37200000D02*
X192300000Y-37100000D01*
X191900000Y-39300000D02*
X191900000Y-37100000D01*
X192300000Y-37100000D02*
X192300000Y-37200000D01*
D11*
X192524000Y-37057000D02*
X192524000Y-39343000D01*
X192524000Y-39343000D02*
X189476000Y-39343000D01*
X189476000Y-37057000D02*
X192524000Y-37057000D01*
D10*
X192100000Y-37100000D02*
X192100000Y-39300000D01*
D11*
X189476000Y-39343000D02*
X189476000Y-37057000D01*
D10*
X192300000Y-39300000D02*
X192300000Y-37200000D01*
D11*
X163874000Y-27507000D02*
X163874000Y-29793000D01*
X163874000Y-29793000D02*
X160826000Y-29793000D01*
X160826000Y-29793000D02*
X160826000Y-27507000D01*
D10*
X163650000Y-27650000D02*
X163650000Y-27550000D01*
D11*
X160826000Y-27507000D02*
X163874000Y-27507000D01*
D10*
X163650000Y-29750000D02*
X163650000Y-27650000D01*
X163250000Y-29750000D02*
X163250000Y-27550000D01*
X163450000Y-27550000D02*
X163450000Y-29750000D01*
X163650000Y-27550000D02*
X163650000Y-27650000D01*
D12*
X50315000Y-121585000D02*
X50315000Y-107615000D01*
X64285000Y-107615000D02*
X64285000Y-121585000D01*
X64285000Y-121585000D02*
X50315000Y-121585000D01*
X50315000Y-107615000D02*
X64285000Y-107615000D01*
X255640000Y-42412000D02*
X255640000Y-28442000D01*
X269610000Y-28442000D02*
X269610000Y-42412000D01*
X269610000Y-42412000D02*
X255640000Y-42412000D01*
X255640000Y-28442000D02*
X269610000Y-28442000D01*
X237155400Y-35812500D02*
G75*
G03*
X237155400Y-35812500I-3000000J0D01*
G01*
X228255400Y-41912500D02*
X228255400Y-37812500D01*
X237955400Y-28312500D02*
X238255400Y-28012500D01*
X240055400Y-41912500D02*
X237655400Y-41912500D01*
X234655400Y-35812500D02*
X233655400Y-35812500D01*
X230655400Y-41912500D02*
X228255400Y-41912500D01*
X238255400Y-28612500D02*
X237955400Y-28312500D01*
X240055400Y-37812500D02*
X240055400Y-41912500D01*
X234155400Y-35312500D02*
X234155400Y-36312500D01*
X238255400Y-28012500D02*
X238255400Y-28612500D01*
X235455400Y-41912500D02*
X232855400Y-41912500D01*
X240055400Y-33812500D02*
X240055400Y-29712500D01*
X240055400Y-29712500D02*
X228255400Y-29712500D01*
X228255400Y-33812500D02*
X228255400Y-29712500D01*
X221860000Y-50315000D02*
X221860000Y-64285000D01*
X207890000Y-50315000D02*
X221860000Y-50315000D01*
X221860000Y-64285000D02*
X207890000Y-64285000D01*
X207890000Y-64285000D02*
X207890000Y-50315000D01*
D10*
X99187500Y-41875000D02*
X99187500Y-41975000D01*
D11*
X96363500Y-41832000D02*
X99411500Y-41832000D01*
D10*
X98987500Y-41875000D02*
X98987500Y-44075000D01*
X98787500Y-44075000D02*
X98787500Y-41875000D01*
X99187500Y-41975000D02*
X99187500Y-41875000D01*
D11*
X96363500Y-44118000D02*
X96363500Y-41832000D01*
X99411500Y-44118000D02*
X96363500Y-44118000D01*
D10*
X99187500Y-44075000D02*
X99187500Y-41975000D01*
D11*
X99411500Y-41832000D02*
X99411500Y-44118000D01*
D10*
X153900000Y-32325000D02*
X153900000Y-34525000D01*
X153700000Y-34525000D02*
X153700000Y-32325000D01*
D11*
X154324000Y-32282000D02*
X154324000Y-34568000D01*
X151276000Y-32282000D02*
X154324000Y-32282000D01*
D10*
X154100000Y-34525000D02*
X154100000Y-32425000D01*
D11*
X151276000Y-34568000D02*
X151276000Y-32282000D01*
X154324000Y-34568000D02*
X151276000Y-34568000D01*
D10*
X154100000Y-32325000D02*
X154100000Y-32425000D01*
X154100000Y-32425000D02*
X154100000Y-32325000D01*
X165837500Y-32325000D02*
X165837500Y-34525000D01*
X166037500Y-34525000D02*
X166037500Y-32425000D01*
X166037500Y-32325000D02*
X166037500Y-32425000D01*
D11*
X166261500Y-32282000D02*
X166261500Y-34568000D01*
D10*
X166037500Y-32425000D02*
X166037500Y-32325000D01*
X165637500Y-34525000D02*
X165637500Y-32325000D01*
D11*
X163213500Y-32282000D02*
X166261500Y-32282000D01*
X166261500Y-34568000D02*
X163213500Y-34568000D01*
X163213500Y-34568000D02*
X163213500Y-32282000D01*
D12*
X207535000Y-69415000D02*
X207535000Y-83385000D01*
X207535000Y-83385000D02*
X193565000Y-83385000D01*
X193565000Y-83385000D02*
X193565000Y-69415000D01*
X193565000Y-69415000D02*
X207535000Y-69415000D01*
X188435000Y-69415000D02*
X188435000Y-83385000D01*
X174465000Y-83385000D02*
X174465000Y-69415000D01*
X174465000Y-69415000D02*
X188435000Y-69415000D01*
X188435000Y-83385000D02*
X174465000Y-83385000D01*
X241140400Y-42797500D02*
X227170400Y-42797500D01*
X241140400Y-28827500D02*
X241140400Y-42797500D01*
X227170400Y-28827500D02*
X241140400Y-28827500D01*
X227170400Y-42797500D02*
X227170400Y-28827500D01*
D10*
X199462500Y-27550000D02*
X199462500Y-27650000D01*
X199462500Y-29750000D02*
X199462500Y-27650000D01*
X199462500Y-27650000D02*
X199462500Y-27550000D01*
D11*
X196638500Y-29793000D02*
X196638500Y-27507000D01*
X196638500Y-27507000D02*
X199686500Y-27507000D01*
X199686500Y-29793000D02*
X196638500Y-29793000D01*
X199686500Y-27507000D02*
X199686500Y-29793000D01*
D10*
X199062500Y-29750000D02*
X199062500Y-27550000D01*
X199262500Y-27550000D02*
X199262500Y-29750000D01*
X123062500Y-41975000D02*
X123062500Y-41875000D01*
D11*
X120238500Y-44118000D02*
X120238500Y-41832000D01*
X120238500Y-41832000D02*
X123286500Y-41832000D01*
D10*
X122662500Y-44075000D02*
X122662500Y-41875000D01*
X123062500Y-44075000D02*
X123062500Y-41975000D01*
D11*
X123286500Y-41832000D02*
X123286500Y-44118000D01*
X123286500Y-44118000D02*
X120238500Y-44118000D01*
D10*
X123062500Y-41875000D02*
X123062500Y-41975000D01*
X122862500Y-41875000D02*
X122862500Y-44075000D01*
D11*
X168649000Y-39343000D02*
X165601000Y-39343000D01*
D10*
X168225000Y-37100000D02*
X168225000Y-39300000D01*
D11*
X168649000Y-37057000D02*
X168649000Y-39343000D01*
D10*
X168425000Y-39300000D02*
X168425000Y-37200000D01*
X168025000Y-39300000D02*
X168025000Y-37100000D01*
D11*
X165601000Y-39343000D02*
X165601000Y-37057000D01*
X165601000Y-37057000D02*
X168649000Y-37057000D01*
D10*
X168425000Y-37200000D02*
X168425000Y-37100000D01*
X168425000Y-37100000D02*
X168425000Y-37200000D01*
D12*
X131135000Y-69415000D02*
X131135000Y-83385000D01*
X131135000Y-83385000D02*
X117165000Y-83385000D01*
X117165000Y-69415000D02*
X131135000Y-69415000D01*
X117165000Y-83385000D02*
X117165000Y-69415000D01*
X78965000Y-83385000D02*
X78965000Y-69415000D01*
X78965000Y-69415000D02*
X92935000Y-69415000D01*
X92935000Y-83385000D02*
X78965000Y-83385000D01*
X92935000Y-69415000D02*
X92935000Y-83385000D01*
D11*
X201413500Y-37057000D02*
X204461500Y-37057000D01*
X204461500Y-39343000D02*
X201413500Y-39343000D01*
D10*
X203837500Y-39300000D02*
X203837500Y-37100000D01*
X204237500Y-37200000D02*
X204237500Y-37100000D01*
X204237500Y-39300000D02*
X204237500Y-37200000D01*
X204037500Y-37100000D02*
X204037500Y-39300000D01*
D11*
X201413500Y-39343000D02*
X201413500Y-37057000D01*
X204461500Y-37057000D02*
X204461500Y-39343000D01*
D10*
X204237500Y-37100000D02*
X204237500Y-37200000D01*
D12*
X268525000Y-37427000D02*
X268525000Y-41527000D01*
X259125000Y-41527000D02*
X256725000Y-41527000D01*
X256725000Y-33427000D02*
X256725000Y-29327000D01*
X266725000Y-28227000D02*
X266425000Y-27927000D01*
X263125000Y-35427000D02*
X262125000Y-35427000D01*
X268525000Y-33427000D02*
X268525000Y-29327000D01*
X266425000Y-27927000D02*
X266725000Y-27627000D01*
X266725000Y-27627000D02*
X266725000Y-28227000D01*
X268525000Y-29327000D02*
X256725000Y-29327000D01*
X256725000Y-41527000D02*
X256725000Y-37427000D01*
X268525000Y-41527000D02*
X266125000Y-41527000D01*
X263925000Y-41527000D02*
X261325000Y-41527000D01*
X262625000Y-34927000D02*
X262625000Y-35927000D01*
X265625000Y-35427000D02*
G75*
G03*
X265625000Y-35427000I-3000000J0D01*
G01*
X93290000Y-64285000D02*
X93290000Y-50315000D01*
X107260000Y-64285000D02*
X93290000Y-64285000D01*
X93290000Y-50315000D02*
X107260000Y-50315000D01*
X107260000Y-50315000D02*
X107260000Y-64285000D01*
D11*
X101138500Y-29793000D02*
X101138500Y-27507000D01*
D10*
X103962500Y-27550000D02*
X103962500Y-27650000D01*
D11*
X104186500Y-29793000D02*
X101138500Y-29793000D01*
D10*
X103562500Y-29750000D02*
X103562500Y-27550000D01*
D11*
X104186500Y-27507000D02*
X104186500Y-29793000D01*
D10*
X103962500Y-27650000D02*
X103962500Y-27550000D01*
X103962500Y-29750000D02*
X103962500Y-27650000D01*
X103762500Y-27550000D02*
X103762500Y-29750000D01*
D11*
X101138500Y-27507000D02*
X104186500Y-27507000D01*
D12*
X150235000Y-69415000D02*
X150235000Y-83385000D01*
X136265000Y-69415000D02*
X150235000Y-69415000D01*
X136265000Y-83385000D02*
X136265000Y-69415000D01*
X150235000Y-83385000D02*
X136265000Y-83385000D01*
X267222500Y-107615000D02*
X267222500Y-121585000D01*
X253252500Y-107615000D02*
X267222500Y-107615000D01*
X253252500Y-121585000D02*
X253252500Y-107615000D01*
X267222500Y-121585000D02*
X253252500Y-121585000D01*
D10*
X115900000Y-29750000D02*
X115900000Y-27650000D01*
D11*
X113076000Y-27507000D02*
X116124000Y-27507000D01*
D10*
X115500000Y-29750000D02*
X115500000Y-27550000D01*
X115700000Y-27550000D02*
X115700000Y-29750000D01*
D11*
X116124000Y-29793000D02*
X113076000Y-29793000D01*
X116124000Y-27507000D02*
X116124000Y-29793000D01*
D10*
X115900000Y-27650000D02*
X115900000Y-27550000D01*
X115900000Y-27550000D02*
X115900000Y-27650000D01*
D11*
X113076000Y-29793000D02*
X113076000Y-27507000D01*
D12*
X150590000Y-64285000D02*
X150590000Y-50315000D01*
X150590000Y-50315000D02*
X164560000Y-50315000D01*
X164560000Y-50315000D02*
X164560000Y-64285000D01*
X164560000Y-64285000D02*
X150590000Y-64285000D01*
D11*
X142386500Y-34568000D02*
X139338500Y-34568000D01*
X139338500Y-34568000D02*
X139338500Y-32282000D01*
X139338500Y-32282000D02*
X142386500Y-32282000D01*
D10*
X142162500Y-34525000D02*
X142162500Y-32425000D01*
D11*
X142386500Y-32282000D02*
X142386500Y-34568000D01*
D10*
X142162500Y-32325000D02*
X142162500Y-32425000D01*
X141762500Y-34525000D02*
X141762500Y-32325000D01*
X141962500Y-32325000D02*
X141962500Y-34525000D01*
X142162500Y-32425000D02*
X142162500Y-32325000D01*
D12*
X155365000Y-83385000D02*
X155365000Y-69415000D01*
X169335000Y-69415000D02*
X169335000Y-83385000D01*
X169335000Y-83385000D02*
X155365000Y-83385000D01*
X155365000Y-69415000D02*
X169335000Y-69415000D01*
X202760000Y-50315000D02*
X202760000Y-64285000D01*
X188790000Y-64285000D02*
X188790000Y-50315000D01*
X188790000Y-50315000D02*
X202760000Y-50315000D01*
X202760000Y-64285000D02*
X188790000Y-64285000D01*
X28827500Y-121585000D02*
X28827500Y-107615000D01*
X42797500Y-107615000D02*
X42797500Y-121585000D01*
X28827500Y-107615000D02*
X42797500Y-107615000D01*
X42797500Y-121585000D02*
X28827500Y-121585000D01*
X236185000Y-88515000D02*
X236185000Y-102485000D01*
X222215000Y-88515000D02*
X236185000Y-88515000D01*
X236185000Y-102485000D02*
X222215000Y-102485000D01*
X222215000Y-102485000D02*
X222215000Y-88515000D01*
X138652500Y-121595000D02*
X138652500Y-107625000D01*
X152622500Y-107625000D02*
X152622500Y-121595000D01*
X138652500Y-107625000D02*
X152622500Y-107625000D01*
X152622500Y-121595000D02*
X138652500Y-121595000D01*
D10*
X158675000Y-41875000D02*
X158675000Y-44075000D01*
X158875000Y-44075000D02*
X158875000Y-41975000D01*
X158475000Y-44075000D02*
X158475000Y-41875000D01*
X158875000Y-41875000D02*
X158875000Y-41975000D01*
D11*
X156051000Y-44118000D02*
X156051000Y-41832000D01*
X159099000Y-41832000D02*
X159099000Y-44118000D01*
X156051000Y-41832000D02*
X159099000Y-41832000D01*
X159099000Y-44118000D02*
X156051000Y-44118000D01*
D10*
X158875000Y-41975000D02*
X158875000Y-41875000D01*
X70137500Y-34525000D02*
X70137500Y-32325000D01*
D11*
X70761500Y-34568000D02*
X67713500Y-34568000D01*
D10*
X70537500Y-32425000D02*
X70537500Y-32325000D01*
X70337500Y-32325000D02*
X70337500Y-34525000D01*
D11*
X67713500Y-34568000D02*
X67713500Y-32282000D01*
D10*
X70537500Y-32325000D02*
X70537500Y-32425000D01*
D11*
X70761500Y-32282000D02*
X70761500Y-34568000D01*
D10*
X70537500Y-34525000D02*
X70537500Y-32425000D01*
D11*
X67713500Y-32282000D02*
X70761500Y-32282000D01*
D10*
X182750000Y-44075000D02*
X182750000Y-41975000D01*
D11*
X182974000Y-41832000D02*
X182974000Y-44118000D01*
D10*
X182750000Y-41975000D02*
X182750000Y-41875000D01*
X182350000Y-44075000D02*
X182350000Y-41875000D01*
D11*
X179926000Y-44118000D02*
X179926000Y-41832000D01*
X182974000Y-44118000D02*
X179926000Y-44118000D01*
X179926000Y-41832000D02*
X182974000Y-41832000D01*
D10*
X182550000Y-41875000D02*
X182550000Y-44075000D01*
X182750000Y-41875000D02*
X182750000Y-41975000D01*
D12*
X226635000Y-69415000D02*
X226635000Y-83385000D01*
X212665000Y-83385000D02*
X212665000Y-69415000D01*
X226635000Y-83385000D02*
X212665000Y-83385000D01*
X212665000Y-69415000D02*
X226635000Y-69415000D01*
X213817500Y-31637500D02*
X211157500Y-31637500D01*
X213817500Y-39317500D02*
X211157500Y-39317500D01*
X213817500Y-39317500D02*
X213817500Y-31637500D01*
X211157500Y-41917500D02*
X211157500Y-40587500D01*
X211157500Y-39317500D02*
X211157500Y-31637500D01*
X212487500Y-41917500D02*
X211157500Y-41917500D01*
X245735000Y-107615000D02*
X245735000Y-121585000D01*
X245735000Y-121585000D02*
X231765000Y-121585000D01*
X231765000Y-107615000D02*
X245735000Y-107615000D01*
X231765000Y-121585000D02*
X231765000Y-107615000D01*
X71802500Y-121585000D02*
X71802500Y-107615000D01*
X71802500Y-107615000D02*
X85772500Y-107615000D01*
X85772500Y-107615000D02*
X85772500Y-121585000D01*
X85772500Y-121585000D02*
X71802500Y-121585000D01*
D10*
X189912500Y-32425000D02*
X189912500Y-32325000D01*
X189712500Y-32325000D02*
X189712500Y-34525000D01*
D11*
X190136500Y-34568000D02*
X187088500Y-34568000D01*
X187088500Y-32282000D02*
X190136500Y-32282000D01*
D10*
X189912500Y-32325000D02*
X189912500Y-32425000D01*
D11*
X187088500Y-34568000D02*
X187088500Y-32282000D01*
D10*
X189912500Y-34525000D02*
X189912500Y-32425000D01*
D11*
X190136500Y-32282000D02*
X190136500Y-34568000D01*
D10*
X189512500Y-34525000D02*
X189512500Y-32325000D01*
D12*
X83385000Y-121585000D02*
X69415000Y-121585000D01*
X83385000Y-107615000D02*
X83385000Y-121585000D01*
X69415000Y-121585000D02*
X69415000Y-107615000D01*
X69415000Y-107615000D02*
X83385000Y-107615000D01*
X203115000Y-102485000D02*
X203115000Y-88515000D01*
X217085000Y-88515000D02*
X217085000Y-102485000D01*
X203115000Y-88515000D02*
X217085000Y-88515000D01*
X217085000Y-102485000D02*
X203115000Y-102485000D01*
X105325000Y-121603000D02*
X105325000Y-107633000D01*
X119295000Y-121603000D02*
X105325000Y-121603000D01*
X105325000Y-107633000D02*
X119295000Y-107633000D01*
X119295000Y-107633000D02*
X119295000Y-121603000D01*
D11*
X75536500Y-41832000D02*
X75536500Y-44118000D01*
D10*
X75112500Y-41875000D02*
X75112500Y-44075000D01*
D11*
X72488500Y-44118000D02*
X72488500Y-41832000D01*
X72488500Y-41832000D02*
X75536500Y-41832000D01*
D10*
X75312500Y-41875000D02*
X75312500Y-41975000D01*
X75312500Y-41975000D02*
X75312500Y-41875000D01*
X75312500Y-44075000D02*
X75312500Y-41975000D01*
D11*
X75536500Y-44118000D02*
X72488500Y-44118000D01*
D10*
X74912500Y-44075000D02*
X74912500Y-41875000D01*
X135000000Y-41975000D02*
X135000000Y-41875000D01*
X135000000Y-41875000D02*
X135000000Y-41975000D01*
D11*
X135224000Y-41832000D02*
X135224000Y-44118000D01*
D10*
X134600000Y-44075000D02*
X134600000Y-41875000D01*
D11*
X132176000Y-41832000D02*
X135224000Y-41832000D01*
X132176000Y-44118000D02*
X132176000Y-41832000D01*
X135224000Y-44118000D02*
X132176000Y-44118000D01*
D10*
X134800000Y-41875000D02*
X134800000Y-44075000D01*
X135000000Y-44075000D02*
X135000000Y-41975000D01*
D12*
X55090000Y-50315000D02*
X69060000Y-50315000D01*
X55090000Y-64285000D02*
X55090000Y-50315000D01*
X69060000Y-64285000D02*
X55090000Y-64285000D01*
X69060000Y-50315000D02*
X69060000Y-64285000D01*
D10*
X79887500Y-27550000D02*
X79887500Y-29750000D01*
X80087500Y-27650000D02*
X80087500Y-27550000D01*
X80087500Y-27550000D02*
X80087500Y-27650000D01*
D11*
X77263500Y-27507000D02*
X80311500Y-27507000D01*
X80311500Y-29793000D02*
X77263500Y-29793000D01*
X80311500Y-27507000D02*
X80311500Y-29793000D01*
D10*
X80087500Y-29750000D02*
X80087500Y-27650000D01*
X79687500Y-29750000D02*
X79687500Y-27550000D01*
D11*
X77263500Y-29793000D02*
X77263500Y-27507000D01*
D10*
X117887500Y-34525000D02*
X117887500Y-32325000D01*
D11*
X115463500Y-34568000D02*
X115463500Y-32282000D01*
D10*
X118287500Y-32325000D02*
X118287500Y-32425000D01*
X118287500Y-32425000D02*
X118287500Y-32325000D01*
D11*
X118511500Y-34568000D02*
X115463500Y-34568000D01*
X115463500Y-32282000D02*
X118511500Y-32282000D01*
X118511500Y-32282000D02*
X118511500Y-34568000D01*
D10*
X118287500Y-34525000D02*
X118287500Y-32425000D01*
X118087500Y-32325000D02*
X118087500Y-34525000D01*
D11*
X84426000Y-44118000D02*
X84426000Y-41832000D01*
D10*
X87250000Y-44075000D02*
X87250000Y-41975000D01*
X87050000Y-41875000D02*
X87050000Y-44075000D01*
X86850000Y-44075000D02*
X86850000Y-41875000D01*
X87250000Y-41875000D02*
X87250000Y-41975000D01*
D11*
X87474000Y-41832000D02*
X87474000Y-44118000D01*
X87474000Y-44118000D02*
X84426000Y-44118000D01*
D10*
X87250000Y-41975000D02*
X87250000Y-41875000D01*
D11*
X84426000Y-41832000D02*
X87474000Y-41832000D01*
D12*
X262447500Y-88515000D02*
X262447500Y-102485000D01*
X248477500Y-88515000D02*
X262447500Y-88515000D01*
X262447500Y-102485000D02*
X248477500Y-102485000D01*
X248477500Y-102485000D02*
X248477500Y-88515000D01*
X145815000Y-102485000D02*
X145815000Y-88515000D01*
X159785000Y-102485000D02*
X145815000Y-102485000D01*
X159785000Y-88515000D02*
X159785000Y-102485000D01*
X145815000Y-88515000D02*
X159785000Y-88515000D01*
D10*
X175587500Y-27650000D02*
X175587500Y-27550000D01*
X175587500Y-27550000D02*
X175587500Y-27650000D01*
X175187500Y-29750000D02*
X175187500Y-27550000D01*
D11*
X175811500Y-29793000D02*
X172763500Y-29793000D01*
X175811500Y-27507000D02*
X175811500Y-29793000D01*
D10*
X175587500Y-29750000D02*
X175587500Y-27650000D01*
D11*
X172763500Y-29793000D02*
X172763500Y-27507000D01*
X172763500Y-27507000D02*
X175811500Y-27507000D01*
D10*
X175387500Y-27550000D02*
X175387500Y-29750000D01*
D11*
X144113500Y-41832000D02*
X147161500Y-41832000D01*
D10*
X146937500Y-44075000D02*
X146937500Y-41975000D01*
X146937500Y-41875000D02*
X146937500Y-41975000D01*
D11*
X147161500Y-41832000D02*
X147161500Y-44118000D01*
X147161500Y-44118000D02*
X144113500Y-44118000D01*
D10*
X146937500Y-41975000D02*
X146937500Y-41875000D01*
X146737500Y-41875000D02*
X146737500Y-44075000D01*
D11*
X144113500Y-44118000D02*
X144113500Y-41832000D01*
D10*
X146537500Y-44075000D02*
X146537500Y-41875000D01*
D11*
X156711500Y-39343000D02*
X153663500Y-39343000D01*
D10*
X156087500Y-39300000D02*
X156087500Y-37100000D01*
X156487500Y-37100000D02*
X156487500Y-37200000D01*
X156487500Y-39300000D02*
X156487500Y-37200000D01*
D11*
X153663500Y-39343000D02*
X153663500Y-37057000D01*
D10*
X156487500Y-37200000D02*
X156487500Y-37100000D01*
D11*
X156711500Y-37057000D02*
X156711500Y-39343000D01*
X153663500Y-37057000D02*
X156711500Y-37057000D01*
D10*
X156287500Y-37100000D02*
X156287500Y-39300000D01*
D11*
X93976000Y-37057000D02*
X97024000Y-37057000D01*
X93976000Y-39343000D02*
X93976000Y-37057000D01*
D10*
X96800000Y-37100000D02*
X96800000Y-37200000D01*
X96800000Y-37200000D02*
X96800000Y-37100000D01*
X96600000Y-37100000D02*
X96600000Y-39300000D01*
X96800000Y-39300000D02*
X96800000Y-37200000D01*
D11*
X97024000Y-37057000D02*
X97024000Y-39343000D01*
X97024000Y-39343000D02*
X93976000Y-39343000D01*
D10*
X96400000Y-39300000D02*
X96400000Y-37100000D01*
D12*
X28827500Y-88515000D02*
X42797500Y-88515000D01*
X28827500Y-102485000D02*
X28827500Y-88515000D01*
X42797500Y-102485000D02*
X28827500Y-102485000D01*
X42797500Y-88515000D02*
X42797500Y-102485000D01*
D10*
X144150000Y-39300000D02*
X144150000Y-37100000D01*
X144550000Y-37100000D02*
X144550000Y-37200000D01*
X144550000Y-37200000D02*
X144550000Y-37100000D01*
D11*
X144774000Y-39343000D02*
X141726000Y-39343000D01*
X141726000Y-39343000D02*
X141726000Y-37057000D01*
D10*
X144550000Y-39300000D02*
X144550000Y-37200000D01*
D11*
X141726000Y-37057000D02*
X144774000Y-37057000D01*
X144774000Y-37057000D02*
X144774000Y-39343000D01*
D10*
X144350000Y-37100000D02*
X144350000Y-39300000D01*
D12*
X226990000Y-64285000D02*
X226990000Y-50315000D01*
X226990000Y-50315000D02*
X240960000Y-50315000D01*
X240960000Y-50315000D02*
X240960000Y-64285000D01*
X240960000Y-64285000D02*
X226990000Y-64285000D01*
D10*
X94412500Y-34525000D02*
X94412500Y-32425000D01*
D11*
X91588500Y-32282000D02*
X94636500Y-32282000D01*
X91588500Y-34568000D02*
X91588500Y-32282000D01*
X94636500Y-32282000D02*
X94636500Y-34568000D01*
D10*
X94412500Y-32425000D02*
X94412500Y-32325000D01*
X94412500Y-32325000D02*
X94412500Y-32425000D01*
D11*
X94636500Y-34568000D02*
X91588500Y-34568000D01*
D10*
X94012500Y-34525000D02*
X94012500Y-32325000D01*
X94212500Y-32325000D02*
X94212500Y-34525000D01*
X187525000Y-27550000D02*
X187525000Y-27650000D01*
D11*
X187749000Y-27507000D02*
X187749000Y-29793000D01*
D10*
X187525000Y-29750000D02*
X187525000Y-27650000D01*
D11*
X184701000Y-29793000D02*
X184701000Y-27507000D01*
D10*
X187325000Y-27550000D02*
X187325000Y-29750000D01*
X187525000Y-27650000D02*
X187525000Y-27550000D01*
X187125000Y-29750000D02*
X187125000Y-27550000D01*
D11*
X187749000Y-29793000D02*
X184701000Y-29793000D01*
X184701000Y-27507000D02*
X187749000Y-27507000D01*
D12*
X59865000Y-69415000D02*
X73835000Y-69415000D01*
X73835000Y-69415000D02*
X73835000Y-83385000D01*
X59865000Y-83385000D02*
X59865000Y-69415000D01*
X73835000Y-83385000D02*
X59865000Y-83385000D01*
D10*
X127837500Y-27650000D02*
X127837500Y-27550000D01*
D11*
X125013500Y-29793000D02*
X125013500Y-27507000D01*
X128061500Y-27507000D02*
X128061500Y-29793000D01*
X128061500Y-29793000D02*
X125013500Y-29793000D01*
D10*
X127837500Y-29750000D02*
X127837500Y-27650000D01*
X127637500Y-27550000D02*
X127637500Y-29750000D01*
X127437500Y-29750000D02*
X127437500Y-27550000D01*
X127837500Y-27550000D02*
X127837500Y-27650000D01*
D11*
X125013500Y-27507000D02*
X128061500Y-27507000D01*
D10*
X151712500Y-27650000D02*
X151712500Y-27550000D01*
X151512500Y-27550000D02*
X151512500Y-29750000D01*
X151712500Y-29750000D02*
X151712500Y-27650000D01*
D11*
X151936500Y-27507000D02*
X151936500Y-29793000D01*
X148888500Y-27507000D02*
X151936500Y-27507000D01*
X151936500Y-29793000D02*
X148888500Y-29793000D01*
D10*
X151712500Y-27550000D02*
X151712500Y-27650000D01*
X151312500Y-29750000D02*
X151312500Y-27550000D01*
D11*
X148888500Y-29793000D02*
X148888500Y-27507000D01*
D10*
X179962500Y-39300000D02*
X179962500Y-37100000D01*
X180162500Y-37100000D02*
X180162500Y-39300000D01*
D11*
X180586500Y-39343000D02*
X177538500Y-39343000D01*
D10*
X180362500Y-39300000D02*
X180362500Y-37200000D01*
D11*
X177538500Y-39343000D02*
X177538500Y-37057000D01*
D10*
X180362500Y-37200000D02*
X180362500Y-37100000D01*
D11*
X177538500Y-37057000D02*
X180586500Y-37057000D01*
D10*
X180362500Y-37100000D02*
X180362500Y-37200000D01*
D11*
X180586500Y-37057000D02*
X180586500Y-39343000D01*
X191863500Y-44118000D02*
X191863500Y-41832000D01*
D10*
X194687500Y-44075000D02*
X194687500Y-41975000D01*
D11*
X194911500Y-44118000D02*
X191863500Y-44118000D01*
D10*
X194687500Y-41875000D02*
X194687500Y-41975000D01*
D11*
X194911500Y-41832000D02*
X194911500Y-44118000D01*
D10*
X194287500Y-44075000D02*
X194287500Y-41875000D01*
X194487500Y-41875000D02*
X194487500Y-44075000D01*
X194687500Y-41975000D02*
X194687500Y-41875000D01*
D11*
X191863500Y-41832000D02*
X194911500Y-41832000D01*
D12*
X33602500Y-83385000D02*
X33602500Y-69415000D01*
X47572500Y-69415000D02*
X47572500Y-83385000D01*
X33602500Y-69415000D02*
X47572500Y-69415000D01*
X47572500Y-83385000D02*
X33602500Y-83385000D01*
X245735000Y-69415000D02*
X245735000Y-83385000D01*
X245735000Y-83385000D02*
X231765000Y-83385000D01*
X231765000Y-83385000D02*
X231765000Y-69415000D01*
X231765000Y-69415000D02*
X245735000Y-69415000D01*
D13*
X58215000Y-44702500D02*
X25195000Y-44702500D01*
X27735000Y-29462500D02*
X30275000Y-29462500D01*
X25195000Y-44702500D02*
X25195000Y-26922500D01*
X27735000Y-29462500D02*
X27735000Y-26922500D01*
X25195000Y-26922500D02*
X58215000Y-26922500D01*
X58215000Y-26922500D02*
X58215000Y-44702500D01*
X30275000Y-29462500D02*
X30275000Y-26922500D01*
D10*
X33624030Y-41657135D02*
X33724030Y-41657135D01*
X33724030Y-41657135D02*
X33724030Y-42157135D01*
X33724030Y-42157135D02*
X33624030Y-42157135D01*
X33624030Y-42157135D02*
X33624030Y-41657135D01*
G36*
X33724030Y-42157135D02*
G01*
X33624030Y-42157135D01*
X33624030Y-41657135D01*
X33724030Y-41657135D01*
X33724030Y-42157135D01*
G37*
X33724030Y-42157135D02*
X33624030Y-42157135D01*
X33624030Y-41657135D01*
X33724030Y-41657135D01*
X33724030Y-42157135D01*
X34224030Y-41657135D02*
X34424030Y-41657135D01*
X34424030Y-41657135D02*
X34424030Y-41757135D01*
X34424030Y-41757135D02*
X34224030Y-41757135D01*
X34224030Y-41757135D02*
X34224030Y-41657135D01*
G36*
X34424030Y-41757135D02*
G01*
X34224030Y-41757135D01*
X34224030Y-41657135D01*
X34424030Y-41657135D01*
X34424030Y-41757135D01*
G37*
X34424030Y-41757135D02*
X34224030Y-41757135D01*
X34224030Y-41657135D01*
X34424030Y-41657135D01*
X34424030Y-41757135D01*
X33624030Y-41657135D02*
X33924030Y-41657135D01*
X33924030Y-41657135D02*
X33924030Y-41757135D01*
X33924030Y-41757135D02*
X33624030Y-41757135D01*
X33624030Y-41757135D02*
X33624030Y-41657135D01*
G36*
X33924030Y-41757135D02*
G01*
X33624030Y-41757135D01*
X33624030Y-41657135D01*
X33924030Y-41657135D01*
X33924030Y-41757135D01*
G37*
X33924030Y-41757135D02*
X33624030Y-41757135D01*
X33624030Y-41657135D01*
X33924030Y-41657135D01*
X33924030Y-41757135D01*
X33624030Y-42057135D02*
X34424030Y-42057135D01*
X34424030Y-42057135D02*
X34424030Y-42157135D01*
X34424030Y-42157135D02*
X33624030Y-42157135D01*
X33624030Y-42157135D02*
X33624030Y-42057135D01*
G36*
X34424030Y-42157135D02*
G01*
X33624030Y-42157135D01*
X33624030Y-42057135D01*
X34424030Y-42057135D01*
X34424030Y-42157135D01*
G37*
X34424030Y-42157135D02*
X33624030Y-42157135D01*
X33624030Y-42057135D01*
X34424030Y-42057135D01*
X34424030Y-42157135D01*
X34024030Y-41857135D02*
X34124030Y-41857135D01*
X34124030Y-41857135D02*
X34124030Y-41957135D01*
X34124030Y-41957135D02*
X34024030Y-41957135D01*
X34024030Y-41957135D02*
X34024030Y-41857135D01*
G36*
X34124030Y-41957135D02*
G01*
X34024030Y-41957135D01*
X34024030Y-41857135D01*
X34124030Y-41857135D01*
X34124030Y-41957135D01*
G37*
X34124030Y-41957135D02*
X34024030Y-41957135D01*
X34024030Y-41857135D01*
X34124030Y-41857135D01*
X34124030Y-41957135D01*
D14*
X103627500Y-38200000D03*
D15*
X111247500Y-38200000D03*
D14*
X125115000Y-33425000D03*
D15*
X132735000Y-33425000D03*
D14*
X134665000Y-28650000D03*
D15*
X142285000Y-28650000D03*
D14*
X67815000Y-38200000D03*
D15*
X75435000Y-38200000D03*
D14*
X101240000Y-33425000D03*
D15*
X108860000Y-33425000D03*
D14*
X63040000Y-28650000D03*
D15*
X70660000Y-28650000D03*
D14*
X172865000Y-33425000D03*
D15*
X180485000Y-33425000D03*
D14*
X77365000Y-33425000D03*
D15*
X84985000Y-33425000D03*
D14*
X115565000Y-38200000D03*
D15*
X123185000Y-38200000D03*
D14*
X165702500Y-42975000D03*
D15*
X173322500Y-42975000D03*
D14*
X79752500Y-38200000D03*
D15*
X87372500Y-38200000D03*
D14*
X201515000Y-42975000D03*
D15*
X209135000Y-42975000D03*
D14*
X86915000Y-28650000D03*
D15*
X94535000Y-28650000D03*
D14*
X196740000Y-33425000D03*
D15*
X204360000Y-33425000D03*
D14*
X127502500Y-38200000D03*
D15*
X135122500Y-38200000D03*
D14*
X187190000Y-38200000D03*
D15*
X194810000Y-38200000D03*
D14*
X158540000Y-28650000D03*
D15*
X166160000Y-28650000D03*
D14*
X94077500Y-42975000D03*
D15*
X101697500Y-42975000D03*
D14*
X148990000Y-33425000D03*
D15*
X156610000Y-33425000D03*
D14*
X160927500Y-33425000D03*
D15*
X168547500Y-33425000D03*
D14*
X194352500Y-28650000D03*
D15*
X201972500Y-28650000D03*
D14*
X117952500Y-42975000D03*
D15*
X125572500Y-42975000D03*
D14*
X163315000Y-38200000D03*
D15*
X170935000Y-38200000D03*
D14*
X199127500Y-38200000D03*
D15*
X206747500Y-38200000D03*
D14*
X98852500Y-28650000D03*
D15*
X106472500Y-28650000D03*
D14*
X110790000Y-28650000D03*
D15*
X118410000Y-28650000D03*
D14*
X137052500Y-33425000D03*
D15*
X144672500Y-33425000D03*
D14*
X153765000Y-42975000D03*
D15*
X161385000Y-42975000D03*
D14*
X65427500Y-33425000D03*
D15*
X73047500Y-33425000D03*
D14*
X177640000Y-42975000D03*
D15*
X185260000Y-42975000D03*
D14*
X184802500Y-33425000D03*
D15*
X192422500Y-33425000D03*
D14*
X70202500Y-42975000D03*
D15*
X77822500Y-42975000D03*
D14*
X129890000Y-42975000D03*
D15*
X137510000Y-42975000D03*
D14*
X74977500Y-28650000D03*
D15*
X82597500Y-28650000D03*
D14*
X113177500Y-33425000D03*
D15*
X120797500Y-33425000D03*
D14*
X82140000Y-42975000D03*
D15*
X89760000Y-42975000D03*
D14*
X170477500Y-28650000D03*
D15*
X178097500Y-28650000D03*
D14*
X141827500Y-42975000D03*
D15*
X149447500Y-42975000D03*
D14*
X151377500Y-38200000D03*
D15*
X158997500Y-38200000D03*
D14*
X91690000Y-38200000D03*
D15*
X99310000Y-38200000D03*
D14*
X139440000Y-38200000D03*
D15*
X147060000Y-38200000D03*
D14*
X89302500Y-33425000D03*
D15*
X96922500Y-33425000D03*
D14*
X182415000Y-28650000D03*
D15*
X190035000Y-28650000D03*
D14*
X122727500Y-28650000D03*
D15*
X130347500Y-28650000D03*
D14*
X146602500Y-28650000D03*
D15*
X154222500Y-28650000D03*
D14*
X175252500Y-38200000D03*
D15*
X182872500Y-38200000D03*
D14*
X189577500Y-42975000D03*
D15*
X197197500Y-42975000D03*
D16*
X29005000Y-27963900D03*
D17*
X31545000Y-28421100D03*
X34085000Y-27963900D03*
X36625000Y-28421100D03*
X39165000Y-27963900D03*
X41705000Y-28421100D03*
X44245000Y-27963900D03*
X46785000Y-28421100D03*
X49325000Y-27963900D03*
X51865000Y-28421100D03*
X54405000Y-27963900D03*
X56945000Y-28421100D03*
X56945000Y-43203900D03*
X54405000Y-43661100D03*
X51865000Y-43203900D03*
X49325000Y-43661100D03*
X46785000Y-43203900D03*
X44245000Y-43661100D03*
X41705000Y-43203900D03*
X39165000Y-43661100D03*
X36625000Y-43203900D03*
X34085000Y-43661100D03*
X31545000Y-43203900D03*
X29005000Y-43661100D03*
%LPC*%
D18*
X106015476Y-43879761D02*
X105825000Y-43784523D01*
X105729761Y-43594047D01*
X105729761Y-41879761D01*
X106777380Y-43879761D02*
X106777380Y-42546428D01*
X106777380Y-41879761D02*
X106682142Y-41975000D01*
X106777380Y-42070238D01*
X106872619Y-41975000D01*
X106777380Y-41879761D01*
X106777380Y-42070238D01*
X107444047Y-42546428D02*
X108205952Y-42546428D01*
X107729761Y-41879761D02*
X107729761Y-43594047D01*
X107825000Y-43784523D01*
X108015476Y-43879761D01*
X108205952Y-43879761D01*
X109158333Y-43879761D02*
X108967857Y-43784523D01*
X108872619Y-43594047D01*
X108872619Y-41879761D01*
X111253571Y-42546428D02*
X111729761Y-43879761D01*
X112205952Y-42546428D01*
X112777380Y-41879761D02*
X114015476Y-41879761D01*
X113348809Y-42641666D01*
X113634523Y-42641666D01*
X113825000Y-42736904D01*
X113920238Y-42832142D01*
X114015476Y-43022619D01*
X114015476Y-43498809D01*
X113920238Y-43689285D01*
X113825000Y-43784523D01*
X113634523Y-43879761D01*
X113063095Y-43879761D01*
X112872619Y-43784523D01*
X112777380Y-43689285D01*
D19*
X101240000Y-73860000D03*
X107590000Y-71320000D03*
D20*
X99970000Y-76400000D03*
D21*
X105050000Y-76400000D03*
D20*
X110130000Y-76400000D03*
D19*
X91690000Y-92960000D03*
X98040000Y-90420000D03*
D21*
X95500000Y-95500000D03*
D20*
X90420000Y-95500000D03*
X100580000Y-95500000D03*
D14*
X103627500Y-38200000D03*
D15*
X111247500Y-38200000D03*
D19*
X53490000Y-92960000D03*
X59840000Y-90420000D03*
D20*
X62380000Y-95500000D03*
D21*
X57300000Y-95500000D03*
D20*
X52220000Y-95500000D03*
D19*
X41552500Y-92940000D03*
X47902500Y-90400000D03*
D22*
X57262500Y-88480000D03*
X33462500Y-88480000D03*
D20*
X40282500Y-95480000D03*
X50442500Y-95480000D03*
D21*
X33462500Y-103720000D03*
X45362500Y-95480000D03*
X57262500Y-103720000D03*
D14*
X125115000Y-33425000D03*
D15*
X132735000Y-33425000D03*
D14*
X134665000Y-28650000D03*
D15*
X142285000Y-28650000D03*
D19*
X256427500Y-73860000D03*
X262777500Y-71320000D03*
D20*
X265317500Y-76400000D03*
D21*
X260237500Y-76400000D03*
D20*
X255157500Y-76400000D03*
D14*
X67815000Y-38200000D03*
D15*
X75435000Y-38200000D03*
D19*
X187190000Y-92960000D03*
X193540000Y-90420000D03*
D20*
X196080000Y-95500000D03*
D21*
X191000000Y-95500000D03*
D20*
X185920000Y-95500000D03*
D19*
X134665000Y-54760000D03*
X141015000Y-52220000D03*
D20*
X133395000Y-57300000D03*
X143555000Y-57300000D03*
D21*
X138475000Y-57300000D03*
D19*
X213452500Y-112060000D03*
X219802500Y-109520000D03*
D21*
X217262500Y-114600000D03*
D20*
X222342500Y-114600000D03*
X212182500Y-114600000D03*
D14*
X101240000Y-33425000D03*
D15*
X108860000Y-33425000D03*
D14*
X63040000Y-28650000D03*
D15*
X70660000Y-28650000D03*
D19*
X115565000Y-54760000D03*
X121915000Y-52220000D03*
D21*
X119375000Y-57300000D03*
D20*
X114295000Y-57300000D03*
X124455000Y-57300000D03*
D14*
X172865000Y-33425000D03*
D15*
X180485000Y-33425000D03*
D19*
X168090000Y-92960000D03*
X174440000Y-90420000D03*
D21*
X171900000Y-95500000D03*
D20*
X176980000Y-95500000D03*
X166820000Y-95500000D03*
D14*
X77365000Y-33425000D03*
D15*
X84985000Y-33425000D03*
D14*
X115565000Y-38200000D03*
D15*
X123185000Y-38200000D03*
D19*
X129890000Y-92960000D03*
X136240000Y-90420000D03*
D20*
X128620000Y-95500000D03*
X138780000Y-95500000D03*
D21*
X133700000Y-95500000D03*
D19*
X246877500Y-73860000D03*
X253227500Y-71320000D03*
D21*
X250687500Y-76400000D03*
D22*
X262587500Y-69400000D03*
D21*
X262587500Y-84640000D03*
D20*
X255767500Y-76400000D03*
X245607500Y-76400000D03*
D21*
X238787500Y-84640000D03*
D22*
X238787500Y-69400000D03*
D14*
X165702500Y-42975000D03*
D15*
X173322500Y-42975000D03*
D19*
X175170000Y-112050000D03*
X181520000Y-109510000D03*
D20*
X184060000Y-114590000D03*
X173900000Y-114590000D03*
D21*
X178980000Y-114590000D03*
D22*
X190880000Y-121590000D03*
X167080000Y-121590000D03*
D21*
X190880000Y-106350000D03*
X167080000Y-106350000D03*
D19*
X139450000Y-112110000D03*
X145800000Y-109570000D03*
D21*
X143260000Y-114650000D03*
D20*
X138180000Y-114650000D03*
X148340000Y-114650000D03*
D14*
X79752500Y-38200000D03*
D15*
X87372500Y-38200000D03*
D19*
X31850000Y-73860000D03*
X38200000Y-71320000D03*
D20*
X40740000Y-76400000D03*
D21*
X35660000Y-76400000D03*
D20*
X30580000Y-76400000D03*
D19*
X172865000Y-54760000D03*
X179215000Y-52220000D03*
D20*
X171595000Y-57300000D03*
X181755000Y-57300000D03*
D21*
X176675000Y-57300000D03*
D19*
X254040000Y-54760000D03*
X260390000Y-52220000D03*
D21*
X257850000Y-57300000D03*
D20*
X262930000Y-57300000D03*
X252770000Y-57300000D03*
D14*
X201515000Y-42975000D03*
D15*
X209135000Y-42975000D03*
D14*
X86915000Y-28650000D03*
D15*
X94535000Y-28650000D03*
D19*
X72590000Y-92960000D03*
X78940000Y-90420000D03*
D20*
X81480000Y-95500000D03*
D21*
X76400000Y-95500000D03*
D20*
X71320000Y-95500000D03*
D14*
X196740000Y-33425000D03*
D15*
X204360000Y-33425000D03*
D19*
X110790000Y-92960000D03*
X117140000Y-90420000D03*
D20*
X109520000Y-95500000D03*
D21*
X114600000Y-95500000D03*
D20*
X119680000Y-95500000D03*
D19*
X34390000Y-54760000D03*
X40740000Y-52220000D03*
D20*
X43280000Y-57300000D03*
X33120000Y-57300000D03*
D21*
X38200000Y-57300000D03*
D19*
X77365000Y-54760000D03*
X83715000Y-52220000D03*
D20*
X76095000Y-57300000D03*
X86255000Y-57300000D03*
D21*
X81175000Y-57300000D03*
D14*
X127502500Y-38200000D03*
D15*
X135122500Y-38200000D03*
D14*
X187190000Y-38200000D03*
D15*
X194810000Y-38200000D03*
D14*
X158540000Y-28650000D03*
D15*
X166160000Y-28650000D03*
D19*
X53490000Y-112060000D03*
X59840000Y-109520000D03*
D20*
X62380000Y-114600000D03*
X52220000Y-114600000D03*
D21*
X57300000Y-114600000D03*
D19*
X266435000Y-37967000D03*
X260085000Y-40507000D03*
D20*
X267705000Y-35427000D03*
D21*
X262625000Y-35427000D03*
D20*
X257545000Y-35427000D03*
D23*
X236655400Y-42812500D03*
X231655400Y-42812500D03*
X234155400Y-28312500D03*
X231655400Y-28312500D03*
D24*
X236655400Y-28312500D03*
D25*
X239755400Y-35812500D03*
X228555400Y-35812500D03*
D19*
X211065000Y-54760000D03*
X217415000Y-52220000D03*
D20*
X209795000Y-57300000D03*
X219955000Y-57300000D03*
D21*
X214875000Y-57300000D03*
D14*
X94077500Y-42975000D03*
D15*
X101697500Y-42975000D03*
D14*
X148990000Y-33425000D03*
D15*
X156610000Y-33425000D03*
D14*
X160927500Y-33425000D03*
D15*
X168547500Y-33425000D03*
D19*
X196740000Y-73860000D03*
X203090000Y-71320000D03*
D21*
X200550000Y-76400000D03*
D20*
X205630000Y-76400000D03*
X195470000Y-76400000D03*
D19*
X177640000Y-73860000D03*
X183990000Y-71320000D03*
D20*
X186530000Y-76400000D03*
X176370000Y-76400000D03*
D21*
X181450000Y-76400000D03*
D20*
X239235400Y-35812500D03*
X229075400Y-35812500D03*
D21*
X234155400Y-35812500D03*
D19*
X231615400Y-40892500D03*
X237965400Y-38352500D03*
D14*
X194352500Y-28650000D03*
D15*
X201972500Y-28650000D03*
D14*
X117952500Y-42975000D03*
D15*
X125572500Y-42975000D03*
D14*
X163315000Y-38200000D03*
D15*
X170935000Y-38200000D03*
D19*
X120340000Y-73860000D03*
X126690000Y-71320000D03*
D20*
X119070000Y-76400000D03*
X129230000Y-76400000D03*
D21*
X124150000Y-76400000D03*
D19*
X82140000Y-73860000D03*
X88490000Y-71320000D03*
D21*
X85950000Y-76400000D03*
D20*
X91030000Y-76400000D03*
X80870000Y-76400000D03*
D14*
X199127500Y-38200000D03*
D15*
X206747500Y-38200000D03*
D25*
X257025000Y-35427000D03*
X268225000Y-35427000D03*
D24*
X265125000Y-27927000D03*
D23*
X260125000Y-27927000D03*
X262625000Y-27927000D03*
X260125000Y-42427000D03*
X265125000Y-42427000D03*
D19*
X96465000Y-54760000D03*
X102815000Y-52220000D03*
D21*
X100275000Y-57300000D03*
D20*
X95195000Y-57300000D03*
X105355000Y-57300000D03*
D14*
X98852500Y-28650000D03*
D15*
X106472500Y-28650000D03*
D19*
X139440000Y-73860000D03*
X145790000Y-71320000D03*
D20*
X148330000Y-76400000D03*
D21*
X143250000Y-76400000D03*
D20*
X138170000Y-76400000D03*
D19*
X256427500Y-112060000D03*
X262777500Y-109520000D03*
D20*
X255157500Y-114600000D03*
D21*
X260237500Y-114600000D03*
D20*
X265317500Y-114600000D03*
D14*
X110790000Y-28650000D03*
D15*
X118410000Y-28650000D03*
D19*
X153765000Y-54760000D03*
X160115000Y-52220000D03*
D20*
X152495000Y-57300000D03*
D21*
X157575000Y-57300000D03*
D20*
X162655000Y-57300000D03*
D14*
X137052500Y-33425000D03*
D15*
X144672500Y-33425000D03*
D19*
X158540000Y-73860000D03*
X164890000Y-71320000D03*
D21*
X162350000Y-76400000D03*
D20*
X157270000Y-76400000D03*
X167430000Y-76400000D03*
D19*
X191965000Y-54760000D03*
X198315000Y-52220000D03*
D21*
X195775000Y-57300000D03*
D20*
X190695000Y-57300000D03*
X200855000Y-57300000D03*
D19*
X32002500Y-112060000D03*
X38352500Y-109520000D03*
D21*
X35812500Y-114600000D03*
D20*
X40892500Y-114600000D03*
X30732500Y-114600000D03*
D19*
X225390000Y-92960000D03*
X231740000Y-90420000D03*
D20*
X234280000Y-95500000D03*
X224120000Y-95500000D03*
D21*
X229200000Y-95500000D03*
D19*
X141827500Y-112070000D03*
X148177500Y-109530000D03*
D22*
X195637500Y-121610000D03*
D20*
X140557500Y-114610000D03*
X150717500Y-114610000D03*
D22*
X95637500Y-121610000D03*
D21*
X95637500Y-106370000D03*
X195637500Y-106370000D03*
X145637500Y-114610000D03*
D14*
X153765000Y-42975000D03*
D15*
X161385000Y-42975000D03*
D14*
X65427500Y-33425000D03*
D15*
X73047500Y-33425000D03*
D14*
X177640000Y-42975000D03*
D15*
X185260000Y-42975000D03*
D19*
X215840000Y-73860000D03*
X222190000Y-71320000D03*
D21*
X219650000Y-76400000D03*
D20*
X214570000Y-76400000D03*
X224730000Y-76400000D03*
D26*
X212487500Y-40587500D03*
D27*
X212487500Y-38047500D03*
X212487500Y-35507500D03*
X212487500Y-32967500D03*
D19*
X234940000Y-112060000D03*
X241290000Y-109520000D03*
D21*
X238750000Y-114600000D03*
D20*
X243830000Y-114600000D03*
X233670000Y-114600000D03*
D19*
X74977500Y-112060000D03*
X81327500Y-109520000D03*
D20*
X73707500Y-114600000D03*
X83867500Y-114600000D03*
D21*
X78787500Y-114600000D03*
D14*
X184802500Y-33425000D03*
D15*
X192422500Y-33425000D03*
D19*
X72590000Y-112060000D03*
X78940000Y-109520000D03*
D20*
X71320000Y-114600000D03*
D21*
X76400000Y-114600000D03*
D20*
X81480000Y-114600000D03*
D19*
X206290000Y-92960000D03*
X212640000Y-90420000D03*
D21*
X210100000Y-95500000D03*
D20*
X215180000Y-95500000D03*
X205020000Y-95500000D03*
D19*
X108500000Y-112078000D03*
X114850000Y-109538000D03*
D20*
X117390000Y-114618000D03*
D21*
X112310000Y-114618000D03*
D22*
X124210000Y-121618000D03*
X100410000Y-121618000D03*
D21*
X124210000Y-106378000D03*
D20*
X107230000Y-114618000D03*
D21*
X100410000Y-106378000D03*
D14*
X70202500Y-42975000D03*
D15*
X77822500Y-42975000D03*
D14*
X129890000Y-42975000D03*
D15*
X137510000Y-42975000D03*
D19*
X58265000Y-54760000D03*
X64615000Y-52220000D03*
D20*
X67155000Y-57300000D03*
D21*
X62075000Y-57300000D03*
D20*
X56995000Y-57300000D03*
D14*
X74977500Y-28650000D03*
D15*
X82597500Y-28650000D03*
D14*
X113177500Y-33425000D03*
D15*
X120797500Y-33425000D03*
D14*
X82140000Y-42975000D03*
D15*
X89760000Y-42975000D03*
D19*
X251652500Y-92960000D03*
X258002500Y-90420000D03*
D20*
X260542500Y-95500000D03*
X250382500Y-95500000D03*
D21*
X255462500Y-95500000D03*
D19*
X148990000Y-92960000D03*
X155340000Y-90420000D03*
D20*
X157880000Y-95500000D03*
D21*
X152800000Y-95500000D03*
D20*
X147720000Y-95500000D03*
D14*
X170477500Y-28650000D03*
D15*
X178097500Y-28650000D03*
D14*
X141827500Y-42975000D03*
D15*
X149447500Y-42975000D03*
D14*
X151377500Y-38200000D03*
D15*
X158997500Y-38200000D03*
D14*
X91690000Y-38200000D03*
D15*
X99310000Y-38200000D03*
D19*
X32002500Y-92960000D03*
X38352500Y-90420000D03*
D20*
X30732500Y-95500000D03*
X40892500Y-95500000D03*
D21*
X35812500Y-95500000D03*
D14*
X139440000Y-38200000D03*
D15*
X147060000Y-38200000D03*
D19*
X230165000Y-54760000D03*
X236515000Y-52220000D03*
D20*
X239055000Y-57300000D03*
D21*
X233975000Y-57300000D03*
D20*
X228895000Y-57300000D03*
D14*
X89302500Y-33425000D03*
D15*
X96922500Y-33425000D03*
D14*
X182415000Y-28650000D03*
D15*
X190035000Y-28650000D03*
D19*
X63040000Y-73860000D03*
X69390000Y-71320000D03*
D20*
X61770000Y-76400000D03*
X71930000Y-76400000D03*
D21*
X66850000Y-76400000D03*
D14*
X122727500Y-28650000D03*
D15*
X130347500Y-28650000D03*
D14*
X146602500Y-28650000D03*
D15*
X154222500Y-28650000D03*
D14*
X175252500Y-38200000D03*
D15*
X182872500Y-38200000D03*
D14*
X189577500Y-42975000D03*
D15*
X197197500Y-42975000D03*
D19*
X36777500Y-73860000D03*
X43127500Y-71320000D03*
D21*
X40587500Y-76400000D03*
D20*
X45667500Y-76400000D03*
X35507500Y-76400000D03*
D19*
X234940000Y-73860000D03*
X241290000Y-71320000D03*
D20*
X233670000Y-76400000D03*
D21*
X238750000Y-76400000D03*
D20*
X243830000Y-76400000D03*
D16*
X29005000Y-27963900D03*
D17*
X31545000Y-28421100D03*
X34085000Y-27963900D03*
X36625000Y-28421100D03*
X39165000Y-27963900D03*
X41705000Y-28421100D03*
X44245000Y-27963900D03*
X46785000Y-28421100D03*
X49325000Y-27963900D03*
X51865000Y-28421100D03*
X54405000Y-27963900D03*
X56945000Y-28421100D03*
X56945000Y-43203900D03*
X54405000Y-43661100D03*
X51865000Y-43203900D03*
X49325000Y-43661100D03*
X46785000Y-43203900D03*
X44245000Y-43661100D03*
X41705000Y-43203900D03*
X39165000Y-43661100D03*
X36625000Y-43203900D03*
X34085000Y-43661100D03*
X31545000Y-43203900D03*
X29005000Y-43661100D03*
M02*
