<?xml version="1.0" standalone="no"?>
 <!DOCTYPE svg PUBLIC "-//W3C//DTD SVG 1.1//EN" 
 "http://www.w3.org/Graphics/SVG/1.1/DTD/svg11.dtd"> 
<svg
  xmlns:svg="http://www.w3.org/2000/svg"
  xmlns="http://www.w3.org/2000/svg"
  xmlns:xlink="http://www.w3.org/1999/xlink"
  version="1.1"
  width="29.700220cm" height="21.000720cm" viewBox="0 0 297002200 210007200">
<title>SVG Picture created as Acrylic Guard-Edge_Cuts.svg date 2022/08/25 17:22:04 </title>
  <desc>Picture generated by PCBNEW </desc>
<g style="fill:#000000; fill-opacity:1.000000;stroke:#000000; stroke-opacity:1.000000;
stroke-linecap:round; stroke-linejoin:round;"
 transform="translate(0 0) scale(1 1)">
</g>
<g style="fill:#000000; fill-opacity:0.0; 
stroke:#000000; stroke-width:0.000000; stroke-opacity:1; 
stroke-linecap:round; stroke-linejoin:round;">
</g>
<g style="fill:#000000; fill-opacity:0.0; 
stroke:#000000; stroke-width:100000.000000; stroke-opacity:1; 
stroke-linecap:round; stroke-linejoin:round;">
<path d="M259025000 96432131
L259035000 83705000
" />
<path d="M28412873.000001 96432131.000002 A4774997.000000 4774997.000000 0.0 0 0 33187870.000000 101207131.000000" />
<path d="M254250000.000002 101207127.999999 A4774997.000000 4774997.000000 0.0 0 0 259025000.000000 96432131.000000" />
</g>
<g style="fill:#000000; fill-opacity:0.0; 
stroke:#000000; stroke-width:150000.000000; stroke-opacity:1; 
stroke-linecap:round; stroke-linejoin:round;">
<circle cx="255238935.000000" cy="90371066.000000" r="2200000.000000" /> 
</g>
<g style="fill:#000000; fill-opacity:0.0; 
stroke:#000000; stroke-width:100000.000000; stroke-opacity:1; 
stroke-linecap:round; stroke-linejoin:round;">
<path d="M259034996.999999 83704999.999998 A4774997.000000 4774997.000000 0.0 0 0 254260000.000000 78930000.000000" />
<path d="M28422870 83705000
L28412870 96432131
" />
<path d="M33197869.999998 78930003.000001 A4774997.000000 4774997.000000 0.0 0 0 28422870.000000 83705000.000000" />
<path d="M254260000 78930000
L33197870 78930000
" />
<path d="M33187870 101207131
L254250000 101207131
" />
</g>
<g style="fill:#000000; fill-opacity:0.0; 
stroke:#000000; stroke-width:150000.000000; stroke-opacity:1; 
stroke-linecap:round; stroke-linejoin:round;">
<circle cx="66621435.000000" cy="90368566.000000" r="2200000.000000" /> 
<g >
</g>
<g >
</g>
<g >
</g>
</g> 
</svg>
