  0
SECTION
  2
HEADER
  9
$ANGBASE
  50
0.0
  9
$ANGDIR
  70
1
  9
$MEASUREMENT
  70
0
  0
ENDSEC
  0
SECTION
  2
TABLES
  0
TABLE
  2
LTYPE
  70
4
  0
LTYPE
  5
40F
  2
CONTINUOUS
  70
0
  3
Solid line
  72
65
  73
0
  40
0.0
  0
LTYPE
  5
410
  2
DASHDOT
 70
0
  3
Dash Dot ____ _ ____ _
 72
65
 73
4
 40
2.0
 49
1.25
 49
-0.25
 49
0.25
 49
-0.25
  0
LTYPE
  5
411
  2
DASHED
 70
0
  3
Dashed __ __ __ __ __
 72
65
 73
2
 40
0.75
 49
0.5
 49
-0.25
  0
LTYPE
  5
43B
  2
DOTTED
 70
0
  3
Dotted .  .  .  .
 72
65
 73
2
 40
0.2
 49
0.0
 49
-0.2
  0
ENDTAB
  0
TABLE
  2
STYLE
  70
4
  0
STYLE
  2
KICAD
  70
0
  40
0
  41
1
  42
1
  50
0
  71
0
  3
isocp.shx
  0
STYLE
  2
KICADB
  70
0
  40
0
  41
1
  42
1
  50
0
  71
0
  3
isocp.shx
  0
STYLE
  2
KICADI
  70
0
  40
0
  41
1
  42
1
  50
15
  71
0
  3
isocp.shx
  0
STYLE
  2
KICADBI
  70
0
  40
0
  41
1
  42
1
  50
15
  71
0
  3
isocp.shx
  0
ENDTAB
  0
TABLE
  2
LAYER
  70
1
  0
LAYER
  2
BLACK
  70
0
  62
7
  6
CONTINUOUS
  0
ENDTAB
  0
ENDSEC
  0
SECTION
  2
ENTITIES
0
LINE
8
BLACK
6
CONTINUOUS
10
1.29005
20
-3.98578
11
1.27362
21
-3.98362
0
LINE
8
BLACK
6
CONTINUOUS
10
1.27362
20
-3.98362
11
1.25744
21
-3.98003
0
LINE
8
BLACK
6
CONTINUOUS
10
1.25744
20
-3.98003
11
1.24164
21
-3.97505
0
LINE
8
BLACK
6
CONTINUOUS
10
1.24164
20
-3.97505
11
1.22633
21
-3.9687
0
LINE
8
BLACK
6
CONTINUOUS
10
1.22633
20
-3.9687
11
1.21163
21
-3.96105
0
LINE
8
BLACK
6
CONTINUOUS
10
1.21163
20
-3.96105
11
1.19765
21
-3.95215
0
LINE
8
BLACK
6
CONTINUOUS
10
1.19765
20
-3.95215
11
1.1845
21
-3.94206
0
LINE
8
BLACK
6
CONTINUOUS
10
1.1845
20
-3.94206
11
1.17229
21
-3.93086
0
LINE
8
BLACK
6
CONTINUOUS
10
1.17229
20
-3.93086
11
1.16109
21
-3.91864
0
LINE
8
BLACK
6
CONTINUOUS
10
1.16109
20
-3.91864
11
1.151
21
-3.9055
0
LINE
8
BLACK
6
CONTINUOUS
10
1.151
20
-3.9055
11
1.1421
21
-3.89152
0
LINE
8
BLACK
6
CONTINUOUS
10
1.1421
20
-3.89152
11
1.13445
21
-3.87682
0
LINE
8
BLACK
6
CONTINUOUS
10
1.13445
20
-3.87682
11
1.1281
21
-3.86151
0
LINE
8
BLACK
6
CONTINUOUS
10
1.1281
20
-3.86151
11
1.12312
21
-3.84571
0
LINE
8
BLACK
6
CONTINUOUS
10
1.12312
20
-3.84571
11
1.11953
21
-3.82953
0
LINE
8
BLACK
6
CONTINUOUS
10
1.11953
20
-3.82953
11
1.11737
21
-3.8131
0
LINE
8
BLACK
6
CONTINUOUS
10
1.11737
20
-3.8131
11
1.11665
21
-3.79654
0
LINE
8
BLACK
6
CONTINUOUS
10
1.11665
20
-3.79654
11
1.11665
21
-3.79654
0
LINE
8
BLACK
6
CONTINUOUS
10
1.11665
20
-3.79654
11
1.11665
21
-3.79654
0
LINE
8
BLACK
6
CONTINUOUS
10
1.11665
20
-3.79654
11
1.11704
21
-3.29547
0
LINE
8
BLACK
6
CONTINUOUS
10
1.11704
20
-3.29547
11
1.11704
21
-3.29547
0
LINE
8
BLACK
6
CONTINUOUS
10
1.11704
20
-3.29547
11
1.11776
21
-3.27892
0
LINE
8
BLACK
6
CONTINUOUS
10
1.11776
20
-3.27892
11
1.11993
21
-3.26249
0
LINE
8
BLACK
6
CONTINUOUS
10
1.11993
20
-3.26249
11
1.12351
21
-3.24631
0
LINE
8
BLACK
6
CONTINUOUS
10
1.12351
20
-3.24631
11
1.1285
21
-3.2305
0
LINE
8
BLACK
6
CONTINUOUS
10
1.1285
20
-3.2305
11
1.13484
21
-3.21519
0
LINE
8
BLACK
6
CONTINUOUS
10
1.13484
20
-3.21519
11
1.14249
21
-3.20049
0
LINE
8
BLACK
6
CONTINUOUS
10
1.14249
20
-3.20049
11
1.1514
21
-3.18652
0
LINE
8
BLACK
6
CONTINUOUS
10
1.1514
20
-3.18652
11
1.16148
21
-3.17337
0
LINE
8
BLACK
6
CONTINUOUS
10
1.16148
20
-3.17337
11
1.17268
21
-3.16115
0
LINE
8
BLACK
6
CONTINUOUS
10
1.17268
20
-3.16115
11
1.1849
21
-3.14995
0
LINE
8
BLACK
6
CONTINUOUS
10
1.1849
20
-3.14995
11
1.19805
21
-3.13987
0
LINE
8
BLACK
6
CONTINUOUS
10
1.19805
20
-3.13987
11
1.21202
21
-3.13096
0
LINE
8
BLACK
6
CONTINUOUS
10
1.21202
20
-3.13096
11
1.22672
21
-3.12331
0
LINE
8
BLACK
6
CONTINUOUS
10
1.22672
20
-3.12331
11
1.24203
21
-3.11697
0
LINE
8
BLACK
6
CONTINUOUS
10
1.24203
20
-3.11697
11
1.25784
21
-3.11198
0
LINE
8
BLACK
6
CONTINUOUS
10
1.25784
20
-3.11198
11
1.27402
21
-3.1084
0
LINE
8
BLACK
6
CONTINUOUS
10
1.27402
20
-3.1084
11
1.29045
21
-3.10623
0
LINE
8
BLACK
6
CONTINUOUS
10
1.29045
20
-3.10623
11
1.307
21
-3.10551
0
LINE
8
BLACK
6
CONTINUOUS
10
1.307
20
-3.10551
11
10.0102
21
-3.10551
0
LINE
8
BLACK
6
CONTINUOUS
10
10.0102
20
-3.10551
11
10.0268
21
-3.10623
0
LINE
8
BLACK
6
CONTINUOUS
10
10.0268
20
-3.10623
11
10.0432
21
-3.1084
0
LINE
8
BLACK
6
CONTINUOUS
10
10.0432
20
-3.1084
11
10.0594
21
-3.11198
0
LINE
8
BLACK
6
CONTINUOUS
10
10.0594
20
-3.11198
11
10.0752
21
-3.11697
0
LINE
8
BLACK
6
CONTINUOUS
10
10.0752
20
-3.11697
11
10.0905
21
-3.12331
0
LINE
8
BLACK
6
CONTINUOUS
10
10.0905
20
-3.12331
11
10.1052
21
-3.13096
0
LINE
8
BLACK
6
CONTINUOUS
10
10.1052
20
-3.13096
11
10.1192
21
-3.13987
0
LINE
8
BLACK
6
CONTINUOUS
10
10.1192
20
-3.13987
11
10.1323
21
-3.14995
0
LINE
8
BLACK
6
CONTINUOUS
10
10.1323
20
-3.14995
11
10.1446
21
-3.16115
0
LINE
8
BLACK
6
CONTINUOUS
10
10.1446
20
-3.16115
11
10.1558
21
-3.17337
0
LINE
8
BLACK
6
CONTINUOUS
10
10.1558
20
-3.17337
11
10.1658
21
-3.18652
0
LINE
8
BLACK
6
CONTINUOUS
10
10.1658
20
-3.18652
11
10.1747
21
-3.20049
0
LINE
8
BLACK
6
CONTINUOUS
10
10.1747
20
-3.20049
11
10.1824
21
-3.21519
0
LINE
8
BLACK
6
CONTINUOUS
10
10.1824
20
-3.21519
11
10.1887
21
-3.2305
0
LINE
8
BLACK
6
CONTINUOUS
10
10.1887
20
-3.2305
11
10.1937
21
-3.24631
0
LINE
8
BLACK
6
CONTINUOUS
10
10.1937
20
-3.24631
11
10.1973
21
-3.26249
0
LINE
8
BLACK
6
CONTINUOUS
10
10.1973
20
-3.26249
11
10.1995
21
-3.27892
0
LINE
8
BLACK
6
CONTINUOUS
10
10.1995
20
-3.27892
11
10.2002
21
-3.29547
0
LINE
8
BLACK
6
CONTINUOUS
10
10.2002
20
-3.29547
11
10.2002
21
-3.29547
0
LINE
8
BLACK
6
CONTINUOUS
10
10.2002
20
-3.29547
11
10.2002
21
-3.29547
0
LINE
8
BLACK
6
CONTINUOUS
10
10.2002
20
-3.29547
11
10.1998
21
-3.79654
0
LINE
8
BLACK
6
CONTINUOUS
10
10.1998
20
-3.79654
11
10.1998
21
-3.79654
0
LINE
8
BLACK
6
CONTINUOUS
10
10.1998
20
-3.79654
11
10.1991
21
-3.8131
0
LINE
8
BLACK
6
CONTINUOUS
10
10.1991
20
-3.8131
11
10.1969
21
-3.82953
0
LINE
8
BLACK
6
CONTINUOUS
10
10.1969
20
-3.82953
11
10.1933
21
-3.84571
0
LINE
8
BLACK
6
CONTINUOUS
10
10.1933
20
-3.84571
11
10.1883
21
-3.86151
0
LINE
8
BLACK
6
CONTINUOUS
10
10.1883
20
-3.86151
11
10.182
21
-3.87682
0
LINE
8
BLACK
6
CONTINUOUS
10
10.182
20
-3.87682
11
10.1744
21
-3.89152
0
LINE
8
BLACK
6
CONTINUOUS
10
10.1744
20
-3.89152
11
10.1654
21
-3.9055
0
LINE
8
BLACK
6
CONTINUOUS
10
10.1654
20
-3.9055
11
10.1554
21
-3.91864
0
LINE
8
BLACK
6
CONTINUOUS
10
10.1554
20
-3.91864
11
10.1442
21
-3.93086
0
LINE
8
BLACK
6
CONTINUOUS
10
10.1442
20
-3.93086
11
10.1319
21
-3.94206
0
LINE
8
BLACK
6
CONTINUOUS
10
10.1319
20
-3.94206
11
10.1188
21
-3.95215
0
LINE
8
BLACK
6
CONTINUOUS
10
10.1188
20
-3.95215
11
10.1048
21
-3.96105
0
LINE
8
BLACK
6
CONTINUOUS
10
10.1048
20
-3.96105
11
10.0901
21
-3.9687
0
LINE
8
BLACK
6
CONTINUOUS
10
10.0901
20
-3.9687
11
10.0748
21
-3.97505
0
LINE
8
BLACK
6
CONTINUOUS
10
10.0748
20
-3.97505
11
10.059
21
-3.98003
0
LINE
8
BLACK
6
CONTINUOUS
10
10.059
20
-3.98003
11
10.0428
21
-3.98362
0
LINE
8
BLACK
6
CONTINUOUS
10
10.0428
20
-3.98362
11
10.0264
21
-3.98578
0
LINE
8
BLACK
6
CONTINUOUS
10
10.0264
20
-3.98578
11
10.0098
21
-3.9865
0
LINE
8
BLACK
6
CONTINUOUS
10
10.0098
20
-3.9865
11
1.30661
21
-3.9865
0
LINE
8
BLACK
6
CONTINUOUS
10
1.30661
20
-3.9865
11
1.29005
21
-3.98578
0
LINE
8
BLACK
6
CONTINUOUS
10
1.30662
20
-3.10929
11
1.29077
21
-3.10998
0
LINE
8
BLACK
6
CONTINUOUS
10
1.29077
20
-3.10998
11
1.27467
21
-3.1121
0
LINE
8
BLACK
6
CONTINUOUS
10
1.27467
20
-3.1121
11
1.25881
21
-3.11562
0
LINE
8
BLACK
6
CONTINUOUS
10
1.25881
20
-3.11562
11
1.24332
21
-3.1205
0
LINE
8
BLACK
6
CONTINUOUS
10
1.24332
20
-3.1205
11
1.22831
21
-3.12672
0
LINE
8
BLACK
6
CONTINUOUS
10
1.22831
20
-3.12672
11
1.2139
21
-3.13422
0
LINE
8
BLACK
6
CONTINUOUS
10
1.2139
20
-3.13422
11
1.2002
21
-3.14295
0
LINE
8
BLACK
6
CONTINUOUS
10
1.2002
20
-3.14295
11
1.18732
21
-3.15283
0
LINE
8
BLACK
6
CONTINUOUS
10
1.18732
20
-3.15283
11
1.17534
21
-3.16381
0
LINE
8
BLACK
6
CONTINUOUS
10
1.17534
20
-3.16381
11
1.16436
21
-3.17578
0
LINE
8
BLACK
6
CONTINUOUS
10
1.16436
20
-3.17578
11
1.15448
21
-3.18867
0
LINE
8
BLACK
6
CONTINUOUS
10
1.15448
20
-3.18867
11
1.14575
21
-3.20237
0
LINE
8
BLACK
6
CONTINUOUS
10
1.14575
20
-3.20237
11
1.13825
21
-3.21678
0
LINE
8
BLACK
6
CONTINUOUS
10
1.13825
20
-3.21678
11
1.13203
21
-3.23179
0
LINE
8
BLACK
6
CONTINUOUS
10
1.13203
20
-3.23179
11
1.12715
21
-3.24728
0
LINE
8
BLACK
6
CONTINUOUS
10
1.12715
20
-3.24728
11
1.12363
21
-3.26314
0
LINE
8
BLACK
6
CONTINUOUS
10
1.12363
20
-3.26314
11
1.12151
21
-3.27924
0
LINE
8
BLACK
6
CONTINUOUS
10
1.12151
20
-3.27924
11
1.12082
21
-3.29509
0
LINE
8
BLACK
6
CONTINUOUS
10
1.12082
20
-3.29509
11
1.12098
21
-3.29547
0
LINE
8
BLACK
6
CONTINUOUS
10
1.12098
20
-3.29547
11
1.12098
21
-3.29547
0
LINE
8
BLACK
6
CONTINUOUS
10
1.12098
20
-3.29547
11
1.12098
21
-3.29547
0
LINE
8
BLACK
6
CONTINUOUS
10
1.12098
20
-3.29547
11
1.12059
21
-3.79654
0
LINE
8
BLACK
6
CONTINUOUS
10
1.12059
20
-3.79654
11
1.12043
21
-3.79693
0
LINE
8
BLACK
6
CONTINUOUS
10
1.12043
20
-3.79693
11
1.12112
21
-3.81277
0
LINE
8
BLACK
6
CONTINUOUS
10
1.12112
20
-3.81277
11
1.12324
21
-3.82887
0
LINE
8
BLACK
6
CONTINUOUS
10
1.12324
20
-3.82887
11
1.12675
21
-3.84473
0
LINE
8
BLACK
6
CONTINUOUS
10
1.12675
20
-3.84473
11
1.13164
21
-3.86023
0
LINE
8
BLACK
6
CONTINUOUS
10
1.13164
20
-3.86023
11
1.13785
21
-3.87523
0
LINE
8
BLACK
6
CONTINUOUS
10
1.13785
20
-3.87523
11
1.14535
21
-3.88964
0
LINE
8
BLACK
6
CONTINUOUS
10
1.14535
20
-3.88964
11
1.15408
21
-3.90334
0
LINE
8
BLACK
6
CONTINUOUS
10
1.15408
20
-3.90334
11
1.16397
21
-3.91623
0
LINE
8
BLACK
6
CONTINUOUS
10
1.16397
20
-3.91623
11
1.17495
21
-3.9282
0
LINE
8
BLACK
6
CONTINUOUS
10
1.17495
20
-3.9282
11
1.18692
21
-3.93918
0
LINE
8
BLACK
6
CONTINUOUS
10
1.18692
20
-3.93918
11
1.19981
21
-3.94907
0
LINE
8
BLACK
6
CONTINUOUS
10
1.19981
20
-3.94907
11
1.21351
21
-3.9578
0
LINE
8
BLACK
6
CONTINUOUS
10
1.21351
20
-3.9578
11
1.22792
21
-3.9653
0
LINE
8
BLACK
6
CONTINUOUS
10
1.22792
20
-3.9653
11
1.24292
21
-3.97151
0
LINE
8
BLACK
6
CONTINUOUS
10
1.24292
20
-3.97151
11
1.25842
21
-3.9764
0
LINE
8
BLACK
6
CONTINUOUS
10
1.25842
20
-3.9764
11
1.27428
21
-3.97991
0
LINE
8
BLACK
6
CONTINUOUS
10
1.27428
20
-3.97991
11
1.29038
21
-3.98203
0
LINE
8
BLACK
6
CONTINUOUS
10
1.29038
20
-3.98203
11
1.30622
21
-3.98272
0
LINE
8
BLACK
6
CONTINUOUS
10
1.30622
20
-3.98272
11
1.30661
21
-3.98256
0
LINE
8
BLACK
6
CONTINUOUS
10
1.30661
20
-3.98256
11
10.0098
21
-3.98256
0
LINE
8
BLACK
6
CONTINUOUS
10
10.0098
20
-3.98256
11
10.0102
21
-3.98272
0
LINE
8
BLACK
6
CONTINUOUS
10
10.0102
20
-3.98272
11
10.0261
21
-3.98203
0
LINE
8
BLACK
6
CONTINUOUS
10
10.0261
20
-3.98203
11
10.0422
21
-3.97991
0
LINE
8
BLACK
6
CONTINUOUS
10
10.0422
20
-3.97991
11
10.058
21
-3.9764
0
LINE
8
BLACK
6
CONTINUOUS
10
10.058
20
-3.9764
11
10.0735
21
-3.97151
0
LINE
8
BLACK
6
CONTINUOUS
10
10.0735
20
-3.97151
11
10.0885
21
-3.9653
0
LINE
8
BLACK
6
CONTINUOUS
10
10.0885
20
-3.9653
11
10.1029
21
-3.9578
0
LINE
8
BLACK
6
CONTINUOUS
10
10.1029
20
-3.9578
11
10.1166
21
-3.94907
0
LINE
8
BLACK
6
CONTINUOUS
10
10.1166
20
-3.94907
11
10.1295
21
-3.93918
0
LINE
8
BLACK
6
CONTINUOUS
10
10.1295
20
-3.93918
11
10.1415
21
-3.9282
0
LINE
8
BLACK
6
CONTINUOUS
10
10.1415
20
-3.9282
11
10.1525
21
-3.91623
0
LINE
8
BLACK
6
CONTINUOUS
10
10.1525
20
-3.91623
11
10.1624
21
-3.90334
0
LINE
8
BLACK
6
CONTINUOUS
10
10.1624
20
-3.90334
11
10.1711
21
-3.88964
0
LINE
8
BLACK
6
CONTINUOUS
10
10.1711
20
-3.88964
11
10.1786
21
-3.87523
0
LINE
8
BLACK
6
CONTINUOUS
10
10.1786
20
-3.87523
11
10.1848
21
-3.86023
0
LINE
8
BLACK
6
CONTINUOUS
10
10.1848
20
-3.86023
11
10.1897
21
-3.84473
0
LINE
8
BLACK
6
CONTINUOUS
10
10.1897
20
-3.84473
11
10.1932
21
-3.82887
0
LINE
8
BLACK
6
CONTINUOUS
10
10.1932
20
-3.82887
11
10.1953
21
-3.81277
0
LINE
8
BLACK
6
CONTINUOUS
10
10.1953
20
-3.81277
11
10.196
21
-3.79693
0
LINE
8
BLACK
6
CONTINUOUS
10
10.196
20
-3.79693
11
10.1959
21
-3.79654
0
LINE
8
BLACK
6
CONTINUOUS
10
10.1959
20
-3.79654
11
10.1959
21
-3.79654
0
LINE
8
BLACK
6
CONTINUOUS
10
10.1959
20
-3.79654
11
10.1959
21
-3.79654
0
LINE
8
BLACK
6
CONTINUOUS
10
10.1959
20
-3.79654
11
10.1963
21
-3.29547
0
LINE
8
BLACK
6
CONTINUOUS
10
10.1963
20
-3.29547
11
10.1964
21
-3.29508
0
LINE
8
BLACK
6
CONTINUOUS
10
10.1964
20
-3.29508
11
10.1957
21
-3.27924
0
LINE
8
BLACK
6
CONTINUOUS
10
10.1957
20
-3.27924
11
10.1936
21
-3.26314
0
LINE
8
BLACK
6
CONTINUOUS
10
10.1936
20
-3.26314
11
10.1901
21
-3.24728
0
LINE
8
BLACK
6
CONTINUOUS
10
10.1901
20
-3.24728
11
10.1852
21
-3.23179
0
LINE
8
BLACK
6
CONTINUOUS
10
10.1852
20
-3.23179
11
10.179
21
-3.21678
0
LINE
8
BLACK
6
CONTINUOUS
10
10.179
20
-3.21678
11
10.1715
21
-3.20237
0
LINE
8
BLACK
6
CONTINUOUS
10
10.1715
20
-3.20237
11
10.1628
21
-3.18867
0
LINE
8
BLACK
6
CONTINUOUS
10
10.1628
20
-3.18867
11
10.1529
21
-3.17578
0
LINE
8
BLACK
6
CONTINUOUS
10
10.1529
20
-3.17578
11
10.1419
21
-3.16381
0
LINE
8
BLACK
6
CONTINUOUS
10
10.1419
20
-3.16381
11
10.1299
21
-3.15283
0
LINE
8
BLACK
6
CONTINUOUS
10
10.1299
20
-3.15283
11
10.117
21
-3.14295
0
LINE
8
BLACK
6
CONTINUOUS
10
10.117
20
-3.14295
11
10.1033
21
-3.13422
0
LINE
8
BLACK
6
CONTINUOUS
10
10.1033
20
-3.13422
11
10.0889
21
-3.12672
0
LINE
8
BLACK
6
CONTINUOUS
10
10.0889
20
-3.12672
11
10.0739
21
-3.1205
0
LINE
8
BLACK
6
CONTINUOUS
10
10.0739
20
-3.1205
11
10.0584
21
-3.11562
0
LINE
8
BLACK
6
CONTINUOUS
10
10.0584
20
-3.11562
11
10.0426
21
-3.1121
0
LINE
8
BLACK
6
CONTINUOUS
10
10.0426
20
-3.1121
11
10.0265
21
-3.10998
0
LINE
8
BLACK
6
CONTINUOUS
10
10.0265
20
-3.10998
11
10.0106
21
-3.10929
0
LINE
8
BLACK
6
CONTINUOUS
10
10.0106
20
-3.10929
11
10.0102
21
-3.10945
0
LINE
8
BLACK
6
CONTINUOUS
10
10.0102
20
-3.10945
11
1.307
21
-3.10945
0
LINE
8
BLACK
6
CONTINUOUS
10
1.307
20
-3.10945
11
1.30662
21
-3.10929
0
LINE
8
BLACK
6
CONTINUOUS
10
9.96226
20
-3.53473
11
9.96603
21
-3.52364
0
LINE
8
BLACK
6
CONTINUOUS
10
9.96603
20
-3.52364
11
9.97121
21
-3.51313
0
LINE
8
BLACK
6
CONTINUOUS
10
9.97121
20
-3.51313
11
9.97772
21
-3.50339
0
LINE
8
BLACK
6
CONTINUOUS
10
9.97772
20
-3.50339
11
9.98544
21
-3.49458
0
LINE
8
BLACK
6
CONTINUOUS
10
9.98544
20
-3.49458
11
9.99425
21
-3.48686
0
LINE
8
BLACK
6
CONTINUOUS
10
9.99425
20
-3.48686
11
10.004
21
-3.48035
0
LINE
8
BLACK
6
CONTINUOUS
10
10.004
20
-3.48035
11
10.0145
21
-3.47517
0
LINE
8
BLACK
6
CONTINUOUS
10
10.0145
20
-3.47517
11
10.0256
21
-3.4714
0
LINE
8
BLACK
6
CONTINUOUS
10
10.0256
20
-3.4714
11
10.0371
21
-3.46912
0
LINE
8
BLACK
6
CONTINUOUS
10
10.0371
20
-3.46912
11
10.0488
21
-3.46835
0
LINE
8
BLACK
6
CONTINUOUS
10
10.0488
20
-3.46835
11
10.0605
21
-3.46912
0
LINE
8
BLACK
6
CONTINUOUS
10
10.0605
20
-3.46912
11
10.072
21
-3.4714
0
LINE
8
BLACK
6
CONTINUOUS
10
10.072
20
-3.4714
11
10.0831
21
-3.47517
0
LINE
8
BLACK
6
CONTINUOUS
10
10.0831
20
-3.47517
11
10.0936
21
-3.48035
0
LINE
8
BLACK
6
CONTINUOUS
10
10.0936
20
-3.48035
11
10.1033
21
-3.48686
0
LINE
8
BLACK
6
CONTINUOUS
10
10.1033
20
-3.48686
11
10.1121
21
-3.49458
0
LINE
8
BLACK
6
CONTINUOUS
10
10.1121
20
-3.49458
11
10.1198
21
-3.50339
0
LINE
8
BLACK
6
CONTINUOUS
10
10.1198
20
-3.50339
11
10.1263
21
-3.51313
0
LINE
8
BLACK
6
CONTINUOUS
10
10.1263
20
-3.51313
11
10.1315
21
-3.52364
0
LINE
8
BLACK
6
CONTINUOUS
10
10.1315
20
-3.52364
11
10.1353
21
-3.53473
0
LINE
8
BLACK
6
CONTINUOUS
10
10.1353
20
-3.53473
11
10.1376
21
-3.54623
0
LINE
8
BLACK
6
CONTINUOUS
10
10.1376
20
-3.54623
11
10.1383
21
-3.55792
0
LINE
8
BLACK
6
CONTINUOUS
10
10.1383
20
-3.55792
11
10.1376
21
-3.56961
0
LINE
8
BLACK
6
CONTINUOUS
10
10.1376
20
-3.56961
11
10.1353
21
-3.5811
0
LINE
8
BLACK
6
CONTINUOUS
10
10.1353
20
-3.5811
11
10.1315
21
-3.59219
0
LINE
8
BLACK
6
CONTINUOUS
10
10.1315
20
-3.59219
11
10.1263
21
-3.6027
0
LINE
8
BLACK
6
CONTINUOUS
10
10.1263
20
-3.6027
11
10.1198
21
-3.61244
0
LINE
8
BLACK
6
CONTINUOUS
10
10.1198
20
-3.61244
11
10.1121
21
-3.62125
0
LINE
8
BLACK
6
CONTINUOUS
10
10.1121
20
-3.62125
11
10.1033
21
-3.62897
0
LINE
8
BLACK
6
CONTINUOUS
10
10.1033
20
-3.62897
11
10.0936
21
-3.63548
0
LINE
8
BLACK
6
CONTINUOUS
10
10.0936
20
-3.63548
11
10.0831
21
-3.64067
0
LINE
8
BLACK
6
CONTINUOUS
10
10.0831
20
-3.64067
11
10.072
21
-3.64443
0
LINE
8
BLACK
6
CONTINUOUS
10
10.072
20
-3.64443
11
10.0605
21
-3.64672
0
LINE
8
BLACK
6
CONTINUOUS
10
10.0605
20
-3.64672
11
10.0488
21
-3.64748
0
LINE
8
BLACK
6
CONTINUOUS
10
10.0488
20
-3.64748
11
10.0371
21
-3.64672
0
LINE
8
BLACK
6
CONTINUOUS
10
10.0371
20
-3.64672
11
10.0256
21
-3.64443
0
LINE
8
BLACK
6
CONTINUOUS
10
10.0256
20
-3.64443
11
10.0145
21
-3.64067
0
LINE
8
BLACK
6
CONTINUOUS
10
10.0145
20
-3.64067
11
10.004
21
-3.63548
0
LINE
8
BLACK
6
CONTINUOUS
10
10.004
20
-3.63548
11
9.99425
21
-3.62897
0
LINE
8
BLACK
6
CONTINUOUS
10
9.99425
20
-3.62897
11
9.98544
21
-3.62125
0
LINE
8
BLACK
6
CONTINUOUS
10
9.98544
20
-3.62125
11
9.97772
21
-3.61244
0
LINE
8
BLACK
6
CONTINUOUS
10
9.97772
20
-3.61244
11
9.97121
21
-3.6027
0
LINE
8
BLACK
6
CONTINUOUS
10
9.97121
20
-3.6027
11
9.96603
21
-3.59219
0
LINE
8
BLACK
6
CONTINUOUS
10
9.96603
20
-3.59219
11
9.96226
21
-3.5811
0
LINE
8
BLACK
6
CONTINUOUS
10
9.96226
20
-3.5811
11
9.95998
21
-3.56961
0
LINE
8
BLACK
6
CONTINUOUS
10
9.95998
20
-3.56961
11
9.95921
21
-3.55792
0
LINE
8
BLACK
6
CONTINUOUS
10
9.95921
20
-3.55792
11
9.95927
21
-3.55704
0
LINE
8
BLACK
6
CONTINUOUS
10
9.95927
20
-3.55704
11
9.95998
21
-3.54623
0
LINE
8
BLACK
6
CONTINUOUS
10
9.95998
20
-3.54623
11
9.96226
21
-3.53473
0
LINE
8
BLACK
6
CONTINUOUS
10
9.96778
20
-3.57962
11
9.97147
21
-3.59041
0
LINE
8
BLACK
6
CONTINUOUS
10
9.97147
20
-3.59041
11
9.9766
21
-3.6006
0
LINE
8
BLACK
6
CONTINUOUS
10
9.9766
20
-3.6006
11
9.98306
21
-3.61
0
LINE
8
BLACK
6
CONTINUOUS
10
9.98306
20
-3.61
11
9.99074
21
-3.61844
0
LINE
8
BLACK
6
CONTINUOUS
10
9.99074
20
-3.61844
11
9.99949
21
-3.62576
0
LINE
8
BLACK
6
CONTINUOUS
10
9.99949
20
-3.62576
11
10.0092
21
-3.63182
0
LINE
8
BLACK
6
CONTINUOUS
10
10.0092
20
-3.63182
11
10.0195
21
-3.63651
0
LINE
8
BLACK
6
CONTINUOUS
10
10.0195
20
-3.63651
11
10.0305
21
-3.63975
0
LINE
8
BLACK
6
CONTINUOUS
10
10.0305
20
-3.63975
11
10.0418
21
-3.64148
0
LINE
8
BLACK
6
CONTINUOUS
10
10.0418
20
-3.64148
11
10.0532
21
-3.64166
0
LINE
8
BLACK
6
CONTINUOUS
10
10.0532
20
-3.64166
11
10.0645
21
-3.64029
0
LINE
8
BLACK
6
CONTINUOUS
10
10.0645
20
-3.64029
11
10.0755
21
-3.63739
0
LINE
8
BLACK
6
CONTINUOUS
10
10.0755
20
-3.63739
11
10.0861
21
-3.63303
0
LINE
8
BLACK
6
CONTINUOUS
10
10.0861
20
-3.63303
11
10.0959
21
-3.62727
0
LINE
8
BLACK
6
CONTINUOUS
10
10.0959
20
-3.62727
11
10.1049
21
-3.62023
0
LINE
8
BLACK
6
CONTINUOUS
10
10.1049
20
-3.62023
11
10.1128
21
-3.61204
0
LINE
8
BLACK
6
CONTINUOUS
10
10.1128
20
-3.61204
11
10.1196
21
-3.60285
0
LINE
8
BLACK
6
CONTINUOUS
10
10.1196
20
-3.60285
11
10.125
21
-3.59282
0
LINE
8
BLACK
6
CONTINUOUS
10
10.125
20
-3.59282
11
10.1291
21
-3.58215
0
LINE
8
BLACK
6
CONTINUOUS
10
10.1291
20
-3.58215
11
10.1316
21
-3.57103
0
LINE
8
BLACK
6
CONTINUOUS
10
10.1316
20
-3.57103
11
10.1326
21
-3.55967
0
LINE
8
BLACK
6
CONTINUOUS
10
10.1326
20
-3.55967
11
10.1326
21
-3.55792
0
LINE
8
BLACK
6
CONTINUOUS
10
10.1326
20
-3.55792
11
10.1319
21
-3.54654
0
LINE
8
BLACK
6
CONTINUOUS
10
10.1319
20
-3.54654
11
10.1295
21
-3.53537
0
LINE
8
BLACK
6
CONTINUOUS
10
10.1295
20
-3.53537
11
10.1257
21
-3.52461
0
LINE
8
BLACK
6
CONTINUOUS
10
10.1257
20
-3.52461
11
10.1205
21
-3.51448
0
LINE
8
BLACK
6
CONTINUOUS
10
10.1205
20
-3.51448
11
10.1139
21
-3.50514
0
LINE
8
BLACK
6
CONTINUOUS
10
10.1139
20
-3.50514
11
10.1062
21
-3.49679
0
LINE
8
BLACK
6
CONTINUOUS
10
10.1062
20
-3.49679
11
10.0974
21
-3.48956
0
LINE
8
BLACK
6
CONTINUOUS
10
10.0974
20
-3.48956
11
10.0876
21
-3.4836
0
LINE
8
BLACK
6
CONTINUOUS
10
10.0876
20
-3.4836
11
10.0772
21
-3.47902
0
LINE
8
BLACK
6
CONTINUOUS
10
10.0772
20
-3.47902
11
10.0662
21
-3.47589
0
LINE
8
BLACK
6
CONTINUOUS
10
10.0662
20
-3.47589
11
10.0549
21
-3.47428
0
LINE
8
BLACK
6
CONTINUOUS
10
10.0549
20
-3.47428
11
10.0435
21
-3.47422
0
LINE
8
BLACK
6
CONTINUOUS
10
10.0435
20
-3.47422
11
10.0322
21
-3.47571
0
LINE
8
BLACK
6
CONTINUOUS
10
10.0322
20
-3.47571
11
10.0212
21
-3.47872
0
LINE
8
BLACK
6
CONTINUOUS
10
10.0212
20
-3.47872
11
10.0107
21
-3.4832
0
LINE
8
BLACK
6
CONTINUOUS
10
10.0107
20
-3.4832
11
10.0009
21
-3.48906
0
LINE
8
BLACK
6
CONTINUOUS
10
10.0009
20
-3.48906
11
9.99202
21
-3.49619
0
LINE
8
BLACK
6
CONTINUOUS
10
9.99202
20
-3.49619
11
9.98416
21
-3.50446
0
LINE
8
BLACK
6
CONTINUOUS
10
9.98416
20
-3.50446
11
9.97751
21
-3.51373
0
LINE
8
BLACK
6
CONTINUOUS
10
9.97751
20
-3.51373
11
9.97217
21
-3.52381
0
LINE
8
BLACK
6
CONTINUOUS
10
9.97217
20
-3.52381
11
9.96825
21
-3.53452
0
LINE
8
BLACK
6
CONTINUOUS
10
9.96825
20
-3.53452
11
9.96582
21
-3.54567
0
LINE
8
BLACK
6
CONTINUOUS
10
9.96582
20
-3.54567
11
9.96492
21
-3.55704
0
LINE
8
BLACK
6
CONTINUOUS
10
9.96492
20
-3.55704
11
9.96558
21
-3.56843
0
LINE
8
BLACK
6
CONTINUOUS
10
9.96558
20
-3.56843
11
9.96778
21
-3.57962
0
LINE
8
BLACK
6
CONTINUOUS
10
2.53638
20
-3.53464
11
2.54014
21
-3.52354
0
LINE
8
BLACK
6
CONTINUOUS
10
2.54014
20
-3.52354
11
2.54532
21
-3.51303
0
LINE
8
BLACK
6
CONTINUOUS
10
2.54532
20
-3.51303
11
2.55183
21
-3.50329
0
LINE
8
BLACK
6
CONTINUOUS
10
2.55183
20
-3.50329
11
2.55956
21
-3.49448
0
LINE
8
BLACK
6
CONTINUOUS
10
2.55956
20
-3.49448
11
2.56837
21
-3.48676
0
LINE
8
BLACK
6
CONTINUOUS
10
2.56837
20
-3.48676
11
2.57811
21
-3.48025
0
LINE
8
BLACK
6
CONTINUOUS
10
2.57811
20
-3.48025
11
2.58862
21
-3.47507
0
LINE
8
BLACK
6
CONTINUOUS
10
2.58862
20
-3.47507
11
2.59971
21
-3.4713
0
LINE
8
BLACK
6
CONTINUOUS
10
2.59971
20
-3.4713
11
2.6112
21
-3.46902
0
LINE
8
BLACK
6
CONTINUOUS
10
2.6112
20
-3.46902
11
2.62289
21
-3.46825
0
LINE
8
BLACK
6
CONTINUOUS
10
2.62289
20
-3.46825
11
2.63458
21
-3.46902
0
LINE
8
BLACK
6
CONTINUOUS
10
2.63458
20
-3.46902
11
2.64607
21
-3.4713
0
LINE
8
BLACK
6
CONTINUOUS
10
2.64607
20
-3.4713
11
2.65717
21
-3.47507
0
LINE
8
BLACK
6
CONTINUOUS
10
2.65717
20
-3.47507
11
2.66767
21
-3.48025
0
LINE
8
BLACK
6
CONTINUOUS
10
2.66767
20
-3.48025
11
2.67742
21
-3.48676
0
LINE
8
BLACK
6
CONTINUOUS
10
2.67742
20
-3.48676
11
2.68622
21
-3.49448
0
LINE
8
BLACK
6
CONTINUOUS
10
2.68622
20
-3.49448
11
2.69395
21
-3.50329
0
LINE
8
BLACK
6
CONTINUOUS
10
2.69395
20
-3.50329
11
2.70046
21
-3.51303
0
LINE
8
BLACK
6
CONTINUOUS
10
2.70046
20
-3.51303
11
2.70564
21
-3.52354
0
LINE
8
BLACK
6
CONTINUOUS
10
2.70564
20
-3.52354
11
2.70941
21
-3.53464
0
LINE
8
BLACK
6
CONTINUOUS
10
2.70941
20
-3.53464
11
2.71169
21
-3.54613
0
LINE
8
BLACK
6
CONTINUOUS
10
2.71169
20
-3.54613
11
2.71246
21
-3.55782
0
LINE
8
BLACK
6
CONTINUOUS
10
2.71246
20
-3.55782
11
2.71169
21
-3.56951
0
LINE
8
BLACK
6
CONTINUOUS
10
2.71169
20
-3.56951
11
2.70941
21
-3.581
0
LINE
8
BLACK
6
CONTINUOUS
10
2.70941
20
-3.581
11
2.70564
21
-3.59209
0
LINE
8
BLACK
6
CONTINUOUS
10
2.70564
20
-3.59209
11
2.70046
21
-3.6026
0
LINE
8
BLACK
6
CONTINUOUS
10
2.70046
20
-3.6026
11
2.69395
21
-3.61234
0
LINE
8
BLACK
6
CONTINUOUS
10
2.69395
20
-3.61234
11
2.68622
21
-3.62115
0
LINE
8
BLACK
6
CONTINUOUS
10
2.68622
20
-3.62115
11
2.67742
21
-3.62888
0
LINE
8
BLACK
6
CONTINUOUS
10
2.67742
20
-3.62888
11
2.66767
21
-3.63538
0
LINE
8
BLACK
6
CONTINUOUS
10
2.66767
20
-3.63538
11
2.65717
21
-3.64057
0
LINE
8
BLACK
6
CONTINUOUS
10
2.65717
20
-3.64057
11
2.64607
21
-3.64433
0
LINE
8
BLACK
6
CONTINUOUS
10
2.64607
20
-3.64433
11
2.63458
21
-3.64662
0
LINE
8
BLACK
6
CONTINUOUS
10
2.63458
20
-3.64662
11
2.62289
21
-3.64738
0
LINE
8
BLACK
6
CONTINUOUS
10
2.62289
20
-3.64738
11
2.6112
21
-3.64662
0
LINE
8
BLACK
6
CONTINUOUS
10
2.6112
20
-3.64662
11
2.59971
21
-3.64433
0
LINE
8
BLACK
6
CONTINUOUS
10
2.59971
20
-3.64433
11
2.58862
21
-3.64057
0
LINE
8
BLACK
6
CONTINUOUS
10
2.58862
20
-3.64057
11
2.57811
21
-3.63538
0
LINE
8
BLACK
6
CONTINUOUS
10
2.57811
20
-3.63538
11
2.56837
21
-3.62888
0
LINE
8
BLACK
6
CONTINUOUS
10
2.56837
20
-3.62888
11
2.55956
21
-3.62115
0
LINE
8
BLACK
6
CONTINUOUS
10
2.55956
20
-3.62115
11
2.55183
21
-3.61234
0
LINE
8
BLACK
6
CONTINUOUS
10
2.55183
20
-3.61234
11
2.54532
21
-3.6026
0
LINE
8
BLACK
6
CONTINUOUS
10
2.54532
20
-3.6026
11
2.54014
21
-3.59209
0
LINE
8
BLACK
6
CONTINUOUS
10
2.54014
20
-3.59209
11
2.53638
21
-3.581
0
LINE
8
BLACK
6
CONTINUOUS
10
2.53638
20
-3.581
11
2.53409
21
-3.56951
0
LINE
8
BLACK
6
CONTINUOUS
10
2.53409
20
-3.56951
11
2.53332
21
-3.55782
0
LINE
8
BLACK
6
CONTINUOUS
10
2.53332
20
-3.55782
11
2.53338
21
-3.55694
0
LINE
8
BLACK
6
CONTINUOUS
10
2.53338
20
-3.55694
11
2.53409
21
-3.54613
0
LINE
8
BLACK
6
CONTINUOUS
10
2.53409
20
-3.54613
11
2.53638
21
-3.53464
0
LINE
8
BLACK
6
CONTINUOUS
10
2.54189
20
-3.57952
11
2.54559
21
-3.59031
0
LINE
8
BLACK
6
CONTINUOUS
10
2.54559
20
-3.59031
11
2.55071
21
-3.6005
0
LINE
8
BLACK
6
CONTINUOUS
10
2.55071
20
-3.6005
11
2.55717
21
-3.60991
0
LINE
8
BLACK
6
CONTINUOUS
10
2.55717
20
-3.60991
11
2.56485
21
-3.61834
0
LINE
8
BLACK
6
CONTINUOUS
10
2.56485
20
-3.61834
11
2.5736
21
-3.62566
0
LINE
8
BLACK
6
CONTINUOUS
10
2.5736
20
-3.62566
11
2.58326
21
-3.63172
0
LINE
8
BLACK
6
CONTINUOUS
10
2.58326
20
-3.63172
11
2.59366
21
-3.63642
0
LINE
8
BLACK
6
CONTINUOUS
10
2.59366
20
-3.63642
11
2.6046
21
-3.63965
0
LINE
8
BLACK
6
CONTINUOUS
10
2.6046
20
-3.63965
11
2.61587
21
-3.64138
0
LINE
8
BLACK
6
CONTINUOUS
10
2.61587
20
-3.64138
11
2.62728
21
-3.64156
0
LINE
8
BLACK
6
CONTINUOUS
10
2.62728
20
-3.64156
11
2.6386
21
-3.64019
0
LINE
8
BLACK
6
CONTINUOUS
10
2.6386
20
-3.64019
11
2.64964
21
-3.63729
0
LINE
8
BLACK
6
CONTINUOUS
10
2.64964
20
-3.63729
11
2.66018
21
-3.63293
0
LINE
8
BLACK
6
CONTINUOUS
10
2.66018
20
-3.63293
11
2.67003
21
-3.62717
0
LINE
8
BLACK
6
CONTINUOUS
10
2.67003
20
-3.62717
11
2.679
21
-3.62014
0
LINE
8
BLACK
6
CONTINUOUS
10
2.679
20
-3.62014
11
2.68694
21
-3.61194
0
LINE
8
BLACK
6
CONTINUOUS
10
2.68694
20
-3.61194
11
2.69369
21
-3.60275
0
LINE
8
BLACK
6
CONTINUOUS
10
2.69369
20
-3.60275
11
2.69914
21
-3.59273
0
LINE
8
BLACK
6
CONTINUOUS
10
2.69914
20
-3.59273
11
2.70317
21
-3.58205
0
LINE
8
BLACK
6
CONTINUOUS
10
2.70317
20
-3.58205
11
2.70572
21
-3.57094
0
LINE
8
BLACK
6
CONTINUOUS
10
2.70572
20
-3.57094
11
2.70673
21
-3.55957
0
LINE
8
BLACK
6
CONTINUOUS
10
2.70673
20
-3.55957
11
2.70675
21
-3.55782
0
LINE
8
BLACK
6
CONTINUOUS
10
2.70675
20
-3.55782
11
2.70597
21
-3.54644
0
LINE
8
BLACK
6
CONTINUOUS
10
2.70597
20
-3.54644
11
2.70366
21
-3.53527
0
LINE
8
BLACK
6
CONTINUOUS
10
2.70366
20
-3.53527
11
2.69985
21
-3.52451
0
LINE
8
BLACK
6
CONTINUOUS
10
2.69985
20
-3.52451
11
2.69462
21
-3.51438
0
LINE
8
BLACK
6
CONTINUOUS
10
2.69462
20
-3.51438
11
2.68806
21
-3.50504
0
LINE
8
BLACK
6
CONTINUOUS
10
2.68806
20
-3.50504
11
2.6803
21
-3.49669
0
LINE
8
BLACK
6
CONTINUOUS
10
2.6803
20
-3.49669
11
2.67147
21
-3.48946
0
LINE
8
BLACK
6
CONTINUOUS
10
2.67147
20
-3.48946
11
2.66174
21
-3.4835
0
LINE
8
BLACK
6
CONTINUOUS
10
2.66174
20
-3.4835
11
2.6513
21
-3.47892
0
LINE
8
BLACK
6
CONTINUOUS
10
2.6513
20
-3.47892
11
2.64033
21
-3.47579
0
LINE
8
BLACK
6
CONTINUOUS
10
2.64033
20
-3.47579
11
2.62903
21
-3.47419
0
LINE
8
BLACK
6
CONTINUOUS
10
2.62903
20
-3.47419
11
2.61763
21
-3.47413
0
LINE
8
BLACK
6
CONTINUOUS
10
2.61763
20
-3.47413
11
2.60632
21
-3.47562
0
LINE
8
BLACK
6
CONTINUOUS
10
2.60632
20
-3.47562
11
2.59531
21
-3.47863
0
LINE
8
BLACK
6
CONTINUOUS
10
2.59531
20
-3.47863
11
2.58482
21
-3.4831
0
LINE
8
BLACK
6
CONTINUOUS
10
2.58482
20
-3.4831
11
2.57503
21
-3.48896
0
LINE
8
BLACK
6
CONTINUOUS
10
2.57503
20
-3.48896
11
2.56613
21
-3.49609
0
LINE
8
BLACK
6
CONTINUOUS
10
2.56613
20
-3.49609
11
2.55828
21
-3.50437
0
LINE
8
BLACK
6
CONTINUOUS
10
2.55828
20
-3.50437
11
2.55162
21
-3.51363
0
LINE
8
BLACK
6
CONTINUOUS
10
2.55162
20
-3.51363
11
2.54628
21
-3.52371
0
LINE
8
BLACK
6
CONTINUOUS
10
2.54628
20
-3.52371
11
2.54236
21
-3.53442
0
LINE
8
BLACK
6
CONTINUOUS
10
2.54236
20
-3.53442
11
2.53993
21
-3.54557
0
LINE
8
BLACK
6
CONTINUOUS
10
2.53993
20
-3.54557
11
2.53904
21
-3.55694
0
LINE
8
BLACK
6
CONTINUOUS
10
2.53904
20
-3.55694
11
2.5397
21
-3.56833
0
LINE
8
BLACK
6
CONTINUOUS
10
2.5397
20
-3.56833
11
2.54189
21
-3.57952
  0
ENDSEC
  0
EOF
