%TF.GenerationSoftware,KiCad,Pcbnew,9.0.0*%
%TF.CreationDate,2025-03-21T09:46:36+01:00*%
%TF.ProjectId,litl_base,6c69746c-5f62-4617-9365-2e6b69636164,rev?*%
%TF.SameCoordinates,Original*%
%TF.FileFunction,Drillmap*%
%TF.FilePolarity,Positive*%
%FSLAX45Y45*%
G04 Gerber Fmt 4.5, Leading zero omitted, Abs format (unit mm)*
G04 Created by KiCad (PCBNEW 9.0.0) date 2025-03-21 09:46:36*
%MOMM*%
%LPD*%
G01*
G04 APERTURE LIST*
%ADD10C,0.150000*%
%ADD11C,0.100000*%
%ADD12C,0.200000*%
%ADD13C,0.220000*%
%ADD14C,0.430000*%
G04 APERTURE END LIST*
D10*
X2387500Y-14325000D02*
X27695000Y-14325000D01*
X28172500Y-13847500D02*
G75*
G02*
X27695000Y-14325000I-477500J0D01*
G01*
X2387500Y-14325000D02*
G75*
G02*
X1910000Y-13847500I0J477500D01*
G01*
X28172500Y-13847500D02*
X28172500Y-6446250D01*
X1910000Y-13847500D02*
X1910000Y-6446250D01*
X1910000Y-6446250D02*
G75*
G02*
X2387500Y-5968750I477500J0D01*
G01*
D11*
X2387500Y-5968750D02*
X27695000Y-5968750D01*
D10*
X27695000Y-5968750D02*
G75*
G02*
X28172500Y-6446250I0J-477500D01*
G01*
D12*
D13*
X2277500Y-6336250D02*
X2497500Y-6556250D01*
X2497500Y-6336250D02*
X2277500Y-6556250D01*
X2277500Y-13737500D02*
X2497500Y-13957500D01*
X2497500Y-13737500D02*
X2277500Y-13957500D01*
X10675410Y-13737500D02*
X10895410Y-13957500D01*
X10895410Y-13737500D02*
X10675410Y-13957500D01*
X18862080Y-13737500D02*
X19082080Y-13957500D01*
X19082080Y-13737500D02*
X18862080Y-13957500D01*
X27585000Y-6336250D02*
X27805000Y-6556250D01*
X27805000Y-6336250D02*
X27585000Y-6556250D01*
X27585000Y-13737500D02*
X27805000Y-13957500D01*
X27805000Y-13737500D02*
X27585000Y-13957500D01*
D14*
X8810000Y-6446250D02*
G75*
G02*
X8380000Y-6446250I-215000J0D01*
G01*
X8380000Y-6446250D02*
G75*
G02*
X8810000Y-6446250I215000J0D01*
G01*
X21702500Y-6446250D02*
G75*
G02*
X21272500Y-6446250I-215000J0D01*
G01*
X21272500Y-6446250D02*
G75*
G02*
X21702500Y-6446250I215000J0D01*
G01*
D12*
X2163277Y-14643984D02*
X2163277Y-14443984D01*
X2163277Y-14443984D02*
X2210896Y-14443984D01*
X2210896Y-14443984D02*
X2239467Y-14453508D01*
X2239467Y-14453508D02*
X2258515Y-14472555D01*
X2258515Y-14472555D02*
X2268039Y-14491603D01*
X2268039Y-14491603D02*
X2277563Y-14529698D01*
X2277563Y-14529698D02*
X2277563Y-14558269D01*
X2277563Y-14558269D02*
X2268039Y-14596365D01*
X2268039Y-14596365D02*
X2258515Y-14615412D01*
X2258515Y-14615412D02*
X2239467Y-14634460D01*
X2239467Y-14634460D02*
X2210896Y-14643984D01*
X2210896Y-14643984D02*
X2163277Y-14643984D01*
X2363277Y-14643984D02*
X2363277Y-14510650D01*
X2363277Y-14548746D02*
X2372801Y-14529698D01*
X2372801Y-14529698D02*
X2382324Y-14520174D01*
X2382324Y-14520174D02*
X2401372Y-14510650D01*
X2401372Y-14510650D02*
X2420420Y-14510650D01*
X2487086Y-14643984D02*
X2487086Y-14510650D01*
X2487086Y-14443984D02*
X2477563Y-14453508D01*
X2477563Y-14453508D02*
X2487086Y-14463031D01*
X2487086Y-14463031D02*
X2496610Y-14453508D01*
X2496610Y-14453508D02*
X2487086Y-14443984D01*
X2487086Y-14443984D02*
X2487086Y-14463031D01*
X2610896Y-14643984D02*
X2591848Y-14634460D01*
X2591848Y-14634460D02*
X2582324Y-14615412D01*
X2582324Y-14615412D02*
X2582324Y-14443984D01*
X2715658Y-14643984D02*
X2696610Y-14634460D01*
X2696610Y-14634460D02*
X2687086Y-14615412D01*
X2687086Y-14615412D02*
X2687086Y-14443984D01*
X2944229Y-14643984D02*
X2944229Y-14443984D01*
X2944229Y-14443984D02*
X3010896Y-14586841D01*
X3010896Y-14586841D02*
X3077562Y-14443984D01*
X3077562Y-14443984D02*
X3077562Y-14643984D01*
X3258515Y-14643984D02*
X3258515Y-14539222D01*
X3258515Y-14539222D02*
X3248991Y-14520174D01*
X3248991Y-14520174D02*
X3229943Y-14510650D01*
X3229943Y-14510650D02*
X3191848Y-14510650D01*
X3191848Y-14510650D02*
X3172801Y-14520174D01*
X3258515Y-14634460D02*
X3239467Y-14643984D01*
X3239467Y-14643984D02*
X3191848Y-14643984D01*
X3191848Y-14643984D02*
X3172801Y-14634460D01*
X3172801Y-14634460D02*
X3163277Y-14615412D01*
X3163277Y-14615412D02*
X3163277Y-14596365D01*
X3163277Y-14596365D02*
X3172801Y-14577317D01*
X3172801Y-14577317D02*
X3191848Y-14567793D01*
X3191848Y-14567793D02*
X3239467Y-14567793D01*
X3239467Y-14567793D02*
X3258515Y-14558269D01*
X3353753Y-14510650D02*
X3353753Y-14710650D01*
X3353753Y-14520174D02*
X3372801Y-14510650D01*
X3372801Y-14510650D02*
X3410896Y-14510650D01*
X3410896Y-14510650D02*
X3429943Y-14520174D01*
X3429943Y-14520174D02*
X3439467Y-14529698D01*
X3439467Y-14529698D02*
X3448991Y-14548746D01*
X3448991Y-14548746D02*
X3448991Y-14605888D01*
X3448991Y-14605888D02*
X3439467Y-14624936D01*
X3439467Y-14624936D02*
X3429943Y-14634460D01*
X3429943Y-14634460D02*
X3410896Y-14643984D01*
X3410896Y-14643984D02*
X3372801Y-14643984D01*
X3372801Y-14643984D02*
X3353753Y-14634460D01*
X3534705Y-14624936D02*
X3544229Y-14634460D01*
X3544229Y-14634460D02*
X3534705Y-14643984D01*
X3534705Y-14643984D02*
X3525182Y-14634460D01*
X3525182Y-14634460D02*
X3534705Y-14624936D01*
X3534705Y-14624936D02*
X3534705Y-14643984D01*
X3534705Y-14520174D02*
X3544229Y-14529698D01*
X3544229Y-14529698D02*
X3534705Y-14539222D01*
X3534705Y-14539222D02*
X3525182Y-14529698D01*
X3525182Y-14529698D02*
X3534705Y-14520174D01*
X3534705Y-14520174D02*
X3534705Y-14539222D01*
X1702500Y-14872500D02*
X1902500Y-15072500D01*
X1902500Y-14872500D02*
X1702500Y-15072500D01*
X2153753Y-14883031D02*
X2163277Y-14873508D01*
X2163277Y-14873508D02*
X2182324Y-14863984D01*
X2182324Y-14863984D02*
X2229944Y-14863984D01*
X2229944Y-14863984D02*
X2248991Y-14873508D01*
X2248991Y-14873508D02*
X2258515Y-14883031D01*
X2258515Y-14883031D02*
X2268039Y-14902079D01*
X2268039Y-14902079D02*
X2268039Y-14921127D01*
X2268039Y-14921127D02*
X2258515Y-14949698D01*
X2258515Y-14949698D02*
X2144229Y-15063984D01*
X2144229Y-15063984D02*
X2268039Y-15063984D01*
X2353753Y-15044936D02*
X2363277Y-15054460D01*
X2363277Y-15054460D02*
X2353753Y-15063984D01*
X2353753Y-15063984D02*
X2344229Y-15054460D01*
X2344229Y-15054460D02*
X2353753Y-15044936D01*
X2353753Y-15044936D02*
X2353753Y-15063984D01*
X2439467Y-14883031D02*
X2448991Y-14873508D01*
X2448991Y-14873508D02*
X2468039Y-14863984D01*
X2468039Y-14863984D02*
X2515658Y-14863984D01*
X2515658Y-14863984D02*
X2534705Y-14873508D01*
X2534705Y-14873508D02*
X2544229Y-14883031D01*
X2544229Y-14883031D02*
X2553753Y-14902079D01*
X2553753Y-14902079D02*
X2553753Y-14921127D01*
X2553753Y-14921127D02*
X2544229Y-14949698D01*
X2544229Y-14949698D02*
X2429944Y-15063984D01*
X2429944Y-15063984D02*
X2553753Y-15063984D01*
X2677563Y-14863984D02*
X2696610Y-14863984D01*
X2696610Y-14863984D02*
X2715658Y-14873508D01*
X2715658Y-14873508D02*
X2725182Y-14883031D01*
X2725182Y-14883031D02*
X2734705Y-14902079D01*
X2734705Y-14902079D02*
X2744229Y-14940174D01*
X2744229Y-14940174D02*
X2744229Y-14987793D01*
X2744229Y-14987793D02*
X2734705Y-15025888D01*
X2734705Y-15025888D02*
X2725182Y-15044936D01*
X2725182Y-15044936D02*
X2715658Y-15054460D01*
X2715658Y-15054460D02*
X2696610Y-15063984D01*
X2696610Y-15063984D02*
X2677563Y-15063984D01*
X2677563Y-15063984D02*
X2658515Y-15054460D01*
X2658515Y-15054460D02*
X2648991Y-15044936D01*
X2648991Y-15044936D02*
X2639467Y-15025888D01*
X2639467Y-15025888D02*
X2629944Y-14987793D01*
X2629944Y-14987793D02*
X2629944Y-14940174D01*
X2629944Y-14940174D02*
X2639467Y-14902079D01*
X2639467Y-14902079D02*
X2648991Y-14883031D01*
X2648991Y-14883031D02*
X2658515Y-14873508D01*
X2658515Y-14873508D02*
X2677563Y-14863984D01*
X2868039Y-14863984D02*
X2887086Y-14863984D01*
X2887086Y-14863984D02*
X2906134Y-14873508D01*
X2906134Y-14873508D02*
X2915658Y-14883031D01*
X2915658Y-14883031D02*
X2925182Y-14902079D01*
X2925182Y-14902079D02*
X2934705Y-14940174D01*
X2934705Y-14940174D02*
X2934705Y-14987793D01*
X2934705Y-14987793D02*
X2925182Y-15025888D01*
X2925182Y-15025888D02*
X2915658Y-15044936D01*
X2915658Y-15044936D02*
X2906134Y-15054460D01*
X2906134Y-15054460D02*
X2887086Y-15063984D01*
X2887086Y-15063984D02*
X2868039Y-15063984D01*
X2868039Y-15063984D02*
X2848991Y-15054460D01*
X2848991Y-15054460D02*
X2839467Y-15044936D01*
X2839467Y-15044936D02*
X2829943Y-15025888D01*
X2829943Y-15025888D02*
X2820420Y-14987793D01*
X2820420Y-14987793D02*
X2820420Y-14940174D01*
X2820420Y-14940174D02*
X2829943Y-14902079D01*
X2829943Y-14902079D02*
X2839467Y-14883031D01*
X2839467Y-14883031D02*
X2848991Y-14873508D01*
X2848991Y-14873508D02*
X2868039Y-14863984D01*
X3020420Y-15063984D02*
X3020420Y-14930650D01*
X3020420Y-14949698D02*
X3029943Y-14940174D01*
X3029943Y-14940174D02*
X3048991Y-14930650D01*
X3048991Y-14930650D02*
X3077563Y-14930650D01*
X3077563Y-14930650D02*
X3096610Y-14940174D01*
X3096610Y-14940174D02*
X3106134Y-14959222D01*
X3106134Y-14959222D02*
X3106134Y-15063984D01*
X3106134Y-14959222D02*
X3115658Y-14940174D01*
X3115658Y-14940174D02*
X3134705Y-14930650D01*
X3134705Y-14930650D02*
X3163277Y-14930650D01*
X3163277Y-14930650D02*
X3182324Y-14940174D01*
X3182324Y-14940174D02*
X3191848Y-14959222D01*
X3191848Y-14959222D02*
X3191848Y-15063984D01*
X3287086Y-15063984D02*
X3287086Y-14930650D01*
X3287086Y-14949698D02*
X3296610Y-14940174D01*
X3296610Y-14940174D02*
X3315658Y-14930650D01*
X3315658Y-14930650D02*
X3344229Y-14930650D01*
X3344229Y-14930650D02*
X3363277Y-14940174D01*
X3363277Y-14940174D02*
X3372801Y-14959222D01*
X3372801Y-14959222D02*
X3372801Y-15063984D01*
X3372801Y-14959222D02*
X3382324Y-14940174D01*
X3382324Y-14940174D02*
X3401372Y-14930650D01*
X3401372Y-14930650D02*
X3429943Y-14930650D01*
X3429943Y-14930650D02*
X3448991Y-14940174D01*
X3448991Y-14940174D02*
X3458515Y-14959222D01*
X3458515Y-14959222D02*
X3458515Y-15063984D01*
X3848991Y-14854460D02*
X3677563Y-15111603D01*
X4106134Y-14863984D02*
X4125182Y-14863984D01*
X4125182Y-14863984D02*
X4144229Y-14873508D01*
X4144229Y-14873508D02*
X4153753Y-14883031D01*
X4153753Y-14883031D02*
X4163277Y-14902079D01*
X4163277Y-14902079D02*
X4172801Y-14940174D01*
X4172801Y-14940174D02*
X4172801Y-14987793D01*
X4172801Y-14987793D02*
X4163277Y-15025888D01*
X4163277Y-15025888D02*
X4153753Y-15044936D01*
X4153753Y-15044936D02*
X4144229Y-15054460D01*
X4144229Y-15054460D02*
X4125182Y-15063984D01*
X4125182Y-15063984D02*
X4106134Y-15063984D01*
X4106134Y-15063984D02*
X4087086Y-15054460D01*
X4087086Y-15054460D02*
X4077563Y-15044936D01*
X4077563Y-15044936D02*
X4068039Y-15025888D01*
X4068039Y-15025888D02*
X4058515Y-14987793D01*
X4058515Y-14987793D02*
X4058515Y-14940174D01*
X4058515Y-14940174D02*
X4068039Y-14902079D01*
X4068039Y-14902079D02*
X4077563Y-14883031D01*
X4077563Y-14883031D02*
X4087086Y-14873508D01*
X4087086Y-14873508D02*
X4106134Y-14863984D01*
X4258515Y-15044936D02*
X4268039Y-15054460D01*
X4268039Y-15054460D02*
X4258515Y-15063984D01*
X4258515Y-15063984D02*
X4248991Y-15054460D01*
X4248991Y-15054460D02*
X4258515Y-15044936D01*
X4258515Y-15044936D02*
X4258515Y-15063984D01*
X4391848Y-14863984D02*
X4410896Y-14863984D01*
X4410896Y-14863984D02*
X4429944Y-14873508D01*
X4429944Y-14873508D02*
X4439468Y-14883031D01*
X4439468Y-14883031D02*
X4448991Y-14902079D01*
X4448991Y-14902079D02*
X4458515Y-14940174D01*
X4458515Y-14940174D02*
X4458515Y-14987793D01*
X4458515Y-14987793D02*
X4448991Y-15025888D01*
X4448991Y-15025888D02*
X4439468Y-15044936D01*
X4439468Y-15044936D02*
X4429944Y-15054460D01*
X4429944Y-15054460D02*
X4410896Y-15063984D01*
X4410896Y-15063984D02*
X4391848Y-15063984D01*
X4391848Y-15063984D02*
X4372801Y-15054460D01*
X4372801Y-15054460D02*
X4363277Y-15044936D01*
X4363277Y-15044936D02*
X4353753Y-15025888D01*
X4353753Y-15025888D02*
X4344229Y-14987793D01*
X4344229Y-14987793D02*
X4344229Y-14940174D01*
X4344229Y-14940174D02*
X4353753Y-14902079D01*
X4353753Y-14902079D02*
X4363277Y-14883031D01*
X4363277Y-14883031D02*
X4372801Y-14873508D01*
X4372801Y-14873508D02*
X4391848Y-14863984D01*
X4572801Y-14949698D02*
X4553753Y-14940174D01*
X4553753Y-14940174D02*
X4544229Y-14930650D01*
X4544229Y-14930650D02*
X4534706Y-14911603D01*
X4534706Y-14911603D02*
X4534706Y-14902079D01*
X4534706Y-14902079D02*
X4544229Y-14883031D01*
X4544229Y-14883031D02*
X4553753Y-14873508D01*
X4553753Y-14873508D02*
X4572801Y-14863984D01*
X4572801Y-14863984D02*
X4610896Y-14863984D01*
X4610896Y-14863984D02*
X4629944Y-14873508D01*
X4629944Y-14873508D02*
X4639468Y-14883031D01*
X4639468Y-14883031D02*
X4648991Y-14902079D01*
X4648991Y-14902079D02*
X4648991Y-14911603D01*
X4648991Y-14911603D02*
X4639468Y-14930650D01*
X4639468Y-14930650D02*
X4629944Y-14940174D01*
X4629944Y-14940174D02*
X4610896Y-14949698D01*
X4610896Y-14949698D02*
X4572801Y-14949698D01*
X4572801Y-14949698D02*
X4553753Y-14959222D01*
X4553753Y-14959222D02*
X4544229Y-14968746D01*
X4544229Y-14968746D02*
X4534706Y-14987793D01*
X4534706Y-14987793D02*
X4534706Y-15025888D01*
X4534706Y-15025888D02*
X4544229Y-15044936D01*
X4544229Y-15044936D02*
X4553753Y-15054460D01*
X4553753Y-15054460D02*
X4572801Y-15063984D01*
X4572801Y-15063984D02*
X4610896Y-15063984D01*
X4610896Y-15063984D02*
X4629944Y-15054460D01*
X4629944Y-15054460D02*
X4639468Y-15044936D01*
X4639468Y-15044936D02*
X4648991Y-15025888D01*
X4648991Y-15025888D02*
X4648991Y-14987793D01*
X4648991Y-14987793D02*
X4639468Y-14968746D01*
X4639468Y-14968746D02*
X4629944Y-14959222D01*
X4629944Y-14959222D02*
X4610896Y-14949698D01*
X4820420Y-14863984D02*
X4782325Y-14863984D01*
X4782325Y-14863984D02*
X4763277Y-14873508D01*
X4763277Y-14873508D02*
X4753753Y-14883031D01*
X4753753Y-14883031D02*
X4734706Y-14911603D01*
X4734706Y-14911603D02*
X4725182Y-14949698D01*
X4725182Y-14949698D02*
X4725182Y-15025888D01*
X4725182Y-15025888D02*
X4734706Y-15044936D01*
X4734706Y-15044936D02*
X4744229Y-15054460D01*
X4744229Y-15054460D02*
X4763277Y-15063984D01*
X4763277Y-15063984D02*
X4801372Y-15063984D01*
X4801372Y-15063984D02*
X4820420Y-15054460D01*
X4820420Y-15054460D02*
X4829944Y-15044936D01*
X4829944Y-15044936D02*
X4839468Y-15025888D01*
X4839468Y-15025888D02*
X4839468Y-14978269D01*
X4839468Y-14978269D02*
X4829944Y-14959222D01*
X4829944Y-14959222D02*
X4820420Y-14949698D01*
X4820420Y-14949698D02*
X4801372Y-14940174D01*
X4801372Y-14940174D02*
X4763277Y-14940174D01*
X4763277Y-14940174D02*
X4744229Y-14949698D01*
X4744229Y-14949698D02*
X4734706Y-14959222D01*
X4734706Y-14959222D02*
X4725182Y-14978269D01*
X5010896Y-14863984D02*
X4972801Y-14863984D01*
X4972801Y-14863984D02*
X4953753Y-14873508D01*
X4953753Y-14873508D02*
X4944229Y-14883031D01*
X4944229Y-14883031D02*
X4925182Y-14911603D01*
X4925182Y-14911603D02*
X4915658Y-14949698D01*
X4915658Y-14949698D02*
X4915658Y-15025888D01*
X4915658Y-15025888D02*
X4925182Y-15044936D01*
X4925182Y-15044936D02*
X4934706Y-15054460D01*
X4934706Y-15054460D02*
X4953753Y-15063984D01*
X4953753Y-15063984D02*
X4991849Y-15063984D01*
X4991849Y-15063984D02*
X5010896Y-15054460D01*
X5010896Y-15054460D02*
X5020420Y-15044936D01*
X5020420Y-15044936D02*
X5029944Y-15025888D01*
X5029944Y-15025888D02*
X5029944Y-14978269D01*
X5029944Y-14978269D02*
X5020420Y-14959222D01*
X5020420Y-14959222D02*
X5010896Y-14949698D01*
X5010896Y-14949698D02*
X4991849Y-14940174D01*
X4991849Y-14940174D02*
X4953753Y-14940174D01*
X4953753Y-14940174D02*
X4934706Y-14949698D01*
X4934706Y-14949698D02*
X4925182Y-14959222D01*
X4925182Y-14959222D02*
X4915658Y-14978269D01*
X5106134Y-14863984D02*
X5106134Y-14902079D01*
X5182325Y-14863984D02*
X5182325Y-14902079D01*
X5477563Y-15140174D02*
X5468039Y-15130650D01*
X5468039Y-15130650D02*
X5448991Y-15102079D01*
X5448991Y-15102079D02*
X5439468Y-15083031D01*
X5439468Y-15083031D02*
X5429944Y-15054460D01*
X5429944Y-15054460D02*
X5420420Y-15006841D01*
X5420420Y-15006841D02*
X5420420Y-14968746D01*
X5420420Y-14968746D02*
X5429944Y-14921127D01*
X5429944Y-14921127D02*
X5439468Y-14892555D01*
X5439468Y-14892555D02*
X5448991Y-14873508D01*
X5448991Y-14873508D02*
X5468039Y-14844936D01*
X5468039Y-14844936D02*
X5477563Y-14835412D01*
X5639468Y-14863984D02*
X5601372Y-14863984D01*
X5601372Y-14863984D02*
X5582325Y-14873508D01*
X5582325Y-14873508D02*
X5572801Y-14883031D01*
X5572801Y-14883031D02*
X5553753Y-14911603D01*
X5553753Y-14911603D02*
X5544230Y-14949698D01*
X5544230Y-14949698D02*
X5544230Y-15025888D01*
X5544230Y-15025888D02*
X5553753Y-15044936D01*
X5553753Y-15044936D02*
X5563277Y-15054460D01*
X5563277Y-15054460D02*
X5582325Y-15063984D01*
X5582325Y-15063984D02*
X5620420Y-15063984D01*
X5620420Y-15063984D02*
X5639468Y-15054460D01*
X5639468Y-15054460D02*
X5648991Y-15044936D01*
X5648991Y-15044936D02*
X5658515Y-15025888D01*
X5658515Y-15025888D02*
X5658515Y-14978269D01*
X5658515Y-14978269D02*
X5648991Y-14959222D01*
X5648991Y-14959222D02*
X5639468Y-14949698D01*
X5639468Y-14949698D02*
X5620420Y-14940174D01*
X5620420Y-14940174D02*
X5582325Y-14940174D01*
X5582325Y-14940174D02*
X5563277Y-14949698D01*
X5563277Y-14949698D02*
X5553753Y-14959222D01*
X5553753Y-14959222D02*
X5544230Y-14978269D01*
X5896610Y-15063984D02*
X5896610Y-14863984D01*
X5982325Y-15063984D02*
X5982325Y-14959222D01*
X5982325Y-14959222D02*
X5972801Y-14940174D01*
X5972801Y-14940174D02*
X5953753Y-14930650D01*
X5953753Y-14930650D02*
X5925182Y-14930650D01*
X5925182Y-14930650D02*
X5906134Y-14940174D01*
X5906134Y-14940174D02*
X5896610Y-14949698D01*
X6106134Y-15063984D02*
X6087087Y-15054460D01*
X6087087Y-15054460D02*
X6077563Y-15044936D01*
X6077563Y-15044936D02*
X6068039Y-15025888D01*
X6068039Y-15025888D02*
X6068039Y-14968746D01*
X6068039Y-14968746D02*
X6077563Y-14949698D01*
X6077563Y-14949698D02*
X6087087Y-14940174D01*
X6087087Y-14940174D02*
X6106134Y-14930650D01*
X6106134Y-14930650D02*
X6134706Y-14930650D01*
X6134706Y-14930650D02*
X6153753Y-14940174D01*
X6153753Y-14940174D02*
X6163277Y-14949698D01*
X6163277Y-14949698D02*
X6172801Y-14968746D01*
X6172801Y-14968746D02*
X6172801Y-15025888D01*
X6172801Y-15025888D02*
X6163277Y-15044936D01*
X6163277Y-15044936D02*
X6153753Y-15054460D01*
X6153753Y-15054460D02*
X6134706Y-15063984D01*
X6134706Y-15063984D02*
X6106134Y-15063984D01*
X6287087Y-15063984D02*
X6268039Y-15054460D01*
X6268039Y-15054460D02*
X6258515Y-15035412D01*
X6258515Y-15035412D02*
X6258515Y-14863984D01*
X6439468Y-15054460D02*
X6420420Y-15063984D01*
X6420420Y-15063984D02*
X6382325Y-15063984D01*
X6382325Y-15063984D02*
X6363277Y-15054460D01*
X6363277Y-15054460D02*
X6353753Y-15035412D01*
X6353753Y-15035412D02*
X6353753Y-14959222D01*
X6353753Y-14959222D02*
X6363277Y-14940174D01*
X6363277Y-14940174D02*
X6382325Y-14930650D01*
X6382325Y-14930650D02*
X6420420Y-14930650D01*
X6420420Y-14930650D02*
X6439468Y-14940174D01*
X6439468Y-14940174D02*
X6448991Y-14959222D01*
X6448991Y-14959222D02*
X6448991Y-14978269D01*
X6448991Y-14978269D02*
X6353753Y-14997317D01*
X6525182Y-15054460D02*
X6544230Y-15063984D01*
X6544230Y-15063984D02*
X6582325Y-15063984D01*
X6582325Y-15063984D02*
X6601372Y-15054460D01*
X6601372Y-15054460D02*
X6610896Y-15035412D01*
X6610896Y-15035412D02*
X6610896Y-15025888D01*
X6610896Y-15025888D02*
X6601372Y-15006841D01*
X6601372Y-15006841D02*
X6582325Y-14997317D01*
X6582325Y-14997317D02*
X6553753Y-14997317D01*
X6553753Y-14997317D02*
X6534706Y-14987793D01*
X6534706Y-14987793D02*
X6525182Y-14968746D01*
X6525182Y-14968746D02*
X6525182Y-14959222D01*
X6525182Y-14959222D02*
X6534706Y-14940174D01*
X6534706Y-14940174D02*
X6553753Y-14930650D01*
X6553753Y-14930650D02*
X6582325Y-14930650D01*
X6582325Y-14930650D02*
X6601372Y-14940174D01*
X6677563Y-15140174D02*
X6687087Y-15130650D01*
X6687087Y-15130650D02*
X6706134Y-15102079D01*
X6706134Y-15102079D02*
X6715658Y-15083031D01*
X6715658Y-15083031D02*
X6725182Y-15054460D01*
X6725182Y-15054460D02*
X6734706Y-15006841D01*
X6734706Y-15006841D02*
X6734706Y-14968746D01*
X6734706Y-14968746D02*
X6725182Y-14921127D01*
X6725182Y-14921127D02*
X6715658Y-14892555D01*
X6715658Y-14892555D02*
X6706134Y-14873508D01*
X6706134Y-14873508D02*
X6687087Y-14844936D01*
X6687087Y-14844936D02*
X6677563Y-14835412D01*
X7039468Y-15140174D02*
X7029944Y-15130650D01*
X7029944Y-15130650D02*
X7010896Y-15102079D01*
X7010896Y-15102079D02*
X7001372Y-15083031D01*
X7001372Y-15083031D02*
X6991849Y-15054460D01*
X6991849Y-15054460D02*
X6982325Y-15006841D01*
X6982325Y-15006841D02*
X6982325Y-14968746D01*
X6982325Y-14968746D02*
X6991849Y-14921127D01*
X6991849Y-14921127D02*
X7001372Y-14892555D01*
X7001372Y-14892555D02*
X7010896Y-14873508D01*
X7010896Y-14873508D02*
X7029944Y-14844936D01*
X7029944Y-14844936D02*
X7039468Y-14835412D01*
X7115658Y-14930650D02*
X7115658Y-15063984D01*
X7115658Y-14949698D02*
X7125182Y-14940174D01*
X7125182Y-14940174D02*
X7144230Y-14930650D01*
X7144230Y-14930650D02*
X7172801Y-14930650D01*
X7172801Y-14930650D02*
X7191849Y-14940174D01*
X7191849Y-14940174D02*
X7201372Y-14959222D01*
X7201372Y-14959222D02*
X7201372Y-15063984D01*
X7325182Y-15063984D02*
X7306134Y-15054460D01*
X7306134Y-15054460D02*
X7296611Y-15044936D01*
X7296611Y-15044936D02*
X7287087Y-15025888D01*
X7287087Y-15025888D02*
X7287087Y-14968746D01*
X7287087Y-14968746D02*
X7296611Y-14949698D01*
X7296611Y-14949698D02*
X7306134Y-14940174D01*
X7306134Y-14940174D02*
X7325182Y-14930650D01*
X7325182Y-14930650D02*
X7353753Y-14930650D01*
X7353753Y-14930650D02*
X7372801Y-14940174D01*
X7372801Y-14940174D02*
X7382325Y-14949698D01*
X7382325Y-14949698D02*
X7391849Y-14968746D01*
X7391849Y-14968746D02*
X7391849Y-15025888D01*
X7391849Y-15025888D02*
X7382325Y-15044936D01*
X7382325Y-15044936D02*
X7372801Y-15054460D01*
X7372801Y-15054460D02*
X7353753Y-15063984D01*
X7353753Y-15063984D02*
X7325182Y-15063984D01*
X7448992Y-14930650D02*
X7525182Y-14930650D01*
X7477563Y-14863984D02*
X7477563Y-15035412D01*
X7477563Y-15035412D02*
X7487087Y-15054460D01*
X7487087Y-15054460D02*
X7506134Y-15063984D01*
X7506134Y-15063984D02*
X7525182Y-15063984D01*
X7744230Y-14930650D02*
X7744230Y-15130650D01*
X7744230Y-14940174D02*
X7763277Y-14930650D01*
X7763277Y-14930650D02*
X7801373Y-14930650D01*
X7801373Y-14930650D02*
X7820420Y-14940174D01*
X7820420Y-14940174D02*
X7829944Y-14949698D01*
X7829944Y-14949698D02*
X7839468Y-14968746D01*
X7839468Y-14968746D02*
X7839468Y-15025888D01*
X7839468Y-15025888D02*
X7829944Y-15044936D01*
X7829944Y-15044936D02*
X7820420Y-15054460D01*
X7820420Y-15054460D02*
X7801373Y-15063984D01*
X7801373Y-15063984D02*
X7763277Y-15063984D01*
X7763277Y-15063984D02*
X7744230Y-15054460D01*
X7953753Y-15063984D02*
X7934706Y-15054460D01*
X7934706Y-15054460D02*
X7925182Y-15035412D01*
X7925182Y-15035412D02*
X7925182Y-14863984D01*
X8115658Y-15063984D02*
X8115658Y-14959222D01*
X8115658Y-14959222D02*
X8106134Y-14940174D01*
X8106134Y-14940174D02*
X8087087Y-14930650D01*
X8087087Y-14930650D02*
X8048992Y-14930650D01*
X8048992Y-14930650D02*
X8029944Y-14940174D01*
X8115658Y-15054460D02*
X8096611Y-15063984D01*
X8096611Y-15063984D02*
X8048992Y-15063984D01*
X8048992Y-15063984D02*
X8029944Y-15054460D01*
X8029944Y-15054460D02*
X8020420Y-15035412D01*
X8020420Y-15035412D02*
X8020420Y-15016365D01*
X8020420Y-15016365D02*
X8029944Y-14997317D01*
X8029944Y-14997317D02*
X8048992Y-14987793D01*
X8048992Y-14987793D02*
X8096611Y-14987793D01*
X8096611Y-14987793D02*
X8115658Y-14978269D01*
X8182325Y-14930650D02*
X8258515Y-14930650D01*
X8210896Y-14863984D02*
X8210896Y-15035412D01*
X8210896Y-15035412D02*
X8220420Y-15054460D01*
X8220420Y-15054460D02*
X8239468Y-15063984D01*
X8239468Y-15063984D02*
X8258515Y-15063984D01*
X8401373Y-15054460D02*
X8382325Y-15063984D01*
X8382325Y-15063984D02*
X8344230Y-15063984D01*
X8344230Y-15063984D02*
X8325182Y-15054460D01*
X8325182Y-15054460D02*
X8315658Y-15035412D01*
X8315658Y-15035412D02*
X8315658Y-14959222D01*
X8315658Y-14959222D02*
X8325182Y-14940174D01*
X8325182Y-14940174D02*
X8344230Y-14930650D01*
X8344230Y-14930650D02*
X8382325Y-14930650D01*
X8382325Y-14930650D02*
X8401373Y-14940174D01*
X8401373Y-14940174D02*
X8410896Y-14959222D01*
X8410896Y-14959222D02*
X8410896Y-14978269D01*
X8410896Y-14978269D02*
X8315658Y-14997317D01*
X8582325Y-15063984D02*
X8582325Y-14863984D01*
X8582325Y-15054460D02*
X8563277Y-15063984D01*
X8563277Y-15063984D02*
X8525182Y-15063984D01*
X8525182Y-15063984D02*
X8506135Y-15054460D01*
X8506135Y-15054460D02*
X8496611Y-15044936D01*
X8496611Y-15044936D02*
X8487087Y-15025888D01*
X8487087Y-15025888D02*
X8487087Y-14968746D01*
X8487087Y-14968746D02*
X8496611Y-14949698D01*
X8496611Y-14949698D02*
X8506135Y-14940174D01*
X8506135Y-14940174D02*
X8525182Y-14930650D01*
X8525182Y-14930650D02*
X8563277Y-14930650D01*
X8563277Y-14930650D02*
X8582325Y-14940174D01*
X8658516Y-15140174D02*
X8668039Y-15130650D01*
X8668039Y-15130650D02*
X8687087Y-15102079D01*
X8687087Y-15102079D02*
X8696611Y-15083031D01*
X8696611Y-15083031D02*
X8706135Y-15054460D01*
X8706135Y-15054460D02*
X8715658Y-15006841D01*
X8715658Y-15006841D02*
X8715658Y-14968746D01*
X8715658Y-14968746D02*
X8706135Y-14921127D01*
X8706135Y-14921127D02*
X8696611Y-14892555D01*
X8696611Y-14892555D02*
X8687087Y-14873508D01*
X8687087Y-14873508D02*
X8668039Y-14844936D01*
X8668039Y-14844936D02*
X8658516Y-14835412D01*
X1902500Y-15292500D02*
G75*
G02*
X1702500Y-15292500I-100000J0D01*
G01*
X1702500Y-15292500D02*
G75*
G02*
X1902500Y-15292500I100000J0D01*
G01*
X2248991Y-15250650D02*
X2248991Y-15383984D01*
X2201372Y-15174460D02*
X2153753Y-15317317D01*
X2153753Y-15317317D02*
X2277563Y-15317317D01*
X2353753Y-15364936D02*
X2363277Y-15374460D01*
X2363277Y-15374460D02*
X2353753Y-15383984D01*
X2353753Y-15383984D02*
X2344229Y-15374460D01*
X2344229Y-15374460D02*
X2353753Y-15364936D01*
X2353753Y-15364936D02*
X2353753Y-15383984D01*
X2429944Y-15183984D02*
X2553753Y-15183984D01*
X2553753Y-15183984D02*
X2487086Y-15260174D01*
X2487086Y-15260174D02*
X2515658Y-15260174D01*
X2515658Y-15260174D02*
X2534705Y-15269698D01*
X2534705Y-15269698D02*
X2544229Y-15279222D01*
X2544229Y-15279222D02*
X2553753Y-15298269D01*
X2553753Y-15298269D02*
X2553753Y-15345888D01*
X2553753Y-15345888D02*
X2544229Y-15364936D01*
X2544229Y-15364936D02*
X2534705Y-15374460D01*
X2534705Y-15374460D02*
X2515658Y-15383984D01*
X2515658Y-15383984D02*
X2458515Y-15383984D01*
X2458515Y-15383984D02*
X2439467Y-15374460D01*
X2439467Y-15374460D02*
X2429944Y-15364936D01*
X2677563Y-15183984D02*
X2696610Y-15183984D01*
X2696610Y-15183984D02*
X2715658Y-15193508D01*
X2715658Y-15193508D02*
X2725182Y-15203031D01*
X2725182Y-15203031D02*
X2734705Y-15222079D01*
X2734705Y-15222079D02*
X2744229Y-15260174D01*
X2744229Y-15260174D02*
X2744229Y-15307793D01*
X2744229Y-15307793D02*
X2734705Y-15345888D01*
X2734705Y-15345888D02*
X2725182Y-15364936D01*
X2725182Y-15364936D02*
X2715658Y-15374460D01*
X2715658Y-15374460D02*
X2696610Y-15383984D01*
X2696610Y-15383984D02*
X2677563Y-15383984D01*
X2677563Y-15383984D02*
X2658515Y-15374460D01*
X2658515Y-15374460D02*
X2648991Y-15364936D01*
X2648991Y-15364936D02*
X2639467Y-15345888D01*
X2639467Y-15345888D02*
X2629944Y-15307793D01*
X2629944Y-15307793D02*
X2629944Y-15260174D01*
X2629944Y-15260174D02*
X2639467Y-15222079D01*
X2639467Y-15222079D02*
X2648991Y-15203031D01*
X2648991Y-15203031D02*
X2658515Y-15193508D01*
X2658515Y-15193508D02*
X2677563Y-15183984D01*
X2868039Y-15183984D02*
X2887086Y-15183984D01*
X2887086Y-15183984D02*
X2906134Y-15193508D01*
X2906134Y-15193508D02*
X2915658Y-15203031D01*
X2915658Y-15203031D02*
X2925182Y-15222079D01*
X2925182Y-15222079D02*
X2934705Y-15260174D01*
X2934705Y-15260174D02*
X2934705Y-15307793D01*
X2934705Y-15307793D02*
X2925182Y-15345888D01*
X2925182Y-15345888D02*
X2915658Y-15364936D01*
X2915658Y-15364936D02*
X2906134Y-15374460D01*
X2906134Y-15374460D02*
X2887086Y-15383984D01*
X2887086Y-15383984D02*
X2868039Y-15383984D01*
X2868039Y-15383984D02*
X2848991Y-15374460D01*
X2848991Y-15374460D02*
X2839467Y-15364936D01*
X2839467Y-15364936D02*
X2829943Y-15345888D01*
X2829943Y-15345888D02*
X2820420Y-15307793D01*
X2820420Y-15307793D02*
X2820420Y-15260174D01*
X2820420Y-15260174D02*
X2829943Y-15222079D01*
X2829943Y-15222079D02*
X2839467Y-15203031D01*
X2839467Y-15203031D02*
X2848991Y-15193508D01*
X2848991Y-15193508D02*
X2868039Y-15183984D01*
X3020420Y-15383984D02*
X3020420Y-15250650D01*
X3020420Y-15269698D02*
X3029943Y-15260174D01*
X3029943Y-15260174D02*
X3048991Y-15250650D01*
X3048991Y-15250650D02*
X3077563Y-15250650D01*
X3077563Y-15250650D02*
X3096610Y-15260174D01*
X3096610Y-15260174D02*
X3106134Y-15279222D01*
X3106134Y-15279222D02*
X3106134Y-15383984D01*
X3106134Y-15279222D02*
X3115658Y-15260174D01*
X3115658Y-15260174D02*
X3134705Y-15250650D01*
X3134705Y-15250650D02*
X3163277Y-15250650D01*
X3163277Y-15250650D02*
X3182324Y-15260174D01*
X3182324Y-15260174D02*
X3191848Y-15279222D01*
X3191848Y-15279222D02*
X3191848Y-15383984D01*
X3287086Y-15383984D02*
X3287086Y-15250650D01*
X3287086Y-15269698D02*
X3296610Y-15260174D01*
X3296610Y-15260174D02*
X3315658Y-15250650D01*
X3315658Y-15250650D02*
X3344229Y-15250650D01*
X3344229Y-15250650D02*
X3363277Y-15260174D01*
X3363277Y-15260174D02*
X3372801Y-15279222D01*
X3372801Y-15279222D02*
X3372801Y-15383984D01*
X3372801Y-15279222D02*
X3382324Y-15260174D01*
X3382324Y-15260174D02*
X3401372Y-15250650D01*
X3401372Y-15250650D02*
X3429943Y-15250650D01*
X3429943Y-15250650D02*
X3448991Y-15260174D01*
X3448991Y-15260174D02*
X3458515Y-15279222D01*
X3458515Y-15279222D02*
X3458515Y-15383984D01*
X3848991Y-15174460D02*
X3677563Y-15431603D01*
X4106134Y-15183984D02*
X4125182Y-15183984D01*
X4125182Y-15183984D02*
X4144229Y-15193508D01*
X4144229Y-15193508D02*
X4153753Y-15203031D01*
X4153753Y-15203031D02*
X4163277Y-15222079D01*
X4163277Y-15222079D02*
X4172801Y-15260174D01*
X4172801Y-15260174D02*
X4172801Y-15307793D01*
X4172801Y-15307793D02*
X4163277Y-15345888D01*
X4163277Y-15345888D02*
X4153753Y-15364936D01*
X4153753Y-15364936D02*
X4144229Y-15374460D01*
X4144229Y-15374460D02*
X4125182Y-15383984D01*
X4125182Y-15383984D02*
X4106134Y-15383984D01*
X4106134Y-15383984D02*
X4087086Y-15374460D01*
X4087086Y-15374460D02*
X4077563Y-15364936D01*
X4077563Y-15364936D02*
X4068039Y-15345888D01*
X4068039Y-15345888D02*
X4058515Y-15307793D01*
X4058515Y-15307793D02*
X4058515Y-15260174D01*
X4058515Y-15260174D02*
X4068039Y-15222079D01*
X4068039Y-15222079D02*
X4077563Y-15203031D01*
X4077563Y-15203031D02*
X4087086Y-15193508D01*
X4087086Y-15193508D02*
X4106134Y-15183984D01*
X4258515Y-15364936D02*
X4268039Y-15374460D01*
X4268039Y-15374460D02*
X4258515Y-15383984D01*
X4258515Y-15383984D02*
X4248991Y-15374460D01*
X4248991Y-15374460D02*
X4258515Y-15364936D01*
X4258515Y-15364936D02*
X4258515Y-15383984D01*
X4458515Y-15383984D02*
X4344229Y-15383984D01*
X4401372Y-15383984D02*
X4401372Y-15183984D01*
X4401372Y-15183984D02*
X4382325Y-15212555D01*
X4382325Y-15212555D02*
X4363277Y-15231603D01*
X4363277Y-15231603D02*
X4344229Y-15241127D01*
X4629944Y-15183984D02*
X4591848Y-15183984D01*
X4591848Y-15183984D02*
X4572801Y-15193508D01*
X4572801Y-15193508D02*
X4563277Y-15203031D01*
X4563277Y-15203031D02*
X4544229Y-15231603D01*
X4544229Y-15231603D02*
X4534706Y-15269698D01*
X4534706Y-15269698D02*
X4534706Y-15345888D01*
X4534706Y-15345888D02*
X4544229Y-15364936D01*
X4544229Y-15364936D02*
X4553753Y-15374460D01*
X4553753Y-15374460D02*
X4572801Y-15383984D01*
X4572801Y-15383984D02*
X4610896Y-15383984D01*
X4610896Y-15383984D02*
X4629944Y-15374460D01*
X4629944Y-15374460D02*
X4639468Y-15364936D01*
X4639468Y-15364936D02*
X4648991Y-15345888D01*
X4648991Y-15345888D02*
X4648991Y-15298269D01*
X4648991Y-15298269D02*
X4639468Y-15279222D01*
X4639468Y-15279222D02*
X4629944Y-15269698D01*
X4629944Y-15269698D02*
X4610896Y-15260174D01*
X4610896Y-15260174D02*
X4572801Y-15260174D01*
X4572801Y-15260174D02*
X4553753Y-15269698D01*
X4553753Y-15269698D02*
X4544229Y-15279222D01*
X4544229Y-15279222D02*
X4534706Y-15298269D01*
X4744229Y-15383984D02*
X4782325Y-15383984D01*
X4782325Y-15383984D02*
X4801372Y-15374460D01*
X4801372Y-15374460D02*
X4810896Y-15364936D01*
X4810896Y-15364936D02*
X4829944Y-15336365D01*
X4829944Y-15336365D02*
X4839468Y-15298269D01*
X4839468Y-15298269D02*
X4839468Y-15222079D01*
X4839468Y-15222079D02*
X4829944Y-15203031D01*
X4829944Y-15203031D02*
X4820420Y-15193508D01*
X4820420Y-15193508D02*
X4801372Y-15183984D01*
X4801372Y-15183984D02*
X4763277Y-15183984D01*
X4763277Y-15183984D02*
X4744229Y-15193508D01*
X4744229Y-15193508D02*
X4734706Y-15203031D01*
X4734706Y-15203031D02*
X4725182Y-15222079D01*
X4725182Y-15222079D02*
X4725182Y-15269698D01*
X4725182Y-15269698D02*
X4734706Y-15288746D01*
X4734706Y-15288746D02*
X4744229Y-15298269D01*
X4744229Y-15298269D02*
X4763277Y-15307793D01*
X4763277Y-15307793D02*
X4801372Y-15307793D01*
X4801372Y-15307793D02*
X4820420Y-15298269D01*
X4820420Y-15298269D02*
X4829944Y-15288746D01*
X4829944Y-15288746D02*
X4839468Y-15269698D01*
X4906134Y-15183984D02*
X5029944Y-15183984D01*
X5029944Y-15183984D02*
X4963277Y-15260174D01*
X4963277Y-15260174D02*
X4991849Y-15260174D01*
X4991849Y-15260174D02*
X5010896Y-15269698D01*
X5010896Y-15269698D02*
X5020420Y-15279222D01*
X5020420Y-15279222D02*
X5029944Y-15298269D01*
X5029944Y-15298269D02*
X5029944Y-15345888D01*
X5029944Y-15345888D02*
X5020420Y-15364936D01*
X5020420Y-15364936D02*
X5010896Y-15374460D01*
X5010896Y-15374460D02*
X4991849Y-15383984D01*
X4991849Y-15383984D02*
X4934706Y-15383984D01*
X4934706Y-15383984D02*
X4915658Y-15374460D01*
X4915658Y-15374460D02*
X4906134Y-15364936D01*
X5106134Y-15183984D02*
X5106134Y-15222079D01*
X5182325Y-15183984D02*
X5182325Y-15222079D01*
X5477563Y-15460174D02*
X5468039Y-15450650D01*
X5468039Y-15450650D02*
X5448991Y-15422079D01*
X5448991Y-15422079D02*
X5439468Y-15403031D01*
X5439468Y-15403031D02*
X5429944Y-15374460D01*
X5429944Y-15374460D02*
X5420420Y-15326841D01*
X5420420Y-15326841D02*
X5420420Y-15288746D01*
X5420420Y-15288746D02*
X5429944Y-15241127D01*
X5429944Y-15241127D02*
X5439468Y-15212555D01*
X5439468Y-15212555D02*
X5448991Y-15193508D01*
X5448991Y-15193508D02*
X5468039Y-15164936D01*
X5468039Y-15164936D02*
X5477563Y-15155412D01*
X5544230Y-15203031D02*
X5553753Y-15193508D01*
X5553753Y-15193508D02*
X5572801Y-15183984D01*
X5572801Y-15183984D02*
X5620420Y-15183984D01*
X5620420Y-15183984D02*
X5639468Y-15193508D01*
X5639468Y-15193508D02*
X5648991Y-15203031D01*
X5648991Y-15203031D02*
X5658515Y-15222079D01*
X5658515Y-15222079D02*
X5658515Y-15241127D01*
X5658515Y-15241127D02*
X5648991Y-15269698D01*
X5648991Y-15269698D02*
X5534706Y-15383984D01*
X5534706Y-15383984D02*
X5658515Y-15383984D01*
X5896610Y-15383984D02*
X5896610Y-15183984D01*
X5982325Y-15383984D02*
X5982325Y-15279222D01*
X5982325Y-15279222D02*
X5972801Y-15260174D01*
X5972801Y-15260174D02*
X5953753Y-15250650D01*
X5953753Y-15250650D02*
X5925182Y-15250650D01*
X5925182Y-15250650D02*
X5906134Y-15260174D01*
X5906134Y-15260174D02*
X5896610Y-15269698D01*
X6106134Y-15383984D02*
X6087087Y-15374460D01*
X6087087Y-15374460D02*
X6077563Y-15364936D01*
X6077563Y-15364936D02*
X6068039Y-15345888D01*
X6068039Y-15345888D02*
X6068039Y-15288746D01*
X6068039Y-15288746D02*
X6077563Y-15269698D01*
X6077563Y-15269698D02*
X6087087Y-15260174D01*
X6087087Y-15260174D02*
X6106134Y-15250650D01*
X6106134Y-15250650D02*
X6134706Y-15250650D01*
X6134706Y-15250650D02*
X6153753Y-15260174D01*
X6153753Y-15260174D02*
X6163277Y-15269698D01*
X6163277Y-15269698D02*
X6172801Y-15288746D01*
X6172801Y-15288746D02*
X6172801Y-15345888D01*
X6172801Y-15345888D02*
X6163277Y-15364936D01*
X6163277Y-15364936D02*
X6153753Y-15374460D01*
X6153753Y-15374460D02*
X6134706Y-15383984D01*
X6134706Y-15383984D02*
X6106134Y-15383984D01*
X6287087Y-15383984D02*
X6268039Y-15374460D01*
X6268039Y-15374460D02*
X6258515Y-15355412D01*
X6258515Y-15355412D02*
X6258515Y-15183984D01*
X6439468Y-15374460D02*
X6420420Y-15383984D01*
X6420420Y-15383984D02*
X6382325Y-15383984D01*
X6382325Y-15383984D02*
X6363277Y-15374460D01*
X6363277Y-15374460D02*
X6353753Y-15355412D01*
X6353753Y-15355412D02*
X6353753Y-15279222D01*
X6353753Y-15279222D02*
X6363277Y-15260174D01*
X6363277Y-15260174D02*
X6382325Y-15250650D01*
X6382325Y-15250650D02*
X6420420Y-15250650D01*
X6420420Y-15250650D02*
X6439468Y-15260174D01*
X6439468Y-15260174D02*
X6448991Y-15279222D01*
X6448991Y-15279222D02*
X6448991Y-15298269D01*
X6448991Y-15298269D02*
X6353753Y-15317317D01*
X6525182Y-15374460D02*
X6544230Y-15383984D01*
X6544230Y-15383984D02*
X6582325Y-15383984D01*
X6582325Y-15383984D02*
X6601372Y-15374460D01*
X6601372Y-15374460D02*
X6610896Y-15355412D01*
X6610896Y-15355412D02*
X6610896Y-15345888D01*
X6610896Y-15345888D02*
X6601372Y-15326841D01*
X6601372Y-15326841D02*
X6582325Y-15317317D01*
X6582325Y-15317317D02*
X6553753Y-15317317D01*
X6553753Y-15317317D02*
X6534706Y-15307793D01*
X6534706Y-15307793D02*
X6525182Y-15288746D01*
X6525182Y-15288746D02*
X6525182Y-15279222D01*
X6525182Y-15279222D02*
X6534706Y-15260174D01*
X6534706Y-15260174D02*
X6553753Y-15250650D01*
X6553753Y-15250650D02*
X6582325Y-15250650D01*
X6582325Y-15250650D02*
X6601372Y-15260174D01*
X6677563Y-15460174D02*
X6687087Y-15450650D01*
X6687087Y-15450650D02*
X6706134Y-15422079D01*
X6706134Y-15422079D02*
X6715658Y-15403031D01*
X6715658Y-15403031D02*
X6725182Y-15374460D01*
X6725182Y-15374460D02*
X6734706Y-15326841D01*
X6734706Y-15326841D02*
X6734706Y-15288746D01*
X6734706Y-15288746D02*
X6725182Y-15241127D01*
X6725182Y-15241127D02*
X6715658Y-15212555D01*
X6715658Y-15212555D02*
X6706134Y-15193508D01*
X6706134Y-15193508D02*
X6687087Y-15164936D01*
X6687087Y-15164936D02*
X6677563Y-15155412D01*
X7039468Y-15460174D02*
X7029944Y-15450650D01*
X7029944Y-15450650D02*
X7010896Y-15422079D01*
X7010896Y-15422079D02*
X7001372Y-15403031D01*
X7001372Y-15403031D02*
X6991849Y-15374460D01*
X6991849Y-15374460D02*
X6982325Y-15326841D01*
X6982325Y-15326841D02*
X6982325Y-15288746D01*
X6982325Y-15288746D02*
X6991849Y-15241127D01*
X6991849Y-15241127D02*
X7001372Y-15212555D01*
X7001372Y-15212555D02*
X7010896Y-15193508D01*
X7010896Y-15193508D02*
X7029944Y-15164936D01*
X7029944Y-15164936D02*
X7039468Y-15155412D01*
X7115658Y-15250650D02*
X7115658Y-15383984D01*
X7115658Y-15269698D02*
X7125182Y-15260174D01*
X7125182Y-15260174D02*
X7144230Y-15250650D01*
X7144230Y-15250650D02*
X7172801Y-15250650D01*
X7172801Y-15250650D02*
X7191849Y-15260174D01*
X7191849Y-15260174D02*
X7201372Y-15279222D01*
X7201372Y-15279222D02*
X7201372Y-15383984D01*
X7325182Y-15383984D02*
X7306134Y-15374460D01*
X7306134Y-15374460D02*
X7296611Y-15364936D01*
X7296611Y-15364936D02*
X7287087Y-15345888D01*
X7287087Y-15345888D02*
X7287087Y-15288746D01*
X7287087Y-15288746D02*
X7296611Y-15269698D01*
X7296611Y-15269698D02*
X7306134Y-15260174D01*
X7306134Y-15260174D02*
X7325182Y-15250650D01*
X7325182Y-15250650D02*
X7353753Y-15250650D01*
X7353753Y-15250650D02*
X7372801Y-15260174D01*
X7372801Y-15260174D02*
X7382325Y-15269698D01*
X7382325Y-15269698D02*
X7391849Y-15288746D01*
X7391849Y-15288746D02*
X7391849Y-15345888D01*
X7391849Y-15345888D02*
X7382325Y-15364936D01*
X7382325Y-15364936D02*
X7372801Y-15374460D01*
X7372801Y-15374460D02*
X7353753Y-15383984D01*
X7353753Y-15383984D02*
X7325182Y-15383984D01*
X7448992Y-15250650D02*
X7525182Y-15250650D01*
X7477563Y-15183984D02*
X7477563Y-15355412D01*
X7477563Y-15355412D02*
X7487087Y-15374460D01*
X7487087Y-15374460D02*
X7506134Y-15383984D01*
X7506134Y-15383984D02*
X7525182Y-15383984D01*
X7744230Y-15250650D02*
X7744230Y-15450650D01*
X7744230Y-15260174D02*
X7763277Y-15250650D01*
X7763277Y-15250650D02*
X7801373Y-15250650D01*
X7801373Y-15250650D02*
X7820420Y-15260174D01*
X7820420Y-15260174D02*
X7829944Y-15269698D01*
X7829944Y-15269698D02*
X7839468Y-15288746D01*
X7839468Y-15288746D02*
X7839468Y-15345888D01*
X7839468Y-15345888D02*
X7829944Y-15364936D01*
X7829944Y-15364936D02*
X7820420Y-15374460D01*
X7820420Y-15374460D02*
X7801373Y-15383984D01*
X7801373Y-15383984D02*
X7763277Y-15383984D01*
X7763277Y-15383984D02*
X7744230Y-15374460D01*
X7953753Y-15383984D02*
X7934706Y-15374460D01*
X7934706Y-15374460D02*
X7925182Y-15355412D01*
X7925182Y-15355412D02*
X7925182Y-15183984D01*
X8115658Y-15383984D02*
X8115658Y-15279222D01*
X8115658Y-15279222D02*
X8106134Y-15260174D01*
X8106134Y-15260174D02*
X8087087Y-15250650D01*
X8087087Y-15250650D02*
X8048992Y-15250650D01*
X8048992Y-15250650D02*
X8029944Y-15260174D01*
X8115658Y-15374460D02*
X8096611Y-15383984D01*
X8096611Y-15383984D02*
X8048992Y-15383984D01*
X8048992Y-15383984D02*
X8029944Y-15374460D01*
X8029944Y-15374460D02*
X8020420Y-15355412D01*
X8020420Y-15355412D02*
X8020420Y-15336365D01*
X8020420Y-15336365D02*
X8029944Y-15317317D01*
X8029944Y-15317317D02*
X8048992Y-15307793D01*
X8048992Y-15307793D02*
X8096611Y-15307793D01*
X8096611Y-15307793D02*
X8115658Y-15298269D01*
X8182325Y-15250650D02*
X8258515Y-15250650D01*
X8210896Y-15183984D02*
X8210896Y-15355412D01*
X8210896Y-15355412D02*
X8220420Y-15374460D01*
X8220420Y-15374460D02*
X8239468Y-15383984D01*
X8239468Y-15383984D02*
X8258515Y-15383984D01*
X8401373Y-15374460D02*
X8382325Y-15383984D01*
X8382325Y-15383984D02*
X8344230Y-15383984D01*
X8344230Y-15383984D02*
X8325182Y-15374460D01*
X8325182Y-15374460D02*
X8315658Y-15355412D01*
X8315658Y-15355412D02*
X8315658Y-15279222D01*
X8315658Y-15279222D02*
X8325182Y-15260174D01*
X8325182Y-15260174D02*
X8344230Y-15250650D01*
X8344230Y-15250650D02*
X8382325Y-15250650D01*
X8382325Y-15250650D02*
X8401373Y-15260174D01*
X8401373Y-15260174D02*
X8410896Y-15279222D01*
X8410896Y-15279222D02*
X8410896Y-15298269D01*
X8410896Y-15298269D02*
X8315658Y-15317317D01*
X8582325Y-15383984D02*
X8582325Y-15183984D01*
X8582325Y-15374460D02*
X8563277Y-15383984D01*
X8563277Y-15383984D02*
X8525182Y-15383984D01*
X8525182Y-15383984D02*
X8506135Y-15374460D01*
X8506135Y-15374460D02*
X8496611Y-15364936D01*
X8496611Y-15364936D02*
X8487087Y-15345888D01*
X8487087Y-15345888D02*
X8487087Y-15288746D01*
X8487087Y-15288746D02*
X8496611Y-15269698D01*
X8496611Y-15269698D02*
X8506135Y-15260174D01*
X8506135Y-15260174D02*
X8525182Y-15250650D01*
X8525182Y-15250650D02*
X8563277Y-15250650D01*
X8563277Y-15250650D02*
X8582325Y-15260174D01*
X8658516Y-15460174D02*
X8668039Y-15450650D01*
X8668039Y-15450650D02*
X8687087Y-15422079D01*
X8687087Y-15422079D02*
X8696611Y-15403031D01*
X8696611Y-15403031D02*
X8706135Y-15374460D01*
X8706135Y-15374460D02*
X8715658Y-15326841D01*
X8715658Y-15326841D02*
X8715658Y-15288746D01*
X8715658Y-15288746D02*
X8706135Y-15241127D01*
X8706135Y-15241127D02*
X8696611Y-15212555D01*
X8696611Y-15212555D02*
X8687087Y-15193508D01*
X8687087Y-15193508D02*
X8668039Y-15164936D01*
X8668039Y-15164936D02*
X8658516Y-15155412D01*
M02*
