%TF.GenerationSoftware,KiCad,Pcbnew,9.0.0*%
%TF.CreationDate,2025-03-21T09:46:05+01:00*%
%TF.ProjectId,litl_base,6c69746c-5f62-4617-9365-2e6b69636164,rev?*%
%TF.SameCoordinates,Original*%
%TF.FileFunction,Legend,Top*%
%TF.FilePolarity,Positive*%
%FSLAX46Y46*%
G04 Gerber Fmt 4.6, Leading zero omitted, Abs format (unit mm)*
G04 Created by KiCad (PCBNEW 9.0.0) date 2025-03-21 09:46:05*
%MOMM*%
%LPD*%
G01*
G04 APERTURE LIST*
%ADD10C,0.150000*%
%ADD11C,2.200000*%
%ADD12C,4.300000*%
G04 APERTURE END LIST*
D10*
X140763094Y-128527228D02*
X140905951Y-128574847D01*
X140905951Y-128574847D02*
X141144046Y-128574847D01*
X141144046Y-128574847D02*
X141239284Y-128527228D01*
X141239284Y-128527228D02*
X141286903Y-128479608D01*
X141286903Y-128479608D02*
X141334522Y-128384370D01*
X141334522Y-128384370D02*
X141334522Y-128289132D01*
X141334522Y-128289132D02*
X141286903Y-128193894D01*
X141286903Y-128193894D02*
X141239284Y-128146275D01*
X141239284Y-128146275D02*
X141144046Y-128098656D01*
X141144046Y-128098656D02*
X140953570Y-128051037D01*
X140953570Y-128051037D02*
X140858332Y-128003418D01*
X140858332Y-128003418D02*
X140810713Y-127955799D01*
X140810713Y-127955799D02*
X140763094Y-127860561D01*
X140763094Y-127860561D02*
X140763094Y-127765323D01*
X140763094Y-127765323D02*
X140810713Y-127670085D01*
X140810713Y-127670085D02*
X140858332Y-127622466D01*
X140858332Y-127622466D02*
X140953570Y-127574847D01*
X140953570Y-127574847D02*
X141191665Y-127574847D01*
X141191665Y-127574847D02*
X141334522Y-127622466D01*
X141620237Y-127574847D02*
X142191665Y-127574847D01*
X141905951Y-128574847D02*
X141905951Y-127574847D01*
X142524999Y-128574847D02*
X142524999Y-127574847D01*
X142524999Y-128051037D02*
X143096427Y-128051037D01*
X143096427Y-128574847D02*
X143096427Y-127574847D01*
X144048808Y-128574847D02*
X143572618Y-128574847D01*
X143572618Y-128574847D02*
X143572618Y-127574847D01*
X144382142Y-128574847D02*
X144382142Y-127574847D01*
X144382142Y-127574847D02*
X144715475Y-128289132D01*
X144715475Y-128289132D02*
X145048808Y-127574847D01*
X145048808Y-127574847D02*
X145048808Y-128574847D01*
X146286904Y-128574847D02*
X146286904Y-127574847D01*
X146858332Y-128574847D02*
X146429761Y-128003418D01*
X146858332Y-127574847D02*
X146286904Y-128146275D01*
X147620237Y-128051037D02*
X147763094Y-128098656D01*
X147763094Y-128098656D02*
X147810713Y-128146275D01*
X147810713Y-128146275D02*
X147858332Y-128241513D01*
X147858332Y-128241513D02*
X147858332Y-128384370D01*
X147858332Y-128384370D02*
X147810713Y-128479608D01*
X147810713Y-128479608D02*
X147763094Y-128527228D01*
X147763094Y-128527228D02*
X147667856Y-128574847D01*
X147667856Y-128574847D02*
X147286904Y-128574847D01*
X147286904Y-128574847D02*
X147286904Y-127574847D01*
X147286904Y-127574847D02*
X147620237Y-127574847D01*
X147620237Y-127574847D02*
X147715475Y-127622466D01*
X147715475Y-127622466D02*
X147763094Y-127670085D01*
X147763094Y-127670085D02*
X147810713Y-127765323D01*
X147810713Y-127765323D02*
X147810713Y-127860561D01*
X147810713Y-127860561D02*
X147763094Y-127955799D01*
X147763094Y-127955799D02*
X147715475Y-128003418D01*
X147715475Y-128003418D02*
X147620237Y-128051037D01*
X147620237Y-128051037D02*
X147286904Y-128051037D01*
X149191666Y-128574847D02*
X149096428Y-128527228D01*
X149096428Y-128527228D02*
X149048809Y-128431989D01*
X149048809Y-128431989D02*
X149048809Y-127574847D01*
X149572619Y-128574847D02*
X149572619Y-127908180D01*
X149572619Y-127574847D02*
X149525000Y-127622466D01*
X149525000Y-127622466D02*
X149572619Y-127670085D01*
X149572619Y-127670085D02*
X149620238Y-127622466D01*
X149620238Y-127622466D02*
X149572619Y-127574847D01*
X149572619Y-127574847D02*
X149572619Y-127670085D01*
X149905952Y-127908180D02*
X150286904Y-127908180D01*
X150048809Y-127574847D02*
X150048809Y-128431989D01*
X150048809Y-128431989D02*
X150096428Y-128527228D01*
X150096428Y-128527228D02*
X150191666Y-128574847D01*
X150191666Y-128574847D02*
X150286904Y-128574847D01*
X150763095Y-128574847D02*
X150667857Y-128527228D01*
X150667857Y-128527228D02*
X150620238Y-128431989D01*
X150620238Y-128431989D02*
X150620238Y-127574847D01*
X151858334Y-127670085D02*
X151905953Y-127622466D01*
X151905953Y-127622466D02*
X152001191Y-127574847D01*
X152001191Y-127574847D02*
X152239286Y-127574847D01*
X152239286Y-127574847D02*
X152334524Y-127622466D01*
X152334524Y-127622466D02*
X152382143Y-127670085D01*
X152382143Y-127670085D02*
X152429762Y-127765323D01*
X152429762Y-127765323D02*
X152429762Y-127860561D01*
X152429762Y-127860561D02*
X152382143Y-128003418D01*
X152382143Y-128003418D02*
X151810715Y-128574847D01*
X151810715Y-128574847D02*
X152429762Y-128574847D01*
X153048810Y-127574847D02*
X153144048Y-127574847D01*
X153144048Y-127574847D02*
X153239286Y-127622466D01*
X153239286Y-127622466D02*
X153286905Y-127670085D01*
X153286905Y-127670085D02*
X153334524Y-127765323D01*
X153334524Y-127765323D02*
X153382143Y-127955799D01*
X153382143Y-127955799D02*
X153382143Y-128193894D01*
X153382143Y-128193894D02*
X153334524Y-128384370D01*
X153334524Y-128384370D02*
X153286905Y-128479608D01*
X153286905Y-128479608D02*
X153239286Y-128527228D01*
X153239286Y-128527228D02*
X153144048Y-128574847D01*
X153144048Y-128574847D02*
X153048810Y-128574847D01*
X153048810Y-128574847D02*
X152953572Y-128527228D01*
X152953572Y-128527228D02*
X152905953Y-128479608D01*
X152905953Y-128479608D02*
X152858334Y-128384370D01*
X152858334Y-128384370D02*
X152810715Y-128193894D01*
X152810715Y-128193894D02*
X152810715Y-127955799D01*
X152810715Y-127955799D02*
X152858334Y-127765323D01*
X152858334Y-127765323D02*
X152905953Y-127670085D01*
X152905953Y-127670085D02*
X152953572Y-127622466D01*
X152953572Y-127622466D02*
X153048810Y-127574847D01*
X153763096Y-127670085D02*
X153810715Y-127622466D01*
X153810715Y-127622466D02*
X153905953Y-127574847D01*
X153905953Y-127574847D02*
X154144048Y-127574847D01*
X154144048Y-127574847D02*
X154239286Y-127622466D01*
X154239286Y-127622466D02*
X154286905Y-127670085D01*
X154286905Y-127670085D02*
X154334524Y-127765323D01*
X154334524Y-127765323D02*
X154334524Y-127860561D01*
X154334524Y-127860561D02*
X154286905Y-128003418D01*
X154286905Y-128003418D02*
X153715477Y-128574847D01*
X153715477Y-128574847D02*
X154334524Y-128574847D01*
X155239286Y-127574847D02*
X154763096Y-127574847D01*
X154763096Y-127574847D02*
X154715477Y-128051037D01*
X154715477Y-128051037D02*
X154763096Y-128003418D01*
X154763096Y-128003418D02*
X154858334Y-127955799D01*
X154858334Y-127955799D02*
X155096429Y-127955799D01*
X155096429Y-127955799D02*
X155191667Y-128003418D01*
X155191667Y-128003418D02*
X155239286Y-128051037D01*
X155239286Y-128051037D02*
X155286905Y-128146275D01*
X155286905Y-128146275D02*
X155286905Y-128384370D01*
X155286905Y-128384370D02*
X155239286Y-128479608D01*
X155239286Y-128479608D02*
X155191667Y-128527228D01*
X155191667Y-128527228D02*
X155096429Y-128574847D01*
X155096429Y-128574847D02*
X154858334Y-128574847D01*
X154858334Y-128574847D02*
X154763096Y-128527228D01*
X154763096Y-128527228D02*
X154715477Y-128479608D01*
X141977380Y-130184791D02*
X141977380Y-129184791D01*
X141977380Y-130137172D02*
X141882142Y-130184791D01*
X141882142Y-130184791D02*
X141691666Y-130184791D01*
X141691666Y-130184791D02*
X141596428Y-130137172D01*
X141596428Y-130137172D02*
X141548809Y-130089552D01*
X141548809Y-130089552D02*
X141501190Y-129994314D01*
X141501190Y-129994314D02*
X141501190Y-129708600D01*
X141501190Y-129708600D02*
X141548809Y-129613362D01*
X141548809Y-129613362D02*
X141596428Y-129565743D01*
X141596428Y-129565743D02*
X141691666Y-129518124D01*
X141691666Y-129518124D02*
X141882142Y-129518124D01*
X141882142Y-129518124D02*
X141977380Y-129565743D01*
X142834523Y-130137172D02*
X142739285Y-130184791D01*
X142739285Y-130184791D02*
X142548809Y-130184791D01*
X142548809Y-130184791D02*
X142453571Y-130137172D01*
X142453571Y-130137172D02*
X142405952Y-130041933D01*
X142405952Y-130041933D02*
X142405952Y-129660981D01*
X142405952Y-129660981D02*
X142453571Y-129565743D01*
X142453571Y-129565743D02*
X142548809Y-129518124D01*
X142548809Y-129518124D02*
X142739285Y-129518124D01*
X142739285Y-129518124D02*
X142834523Y-129565743D01*
X142834523Y-129565743D02*
X142882142Y-129660981D01*
X142882142Y-129660981D02*
X142882142Y-129756219D01*
X142882142Y-129756219D02*
X142405952Y-129851457D01*
X143263095Y-130137172D02*
X143358333Y-130184791D01*
X143358333Y-130184791D02*
X143548809Y-130184791D01*
X143548809Y-130184791D02*
X143644047Y-130137172D01*
X143644047Y-130137172D02*
X143691666Y-130041933D01*
X143691666Y-130041933D02*
X143691666Y-129994314D01*
X143691666Y-129994314D02*
X143644047Y-129899076D01*
X143644047Y-129899076D02*
X143548809Y-129851457D01*
X143548809Y-129851457D02*
X143405952Y-129851457D01*
X143405952Y-129851457D02*
X143310714Y-129803838D01*
X143310714Y-129803838D02*
X143263095Y-129708600D01*
X143263095Y-129708600D02*
X143263095Y-129660981D01*
X143263095Y-129660981D02*
X143310714Y-129565743D01*
X143310714Y-129565743D02*
X143405952Y-129518124D01*
X143405952Y-129518124D02*
X143548809Y-129518124D01*
X143548809Y-129518124D02*
X143644047Y-129565743D01*
X144120238Y-130184791D02*
X144120238Y-129518124D01*
X144120238Y-129184791D02*
X144072619Y-129232410D01*
X144072619Y-129232410D02*
X144120238Y-129280029D01*
X144120238Y-129280029D02*
X144167857Y-129232410D01*
X144167857Y-129232410D02*
X144120238Y-129184791D01*
X144120238Y-129184791D02*
X144120238Y-129280029D01*
X145024999Y-129518124D02*
X145024999Y-130327648D01*
X145024999Y-130327648D02*
X144977380Y-130422886D01*
X144977380Y-130422886D02*
X144929761Y-130470505D01*
X144929761Y-130470505D02*
X144834523Y-130518124D01*
X144834523Y-130518124D02*
X144691666Y-130518124D01*
X144691666Y-130518124D02*
X144596428Y-130470505D01*
X145024999Y-130137172D02*
X144929761Y-130184791D01*
X144929761Y-130184791D02*
X144739285Y-130184791D01*
X144739285Y-130184791D02*
X144644047Y-130137172D01*
X144644047Y-130137172D02*
X144596428Y-130089552D01*
X144596428Y-130089552D02*
X144548809Y-129994314D01*
X144548809Y-129994314D02*
X144548809Y-129708600D01*
X144548809Y-129708600D02*
X144596428Y-129613362D01*
X144596428Y-129613362D02*
X144644047Y-129565743D01*
X144644047Y-129565743D02*
X144739285Y-129518124D01*
X144739285Y-129518124D02*
X144929761Y-129518124D01*
X144929761Y-129518124D02*
X145024999Y-129565743D01*
X145501190Y-129518124D02*
X145501190Y-130184791D01*
X145501190Y-129613362D02*
X145548809Y-129565743D01*
X145548809Y-129565743D02*
X145644047Y-129518124D01*
X145644047Y-129518124D02*
X145786904Y-129518124D01*
X145786904Y-129518124D02*
X145882142Y-129565743D01*
X145882142Y-129565743D02*
X145929761Y-129660981D01*
X145929761Y-129660981D02*
X145929761Y-130184791D01*
X147167857Y-130184791D02*
X147167857Y-129184791D01*
X147167857Y-129565743D02*
X147263095Y-129518124D01*
X147263095Y-129518124D02*
X147453571Y-129518124D01*
X147453571Y-129518124D02*
X147548809Y-129565743D01*
X147548809Y-129565743D02*
X147596428Y-129613362D01*
X147596428Y-129613362D02*
X147644047Y-129708600D01*
X147644047Y-129708600D02*
X147644047Y-129994314D01*
X147644047Y-129994314D02*
X147596428Y-130089552D01*
X147596428Y-130089552D02*
X147548809Y-130137172D01*
X147548809Y-130137172D02*
X147453571Y-130184791D01*
X147453571Y-130184791D02*
X147263095Y-130184791D01*
X147263095Y-130184791D02*
X147167857Y-130137172D01*
X147977381Y-129518124D02*
X148215476Y-130184791D01*
X148453571Y-129518124D02*
X148215476Y-130184791D01*
X148215476Y-130184791D02*
X148120238Y-130422886D01*
X148120238Y-130422886D02*
X148072619Y-130470505D01*
X148072619Y-130470505D02*
X147977381Y-130518124D01*
X149596429Y-130184791D02*
X149596429Y-129518124D01*
X149596429Y-129613362D02*
X149644048Y-129565743D01*
X149644048Y-129565743D02*
X149739286Y-129518124D01*
X149739286Y-129518124D02*
X149882143Y-129518124D01*
X149882143Y-129518124D02*
X149977381Y-129565743D01*
X149977381Y-129565743D02*
X150025000Y-129660981D01*
X150025000Y-129660981D02*
X150025000Y-130184791D01*
X150025000Y-129660981D02*
X150072619Y-129565743D01*
X150072619Y-129565743D02*
X150167857Y-129518124D01*
X150167857Y-129518124D02*
X150310714Y-129518124D01*
X150310714Y-129518124D02*
X150405953Y-129565743D01*
X150405953Y-129565743D02*
X150453572Y-129660981D01*
X150453572Y-129660981D02*
X150453572Y-130184791D01*
X151072619Y-130184791D02*
X150977381Y-130137172D01*
X150977381Y-130137172D02*
X150929762Y-130089552D01*
X150929762Y-130089552D02*
X150882143Y-129994314D01*
X150882143Y-129994314D02*
X150882143Y-129708600D01*
X150882143Y-129708600D02*
X150929762Y-129613362D01*
X150929762Y-129613362D02*
X150977381Y-129565743D01*
X150977381Y-129565743D02*
X151072619Y-129518124D01*
X151072619Y-129518124D02*
X151215476Y-129518124D01*
X151215476Y-129518124D02*
X151310714Y-129565743D01*
X151310714Y-129565743D02*
X151358333Y-129613362D01*
X151358333Y-129613362D02*
X151405952Y-129708600D01*
X151405952Y-129708600D02*
X151405952Y-129994314D01*
X151405952Y-129994314D02*
X151358333Y-130089552D01*
X151358333Y-130089552D02*
X151310714Y-130137172D01*
X151310714Y-130137172D02*
X151215476Y-130184791D01*
X151215476Y-130184791D02*
X151072619Y-130184791D01*
X151834524Y-130184791D02*
X151834524Y-129184791D01*
X152263095Y-130184791D02*
X152263095Y-129660981D01*
X152263095Y-129660981D02*
X152215476Y-129565743D01*
X152215476Y-129565743D02*
X152120238Y-129518124D01*
X152120238Y-129518124D02*
X151977381Y-129518124D01*
X151977381Y-129518124D02*
X151882143Y-129565743D01*
X151882143Y-129565743D02*
X151834524Y-129613362D01*
X152882143Y-130184791D02*
X152786905Y-130137172D01*
X152786905Y-130137172D02*
X152739286Y-130089552D01*
X152739286Y-130089552D02*
X152691667Y-129994314D01*
X152691667Y-129994314D02*
X152691667Y-129708600D01*
X152691667Y-129708600D02*
X152739286Y-129613362D01*
X152739286Y-129613362D02*
X152786905Y-129565743D01*
X152786905Y-129565743D02*
X152882143Y-129518124D01*
X152882143Y-129518124D02*
X153025000Y-129518124D01*
X153025000Y-129518124D02*
X153120238Y-129565743D01*
X153120238Y-129565743D02*
X153167857Y-129613362D01*
X153167857Y-129613362D02*
X153215476Y-129708600D01*
X153215476Y-129708600D02*
X153215476Y-129994314D01*
X153215476Y-129994314D02*
X153167857Y-130089552D01*
X153167857Y-130089552D02*
X153120238Y-130137172D01*
X153120238Y-130137172D02*
X153025000Y-130184791D01*
X153025000Y-130184791D02*
X152882143Y-130184791D01*
X153548810Y-129518124D02*
X153786905Y-130184791D01*
X154025000Y-129518124D02*
X153786905Y-130184791D01*
X153786905Y-130184791D02*
X153691667Y-130422886D01*
X153691667Y-130422886D02*
X153644048Y-130470505D01*
X153644048Y-130470505D02*
X153548810Y-130518124D01*
X154263096Y-129518124D02*
X154644048Y-129518124D01*
X154405953Y-129184791D02*
X154405953Y-130041933D01*
X154405953Y-130041933D02*
X154453572Y-130137172D01*
X154453572Y-130137172D02*
X154548810Y-130184791D01*
X154548810Y-130184791D02*
X154644048Y-130184791D01*
X260393451Y-137929819D02*
X260393451Y-138644104D01*
X260393451Y-138644104D02*
X260345832Y-138786961D01*
X260345832Y-138786961D02*
X260250594Y-138882200D01*
X260250594Y-138882200D02*
X260107737Y-138929819D01*
X260107737Y-138929819D02*
X260012499Y-138929819D01*
X261345832Y-138929819D02*
X260869642Y-138929819D01*
X260869642Y-138929819D02*
X260869642Y-137929819D01*
X262250594Y-138834580D02*
X262202975Y-138882200D01*
X262202975Y-138882200D02*
X262060118Y-138929819D01*
X262060118Y-138929819D02*
X261964880Y-138929819D01*
X261964880Y-138929819D02*
X261822023Y-138882200D01*
X261822023Y-138882200D02*
X261726785Y-138786961D01*
X261726785Y-138786961D02*
X261679166Y-138691723D01*
X261679166Y-138691723D02*
X261631547Y-138501247D01*
X261631547Y-138501247D02*
X261631547Y-138358390D01*
X261631547Y-138358390D02*
X261679166Y-138167914D01*
X261679166Y-138167914D02*
X261726785Y-138072676D01*
X261726785Y-138072676D02*
X261822023Y-137977438D01*
X261822023Y-137977438D02*
X261964880Y-137929819D01*
X261964880Y-137929819D02*
X262060118Y-137929819D01*
X262060118Y-137929819D02*
X262202975Y-137977438D01*
X262202975Y-137977438D02*
X262250594Y-138025057D01*
X262964880Y-137929819D02*
X262964880Y-138644104D01*
X262964880Y-138644104D02*
X262917261Y-138786961D01*
X262917261Y-138786961D02*
X262822023Y-138882200D01*
X262822023Y-138882200D02*
X262679166Y-138929819D01*
X262679166Y-138929819D02*
X262583928Y-138929819D01*
X263917261Y-138929819D02*
X263441071Y-138929819D01*
X263441071Y-138929819D02*
X263441071Y-137929819D01*
X264822023Y-138834580D02*
X264774404Y-138882200D01*
X264774404Y-138882200D02*
X264631547Y-138929819D01*
X264631547Y-138929819D02*
X264536309Y-138929819D01*
X264536309Y-138929819D02*
X264393452Y-138882200D01*
X264393452Y-138882200D02*
X264298214Y-138786961D01*
X264298214Y-138786961D02*
X264250595Y-138691723D01*
X264250595Y-138691723D02*
X264202976Y-138501247D01*
X264202976Y-138501247D02*
X264202976Y-138358390D01*
X264202976Y-138358390D02*
X264250595Y-138167914D01*
X264250595Y-138167914D02*
X264298214Y-138072676D01*
X264298214Y-138072676D02*
X264393452Y-137977438D01*
X264393452Y-137977438D02*
X264536309Y-137929819D01*
X264536309Y-137929819D02*
X264631547Y-137929819D01*
X264631547Y-137929819D02*
X264774404Y-137977438D01*
X264774404Y-137977438D02*
X264822023Y-138025057D01*
X265536309Y-137929819D02*
X265536309Y-138644104D01*
X265536309Y-138644104D02*
X265488690Y-138786961D01*
X265488690Y-138786961D02*
X265393452Y-138882200D01*
X265393452Y-138882200D02*
X265250595Y-138929819D01*
X265250595Y-138929819D02*
X265155357Y-138929819D01*
X266488690Y-138929819D02*
X266012500Y-138929819D01*
X266012500Y-138929819D02*
X266012500Y-137929819D01*
X267393452Y-138834580D02*
X267345833Y-138882200D01*
X267345833Y-138882200D02*
X267202976Y-138929819D01*
X267202976Y-138929819D02*
X267107738Y-138929819D01*
X267107738Y-138929819D02*
X266964881Y-138882200D01*
X266964881Y-138882200D02*
X266869643Y-138786961D01*
X266869643Y-138786961D02*
X266822024Y-138691723D01*
X266822024Y-138691723D02*
X266774405Y-138501247D01*
X266774405Y-138501247D02*
X266774405Y-138358390D01*
X266774405Y-138358390D02*
X266822024Y-138167914D01*
X266822024Y-138167914D02*
X266869643Y-138072676D01*
X266869643Y-138072676D02*
X266964881Y-137977438D01*
X266964881Y-137977438D02*
X267107738Y-137929819D01*
X267107738Y-137929819D02*
X267202976Y-137929819D01*
X267202976Y-137929819D02*
X267345833Y-137977438D01*
X267345833Y-137977438D02*
X267393452Y-138025057D01*
X268107738Y-137929819D02*
X268107738Y-138644104D01*
X268107738Y-138644104D02*
X268060119Y-138786961D01*
X268060119Y-138786961D02*
X267964881Y-138882200D01*
X267964881Y-138882200D02*
X267822024Y-138929819D01*
X267822024Y-138929819D02*
X267726786Y-138929819D01*
X269060119Y-138929819D02*
X268583929Y-138929819D01*
X268583929Y-138929819D02*
X268583929Y-137929819D01*
X269964881Y-138834580D02*
X269917262Y-138882200D01*
X269917262Y-138882200D02*
X269774405Y-138929819D01*
X269774405Y-138929819D02*
X269679167Y-138929819D01*
X269679167Y-138929819D02*
X269536310Y-138882200D01*
X269536310Y-138882200D02*
X269441072Y-138786961D01*
X269441072Y-138786961D02*
X269393453Y-138691723D01*
X269393453Y-138691723D02*
X269345834Y-138501247D01*
X269345834Y-138501247D02*
X269345834Y-138358390D01*
X269345834Y-138358390D02*
X269393453Y-138167914D01*
X269393453Y-138167914D02*
X269441072Y-138072676D01*
X269441072Y-138072676D02*
X269536310Y-137977438D01*
X269536310Y-137977438D02*
X269679167Y-137929819D01*
X269679167Y-137929819D02*
X269774405Y-137929819D01*
X269774405Y-137929819D02*
X269917262Y-137977438D01*
X269917262Y-137977438D02*
X269964881Y-138025057D01*
%LPC*%
D11*
X276950000Y-64462500D03*
X23875000Y-138475000D03*
X107854100Y-138475000D03*
D12*
X214875000Y-64462500D03*
X85950000Y-64462500D03*
D11*
X276950000Y-138475000D03*
X189720800Y-138475000D03*
X23875000Y-64462500D03*
%LPD*%
M02*
